M48
; DRILL file {KiCad (6.0.5)} date Fri Jul  1 01:15:06 2022
; FORMAT={-:-/ absolute / inch / decimal}
; #@! TF.CreationDate,2022-07-01T01:15:06-04:00
; #@! TF.GenerationSoftware,Kicad,Pcbnew,(6.0.5)
; #@! TF.FileFunction,Plated,1,2,PTH
FMAT,2
INCH
; #@! TA.AperFunction,Plated,PTH,ViaDrill
T1C0.0157
; #@! TA.AperFunction,Plated,PTH,ComponentDrill
T2C0.0354
; #@! TA.AperFunction,Plated,PTH,ComponentDrill
T3C0.0394
%
G90
G05
T1
X5.8858Y-3.7008
X5.8858Y-4.4882
X5.8858Y-5.2756
X5.8858Y-6.063
X5.8858Y-6.8504
X6.5551Y-3.7008
X6.5551Y-4.4882
X6.5551Y-5.2756
X6.5551Y-6.063
X6.5551Y-6.8504
X7.2244Y-3.7008
X7.2244Y-4.4882
X7.2244Y-5.2756
X7.2244Y-6.063
X7.2244Y-6.8504
X7.8937Y-3.7008
X7.8937Y-4.4882
X7.8937Y-5.2756
X7.8937Y-6.063
X7.8937Y-6.8504
X8.563Y-3.7008
X8.563Y-4.4882
X8.563Y-5.2756
X8.563Y-6.063
X8.563Y-6.8504
T2
X5.6055Y-3.4646
X5.6055Y-4.252
X5.6055Y-5.0394
X5.6055Y-5.8268
X5.6055Y-6.6142
X5.9055Y-3.4646
X5.9055Y-4.252
X5.9055Y-5.0394
X5.9055Y-5.8268
X5.9055Y-6.6142
X6.2748Y-3.4646
X6.2748Y-4.252
X6.2748Y-5.0394
X6.2748Y-5.8268
X6.2748Y-6.6142
X6.5748Y-3.4646
X6.5748Y-4.252
X6.5748Y-5.0394
X6.5748Y-5.8268
X6.5748Y-6.6142
X6.9441Y-3.4646
X6.9441Y-4.252
X6.9441Y-5.0394
X6.9441Y-5.8268
X6.9441Y-6.6142
X7.2441Y-3.4646
X7.2441Y-4.252
X7.2441Y-5.0394
X7.2441Y-5.8268
X7.2441Y-6.6142
X7.6134Y-3.4646
X7.6134Y-4.252
X7.6134Y-5.0394
X7.6134Y-5.8268
X7.6134Y-6.6142
X7.9134Y-3.4646
X7.9134Y-4.252
X7.9134Y-5.0394
X7.9134Y-5.8268
X7.9134Y-6.6142
X8.2827Y-3.4646
X8.2827Y-4.252
X8.2827Y-5.0394
X8.2827Y-5.8268
X8.2827Y-6.6142
X8.5827Y-3.4646
X8.5827Y-4.252
X8.5827Y-5.0394
X8.5827Y-5.8268
X8.5827Y-6.6142
T3
X5.6268Y-3.2874
X5.6268Y-4.0748
X5.6268Y-4.8622
X5.6268Y-5.6496
X5.6268Y-6.437
X5.628Y-3.8543
X5.628Y-4.6417
X5.628Y-5.4291
X5.628Y-6.2165
X5.628Y-7.0039
X5.728Y-3.8602
X5.728Y-4.6476
X5.728Y-5.435
X5.728Y-6.2224
X5.728Y-7.0098
X5.8268Y-3.2874
X5.8268Y-4.0748
X5.8268Y-4.8622
X5.8268Y-5.6496
X5.8268Y-6.437
X5.828Y-3.8543
X5.828Y-4.6417
X5.828Y-5.4291
X5.828Y-6.2165
X5.828Y-7.0039
X5.928Y-3.8602
X5.928Y-4.6476
X5.928Y-5.435
X5.928Y-6.2224
X5.928Y-7.0098
X6.0268Y-3.2874
X6.0268Y-4.0748
X6.0268Y-4.8622
X6.0268Y-5.6496
X6.0268Y-6.437
X6.028Y-3.8543
X6.028Y-4.6417
X6.028Y-5.4291
X6.028Y-6.2165
X6.028Y-7.0039
X6.063Y-3.4236
X6.063Y-3.5236
X6.063Y-3.6236
X6.063Y-3.7236
X6.063Y-4.211
X6.063Y-4.311
X6.063Y-4.411
X6.063Y-4.511
X6.063Y-4.9984
X6.063Y-5.0984
X6.063Y-5.1984
X6.063Y-5.2984
X6.063Y-5.7858
X6.063Y-5.8858
X6.063Y-5.9858
X6.063Y-6.0858
X6.063Y-6.5732
X6.063Y-6.6732
X6.063Y-6.7732
X6.063Y-6.8732
X6.2961Y-3.2874
X6.2961Y-4.0748
X6.2961Y-4.8622
X6.2961Y-5.6496
X6.2961Y-6.437
X6.2972Y-3.8543
X6.2972Y-4.6417
X6.2972Y-5.4291
X6.2972Y-6.2165
X6.2972Y-7.0039
X6.3972Y-3.8602
X6.3972Y-4.6476
X6.3972Y-5.435
X6.3972Y-6.2224
X6.3972Y-7.0098
X6.4961Y-3.2874
X6.4961Y-4.0748
X6.4961Y-4.8622
X6.4961Y-5.6496
X6.4961Y-6.437
X6.4972Y-3.8543
X6.4972Y-4.6417
X6.4972Y-5.4291
X6.4972Y-6.2165
X6.4972Y-7.0039
X6.5972Y-3.8602
X6.5972Y-4.6476
X6.5972Y-5.435
X6.5972Y-6.2224
X6.5972Y-7.0098
X6.6961Y-3.2874
X6.6961Y-4.0748
X6.6961Y-4.8622
X6.6961Y-5.6496
X6.6961Y-6.437
X6.6972Y-3.8543
X6.6972Y-4.6417
X6.6972Y-5.4291
X6.6972Y-6.2165
X6.6972Y-7.0039
X6.7323Y-3.4236
X6.7323Y-3.5236
X6.7323Y-3.6236
X6.7323Y-3.7236
X6.7323Y-4.211
X6.7323Y-4.311
X6.7323Y-4.411
X6.7323Y-4.511
X6.7323Y-4.9984
X6.7323Y-5.0984
X6.7323Y-5.1984
X6.7323Y-5.2984
X6.7323Y-5.7858
X6.7323Y-5.8858
X6.7323Y-5.9858
X6.7323Y-6.0858
X6.7323Y-6.5732
X6.7323Y-6.6732
X6.7323Y-6.7732
X6.7323Y-6.8732
X6.9654Y-3.2874
X6.9654Y-4.0748
X6.9654Y-4.8622
X6.9654Y-5.6496
X6.9654Y-6.437
X6.9665Y-3.8543
X6.9665Y-4.6417
X6.9665Y-5.4291
X6.9665Y-6.2165
X6.9665Y-7.0039
X7.0665Y-3.8602
X7.0665Y-4.6476
X7.0665Y-5.435
X7.0665Y-6.2224
X7.0665Y-7.0098
X7.1654Y-3.2874
X7.1654Y-4.0748
X7.1654Y-4.8622
X7.1654Y-5.6496
X7.1654Y-6.437
X7.1665Y-3.8543
X7.1665Y-4.6417
X7.1665Y-5.4291
X7.1665Y-6.2165
X7.1665Y-7.0039
X7.2665Y-3.8602
X7.2665Y-4.6476
X7.2665Y-5.435
X7.2665Y-6.2224
X7.2665Y-7.0098
X7.3654Y-3.2874
X7.3654Y-4.0748
X7.3654Y-4.8622
X7.3654Y-5.6496
X7.3654Y-6.437
X7.3665Y-3.8543
X7.3665Y-4.6417
X7.3665Y-5.4291
X7.3665Y-6.2165
X7.3665Y-7.0039
X7.4016Y-3.4236
X7.4016Y-3.5236
X7.4016Y-3.6236
X7.4016Y-3.7236
X7.4016Y-4.211
X7.4016Y-4.311
X7.4016Y-4.411
X7.4016Y-4.511
X7.4016Y-4.9984
X7.4016Y-5.0984
X7.4016Y-5.1984
X7.4016Y-5.2984
X7.4016Y-5.7858
X7.4016Y-5.8858
X7.4016Y-5.9858
X7.4016Y-6.0858
X7.4016Y-6.5732
X7.4016Y-6.6732
X7.4016Y-6.7732
X7.4016Y-6.8732
X7.6346Y-3.2874
X7.6346Y-4.0748
X7.6346Y-4.8622
X7.6346Y-5.6496
X7.6346Y-6.437
X7.6358Y-3.8543
X7.6358Y-4.6417
X7.6358Y-5.4291
X7.6358Y-6.2165
X7.6358Y-7.0039
X7.7358Y-3.8602
X7.7358Y-4.6476
X7.7358Y-5.435
X7.7358Y-6.2224
X7.7358Y-7.0098
X7.8346Y-3.2874
X7.8346Y-4.0748
X7.8346Y-4.8622
X7.8346Y-5.6496
X7.8346Y-6.437
X7.8358Y-3.8543
X7.8358Y-4.6417
X7.8358Y-5.4291
X7.8358Y-6.2165
X7.8358Y-7.0039
X7.9358Y-3.8602
X7.9358Y-4.6476
X7.9358Y-5.435
X7.9358Y-6.2224
X7.9358Y-7.0098
X8.0346Y-3.2874
X8.0346Y-4.0748
X8.0346Y-4.8622
X8.0346Y-5.6496
X8.0346Y-6.437
X8.0358Y-3.8543
X8.0358Y-4.6417
X8.0358Y-5.4291
X8.0358Y-6.2165
X8.0358Y-7.0039
X8.0709Y-3.4236
X8.0709Y-3.5236
X8.0709Y-3.6236
X8.0709Y-3.7236
X8.0709Y-4.211
X8.0709Y-4.311
X8.0709Y-4.411
X8.0709Y-4.511
X8.0709Y-4.9984
X8.0709Y-5.0984
X8.0709Y-5.1984
X8.0709Y-5.2984
X8.0709Y-5.7858
X8.0709Y-5.8858
X8.0709Y-5.9858
X8.0709Y-6.0858
X8.0709Y-6.5732
X8.0709Y-6.6732
X8.0709Y-6.7732
X8.0709Y-6.8732
X8.3039Y-3.2874
X8.3039Y-4.0748
X8.3039Y-4.8622
X8.3039Y-5.6496
X8.3039Y-6.437
X8.3051Y-3.8543
X8.3051Y-4.6417
X8.3051Y-5.4291
X8.3051Y-6.2165
X8.3051Y-7.0039
X8.4051Y-3.8602
X8.4051Y-4.6476
X8.4051Y-5.435
X8.4051Y-6.2224
X8.4051Y-7.0098
X8.5039Y-3.2874
X8.5039Y-4.0748
X8.5039Y-4.8622
X8.5039Y-5.6496
X8.5039Y-6.437
X8.5051Y-3.8543
X8.5051Y-4.6417
X8.5051Y-5.4291
X8.5051Y-6.2165
X8.5051Y-7.0039
X8.6051Y-3.8602
X8.6051Y-4.6476
X8.6051Y-5.435
X8.6051Y-6.2224
X8.6051Y-7.0098
X8.7039Y-3.2874
X8.7039Y-4.0748
X8.7039Y-4.8622
X8.7039Y-5.6496
X8.7039Y-6.437
X8.7051Y-3.8543
X8.7051Y-4.6417
X8.7051Y-5.4291
X8.7051Y-6.2165
X8.7051Y-7.0039
X8.7402Y-3.4236
X8.7402Y-3.5236
X8.7402Y-3.6236
X8.7402Y-3.7236
X8.7402Y-4.211
X8.7402Y-4.311
X8.7402Y-4.411
X8.7402Y-4.511
X8.7402Y-4.9984
X8.7402Y-5.0984
X8.7402Y-5.1984
X8.7402Y-5.2984
X8.7402Y-5.7858
X8.7402Y-5.8858
X8.7402Y-5.9858
X8.7402Y-6.0858
X8.7402Y-6.5732
X8.7402Y-6.6732
X8.7402Y-6.7732
X8.7402Y-6.8732
T0
M30
