%TF.GenerationSoftware,KiCad,Pcbnew,(6.0.5)*%
%TF.CreationDate,2022-07-01T01:15:04-04:00*%
%TF.ProjectId,Feeder-Panelized,46656564-6572-42d5-9061-6e656c697a65,rev?*%
%TF.SameCoordinates,Original*%
%TF.FileFunction,Other,ECO1*%
%FSLAX46Y46*%
G04 Gerber Fmt 4.6, Leading zero omitted, Abs format (unit mm)*
G04 Created by KiCad (PCBNEW (6.0.5)) date 2022-07-01 01:15:04*
%MOMM*%
%LPD*%
G01*
G04 APERTURE LIST*
%ADD10C,0.150000*%
%ADD11C,0.300000*%
G04 APERTURE END LIST*
D10*
X224500000Y-100000000D02*
X139500000Y-100000000D01*
X207500000Y-180000000D02*
X207500000Y-80000000D01*
X190500000Y-80000000D02*
X190500000Y-180000000D01*
X224500000Y-140000000D02*
X139500000Y-140000000D01*
X173500000Y-180000000D02*
X173500000Y-80000000D01*
X156500000Y-80000000D02*
X156500000Y-180000000D01*
X139500000Y-120000000D02*
X224500000Y-120000000D01*
X139500000Y-160000000D02*
X224500000Y-160000000D01*
D11*
X128185952Y-158904761D02*
X128852619Y-160904761D01*
X129519285Y-158904761D01*
X130185952Y-160142857D02*
X131709761Y-160142857D01*
X133805000Y-160714285D02*
X133709761Y-160809523D01*
X133424047Y-160904761D01*
X133233571Y-160904761D01*
X132947857Y-160809523D01*
X132757380Y-160619047D01*
X132662142Y-160428571D01*
X132566904Y-160047619D01*
X132566904Y-159761904D01*
X132662142Y-159380952D01*
X132757380Y-159190476D01*
X132947857Y-159000000D01*
X133233571Y-158904761D01*
X133424047Y-158904761D01*
X133709761Y-159000000D01*
X133805000Y-159095238D01*
X134662142Y-158904761D02*
X134662142Y-160523809D01*
X134757380Y-160714285D01*
X134852619Y-160809523D01*
X135043095Y-160904761D01*
X135424047Y-160904761D01*
X135614523Y-160809523D01*
X135709761Y-160714285D01*
X135805000Y-160523809D01*
X135805000Y-158904761D01*
X136471666Y-158904761D02*
X137614523Y-158904761D01*
X137043095Y-160904761D02*
X137043095Y-158904761D01*
X155404761Y-78614523D02*
X157404761Y-77947857D01*
X155404761Y-77281190D01*
X156642857Y-76614523D02*
X156642857Y-75090714D01*
X157214285Y-72995476D02*
X157309523Y-73090714D01*
X157404761Y-73376428D01*
X157404761Y-73566904D01*
X157309523Y-73852619D01*
X157119047Y-74043095D01*
X156928571Y-74138333D01*
X156547619Y-74233571D01*
X156261904Y-74233571D01*
X155880952Y-74138333D01*
X155690476Y-74043095D01*
X155500000Y-73852619D01*
X155404761Y-73566904D01*
X155404761Y-73376428D01*
X155500000Y-73090714D01*
X155595238Y-72995476D01*
X155404761Y-72138333D02*
X157023809Y-72138333D01*
X157214285Y-72043095D01*
X157309523Y-71947857D01*
X157404761Y-71757380D01*
X157404761Y-71376428D01*
X157309523Y-71185952D01*
X157214285Y-71090714D01*
X157023809Y-70995476D01*
X155404761Y-70995476D01*
X155404761Y-70328809D02*
X155404761Y-69185952D01*
X157404761Y-69757380D02*
X155404761Y-69757380D01*
X189404761Y-78614523D02*
X191404761Y-77947857D01*
X189404761Y-77281190D01*
X190642857Y-76614523D02*
X190642857Y-75090714D01*
X191214285Y-72995476D02*
X191309523Y-73090714D01*
X191404761Y-73376428D01*
X191404761Y-73566904D01*
X191309523Y-73852619D01*
X191119047Y-74043095D01*
X190928571Y-74138333D01*
X190547619Y-74233571D01*
X190261904Y-74233571D01*
X189880952Y-74138333D01*
X189690476Y-74043095D01*
X189500000Y-73852619D01*
X189404761Y-73566904D01*
X189404761Y-73376428D01*
X189500000Y-73090714D01*
X189595238Y-72995476D01*
X189404761Y-72138333D02*
X191023809Y-72138333D01*
X191214285Y-72043095D01*
X191309523Y-71947857D01*
X191404761Y-71757380D01*
X191404761Y-71376428D01*
X191309523Y-71185952D01*
X191214285Y-71090714D01*
X191023809Y-70995476D01*
X189404761Y-70995476D01*
X189404761Y-70328809D02*
X189404761Y-69185952D01*
X191404761Y-69757380D02*
X189404761Y-69757380D01*
X128185952Y-118904761D02*
X128852619Y-120904761D01*
X129519285Y-118904761D01*
X130185952Y-120142857D02*
X131709761Y-120142857D01*
X133805000Y-120714285D02*
X133709761Y-120809523D01*
X133424047Y-120904761D01*
X133233571Y-120904761D01*
X132947857Y-120809523D01*
X132757380Y-120619047D01*
X132662142Y-120428571D01*
X132566904Y-120047619D01*
X132566904Y-119761904D01*
X132662142Y-119380952D01*
X132757380Y-119190476D01*
X132947857Y-119000000D01*
X133233571Y-118904761D01*
X133424047Y-118904761D01*
X133709761Y-119000000D01*
X133805000Y-119095238D01*
X134662142Y-118904761D02*
X134662142Y-120523809D01*
X134757380Y-120714285D01*
X134852619Y-120809523D01*
X135043095Y-120904761D01*
X135424047Y-120904761D01*
X135614523Y-120809523D01*
X135709761Y-120714285D01*
X135805000Y-120523809D01*
X135805000Y-118904761D01*
X136471666Y-118904761D02*
X137614523Y-118904761D01*
X137043095Y-120904761D02*
X137043095Y-118904761D01*
X128185952Y-98904761D02*
X128852619Y-100904761D01*
X129519285Y-98904761D01*
X130185952Y-100142857D02*
X131709761Y-100142857D01*
X133805000Y-100714285D02*
X133709761Y-100809523D01*
X133424047Y-100904761D01*
X133233571Y-100904761D01*
X132947857Y-100809523D01*
X132757380Y-100619047D01*
X132662142Y-100428571D01*
X132566904Y-100047619D01*
X132566904Y-99761904D01*
X132662142Y-99380952D01*
X132757380Y-99190476D01*
X132947857Y-99000000D01*
X133233571Y-98904761D01*
X133424047Y-98904761D01*
X133709761Y-99000000D01*
X133805000Y-99095238D01*
X134662142Y-98904761D02*
X134662142Y-100523809D01*
X134757380Y-100714285D01*
X134852619Y-100809523D01*
X135043095Y-100904761D01*
X135424047Y-100904761D01*
X135614523Y-100809523D01*
X135709761Y-100714285D01*
X135805000Y-100523809D01*
X135805000Y-98904761D01*
X136471666Y-98904761D02*
X137614523Y-98904761D01*
X137043095Y-100904761D02*
X137043095Y-98904761D01*
X206404761Y-78614523D02*
X208404761Y-77947857D01*
X206404761Y-77281190D01*
X207642857Y-76614523D02*
X207642857Y-75090714D01*
X208214285Y-72995476D02*
X208309523Y-73090714D01*
X208404761Y-73376428D01*
X208404761Y-73566904D01*
X208309523Y-73852619D01*
X208119047Y-74043095D01*
X207928571Y-74138333D01*
X207547619Y-74233571D01*
X207261904Y-74233571D01*
X206880952Y-74138333D01*
X206690476Y-74043095D01*
X206500000Y-73852619D01*
X206404761Y-73566904D01*
X206404761Y-73376428D01*
X206500000Y-73090714D01*
X206595238Y-72995476D01*
X206404761Y-72138333D02*
X208023809Y-72138333D01*
X208214285Y-72043095D01*
X208309523Y-71947857D01*
X208404761Y-71757380D01*
X208404761Y-71376428D01*
X208309523Y-71185952D01*
X208214285Y-71090714D01*
X208023809Y-70995476D01*
X206404761Y-70995476D01*
X206404761Y-70328809D02*
X206404761Y-69185952D01*
X208404761Y-69757380D02*
X206404761Y-69757380D01*
X172404761Y-78614523D02*
X174404761Y-77947857D01*
X172404761Y-77281190D01*
X173642857Y-76614523D02*
X173642857Y-75090714D01*
X174214285Y-72995476D02*
X174309523Y-73090714D01*
X174404761Y-73376428D01*
X174404761Y-73566904D01*
X174309523Y-73852619D01*
X174119047Y-74043095D01*
X173928571Y-74138333D01*
X173547619Y-74233571D01*
X173261904Y-74233571D01*
X172880952Y-74138333D01*
X172690476Y-74043095D01*
X172500000Y-73852619D01*
X172404761Y-73566904D01*
X172404761Y-73376428D01*
X172500000Y-73090714D01*
X172595238Y-72995476D01*
X172404761Y-72138333D02*
X174023809Y-72138333D01*
X174214285Y-72043095D01*
X174309523Y-71947857D01*
X174404761Y-71757380D01*
X174404761Y-71376428D01*
X174309523Y-71185952D01*
X174214285Y-71090714D01*
X174023809Y-70995476D01*
X172404761Y-70995476D01*
X172404761Y-70328809D02*
X172404761Y-69185952D01*
X174404761Y-69757380D02*
X172404761Y-69757380D01*
X128185952Y-138904761D02*
X128852619Y-140904761D01*
X129519285Y-138904761D01*
X130185952Y-140142857D02*
X131709761Y-140142857D01*
X133805000Y-140714285D02*
X133709761Y-140809523D01*
X133424047Y-140904761D01*
X133233571Y-140904761D01*
X132947857Y-140809523D01*
X132757380Y-140619047D01*
X132662142Y-140428571D01*
X132566904Y-140047619D01*
X132566904Y-139761904D01*
X132662142Y-139380952D01*
X132757380Y-139190476D01*
X132947857Y-139000000D01*
X133233571Y-138904761D01*
X133424047Y-138904761D01*
X133709761Y-139000000D01*
X133805000Y-139095238D01*
X134662142Y-138904761D02*
X134662142Y-140523809D01*
X134757380Y-140714285D01*
X134852619Y-140809523D01*
X135043095Y-140904761D01*
X135424047Y-140904761D01*
X135614523Y-140809523D01*
X135709761Y-140714285D01*
X135805000Y-140523809D01*
X135805000Y-138904761D01*
X136471666Y-138904761D02*
X137614523Y-138904761D01*
X137043095Y-140904761D02*
X137043095Y-138904761D01*
M02*
