%FSLAX45Y45*%
G04 Gerber Fmt 4.5, Leading zero omitted, Abs format (unit mm)*
G04 Created by KiCad (PCBNEW (6.0.5)) date 2022-07-01 01:15:07*
%MOMM*%
%LPD*%
G01*
G04 APERTURE LIST*
%TA.AperFunction,Profile*%
%ADD10C,0.100000*%
%TD*%
%ADD11C,0.200000*%
%ADD12C,0.040000*%
%ADD13C,0.090000*%
%ADD14C,0.100000*%
G04 APERTURE END LIST*
D10*
X13950000Y-8000000D02*
X22450000Y-8000000D01*
X22450000Y-8000000D02*
X22450000Y-18000000D01*
X22450000Y-18000000D02*
X13950000Y-18000000D01*
X13950000Y-18000000D02*
X13950000Y-8000000D01*
D11*
D12*
X14930000Y-9380000D02*
X14970000Y-9420000D01*
X14970000Y-9380000D02*
X14930000Y-9420000D01*
X14930000Y-11380000D02*
X14970000Y-11420000D01*
X14970000Y-11380000D02*
X14930000Y-11420000D01*
X14930000Y-13380000D02*
X14970000Y-13420000D01*
X14970000Y-13380000D02*
X14930000Y-13420000D01*
X14930000Y-15380000D02*
X14970000Y-15420000D01*
X14970000Y-15380000D02*
X14930000Y-15420000D01*
X14930000Y-17380000D02*
X14970000Y-17420000D01*
X14970000Y-17380000D02*
X14930000Y-17420000D01*
X16630000Y-9380000D02*
X16670000Y-9420000D01*
X16670000Y-9380000D02*
X16630000Y-9420000D01*
X16630000Y-11380000D02*
X16670000Y-11420000D01*
X16670000Y-11380000D02*
X16630000Y-11420000D01*
X16630000Y-13380000D02*
X16670000Y-13420000D01*
X16670000Y-13380000D02*
X16630000Y-13420000D01*
X16630000Y-15380000D02*
X16670000Y-15420000D01*
X16670000Y-15380000D02*
X16630000Y-15420000D01*
X16630000Y-17380000D02*
X16670000Y-17420000D01*
X16670000Y-17380000D02*
X16630000Y-17420000D01*
X18330000Y-9380000D02*
X18370000Y-9420000D01*
X18370000Y-9380000D02*
X18330000Y-9420000D01*
X18330000Y-11380000D02*
X18370000Y-11420000D01*
X18370000Y-11380000D02*
X18330000Y-11420000D01*
X18330000Y-13380000D02*
X18370000Y-13420000D01*
X18370000Y-13380000D02*
X18330000Y-13420000D01*
X18330000Y-15380000D02*
X18370000Y-15420000D01*
X18370000Y-15380000D02*
X18330000Y-15420000D01*
X18330000Y-17380000D02*
X18370000Y-17420000D01*
X18370000Y-17380000D02*
X18330000Y-17420000D01*
X20030000Y-9380000D02*
X20070000Y-9420000D01*
X20070000Y-9380000D02*
X20030000Y-9420000D01*
X20030000Y-11380000D02*
X20070000Y-11420000D01*
X20070000Y-11380000D02*
X20030000Y-11420000D01*
X20030000Y-13380000D02*
X20070000Y-13420000D01*
X20070000Y-13380000D02*
X20030000Y-13420000D01*
X20030000Y-15380000D02*
X20070000Y-15420000D01*
X20070000Y-15380000D02*
X20030000Y-15420000D01*
X20030000Y-17380000D02*
X20070000Y-17420000D01*
X20070000Y-17380000D02*
X20030000Y-17420000D01*
X21730000Y-9380000D02*
X21770000Y-9420000D01*
X21770000Y-9380000D02*
X21730000Y-9420000D01*
X21730000Y-11380000D02*
X21770000Y-11420000D01*
X21770000Y-11380000D02*
X21730000Y-11420000D01*
X21730000Y-13380000D02*
X21770000Y-13420000D01*
X21770000Y-13380000D02*
X21730000Y-13420000D01*
X21730000Y-15380000D02*
X21770000Y-15420000D01*
X21770000Y-15380000D02*
X21730000Y-15420000D01*
X21730000Y-17380000D02*
X21770000Y-17420000D01*
X21770000Y-17380000D02*
X21730000Y-17420000D01*
D13*
X14283000Y-8800000D02*
G75*
G03*
X14283000Y-8800000I-45000J0D01*
G01*
X14283000Y-10800000D02*
G75*
G03*
X14283000Y-10800000I-45000J0D01*
G01*
X14283000Y-12800000D02*
G75*
G03*
X14283000Y-12800000I-45000J0D01*
G01*
X14283000Y-14800000D02*
G75*
G03*
X14283000Y-14800000I-45000J0D01*
G01*
X14283000Y-16800000D02*
G75*
G03*
X14283000Y-16800000I-45000J0D01*
G01*
X15045000Y-8800000D02*
G75*
G03*
X15045000Y-8800000I-45000J0D01*
G01*
X15045000Y-10800000D02*
G75*
G03*
X15045000Y-10800000I-45000J0D01*
G01*
X15045000Y-12800000D02*
G75*
G03*
X15045000Y-12800000I-45000J0D01*
G01*
X15045000Y-14800000D02*
G75*
G03*
X15045000Y-14800000I-45000J0D01*
G01*
X15045000Y-16800000D02*
G75*
G03*
X15045000Y-16800000I-45000J0D01*
G01*
X15983000Y-8800000D02*
G75*
G03*
X15983000Y-8800000I-45000J0D01*
G01*
X15983000Y-10800000D02*
G75*
G03*
X15983000Y-10800000I-45000J0D01*
G01*
X15983000Y-12800000D02*
G75*
G03*
X15983000Y-12800000I-45000J0D01*
G01*
X15983000Y-14800000D02*
G75*
G03*
X15983000Y-14800000I-45000J0D01*
G01*
X15983000Y-16800000D02*
G75*
G03*
X15983000Y-16800000I-45000J0D01*
G01*
X16745000Y-8800000D02*
G75*
G03*
X16745000Y-8800000I-45000J0D01*
G01*
X16745000Y-10800000D02*
G75*
G03*
X16745000Y-10800000I-45000J0D01*
G01*
X16745000Y-12800000D02*
G75*
G03*
X16745000Y-12800000I-45000J0D01*
G01*
X16745000Y-14800000D02*
G75*
G03*
X16745000Y-14800000I-45000J0D01*
G01*
X16745000Y-16800000D02*
G75*
G03*
X16745000Y-16800000I-45000J0D01*
G01*
X17683000Y-8800000D02*
G75*
G03*
X17683000Y-8800000I-45000J0D01*
G01*
X17683000Y-10800000D02*
G75*
G03*
X17683000Y-10800000I-45000J0D01*
G01*
X17683000Y-12800000D02*
G75*
G03*
X17683000Y-12800000I-45000J0D01*
G01*
X17683000Y-14800000D02*
G75*
G03*
X17683000Y-14800000I-45000J0D01*
G01*
X17683000Y-16800000D02*
G75*
G03*
X17683000Y-16800000I-45000J0D01*
G01*
X18445000Y-8800000D02*
G75*
G03*
X18445000Y-8800000I-45000J0D01*
G01*
X18445000Y-10800000D02*
G75*
G03*
X18445000Y-10800000I-45000J0D01*
G01*
X18445000Y-12800000D02*
G75*
G03*
X18445000Y-12800000I-45000J0D01*
G01*
X18445000Y-14800000D02*
G75*
G03*
X18445000Y-14800000I-45000J0D01*
G01*
X18445000Y-16800000D02*
G75*
G03*
X18445000Y-16800000I-45000J0D01*
G01*
X19383000Y-8800000D02*
G75*
G03*
X19383000Y-8800000I-45000J0D01*
G01*
X19383000Y-10800000D02*
G75*
G03*
X19383000Y-10800000I-45000J0D01*
G01*
X19383000Y-12800000D02*
G75*
G03*
X19383000Y-12800000I-45000J0D01*
G01*
X19383000Y-14800000D02*
G75*
G03*
X19383000Y-14800000I-45000J0D01*
G01*
X19383000Y-16800000D02*
G75*
G03*
X19383000Y-16800000I-45000J0D01*
G01*
X20145000Y-8800000D02*
G75*
G03*
X20145000Y-8800000I-45000J0D01*
G01*
X20145000Y-10800000D02*
G75*
G03*
X20145000Y-10800000I-45000J0D01*
G01*
X20145000Y-12800000D02*
G75*
G03*
X20145000Y-12800000I-45000J0D01*
G01*
X20145000Y-14800000D02*
G75*
G03*
X20145000Y-14800000I-45000J0D01*
G01*
X20145000Y-16800000D02*
G75*
G03*
X20145000Y-16800000I-45000J0D01*
G01*
X21083000Y-8800000D02*
G75*
G03*
X21083000Y-8800000I-45000J0D01*
G01*
X21083000Y-10800000D02*
G75*
G03*
X21083000Y-10800000I-45000J0D01*
G01*
X21083000Y-12800000D02*
G75*
G03*
X21083000Y-12800000I-45000J0D01*
G01*
X21083000Y-14800000D02*
G75*
G03*
X21083000Y-14800000I-45000J0D01*
G01*
X21083000Y-16800000D02*
G75*
G03*
X21083000Y-16800000I-45000J0D01*
G01*
X21845000Y-8800000D02*
G75*
G03*
X21845000Y-8800000I-45000J0D01*
G01*
X21845000Y-10800000D02*
G75*
G03*
X21845000Y-10800000I-45000J0D01*
G01*
X21845000Y-12800000D02*
G75*
G03*
X21845000Y-12800000I-45000J0D01*
G01*
X21845000Y-14800000D02*
G75*
G03*
X21845000Y-14800000I-45000J0D01*
G01*
X21845000Y-16800000D02*
G75*
G03*
X21845000Y-16800000I-45000J0D01*
G01*
D14*
X14292000Y-8300000D02*
X14292000Y-8400000D01*
X14242000Y-8350000D02*
X14342000Y-8350000D01*
X14292000Y-10300000D02*
X14292000Y-10400000D01*
X14242000Y-10350000D02*
X14342000Y-10350000D01*
X14292000Y-12300000D02*
X14292000Y-12400000D01*
X14242000Y-12350000D02*
X14342000Y-12350000D01*
X14292000Y-14300000D02*
X14292000Y-14400000D01*
X14242000Y-14350000D02*
X14342000Y-14350000D01*
X14292000Y-16300000D02*
X14292000Y-16400000D01*
X14242000Y-16350000D02*
X14342000Y-16350000D01*
X14295000Y-9740000D02*
X14295000Y-9840000D01*
X14245000Y-9790000D02*
X14345000Y-9790000D01*
X14295000Y-11740000D02*
X14295000Y-11840000D01*
X14245000Y-11790000D02*
X14345000Y-11790000D01*
X14295000Y-13740000D02*
X14295000Y-13840000D01*
X14245000Y-13790000D02*
X14345000Y-13790000D01*
X14295000Y-15740000D02*
X14295000Y-15840000D01*
X14245000Y-15790000D02*
X14345000Y-15790000D01*
X14295000Y-17740000D02*
X14295000Y-17840000D01*
X14245000Y-17790000D02*
X14345000Y-17790000D01*
X14549000Y-9755000D02*
X14549000Y-9855000D01*
X14499000Y-9805000D02*
X14599000Y-9805000D01*
X14549000Y-11755000D02*
X14549000Y-11855000D01*
X14499000Y-11805000D02*
X14599000Y-11805000D01*
X14549000Y-13755000D02*
X14549000Y-13855000D01*
X14499000Y-13805000D02*
X14599000Y-13805000D01*
X14549000Y-15755000D02*
X14549000Y-15855000D01*
X14499000Y-15805000D02*
X14599000Y-15805000D01*
X14549000Y-17755000D02*
X14549000Y-17855000D01*
X14499000Y-17805000D02*
X14599000Y-17805000D01*
X14800000Y-8300000D02*
X14800000Y-8400000D01*
X14750000Y-8350000D02*
X14850000Y-8350000D01*
X14800000Y-10300000D02*
X14800000Y-10400000D01*
X14750000Y-10350000D02*
X14850000Y-10350000D01*
X14800000Y-12300000D02*
X14800000Y-12400000D01*
X14750000Y-12350000D02*
X14850000Y-12350000D01*
X14800000Y-14300000D02*
X14800000Y-14400000D01*
X14750000Y-14350000D02*
X14850000Y-14350000D01*
X14800000Y-16300000D02*
X14800000Y-16400000D01*
X14750000Y-16350000D02*
X14850000Y-16350000D01*
X14803000Y-9740000D02*
X14803000Y-9840000D01*
X14753000Y-9790000D02*
X14853000Y-9790000D01*
X14803000Y-11740000D02*
X14803000Y-11840000D01*
X14753000Y-11790000D02*
X14853000Y-11790000D01*
X14803000Y-13740000D02*
X14803000Y-13840000D01*
X14753000Y-13790000D02*
X14853000Y-13790000D01*
X14803000Y-15740000D02*
X14803000Y-15840000D01*
X14753000Y-15790000D02*
X14853000Y-15790000D01*
X14803000Y-17740000D02*
X14803000Y-17840000D01*
X14753000Y-17790000D02*
X14853000Y-17790000D01*
X15057000Y-9755000D02*
X15057000Y-9855000D01*
X15007000Y-9805000D02*
X15107000Y-9805000D01*
X15057000Y-11755000D02*
X15057000Y-11855000D01*
X15007000Y-11805000D02*
X15107000Y-11805000D01*
X15057000Y-13755000D02*
X15057000Y-13855000D01*
X15007000Y-13805000D02*
X15107000Y-13805000D01*
X15057000Y-15755000D02*
X15057000Y-15855000D01*
X15007000Y-15805000D02*
X15107000Y-15805000D01*
X15057000Y-17755000D02*
X15057000Y-17855000D01*
X15007000Y-17805000D02*
X15107000Y-17805000D01*
X15308000Y-8300000D02*
X15308000Y-8400000D01*
X15258000Y-8350000D02*
X15358000Y-8350000D01*
X15308000Y-10300000D02*
X15308000Y-10400000D01*
X15258000Y-10350000D02*
X15358000Y-10350000D01*
X15308000Y-12300000D02*
X15308000Y-12400000D01*
X15258000Y-12350000D02*
X15358000Y-12350000D01*
X15308000Y-14300000D02*
X15308000Y-14400000D01*
X15258000Y-14350000D02*
X15358000Y-14350000D01*
X15308000Y-16300000D02*
X15308000Y-16400000D01*
X15258000Y-16350000D02*
X15358000Y-16350000D01*
X15311000Y-9740000D02*
X15311000Y-9840000D01*
X15261000Y-9790000D02*
X15361000Y-9790000D01*
X15311000Y-11740000D02*
X15311000Y-11840000D01*
X15261000Y-11790000D02*
X15361000Y-11790000D01*
X15311000Y-13740000D02*
X15311000Y-13840000D01*
X15261000Y-13790000D02*
X15361000Y-13790000D01*
X15311000Y-15740000D02*
X15311000Y-15840000D01*
X15261000Y-15790000D02*
X15361000Y-15790000D01*
X15311000Y-17740000D02*
X15311000Y-17840000D01*
X15261000Y-17790000D02*
X15361000Y-17790000D01*
X15400000Y-8646000D02*
X15400000Y-8746000D01*
X15350000Y-8696000D02*
X15450000Y-8696000D01*
X15400000Y-8900000D02*
X15400000Y-9000000D01*
X15350000Y-8950000D02*
X15450000Y-8950000D01*
X15400000Y-9154000D02*
X15400000Y-9254000D01*
X15350000Y-9204000D02*
X15450000Y-9204000D01*
X15400000Y-9408000D02*
X15400000Y-9508000D01*
X15350000Y-9458000D02*
X15450000Y-9458000D01*
X15400000Y-10646000D02*
X15400000Y-10746000D01*
X15350000Y-10696000D02*
X15450000Y-10696000D01*
X15400000Y-10900000D02*
X15400000Y-11000000D01*
X15350000Y-10950000D02*
X15450000Y-10950000D01*
X15400000Y-11154000D02*
X15400000Y-11254000D01*
X15350000Y-11204000D02*
X15450000Y-11204000D01*
X15400000Y-11408000D02*
X15400000Y-11508000D01*
X15350000Y-11458000D02*
X15450000Y-11458000D01*
X15400000Y-12646000D02*
X15400000Y-12746000D01*
X15350000Y-12696000D02*
X15450000Y-12696000D01*
X15400000Y-12900000D02*
X15400000Y-13000000D01*
X15350000Y-12950000D02*
X15450000Y-12950000D01*
X15400000Y-13154000D02*
X15400000Y-13254000D01*
X15350000Y-13204000D02*
X15450000Y-13204000D01*
X15400000Y-13408000D02*
X15400000Y-13508000D01*
X15350000Y-13458000D02*
X15450000Y-13458000D01*
X15400000Y-14646000D02*
X15400000Y-14746000D01*
X15350000Y-14696000D02*
X15450000Y-14696000D01*
X15400000Y-14900000D02*
X15400000Y-15000000D01*
X15350000Y-14950000D02*
X15450000Y-14950000D01*
X15400000Y-15154000D02*
X15400000Y-15254000D01*
X15350000Y-15204000D02*
X15450000Y-15204000D01*
X15400000Y-15408000D02*
X15400000Y-15508000D01*
X15350000Y-15458000D02*
X15450000Y-15458000D01*
X15400000Y-16646000D02*
X15400000Y-16746000D01*
X15350000Y-16696000D02*
X15450000Y-16696000D01*
X15400000Y-16900000D02*
X15400000Y-17000000D01*
X15350000Y-16950000D02*
X15450000Y-16950000D01*
X15400000Y-17154000D02*
X15400000Y-17254000D01*
X15350000Y-17204000D02*
X15450000Y-17204000D01*
X15400000Y-17408000D02*
X15400000Y-17508000D01*
X15350000Y-17458000D02*
X15450000Y-17458000D01*
X15992000Y-8300000D02*
X15992000Y-8400000D01*
X15942000Y-8350000D02*
X16042000Y-8350000D01*
X15992000Y-10300000D02*
X15992000Y-10400000D01*
X15942000Y-10350000D02*
X16042000Y-10350000D01*
X15992000Y-12300000D02*
X15992000Y-12400000D01*
X15942000Y-12350000D02*
X16042000Y-12350000D01*
X15992000Y-14300000D02*
X15992000Y-14400000D01*
X15942000Y-14350000D02*
X16042000Y-14350000D01*
X15992000Y-16300000D02*
X15992000Y-16400000D01*
X15942000Y-16350000D02*
X16042000Y-16350000D01*
X15995000Y-9740000D02*
X15995000Y-9840000D01*
X15945000Y-9790000D02*
X16045000Y-9790000D01*
X15995000Y-11740000D02*
X15995000Y-11840000D01*
X15945000Y-11790000D02*
X16045000Y-11790000D01*
X15995000Y-13740000D02*
X15995000Y-13840000D01*
X15945000Y-13790000D02*
X16045000Y-13790000D01*
X15995000Y-15740000D02*
X15995000Y-15840000D01*
X15945000Y-15790000D02*
X16045000Y-15790000D01*
X15995000Y-17740000D02*
X15995000Y-17840000D01*
X15945000Y-17790000D02*
X16045000Y-17790000D01*
X16249000Y-9755000D02*
X16249000Y-9855000D01*
X16199000Y-9805000D02*
X16299000Y-9805000D01*
X16249000Y-11755000D02*
X16249000Y-11855000D01*
X16199000Y-11805000D02*
X16299000Y-11805000D01*
X16249000Y-13755000D02*
X16249000Y-13855000D01*
X16199000Y-13805000D02*
X16299000Y-13805000D01*
X16249000Y-15755000D02*
X16249000Y-15855000D01*
X16199000Y-15805000D02*
X16299000Y-15805000D01*
X16249000Y-17755000D02*
X16249000Y-17855000D01*
X16199000Y-17805000D02*
X16299000Y-17805000D01*
X16500000Y-8300000D02*
X16500000Y-8400000D01*
X16450000Y-8350000D02*
X16550000Y-8350000D01*
X16500000Y-10300000D02*
X16500000Y-10400000D01*
X16450000Y-10350000D02*
X16550000Y-10350000D01*
X16500000Y-12300000D02*
X16500000Y-12400000D01*
X16450000Y-12350000D02*
X16550000Y-12350000D01*
X16500000Y-14300000D02*
X16500000Y-14400000D01*
X16450000Y-14350000D02*
X16550000Y-14350000D01*
X16500000Y-16300000D02*
X16500000Y-16400000D01*
X16450000Y-16350000D02*
X16550000Y-16350000D01*
X16503000Y-9740000D02*
X16503000Y-9840000D01*
X16453000Y-9790000D02*
X16553000Y-9790000D01*
X16503000Y-11740000D02*
X16503000Y-11840000D01*
X16453000Y-11790000D02*
X16553000Y-11790000D01*
X16503000Y-13740000D02*
X16503000Y-13840000D01*
X16453000Y-13790000D02*
X16553000Y-13790000D01*
X16503000Y-15740000D02*
X16503000Y-15840000D01*
X16453000Y-15790000D02*
X16553000Y-15790000D01*
X16503000Y-17740000D02*
X16503000Y-17840000D01*
X16453000Y-17790000D02*
X16553000Y-17790000D01*
X16757000Y-9755000D02*
X16757000Y-9855000D01*
X16707000Y-9805000D02*
X16807000Y-9805000D01*
X16757000Y-11755000D02*
X16757000Y-11855000D01*
X16707000Y-11805000D02*
X16807000Y-11805000D01*
X16757000Y-13755000D02*
X16757000Y-13855000D01*
X16707000Y-13805000D02*
X16807000Y-13805000D01*
X16757000Y-15755000D02*
X16757000Y-15855000D01*
X16707000Y-15805000D02*
X16807000Y-15805000D01*
X16757000Y-17755000D02*
X16757000Y-17855000D01*
X16707000Y-17805000D02*
X16807000Y-17805000D01*
X17008000Y-8300000D02*
X17008000Y-8400000D01*
X16958000Y-8350000D02*
X17058000Y-8350000D01*
X17008000Y-10300000D02*
X17008000Y-10400000D01*
X16958000Y-10350000D02*
X17058000Y-10350000D01*
X17008000Y-12300000D02*
X17008000Y-12400000D01*
X16958000Y-12350000D02*
X17058000Y-12350000D01*
X17008000Y-14300000D02*
X17008000Y-14400000D01*
X16958000Y-14350000D02*
X17058000Y-14350000D01*
X17008000Y-16300000D02*
X17008000Y-16400000D01*
X16958000Y-16350000D02*
X17058000Y-16350000D01*
X17011000Y-9740000D02*
X17011000Y-9840000D01*
X16961000Y-9790000D02*
X17061000Y-9790000D01*
X17011000Y-11740000D02*
X17011000Y-11840000D01*
X16961000Y-11790000D02*
X17061000Y-11790000D01*
X17011000Y-13740000D02*
X17011000Y-13840000D01*
X16961000Y-13790000D02*
X17061000Y-13790000D01*
X17011000Y-15740000D02*
X17011000Y-15840000D01*
X16961000Y-15790000D02*
X17061000Y-15790000D01*
X17011000Y-17740000D02*
X17011000Y-17840000D01*
X16961000Y-17790000D02*
X17061000Y-17790000D01*
X17100000Y-8646000D02*
X17100000Y-8746000D01*
X17050000Y-8696000D02*
X17150000Y-8696000D01*
X17100000Y-8900000D02*
X17100000Y-9000000D01*
X17050000Y-8950000D02*
X17150000Y-8950000D01*
X17100000Y-9154000D02*
X17100000Y-9254000D01*
X17050000Y-9204000D02*
X17150000Y-9204000D01*
X17100000Y-9408000D02*
X17100000Y-9508000D01*
X17050000Y-9458000D02*
X17150000Y-9458000D01*
X17100000Y-10646000D02*
X17100000Y-10746000D01*
X17050000Y-10696000D02*
X17150000Y-10696000D01*
X17100000Y-10900000D02*
X17100000Y-11000000D01*
X17050000Y-10950000D02*
X17150000Y-10950000D01*
X17100000Y-11154000D02*
X17100000Y-11254000D01*
X17050000Y-11204000D02*
X17150000Y-11204000D01*
X17100000Y-11408000D02*
X17100000Y-11508000D01*
X17050000Y-11458000D02*
X17150000Y-11458000D01*
X17100000Y-12646000D02*
X17100000Y-12746000D01*
X17050000Y-12696000D02*
X17150000Y-12696000D01*
X17100000Y-12900000D02*
X17100000Y-13000000D01*
X17050000Y-12950000D02*
X17150000Y-12950000D01*
X17100000Y-13154000D02*
X17100000Y-13254000D01*
X17050000Y-13204000D02*
X17150000Y-13204000D01*
X17100000Y-13408000D02*
X17100000Y-13508000D01*
X17050000Y-13458000D02*
X17150000Y-13458000D01*
X17100000Y-14646000D02*
X17100000Y-14746000D01*
X17050000Y-14696000D02*
X17150000Y-14696000D01*
X17100000Y-14900000D02*
X17100000Y-15000000D01*
X17050000Y-14950000D02*
X17150000Y-14950000D01*
X17100000Y-15154000D02*
X17100000Y-15254000D01*
X17050000Y-15204000D02*
X17150000Y-15204000D01*
X17100000Y-15408000D02*
X17100000Y-15508000D01*
X17050000Y-15458000D02*
X17150000Y-15458000D01*
X17100000Y-16646000D02*
X17100000Y-16746000D01*
X17050000Y-16696000D02*
X17150000Y-16696000D01*
X17100000Y-16900000D02*
X17100000Y-17000000D01*
X17050000Y-16950000D02*
X17150000Y-16950000D01*
X17100000Y-17154000D02*
X17100000Y-17254000D01*
X17050000Y-17204000D02*
X17150000Y-17204000D01*
X17100000Y-17408000D02*
X17100000Y-17508000D01*
X17050000Y-17458000D02*
X17150000Y-17458000D01*
X17692000Y-8300000D02*
X17692000Y-8400000D01*
X17642000Y-8350000D02*
X17742000Y-8350000D01*
X17692000Y-10300000D02*
X17692000Y-10400000D01*
X17642000Y-10350000D02*
X17742000Y-10350000D01*
X17692000Y-12300000D02*
X17692000Y-12400000D01*
X17642000Y-12350000D02*
X17742000Y-12350000D01*
X17692000Y-14300000D02*
X17692000Y-14400000D01*
X17642000Y-14350000D02*
X17742000Y-14350000D01*
X17692000Y-16300000D02*
X17692000Y-16400000D01*
X17642000Y-16350000D02*
X17742000Y-16350000D01*
X17695000Y-9740000D02*
X17695000Y-9840000D01*
X17645000Y-9790000D02*
X17745000Y-9790000D01*
X17695000Y-11740000D02*
X17695000Y-11840000D01*
X17645000Y-11790000D02*
X17745000Y-11790000D01*
X17695000Y-13740000D02*
X17695000Y-13840000D01*
X17645000Y-13790000D02*
X17745000Y-13790000D01*
X17695000Y-15740000D02*
X17695000Y-15840000D01*
X17645000Y-15790000D02*
X17745000Y-15790000D01*
X17695000Y-17740000D02*
X17695000Y-17840000D01*
X17645000Y-17790000D02*
X17745000Y-17790000D01*
X17949000Y-9755000D02*
X17949000Y-9855000D01*
X17899000Y-9805000D02*
X17999000Y-9805000D01*
X17949000Y-11755000D02*
X17949000Y-11855000D01*
X17899000Y-11805000D02*
X17999000Y-11805000D01*
X17949000Y-13755000D02*
X17949000Y-13855000D01*
X17899000Y-13805000D02*
X17999000Y-13805000D01*
X17949000Y-15755000D02*
X17949000Y-15855000D01*
X17899000Y-15805000D02*
X17999000Y-15805000D01*
X17949000Y-17755000D02*
X17949000Y-17855000D01*
X17899000Y-17805000D02*
X17999000Y-17805000D01*
X18200000Y-8300000D02*
X18200000Y-8400000D01*
X18150000Y-8350000D02*
X18250000Y-8350000D01*
X18200000Y-10300000D02*
X18200000Y-10400000D01*
X18150000Y-10350000D02*
X18250000Y-10350000D01*
X18200000Y-12300000D02*
X18200000Y-12400000D01*
X18150000Y-12350000D02*
X18250000Y-12350000D01*
X18200000Y-14300000D02*
X18200000Y-14400000D01*
X18150000Y-14350000D02*
X18250000Y-14350000D01*
X18200000Y-16300000D02*
X18200000Y-16400000D01*
X18150000Y-16350000D02*
X18250000Y-16350000D01*
X18203000Y-9740000D02*
X18203000Y-9840000D01*
X18153000Y-9790000D02*
X18253000Y-9790000D01*
X18203000Y-11740000D02*
X18203000Y-11840000D01*
X18153000Y-11790000D02*
X18253000Y-11790000D01*
X18203000Y-13740000D02*
X18203000Y-13840000D01*
X18153000Y-13790000D02*
X18253000Y-13790000D01*
X18203000Y-15740000D02*
X18203000Y-15840000D01*
X18153000Y-15790000D02*
X18253000Y-15790000D01*
X18203000Y-17740000D02*
X18203000Y-17840000D01*
X18153000Y-17790000D02*
X18253000Y-17790000D01*
X18457000Y-9755000D02*
X18457000Y-9855000D01*
X18407000Y-9805000D02*
X18507000Y-9805000D01*
X18457000Y-11755000D02*
X18457000Y-11855000D01*
X18407000Y-11805000D02*
X18507000Y-11805000D01*
X18457000Y-13755000D02*
X18457000Y-13855000D01*
X18407000Y-13805000D02*
X18507000Y-13805000D01*
X18457000Y-15755000D02*
X18457000Y-15855000D01*
X18407000Y-15805000D02*
X18507000Y-15805000D01*
X18457000Y-17755000D02*
X18457000Y-17855000D01*
X18407000Y-17805000D02*
X18507000Y-17805000D01*
X18708000Y-8300000D02*
X18708000Y-8400000D01*
X18658000Y-8350000D02*
X18758000Y-8350000D01*
X18708000Y-10300000D02*
X18708000Y-10400000D01*
X18658000Y-10350000D02*
X18758000Y-10350000D01*
X18708000Y-12300000D02*
X18708000Y-12400000D01*
X18658000Y-12350000D02*
X18758000Y-12350000D01*
X18708000Y-14300000D02*
X18708000Y-14400000D01*
X18658000Y-14350000D02*
X18758000Y-14350000D01*
X18708000Y-16300000D02*
X18708000Y-16400000D01*
X18658000Y-16350000D02*
X18758000Y-16350000D01*
X18711000Y-9740000D02*
X18711000Y-9840000D01*
X18661000Y-9790000D02*
X18761000Y-9790000D01*
X18711000Y-11740000D02*
X18711000Y-11840000D01*
X18661000Y-11790000D02*
X18761000Y-11790000D01*
X18711000Y-13740000D02*
X18711000Y-13840000D01*
X18661000Y-13790000D02*
X18761000Y-13790000D01*
X18711000Y-15740000D02*
X18711000Y-15840000D01*
X18661000Y-15790000D02*
X18761000Y-15790000D01*
X18711000Y-17740000D02*
X18711000Y-17840000D01*
X18661000Y-17790000D02*
X18761000Y-17790000D01*
X18800000Y-8646000D02*
X18800000Y-8746000D01*
X18750000Y-8696000D02*
X18850000Y-8696000D01*
X18800000Y-8900000D02*
X18800000Y-9000000D01*
X18750000Y-8950000D02*
X18850000Y-8950000D01*
X18800000Y-9154000D02*
X18800000Y-9254000D01*
X18750000Y-9204000D02*
X18850000Y-9204000D01*
X18800000Y-9408000D02*
X18800000Y-9508000D01*
X18750000Y-9458000D02*
X18850000Y-9458000D01*
X18800000Y-10646000D02*
X18800000Y-10746000D01*
X18750000Y-10696000D02*
X18850000Y-10696000D01*
X18800000Y-10900000D02*
X18800000Y-11000000D01*
X18750000Y-10950000D02*
X18850000Y-10950000D01*
X18800000Y-11154000D02*
X18800000Y-11254000D01*
X18750000Y-11204000D02*
X18850000Y-11204000D01*
X18800000Y-11408000D02*
X18800000Y-11508000D01*
X18750000Y-11458000D02*
X18850000Y-11458000D01*
X18800000Y-12646000D02*
X18800000Y-12746000D01*
X18750000Y-12696000D02*
X18850000Y-12696000D01*
X18800000Y-12900000D02*
X18800000Y-13000000D01*
X18750000Y-12950000D02*
X18850000Y-12950000D01*
X18800000Y-13154000D02*
X18800000Y-13254000D01*
X18750000Y-13204000D02*
X18850000Y-13204000D01*
X18800000Y-13408000D02*
X18800000Y-13508000D01*
X18750000Y-13458000D02*
X18850000Y-13458000D01*
X18800000Y-14646000D02*
X18800000Y-14746000D01*
X18750000Y-14696000D02*
X18850000Y-14696000D01*
X18800000Y-14900000D02*
X18800000Y-15000000D01*
X18750000Y-14950000D02*
X18850000Y-14950000D01*
X18800000Y-15154000D02*
X18800000Y-15254000D01*
X18750000Y-15204000D02*
X18850000Y-15204000D01*
X18800000Y-15408000D02*
X18800000Y-15508000D01*
X18750000Y-15458000D02*
X18850000Y-15458000D01*
X18800000Y-16646000D02*
X18800000Y-16746000D01*
X18750000Y-16696000D02*
X18850000Y-16696000D01*
X18800000Y-16900000D02*
X18800000Y-17000000D01*
X18750000Y-16950000D02*
X18850000Y-16950000D01*
X18800000Y-17154000D02*
X18800000Y-17254000D01*
X18750000Y-17204000D02*
X18850000Y-17204000D01*
X18800000Y-17408000D02*
X18800000Y-17508000D01*
X18750000Y-17458000D02*
X18850000Y-17458000D01*
X19392000Y-8300000D02*
X19392000Y-8400000D01*
X19342000Y-8350000D02*
X19442000Y-8350000D01*
X19392000Y-10300000D02*
X19392000Y-10400000D01*
X19342000Y-10350000D02*
X19442000Y-10350000D01*
X19392000Y-12300000D02*
X19392000Y-12400000D01*
X19342000Y-12350000D02*
X19442000Y-12350000D01*
X19392000Y-14300000D02*
X19392000Y-14400000D01*
X19342000Y-14350000D02*
X19442000Y-14350000D01*
X19392000Y-16300000D02*
X19392000Y-16400000D01*
X19342000Y-16350000D02*
X19442000Y-16350000D01*
X19395000Y-9740000D02*
X19395000Y-9840000D01*
X19345000Y-9790000D02*
X19445000Y-9790000D01*
X19395000Y-11740000D02*
X19395000Y-11840000D01*
X19345000Y-11790000D02*
X19445000Y-11790000D01*
X19395000Y-13740000D02*
X19395000Y-13840000D01*
X19345000Y-13790000D02*
X19445000Y-13790000D01*
X19395000Y-15740000D02*
X19395000Y-15840000D01*
X19345000Y-15790000D02*
X19445000Y-15790000D01*
X19395000Y-17740000D02*
X19395000Y-17840000D01*
X19345000Y-17790000D02*
X19445000Y-17790000D01*
X19649000Y-9755000D02*
X19649000Y-9855000D01*
X19599000Y-9805000D02*
X19699000Y-9805000D01*
X19649000Y-11755000D02*
X19649000Y-11855000D01*
X19599000Y-11805000D02*
X19699000Y-11805000D01*
X19649000Y-13755000D02*
X19649000Y-13855000D01*
X19599000Y-13805000D02*
X19699000Y-13805000D01*
X19649000Y-15755000D02*
X19649000Y-15855000D01*
X19599000Y-15805000D02*
X19699000Y-15805000D01*
X19649000Y-17755000D02*
X19649000Y-17855000D01*
X19599000Y-17805000D02*
X19699000Y-17805000D01*
X19900000Y-8300000D02*
X19900000Y-8400000D01*
X19850000Y-8350000D02*
X19950000Y-8350000D01*
X19900000Y-10300000D02*
X19900000Y-10400000D01*
X19850000Y-10350000D02*
X19950000Y-10350000D01*
X19900000Y-12300000D02*
X19900000Y-12400000D01*
X19850000Y-12350000D02*
X19950000Y-12350000D01*
X19900000Y-14300000D02*
X19900000Y-14400000D01*
X19850000Y-14350000D02*
X19950000Y-14350000D01*
X19900000Y-16300000D02*
X19900000Y-16400000D01*
X19850000Y-16350000D02*
X19950000Y-16350000D01*
X19903000Y-9740000D02*
X19903000Y-9840000D01*
X19853000Y-9790000D02*
X19953000Y-9790000D01*
X19903000Y-11740000D02*
X19903000Y-11840000D01*
X19853000Y-11790000D02*
X19953000Y-11790000D01*
X19903000Y-13740000D02*
X19903000Y-13840000D01*
X19853000Y-13790000D02*
X19953000Y-13790000D01*
X19903000Y-15740000D02*
X19903000Y-15840000D01*
X19853000Y-15790000D02*
X19953000Y-15790000D01*
X19903000Y-17740000D02*
X19903000Y-17840000D01*
X19853000Y-17790000D02*
X19953000Y-17790000D01*
X20157000Y-9755000D02*
X20157000Y-9855000D01*
X20107000Y-9805000D02*
X20207000Y-9805000D01*
X20157000Y-11755000D02*
X20157000Y-11855000D01*
X20107000Y-11805000D02*
X20207000Y-11805000D01*
X20157000Y-13755000D02*
X20157000Y-13855000D01*
X20107000Y-13805000D02*
X20207000Y-13805000D01*
X20157000Y-15755000D02*
X20157000Y-15855000D01*
X20107000Y-15805000D02*
X20207000Y-15805000D01*
X20157000Y-17755000D02*
X20157000Y-17855000D01*
X20107000Y-17805000D02*
X20207000Y-17805000D01*
X20408000Y-8300000D02*
X20408000Y-8400000D01*
X20358000Y-8350000D02*
X20458000Y-8350000D01*
X20408000Y-10300000D02*
X20408000Y-10400000D01*
X20358000Y-10350000D02*
X20458000Y-10350000D01*
X20408000Y-12300000D02*
X20408000Y-12400000D01*
X20358000Y-12350000D02*
X20458000Y-12350000D01*
X20408000Y-14300000D02*
X20408000Y-14400000D01*
X20358000Y-14350000D02*
X20458000Y-14350000D01*
X20408000Y-16300000D02*
X20408000Y-16400000D01*
X20358000Y-16350000D02*
X20458000Y-16350000D01*
X20411000Y-9740000D02*
X20411000Y-9840000D01*
X20361000Y-9790000D02*
X20461000Y-9790000D01*
X20411000Y-11740000D02*
X20411000Y-11840000D01*
X20361000Y-11790000D02*
X20461000Y-11790000D01*
X20411000Y-13740000D02*
X20411000Y-13840000D01*
X20361000Y-13790000D02*
X20461000Y-13790000D01*
X20411000Y-15740000D02*
X20411000Y-15840000D01*
X20361000Y-15790000D02*
X20461000Y-15790000D01*
X20411000Y-17740000D02*
X20411000Y-17840000D01*
X20361000Y-17790000D02*
X20461000Y-17790000D01*
X20500000Y-8646000D02*
X20500000Y-8746000D01*
X20450000Y-8696000D02*
X20550000Y-8696000D01*
X20500000Y-8900000D02*
X20500000Y-9000000D01*
X20450000Y-8950000D02*
X20550000Y-8950000D01*
X20500000Y-9154000D02*
X20500000Y-9254000D01*
X20450000Y-9204000D02*
X20550000Y-9204000D01*
X20500000Y-9408000D02*
X20500000Y-9508000D01*
X20450000Y-9458000D02*
X20550000Y-9458000D01*
X20500000Y-10646000D02*
X20500000Y-10746000D01*
X20450000Y-10696000D02*
X20550000Y-10696000D01*
X20500000Y-10900000D02*
X20500000Y-11000000D01*
X20450000Y-10950000D02*
X20550000Y-10950000D01*
X20500000Y-11154000D02*
X20500000Y-11254000D01*
X20450000Y-11204000D02*
X20550000Y-11204000D01*
X20500000Y-11408000D02*
X20500000Y-11508000D01*
X20450000Y-11458000D02*
X20550000Y-11458000D01*
X20500000Y-12646000D02*
X20500000Y-12746000D01*
X20450000Y-12696000D02*
X20550000Y-12696000D01*
X20500000Y-12900000D02*
X20500000Y-13000000D01*
X20450000Y-12950000D02*
X20550000Y-12950000D01*
X20500000Y-13154000D02*
X20500000Y-13254000D01*
X20450000Y-13204000D02*
X20550000Y-13204000D01*
X20500000Y-13408000D02*
X20500000Y-13508000D01*
X20450000Y-13458000D02*
X20550000Y-13458000D01*
X20500000Y-14646000D02*
X20500000Y-14746000D01*
X20450000Y-14696000D02*
X20550000Y-14696000D01*
X20500000Y-14900000D02*
X20500000Y-15000000D01*
X20450000Y-14950000D02*
X20550000Y-14950000D01*
X20500000Y-15154000D02*
X20500000Y-15254000D01*
X20450000Y-15204000D02*
X20550000Y-15204000D01*
X20500000Y-15408000D02*
X20500000Y-15508000D01*
X20450000Y-15458000D02*
X20550000Y-15458000D01*
X20500000Y-16646000D02*
X20500000Y-16746000D01*
X20450000Y-16696000D02*
X20550000Y-16696000D01*
X20500000Y-16900000D02*
X20500000Y-17000000D01*
X20450000Y-16950000D02*
X20550000Y-16950000D01*
X20500000Y-17154000D02*
X20500000Y-17254000D01*
X20450000Y-17204000D02*
X20550000Y-17204000D01*
X20500000Y-17408000D02*
X20500000Y-17508000D01*
X20450000Y-17458000D02*
X20550000Y-17458000D01*
X21092000Y-8300000D02*
X21092000Y-8400000D01*
X21042000Y-8350000D02*
X21142000Y-8350000D01*
X21092000Y-10300000D02*
X21092000Y-10400000D01*
X21042000Y-10350000D02*
X21142000Y-10350000D01*
X21092000Y-12300000D02*
X21092000Y-12400000D01*
X21042000Y-12350000D02*
X21142000Y-12350000D01*
X21092000Y-14300000D02*
X21092000Y-14400000D01*
X21042000Y-14350000D02*
X21142000Y-14350000D01*
X21092000Y-16300000D02*
X21092000Y-16400000D01*
X21042000Y-16350000D02*
X21142000Y-16350000D01*
X21095000Y-9740000D02*
X21095000Y-9840000D01*
X21045000Y-9790000D02*
X21145000Y-9790000D01*
X21095000Y-11740000D02*
X21095000Y-11840000D01*
X21045000Y-11790000D02*
X21145000Y-11790000D01*
X21095000Y-13740000D02*
X21095000Y-13840000D01*
X21045000Y-13790000D02*
X21145000Y-13790000D01*
X21095000Y-15740000D02*
X21095000Y-15840000D01*
X21045000Y-15790000D02*
X21145000Y-15790000D01*
X21095000Y-17740000D02*
X21095000Y-17840000D01*
X21045000Y-17790000D02*
X21145000Y-17790000D01*
X21349000Y-9755000D02*
X21349000Y-9855000D01*
X21299000Y-9805000D02*
X21399000Y-9805000D01*
X21349000Y-11755000D02*
X21349000Y-11855000D01*
X21299000Y-11805000D02*
X21399000Y-11805000D01*
X21349000Y-13755000D02*
X21349000Y-13855000D01*
X21299000Y-13805000D02*
X21399000Y-13805000D01*
X21349000Y-15755000D02*
X21349000Y-15855000D01*
X21299000Y-15805000D02*
X21399000Y-15805000D01*
X21349000Y-17755000D02*
X21349000Y-17855000D01*
X21299000Y-17805000D02*
X21399000Y-17805000D01*
X21600000Y-8300000D02*
X21600000Y-8400000D01*
X21550000Y-8350000D02*
X21650000Y-8350000D01*
X21600000Y-10300000D02*
X21600000Y-10400000D01*
X21550000Y-10350000D02*
X21650000Y-10350000D01*
X21600000Y-12300000D02*
X21600000Y-12400000D01*
X21550000Y-12350000D02*
X21650000Y-12350000D01*
X21600000Y-14300000D02*
X21600000Y-14400000D01*
X21550000Y-14350000D02*
X21650000Y-14350000D01*
X21600000Y-16300000D02*
X21600000Y-16400000D01*
X21550000Y-16350000D02*
X21650000Y-16350000D01*
X21603000Y-9740000D02*
X21603000Y-9840000D01*
X21553000Y-9790000D02*
X21653000Y-9790000D01*
X21603000Y-11740000D02*
X21603000Y-11840000D01*
X21553000Y-11790000D02*
X21653000Y-11790000D01*
X21603000Y-13740000D02*
X21603000Y-13840000D01*
X21553000Y-13790000D02*
X21653000Y-13790000D01*
X21603000Y-15740000D02*
X21603000Y-15840000D01*
X21553000Y-15790000D02*
X21653000Y-15790000D01*
X21603000Y-17740000D02*
X21603000Y-17840000D01*
X21553000Y-17790000D02*
X21653000Y-17790000D01*
X21857000Y-9755000D02*
X21857000Y-9855000D01*
X21807000Y-9805000D02*
X21907000Y-9805000D01*
X21857000Y-11755000D02*
X21857000Y-11855000D01*
X21807000Y-11805000D02*
X21907000Y-11805000D01*
X21857000Y-13755000D02*
X21857000Y-13855000D01*
X21807000Y-13805000D02*
X21907000Y-13805000D01*
X21857000Y-15755000D02*
X21857000Y-15855000D01*
X21807000Y-15805000D02*
X21907000Y-15805000D01*
X21857000Y-17755000D02*
X21857000Y-17855000D01*
X21807000Y-17805000D02*
X21907000Y-17805000D01*
X22108000Y-8300000D02*
X22108000Y-8400000D01*
X22058000Y-8350000D02*
X22158000Y-8350000D01*
X22108000Y-10300000D02*
X22108000Y-10400000D01*
X22058000Y-10350000D02*
X22158000Y-10350000D01*
X22108000Y-12300000D02*
X22108000Y-12400000D01*
X22058000Y-12350000D02*
X22158000Y-12350000D01*
X22108000Y-14300000D02*
X22108000Y-14400000D01*
X22058000Y-14350000D02*
X22158000Y-14350000D01*
X22108000Y-16300000D02*
X22108000Y-16400000D01*
X22058000Y-16350000D02*
X22158000Y-16350000D01*
X22111000Y-9740000D02*
X22111000Y-9840000D01*
X22061000Y-9790000D02*
X22161000Y-9790000D01*
X22111000Y-11740000D02*
X22111000Y-11840000D01*
X22061000Y-11790000D02*
X22161000Y-11790000D01*
X22111000Y-13740000D02*
X22111000Y-13840000D01*
X22061000Y-13790000D02*
X22161000Y-13790000D01*
X22111000Y-15740000D02*
X22111000Y-15840000D01*
X22061000Y-15790000D02*
X22161000Y-15790000D01*
X22111000Y-17740000D02*
X22111000Y-17840000D01*
X22061000Y-17790000D02*
X22161000Y-17790000D01*
X22200000Y-8646000D02*
X22200000Y-8746000D01*
X22150000Y-8696000D02*
X22250000Y-8696000D01*
X22200000Y-8900000D02*
X22200000Y-9000000D01*
X22150000Y-8950000D02*
X22250000Y-8950000D01*
X22200000Y-9154000D02*
X22200000Y-9254000D01*
X22150000Y-9204000D02*
X22250000Y-9204000D01*
X22200000Y-9408000D02*
X22200000Y-9508000D01*
X22150000Y-9458000D02*
X22250000Y-9458000D01*
X22200000Y-10646000D02*
X22200000Y-10746000D01*
X22150000Y-10696000D02*
X22250000Y-10696000D01*
X22200000Y-10900000D02*
X22200000Y-11000000D01*
X22150000Y-10950000D02*
X22250000Y-10950000D01*
X22200000Y-11154000D02*
X22200000Y-11254000D01*
X22150000Y-11204000D02*
X22250000Y-11204000D01*
X22200000Y-11408000D02*
X22200000Y-11508000D01*
X22150000Y-11458000D02*
X22250000Y-11458000D01*
X22200000Y-12646000D02*
X22200000Y-12746000D01*
X22150000Y-12696000D02*
X22250000Y-12696000D01*
X22200000Y-12900000D02*
X22200000Y-13000000D01*
X22150000Y-12950000D02*
X22250000Y-12950000D01*
X22200000Y-13154000D02*
X22200000Y-13254000D01*
X22150000Y-13204000D02*
X22250000Y-13204000D01*
X22200000Y-13408000D02*
X22200000Y-13508000D01*
X22150000Y-13458000D02*
X22250000Y-13458000D01*
X22200000Y-14646000D02*
X22200000Y-14746000D01*
X22150000Y-14696000D02*
X22250000Y-14696000D01*
X22200000Y-14900000D02*
X22200000Y-15000000D01*
X22150000Y-14950000D02*
X22250000Y-14950000D01*
X22200000Y-15154000D02*
X22200000Y-15254000D01*
X22150000Y-15204000D02*
X22250000Y-15204000D01*
X22200000Y-15408000D02*
X22200000Y-15508000D01*
X22150000Y-15458000D02*
X22250000Y-15458000D01*
X22200000Y-16646000D02*
X22200000Y-16746000D01*
X22150000Y-16696000D02*
X22250000Y-16696000D01*
X22200000Y-16900000D02*
X22200000Y-17000000D01*
X22150000Y-16950000D02*
X22250000Y-16950000D01*
X22200000Y-17154000D02*
X22200000Y-17254000D01*
X22150000Y-17204000D02*
X22250000Y-17204000D01*
X22200000Y-17408000D02*
X22200000Y-17508000D01*
X22150000Y-17458000D02*
X22250000Y-17458000D01*
D11*
X14202619Y-18315476D02*
X14202619Y-18115476D01*
X14250238Y-18115476D01*
X14278809Y-18125000D01*
X14297857Y-18144048D01*
X14307381Y-18163095D01*
X14316905Y-18201190D01*
X14316905Y-18229762D01*
X14307381Y-18267857D01*
X14297857Y-18286905D01*
X14278809Y-18305952D01*
X14250238Y-18315476D01*
X14202619Y-18315476D01*
X14402619Y-18315476D02*
X14402619Y-18182143D01*
X14402619Y-18220238D02*
X14412143Y-18201190D01*
X14421667Y-18191667D01*
X14440714Y-18182143D01*
X14459762Y-18182143D01*
X14526428Y-18315476D02*
X14526428Y-18182143D01*
X14526428Y-18115476D02*
X14516905Y-18125000D01*
X14526428Y-18134524D01*
X14535952Y-18125000D01*
X14526428Y-18115476D01*
X14526428Y-18134524D01*
X14650238Y-18315476D02*
X14631190Y-18305952D01*
X14621667Y-18286905D01*
X14621667Y-18115476D01*
X14755000Y-18315476D02*
X14735952Y-18305952D01*
X14726428Y-18286905D01*
X14726428Y-18115476D01*
X14983571Y-18315476D02*
X14983571Y-18115476D01*
X15050238Y-18258333D01*
X15116905Y-18115476D01*
X15116905Y-18315476D01*
X15297857Y-18315476D02*
X15297857Y-18210714D01*
X15288333Y-18191667D01*
X15269286Y-18182143D01*
X15231190Y-18182143D01*
X15212143Y-18191667D01*
X15297857Y-18305952D02*
X15278809Y-18315476D01*
X15231190Y-18315476D01*
X15212143Y-18305952D01*
X15202619Y-18286905D01*
X15202619Y-18267857D01*
X15212143Y-18248810D01*
X15231190Y-18239286D01*
X15278809Y-18239286D01*
X15297857Y-18229762D01*
X15393095Y-18182143D02*
X15393095Y-18382143D01*
X15393095Y-18191667D02*
X15412143Y-18182143D01*
X15450238Y-18182143D01*
X15469286Y-18191667D01*
X15478809Y-18201190D01*
X15488333Y-18220238D01*
X15488333Y-18277381D01*
X15478809Y-18296429D01*
X15469286Y-18305952D01*
X15450238Y-18315476D01*
X15412143Y-18315476D01*
X15393095Y-18305952D01*
X15574048Y-18296429D02*
X15583571Y-18305952D01*
X15574048Y-18315476D01*
X15564524Y-18305952D01*
X15574048Y-18296429D01*
X15574048Y-18315476D01*
X15574048Y-18191667D02*
X15583571Y-18201190D01*
X15574048Y-18210714D01*
X15564524Y-18201190D01*
X15574048Y-18191667D01*
X15574048Y-18210714D01*
D12*
X13905000Y-18625000D02*
X13945000Y-18665000D01*
X13945000Y-18625000D02*
X13905000Y-18665000D01*
D11*
X14240714Y-18535476D02*
X14259762Y-18535476D01*
X14278809Y-18545000D01*
X14288333Y-18554524D01*
X14297857Y-18573571D01*
X14307381Y-18611667D01*
X14307381Y-18659286D01*
X14297857Y-18697381D01*
X14288333Y-18716429D01*
X14278809Y-18725952D01*
X14259762Y-18735476D01*
X14240714Y-18735476D01*
X14221667Y-18725952D01*
X14212143Y-18716429D01*
X14202619Y-18697381D01*
X14193095Y-18659286D01*
X14193095Y-18611667D01*
X14202619Y-18573571D01*
X14212143Y-18554524D01*
X14221667Y-18545000D01*
X14240714Y-18535476D01*
X14393095Y-18716429D02*
X14402619Y-18725952D01*
X14393095Y-18735476D01*
X14383571Y-18725952D01*
X14393095Y-18716429D01*
X14393095Y-18735476D01*
X14574048Y-18602143D02*
X14574048Y-18735476D01*
X14526428Y-18525952D02*
X14478809Y-18668810D01*
X14602619Y-18668810D01*
X14716905Y-18535476D02*
X14735952Y-18535476D01*
X14755000Y-18545000D01*
X14764524Y-18554524D01*
X14774048Y-18573571D01*
X14783571Y-18611667D01*
X14783571Y-18659286D01*
X14774048Y-18697381D01*
X14764524Y-18716429D01*
X14755000Y-18725952D01*
X14735952Y-18735476D01*
X14716905Y-18735476D01*
X14697857Y-18725952D01*
X14688333Y-18716429D01*
X14678809Y-18697381D01*
X14669286Y-18659286D01*
X14669286Y-18611667D01*
X14678809Y-18573571D01*
X14688333Y-18554524D01*
X14697857Y-18545000D01*
X14716905Y-18535476D01*
X14907381Y-18535476D02*
X14926428Y-18535476D01*
X14945476Y-18545000D01*
X14955000Y-18554524D01*
X14964524Y-18573571D01*
X14974048Y-18611667D01*
X14974048Y-18659286D01*
X14964524Y-18697381D01*
X14955000Y-18716429D01*
X14945476Y-18725952D01*
X14926428Y-18735476D01*
X14907381Y-18735476D01*
X14888333Y-18725952D01*
X14878809Y-18716429D01*
X14869286Y-18697381D01*
X14859762Y-18659286D01*
X14859762Y-18611667D01*
X14869286Y-18573571D01*
X14878809Y-18554524D01*
X14888333Y-18545000D01*
X14907381Y-18535476D01*
X15059762Y-18735476D02*
X15059762Y-18602143D01*
X15059762Y-18621190D02*
X15069286Y-18611667D01*
X15088333Y-18602143D01*
X15116905Y-18602143D01*
X15135952Y-18611667D01*
X15145476Y-18630714D01*
X15145476Y-18735476D01*
X15145476Y-18630714D02*
X15155000Y-18611667D01*
X15174048Y-18602143D01*
X15202619Y-18602143D01*
X15221667Y-18611667D01*
X15231190Y-18630714D01*
X15231190Y-18735476D01*
X15326428Y-18735476D02*
X15326428Y-18602143D01*
X15326428Y-18621190D02*
X15335952Y-18611667D01*
X15355000Y-18602143D01*
X15383571Y-18602143D01*
X15402619Y-18611667D01*
X15412143Y-18630714D01*
X15412143Y-18735476D01*
X15412143Y-18630714D02*
X15421667Y-18611667D01*
X15440714Y-18602143D01*
X15469286Y-18602143D01*
X15488333Y-18611667D01*
X15497857Y-18630714D01*
X15497857Y-18735476D01*
X15888333Y-18525952D02*
X15716905Y-18783095D01*
X16145476Y-18535476D02*
X16164524Y-18535476D01*
X16183571Y-18545000D01*
X16193095Y-18554524D01*
X16202619Y-18573571D01*
X16212143Y-18611667D01*
X16212143Y-18659286D01*
X16202619Y-18697381D01*
X16193095Y-18716429D01*
X16183571Y-18725952D01*
X16164524Y-18735476D01*
X16145476Y-18735476D01*
X16126428Y-18725952D01*
X16116905Y-18716429D01*
X16107381Y-18697381D01*
X16097857Y-18659286D01*
X16097857Y-18611667D01*
X16107381Y-18573571D01*
X16116905Y-18554524D01*
X16126428Y-18545000D01*
X16145476Y-18535476D01*
X16297857Y-18716429D02*
X16307381Y-18725952D01*
X16297857Y-18735476D01*
X16288333Y-18725952D01*
X16297857Y-18716429D01*
X16297857Y-18735476D01*
X16431190Y-18535476D02*
X16450238Y-18535476D01*
X16469286Y-18545000D01*
X16478809Y-18554524D01*
X16488333Y-18573571D01*
X16497857Y-18611667D01*
X16497857Y-18659286D01*
X16488333Y-18697381D01*
X16478809Y-18716429D01*
X16469286Y-18725952D01*
X16450238Y-18735476D01*
X16431190Y-18735476D01*
X16412143Y-18725952D01*
X16402619Y-18716429D01*
X16393095Y-18697381D01*
X16383571Y-18659286D01*
X16383571Y-18611667D01*
X16393095Y-18573571D01*
X16402619Y-18554524D01*
X16412143Y-18545000D01*
X16431190Y-18535476D01*
X16688333Y-18735476D02*
X16574048Y-18735476D01*
X16631190Y-18735476D02*
X16631190Y-18535476D01*
X16612143Y-18564048D01*
X16593095Y-18583095D01*
X16574048Y-18592619D01*
X16869286Y-18535476D02*
X16774048Y-18535476D01*
X16764524Y-18630714D01*
X16774048Y-18621190D01*
X16793095Y-18611667D01*
X16840714Y-18611667D01*
X16859762Y-18621190D01*
X16869286Y-18630714D01*
X16878810Y-18649762D01*
X16878810Y-18697381D01*
X16869286Y-18716429D01*
X16859762Y-18725952D01*
X16840714Y-18735476D01*
X16793095Y-18735476D01*
X16774048Y-18725952D01*
X16764524Y-18716429D01*
X16945476Y-18535476D02*
X17078810Y-18535476D01*
X16993095Y-18735476D01*
X17145476Y-18535476D02*
X17145476Y-18573571D01*
X17221667Y-18535476D02*
X17221667Y-18573571D01*
X17516905Y-18811667D02*
X17507381Y-18802143D01*
X17488333Y-18773571D01*
X17478810Y-18754524D01*
X17469286Y-18725952D01*
X17459762Y-18678333D01*
X17459762Y-18640238D01*
X17469286Y-18592619D01*
X17478810Y-18564048D01*
X17488333Y-18545000D01*
X17507381Y-18516429D01*
X17516905Y-18506905D01*
X17583571Y-18554524D02*
X17593095Y-18545000D01*
X17612143Y-18535476D01*
X17659762Y-18535476D01*
X17678810Y-18545000D01*
X17688333Y-18554524D01*
X17697857Y-18573571D01*
X17697857Y-18592619D01*
X17688333Y-18621190D01*
X17574048Y-18735476D01*
X17697857Y-18735476D01*
X17878810Y-18535476D02*
X17783571Y-18535476D01*
X17774048Y-18630714D01*
X17783571Y-18621190D01*
X17802619Y-18611667D01*
X17850238Y-18611667D01*
X17869286Y-18621190D01*
X17878810Y-18630714D01*
X17888333Y-18649762D01*
X17888333Y-18697381D01*
X17878810Y-18716429D01*
X17869286Y-18725952D01*
X17850238Y-18735476D01*
X17802619Y-18735476D01*
X17783571Y-18725952D01*
X17774048Y-18716429D01*
X18126429Y-18735476D02*
X18126429Y-18535476D01*
X18212143Y-18735476D02*
X18212143Y-18630714D01*
X18202619Y-18611667D01*
X18183571Y-18602143D01*
X18155000Y-18602143D01*
X18135952Y-18611667D01*
X18126429Y-18621190D01*
X18335952Y-18735476D02*
X18316905Y-18725952D01*
X18307381Y-18716429D01*
X18297857Y-18697381D01*
X18297857Y-18640238D01*
X18307381Y-18621190D01*
X18316905Y-18611667D01*
X18335952Y-18602143D01*
X18364524Y-18602143D01*
X18383571Y-18611667D01*
X18393095Y-18621190D01*
X18402619Y-18640238D01*
X18402619Y-18697381D01*
X18393095Y-18716429D01*
X18383571Y-18725952D01*
X18364524Y-18735476D01*
X18335952Y-18735476D01*
X18516905Y-18735476D02*
X18497857Y-18725952D01*
X18488333Y-18706905D01*
X18488333Y-18535476D01*
X18669286Y-18725952D02*
X18650238Y-18735476D01*
X18612143Y-18735476D01*
X18593095Y-18725952D01*
X18583571Y-18706905D01*
X18583571Y-18630714D01*
X18593095Y-18611667D01*
X18612143Y-18602143D01*
X18650238Y-18602143D01*
X18669286Y-18611667D01*
X18678810Y-18630714D01*
X18678810Y-18649762D01*
X18583571Y-18668810D01*
X18755000Y-18725952D02*
X18774048Y-18735476D01*
X18812143Y-18735476D01*
X18831190Y-18725952D01*
X18840714Y-18706905D01*
X18840714Y-18697381D01*
X18831190Y-18678333D01*
X18812143Y-18668810D01*
X18783571Y-18668810D01*
X18764524Y-18659286D01*
X18755000Y-18640238D01*
X18755000Y-18630714D01*
X18764524Y-18611667D01*
X18783571Y-18602143D01*
X18812143Y-18602143D01*
X18831190Y-18611667D01*
X18907381Y-18811667D02*
X18916905Y-18802143D01*
X18935952Y-18773571D01*
X18945476Y-18754524D01*
X18955000Y-18725952D01*
X18964524Y-18678333D01*
X18964524Y-18640238D01*
X18955000Y-18592619D01*
X18945476Y-18564048D01*
X18935952Y-18545000D01*
X18916905Y-18516429D01*
X18907381Y-18506905D01*
D13*
X13945000Y-18909000D02*
G75*
G03*
X13945000Y-18909000I-45000J0D01*
G01*
D11*
X14240714Y-18799476D02*
X14259762Y-18799476D01*
X14278809Y-18809000D01*
X14288333Y-18818524D01*
X14297857Y-18837571D01*
X14307381Y-18875667D01*
X14307381Y-18923286D01*
X14297857Y-18961381D01*
X14288333Y-18980429D01*
X14278809Y-18989952D01*
X14259762Y-18999476D01*
X14240714Y-18999476D01*
X14221667Y-18989952D01*
X14212143Y-18980429D01*
X14202619Y-18961381D01*
X14193095Y-18923286D01*
X14193095Y-18875667D01*
X14202619Y-18837571D01*
X14212143Y-18818524D01*
X14221667Y-18809000D01*
X14240714Y-18799476D01*
X14393095Y-18980429D02*
X14402619Y-18989952D01*
X14393095Y-18999476D01*
X14383571Y-18989952D01*
X14393095Y-18980429D01*
X14393095Y-18999476D01*
X14497857Y-18999476D02*
X14535952Y-18999476D01*
X14555000Y-18989952D01*
X14564524Y-18980429D01*
X14583571Y-18951857D01*
X14593095Y-18913762D01*
X14593095Y-18837571D01*
X14583571Y-18818524D01*
X14574048Y-18809000D01*
X14555000Y-18799476D01*
X14516905Y-18799476D01*
X14497857Y-18809000D01*
X14488333Y-18818524D01*
X14478809Y-18837571D01*
X14478809Y-18885190D01*
X14488333Y-18904238D01*
X14497857Y-18913762D01*
X14516905Y-18923286D01*
X14555000Y-18923286D01*
X14574048Y-18913762D01*
X14583571Y-18904238D01*
X14593095Y-18885190D01*
X14716905Y-18799476D02*
X14735952Y-18799476D01*
X14755000Y-18809000D01*
X14764524Y-18818524D01*
X14774048Y-18837571D01*
X14783571Y-18875667D01*
X14783571Y-18923286D01*
X14774048Y-18961381D01*
X14764524Y-18980429D01*
X14755000Y-18989952D01*
X14735952Y-18999476D01*
X14716905Y-18999476D01*
X14697857Y-18989952D01*
X14688333Y-18980429D01*
X14678809Y-18961381D01*
X14669286Y-18923286D01*
X14669286Y-18875667D01*
X14678809Y-18837571D01*
X14688333Y-18818524D01*
X14697857Y-18809000D01*
X14716905Y-18799476D01*
X14907381Y-18799476D02*
X14926428Y-18799476D01*
X14945476Y-18809000D01*
X14955000Y-18818524D01*
X14964524Y-18837571D01*
X14974048Y-18875667D01*
X14974048Y-18923286D01*
X14964524Y-18961381D01*
X14955000Y-18980429D01*
X14945476Y-18989952D01*
X14926428Y-18999476D01*
X14907381Y-18999476D01*
X14888333Y-18989952D01*
X14878809Y-18980429D01*
X14869286Y-18961381D01*
X14859762Y-18923286D01*
X14859762Y-18875667D01*
X14869286Y-18837571D01*
X14878809Y-18818524D01*
X14888333Y-18809000D01*
X14907381Y-18799476D01*
X15059762Y-18999476D02*
X15059762Y-18866143D01*
X15059762Y-18885190D02*
X15069286Y-18875667D01*
X15088333Y-18866143D01*
X15116905Y-18866143D01*
X15135952Y-18875667D01*
X15145476Y-18894714D01*
X15145476Y-18999476D01*
X15145476Y-18894714D02*
X15155000Y-18875667D01*
X15174048Y-18866143D01*
X15202619Y-18866143D01*
X15221667Y-18875667D01*
X15231190Y-18894714D01*
X15231190Y-18999476D01*
X15326428Y-18999476D02*
X15326428Y-18866143D01*
X15326428Y-18885190D02*
X15335952Y-18875667D01*
X15355000Y-18866143D01*
X15383571Y-18866143D01*
X15402619Y-18875667D01*
X15412143Y-18894714D01*
X15412143Y-18999476D01*
X15412143Y-18894714D02*
X15421667Y-18875667D01*
X15440714Y-18866143D01*
X15469286Y-18866143D01*
X15488333Y-18875667D01*
X15497857Y-18894714D01*
X15497857Y-18999476D01*
X15888333Y-18789952D02*
X15716905Y-19047095D01*
X16145476Y-18799476D02*
X16164524Y-18799476D01*
X16183571Y-18809000D01*
X16193095Y-18818524D01*
X16202619Y-18837571D01*
X16212143Y-18875667D01*
X16212143Y-18923286D01*
X16202619Y-18961381D01*
X16193095Y-18980429D01*
X16183571Y-18989952D01*
X16164524Y-18999476D01*
X16145476Y-18999476D01*
X16126428Y-18989952D01*
X16116905Y-18980429D01*
X16107381Y-18961381D01*
X16097857Y-18923286D01*
X16097857Y-18875667D01*
X16107381Y-18837571D01*
X16116905Y-18818524D01*
X16126428Y-18809000D01*
X16145476Y-18799476D01*
X16297857Y-18980429D02*
X16307381Y-18989952D01*
X16297857Y-18999476D01*
X16288333Y-18989952D01*
X16297857Y-18980429D01*
X16297857Y-18999476D01*
X16431190Y-18799476D02*
X16450238Y-18799476D01*
X16469286Y-18809000D01*
X16478809Y-18818524D01*
X16488333Y-18837571D01*
X16497857Y-18875667D01*
X16497857Y-18923286D01*
X16488333Y-18961381D01*
X16478809Y-18980429D01*
X16469286Y-18989952D01*
X16450238Y-18999476D01*
X16431190Y-18999476D01*
X16412143Y-18989952D01*
X16402619Y-18980429D01*
X16393095Y-18961381D01*
X16383571Y-18923286D01*
X16383571Y-18875667D01*
X16393095Y-18837571D01*
X16402619Y-18818524D01*
X16412143Y-18809000D01*
X16431190Y-18799476D01*
X16564524Y-18799476D02*
X16688333Y-18799476D01*
X16621667Y-18875667D01*
X16650238Y-18875667D01*
X16669286Y-18885190D01*
X16678809Y-18894714D01*
X16688333Y-18913762D01*
X16688333Y-18961381D01*
X16678809Y-18980429D01*
X16669286Y-18989952D01*
X16650238Y-18999476D01*
X16593095Y-18999476D01*
X16574048Y-18989952D01*
X16564524Y-18980429D01*
X16869286Y-18799476D02*
X16774048Y-18799476D01*
X16764524Y-18894714D01*
X16774048Y-18885190D01*
X16793095Y-18875667D01*
X16840714Y-18875667D01*
X16859762Y-18885190D01*
X16869286Y-18894714D01*
X16878810Y-18913762D01*
X16878810Y-18961381D01*
X16869286Y-18980429D01*
X16859762Y-18989952D01*
X16840714Y-18999476D01*
X16793095Y-18999476D01*
X16774048Y-18989952D01*
X16764524Y-18980429D01*
X17050238Y-18866143D02*
X17050238Y-18999476D01*
X17002619Y-18789952D02*
X16955000Y-18932810D01*
X17078810Y-18932810D01*
X17145476Y-18799476D02*
X17145476Y-18837571D01*
X17221667Y-18799476D02*
X17221667Y-18837571D01*
X17516905Y-19075667D02*
X17507381Y-19066143D01*
X17488333Y-19037571D01*
X17478810Y-19018524D01*
X17469286Y-18989952D01*
X17459762Y-18942333D01*
X17459762Y-18904238D01*
X17469286Y-18856619D01*
X17478810Y-18828048D01*
X17488333Y-18809000D01*
X17507381Y-18780429D01*
X17516905Y-18770905D01*
X17688333Y-18799476D02*
X17593095Y-18799476D01*
X17583571Y-18894714D01*
X17593095Y-18885190D01*
X17612143Y-18875667D01*
X17659762Y-18875667D01*
X17678810Y-18885190D01*
X17688333Y-18894714D01*
X17697857Y-18913762D01*
X17697857Y-18961381D01*
X17688333Y-18980429D01*
X17678810Y-18989952D01*
X17659762Y-18999476D01*
X17612143Y-18999476D01*
X17593095Y-18989952D01*
X17583571Y-18980429D01*
X17821667Y-18799476D02*
X17840714Y-18799476D01*
X17859762Y-18809000D01*
X17869286Y-18818524D01*
X17878810Y-18837571D01*
X17888333Y-18875667D01*
X17888333Y-18923286D01*
X17878810Y-18961381D01*
X17869286Y-18980429D01*
X17859762Y-18989952D01*
X17840714Y-18999476D01*
X17821667Y-18999476D01*
X17802619Y-18989952D01*
X17793095Y-18980429D01*
X17783571Y-18961381D01*
X17774048Y-18923286D01*
X17774048Y-18875667D01*
X17783571Y-18837571D01*
X17793095Y-18818524D01*
X17802619Y-18809000D01*
X17821667Y-18799476D01*
X18126429Y-18999476D02*
X18126429Y-18799476D01*
X18212143Y-18999476D02*
X18212143Y-18894714D01*
X18202619Y-18875667D01*
X18183571Y-18866143D01*
X18155000Y-18866143D01*
X18135952Y-18875667D01*
X18126429Y-18885190D01*
X18335952Y-18999476D02*
X18316905Y-18989952D01*
X18307381Y-18980429D01*
X18297857Y-18961381D01*
X18297857Y-18904238D01*
X18307381Y-18885190D01*
X18316905Y-18875667D01*
X18335952Y-18866143D01*
X18364524Y-18866143D01*
X18383571Y-18875667D01*
X18393095Y-18885190D01*
X18402619Y-18904238D01*
X18402619Y-18961381D01*
X18393095Y-18980429D01*
X18383571Y-18989952D01*
X18364524Y-18999476D01*
X18335952Y-18999476D01*
X18516905Y-18999476D02*
X18497857Y-18989952D01*
X18488333Y-18970905D01*
X18488333Y-18799476D01*
X18669286Y-18989952D02*
X18650238Y-18999476D01*
X18612143Y-18999476D01*
X18593095Y-18989952D01*
X18583571Y-18970905D01*
X18583571Y-18894714D01*
X18593095Y-18875667D01*
X18612143Y-18866143D01*
X18650238Y-18866143D01*
X18669286Y-18875667D01*
X18678810Y-18894714D01*
X18678810Y-18913762D01*
X18583571Y-18932810D01*
X18755000Y-18989952D02*
X18774048Y-18999476D01*
X18812143Y-18999476D01*
X18831190Y-18989952D01*
X18840714Y-18970905D01*
X18840714Y-18961381D01*
X18831190Y-18942333D01*
X18812143Y-18932810D01*
X18783571Y-18932810D01*
X18764524Y-18923286D01*
X18755000Y-18904238D01*
X18755000Y-18894714D01*
X18764524Y-18875667D01*
X18783571Y-18866143D01*
X18812143Y-18866143D01*
X18831190Y-18875667D01*
X18907381Y-19075667D02*
X18916905Y-19066143D01*
X18935952Y-19037571D01*
X18945476Y-19018524D01*
X18955000Y-18989952D01*
X18964524Y-18942333D01*
X18964524Y-18904238D01*
X18955000Y-18856619D01*
X18945476Y-18828048D01*
X18935952Y-18809000D01*
X18916905Y-18780429D01*
X18907381Y-18770905D01*
D14*
X13895000Y-19123000D02*
X13895000Y-19223000D01*
X13845000Y-19173000D02*
X13945000Y-19173000D01*
D11*
X14307381Y-19263476D02*
X14193095Y-19263476D01*
X14250238Y-19263476D02*
X14250238Y-19063476D01*
X14231190Y-19092048D01*
X14212143Y-19111095D01*
X14193095Y-19120619D01*
X14393095Y-19244429D02*
X14402619Y-19253952D01*
X14393095Y-19263476D01*
X14383571Y-19253952D01*
X14393095Y-19244429D01*
X14393095Y-19263476D01*
X14526428Y-19063476D02*
X14545476Y-19063476D01*
X14564524Y-19073000D01*
X14574048Y-19082524D01*
X14583571Y-19101571D01*
X14593095Y-19139667D01*
X14593095Y-19187286D01*
X14583571Y-19225381D01*
X14574048Y-19244429D01*
X14564524Y-19253952D01*
X14545476Y-19263476D01*
X14526428Y-19263476D01*
X14507381Y-19253952D01*
X14497857Y-19244429D01*
X14488333Y-19225381D01*
X14478809Y-19187286D01*
X14478809Y-19139667D01*
X14488333Y-19101571D01*
X14497857Y-19082524D01*
X14507381Y-19073000D01*
X14526428Y-19063476D01*
X14716905Y-19063476D02*
X14735952Y-19063476D01*
X14755000Y-19073000D01*
X14764524Y-19082524D01*
X14774048Y-19101571D01*
X14783571Y-19139667D01*
X14783571Y-19187286D01*
X14774048Y-19225381D01*
X14764524Y-19244429D01*
X14755000Y-19253952D01*
X14735952Y-19263476D01*
X14716905Y-19263476D01*
X14697857Y-19253952D01*
X14688333Y-19244429D01*
X14678809Y-19225381D01*
X14669286Y-19187286D01*
X14669286Y-19139667D01*
X14678809Y-19101571D01*
X14688333Y-19082524D01*
X14697857Y-19073000D01*
X14716905Y-19063476D01*
X14907381Y-19063476D02*
X14926428Y-19063476D01*
X14945476Y-19073000D01*
X14955000Y-19082524D01*
X14964524Y-19101571D01*
X14974048Y-19139667D01*
X14974048Y-19187286D01*
X14964524Y-19225381D01*
X14955000Y-19244429D01*
X14945476Y-19253952D01*
X14926428Y-19263476D01*
X14907381Y-19263476D01*
X14888333Y-19253952D01*
X14878809Y-19244429D01*
X14869286Y-19225381D01*
X14859762Y-19187286D01*
X14859762Y-19139667D01*
X14869286Y-19101571D01*
X14878809Y-19082524D01*
X14888333Y-19073000D01*
X14907381Y-19063476D01*
X15059762Y-19263476D02*
X15059762Y-19130143D01*
X15059762Y-19149190D02*
X15069286Y-19139667D01*
X15088333Y-19130143D01*
X15116905Y-19130143D01*
X15135952Y-19139667D01*
X15145476Y-19158714D01*
X15145476Y-19263476D01*
X15145476Y-19158714D02*
X15155000Y-19139667D01*
X15174048Y-19130143D01*
X15202619Y-19130143D01*
X15221667Y-19139667D01*
X15231190Y-19158714D01*
X15231190Y-19263476D01*
X15326428Y-19263476D02*
X15326428Y-19130143D01*
X15326428Y-19149190D02*
X15335952Y-19139667D01*
X15355000Y-19130143D01*
X15383571Y-19130143D01*
X15402619Y-19139667D01*
X15412143Y-19158714D01*
X15412143Y-19263476D01*
X15412143Y-19158714D02*
X15421667Y-19139667D01*
X15440714Y-19130143D01*
X15469286Y-19130143D01*
X15488333Y-19139667D01*
X15497857Y-19158714D01*
X15497857Y-19263476D01*
X15888333Y-19053952D02*
X15716905Y-19311095D01*
X16145476Y-19063476D02*
X16164524Y-19063476D01*
X16183571Y-19073000D01*
X16193095Y-19082524D01*
X16202619Y-19101571D01*
X16212143Y-19139667D01*
X16212143Y-19187286D01*
X16202619Y-19225381D01*
X16193095Y-19244429D01*
X16183571Y-19253952D01*
X16164524Y-19263476D01*
X16145476Y-19263476D01*
X16126428Y-19253952D01*
X16116905Y-19244429D01*
X16107381Y-19225381D01*
X16097857Y-19187286D01*
X16097857Y-19139667D01*
X16107381Y-19101571D01*
X16116905Y-19082524D01*
X16126428Y-19073000D01*
X16145476Y-19063476D01*
X16297857Y-19244429D02*
X16307381Y-19253952D01*
X16297857Y-19263476D01*
X16288333Y-19253952D01*
X16297857Y-19244429D01*
X16297857Y-19263476D01*
X16431190Y-19063476D02*
X16450238Y-19063476D01*
X16469286Y-19073000D01*
X16478809Y-19082524D01*
X16488333Y-19101571D01*
X16497857Y-19139667D01*
X16497857Y-19187286D01*
X16488333Y-19225381D01*
X16478809Y-19244429D01*
X16469286Y-19253952D01*
X16450238Y-19263476D01*
X16431190Y-19263476D01*
X16412143Y-19253952D01*
X16402619Y-19244429D01*
X16393095Y-19225381D01*
X16383571Y-19187286D01*
X16383571Y-19139667D01*
X16393095Y-19101571D01*
X16402619Y-19082524D01*
X16412143Y-19073000D01*
X16431190Y-19063476D01*
X16564524Y-19063476D02*
X16688333Y-19063476D01*
X16621667Y-19139667D01*
X16650238Y-19139667D01*
X16669286Y-19149190D01*
X16678809Y-19158714D01*
X16688333Y-19177762D01*
X16688333Y-19225381D01*
X16678809Y-19244429D01*
X16669286Y-19253952D01*
X16650238Y-19263476D01*
X16593095Y-19263476D01*
X16574048Y-19253952D01*
X16564524Y-19244429D01*
X16783571Y-19263476D02*
X16821667Y-19263476D01*
X16840714Y-19253952D01*
X16850238Y-19244429D01*
X16869286Y-19215857D01*
X16878810Y-19177762D01*
X16878810Y-19101571D01*
X16869286Y-19082524D01*
X16859762Y-19073000D01*
X16840714Y-19063476D01*
X16802619Y-19063476D01*
X16783571Y-19073000D01*
X16774048Y-19082524D01*
X16764524Y-19101571D01*
X16764524Y-19149190D01*
X16774048Y-19168238D01*
X16783571Y-19177762D01*
X16802619Y-19187286D01*
X16840714Y-19187286D01*
X16859762Y-19177762D01*
X16869286Y-19168238D01*
X16878810Y-19149190D01*
X17050238Y-19130143D02*
X17050238Y-19263476D01*
X17002619Y-19053952D02*
X16955000Y-19196810D01*
X17078810Y-19196810D01*
X17145476Y-19063476D02*
X17145476Y-19101571D01*
X17221667Y-19063476D02*
X17221667Y-19101571D01*
X17516905Y-19339667D02*
X17507381Y-19330143D01*
X17488333Y-19301571D01*
X17478810Y-19282524D01*
X17469286Y-19253952D01*
X17459762Y-19206333D01*
X17459762Y-19168238D01*
X17469286Y-19120619D01*
X17478810Y-19092048D01*
X17488333Y-19073000D01*
X17507381Y-19044429D01*
X17516905Y-19034905D01*
X17574048Y-19063476D02*
X17697857Y-19063476D01*
X17631190Y-19139667D01*
X17659762Y-19139667D01*
X17678810Y-19149190D01*
X17688333Y-19158714D01*
X17697857Y-19177762D01*
X17697857Y-19225381D01*
X17688333Y-19244429D01*
X17678810Y-19253952D01*
X17659762Y-19263476D01*
X17602619Y-19263476D01*
X17583571Y-19253952D01*
X17574048Y-19244429D01*
X17821667Y-19063476D02*
X17840714Y-19063476D01*
X17859762Y-19073000D01*
X17869286Y-19082524D01*
X17878810Y-19101571D01*
X17888333Y-19139667D01*
X17888333Y-19187286D01*
X17878810Y-19225381D01*
X17869286Y-19244429D01*
X17859762Y-19253952D01*
X17840714Y-19263476D01*
X17821667Y-19263476D01*
X17802619Y-19253952D01*
X17793095Y-19244429D01*
X17783571Y-19225381D01*
X17774048Y-19187286D01*
X17774048Y-19139667D01*
X17783571Y-19101571D01*
X17793095Y-19082524D01*
X17802619Y-19073000D01*
X17821667Y-19063476D01*
X18012143Y-19063476D02*
X18031190Y-19063476D01*
X18050238Y-19073000D01*
X18059762Y-19082524D01*
X18069286Y-19101571D01*
X18078810Y-19139667D01*
X18078810Y-19187286D01*
X18069286Y-19225381D01*
X18059762Y-19244429D01*
X18050238Y-19253952D01*
X18031190Y-19263476D01*
X18012143Y-19263476D01*
X17993095Y-19253952D01*
X17983571Y-19244429D01*
X17974048Y-19225381D01*
X17964524Y-19187286D01*
X17964524Y-19139667D01*
X17974048Y-19101571D01*
X17983571Y-19082524D01*
X17993095Y-19073000D01*
X18012143Y-19063476D01*
X18316905Y-19263476D02*
X18316905Y-19063476D01*
X18402619Y-19263476D02*
X18402619Y-19158714D01*
X18393095Y-19139667D01*
X18374048Y-19130143D01*
X18345476Y-19130143D01*
X18326429Y-19139667D01*
X18316905Y-19149190D01*
X18526429Y-19263476D02*
X18507381Y-19253952D01*
X18497857Y-19244429D01*
X18488333Y-19225381D01*
X18488333Y-19168238D01*
X18497857Y-19149190D01*
X18507381Y-19139667D01*
X18526429Y-19130143D01*
X18555000Y-19130143D01*
X18574048Y-19139667D01*
X18583571Y-19149190D01*
X18593095Y-19168238D01*
X18593095Y-19225381D01*
X18583571Y-19244429D01*
X18574048Y-19253952D01*
X18555000Y-19263476D01*
X18526429Y-19263476D01*
X18707381Y-19263476D02*
X18688333Y-19253952D01*
X18678810Y-19234905D01*
X18678810Y-19063476D01*
X18859762Y-19253952D02*
X18840714Y-19263476D01*
X18802619Y-19263476D01*
X18783571Y-19253952D01*
X18774048Y-19234905D01*
X18774048Y-19158714D01*
X18783571Y-19139667D01*
X18802619Y-19130143D01*
X18840714Y-19130143D01*
X18859762Y-19139667D01*
X18869286Y-19158714D01*
X18869286Y-19177762D01*
X18774048Y-19196810D01*
X18945476Y-19253952D02*
X18964524Y-19263476D01*
X19002619Y-19263476D01*
X19021667Y-19253952D01*
X19031190Y-19234905D01*
X19031190Y-19225381D01*
X19021667Y-19206333D01*
X19002619Y-19196810D01*
X18974048Y-19196810D01*
X18955000Y-19187286D01*
X18945476Y-19168238D01*
X18945476Y-19158714D01*
X18955000Y-19139667D01*
X18974048Y-19130143D01*
X19002619Y-19130143D01*
X19021667Y-19139667D01*
X19097857Y-19339667D02*
X19107381Y-19330143D01*
X19126429Y-19301571D01*
X19135952Y-19282524D01*
X19145476Y-19253952D01*
X19155000Y-19206333D01*
X19155000Y-19168238D01*
X19145476Y-19120619D01*
X19135952Y-19092048D01*
X19126429Y-19073000D01*
X19107381Y-19044429D01*
X19097857Y-19034905D01*
M02*
