%TF.GenerationSoftware,KiCad,Pcbnew,(6.0.5)*%
%TF.CreationDate,2022-07-01T01:15:04-04:00*%
%TF.ProjectId,Feeder-Panelized,46656564-6572-42d5-9061-6e656c697a65,rev?*%
%TF.SameCoordinates,Original*%
%TF.FileFunction,Legend,Bot*%
%TF.FilePolarity,Positive*%
%FSLAX46Y46*%
G04 Gerber Fmt 4.6, Leading zero omitted, Abs format (unit mm)*
G04 Created by KiCad (PCBNEW (6.0.5)) date 2022-07-01 01:15:04*
%MOMM*%
%LPD*%
G01*
G04 APERTURE LIST*
%ADD10C,0.300000*%
%ADD11C,0.150000*%
G04 APERTURE END LIST*
D10*
X218523809Y-133904761D02*
X218523809Y-131904761D01*
X217761904Y-131904761D01*
X217571428Y-132000000D01*
X217476190Y-132095238D01*
X217380952Y-132285714D01*
X217380952Y-132571428D01*
X217476190Y-132761904D01*
X217571428Y-132857142D01*
X217761904Y-132952380D01*
X218523809Y-132952380D01*
X215380952Y-133714285D02*
X215476190Y-133809523D01*
X215761904Y-133904761D01*
X215952380Y-133904761D01*
X216238095Y-133809523D01*
X216428571Y-133619047D01*
X216523809Y-133428571D01*
X216619047Y-133047619D01*
X216619047Y-132761904D01*
X216523809Y-132380952D01*
X216428571Y-132190476D01*
X216238095Y-132000000D01*
X215952380Y-131904761D01*
X215761904Y-131904761D01*
X215476190Y-132000000D01*
X215380952Y-132095238D01*
X213857142Y-132857142D02*
X213571428Y-132952380D01*
X213476190Y-133047619D01*
X213380952Y-133238095D01*
X213380952Y-133523809D01*
X213476190Y-133714285D01*
X213571428Y-133809523D01*
X213761904Y-133904761D01*
X214523809Y-133904761D01*
X214523809Y-131904761D01*
X213857142Y-131904761D01*
X213666666Y-132000000D01*
X213571428Y-132095238D01*
X213476190Y-132285714D01*
X213476190Y-132476190D01*
X213571428Y-132666666D01*
X213666666Y-132761904D01*
X213857142Y-132857142D01*
X214523809Y-132857142D01*
X201523809Y-93904761D02*
X201523809Y-91904761D01*
X200761904Y-91904761D01*
X200571428Y-92000000D01*
X200476190Y-92095238D01*
X200380952Y-92285714D01*
X200380952Y-92571428D01*
X200476190Y-92761904D01*
X200571428Y-92857142D01*
X200761904Y-92952380D01*
X201523809Y-92952380D01*
X198380952Y-93714285D02*
X198476190Y-93809523D01*
X198761904Y-93904761D01*
X198952380Y-93904761D01*
X199238095Y-93809523D01*
X199428571Y-93619047D01*
X199523809Y-93428571D01*
X199619047Y-93047619D01*
X199619047Y-92761904D01*
X199523809Y-92380952D01*
X199428571Y-92190476D01*
X199238095Y-92000000D01*
X198952380Y-91904761D01*
X198761904Y-91904761D01*
X198476190Y-92000000D01*
X198380952Y-92095238D01*
X196857142Y-92857142D02*
X196571428Y-92952380D01*
X196476190Y-93047619D01*
X196380952Y-93238095D01*
X196380952Y-93523809D01*
X196476190Y-93714285D01*
X196571428Y-93809523D01*
X196761904Y-93904761D01*
X197523809Y-93904761D01*
X197523809Y-91904761D01*
X196857142Y-91904761D01*
X196666666Y-92000000D01*
X196571428Y-92095238D01*
X196476190Y-92285714D01*
X196476190Y-92476190D01*
X196571428Y-92666666D01*
X196666666Y-92761904D01*
X196857142Y-92857142D01*
X197523809Y-92857142D01*
D11*
X184095238Y-90421428D02*
X184461904Y-90421428D01*
X184461904Y-90997619D02*
X184461904Y-89897619D01*
X183938095Y-89897619D01*
X183100000Y-90945238D02*
X183204761Y-90997619D01*
X183414285Y-90997619D01*
X183519047Y-90945238D01*
X183571428Y-90840476D01*
X183571428Y-90421428D01*
X183519047Y-90316666D01*
X183414285Y-90264285D01*
X183204761Y-90264285D01*
X183100000Y-90316666D01*
X183047619Y-90421428D01*
X183047619Y-90526190D01*
X183571428Y-90630952D01*
X182157142Y-90945238D02*
X182261904Y-90997619D01*
X182471428Y-90997619D01*
X182576190Y-90945238D01*
X182628571Y-90840476D01*
X182628571Y-90421428D01*
X182576190Y-90316666D01*
X182471428Y-90264285D01*
X182261904Y-90264285D01*
X182157142Y-90316666D01*
X182104761Y-90421428D01*
X182104761Y-90526190D01*
X182628571Y-90630952D01*
X181161904Y-90997619D02*
X181161904Y-89897619D01*
X181161904Y-90945238D02*
X181266666Y-90997619D01*
X181476190Y-90997619D01*
X181580952Y-90945238D01*
X181633333Y-90892857D01*
X181685714Y-90788095D01*
X181685714Y-90473809D01*
X181633333Y-90369047D01*
X181580952Y-90316666D01*
X181476190Y-90264285D01*
X181266666Y-90264285D01*
X181161904Y-90316666D01*
X180219047Y-90945238D02*
X180323809Y-90997619D01*
X180533333Y-90997619D01*
X180638095Y-90945238D01*
X180690476Y-90840476D01*
X180690476Y-90421428D01*
X180638095Y-90316666D01*
X180533333Y-90264285D01*
X180323809Y-90264285D01*
X180219047Y-90316666D01*
X180166666Y-90421428D01*
X180166666Y-90526190D01*
X180690476Y-90630952D01*
X179695238Y-90997619D02*
X179695238Y-90264285D01*
X179695238Y-90473809D02*
X179642857Y-90369047D01*
X179590476Y-90316666D01*
X179485714Y-90264285D01*
X179380952Y-90264285D01*
X201095238Y-170421428D02*
X201461904Y-170421428D01*
X201461904Y-170997619D02*
X201461904Y-169897619D01*
X200938095Y-169897619D01*
X200100000Y-170945238D02*
X200204761Y-170997619D01*
X200414285Y-170997619D01*
X200519047Y-170945238D01*
X200571428Y-170840476D01*
X200571428Y-170421428D01*
X200519047Y-170316666D01*
X200414285Y-170264285D01*
X200204761Y-170264285D01*
X200100000Y-170316666D01*
X200047619Y-170421428D01*
X200047619Y-170526190D01*
X200571428Y-170630952D01*
X199157142Y-170945238D02*
X199261904Y-170997619D01*
X199471428Y-170997619D01*
X199576190Y-170945238D01*
X199628571Y-170840476D01*
X199628571Y-170421428D01*
X199576190Y-170316666D01*
X199471428Y-170264285D01*
X199261904Y-170264285D01*
X199157142Y-170316666D01*
X199104761Y-170421428D01*
X199104761Y-170526190D01*
X199628571Y-170630952D01*
X198161904Y-170997619D02*
X198161904Y-169897619D01*
X198161904Y-170945238D02*
X198266666Y-170997619D01*
X198476190Y-170997619D01*
X198580952Y-170945238D01*
X198633333Y-170892857D01*
X198685714Y-170788095D01*
X198685714Y-170473809D01*
X198633333Y-170369047D01*
X198580952Y-170316666D01*
X198476190Y-170264285D01*
X198266666Y-170264285D01*
X198161904Y-170316666D01*
X197219047Y-170945238D02*
X197323809Y-170997619D01*
X197533333Y-170997619D01*
X197638095Y-170945238D01*
X197690476Y-170840476D01*
X197690476Y-170421428D01*
X197638095Y-170316666D01*
X197533333Y-170264285D01*
X197323809Y-170264285D01*
X197219047Y-170316666D01*
X197166666Y-170421428D01*
X197166666Y-170526190D01*
X197690476Y-170630952D01*
X196695238Y-170997619D02*
X196695238Y-170264285D01*
X196695238Y-170473809D02*
X196642857Y-170369047D01*
X196590476Y-170316666D01*
X196485714Y-170264285D01*
X196380952Y-170264285D01*
D10*
X184523809Y-153904761D02*
X184523809Y-151904761D01*
X183761904Y-151904761D01*
X183571428Y-152000000D01*
X183476190Y-152095238D01*
X183380952Y-152285714D01*
X183380952Y-152571428D01*
X183476190Y-152761904D01*
X183571428Y-152857142D01*
X183761904Y-152952380D01*
X184523809Y-152952380D01*
X181380952Y-153714285D02*
X181476190Y-153809523D01*
X181761904Y-153904761D01*
X181952380Y-153904761D01*
X182238095Y-153809523D01*
X182428571Y-153619047D01*
X182523809Y-153428571D01*
X182619047Y-153047619D01*
X182619047Y-152761904D01*
X182523809Y-152380952D01*
X182428571Y-152190476D01*
X182238095Y-152000000D01*
X181952380Y-151904761D01*
X181761904Y-151904761D01*
X181476190Y-152000000D01*
X181380952Y-152095238D01*
X179857142Y-152857142D02*
X179571428Y-152952380D01*
X179476190Y-153047619D01*
X179380952Y-153238095D01*
X179380952Y-153523809D01*
X179476190Y-153714285D01*
X179571428Y-153809523D01*
X179761904Y-153904761D01*
X180523809Y-153904761D01*
X180523809Y-151904761D01*
X179857142Y-151904761D01*
X179666666Y-152000000D01*
X179571428Y-152095238D01*
X179476190Y-152285714D01*
X179476190Y-152476190D01*
X179571428Y-152666666D01*
X179666666Y-152761904D01*
X179857142Y-152857142D01*
X180523809Y-152857142D01*
D11*
X218095238Y-90421428D02*
X218461904Y-90421428D01*
X218461904Y-90997619D02*
X218461904Y-89897619D01*
X217938095Y-89897619D01*
X217100000Y-90945238D02*
X217204761Y-90997619D01*
X217414285Y-90997619D01*
X217519047Y-90945238D01*
X217571428Y-90840476D01*
X217571428Y-90421428D01*
X217519047Y-90316666D01*
X217414285Y-90264285D01*
X217204761Y-90264285D01*
X217100000Y-90316666D01*
X217047619Y-90421428D01*
X217047619Y-90526190D01*
X217571428Y-90630952D01*
X216157142Y-90945238D02*
X216261904Y-90997619D01*
X216471428Y-90997619D01*
X216576190Y-90945238D01*
X216628571Y-90840476D01*
X216628571Y-90421428D01*
X216576190Y-90316666D01*
X216471428Y-90264285D01*
X216261904Y-90264285D01*
X216157142Y-90316666D01*
X216104761Y-90421428D01*
X216104761Y-90526190D01*
X216628571Y-90630952D01*
X215161904Y-90997619D02*
X215161904Y-89897619D01*
X215161904Y-90945238D02*
X215266666Y-90997619D01*
X215476190Y-90997619D01*
X215580952Y-90945238D01*
X215633333Y-90892857D01*
X215685714Y-90788095D01*
X215685714Y-90473809D01*
X215633333Y-90369047D01*
X215580952Y-90316666D01*
X215476190Y-90264285D01*
X215266666Y-90264285D01*
X215161904Y-90316666D01*
X214219047Y-90945238D02*
X214323809Y-90997619D01*
X214533333Y-90997619D01*
X214638095Y-90945238D01*
X214690476Y-90840476D01*
X214690476Y-90421428D01*
X214638095Y-90316666D01*
X214533333Y-90264285D01*
X214323809Y-90264285D01*
X214219047Y-90316666D01*
X214166666Y-90421428D01*
X214166666Y-90526190D01*
X214690476Y-90630952D01*
X213695238Y-90997619D02*
X213695238Y-90264285D01*
X213695238Y-90473809D02*
X213642857Y-90369047D01*
X213590476Y-90316666D01*
X213485714Y-90264285D01*
X213380952Y-90264285D01*
X167095238Y-170421428D02*
X167461904Y-170421428D01*
X167461904Y-170997619D02*
X167461904Y-169897619D01*
X166938095Y-169897619D01*
X166100000Y-170945238D02*
X166204761Y-170997619D01*
X166414285Y-170997619D01*
X166519047Y-170945238D01*
X166571428Y-170840476D01*
X166571428Y-170421428D01*
X166519047Y-170316666D01*
X166414285Y-170264285D01*
X166204761Y-170264285D01*
X166100000Y-170316666D01*
X166047619Y-170421428D01*
X166047619Y-170526190D01*
X166571428Y-170630952D01*
X165157142Y-170945238D02*
X165261904Y-170997619D01*
X165471428Y-170997619D01*
X165576190Y-170945238D01*
X165628571Y-170840476D01*
X165628571Y-170421428D01*
X165576190Y-170316666D01*
X165471428Y-170264285D01*
X165261904Y-170264285D01*
X165157142Y-170316666D01*
X165104761Y-170421428D01*
X165104761Y-170526190D01*
X165628571Y-170630952D01*
X164161904Y-170997619D02*
X164161904Y-169897619D01*
X164161904Y-170945238D02*
X164266666Y-170997619D01*
X164476190Y-170997619D01*
X164580952Y-170945238D01*
X164633333Y-170892857D01*
X164685714Y-170788095D01*
X164685714Y-170473809D01*
X164633333Y-170369047D01*
X164580952Y-170316666D01*
X164476190Y-170264285D01*
X164266666Y-170264285D01*
X164161904Y-170316666D01*
X163219047Y-170945238D02*
X163323809Y-170997619D01*
X163533333Y-170997619D01*
X163638095Y-170945238D01*
X163690476Y-170840476D01*
X163690476Y-170421428D01*
X163638095Y-170316666D01*
X163533333Y-170264285D01*
X163323809Y-170264285D01*
X163219047Y-170316666D01*
X163166666Y-170421428D01*
X163166666Y-170526190D01*
X163690476Y-170630952D01*
X162695238Y-170997619D02*
X162695238Y-170264285D01*
X162695238Y-170473809D02*
X162642857Y-170369047D01*
X162590476Y-170316666D01*
X162485714Y-170264285D01*
X162380952Y-170264285D01*
D10*
X167523809Y-133904761D02*
X167523809Y-131904761D01*
X166761904Y-131904761D01*
X166571428Y-132000000D01*
X166476190Y-132095238D01*
X166380952Y-132285714D01*
X166380952Y-132571428D01*
X166476190Y-132761904D01*
X166571428Y-132857142D01*
X166761904Y-132952380D01*
X167523809Y-132952380D01*
X164380952Y-133714285D02*
X164476190Y-133809523D01*
X164761904Y-133904761D01*
X164952380Y-133904761D01*
X165238095Y-133809523D01*
X165428571Y-133619047D01*
X165523809Y-133428571D01*
X165619047Y-133047619D01*
X165619047Y-132761904D01*
X165523809Y-132380952D01*
X165428571Y-132190476D01*
X165238095Y-132000000D01*
X164952380Y-131904761D01*
X164761904Y-131904761D01*
X164476190Y-132000000D01*
X164380952Y-132095238D01*
X162857142Y-132857142D02*
X162571428Y-132952380D01*
X162476190Y-133047619D01*
X162380952Y-133238095D01*
X162380952Y-133523809D01*
X162476190Y-133714285D01*
X162571428Y-133809523D01*
X162761904Y-133904761D01*
X163523809Y-133904761D01*
X163523809Y-131904761D01*
X162857142Y-131904761D01*
X162666666Y-132000000D01*
X162571428Y-132095238D01*
X162476190Y-132285714D01*
X162476190Y-132476190D01*
X162571428Y-132666666D01*
X162666666Y-132761904D01*
X162857142Y-132857142D01*
X163523809Y-132857142D01*
X150523809Y-113904761D02*
X150523809Y-111904761D01*
X149761904Y-111904761D01*
X149571428Y-112000000D01*
X149476190Y-112095238D01*
X149380952Y-112285714D01*
X149380952Y-112571428D01*
X149476190Y-112761904D01*
X149571428Y-112857142D01*
X149761904Y-112952380D01*
X150523809Y-112952380D01*
X147380952Y-113714285D02*
X147476190Y-113809523D01*
X147761904Y-113904761D01*
X147952380Y-113904761D01*
X148238095Y-113809523D01*
X148428571Y-113619047D01*
X148523809Y-113428571D01*
X148619047Y-113047619D01*
X148619047Y-112761904D01*
X148523809Y-112380952D01*
X148428571Y-112190476D01*
X148238095Y-112000000D01*
X147952380Y-111904761D01*
X147761904Y-111904761D01*
X147476190Y-112000000D01*
X147380952Y-112095238D01*
X145857142Y-112857142D02*
X145571428Y-112952380D01*
X145476190Y-113047619D01*
X145380952Y-113238095D01*
X145380952Y-113523809D01*
X145476190Y-113714285D01*
X145571428Y-113809523D01*
X145761904Y-113904761D01*
X146523809Y-113904761D01*
X146523809Y-111904761D01*
X145857142Y-111904761D01*
X145666666Y-112000000D01*
X145571428Y-112095238D01*
X145476190Y-112285714D01*
X145476190Y-112476190D01*
X145571428Y-112666666D01*
X145666666Y-112761904D01*
X145857142Y-112857142D01*
X146523809Y-112857142D01*
D11*
X201095238Y-90421428D02*
X201461904Y-90421428D01*
X201461904Y-90997619D02*
X201461904Y-89897619D01*
X200938095Y-89897619D01*
X200100000Y-90945238D02*
X200204761Y-90997619D01*
X200414285Y-90997619D01*
X200519047Y-90945238D01*
X200571428Y-90840476D01*
X200571428Y-90421428D01*
X200519047Y-90316666D01*
X200414285Y-90264285D01*
X200204761Y-90264285D01*
X200100000Y-90316666D01*
X200047619Y-90421428D01*
X200047619Y-90526190D01*
X200571428Y-90630952D01*
X199157142Y-90945238D02*
X199261904Y-90997619D01*
X199471428Y-90997619D01*
X199576190Y-90945238D01*
X199628571Y-90840476D01*
X199628571Y-90421428D01*
X199576190Y-90316666D01*
X199471428Y-90264285D01*
X199261904Y-90264285D01*
X199157142Y-90316666D01*
X199104761Y-90421428D01*
X199104761Y-90526190D01*
X199628571Y-90630952D01*
X198161904Y-90997619D02*
X198161904Y-89897619D01*
X198161904Y-90945238D02*
X198266666Y-90997619D01*
X198476190Y-90997619D01*
X198580952Y-90945238D01*
X198633333Y-90892857D01*
X198685714Y-90788095D01*
X198685714Y-90473809D01*
X198633333Y-90369047D01*
X198580952Y-90316666D01*
X198476190Y-90264285D01*
X198266666Y-90264285D01*
X198161904Y-90316666D01*
X197219047Y-90945238D02*
X197323809Y-90997619D01*
X197533333Y-90997619D01*
X197638095Y-90945238D01*
X197690476Y-90840476D01*
X197690476Y-90421428D01*
X197638095Y-90316666D01*
X197533333Y-90264285D01*
X197323809Y-90264285D01*
X197219047Y-90316666D01*
X197166666Y-90421428D01*
X197166666Y-90526190D01*
X197690476Y-90630952D01*
X196695238Y-90997619D02*
X196695238Y-90264285D01*
X196695238Y-90473809D02*
X196642857Y-90369047D01*
X196590476Y-90316666D01*
X196485714Y-90264285D01*
X196380952Y-90264285D01*
X218095238Y-110421428D02*
X218461904Y-110421428D01*
X218461904Y-110997619D02*
X218461904Y-109897619D01*
X217938095Y-109897619D01*
X217100000Y-110945238D02*
X217204761Y-110997619D01*
X217414285Y-110997619D01*
X217519047Y-110945238D01*
X217571428Y-110840476D01*
X217571428Y-110421428D01*
X217519047Y-110316666D01*
X217414285Y-110264285D01*
X217204761Y-110264285D01*
X217100000Y-110316666D01*
X217047619Y-110421428D01*
X217047619Y-110526190D01*
X217571428Y-110630952D01*
X216157142Y-110945238D02*
X216261904Y-110997619D01*
X216471428Y-110997619D01*
X216576190Y-110945238D01*
X216628571Y-110840476D01*
X216628571Y-110421428D01*
X216576190Y-110316666D01*
X216471428Y-110264285D01*
X216261904Y-110264285D01*
X216157142Y-110316666D01*
X216104761Y-110421428D01*
X216104761Y-110526190D01*
X216628571Y-110630952D01*
X215161904Y-110997619D02*
X215161904Y-109897619D01*
X215161904Y-110945238D02*
X215266666Y-110997619D01*
X215476190Y-110997619D01*
X215580952Y-110945238D01*
X215633333Y-110892857D01*
X215685714Y-110788095D01*
X215685714Y-110473809D01*
X215633333Y-110369047D01*
X215580952Y-110316666D01*
X215476190Y-110264285D01*
X215266666Y-110264285D01*
X215161904Y-110316666D01*
X214219047Y-110945238D02*
X214323809Y-110997619D01*
X214533333Y-110997619D01*
X214638095Y-110945238D01*
X214690476Y-110840476D01*
X214690476Y-110421428D01*
X214638095Y-110316666D01*
X214533333Y-110264285D01*
X214323809Y-110264285D01*
X214219047Y-110316666D01*
X214166666Y-110421428D01*
X214166666Y-110526190D01*
X214690476Y-110630952D01*
X213695238Y-110997619D02*
X213695238Y-110264285D01*
X213695238Y-110473809D02*
X213642857Y-110369047D01*
X213590476Y-110316666D01*
X213485714Y-110264285D01*
X213380952Y-110264285D01*
D10*
X184523809Y-133904761D02*
X184523809Y-131904761D01*
X183761904Y-131904761D01*
X183571428Y-132000000D01*
X183476190Y-132095238D01*
X183380952Y-132285714D01*
X183380952Y-132571428D01*
X183476190Y-132761904D01*
X183571428Y-132857142D01*
X183761904Y-132952380D01*
X184523809Y-132952380D01*
X181380952Y-133714285D02*
X181476190Y-133809523D01*
X181761904Y-133904761D01*
X181952380Y-133904761D01*
X182238095Y-133809523D01*
X182428571Y-133619047D01*
X182523809Y-133428571D01*
X182619047Y-133047619D01*
X182619047Y-132761904D01*
X182523809Y-132380952D01*
X182428571Y-132190476D01*
X182238095Y-132000000D01*
X181952380Y-131904761D01*
X181761904Y-131904761D01*
X181476190Y-132000000D01*
X181380952Y-132095238D01*
X179857142Y-132857142D02*
X179571428Y-132952380D01*
X179476190Y-133047619D01*
X179380952Y-133238095D01*
X179380952Y-133523809D01*
X179476190Y-133714285D01*
X179571428Y-133809523D01*
X179761904Y-133904761D01*
X180523809Y-133904761D01*
X180523809Y-131904761D01*
X179857142Y-131904761D01*
X179666666Y-132000000D01*
X179571428Y-132095238D01*
X179476190Y-132285714D01*
X179476190Y-132476190D01*
X179571428Y-132666666D01*
X179666666Y-132761904D01*
X179857142Y-132857142D01*
X180523809Y-132857142D01*
D11*
X201095238Y-130421428D02*
X201461904Y-130421428D01*
X201461904Y-130997619D02*
X201461904Y-129897619D01*
X200938095Y-129897619D01*
X200100000Y-130945238D02*
X200204761Y-130997619D01*
X200414285Y-130997619D01*
X200519047Y-130945238D01*
X200571428Y-130840476D01*
X200571428Y-130421428D01*
X200519047Y-130316666D01*
X200414285Y-130264285D01*
X200204761Y-130264285D01*
X200100000Y-130316666D01*
X200047619Y-130421428D01*
X200047619Y-130526190D01*
X200571428Y-130630952D01*
X199157142Y-130945238D02*
X199261904Y-130997619D01*
X199471428Y-130997619D01*
X199576190Y-130945238D01*
X199628571Y-130840476D01*
X199628571Y-130421428D01*
X199576190Y-130316666D01*
X199471428Y-130264285D01*
X199261904Y-130264285D01*
X199157142Y-130316666D01*
X199104761Y-130421428D01*
X199104761Y-130526190D01*
X199628571Y-130630952D01*
X198161904Y-130997619D02*
X198161904Y-129897619D01*
X198161904Y-130945238D02*
X198266666Y-130997619D01*
X198476190Y-130997619D01*
X198580952Y-130945238D01*
X198633333Y-130892857D01*
X198685714Y-130788095D01*
X198685714Y-130473809D01*
X198633333Y-130369047D01*
X198580952Y-130316666D01*
X198476190Y-130264285D01*
X198266666Y-130264285D01*
X198161904Y-130316666D01*
X197219047Y-130945238D02*
X197323809Y-130997619D01*
X197533333Y-130997619D01*
X197638095Y-130945238D01*
X197690476Y-130840476D01*
X197690476Y-130421428D01*
X197638095Y-130316666D01*
X197533333Y-130264285D01*
X197323809Y-130264285D01*
X197219047Y-130316666D01*
X197166666Y-130421428D01*
X197166666Y-130526190D01*
X197690476Y-130630952D01*
X196695238Y-130997619D02*
X196695238Y-130264285D01*
X196695238Y-130473809D02*
X196642857Y-130369047D01*
X196590476Y-130316666D01*
X196485714Y-130264285D01*
X196380952Y-130264285D01*
D10*
X184523809Y-173904761D02*
X184523809Y-171904761D01*
X183761904Y-171904761D01*
X183571428Y-172000000D01*
X183476190Y-172095238D01*
X183380952Y-172285714D01*
X183380952Y-172571428D01*
X183476190Y-172761904D01*
X183571428Y-172857142D01*
X183761904Y-172952380D01*
X184523809Y-172952380D01*
X181380952Y-173714285D02*
X181476190Y-173809523D01*
X181761904Y-173904761D01*
X181952380Y-173904761D01*
X182238095Y-173809523D01*
X182428571Y-173619047D01*
X182523809Y-173428571D01*
X182619047Y-173047619D01*
X182619047Y-172761904D01*
X182523809Y-172380952D01*
X182428571Y-172190476D01*
X182238095Y-172000000D01*
X181952380Y-171904761D01*
X181761904Y-171904761D01*
X181476190Y-172000000D01*
X181380952Y-172095238D01*
X179857142Y-172857142D02*
X179571428Y-172952380D01*
X179476190Y-173047619D01*
X179380952Y-173238095D01*
X179380952Y-173523809D01*
X179476190Y-173714285D01*
X179571428Y-173809523D01*
X179761904Y-173904761D01*
X180523809Y-173904761D01*
X180523809Y-171904761D01*
X179857142Y-171904761D01*
X179666666Y-172000000D01*
X179571428Y-172095238D01*
X179476190Y-172285714D01*
X179476190Y-172476190D01*
X179571428Y-172666666D01*
X179666666Y-172761904D01*
X179857142Y-172857142D01*
X180523809Y-172857142D01*
X201523809Y-173904761D02*
X201523809Y-171904761D01*
X200761904Y-171904761D01*
X200571428Y-172000000D01*
X200476190Y-172095238D01*
X200380952Y-172285714D01*
X200380952Y-172571428D01*
X200476190Y-172761904D01*
X200571428Y-172857142D01*
X200761904Y-172952380D01*
X201523809Y-172952380D01*
X198380952Y-173714285D02*
X198476190Y-173809523D01*
X198761904Y-173904761D01*
X198952380Y-173904761D01*
X199238095Y-173809523D01*
X199428571Y-173619047D01*
X199523809Y-173428571D01*
X199619047Y-173047619D01*
X199619047Y-172761904D01*
X199523809Y-172380952D01*
X199428571Y-172190476D01*
X199238095Y-172000000D01*
X198952380Y-171904761D01*
X198761904Y-171904761D01*
X198476190Y-172000000D01*
X198380952Y-172095238D01*
X196857142Y-172857142D02*
X196571428Y-172952380D01*
X196476190Y-173047619D01*
X196380952Y-173238095D01*
X196380952Y-173523809D01*
X196476190Y-173714285D01*
X196571428Y-173809523D01*
X196761904Y-173904761D01*
X197523809Y-173904761D01*
X197523809Y-171904761D01*
X196857142Y-171904761D01*
X196666666Y-172000000D01*
X196571428Y-172095238D01*
X196476190Y-172285714D01*
X196476190Y-172476190D01*
X196571428Y-172666666D01*
X196666666Y-172761904D01*
X196857142Y-172857142D01*
X197523809Y-172857142D01*
X167523809Y-93904761D02*
X167523809Y-91904761D01*
X166761904Y-91904761D01*
X166571428Y-92000000D01*
X166476190Y-92095238D01*
X166380952Y-92285714D01*
X166380952Y-92571428D01*
X166476190Y-92761904D01*
X166571428Y-92857142D01*
X166761904Y-92952380D01*
X167523809Y-92952380D01*
X164380952Y-93714285D02*
X164476190Y-93809523D01*
X164761904Y-93904761D01*
X164952380Y-93904761D01*
X165238095Y-93809523D01*
X165428571Y-93619047D01*
X165523809Y-93428571D01*
X165619047Y-93047619D01*
X165619047Y-92761904D01*
X165523809Y-92380952D01*
X165428571Y-92190476D01*
X165238095Y-92000000D01*
X164952380Y-91904761D01*
X164761904Y-91904761D01*
X164476190Y-92000000D01*
X164380952Y-92095238D01*
X162857142Y-92857142D02*
X162571428Y-92952380D01*
X162476190Y-93047619D01*
X162380952Y-93238095D01*
X162380952Y-93523809D01*
X162476190Y-93714285D01*
X162571428Y-93809523D01*
X162761904Y-93904761D01*
X163523809Y-93904761D01*
X163523809Y-91904761D01*
X162857142Y-91904761D01*
X162666666Y-92000000D01*
X162571428Y-92095238D01*
X162476190Y-92285714D01*
X162476190Y-92476190D01*
X162571428Y-92666666D01*
X162666666Y-92761904D01*
X162857142Y-92857142D01*
X163523809Y-92857142D01*
D11*
X184095238Y-150421428D02*
X184461904Y-150421428D01*
X184461904Y-150997619D02*
X184461904Y-149897619D01*
X183938095Y-149897619D01*
X183100000Y-150945238D02*
X183204761Y-150997619D01*
X183414285Y-150997619D01*
X183519047Y-150945238D01*
X183571428Y-150840476D01*
X183571428Y-150421428D01*
X183519047Y-150316666D01*
X183414285Y-150264285D01*
X183204761Y-150264285D01*
X183100000Y-150316666D01*
X183047619Y-150421428D01*
X183047619Y-150526190D01*
X183571428Y-150630952D01*
X182157142Y-150945238D02*
X182261904Y-150997619D01*
X182471428Y-150997619D01*
X182576190Y-150945238D01*
X182628571Y-150840476D01*
X182628571Y-150421428D01*
X182576190Y-150316666D01*
X182471428Y-150264285D01*
X182261904Y-150264285D01*
X182157142Y-150316666D01*
X182104761Y-150421428D01*
X182104761Y-150526190D01*
X182628571Y-150630952D01*
X181161904Y-150997619D02*
X181161904Y-149897619D01*
X181161904Y-150945238D02*
X181266666Y-150997619D01*
X181476190Y-150997619D01*
X181580952Y-150945238D01*
X181633333Y-150892857D01*
X181685714Y-150788095D01*
X181685714Y-150473809D01*
X181633333Y-150369047D01*
X181580952Y-150316666D01*
X181476190Y-150264285D01*
X181266666Y-150264285D01*
X181161904Y-150316666D01*
X180219047Y-150945238D02*
X180323809Y-150997619D01*
X180533333Y-150997619D01*
X180638095Y-150945238D01*
X180690476Y-150840476D01*
X180690476Y-150421428D01*
X180638095Y-150316666D01*
X180533333Y-150264285D01*
X180323809Y-150264285D01*
X180219047Y-150316666D01*
X180166666Y-150421428D01*
X180166666Y-150526190D01*
X180690476Y-150630952D01*
X179695238Y-150997619D02*
X179695238Y-150264285D01*
X179695238Y-150473809D02*
X179642857Y-150369047D01*
X179590476Y-150316666D01*
X179485714Y-150264285D01*
X179380952Y-150264285D01*
X167095238Y-110421428D02*
X167461904Y-110421428D01*
X167461904Y-110997619D02*
X167461904Y-109897619D01*
X166938095Y-109897619D01*
X166100000Y-110945238D02*
X166204761Y-110997619D01*
X166414285Y-110997619D01*
X166519047Y-110945238D01*
X166571428Y-110840476D01*
X166571428Y-110421428D01*
X166519047Y-110316666D01*
X166414285Y-110264285D01*
X166204761Y-110264285D01*
X166100000Y-110316666D01*
X166047619Y-110421428D01*
X166047619Y-110526190D01*
X166571428Y-110630952D01*
X165157142Y-110945238D02*
X165261904Y-110997619D01*
X165471428Y-110997619D01*
X165576190Y-110945238D01*
X165628571Y-110840476D01*
X165628571Y-110421428D01*
X165576190Y-110316666D01*
X165471428Y-110264285D01*
X165261904Y-110264285D01*
X165157142Y-110316666D01*
X165104761Y-110421428D01*
X165104761Y-110526190D01*
X165628571Y-110630952D01*
X164161904Y-110997619D02*
X164161904Y-109897619D01*
X164161904Y-110945238D02*
X164266666Y-110997619D01*
X164476190Y-110997619D01*
X164580952Y-110945238D01*
X164633333Y-110892857D01*
X164685714Y-110788095D01*
X164685714Y-110473809D01*
X164633333Y-110369047D01*
X164580952Y-110316666D01*
X164476190Y-110264285D01*
X164266666Y-110264285D01*
X164161904Y-110316666D01*
X163219047Y-110945238D02*
X163323809Y-110997619D01*
X163533333Y-110997619D01*
X163638095Y-110945238D01*
X163690476Y-110840476D01*
X163690476Y-110421428D01*
X163638095Y-110316666D01*
X163533333Y-110264285D01*
X163323809Y-110264285D01*
X163219047Y-110316666D01*
X163166666Y-110421428D01*
X163166666Y-110526190D01*
X163690476Y-110630952D01*
X162695238Y-110997619D02*
X162695238Y-110264285D01*
X162695238Y-110473809D02*
X162642857Y-110369047D01*
X162590476Y-110316666D01*
X162485714Y-110264285D01*
X162380952Y-110264285D01*
X218095238Y-150421428D02*
X218461904Y-150421428D01*
X218461904Y-150997619D02*
X218461904Y-149897619D01*
X217938095Y-149897619D01*
X217100000Y-150945238D02*
X217204761Y-150997619D01*
X217414285Y-150997619D01*
X217519047Y-150945238D01*
X217571428Y-150840476D01*
X217571428Y-150421428D01*
X217519047Y-150316666D01*
X217414285Y-150264285D01*
X217204761Y-150264285D01*
X217100000Y-150316666D01*
X217047619Y-150421428D01*
X217047619Y-150526190D01*
X217571428Y-150630952D01*
X216157142Y-150945238D02*
X216261904Y-150997619D01*
X216471428Y-150997619D01*
X216576190Y-150945238D01*
X216628571Y-150840476D01*
X216628571Y-150421428D01*
X216576190Y-150316666D01*
X216471428Y-150264285D01*
X216261904Y-150264285D01*
X216157142Y-150316666D01*
X216104761Y-150421428D01*
X216104761Y-150526190D01*
X216628571Y-150630952D01*
X215161904Y-150997619D02*
X215161904Y-149897619D01*
X215161904Y-150945238D02*
X215266666Y-150997619D01*
X215476190Y-150997619D01*
X215580952Y-150945238D01*
X215633333Y-150892857D01*
X215685714Y-150788095D01*
X215685714Y-150473809D01*
X215633333Y-150369047D01*
X215580952Y-150316666D01*
X215476190Y-150264285D01*
X215266666Y-150264285D01*
X215161904Y-150316666D01*
X214219047Y-150945238D02*
X214323809Y-150997619D01*
X214533333Y-150997619D01*
X214638095Y-150945238D01*
X214690476Y-150840476D01*
X214690476Y-150421428D01*
X214638095Y-150316666D01*
X214533333Y-150264285D01*
X214323809Y-150264285D01*
X214219047Y-150316666D01*
X214166666Y-150421428D01*
X214166666Y-150526190D01*
X214690476Y-150630952D01*
X213695238Y-150997619D02*
X213695238Y-150264285D01*
X213695238Y-150473809D02*
X213642857Y-150369047D01*
X213590476Y-150316666D01*
X213485714Y-150264285D01*
X213380952Y-150264285D01*
X167095238Y-130421428D02*
X167461904Y-130421428D01*
X167461904Y-130997619D02*
X167461904Y-129897619D01*
X166938095Y-129897619D01*
X166100000Y-130945238D02*
X166204761Y-130997619D01*
X166414285Y-130997619D01*
X166519047Y-130945238D01*
X166571428Y-130840476D01*
X166571428Y-130421428D01*
X166519047Y-130316666D01*
X166414285Y-130264285D01*
X166204761Y-130264285D01*
X166100000Y-130316666D01*
X166047619Y-130421428D01*
X166047619Y-130526190D01*
X166571428Y-130630952D01*
X165157142Y-130945238D02*
X165261904Y-130997619D01*
X165471428Y-130997619D01*
X165576190Y-130945238D01*
X165628571Y-130840476D01*
X165628571Y-130421428D01*
X165576190Y-130316666D01*
X165471428Y-130264285D01*
X165261904Y-130264285D01*
X165157142Y-130316666D01*
X165104761Y-130421428D01*
X165104761Y-130526190D01*
X165628571Y-130630952D01*
X164161904Y-130997619D02*
X164161904Y-129897619D01*
X164161904Y-130945238D02*
X164266666Y-130997619D01*
X164476190Y-130997619D01*
X164580952Y-130945238D01*
X164633333Y-130892857D01*
X164685714Y-130788095D01*
X164685714Y-130473809D01*
X164633333Y-130369047D01*
X164580952Y-130316666D01*
X164476190Y-130264285D01*
X164266666Y-130264285D01*
X164161904Y-130316666D01*
X163219047Y-130945238D02*
X163323809Y-130997619D01*
X163533333Y-130997619D01*
X163638095Y-130945238D01*
X163690476Y-130840476D01*
X163690476Y-130421428D01*
X163638095Y-130316666D01*
X163533333Y-130264285D01*
X163323809Y-130264285D01*
X163219047Y-130316666D01*
X163166666Y-130421428D01*
X163166666Y-130526190D01*
X163690476Y-130630952D01*
X162695238Y-130997619D02*
X162695238Y-130264285D01*
X162695238Y-130473809D02*
X162642857Y-130369047D01*
X162590476Y-130316666D01*
X162485714Y-130264285D01*
X162380952Y-130264285D01*
X218095238Y-130421428D02*
X218461904Y-130421428D01*
X218461904Y-130997619D02*
X218461904Y-129897619D01*
X217938095Y-129897619D01*
X217100000Y-130945238D02*
X217204761Y-130997619D01*
X217414285Y-130997619D01*
X217519047Y-130945238D01*
X217571428Y-130840476D01*
X217571428Y-130421428D01*
X217519047Y-130316666D01*
X217414285Y-130264285D01*
X217204761Y-130264285D01*
X217100000Y-130316666D01*
X217047619Y-130421428D01*
X217047619Y-130526190D01*
X217571428Y-130630952D01*
X216157142Y-130945238D02*
X216261904Y-130997619D01*
X216471428Y-130997619D01*
X216576190Y-130945238D01*
X216628571Y-130840476D01*
X216628571Y-130421428D01*
X216576190Y-130316666D01*
X216471428Y-130264285D01*
X216261904Y-130264285D01*
X216157142Y-130316666D01*
X216104761Y-130421428D01*
X216104761Y-130526190D01*
X216628571Y-130630952D01*
X215161904Y-130997619D02*
X215161904Y-129897619D01*
X215161904Y-130945238D02*
X215266666Y-130997619D01*
X215476190Y-130997619D01*
X215580952Y-130945238D01*
X215633333Y-130892857D01*
X215685714Y-130788095D01*
X215685714Y-130473809D01*
X215633333Y-130369047D01*
X215580952Y-130316666D01*
X215476190Y-130264285D01*
X215266666Y-130264285D01*
X215161904Y-130316666D01*
X214219047Y-130945238D02*
X214323809Y-130997619D01*
X214533333Y-130997619D01*
X214638095Y-130945238D01*
X214690476Y-130840476D01*
X214690476Y-130421428D01*
X214638095Y-130316666D01*
X214533333Y-130264285D01*
X214323809Y-130264285D01*
X214219047Y-130316666D01*
X214166666Y-130421428D01*
X214166666Y-130526190D01*
X214690476Y-130630952D01*
X213695238Y-130997619D02*
X213695238Y-130264285D01*
X213695238Y-130473809D02*
X213642857Y-130369047D01*
X213590476Y-130316666D01*
X213485714Y-130264285D01*
X213380952Y-130264285D01*
D10*
X184523809Y-113904761D02*
X184523809Y-111904761D01*
X183761904Y-111904761D01*
X183571428Y-112000000D01*
X183476190Y-112095238D01*
X183380952Y-112285714D01*
X183380952Y-112571428D01*
X183476190Y-112761904D01*
X183571428Y-112857142D01*
X183761904Y-112952380D01*
X184523809Y-112952380D01*
X181380952Y-113714285D02*
X181476190Y-113809523D01*
X181761904Y-113904761D01*
X181952380Y-113904761D01*
X182238095Y-113809523D01*
X182428571Y-113619047D01*
X182523809Y-113428571D01*
X182619047Y-113047619D01*
X182619047Y-112761904D01*
X182523809Y-112380952D01*
X182428571Y-112190476D01*
X182238095Y-112000000D01*
X181952380Y-111904761D01*
X181761904Y-111904761D01*
X181476190Y-112000000D01*
X181380952Y-112095238D01*
X179857142Y-112857142D02*
X179571428Y-112952380D01*
X179476190Y-113047619D01*
X179380952Y-113238095D01*
X179380952Y-113523809D01*
X179476190Y-113714285D01*
X179571428Y-113809523D01*
X179761904Y-113904761D01*
X180523809Y-113904761D01*
X180523809Y-111904761D01*
X179857142Y-111904761D01*
X179666666Y-112000000D01*
X179571428Y-112095238D01*
X179476190Y-112285714D01*
X179476190Y-112476190D01*
X179571428Y-112666666D01*
X179666666Y-112761904D01*
X179857142Y-112857142D01*
X180523809Y-112857142D01*
D11*
X218095238Y-170421428D02*
X218461904Y-170421428D01*
X218461904Y-170997619D02*
X218461904Y-169897619D01*
X217938095Y-169897619D01*
X217100000Y-170945238D02*
X217204761Y-170997619D01*
X217414285Y-170997619D01*
X217519047Y-170945238D01*
X217571428Y-170840476D01*
X217571428Y-170421428D01*
X217519047Y-170316666D01*
X217414285Y-170264285D01*
X217204761Y-170264285D01*
X217100000Y-170316666D01*
X217047619Y-170421428D01*
X217047619Y-170526190D01*
X217571428Y-170630952D01*
X216157142Y-170945238D02*
X216261904Y-170997619D01*
X216471428Y-170997619D01*
X216576190Y-170945238D01*
X216628571Y-170840476D01*
X216628571Y-170421428D01*
X216576190Y-170316666D01*
X216471428Y-170264285D01*
X216261904Y-170264285D01*
X216157142Y-170316666D01*
X216104761Y-170421428D01*
X216104761Y-170526190D01*
X216628571Y-170630952D01*
X215161904Y-170997619D02*
X215161904Y-169897619D01*
X215161904Y-170945238D02*
X215266666Y-170997619D01*
X215476190Y-170997619D01*
X215580952Y-170945238D01*
X215633333Y-170892857D01*
X215685714Y-170788095D01*
X215685714Y-170473809D01*
X215633333Y-170369047D01*
X215580952Y-170316666D01*
X215476190Y-170264285D01*
X215266666Y-170264285D01*
X215161904Y-170316666D01*
X214219047Y-170945238D02*
X214323809Y-170997619D01*
X214533333Y-170997619D01*
X214638095Y-170945238D01*
X214690476Y-170840476D01*
X214690476Y-170421428D01*
X214638095Y-170316666D01*
X214533333Y-170264285D01*
X214323809Y-170264285D01*
X214219047Y-170316666D01*
X214166666Y-170421428D01*
X214166666Y-170526190D01*
X214690476Y-170630952D01*
X213695238Y-170997619D02*
X213695238Y-170264285D01*
X213695238Y-170473809D02*
X213642857Y-170369047D01*
X213590476Y-170316666D01*
X213485714Y-170264285D01*
X213380952Y-170264285D01*
D10*
X167523809Y-173904761D02*
X167523809Y-171904761D01*
X166761904Y-171904761D01*
X166571428Y-172000000D01*
X166476190Y-172095238D01*
X166380952Y-172285714D01*
X166380952Y-172571428D01*
X166476190Y-172761904D01*
X166571428Y-172857142D01*
X166761904Y-172952380D01*
X167523809Y-172952380D01*
X164380952Y-173714285D02*
X164476190Y-173809523D01*
X164761904Y-173904761D01*
X164952380Y-173904761D01*
X165238095Y-173809523D01*
X165428571Y-173619047D01*
X165523809Y-173428571D01*
X165619047Y-173047619D01*
X165619047Y-172761904D01*
X165523809Y-172380952D01*
X165428571Y-172190476D01*
X165238095Y-172000000D01*
X164952380Y-171904761D01*
X164761904Y-171904761D01*
X164476190Y-172000000D01*
X164380952Y-172095238D01*
X162857142Y-172857142D02*
X162571428Y-172952380D01*
X162476190Y-173047619D01*
X162380952Y-173238095D01*
X162380952Y-173523809D01*
X162476190Y-173714285D01*
X162571428Y-173809523D01*
X162761904Y-173904761D01*
X163523809Y-173904761D01*
X163523809Y-171904761D01*
X162857142Y-171904761D01*
X162666666Y-172000000D01*
X162571428Y-172095238D01*
X162476190Y-172285714D01*
X162476190Y-172476190D01*
X162571428Y-172666666D01*
X162666666Y-172761904D01*
X162857142Y-172857142D01*
X163523809Y-172857142D01*
D11*
X167095238Y-90421428D02*
X167461904Y-90421428D01*
X167461904Y-90997619D02*
X167461904Y-89897619D01*
X166938095Y-89897619D01*
X166100000Y-90945238D02*
X166204761Y-90997619D01*
X166414285Y-90997619D01*
X166519047Y-90945238D01*
X166571428Y-90840476D01*
X166571428Y-90421428D01*
X166519047Y-90316666D01*
X166414285Y-90264285D01*
X166204761Y-90264285D01*
X166100000Y-90316666D01*
X166047619Y-90421428D01*
X166047619Y-90526190D01*
X166571428Y-90630952D01*
X165157142Y-90945238D02*
X165261904Y-90997619D01*
X165471428Y-90997619D01*
X165576190Y-90945238D01*
X165628571Y-90840476D01*
X165628571Y-90421428D01*
X165576190Y-90316666D01*
X165471428Y-90264285D01*
X165261904Y-90264285D01*
X165157142Y-90316666D01*
X165104761Y-90421428D01*
X165104761Y-90526190D01*
X165628571Y-90630952D01*
X164161904Y-90997619D02*
X164161904Y-89897619D01*
X164161904Y-90945238D02*
X164266666Y-90997619D01*
X164476190Y-90997619D01*
X164580952Y-90945238D01*
X164633333Y-90892857D01*
X164685714Y-90788095D01*
X164685714Y-90473809D01*
X164633333Y-90369047D01*
X164580952Y-90316666D01*
X164476190Y-90264285D01*
X164266666Y-90264285D01*
X164161904Y-90316666D01*
X163219047Y-90945238D02*
X163323809Y-90997619D01*
X163533333Y-90997619D01*
X163638095Y-90945238D01*
X163690476Y-90840476D01*
X163690476Y-90421428D01*
X163638095Y-90316666D01*
X163533333Y-90264285D01*
X163323809Y-90264285D01*
X163219047Y-90316666D01*
X163166666Y-90421428D01*
X163166666Y-90526190D01*
X163690476Y-90630952D01*
X162695238Y-90997619D02*
X162695238Y-90264285D01*
X162695238Y-90473809D02*
X162642857Y-90369047D01*
X162590476Y-90316666D01*
X162485714Y-90264285D01*
X162380952Y-90264285D01*
X150095238Y-150421428D02*
X150461904Y-150421428D01*
X150461904Y-150997619D02*
X150461904Y-149897619D01*
X149938095Y-149897619D01*
X149100000Y-150945238D02*
X149204761Y-150997619D01*
X149414285Y-150997619D01*
X149519047Y-150945238D01*
X149571428Y-150840476D01*
X149571428Y-150421428D01*
X149519047Y-150316666D01*
X149414285Y-150264285D01*
X149204761Y-150264285D01*
X149100000Y-150316666D01*
X149047619Y-150421428D01*
X149047619Y-150526190D01*
X149571428Y-150630952D01*
X148157142Y-150945238D02*
X148261904Y-150997619D01*
X148471428Y-150997619D01*
X148576190Y-150945238D01*
X148628571Y-150840476D01*
X148628571Y-150421428D01*
X148576190Y-150316666D01*
X148471428Y-150264285D01*
X148261904Y-150264285D01*
X148157142Y-150316666D01*
X148104761Y-150421428D01*
X148104761Y-150526190D01*
X148628571Y-150630952D01*
X147161904Y-150997619D02*
X147161904Y-149897619D01*
X147161904Y-150945238D02*
X147266666Y-150997619D01*
X147476190Y-150997619D01*
X147580952Y-150945238D01*
X147633333Y-150892857D01*
X147685714Y-150788095D01*
X147685714Y-150473809D01*
X147633333Y-150369047D01*
X147580952Y-150316666D01*
X147476190Y-150264285D01*
X147266666Y-150264285D01*
X147161904Y-150316666D01*
X146219047Y-150945238D02*
X146323809Y-150997619D01*
X146533333Y-150997619D01*
X146638095Y-150945238D01*
X146690476Y-150840476D01*
X146690476Y-150421428D01*
X146638095Y-150316666D01*
X146533333Y-150264285D01*
X146323809Y-150264285D01*
X146219047Y-150316666D01*
X146166666Y-150421428D01*
X146166666Y-150526190D01*
X146690476Y-150630952D01*
X145695238Y-150997619D02*
X145695238Y-150264285D01*
X145695238Y-150473809D02*
X145642857Y-150369047D01*
X145590476Y-150316666D01*
X145485714Y-150264285D01*
X145380952Y-150264285D01*
D10*
X150523809Y-133904761D02*
X150523809Y-131904761D01*
X149761904Y-131904761D01*
X149571428Y-132000000D01*
X149476190Y-132095238D01*
X149380952Y-132285714D01*
X149380952Y-132571428D01*
X149476190Y-132761904D01*
X149571428Y-132857142D01*
X149761904Y-132952380D01*
X150523809Y-132952380D01*
X147380952Y-133714285D02*
X147476190Y-133809523D01*
X147761904Y-133904761D01*
X147952380Y-133904761D01*
X148238095Y-133809523D01*
X148428571Y-133619047D01*
X148523809Y-133428571D01*
X148619047Y-133047619D01*
X148619047Y-132761904D01*
X148523809Y-132380952D01*
X148428571Y-132190476D01*
X148238095Y-132000000D01*
X147952380Y-131904761D01*
X147761904Y-131904761D01*
X147476190Y-132000000D01*
X147380952Y-132095238D01*
X145857142Y-132857142D02*
X145571428Y-132952380D01*
X145476190Y-133047619D01*
X145380952Y-133238095D01*
X145380952Y-133523809D01*
X145476190Y-133714285D01*
X145571428Y-133809523D01*
X145761904Y-133904761D01*
X146523809Y-133904761D01*
X146523809Y-131904761D01*
X145857142Y-131904761D01*
X145666666Y-132000000D01*
X145571428Y-132095238D01*
X145476190Y-132285714D01*
X145476190Y-132476190D01*
X145571428Y-132666666D01*
X145666666Y-132761904D01*
X145857142Y-132857142D01*
X146523809Y-132857142D01*
D11*
X150095238Y-90421428D02*
X150461904Y-90421428D01*
X150461904Y-90997619D02*
X150461904Y-89897619D01*
X149938095Y-89897619D01*
X149100000Y-90945238D02*
X149204761Y-90997619D01*
X149414285Y-90997619D01*
X149519047Y-90945238D01*
X149571428Y-90840476D01*
X149571428Y-90421428D01*
X149519047Y-90316666D01*
X149414285Y-90264285D01*
X149204761Y-90264285D01*
X149100000Y-90316666D01*
X149047619Y-90421428D01*
X149047619Y-90526190D01*
X149571428Y-90630952D01*
X148157142Y-90945238D02*
X148261904Y-90997619D01*
X148471428Y-90997619D01*
X148576190Y-90945238D01*
X148628571Y-90840476D01*
X148628571Y-90421428D01*
X148576190Y-90316666D01*
X148471428Y-90264285D01*
X148261904Y-90264285D01*
X148157142Y-90316666D01*
X148104761Y-90421428D01*
X148104761Y-90526190D01*
X148628571Y-90630952D01*
X147161904Y-90997619D02*
X147161904Y-89897619D01*
X147161904Y-90945238D02*
X147266666Y-90997619D01*
X147476190Y-90997619D01*
X147580952Y-90945238D01*
X147633333Y-90892857D01*
X147685714Y-90788095D01*
X147685714Y-90473809D01*
X147633333Y-90369047D01*
X147580952Y-90316666D01*
X147476190Y-90264285D01*
X147266666Y-90264285D01*
X147161904Y-90316666D01*
X146219047Y-90945238D02*
X146323809Y-90997619D01*
X146533333Y-90997619D01*
X146638095Y-90945238D01*
X146690476Y-90840476D01*
X146690476Y-90421428D01*
X146638095Y-90316666D01*
X146533333Y-90264285D01*
X146323809Y-90264285D01*
X146219047Y-90316666D01*
X146166666Y-90421428D01*
X146166666Y-90526190D01*
X146690476Y-90630952D01*
X145695238Y-90997619D02*
X145695238Y-90264285D01*
X145695238Y-90473809D02*
X145642857Y-90369047D01*
X145590476Y-90316666D01*
X145485714Y-90264285D01*
X145380952Y-90264285D01*
X184095238Y-110421428D02*
X184461904Y-110421428D01*
X184461904Y-110997619D02*
X184461904Y-109897619D01*
X183938095Y-109897619D01*
X183100000Y-110945238D02*
X183204761Y-110997619D01*
X183414285Y-110997619D01*
X183519047Y-110945238D01*
X183571428Y-110840476D01*
X183571428Y-110421428D01*
X183519047Y-110316666D01*
X183414285Y-110264285D01*
X183204761Y-110264285D01*
X183100000Y-110316666D01*
X183047619Y-110421428D01*
X183047619Y-110526190D01*
X183571428Y-110630952D01*
X182157142Y-110945238D02*
X182261904Y-110997619D01*
X182471428Y-110997619D01*
X182576190Y-110945238D01*
X182628571Y-110840476D01*
X182628571Y-110421428D01*
X182576190Y-110316666D01*
X182471428Y-110264285D01*
X182261904Y-110264285D01*
X182157142Y-110316666D01*
X182104761Y-110421428D01*
X182104761Y-110526190D01*
X182628571Y-110630952D01*
X181161904Y-110997619D02*
X181161904Y-109897619D01*
X181161904Y-110945238D02*
X181266666Y-110997619D01*
X181476190Y-110997619D01*
X181580952Y-110945238D01*
X181633333Y-110892857D01*
X181685714Y-110788095D01*
X181685714Y-110473809D01*
X181633333Y-110369047D01*
X181580952Y-110316666D01*
X181476190Y-110264285D01*
X181266666Y-110264285D01*
X181161904Y-110316666D01*
X180219047Y-110945238D02*
X180323809Y-110997619D01*
X180533333Y-110997619D01*
X180638095Y-110945238D01*
X180690476Y-110840476D01*
X180690476Y-110421428D01*
X180638095Y-110316666D01*
X180533333Y-110264285D01*
X180323809Y-110264285D01*
X180219047Y-110316666D01*
X180166666Y-110421428D01*
X180166666Y-110526190D01*
X180690476Y-110630952D01*
X179695238Y-110997619D02*
X179695238Y-110264285D01*
X179695238Y-110473809D02*
X179642857Y-110369047D01*
X179590476Y-110316666D01*
X179485714Y-110264285D01*
X179380952Y-110264285D01*
X167095238Y-150421428D02*
X167461904Y-150421428D01*
X167461904Y-150997619D02*
X167461904Y-149897619D01*
X166938095Y-149897619D01*
X166100000Y-150945238D02*
X166204761Y-150997619D01*
X166414285Y-150997619D01*
X166519047Y-150945238D01*
X166571428Y-150840476D01*
X166571428Y-150421428D01*
X166519047Y-150316666D01*
X166414285Y-150264285D01*
X166204761Y-150264285D01*
X166100000Y-150316666D01*
X166047619Y-150421428D01*
X166047619Y-150526190D01*
X166571428Y-150630952D01*
X165157142Y-150945238D02*
X165261904Y-150997619D01*
X165471428Y-150997619D01*
X165576190Y-150945238D01*
X165628571Y-150840476D01*
X165628571Y-150421428D01*
X165576190Y-150316666D01*
X165471428Y-150264285D01*
X165261904Y-150264285D01*
X165157142Y-150316666D01*
X165104761Y-150421428D01*
X165104761Y-150526190D01*
X165628571Y-150630952D01*
X164161904Y-150997619D02*
X164161904Y-149897619D01*
X164161904Y-150945238D02*
X164266666Y-150997619D01*
X164476190Y-150997619D01*
X164580952Y-150945238D01*
X164633333Y-150892857D01*
X164685714Y-150788095D01*
X164685714Y-150473809D01*
X164633333Y-150369047D01*
X164580952Y-150316666D01*
X164476190Y-150264285D01*
X164266666Y-150264285D01*
X164161904Y-150316666D01*
X163219047Y-150945238D02*
X163323809Y-150997619D01*
X163533333Y-150997619D01*
X163638095Y-150945238D01*
X163690476Y-150840476D01*
X163690476Y-150421428D01*
X163638095Y-150316666D01*
X163533333Y-150264285D01*
X163323809Y-150264285D01*
X163219047Y-150316666D01*
X163166666Y-150421428D01*
X163166666Y-150526190D01*
X163690476Y-150630952D01*
X162695238Y-150997619D02*
X162695238Y-150264285D01*
X162695238Y-150473809D02*
X162642857Y-150369047D01*
X162590476Y-150316666D01*
X162485714Y-150264285D01*
X162380952Y-150264285D01*
X150095238Y-170421428D02*
X150461904Y-170421428D01*
X150461904Y-170997619D02*
X150461904Y-169897619D01*
X149938095Y-169897619D01*
X149100000Y-170945238D02*
X149204761Y-170997619D01*
X149414285Y-170997619D01*
X149519047Y-170945238D01*
X149571428Y-170840476D01*
X149571428Y-170421428D01*
X149519047Y-170316666D01*
X149414285Y-170264285D01*
X149204761Y-170264285D01*
X149100000Y-170316666D01*
X149047619Y-170421428D01*
X149047619Y-170526190D01*
X149571428Y-170630952D01*
X148157142Y-170945238D02*
X148261904Y-170997619D01*
X148471428Y-170997619D01*
X148576190Y-170945238D01*
X148628571Y-170840476D01*
X148628571Y-170421428D01*
X148576190Y-170316666D01*
X148471428Y-170264285D01*
X148261904Y-170264285D01*
X148157142Y-170316666D01*
X148104761Y-170421428D01*
X148104761Y-170526190D01*
X148628571Y-170630952D01*
X147161904Y-170997619D02*
X147161904Y-169897619D01*
X147161904Y-170945238D02*
X147266666Y-170997619D01*
X147476190Y-170997619D01*
X147580952Y-170945238D01*
X147633333Y-170892857D01*
X147685714Y-170788095D01*
X147685714Y-170473809D01*
X147633333Y-170369047D01*
X147580952Y-170316666D01*
X147476190Y-170264285D01*
X147266666Y-170264285D01*
X147161904Y-170316666D01*
X146219047Y-170945238D02*
X146323809Y-170997619D01*
X146533333Y-170997619D01*
X146638095Y-170945238D01*
X146690476Y-170840476D01*
X146690476Y-170421428D01*
X146638095Y-170316666D01*
X146533333Y-170264285D01*
X146323809Y-170264285D01*
X146219047Y-170316666D01*
X146166666Y-170421428D01*
X146166666Y-170526190D01*
X146690476Y-170630952D01*
X145695238Y-170997619D02*
X145695238Y-170264285D01*
X145695238Y-170473809D02*
X145642857Y-170369047D01*
X145590476Y-170316666D01*
X145485714Y-170264285D01*
X145380952Y-170264285D01*
X150095238Y-130421428D02*
X150461904Y-130421428D01*
X150461904Y-130997619D02*
X150461904Y-129897619D01*
X149938095Y-129897619D01*
X149100000Y-130945238D02*
X149204761Y-130997619D01*
X149414285Y-130997619D01*
X149519047Y-130945238D01*
X149571428Y-130840476D01*
X149571428Y-130421428D01*
X149519047Y-130316666D01*
X149414285Y-130264285D01*
X149204761Y-130264285D01*
X149100000Y-130316666D01*
X149047619Y-130421428D01*
X149047619Y-130526190D01*
X149571428Y-130630952D01*
X148157142Y-130945238D02*
X148261904Y-130997619D01*
X148471428Y-130997619D01*
X148576190Y-130945238D01*
X148628571Y-130840476D01*
X148628571Y-130421428D01*
X148576190Y-130316666D01*
X148471428Y-130264285D01*
X148261904Y-130264285D01*
X148157142Y-130316666D01*
X148104761Y-130421428D01*
X148104761Y-130526190D01*
X148628571Y-130630952D01*
X147161904Y-130997619D02*
X147161904Y-129897619D01*
X147161904Y-130945238D02*
X147266666Y-130997619D01*
X147476190Y-130997619D01*
X147580952Y-130945238D01*
X147633333Y-130892857D01*
X147685714Y-130788095D01*
X147685714Y-130473809D01*
X147633333Y-130369047D01*
X147580952Y-130316666D01*
X147476190Y-130264285D01*
X147266666Y-130264285D01*
X147161904Y-130316666D01*
X146219047Y-130945238D02*
X146323809Y-130997619D01*
X146533333Y-130997619D01*
X146638095Y-130945238D01*
X146690476Y-130840476D01*
X146690476Y-130421428D01*
X146638095Y-130316666D01*
X146533333Y-130264285D01*
X146323809Y-130264285D01*
X146219047Y-130316666D01*
X146166666Y-130421428D01*
X146166666Y-130526190D01*
X146690476Y-130630952D01*
X145695238Y-130997619D02*
X145695238Y-130264285D01*
X145695238Y-130473809D02*
X145642857Y-130369047D01*
X145590476Y-130316666D01*
X145485714Y-130264285D01*
X145380952Y-130264285D01*
X201095238Y-110421428D02*
X201461904Y-110421428D01*
X201461904Y-110997619D02*
X201461904Y-109897619D01*
X200938095Y-109897619D01*
X200100000Y-110945238D02*
X200204761Y-110997619D01*
X200414285Y-110997619D01*
X200519047Y-110945238D01*
X200571428Y-110840476D01*
X200571428Y-110421428D01*
X200519047Y-110316666D01*
X200414285Y-110264285D01*
X200204761Y-110264285D01*
X200100000Y-110316666D01*
X200047619Y-110421428D01*
X200047619Y-110526190D01*
X200571428Y-110630952D01*
X199157142Y-110945238D02*
X199261904Y-110997619D01*
X199471428Y-110997619D01*
X199576190Y-110945238D01*
X199628571Y-110840476D01*
X199628571Y-110421428D01*
X199576190Y-110316666D01*
X199471428Y-110264285D01*
X199261904Y-110264285D01*
X199157142Y-110316666D01*
X199104761Y-110421428D01*
X199104761Y-110526190D01*
X199628571Y-110630952D01*
X198161904Y-110997619D02*
X198161904Y-109897619D01*
X198161904Y-110945238D02*
X198266666Y-110997619D01*
X198476190Y-110997619D01*
X198580952Y-110945238D01*
X198633333Y-110892857D01*
X198685714Y-110788095D01*
X198685714Y-110473809D01*
X198633333Y-110369047D01*
X198580952Y-110316666D01*
X198476190Y-110264285D01*
X198266666Y-110264285D01*
X198161904Y-110316666D01*
X197219047Y-110945238D02*
X197323809Y-110997619D01*
X197533333Y-110997619D01*
X197638095Y-110945238D01*
X197690476Y-110840476D01*
X197690476Y-110421428D01*
X197638095Y-110316666D01*
X197533333Y-110264285D01*
X197323809Y-110264285D01*
X197219047Y-110316666D01*
X197166666Y-110421428D01*
X197166666Y-110526190D01*
X197690476Y-110630952D01*
X196695238Y-110997619D02*
X196695238Y-110264285D01*
X196695238Y-110473809D02*
X196642857Y-110369047D01*
X196590476Y-110316666D01*
X196485714Y-110264285D01*
X196380952Y-110264285D01*
X184095238Y-130421428D02*
X184461904Y-130421428D01*
X184461904Y-130997619D02*
X184461904Y-129897619D01*
X183938095Y-129897619D01*
X183100000Y-130945238D02*
X183204761Y-130997619D01*
X183414285Y-130997619D01*
X183519047Y-130945238D01*
X183571428Y-130840476D01*
X183571428Y-130421428D01*
X183519047Y-130316666D01*
X183414285Y-130264285D01*
X183204761Y-130264285D01*
X183100000Y-130316666D01*
X183047619Y-130421428D01*
X183047619Y-130526190D01*
X183571428Y-130630952D01*
X182157142Y-130945238D02*
X182261904Y-130997619D01*
X182471428Y-130997619D01*
X182576190Y-130945238D01*
X182628571Y-130840476D01*
X182628571Y-130421428D01*
X182576190Y-130316666D01*
X182471428Y-130264285D01*
X182261904Y-130264285D01*
X182157142Y-130316666D01*
X182104761Y-130421428D01*
X182104761Y-130526190D01*
X182628571Y-130630952D01*
X181161904Y-130997619D02*
X181161904Y-129897619D01*
X181161904Y-130945238D02*
X181266666Y-130997619D01*
X181476190Y-130997619D01*
X181580952Y-130945238D01*
X181633333Y-130892857D01*
X181685714Y-130788095D01*
X181685714Y-130473809D01*
X181633333Y-130369047D01*
X181580952Y-130316666D01*
X181476190Y-130264285D01*
X181266666Y-130264285D01*
X181161904Y-130316666D01*
X180219047Y-130945238D02*
X180323809Y-130997619D01*
X180533333Y-130997619D01*
X180638095Y-130945238D01*
X180690476Y-130840476D01*
X180690476Y-130421428D01*
X180638095Y-130316666D01*
X180533333Y-130264285D01*
X180323809Y-130264285D01*
X180219047Y-130316666D01*
X180166666Y-130421428D01*
X180166666Y-130526190D01*
X180690476Y-130630952D01*
X179695238Y-130997619D02*
X179695238Y-130264285D01*
X179695238Y-130473809D02*
X179642857Y-130369047D01*
X179590476Y-130316666D01*
X179485714Y-130264285D01*
X179380952Y-130264285D01*
D10*
X167523809Y-153904761D02*
X167523809Y-151904761D01*
X166761904Y-151904761D01*
X166571428Y-152000000D01*
X166476190Y-152095238D01*
X166380952Y-152285714D01*
X166380952Y-152571428D01*
X166476190Y-152761904D01*
X166571428Y-152857142D01*
X166761904Y-152952380D01*
X167523809Y-152952380D01*
X164380952Y-153714285D02*
X164476190Y-153809523D01*
X164761904Y-153904761D01*
X164952380Y-153904761D01*
X165238095Y-153809523D01*
X165428571Y-153619047D01*
X165523809Y-153428571D01*
X165619047Y-153047619D01*
X165619047Y-152761904D01*
X165523809Y-152380952D01*
X165428571Y-152190476D01*
X165238095Y-152000000D01*
X164952380Y-151904761D01*
X164761904Y-151904761D01*
X164476190Y-152000000D01*
X164380952Y-152095238D01*
X162857142Y-152857142D02*
X162571428Y-152952380D01*
X162476190Y-153047619D01*
X162380952Y-153238095D01*
X162380952Y-153523809D01*
X162476190Y-153714285D01*
X162571428Y-153809523D01*
X162761904Y-153904761D01*
X163523809Y-153904761D01*
X163523809Y-151904761D01*
X162857142Y-151904761D01*
X162666666Y-152000000D01*
X162571428Y-152095238D01*
X162476190Y-152285714D01*
X162476190Y-152476190D01*
X162571428Y-152666666D01*
X162666666Y-152761904D01*
X162857142Y-152857142D01*
X163523809Y-152857142D01*
X184523809Y-93904761D02*
X184523809Y-91904761D01*
X183761904Y-91904761D01*
X183571428Y-92000000D01*
X183476190Y-92095238D01*
X183380952Y-92285714D01*
X183380952Y-92571428D01*
X183476190Y-92761904D01*
X183571428Y-92857142D01*
X183761904Y-92952380D01*
X184523809Y-92952380D01*
X181380952Y-93714285D02*
X181476190Y-93809523D01*
X181761904Y-93904761D01*
X181952380Y-93904761D01*
X182238095Y-93809523D01*
X182428571Y-93619047D01*
X182523809Y-93428571D01*
X182619047Y-93047619D01*
X182619047Y-92761904D01*
X182523809Y-92380952D01*
X182428571Y-92190476D01*
X182238095Y-92000000D01*
X181952380Y-91904761D01*
X181761904Y-91904761D01*
X181476190Y-92000000D01*
X181380952Y-92095238D01*
X179857142Y-92857142D02*
X179571428Y-92952380D01*
X179476190Y-93047619D01*
X179380952Y-93238095D01*
X179380952Y-93523809D01*
X179476190Y-93714285D01*
X179571428Y-93809523D01*
X179761904Y-93904761D01*
X180523809Y-93904761D01*
X180523809Y-91904761D01*
X179857142Y-91904761D01*
X179666666Y-92000000D01*
X179571428Y-92095238D01*
X179476190Y-92285714D01*
X179476190Y-92476190D01*
X179571428Y-92666666D01*
X179666666Y-92761904D01*
X179857142Y-92857142D01*
X180523809Y-92857142D01*
D11*
X150095238Y-110421428D02*
X150461904Y-110421428D01*
X150461904Y-110997619D02*
X150461904Y-109897619D01*
X149938095Y-109897619D01*
X149100000Y-110945238D02*
X149204761Y-110997619D01*
X149414285Y-110997619D01*
X149519047Y-110945238D01*
X149571428Y-110840476D01*
X149571428Y-110421428D01*
X149519047Y-110316666D01*
X149414285Y-110264285D01*
X149204761Y-110264285D01*
X149100000Y-110316666D01*
X149047619Y-110421428D01*
X149047619Y-110526190D01*
X149571428Y-110630952D01*
X148157142Y-110945238D02*
X148261904Y-110997619D01*
X148471428Y-110997619D01*
X148576190Y-110945238D01*
X148628571Y-110840476D01*
X148628571Y-110421428D01*
X148576190Y-110316666D01*
X148471428Y-110264285D01*
X148261904Y-110264285D01*
X148157142Y-110316666D01*
X148104761Y-110421428D01*
X148104761Y-110526190D01*
X148628571Y-110630952D01*
X147161904Y-110997619D02*
X147161904Y-109897619D01*
X147161904Y-110945238D02*
X147266666Y-110997619D01*
X147476190Y-110997619D01*
X147580952Y-110945238D01*
X147633333Y-110892857D01*
X147685714Y-110788095D01*
X147685714Y-110473809D01*
X147633333Y-110369047D01*
X147580952Y-110316666D01*
X147476190Y-110264285D01*
X147266666Y-110264285D01*
X147161904Y-110316666D01*
X146219047Y-110945238D02*
X146323809Y-110997619D01*
X146533333Y-110997619D01*
X146638095Y-110945238D01*
X146690476Y-110840476D01*
X146690476Y-110421428D01*
X146638095Y-110316666D01*
X146533333Y-110264285D01*
X146323809Y-110264285D01*
X146219047Y-110316666D01*
X146166666Y-110421428D01*
X146166666Y-110526190D01*
X146690476Y-110630952D01*
X145695238Y-110997619D02*
X145695238Y-110264285D01*
X145695238Y-110473809D02*
X145642857Y-110369047D01*
X145590476Y-110316666D01*
X145485714Y-110264285D01*
X145380952Y-110264285D01*
D10*
X150523809Y-153904761D02*
X150523809Y-151904761D01*
X149761904Y-151904761D01*
X149571428Y-152000000D01*
X149476190Y-152095238D01*
X149380952Y-152285714D01*
X149380952Y-152571428D01*
X149476190Y-152761904D01*
X149571428Y-152857142D01*
X149761904Y-152952380D01*
X150523809Y-152952380D01*
X147380952Y-153714285D02*
X147476190Y-153809523D01*
X147761904Y-153904761D01*
X147952380Y-153904761D01*
X148238095Y-153809523D01*
X148428571Y-153619047D01*
X148523809Y-153428571D01*
X148619047Y-153047619D01*
X148619047Y-152761904D01*
X148523809Y-152380952D01*
X148428571Y-152190476D01*
X148238095Y-152000000D01*
X147952380Y-151904761D01*
X147761904Y-151904761D01*
X147476190Y-152000000D01*
X147380952Y-152095238D01*
X145857142Y-152857142D02*
X145571428Y-152952380D01*
X145476190Y-153047619D01*
X145380952Y-153238095D01*
X145380952Y-153523809D01*
X145476190Y-153714285D01*
X145571428Y-153809523D01*
X145761904Y-153904761D01*
X146523809Y-153904761D01*
X146523809Y-151904761D01*
X145857142Y-151904761D01*
X145666666Y-152000000D01*
X145571428Y-152095238D01*
X145476190Y-152285714D01*
X145476190Y-152476190D01*
X145571428Y-152666666D01*
X145666666Y-152761904D01*
X145857142Y-152857142D01*
X146523809Y-152857142D01*
X218523809Y-173904761D02*
X218523809Y-171904761D01*
X217761904Y-171904761D01*
X217571428Y-172000000D01*
X217476190Y-172095238D01*
X217380952Y-172285714D01*
X217380952Y-172571428D01*
X217476190Y-172761904D01*
X217571428Y-172857142D01*
X217761904Y-172952380D01*
X218523809Y-172952380D01*
X215380952Y-173714285D02*
X215476190Y-173809523D01*
X215761904Y-173904761D01*
X215952380Y-173904761D01*
X216238095Y-173809523D01*
X216428571Y-173619047D01*
X216523809Y-173428571D01*
X216619047Y-173047619D01*
X216619047Y-172761904D01*
X216523809Y-172380952D01*
X216428571Y-172190476D01*
X216238095Y-172000000D01*
X215952380Y-171904761D01*
X215761904Y-171904761D01*
X215476190Y-172000000D01*
X215380952Y-172095238D01*
X213857142Y-172857142D02*
X213571428Y-172952380D01*
X213476190Y-173047619D01*
X213380952Y-173238095D01*
X213380952Y-173523809D01*
X213476190Y-173714285D01*
X213571428Y-173809523D01*
X213761904Y-173904761D01*
X214523809Y-173904761D01*
X214523809Y-171904761D01*
X213857142Y-171904761D01*
X213666666Y-172000000D01*
X213571428Y-172095238D01*
X213476190Y-172285714D01*
X213476190Y-172476190D01*
X213571428Y-172666666D01*
X213666666Y-172761904D01*
X213857142Y-172857142D01*
X214523809Y-172857142D01*
D11*
X184095238Y-170421428D02*
X184461904Y-170421428D01*
X184461904Y-170997619D02*
X184461904Y-169897619D01*
X183938095Y-169897619D01*
X183100000Y-170945238D02*
X183204761Y-170997619D01*
X183414285Y-170997619D01*
X183519047Y-170945238D01*
X183571428Y-170840476D01*
X183571428Y-170421428D01*
X183519047Y-170316666D01*
X183414285Y-170264285D01*
X183204761Y-170264285D01*
X183100000Y-170316666D01*
X183047619Y-170421428D01*
X183047619Y-170526190D01*
X183571428Y-170630952D01*
X182157142Y-170945238D02*
X182261904Y-170997619D01*
X182471428Y-170997619D01*
X182576190Y-170945238D01*
X182628571Y-170840476D01*
X182628571Y-170421428D01*
X182576190Y-170316666D01*
X182471428Y-170264285D01*
X182261904Y-170264285D01*
X182157142Y-170316666D01*
X182104761Y-170421428D01*
X182104761Y-170526190D01*
X182628571Y-170630952D01*
X181161904Y-170997619D02*
X181161904Y-169897619D01*
X181161904Y-170945238D02*
X181266666Y-170997619D01*
X181476190Y-170997619D01*
X181580952Y-170945238D01*
X181633333Y-170892857D01*
X181685714Y-170788095D01*
X181685714Y-170473809D01*
X181633333Y-170369047D01*
X181580952Y-170316666D01*
X181476190Y-170264285D01*
X181266666Y-170264285D01*
X181161904Y-170316666D01*
X180219047Y-170945238D02*
X180323809Y-170997619D01*
X180533333Y-170997619D01*
X180638095Y-170945238D01*
X180690476Y-170840476D01*
X180690476Y-170421428D01*
X180638095Y-170316666D01*
X180533333Y-170264285D01*
X180323809Y-170264285D01*
X180219047Y-170316666D01*
X180166666Y-170421428D01*
X180166666Y-170526190D01*
X180690476Y-170630952D01*
X179695238Y-170997619D02*
X179695238Y-170264285D01*
X179695238Y-170473809D02*
X179642857Y-170369047D01*
X179590476Y-170316666D01*
X179485714Y-170264285D01*
X179380952Y-170264285D01*
D10*
X201523809Y-133904761D02*
X201523809Y-131904761D01*
X200761904Y-131904761D01*
X200571428Y-132000000D01*
X200476190Y-132095238D01*
X200380952Y-132285714D01*
X200380952Y-132571428D01*
X200476190Y-132761904D01*
X200571428Y-132857142D01*
X200761904Y-132952380D01*
X201523809Y-132952380D01*
X198380952Y-133714285D02*
X198476190Y-133809523D01*
X198761904Y-133904761D01*
X198952380Y-133904761D01*
X199238095Y-133809523D01*
X199428571Y-133619047D01*
X199523809Y-133428571D01*
X199619047Y-133047619D01*
X199619047Y-132761904D01*
X199523809Y-132380952D01*
X199428571Y-132190476D01*
X199238095Y-132000000D01*
X198952380Y-131904761D01*
X198761904Y-131904761D01*
X198476190Y-132000000D01*
X198380952Y-132095238D01*
X196857142Y-132857142D02*
X196571428Y-132952380D01*
X196476190Y-133047619D01*
X196380952Y-133238095D01*
X196380952Y-133523809D01*
X196476190Y-133714285D01*
X196571428Y-133809523D01*
X196761904Y-133904761D01*
X197523809Y-133904761D01*
X197523809Y-131904761D01*
X196857142Y-131904761D01*
X196666666Y-132000000D01*
X196571428Y-132095238D01*
X196476190Y-132285714D01*
X196476190Y-132476190D01*
X196571428Y-132666666D01*
X196666666Y-132761904D01*
X196857142Y-132857142D01*
X197523809Y-132857142D01*
X218523809Y-113904761D02*
X218523809Y-111904761D01*
X217761904Y-111904761D01*
X217571428Y-112000000D01*
X217476190Y-112095238D01*
X217380952Y-112285714D01*
X217380952Y-112571428D01*
X217476190Y-112761904D01*
X217571428Y-112857142D01*
X217761904Y-112952380D01*
X218523809Y-112952380D01*
X215380952Y-113714285D02*
X215476190Y-113809523D01*
X215761904Y-113904761D01*
X215952380Y-113904761D01*
X216238095Y-113809523D01*
X216428571Y-113619047D01*
X216523809Y-113428571D01*
X216619047Y-113047619D01*
X216619047Y-112761904D01*
X216523809Y-112380952D01*
X216428571Y-112190476D01*
X216238095Y-112000000D01*
X215952380Y-111904761D01*
X215761904Y-111904761D01*
X215476190Y-112000000D01*
X215380952Y-112095238D01*
X213857142Y-112857142D02*
X213571428Y-112952380D01*
X213476190Y-113047619D01*
X213380952Y-113238095D01*
X213380952Y-113523809D01*
X213476190Y-113714285D01*
X213571428Y-113809523D01*
X213761904Y-113904761D01*
X214523809Y-113904761D01*
X214523809Y-111904761D01*
X213857142Y-111904761D01*
X213666666Y-112000000D01*
X213571428Y-112095238D01*
X213476190Y-112285714D01*
X213476190Y-112476190D01*
X213571428Y-112666666D01*
X213666666Y-112761904D01*
X213857142Y-112857142D01*
X214523809Y-112857142D01*
X218523809Y-93904761D02*
X218523809Y-91904761D01*
X217761904Y-91904761D01*
X217571428Y-92000000D01*
X217476190Y-92095238D01*
X217380952Y-92285714D01*
X217380952Y-92571428D01*
X217476190Y-92761904D01*
X217571428Y-92857142D01*
X217761904Y-92952380D01*
X218523809Y-92952380D01*
X215380952Y-93714285D02*
X215476190Y-93809523D01*
X215761904Y-93904761D01*
X215952380Y-93904761D01*
X216238095Y-93809523D01*
X216428571Y-93619047D01*
X216523809Y-93428571D01*
X216619047Y-93047619D01*
X216619047Y-92761904D01*
X216523809Y-92380952D01*
X216428571Y-92190476D01*
X216238095Y-92000000D01*
X215952380Y-91904761D01*
X215761904Y-91904761D01*
X215476190Y-92000000D01*
X215380952Y-92095238D01*
X213857142Y-92857142D02*
X213571428Y-92952380D01*
X213476190Y-93047619D01*
X213380952Y-93238095D01*
X213380952Y-93523809D01*
X213476190Y-93714285D01*
X213571428Y-93809523D01*
X213761904Y-93904761D01*
X214523809Y-93904761D01*
X214523809Y-91904761D01*
X213857142Y-91904761D01*
X213666666Y-92000000D01*
X213571428Y-92095238D01*
X213476190Y-92285714D01*
X213476190Y-92476190D01*
X213571428Y-92666666D01*
X213666666Y-92761904D01*
X213857142Y-92857142D01*
X214523809Y-92857142D01*
X150523809Y-93904761D02*
X150523809Y-91904761D01*
X149761904Y-91904761D01*
X149571428Y-92000000D01*
X149476190Y-92095238D01*
X149380952Y-92285714D01*
X149380952Y-92571428D01*
X149476190Y-92761904D01*
X149571428Y-92857142D01*
X149761904Y-92952380D01*
X150523809Y-92952380D01*
X147380952Y-93714285D02*
X147476190Y-93809523D01*
X147761904Y-93904761D01*
X147952380Y-93904761D01*
X148238095Y-93809523D01*
X148428571Y-93619047D01*
X148523809Y-93428571D01*
X148619047Y-93047619D01*
X148619047Y-92761904D01*
X148523809Y-92380952D01*
X148428571Y-92190476D01*
X148238095Y-92000000D01*
X147952380Y-91904761D01*
X147761904Y-91904761D01*
X147476190Y-92000000D01*
X147380952Y-92095238D01*
X145857142Y-92857142D02*
X145571428Y-92952380D01*
X145476190Y-93047619D01*
X145380952Y-93238095D01*
X145380952Y-93523809D01*
X145476190Y-93714285D01*
X145571428Y-93809523D01*
X145761904Y-93904761D01*
X146523809Y-93904761D01*
X146523809Y-91904761D01*
X145857142Y-91904761D01*
X145666666Y-92000000D01*
X145571428Y-92095238D01*
X145476190Y-92285714D01*
X145476190Y-92476190D01*
X145571428Y-92666666D01*
X145666666Y-92761904D01*
X145857142Y-92857142D01*
X146523809Y-92857142D01*
X150523809Y-173904761D02*
X150523809Y-171904761D01*
X149761904Y-171904761D01*
X149571428Y-172000000D01*
X149476190Y-172095238D01*
X149380952Y-172285714D01*
X149380952Y-172571428D01*
X149476190Y-172761904D01*
X149571428Y-172857142D01*
X149761904Y-172952380D01*
X150523809Y-172952380D01*
X147380952Y-173714285D02*
X147476190Y-173809523D01*
X147761904Y-173904761D01*
X147952380Y-173904761D01*
X148238095Y-173809523D01*
X148428571Y-173619047D01*
X148523809Y-173428571D01*
X148619047Y-173047619D01*
X148619047Y-172761904D01*
X148523809Y-172380952D01*
X148428571Y-172190476D01*
X148238095Y-172000000D01*
X147952380Y-171904761D01*
X147761904Y-171904761D01*
X147476190Y-172000000D01*
X147380952Y-172095238D01*
X145857142Y-172857142D02*
X145571428Y-172952380D01*
X145476190Y-173047619D01*
X145380952Y-173238095D01*
X145380952Y-173523809D01*
X145476190Y-173714285D01*
X145571428Y-173809523D01*
X145761904Y-173904761D01*
X146523809Y-173904761D01*
X146523809Y-171904761D01*
X145857142Y-171904761D01*
X145666666Y-172000000D01*
X145571428Y-172095238D01*
X145476190Y-172285714D01*
X145476190Y-172476190D01*
X145571428Y-172666666D01*
X145666666Y-172761904D01*
X145857142Y-172857142D01*
X146523809Y-172857142D01*
X201523809Y-113904761D02*
X201523809Y-111904761D01*
X200761904Y-111904761D01*
X200571428Y-112000000D01*
X200476190Y-112095238D01*
X200380952Y-112285714D01*
X200380952Y-112571428D01*
X200476190Y-112761904D01*
X200571428Y-112857142D01*
X200761904Y-112952380D01*
X201523809Y-112952380D01*
X198380952Y-113714285D02*
X198476190Y-113809523D01*
X198761904Y-113904761D01*
X198952380Y-113904761D01*
X199238095Y-113809523D01*
X199428571Y-113619047D01*
X199523809Y-113428571D01*
X199619047Y-113047619D01*
X199619047Y-112761904D01*
X199523809Y-112380952D01*
X199428571Y-112190476D01*
X199238095Y-112000000D01*
X198952380Y-111904761D01*
X198761904Y-111904761D01*
X198476190Y-112000000D01*
X198380952Y-112095238D01*
X196857142Y-112857142D02*
X196571428Y-112952380D01*
X196476190Y-113047619D01*
X196380952Y-113238095D01*
X196380952Y-113523809D01*
X196476190Y-113714285D01*
X196571428Y-113809523D01*
X196761904Y-113904761D01*
X197523809Y-113904761D01*
X197523809Y-111904761D01*
X196857142Y-111904761D01*
X196666666Y-112000000D01*
X196571428Y-112095238D01*
X196476190Y-112285714D01*
X196476190Y-112476190D01*
X196571428Y-112666666D01*
X196666666Y-112761904D01*
X196857142Y-112857142D01*
X197523809Y-112857142D01*
D11*
X201095238Y-150421428D02*
X201461904Y-150421428D01*
X201461904Y-150997619D02*
X201461904Y-149897619D01*
X200938095Y-149897619D01*
X200100000Y-150945238D02*
X200204761Y-150997619D01*
X200414285Y-150997619D01*
X200519047Y-150945238D01*
X200571428Y-150840476D01*
X200571428Y-150421428D01*
X200519047Y-150316666D01*
X200414285Y-150264285D01*
X200204761Y-150264285D01*
X200100000Y-150316666D01*
X200047619Y-150421428D01*
X200047619Y-150526190D01*
X200571428Y-150630952D01*
X199157142Y-150945238D02*
X199261904Y-150997619D01*
X199471428Y-150997619D01*
X199576190Y-150945238D01*
X199628571Y-150840476D01*
X199628571Y-150421428D01*
X199576190Y-150316666D01*
X199471428Y-150264285D01*
X199261904Y-150264285D01*
X199157142Y-150316666D01*
X199104761Y-150421428D01*
X199104761Y-150526190D01*
X199628571Y-150630952D01*
X198161904Y-150997619D02*
X198161904Y-149897619D01*
X198161904Y-150945238D02*
X198266666Y-150997619D01*
X198476190Y-150997619D01*
X198580952Y-150945238D01*
X198633333Y-150892857D01*
X198685714Y-150788095D01*
X198685714Y-150473809D01*
X198633333Y-150369047D01*
X198580952Y-150316666D01*
X198476190Y-150264285D01*
X198266666Y-150264285D01*
X198161904Y-150316666D01*
X197219047Y-150945238D02*
X197323809Y-150997619D01*
X197533333Y-150997619D01*
X197638095Y-150945238D01*
X197690476Y-150840476D01*
X197690476Y-150421428D01*
X197638095Y-150316666D01*
X197533333Y-150264285D01*
X197323809Y-150264285D01*
X197219047Y-150316666D01*
X197166666Y-150421428D01*
X197166666Y-150526190D01*
X197690476Y-150630952D01*
X196695238Y-150997619D02*
X196695238Y-150264285D01*
X196695238Y-150473809D02*
X196642857Y-150369047D01*
X196590476Y-150316666D01*
X196485714Y-150264285D01*
X196380952Y-150264285D01*
D10*
X167523809Y-113904761D02*
X167523809Y-111904761D01*
X166761904Y-111904761D01*
X166571428Y-112000000D01*
X166476190Y-112095238D01*
X166380952Y-112285714D01*
X166380952Y-112571428D01*
X166476190Y-112761904D01*
X166571428Y-112857142D01*
X166761904Y-112952380D01*
X167523809Y-112952380D01*
X164380952Y-113714285D02*
X164476190Y-113809523D01*
X164761904Y-113904761D01*
X164952380Y-113904761D01*
X165238095Y-113809523D01*
X165428571Y-113619047D01*
X165523809Y-113428571D01*
X165619047Y-113047619D01*
X165619047Y-112761904D01*
X165523809Y-112380952D01*
X165428571Y-112190476D01*
X165238095Y-112000000D01*
X164952380Y-111904761D01*
X164761904Y-111904761D01*
X164476190Y-112000000D01*
X164380952Y-112095238D01*
X162857142Y-112857142D02*
X162571428Y-112952380D01*
X162476190Y-113047619D01*
X162380952Y-113238095D01*
X162380952Y-113523809D01*
X162476190Y-113714285D01*
X162571428Y-113809523D01*
X162761904Y-113904761D01*
X163523809Y-113904761D01*
X163523809Y-111904761D01*
X162857142Y-111904761D01*
X162666666Y-112000000D01*
X162571428Y-112095238D01*
X162476190Y-112285714D01*
X162476190Y-112476190D01*
X162571428Y-112666666D01*
X162666666Y-112761904D01*
X162857142Y-112857142D01*
X163523809Y-112857142D01*
X201523809Y-153904761D02*
X201523809Y-151904761D01*
X200761904Y-151904761D01*
X200571428Y-152000000D01*
X200476190Y-152095238D01*
X200380952Y-152285714D01*
X200380952Y-152571428D01*
X200476190Y-152761904D01*
X200571428Y-152857142D01*
X200761904Y-152952380D01*
X201523809Y-152952380D01*
X198380952Y-153714285D02*
X198476190Y-153809523D01*
X198761904Y-153904761D01*
X198952380Y-153904761D01*
X199238095Y-153809523D01*
X199428571Y-153619047D01*
X199523809Y-153428571D01*
X199619047Y-153047619D01*
X199619047Y-152761904D01*
X199523809Y-152380952D01*
X199428571Y-152190476D01*
X199238095Y-152000000D01*
X198952380Y-151904761D01*
X198761904Y-151904761D01*
X198476190Y-152000000D01*
X198380952Y-152095238D01*
X196857142Y-152857142D02*
X196571428Y-152952380D01*
X196476190Y-153047619D01*
X196380952Y-153238095D01*
X196380952Y-153523809D01*
X196476190Y-153714285D01*
X196571428Y-153809523D01*
X196761904Y-153904761D01*
X197523809Y-153904761D01*
X197523809Y-151904761D01*
X196857142Y-151904761D01*
X196666666Y-152000000D01*
X196571428Y-152095238D01*
X196476190Y-152285714D01*
X196476190Y-152476190D01*
X196571428Y-152666666D01*
X196666666Y-152761904D01*
X196857142Y-152857142D01*
X197523809Y-152857142D01*
X218523809Y-153904761D02*
X218523809Y-151904761D01*
X217761904Y-151904761D01*
X217571428Y-152000000D01*
X217476190Y-152095238D01*
X217380952Y-152285714D01*
X217380952Y-152571428D01*
X217476190Y-152761904D01*
X217571428Y-152857142D01*
X217761904Y-152952380D01*
X218523809Y-152952380D01*
X215380952Y-153714285D02*
X215476190Y-153809523D01*
X215761904Y-153904761D01*
X215952380Y-153904761D01*
X216238095Y-153809523D01*
X216428571Y-153619047D01*
X216523809Y-153428571D01*
X216619047Y-153047619D01*
X216619047Y-152761904D01*
X216523809Y-152380952D01*
X216428571Y-152190476D01*
X216238095Y-152000000D01*
X215952380Y-151904761D01*
X215761904Y-151904761D01*
X215476190Y-152000000D01*
X215380952Y-152095238D01*
X213857142Y-152857142D02*
X213571428Y-152952380D01*
X213476190Y-153047619D01*
X213380952Y-153238095D01*
X213380952Y-153523809D01*
X213476190Y-153714285D01*
X213571428Y-153809523D01*
X213761904Y-153904761D01*
X214523809Y-153904761D01*
X214523809Y-151904761D01*
X213857142Y-151904761D01*
X213666666Y-152000000D01*
X213571428Y-152095238D01*
X213476190Y-152285714D01*
X213476190Y-152476190D01*
X213571428Y-152666666D01*
X213666666Y-152761904D01*
X213857142Y-152857142D01*
X214523809Y-152857142D01*
M02*
