%TF.GenerationSoftware,KiCad,Pcbnew,7.0.2*%
%TF.CreationDate,2024-02-09T22:37:23-05:00*%
%TF.ProjectId,Feeder-Panelized,46656564-6572-42d5-9061-6e656c697a65,rev?*%
%TF.SameCoordinates,Original*%
%TF.FileFunction,Soldermask,Bot*%
%TF.FilePolarity,Negative*%
%FSLAX46Y46*%
G04 Gerber Fmt 4.6, Leading zero omitted, Abs format (unit mm)*
G04 Created by KiCad (PCBNEW 7.0.2) date 2024-02-09 22:37:23*
%MOMM*%
%LPD*%
G01*
G04 APERTURE LIST*
%ADD10O,1.700000X4.000000*%
%ADD11R,1.800000X1.800000*%
%ADD12O,1.800000X1.800000*%
%ADD13R,1.700000X1.700000*%
%ADD14O,1.700000X1.700000*%
G04 APERTURE END LIST*
D10*
%TO.C,SW8*%
X176920000Y-102500000D03*
X187080000Y-102500000D03*
X182000000Y-102500000D03*
%TD*%
D11*
%TO.C,D26*%
X184000000Y-128000000D03*
D12*
X176380000Y-128000000D03*
%TD*%
D13*
%TO.C,J23*%
X159950000Y-137900000D03*
D14*
X162490000Y-138050000D03*
X165030000Y-137900000D03*
X167570000Y-138050000D03*
X170110000Y-137900000D03*
%TD*%
D10*
%TO.C,SW21*%
X142920000Y-162500000D03*
X153080000Y-162500000D03*
X148000000Y-162500000D03*
%TD*%
D13*
%TO.C,J37*%
X193950000Y-157900000D03*
D14*
X196490000Y-158050000D03*
X199030000Y-157900000D03*
X201570000Y-158050000D03*
X204110000Y-157900000D03*
%TD*%
D11*
%TO.C,D4*%
X167000000Y-88000000D03*
D12*
X159380000Y-88000000D03*
%TD*%
D10*
%TO.C,SW24*%
X193920000Y-162500000D03*
X204080000Y-162500000D03*
X199000000Y-162500000D03*
%TD*%
D13*
%TO.C,J8*%
X205000000Y-94580000D03*
D14*
X205000000Y-92040000D03*
X205000000Y-89500000D03*
X205000000Y-86960000D03*
%TD*%
D13*
%TO.C,J19*%
X210950000Y-117900000D03*
D14*
X213490000Y-118050000D03*
X216030000Y-117900000D03*
X218570000Y-118050000D03*
X221110000Y-117900000D03*
%TD*%
D13*
%TO.C,J6*%
X188000000Y-94580000D03*
D14*
X188000000Y-92040000D03*
X188000000Y-89500000D03*
X188000000Y-86960000D03*
%TD*%
D10*
%TO.C,SW22*%
X159920000Y-162500000D03*
X170080000Y-162500000D03*
X165000000Y-162500000D03*
%TD*%
D13*
%TO.C,J45*%
X176950000Y-177900000D03*
D14*
X179490000Y-178050000D03*
X182030000Y-177900000D03*
X184570000Y-178050000D03*
X187110000Y-177900000D03*
%TD*%
D13*
%TO.C,J42*%
X154000000Y-174580000D03*
D14*
X154000000Y-172040000D03*
X154000000Y-169500000D03*
X154000000Y-166960000D03*
%TD*%
D13*
%TO.C,J11*%
X142950000Y-117900000D03*
D14*
X145490000Y-118050000D03*
X148030000Y-117900000D03*
X150570000Y-118050000D03*
X153110000Y-117900000D03*
%TD*%
D13*
%TO.C,J33*%
X159950000Y-157900000D03*
D14*
X162490000Y-158050000D03*
X165030000Y-157900000D03*
X167570000Y-158050000D03*
X170110000Y-157900000D03*
%TD*%
D13*
%TO.C,J22*%
X154000000Y-134580000D03*
D14*
X154000000Y-132040000D03*
X154000000Y-129500000D03*
X154000000Y-126960000D03*
%TD*%
D10*
%TO.C,SW2*%
X159920000Y-82500000D03*
X170080000Y-82500000D03*
X165000000Y-82500000D03*
%TD*%
D13*
%TO.C,J39*%
X210950000Y-157900000D03*
D14*
X213490000Y-158050000D03*
X216030000Y-157900000D03*
X218570000Y-158050000D03*
X221110000Y-157900000D03*
%TD*%
D11*
%TO.C,D14*%
X167000000Y-108000000D03*
D12*
X159380000Y-108000000D03*
%TD*%
D10*
%TO.C,SW19*%
X193920000Y-142500000D03*
X204080000Y-142500000D03*
X199000000Y-142500000D03*
%TD*%
D13*
%TO.C,J9*%
X210950000Y-97900000D03*
D14*
X213490000Y-98050000D03*
X216030000Y-97900000D03*
X218570000Y-98050000D03*
X221110000Y-97900000D03*
%TD*%
D13*
%TO.C,J48*%
X205000000Y-174580000D03*
D14*
X205000000Y-172040000D03*
X205000000Y-169500000D03*
X205000000Y-166960000D03*
%TD*%
D11*
%TO.C,D16*%
X184000000Y-108000000D03*
D12*
X176380000Y-108000000D03*
%TD*%
D13*
%TO.C,J16*%
X188000000Y-114580000D03*
D14*
X188000000Y-112040000D03*
X188000000Y-109500000D03*
X188000000Y-106960000D03*
%TD*%
D13*
%TO.C,J35*%
X176950000Y-157900000D03*
D14*
X179490000Y-158050000D03*
X182030000Y-157900000D03*
X184570000Y-158050000D03*
X187110000Y-157900000D03*
%TD*%
D13*
%TO.C,J5*%
X171000000Y-94580000D03*
D14*
X171000000Y-92040000D03*
X171000000Y-89500000D03*
X171000000Y-86960000D03*
%TD*%
D13*
%TO.C,J24*%
X171000000Y-134580000D03*
D14*
X171000000Y-132040000D03*
X171000000Y-129500000D03*
X171000000Y-126960000D03*
%TD*%
D11*
%TO.C,D32*%
X150000000Y-148000000D03*
D12*
X142380000Y-148000000D03*
%TD*%
D11*
%TO.C,D24*%
X167000000Y-128000000D03*
D12*
X159380000Y-128000000D03*
%TD*%
D13*
%TO.C,J10*%
X222000000Y-94580000D03*
D14*
X222000000Y-92040000D03*
X222000000Y-89500000D03*
X222000000Y-86960000D03*
%TD*%
D11*
%TO.C,D46*%
X184000000Y-168000000D03*
D12*
X176380000Y-168000000D03*
%TD*%
D13*
%TO.C,J20*%
X222000000Y-114580000D03*
D14*
X222000000Y-112040000D03*
X222000000Y-109500000D03*
X222000000Y-106960000D03*
%TD*%
D11*
%TO.C,D2*%
X150000000Y-88000000D03*
D12*
X142380000Y-88000000D03*
%TD*%
D10*
%TO.C,SW16*%
X142920000Y-142500000D03*
X153080000Y-142500000D03*
X148000000Y-142500000D03*
%TD*%
D13*
%TO.C,J36*%
X188000000Y-154580000D03*
D14*
X188000000Y-152040000D03*
X188000000Y-149500000D03*
X188000000Y-146960000D03*
%TD*%
D11*
%TO.C,D10*%
X218000000Y-88000000D03*
D12*
X210380000Y-88000000D03*
%TD*%
D13*
%TO.C,J30*%
X222000000Y-134580000D03*
D14*
X222000000Y-132040000D03*
X222000000Y-129500000D03*
X222000000Y-126960000D03*
%TD*%
D10*
%TO.C,SW14*%
X193920000Y-122500000D03*
X204080000Y-122500000D03*
X199000000Y-122500000D03*
%TD*%
D11*
%TO.C,D48*%
X201000000Y-168000000D03*
D12*
X193380000Y-168000000D03*
%TD*%
D13*
%TO.C,J40*%
X222000000Y-154580000D03*
D14*
X222000000Y-152040000D03*
X222000000Y-149500000D03*
X222000000Y-146960000D03*
%TD*%
D13*
%TO.C,J43*%
X159950000Y-177900000D03*
D14*
X162490000Y-178050000D03*
X165030000Y-177900000D03*
X167570000Y-178050000D03*
X170110000Y-177900000D03*
%TD*%
D11*
%TO.C,D34*%
X167000000Y-148000000D03*
D12*
X159380000Y-148000000D03*
%TD*%
D13*
%TO.C,J46*%
X188000000Y-174580000D03*
D14*
X188000000Y-172040000D03*
X188000000Y-169500000D03*
X188000000Y-166960000D03*
%TD*%
D13*
%TO.C,J29*%
X210950000Y-137900000D03*
D14*
X213490000Y-138050000D03*
X216030000Y-137900000D03*
X218570000Y-138050000D03*
X221110000Y-137900000D03*
%TD*%
D11*
%TO.C,D40*%
X218000000Y-148000000D03*
D12*
X210380000Y-148000000D03*
%TD*%
D11*
%TO.C,D20*%
X218000000Y-108000000D03*
D12*
X210380000Y-108000000D03*
%TD*%
D10*
%TO.C,SW10*%
X210920000Y-102500000D03*
X221080000Y-102500000D03*
X216000000Y-102500000D03*
%TD*%
D11*
%TO.C,D28*%
X201000000Y-128000000D03*
D12*
X193380000Y-128000000D03*
%TD*%
D10*
%TO.C,SW6*%
X142920000Y-102500000D03*
X153080000Y-102500000D03*
X148000000Y-102500000D03*
%TD*%
%TO.C,SW25*%
X210920000Y-162500000D03*
X221080000Y-162500000D03*
X216000000Y-162500000D03*
%TD*%
%TO.C,SW1*%
X142920000Y-82500000D03*
X153080000Y-82500000D03*
X148000000Y-82500000D03*
%TD*%
%TO.C,SW3*%
X176920000Y-82500000D03*
X187080000Y-82500000D03*
X182000000Y-82500000D03*
%TD*%
D13*
%TO.C,J4*%
X154000000Y-94580000D03*
D14*
X154000000Y-92040000D03*
X154000000Y-89500000D03*
X154000000Y-86960000D03*
%TD*%
D10*
%TO.C,SW17*%
X159920000Y-142500000D03*
X170080000Y-142500000D03*
X165000000Y-142500000D03*
%TD*%
%TO.C,SW15*%
X210920000Y-122500000D03*
X221080000Y-122500000D03*
X216000000Y-122500000D03*
%TD*%
%TO.C,SW20*%
X210920000Y-142500000D03*
X221080000Y-142500000D03*
X216000000Y-142500000D03*
%TD*%
%TO.C,SW4*%
X193920000Y-82500000D03*
X204080000Y-82500000D03*
X199000000Y-82500000D03*
%TD*%
D11*
%TO.C,D42*%
X150000000Y-168000000D03*
D12*
X142380000Y-168000000D03*
%TD*%
D11*
%TO.C,D36*%
X184000000Y-148000000D03*
D12*
X176380000Y-148000000D03*
%TD*%
D11*
%TO.C,D30*%
X218000000Y-128000000D03*
D12*
X210380000Y-128000000D03*
%TD*%
D13*
%TO.C,J2*%
X159950000Y-97900000D03*
D14*
X162490000Y-98050000D03*
X165030000Y-97900000D03*
X167570000Y-98050000D03*
X170110000Y-97900000D03*
%TD*%
D13*
%TO.C,J49*%
X210950000Y-177900000D03*
D14*
X213490000Y-178050000D03*
X216030000Y-177900000D03*
X218570000Y-178050000D03*
X221110000Y-177900000D03*
%TD*%
D11*
%TO.C,D38*%
X201000000Y-148000000D03*
D12*
X193380000Y-148000000D03*
%TD*%
D10*
%TO.C,SW7*%
X159920000Y-102500000D03*
X170080000Y-102500000D03*
X165000000Y-102500000D03*
%TD*%
D13*
%TO.C,J38*%
X205000000Y-154580000D03*
D14*
X205000000Y-152040000D03*
X205000000Y-149500000D03*
X205000000Y-146960000D03*
%TD*%
D11*
%TO.C,D8*%
X201000000Y-88000000D03*
D12*
X193380000Y-88000000D03*
%TD*%
D13*
%TO.C,J47*%
X193950000Y-177900000D03*
D14*
X196490000Y-178050000D03*
X199030000Y-177900000D03*
X201570000Y-178050000D03*
X204110000Y-177900000D03*
%TD*%
D10*
%TO.C,SW5*%
X210920000Y-82500000D03*
X221080000Y-82500000D03*
X216000000Y-82500000D03*
%TD*%
D13*
%TO.C,J13*%
X159950000Y-117900000D03*
D14*
X162490000Y-118050000D03*
X165030000Y-117900000D03*
X167570000Y-118050000D03*
X170110000Y-117900000D03*
%TD*%
D13*
%TO.C,J27*%
X193950000Y-137900000D03*
D14*
X196490000Y-138050000D03*
X199030000Y-137900000D03*
X201570000Y-138050000D03*
X204110000Y-137900000D03*
%TD*%
D11*
%TO.C,D6*%
X184000000Y-88000000D03*
D12*
X176380000Y-88000000D03*
%TD*%
D13*
%TO.C,J15*%
X176950000Y-117900000D03*
D14*
X179490000Y-118050000D03*
X182030000Y-117900000D03*
X184570000Y-118050000D03*
X187110000Y-117900000D03*
%TD*%
D10*
%TO.C,SW9*%
X193920000Y-102500000D03*
X204080000Y-102500000D03*
X199000000Y-102500000D03*
%TD*%
%TO.C,SW11*%
X142920000Y-122500000D03*
X153080000Y-122500000D03*
X148000000Y-122500000D03*
%TD*%
D13*
%TO.C,J1*%
X142950000Y-97900000D03*
D14*
X145490000Y-98050000D03*
X148030000Y-97900000D03*
X150570000Y-98050000D03*
X153110000Y-97900000D03*
%TD*%
D11*
%TO.C,D44*%
X167000000Y-168000000D03*
D12*
X159380000Y-168000000D03*
%TD*%
D13*
%TO.C,J44*%
X171000000Y-174580000D03*
D14*
X171000000Y-172040000D03*
X171000000Y-169500000D03*
X171000000Y-166960000D03*
%TD*%
D13*
%TO.C,J7*%
X193950000Y-97900000D03*
D14*
X196490000Y-98050000D03*
X199030000Y-97900000D03*
X201570000Y-98050000D03*
X204110000Y-97900000D03*
%TD*%
D13*
%TO.C,J32*%
X154000000Y-154580000D03*
D14*
X154000000Y-152040000D03*
X154000000Y-149500000D03*
X154000000Y-146960000D03*
%TD*%
D13*
%TO.C,J34*%
X171000000Y-154580000D03*
D14*
X171000000Y-152040000D03*
X171000000Y-149500000D03*
X171000000Y-146960000D03*
%TD*%
D11*
%TO.C,D18*%
X201000000Y-108000000D03*
D12*
X193380000Y-108000000D03*
%TD*%
D13*
%TO.C,J18*%
X205000000Y-114580000D03*
D14*
X205000000Y-112040000D03*
X205000000Y-109500000D03*
X205000000Y-106960000D03*
%TD*%
D11*
%TO.C,D50*%
X218000000Y-168000000D03*
D12*
X210380000Y-168000000D03*
%TD*%
D13*
%TO.C,J25*%
X176950000Y-137900000D03*
D14*
X179490000Y-138050000D03*
X182030000Y-137900000D03*
X184570000Y-138050000D03*
X187110000Y-137900000D03*
%TD*%
D10*
%TO.C,SW18*%
X176920000Y-142500000D03*
X187080000Y-142500000D03*
X182000000Y-142500000D03*
%TD*%
D13*
%TO.C,J12*%
X154000000Y-114580000D03*
D14*
X154000000Y-112040000D03*
X154000000Y-109500000D03*
X154000000Y-106960000D03*
%TD*%
D11*
%TO.C,D22*%
X150000000Y-128000000D03*
D12*
X142380000Y-128000000D03*
%TD*%
D13*
%TO.C,J31*%
X142950000Y-157900000D03*
D14*
X145490000Y-158050000D03*
X148030000Y-157900000D03*
X150570000Y-158050000D03*
X153110000Y-157900000D03*
%TD*%
D13*
%TO.C,J28*%
X205000000Y-134580000D03*
D14*
X205000000Y-132040000D03*
X205000000Y-129500000D03*
X205000000Y-126960000D03*
%TD*%
D13*
%TO.C,J41*%
X142950000Y-177900000D03*
D14*
X145490000Y-178050000D03*
X148030000Y-177900000D03*
X150570000Y-178050000D03*
X153110000Y-177900000D03*
%TD*%
D13*
%TO.C,J3*%
X176950000Y-97900000D03*
D14*
X179490000Y-98050000D03*
X182030000Y-97900000D03*
X184570000Y-98050000D03*
X187110000Y-97900000D03*
%TD*%
D13*
%TO.C,J21*%
X142950000Y-137900000D03*
D14*
X145490000Y-138050000D03*
X148030000Y-137900000D03*
X150570000Y-138050000D03*
X153110000Y-137900000D03*
%TD*%
D10*
%TO.C,SW13*%
X176920000Y-122500000D03*
X187080000Y-122500000D03*
X182000000Y-122500000D03*
%TD*%
%TO.C,SW23*%
X176920000Y-162500000D03*
X187080000Y-162500000D03*
X182000000Y-162500000D03*
%TD*%
D11*
%TO.C,D12*%
X150000000Y-108000000D03*
D12*
X142380000Y-108000000D03*
%TD*%
D13*
%TO.C,J17*%
X193950000Y-117900000D03*
D14*
X196490000Y-118050000D03*
X199030000Y-117900000D03*
X201570000Y-118050000D03*
X204110000Y-117900000D03*
%TD*%
D13*
%TO.C,J26*%
X188000000Y-134580000D03*
D14*
X188000000Y-132040000D03*
X188000000Y-129500000D03*
X188000000Y-126960000D03*
%TD*%
D10*
%TO.C,SW12*%
X159920000Y-122500000D03*
X170080000Y-122500000D03*
X165000000Y-122500000D03*
%TD*%
D13*
%TO.C,J14*%
X171000000Y-114580000D03*
D14*
X171000000Y-112040000D03*
X171000000Y-109500000D03*
X171000000Y-106960000D03*
%TD*%
D13*
%TO.C,J50*%
X222000000Y-174580000D03*
D14*
X222000000Y-172040000D03*
X222000000Y-169500000D03*
X222000000Y-166960000D03*
%TD*%
M02*
