M48
; DRILL file {KiCad 7.0.2} date Fri Feb  9 22:37:31 2024
; FORMAT={-:-/ absolute / metric / decimal}
; #@! TF.CreationDate,2024-02-09T22:37:31-05:00
; #@! TF.GenerationSoftware,Kicad,Pcbnew,7.0.2
; #@! TF.FileFunction,Plated,1,2,PTH
FMAT,2
METRIC
; #@! TA.AperFunction,Plated,PTH,ViaDrill
T1C0.400
; #@! TA.AperFunction,Plated,PTH,ComponentDrill
T2C0.900
; #@! TA.AperFunction,Plated,PTH,ComponentDrill
T3C1.000
%
G90
G05
T1
X149.5Y-94.0
X149.5Y-114.0
X149.5Y-134.0
X149.5Y-154.0
X149.5Y-174.0
X166.5Y-94.0
X166.5Y-114.0
X166.5Y-134.0
X166.5Y-154.0
X166.5Y-174.0
X183.5Y-94.0
X183.5Y-114.0
X183.5Y-134.0
X183.5Y-154.0
X183.5Y-174.0
X200.5Y-94.0
X200.5Y-114.0
X200.5Y-134.0
X200.5Y-154.0
X200.5Y-174.0
X217.5Y-94.0
X217.5Y-114.0
X217.5Y-134.0
X217.5Y-154.0
X217.5Y-174.0
T2
X142.38Y-88.0
X142.38Y-108.0
X142.38Y-128.0
X142.38Y-148.0
X142.38Y-168.0
X150.0Y-88.0
X150.0Y-108.0
X150.0Y-128.0
X150.0Y-148.0
X150.0Y-168.0
X159.38Y-88.0
X159.38Y-108.0
X159.38Y-128.0
X159.38Y-148.0
X159.38Y-168.0
X167.0Y-88.0
X167.0Y-108.0
X167.0Y-128.0
X167.0Y-148.0
X167.0Y-168.0
X176.38Y-88.0
X176.38Y-108.0
X176.38Y-128.0
X176.38Y-148.0
X176.38Y-168.0
X184.0Y-88.0
X184.0Y-108.0
X184.0Y-128.0
X184.0Y-148.0
X184.0Y-168.0
X193.38Y-88.0
X193.38Y-108.0
X193.38Y-128.0
X193.38Y-148.0
X193.38Y-168.0
X201.0Y-88.0
X201.0Y-108.0
X201.0Y-128.0
X201.0Y-148.0
X201.0Y-168.0
X210.38Y-88.0
X210.38Y-108.0
X210.38Y-128.0
X210.38Y-148.0
X210.38Y-168.0
X218.0Y-88.0
X218.0Y-108.0
X218.0Y-128.0
X218.0Y-148.0
X218.0Y-168.0
T3
X142.92Y-83.5
X142.92Y-103.5
X142.92Y-123.5
X142.92Y-143.5
X142.92Y-163.5
X142.95Y-97.9
X142.95Y-117.9
X142.95Y-137.9
X142.95Y-157.9
X142.95Y-177.9
X145.49Y-98.05
X145.49Y-118.05
X145.49Y-138.05
X145.49Y-158.05
X145.49Y-178.05
X148.0Y-83.5
X148.0Y-103.5
X148.0Y-123.5
X148.0Y-143.5
X148.0Y-163.5
X148.03Y-97.9
X148.03Y-117.9
X148.03Y-137.9
X148.03Y-157.9
X148.03Y-177.9
X150.57Y-98.05
X150.57Y-118.05
X150.57Y-138.05
X150.57Y-158.05
X150.57Y-178.05
X153.08Y-83.5
X153.08Y-103.5
X153.08Y-123.5
X153.08Y-143.5
X153.08Y-163.5
X153.11Y-97.9
X153.11Y-117.9
X153.11Y-137.9
X153.11Y-157.9
X153.11Y-177.9
X154.0Y-86.96
X154.0Y-89.5
X154.0Y-92.04
X154.0Y-94.58
X154.0Y-106.96
X154.0Y-109.5
X154.0Y-112.04
X154.0Y-114.58
X154.0Y-126.96
X154.0Y-129.5
X154.0Y-132.04
X154.0Y-134.58
X154.0Y-146.96
X154.0Y-149.5
X154.0Y-152.04
X154.0Y-154.58
X154.0Y-166.96
X154.0Y-169.5
X154.0Y-172.04
X154.0Y-174.58
X159.92Y-83.5
X159.92Y-103.5
X159.92Y-123.5
X159.92Y-143.5
X159.92Y-163.5
X159.95Y-97.9
X159.95Y-117.9
X159.95Y-137.9
X159.95Y-157.9
X159.95Y-177.9
X162.49Y-98.05
X162.49Y-118.05
X162.49Y-138.05
X162.49Y-158.05
X162.49Y-178.05
X165.0Y-83.5
X165.0Y-103.5
X165.0Y-123.5
X165.0Y-143.5
X165.0Y-163.5
X165.03Y-97.9
X165.03Y-117.9
X165.03Y-137.9
X165.03Y-157.9
X165.03Y-177.9
X167.57Y-98.05
X167.57Y-118.05
X167.57Y-138.05
X167.57Y-158.05
X167.57Y-178.05
X170.08Y-83.5
X170.08Y-103.5
X170.08Y-123.5
X170.08Y-143.5
X170.08Y-163.5
X170.11Y-97.9
X170.11Y-117.9
X170.11Y-137.9
X170.11Y-157.9
X170.11Y-177.9
X171.0Y-86.96
X171.0Y-89.5
X171.0Y-92.04
X171.0Y-94.58
X171.0Y-106.96
X171.0Y-109.5
X171.0Y-112.04
X171.0Y-114.58
X171.0Y-126.96
X171.0Y-129.5
X171.0Y-132.04
X171.0Y-134.58
X171.0Y-146.96
X171.0Y-149.5
X171.0Y-152.04
X171.0Y-154.58
X171.0Y-166.96
X171.0Y-169.5
X171.0Y-172.04
X171.0Y-174.58
X176.92Y-83.5
X176.92Y-103.5
X176.92Y-123.5
X176.92Y-143.5
X176.92Y-163.5
X176.95Y-97.9
X176.95Y-117.9
X176.95Y-137.9
X176.95Y-157.9
X176.95Y-177.9
X179.49Y-98.05
X179.49Y-118.05
X179.49Y-138.05
X179.49Y-158.05
X179.49Y-178.05
X182.0Y-83.5
X182.0Y-103.5
X182.0Y-123.5
X182.0Y-143.5
X182.0Y-163.5
X182.03Y-97.9
X182.03Y-117.9
X182.03Y-137.9
X182.03Y-157.9
X182.03Y-177.9
X184.57Y-98.05
X184.57Y-118.05
X184.57Y-138.05
X184.57Y-158.05
X184.57Y-178.05
X187.08Y-83.5
X187.08Y-103.5
X187.08Y-123.5
X187.08Y-143.5
X187.08Y-163.5
X187.11Y-97.9
X187.11Y-117.9
X187.11Y-137.9
X187.11Y-157.9
X187.11Y-177.9
X188.0Y-86.96
X188.0Y-89.5
X188.0Y-92.04
X188.0Y-94.58
X188.0Y-106.96
X188.0Y-109.5
X188.0Y-112.04
X188.0Y-114.58
X188.0Y-126.96
X188.0Y-129.5
X188.0Y-132.04
X188.0Y-134.58
X188.0Y-146.96
X188.0Y-149.5
X188.0Y-152.04
X188.0Y-154.58
X188.0Y-166.96
X188.0Y-169.5
X188.0Y-172.04
X188.0Y-174.58
X193.92Y-83.5
X193.92Y-103.5
X193.92Y-123.5
X193.92Y-143.5
X193.92Y-163.5
X193.95Y-97.9
X193.95Y-117.9
X193.95Y-137.9
X193.95Y-157.9
X193.95Y-177.9
X196.49Y-98.05
X196.49Y-118.05
X196.49Y-138.05
X196.49Y-158.05
X196.49Y-178.05
X199.0Y-83.5
X199.0Y-103.5
X199.0Y-123.5
X199.0Y-143.5
X199.0Y-163.5
X199.03Y-97.9
X199.03Y-117.9
X199.03Y-137.9
X199.03Y-157.9
X199.03Y-177.9
X201.57Y-98.05
X201.57Y-118.05
X201.57Y-138.05
X201.57Y-158.05
X201.57Y-178.05
X204.08Y-83.5
X204.08Y-103.5
X204.08Y-123.5
X204.08Y-143.5
X204.08Y-163.5
X204.11Y-97.9
X204.11Y-117.9
X204.11Y-137.9
X204.11Y-157.9
X204.11Y-177.9
X205.0Y-86.96
X205.0Y-89.5
X205.0Y-92.04
X205.0Y-94.58
X205.0Y-106.96
X205.0Y-109.5
X205.0Y-112.04
X205.0Y-114.58
X205.0Y-126.96
X205.0Y-129.5
X205.0Y-132.04
X205.0Y-134.58
X205.0Y-146.96
X205.0Y-149.5
X205.0Y-152.04
X205.0Y-154.58
X205.0Y-166.96
X205.0Y-169.5
X205.0Y-172.04
X205.0Y-174.58
X210.92Y-83.5
X210.92Y-103.5
X210.92Y-123.5
X210.92Y-143.5
X210.92Y-163.5
X210.95Y-97.9
X210.95Y-117.9
X210.95Y-137.9
X210.95Y-157.9
X210.95Y-177.9
X213.49Y-98.05
X213.49Y-118.05
X213.49Y-138.05
X213.49Y-158.05
X213.49Y-178.05
X216.0Y-83.5
X216.0Y-103.5
X216.0Y-123.5
X216.0Y-143.5
X216.0Y-163.5
X216.03Y-97.9
X216.03Y-117.9
X216.03Y-137.9
X216.03Y-157.9
X216.03Y-177.9
X218.57Y-98.05
X218.57Y-118.05
X218.57Y-138.05
X218.57Y-158.05
X218.57Y-178.05
X221.08Y-83.5
X221.08Y-103.5
X221.08Y-123.5
X221.08Y-143.5
X221.08Y-163.5
X221.11Y-97.9
X221.11Y-117.9
X221.11Y-137.9
X221.11Y-157.9
X221.11Y-177.9
X222.0Y-86.96
X222.0Y-89.5
X222.0Y-92.04
X222.0Y-94.58
X222.0Y-106.96
X222.0Y-109.5
X222.0Y-112.04
X222.0Y-114.58
X222.0Y-126.96
X222.0Y-129.5
X222.0Y-132.04
X222.0Y-134.58
X222.0Y-146.96
X222.0Y-149.5
X222.0Y-152.04
X222.0Y-154.58
X222.0Y-166.96
X222.0Y-169.5
X222.0Y-172.04
X222.0Y-174.58
T0
M30
