%TF.GenerationSoftware,KiCad,Pcbnew,(6.0.5)*%
%TF.CreationDate,2022-07-11T22:22:59-04:00*%
%TF.ProjectId,MAXFeederShield,4d415846-6565-4646-9572-536869656c64,rev?*%
%TF.SameCoordinates,Original*%
%TF.FileFunction,Legend,Top*%
%TF.FilePolarity,Positive*%
%FSLAX46Y46*%
G04 Gerber Fmt 4.6, Leading zero omitted, Abs format (unit mm)*
G04 Created by KiCad (PCBNEW (6.0.5)) date 2022-07-11 22:22:59*
%MOMM*%
%LPD*%
G01*
G04 APERTURE LIST*
%ADD10C,0.250000*%
%ADD11C,0.500000*%
%ADD12C,0.400000*%
%ADD13C,0.150000*%
%ADD14C,0.120000*%
%ADD15C,0.010000*%
G04 APERTURE END LIST*
D10*
X84452380Y-91027976D02*
X83976190Y-91361309D01*
X84452380Y-91599404D02*
X83452380Y-91599404D01*
X83452380Y-91218452D01*
X83500000Y-91123214D01*
X83547619Y-91075595D01*
X83642857Y-91027976D01*
X83785714Y-91027976D01*
X83880952Y-91075595D01*
X83928571Y-91123214D01*
X83976190Y-91218452D01*
X83976190Y-91599404D01*
X83928571Y-90599404D02*
X83928571Y-90266071D01*
X84452380Y-90123214D02*
X84452380Y-90599404D01*
X83452380Y-90599404D01*
X83452380Y-90123214D01*
X84404761Y-89742261D02*
X84452380Y-89599404D01*
X84452380Y-89361309D01*
X84404761Y-89266071D01*
X84357142Y-89218452D01*
X84261904Y-89170833D01*
X84166666Y-89170833D01*
X84071428Y-89218452D01*
X84023809Y-89266071D01*
X83976190Y-89361309D01*
X83928571Y-89551785D01*
X83880952Y-89647023D01*
X83833333Y-89694642D01*
X83738095Y-89742261D01*
X83642857Y-89742261D01*
X83547619Y-89694642D01*
X83500000Y-89647023D01*
X83452380Y-89551785D01*
X83452380Y-89313690D01*
X83500000Y-89170833D01*
X83928571Y-88742261D02*
X83928571Y-88408928D01*
X84452380Y-88266071D02*
X84452380Y-88742261D01*
X83452380Y-88742261D01*
X83452380Y-88266071D01*
X83452380Y-87980357D02*
X83452380Y-87408928D01*
X84452380Y-87694642D02*
X83452380Y-87694642D01*
D11*
X86904761Y-90595238D02*
X86904761Y-90404761D01*
X87000000Y-90214285D01*
X87095238Y-90119047D01*
X87285714Y-90023809D01*
X87666666Y-89928571D01*
X88142857Y-89928571D01*
X88523809Y-90023809D01*
X88714285Y-90119047D01*
X88809523Y-90214285D01*
X88904761Y-90404761D01*
X88904761Y-90595238D01*
X88809523Y-90785714D01*
X88714285Y-90880952D01*
X88523809Y-90976190D01*
X88142857Y-91071428D01*
X87666666Y-91071428D01*
X87285714Y-90976190D01*
X87095238Y-90880952D01*
X87000000Y-90785714D01*
X86904761Y-90595238D01*
D10*
X140815476Y-46809523D02*
X140815476Y-46190476D01*
X141291666Y-46523809D01*
X141291666Y-46380952D01*
X141351190Y-46285714D01*
X141410714Y-46238095D01*
X141529761Y-46190476D01*
X141827380Y-46190476D01*
X141946428Y-46238095D01*
X142005952Y-46285714D01*
X142065476Y-46380952D01*
X142065476Y-46666666D01*
X142005952Y-46761904D01*
X141946428Y-46809523D01*
X140815476Y-45571428D02*
X140815476Y-45476190D01*
X140875000Y-45380952D01*
X140934523Y-45333333D01*
X141053571Y-45285714D01*
X141291666Y-45238095D01*
X141589285Y-45238095D01*
X141827380Y-45285714D01*
X141946428Y-45333333D01*
X142005952Y-45380952D01*
X142065476Y-45476190D01*
X142065476Y-45571428D01*
X142005952Y-45666666D01*
X141946428Y-45714285D01*
X141827380Y-45761904D01*
X141589285Y-45809523D01*
X141291666Y-45809523D01*
X141053571Y-45761904D01*
X140934523Y-45714285D01*
X140875000Y-45666666D01*
X140815476Y-45571428D01*
X127934523Y-46761904D02*
X127875000Y-46714285D01*
X127815476Y-46619047D01*
X127815476Y-46380952D01*
X127875000Y-46285714D01*
X127934523Y-46238095D01*
X128053571Y-46190476D01*
X128172619Y-46190476D01*
X128351190Y-46238095D01*
X129065476Y-46809523D01*
X129065476Y-46190476D01*
X128351190Y-45619047D02*
X128291666Y-45714285D01*
X128232142Y-45761904D01*
X128113095Y-45809523D01*
X128053571Y-45809523D01*
X127934523Y-45761904D01*
X127875000Y-45714285D01*
X127815476Y-45619047D01*
X127815476Y-45428571D01*
X127875000Y-45333333D01*
X127934523Y-45285714D01*
X128053571Y-45238095D01*
X128113095Y-45238095D01*
X128232142Y-45285714D01*
X128291666Y-45333333D01*
X128351190Y-45428571D01*
X128351190Y-45619047D01*
X128410714Y-45714285D01*
X128470238Y-45761904D01*
X128589285Y-45809523D01*
X128827380Y-45809523D01*
X128946428Y-45761904D01*
X129005952Y-45714285D01*
X129065476Y-45619047D01*
X129065476Y-45428571D01*
X129005952Y-45333333D01*
X128946428Y-45285714D01*
X128827380Y-45238095D01*
X128589285Y-45238095D01*
X128470238Y-45285714D01*
X128410714Y-45333333D01*
X128351190Y-45428571D01*
X134315476Y-90416666D02*
X134315476Y-89583333D01*
X135565476Y-90119047D01*
X148565476Y-90238095D02*
X148565476Y-90000000D01*
X148505952Y-89880952D01*
X148446428Y-89821428D01*
X148267857Y-89702380D01*
X148029761Y-89642857D01*
X147553571Y-89642857D01*
X147434523Y-89702380D01*
X147375000Y-89761904D01*
X147315476Y-89880952D01*
X147315476Y-90119047D01*
X147375000Y-90238095D01*
X147434523Y-90297619D01*
X147553571Y-90357142D01*
X147851190Y-90357142D01*
X147970238Y-90297619D01*
X148029761Y-90238095D01*
X148089285Y-90119047D01*
X148089285Y-89880952D01*
X148029761Y-89761904D01*
X147970238Y-89702380D01*
X147851190Y-89642857D01*
X88934523Y-46761904D02*
X88875000Y-46714285D01*
X88815476Y-46619047D01*
X88815476Y-46380952D01*
X88875000Y-46285714D01*
X88934523Y-46238095D01*
X89053571Y-46190476D01*
X89172619Y-46190476D01*
X89351190Y-46238095D01*
X90065476Y-46809523D01*
X90065476Y-46190476D01*
X88934523Y-45809523D02*
X88875000Y-45761904D01*
X88815476Y-45666666D01*
X88815476Y-45428571D01*
X88875000Y-45333333D01*
X88934523Y-45285714D01*
X89053571Y-45238095D01*
X89172619Y-45238095D01*
X89351190Y-45285714D01*
X90065476Y-45857142D01*
X90065476Y-45238095D01*
X78452380Y-71690476D02*
X78452380Y-72166666D01*
X78928571Y-72214285D01*
X78880952Y-72166666D01*
X78833333Y-72071428D01*
X78833333Y-71833333D01*
X78880952Y-71738095D01*
X78928571Y-71690476D01*
X79023809Y-71642857D01*
X79261904Y-71642857D01*
X79357142Y-71690476D01*
X79404761Y-71738095D01*
X79452380Y-71833333D01*
X79452380Y-72071428D01*
X79404761Y-72166666D01*
X79357142Y-72214285D01*
X78452380Y-71357142D02*
X79452380Y-71023809D01*
X78452380Y-70690476D01*
X114934523Y-46761904D02*
X114875000Y-46714285D01*
X114815476Y-46619047D01*
X114815476Y-46380952D01*
X114875000Y-46285714D01*
X114934523Y-46238095D01*
X115053571Y-46190476D01*
X115172619Y-46190476D01*
X115351190Y-46238095D01*
X116065476Y-46809523D01*
X116065476Y-46190476D01*
X114815476Y-45333333D02*
X114815476Y-45523809D01*
X114875000Y-45619047D01*
X114934523Y-45666666D01*
X115113095Y-45761904D01*
X115351190Y-45809523D01*
X115827380Y-45809523D01*
X115946428Y-45761904D01*
X116005952Y-45714285D01*
X116065476Y-45619047D01*
X116065476Y-45428571D01*
X116005952Y-45333333D01*
X115946428Y-45285714D01*
X115827380Y-45238095D01*
X115529761Y-45238095D01*
X115410714Y-45285714D01*
X115351190Y-45333333D01*
X115291666Y-45428571D01*
X115291666Y-45619047D01*
X115351190Y-45714285D01*
X115410714Y-45761904D01*
X115529761Y-45809523D01*
X78738095Y-63500000D02*
X78642857Y-63452380D01*
X78500000Y-63452380D01*
X78357142Y-63500000D01*
X78261904Y-63595238D01*
X78214285Y-63690476D01*
X78166666Y-63880952D01*
X78166666Y-64023809D01*
X78214285Y-64214285D01*
X78261904Y-64309523D01*
X78357142Y-64404761D01*
X78500000Y-64452380D01*
X78595238Y-64452380D01*
X78738095Y-64404761D01*
X78785714Y-64357142D01*
X78785714Y-64023809D01*
X78595238Y-64023809D01*
X79214285Y-64452380D02*
X79214285Y-63452380D01*
X79785714Y-64452380D01*
X79785714Y-63452380D01*
X80261904Y-64452380D02*
X80261904Y-63452380D01*
X80500000Y-63452380D01*
X80642857Y-63500000D01*
X80738095Y-63595238D01*
X80785714Y-63690476D01*
X80833333Y-63880952D01*
X80833333Y-64023809D01*
X80785714Y-64214285D01*
X80738095Y-64309523D01*
X80642857Y-64404761D01*
X80500000Y-64452380D01*
X80261904Y-64452380D01*
X101934523Y-46761904D02*
X101875000Y-46714285D01*
X101815476Y-46619047D01*
X101815476Y-46380952D01*
X101875000Y-46285714D01*
X101934523Y-46238095D01*
X102053571Y-46190476D01*
X102172619Y-46190476D01*
X102351190Y-46238095D01*
X103065476Y-46809523D01*
X103065476Y-46190476D01*
X102232142Y-45333333D02*
X103065476Y-45333333D01*
X101755952Y-45571428D02*
X102648809Y-45809523D01*
X102648809Y-45190476D01*
X108315476Y-90416666D02*
X108315476Y-89642857D01*
X108791666Y-90059523D01*
X108791666Y-89880952D01*
X108851190Y-89761904D01*
X108910714Y-89702380D01*
X109029761Y-89642857D01*
X109327380Y-89642857D01*
X109446428Y-89702380D01*
X109505952Y-89761904D01*
X109565476Y-89880952D01*
X109565476Y-90238095D01*
X109505952Y-90357142D01*
X109446428Y-90416666D01*
X96565476Y-89642857D02*
X96565476Y-90357142D01*
X96565476Y-90000000D02*
X95315476Y-90000000D01*
X95494047Y-90119047D01*
X95613095Y-90238095D01*
X95672619Y-90357142D01*
X115232142Y-89761904D02*
X116065476Y-89761904D01*
X114755952Y-90059523D02*
X115648809Y-90357142D01*
X115648809Y-89583333D01*
X161565476Y-90190476D02*
X161565476Y-90761904D01*
X161565476Y-90476190D02*
X160315476Y-90476190D01*
X160494047Y-90571428D01*
X160613095Y-90666666D01*
X160672619Y-90761904D01*
X161565476Y-89238095D02*
X161565476Y-89809523D01*
X161565476Y-89523809D02*
X160315476Y-89523809D01*
X160494047Y-89619047D01*
X160613095Y-89714285D01*
X160672619Y-89809523D01*
X108434523Y-46761904D02*
X108375000Y-46714285D01*
X108315476Y-46619047D01*
X108315476Y-46380952D01*
X108375000Y-46285714D01*
X108434523Y-46238095D01*
X108553571Y-46190476D01*
X108672619Y-46190476D01*
X108851190Y-46238095D01*
X109565476Y-46809523D01*
X109565476Y-46190476D01*
X108315476Y-45285714D02*
X108315476Y-45761904D01*
X108910714Y-45809523D01*
X108851190Y-45761904D01*
X108791666Y-45666666D01*
X108791666Y-45428571D01*
X108851190Y-45333333D01*
X108910714Y-45285714D01*
X109029761Y-45238095D01*
X109327380Y-45238095D01*
X109446428Y-45285714D01*
X109505952Y-45333333D01*
X109565476Y-45428571D01*
X109565476Y-45666666D01*
X109505952Y-45761904D01*
X109446428Y-45809523D01*
X141351190Y-90119047D02*
X141291666Y-90238095D01*
X141232142Y-90297619D01*
X141113095Y-90357142D01*
X141053571Y-90357142D01*
X140934523Y-90297619D01*
X140875000Y-90238095D01*
X140815476Y-90119047D01*
X140815476Y-89880952D01*
X140875000Y-89761904D01*
X140934523Y-89702380D01*
X141053571Y-89642857D01*
X141113095Y-89642857D01*
X141232142Y-89702380D01*
X141291666Y-89761904D01*
X141351190Y-89880952D01*
X141351190Y-90119047D01*
X141410714Y-90238095D01*
X141470238Y-90297619D01*
X141589285Y-90357142D01*
X141827380Y-90357142D01*
X141946428Y-90297619D01*
X142005952Y-90238095D01*
X142065476Y-90119047D01*
X142065476Y-89880952D01*
X142005952Y-89761904D01*
X141946428Y-89702380D01*
X141827380Y-89642857D01*
X141589285Y-89642857D01*
X141470238Y-89702380D01*
X141410714Y-89761904D01*
X141351190Y-89880952D01*
X86065476Y-68190476D02*
X86065476Y-68761904D01*
X86065476Y-68476190D02*
X84815476Y-68476190D01*
X84994047Y-68571428D01*
X85113095Y-68666666D01*
X85172619Y-68761904D01*
X84934523Y-67809523D02*
X84875000Y-67761904D01*
X84815476Y-67666666D01*
X84815476Y-67428571D01*
X84875000Y-67333333D01*
X84934523Y-67285714D01*
X85053571Y-67238095D01*
X85172619Y-67238095D01*
X85351190Y-67285714D01*
X86065476Y-67857142D01*
X86065476Y-67238095D01*
X83452380Y-74690476D02*
X83452380Y-75166666D01*
X83928571Y-75214285D01*
X83880952Y-75166666D01*
X83833333Y-75071428D01*
X83833333Y-74833333D01*
X83880952Y-74738095D01*
X83928571Y-74690476D01*
X84023809Y-74642857D01*
X84261904Y-74642857D01*
X84357142Y-74690476D01*
X84404761Y-74738095D01*
X84452380Y-74833333D01*
X84452380Y-75071428D01*
X84404761Y-75166666D01*
X84357142Y-75214285D01*
X83452380Y-74357142D02*
X84452380Y-74023809D01*
X83452380Y-73690476D01*
X147315476Y-46809523D02*
X147315476Y-46190476D01*
X147791666Y-46523809D01*
X147791666Y-46380952D01*
X147851190Y-46285714D01*
X147910714Y-46238095D01*
X148029761Y-46190476D01*
X148327380Y-46190476D01*
X148446428Y-46238095D01*
X148505952Y-46285714D01*
X148565476Y-46380952D01*
X148565476Y-46666666D01*
X148505952Y-46761904D01*
X148446428Y-46809523D01*
X148565476Y-45238095D02*
X148565476Y-45809523D01*
X148565476Y-45523809D02*
X147315476Y-45523809D01*
X147494047Y-45619047D01*
X147613095Y-45714285D01*
X147672619Y-45809523D01*
X164434523Y-68761904D02*
X164375000Y-68714285D01*
X164315476Y-68619047D01*
X164315476Y-68380952D01*
X164375000Y-68285714D01*
X164434523Y-68238095D01*
X164553571Y-68190476D01*
X164672619Y-68190476D01*
X164851190Y-68238095D01*
X165565476Y-68809523D01*
X165565476Y-68190476D01*
X165565476Y-67238095D02*
X165565476Y-67809523D01*
X165565476Y-67523809D02*
X164315476Y-67523809D01*
X164494047Y-67619047D01*
X164613095Y-67714285D01*
X164672619Y-67809523D01*
X155065476Y-90190476D02*
X155065476Y-90761904D01*
X155065476Y-90476190D02*
X153815476Y-90476190D01*
X153994047Y-90571428D01*
X154113095Y-90666666D01*
X154172619Y-90761904D01*
X153815476Y-89571428D02*
X153815476Y-89476190D01*
X153875000Y-89380952D01*
X153934523Y-89333333D01*
X154053571Y-89285714D01*
X154291666Y-89238095D01*
X154589285Y-89238095D01*
X154827380Y-89285714D01*
X154946428Y-89333333D01*
X155005952Y-89380952D01*
X155065476Y-89476190D01*
X155065476Y-89571428D01*
X155005952Y-89666666D01*
X154946428Y-89714285D01*
X154827380Y-89761904D01*
X154589285Y-89809523D01*
X154291666Y-89809523D01*
X154053571Y-89761904D01*
X153934523Y-89714285D01*
X153875000Y-89666666D01*
X153815476Y-89571428D01*
X127815476Y-89761904D02*
X127815476Y-90000000D01*
X127875000Y-90119047D01*
X127934523Y-90178571D01*
X128113095Y-90297619D01*
X128351190Y-90357142D01*
X128827380Y-90357142D01*
X128946428Y-90297619D01*
X129005952Y-90238095D01*
X129065476Y-90119047D01*
X129065476Y-89880952D01*
X129005952Y-89761904D01*
X128946428Y-89702380D01*
X128827380Y-89642857D01*
X128529761Y-89642857D01*
X128410714Y-89702380D01*
X128351190Y-89761904D01*
X128291666Y-89880952D01*
X128291666Y-90119047D01*
X128351190Y-90238095D01*
X128410714Y-90297619D01*
X128529761Y-90357142D01*
X144065476Y-68190476D02*
X144065476Y-68761904D01*
X144065476Y-68476190D02*
X142815476Y-68476190D01*
X142994047Y-68571428D01*
X143113095Y-68666666D01*
X143172619Y-68761904D01*
X144065476Y-67714285D02*
X144065476Y-67523809D01*
X144005952Y-67428571D01*
X143946428Y-67380952D01*
X143767857Y-67285714D01*
X143529761Y-67238095D01*
X143053571Y-67238095D01*
X142934523Y-67285714D01*
X142875000Y-67333333D01*
X142815476Y-67428571D01*
X142815476Y-67619047D01*
X142875000Y-67714285D01*
X142934523Y-67761904D01*
X143053571Y-67809523D01*
X143351190Y-67809523D01*
X143470238Y-67761904D01*
X143529761Y-67714285D01*
X143589285Y-67619047D01*
X143589285Y-67428571D01*
X143529761Y-67333333D01*
X143470238Y-67285714D01*
X143351190Y-67238095D01*
X121434523Y-46761904D02*
X121375000Y-46714285D01*
X121315476Y-46619047D01*
X121315476Y-46380952D01*
X121375000Y-46285714D01*
X121434523Y-46238095D01*
X121553571Y-46190476D01*
X121672619Y-46190476D01*
X121851190Y-46238095D01*
X122565476Y-46809523D01*
X122565476Y-46190476D01*
X121315476Y-45857142D02*
X121315476Y-45190476D01*
X122565476Y-45619047D01*
X101934523Y-90357142D02*
X101875000Y-90297619D01*
X101815476Y-90178571D01*
X101815476Y-89880952D01*
X101875000Y-89761904D01*
X101934523Y-89702380D01*
X102053571Y-89642857D01*
X102172619Y-89642857D01*
X102351190Y-89702380D01*
X103065476Y-90416666D01*
X103065476Y-89642857D01*
X134434523Y-46761904D02*
X134375000Y-46714285D01*
X134315476Y-46619047D01*
X134315476Y-46380952D01*
X134375000Y-46285714D01*
X134434523Y-46238095D01*
X134553571Y-46190476D01*
X134672619Y-46190476D01*
X134851190Y-46238095D01*
X135565476Y-46809523D01*
X135565476Y-46190476D01*
X135565476Y-45714285D02*
X135565476Y-45523809D01*
X135505952Y-45428571D01*
X135446428Y-45380952D01*
X135267857Y-45285714D01*
X135029761Y-45238095D01*
X134553571Y-45238095D01*
X134434523Y-45285714D01*
X134375000Y-45333333D01*
X134315476Y-45428571D01*
X134315476Y-45619047D01*
X134375000Y-45714285D01*
X134434523Y-45761904D01*
X134553571Y-45809523D01*
X134851190Y-45809523D01*
X134970238Y-45761904D01*
X135029761Y-45714285D01*
X135089285Y-45619047D01*
X135089285Y-45428571D01*
X135029761Y-45333333D01*
X134970238Y-45285714D01*
X134851190Y-45238095D01*
X121315476Y-89702380D02*
X121315476Y-90297619D01*
X121910714Y-90357142D01*
X121851190Y-90297619D01*
X121791666Y-90178571D01*
X121791666Y-89880952D01*
X121851190Y-89761904D01*
X121910714Y-89702380D01*
X122029761Y-89642857D01*
X122327380Y-89642857D01*
X122446428Y-89702380D01*
X122505952Y-89761904D01*
X122565476Y-89880952D01*
X122565476Y-90178571D01*
X122505952Y-90297619D01*
X122446428Y-90357142D01*
X160315476Y-46809523D02*
X160315476Y-46190476D01*
X160791666Y-46523809D01*
X160791666Y-46380952D01*
X160851190Y-46285714D01*
X160910714Y-46238095D01*
X161029761Y-46190476D01*
X161327380Y-46190476D01*
X161446428Y-46238095D01*
X161505952Y-46285714D01*
X161565476Y-46380952D01*
X161565476Y-46666666D01*
X161505952Y-46761904D01*
X161446428Y-46809523D01*
X160315476Y-45857142D02*
X160315476Y-45238095D01*
X160791666Y-45571428D01*
X160791666Y-45428571D01*
X160851190Y-45333333D01*
X160910714Y-45285714D01*
X161029761Y-45238095D01*
X161327380Y-45238095D01*
X161446428Y-45285714D01*
X161505952Y-45333333D01*
X161565476Y-45428571D01*
X161565476Y-45714285D01*
X161505952Y-45809523D01*
X161446428Y-45857142D01*
D12*
X77105952Y-60644761D02*
X74605952Y-60644761D01*
X76391666Y-59811428D01*
X74605952Y-58978095D01*
X77105952Y-58978095D01*
X76391666Y-57906666D02*
X76391666Y-56716190D01*
X77105952Y-58144761D02*
X74605952Y-57311428D01*
X77105952Y-56478095D01*
X74605952Y-55882857D02*
X77105952Y-54216190D01*
X74605952Y-54216190D02*
X77105952Y-55882857D01*
X79821428Y-59811428D02*
X79821428Y-60644761D01*
X81130952Y-60644761D02*
X78630952Y-60644761D01*
X78630952Y-59454285D01*
X81011904Y-57549523D02*
X81130952Y-57787619D01*
X81130952Y-58263809D01*
X81011904Y-58501904D01*
X80773809Y-58620952D01*
X79821428Y-58620952D01*
X79583333Y-58501904D01*
X79464285Y-58263809D01*
X79464285Y-57787619D01*
X79583333Y-57549523D01*
X79821428Y-57430476D01*
X80059523Y-57430476D01*
X80297619Y-58620952D01*
X81011904Y-55406666D02*
X81130952Y-55644761D01*
X81130952Y-56120952D01*
X81011904Y-56359047D01*
X80773809Y-56478095D01*
X79821428Y-56478095D01*
X79583333Y-56359047D01*
X79464285Y-56120952D01*
X79464285Y-55644761D01*
X79583333Y-55406666D01*
X79821428Y-55287619D01*
X80059523Y-55287619D01*
X80297619Y-56478095D01*
X81130952Y-53144761D02*
X78630952Y-53144761D01*
X81011904Y-53144761D02*
X81130952Y-53382857D01*
X81130952Y-53859047D01*
X81011904Y-54097142D01*
X80892857Y-54216190D01*
X80654761Y-54335238D01*
X79940476Y-54335238D01*
X79702380Y-54216190D01*
X79583333Y-54097142D01*
X79464285Y-53859047D01*
X79464285Y-53382857D01*
X79583333Y-53144761D01*
X81011904Y-51001904D02*
X81130952Y-51240000D01*
X81130952Y-51716190D01*
X81011904Y-51954285D01*
X80773809Y-52073333D01*
X79821428Y-52073333D01*
X79583333Y-51954285D01*
X79464285Y-51716190D01*
X79464285Y-51240000D01*
X79583333Y-51001904D01*
X79821428Y-50882857D01*
X80059523Y-50882857D01*
X80297619Y-52073333D01*
X81130952Y-49811428D02*
X79464285Y-49811428D01*
X79940476Y-49811428D02*
X79702380Y-49692380D01*
X79583333Y-49573333D01*
X79464285Y-49335238D01*
X79464285Y-49097142D01*
X85036904Y-60763809D02*
X85155952Y-60406666D01*
X85155952Y-59811428D01*
X85036904Y-59573333D01*
X84917857Y-59454285D01*
X84679761Y-59335238D01*
X84441666Y-59335238D01*
X84203571Y-59454285D01*
X84084523Y-59573333D01*
X83965476Y-59811428D01*
X83846428Y-60287619D01*
X83727380Y-60525714D01*
X83608333Y-60644761D01*
X83370238Y-60763809D01*
X83132142Y-60763809D01*
X82894047Y-60644761D01*
X82775000Y-60525714D01*
X82655952Y-60287619D01*
X82655952Y-59692380D01*
X82775000Y-59335238D01*
X85155952Y-58263809D02*
X82655952Y-58263809D01*
X85155952Y-57192380D02*
X83846428Y-57192380D01*
X83608333Y-57311428D01*
X83489285Y-57549523D01*
X83489285Y-57906666D01*
X83608333Y-58144761D01*
X83727380Y-58263809D01*
X85155952Y-56001904D02*
X83489285Y-56001904D01*
X82655952Y-56001904D02*
X82775000Y-56120952D01*
X82894047Y-56001904D01*
X82775000Y-55882857D01*
X82655952Y-56001904D01*
X82894047Y-56001904D01*
X85036904Y-53859047D02*
X85155952Y-54097142D01*
X85155952Y-54573333D01*
X85036904Y-54811428D01*
X84798809Y-54930476D01*
X83846428Y-54930476D01*
X83608333Y-54811428D01*
X83489285Y-54573333D01*
X83489285Y-54097142D01*
X83608333Y-53859047D01*
X83846428Y-53740000D01*
X84084523Y-53740000D01*
X84322619Y-54930476D01*
X85155952Y-52311428D02*
X85036904Y-52549523D01*
X84798809Y-52668571D01*
X82655952Y-52668571D01*
X85155952Y-50287619D02*
X82655952Y-50287619D01*
X85036904Y-50287619D02*
X85155952Y-50525714D01*
X85155952Y-51001904D01*
X85036904Y-51240000D01*
X84917857Y-51359047D01*
X84679761Y-51478095D01*
X83965476Y-51478095D01*
X83727380Y-51359047D01*
X83608333Y-51240000D01*
X83489285Y-51001904D01*
X83489285Y-50525714D01*
X83608333Y-50287619D01*
D10*
X133565476Y-68190476D02*
X133565476Y-68761904D01*
X133565476Y-68476190D02*
X132315476Y-68476190D01*
X132494047Y-68571428D01*
X132613095Y-68666666D01*
X132672619Y-68761904D01*
X132851190Y-67619047D02*
X132791666Y-67714285D01*
X132732142Y-67761904D01*
X132613095Y-67809523D01*
X132553571Y-67809523D01*
X132434523Y-67761904D01*
X132375000Y-67714285D01*
X132315476Y-67619047D01*
X132315476Y-67428571D01*
X132375000Y-67333333D01*
X132434523Y-67285714D01*
X132553571Y-67238095D01*
X132613095Y-67238095D01*
X132732142Y-67285714D01*
X132791666Y-67333333D01*
X132851190Y-67428571D01*
X132851190Y-67619047D01*
X132910714Y-67714285D01*
X132970238Y-67761904D01*
X133089285Y-67809523D01*
X133327380Y-67809523D01*
X133446428Y-67761904D01*
X133505952Y-67714285D01*
X133565476Y-67619047D01*
X133565476Y-67428571D01*
X133505952Y-67333333D01*
X133446428Y-67285714D01*
X133327380Y-67238095D01*
X133089285Y-67238095D01*
X132970238Y-67285714D01*
X132910714Y-67333333D01*
X132851190Y-67428571D01*
X153815476Y-46809523D02*
X153815476Y-46190476D01*
X154291666Y-46523809D01*
X154291666Y-46380952D01*
X154351190Y-46285714D01*
X154410714Y-46238095D01*
X154529761Y-46190476D01*
X154827380Y-46190476D01*
X154946428Y-46238095D01*
X155005952Y-46285714D01*
X155065476Y-46380952D01*
X155065476Y-46666666D01*
X155005952Y-46761904D01*
X154946428Y-46809523D01*
X153934523Y-45809523D02*
X153875000Y-45761904D01*
X153815476Y-45666666D01*
X153815476Y-45428571D01*
X153875000Y-45333333D01*
X153934523Y-45285714D01*
X154053571Y-45238095D01*
X154172619Y-45238095D01*
X154351190Y-45285714D01*
X155065476Y-45857142D01*
X155065476Y-45238095D01*
X95434523Y-46761904D02*
X95375000Y-46714285D01*
X95315476Y-46619047D01*
X95315476Y-46380952D01*
X95375000Y-46285714D01*
X95434523Y-46238095D01*
X95553571Y-46190476D01*
X95672619Y-46190476D01*
X95851190Y-46238095D01*
X96565476Y-46809523D01*
X96565476Y-46190476D01*
X95315476Y-45857142D02*
X95315476Y-45238095D01*
X95791666Y-45571428D01*
X95791666Y-45428571D01*
X95851190Y-45333333D01*
X95910714Y-45285714D01*
X96029761Y-45238095D01*
X96327380Y-45238095D01*
X96446428Y-45285714D01*
X96505952Y-45333333D01*
X96565476Y-45428571D01*
X96565476Y-45714285D01*
X96505952Y-45809523D01*
X96446428Y-45857142D01*
D13*
%TO.C,J2*%
X78166666Y-77452380D02*
X78166666Y-78166666D01*
X78119047Y-78309523D01*
X78023809Y-78404761D01*
X77880952Y-78452380D01*
X77785714Y-78452380D01*
X78595238Y-77547619D02*
X78642857Y-77500000D01*
X78738095Y-77452380D01*
X78976190Y-77452380D01*
X79071428Y-77500000D01*
X79119047Y-77547619D01*
X79166666Y-77642857D01*
X79166666Y-77738095D01*
X79119047Y-77880952D01*
X78547619Y-78452380D01*
X79166666Y-78452380D01*
%TO.C,SW1*%
X77416666Y-89904761D02*
X77559523Y-89952380D01*
X77797619Y-89952380D01*
X77892857Y-89904761D01*
X77940476Y-89857142D01*
X77988095Y-89761904D01*
X77988095Y-89666666D01*
X77940476Y-89571428D01*
X77892857Y-89523809D01*
X77797619Y-89476190D01*
X77607142Y-89428571D01*
X77511904Y-89380952D01*
X77464285Y-89333333D01*
X77416666Y-89238095D01*
X77416666Y-89142857D01*
X77464285Y-89047619D01*
X77511904Y-89000000D01*
X77607142Y-88952380D01*
X77845238Y-88952380D01*
X77988095Y-89000000D01*
X78321428Y-88952380D02*
X78559523Y-89952380D01*
X78750000Y-89238095D01*
X78940476Y-89952380D01*
X79178571Y-88952380D01*
X80083333Y-89952380D02*
X79511904Y-89952380D01*
X79797619Y-89952380D02*
X79797619Y-88952380D01*
X79702380Y-89095238D01*
X79607142Y-89190476D01*
X79511904Y-89238095D01*
%TO.C,XA1*%
X139284000Y-63143142D02*
X139331619Y-63190761D01*
X139284000Y-63238380D01*
X139236380Y-63190761D01*
X139284000Y-63143142D01*
X139284000Y-63238380D01*
D14*
%TO.C,J34*%
X151000000Y-75500000D02*
X151000000Y-89000000D01*
X146250000Y-86750000D02*
X145000000Y-86750000D01*
X146250000Y-79250000D02*
X145000000Y-79250000D01*
X146250000Y-77750000D02*
X146250000Y-79250000D01*
X145000000Y-79250000D02*
X145000000Y-85250000D01*
X146250000Y-89000000D02*
X151000000Y-89000000D01*
X145000000Y-75500000D02*
X145000000Y-77750000D01*
X146250000Y-75500000D02*
X151000000Y-75500000D01*
X146250000Y-85250000D02*
X146250000Y-86750000D01*
X145000000Y-85250000D02*
X146250000Y-85250000D01*
X145000000Y-86750000D02*
X145000000Y-89000000D01*
X145000000Y-77750000D02*
X146250000Y-77750000D01*
%TO.C,J8*%
X131500000Y-47500000D02*
X131500000Y-61000000D01*
X126750000Y-58750000D02*
X125500000Y-58750000D01*
X126750000Y-51250000D02*
X125500000Y-51250000D01*
X126750000Y-49750000D02*
X126750000Y-51250000D01*
X125500000Y-51250000D02*
X125500000Y-57250000D01*
X126750000Y-61000000D02*
X131500000Y-61000000D01*
X125500000Y-47500000D02*
X125500000Y-49750000D01*
X126750000Y-47500000D02*
X131500000Y-47500000D01*
X126750000Y-57250000D02*
X126750000Y-58750000D01*
X125500000Y-57250000D02*
X126750000Y-57250000D01*
X125500000Y-58750000D02*
X125500000Y-61000000D01*
X125500000Y-49750000D02*
X126750000Y-49750000D01*
%TO.C,J25*%
X92500000Y-75500000D02*
X92500000Y-89000000D01*
X87750000Y-86750000D02*
X86500000Y-86750000D01*
X87750000Y-79250000D02*
X86500000Y-79250000D01*
X87750000Y-77750000D02*
X87750000Y-79250000D01*
X86500000Y-79250000D02*
X86500000Y-85250000D01*
X87750000Y-89000000D02*
X92500000Y-89000000D01*
X86500000Y-75500000D02*
X86500000Y-77750000D01*
X87750000Y-75500000D02*
X92500000Y-75500000D01*
X87750000Y-85250000D02*
X87750000Y-86750000D01*
X86500000Y-85250000D02*
X87750000Y-85250000D01*
X86500000Y-86750000D02*
X86500000Y-89000000D01*
X86500000Y-77750000D02*
X87750000Y-77750000D01*
%TO.C,J28*%
X112000000Y-75500000D02*
X112000000Y-89000000D01*
X107250000Y-86750000D02*
X106000000Y-86750000D01*
X107250000Y-79250000D02*
X106000000Y-79250000D01*
X107250000Y-77750000D02*
X107250000Y-79250000D01*
X106000000Y-79250000D02*
X106000000Y-85250000D01*
X107250000Y-89000000D02*
X112000000Y-89000000D01*
X106000000Y-75500000D02*
X106000000Y-77750000D01*
X107250000Y-75500000D02*
X112000000Y-75500000D01*
X107250000Y-85250000D02*
X107250000Y-86750000D01*
X106000000Y-85250000D02*
X107250000Y-85250000D01*
X106000000Y-86750000D02*
X106000000Y-89000000D01*
X106000000Y-77750000D02*
X107250000Y-77750000D01*
%TO.C,J35*%
X157500000Y-75500000D02*
X157500000Y-89000000D01*
X152750000Y-86750000D02*
X151500000Y-86750000D01*
X152750000Y-79250000D02*
X151500000Y-79250000D01*
X152750000Y-77750000D02*
X152750000Y-79250000D01*
X151500000Y-79250000D02*
X151500000Y-85250000D01*
X152750000Y-89000000D02*
X157500000Y-89000000D01*
X151500000Y-75500000D02*
X151500000Y-77750000D01*
X152750000Y-75500000D02*
X157500000Y-75500000D01*
X152750000Y-85250000D02*
X152750000Y-86750000D01*
X151500000Y-85250000D02*
X152750000Y-85250000D01*
X151500000Y-86750000D02*
X151500000Y-89000000D01*
X151500000Y-77750000D02*
X152750000Y-77750000D01*
%TO.C,J3*%
X99000000Y-47500000D02*
X99000000Y-61000000D01*
X94250000Y-58750000D02*
X93000000Y-58750000D01*
X94250000Y-51250000D02*
X93000000Y-51250000D01*
X94250000Y-49750000D02*
X94250000Y-51250000D01*
X93000000Y-51250000D02*
X93000000Y-57250000D01*
X94250000Y-61000000D02*
X99000000Y-61000000D01*
X93000000Y-47500000D02*
X93000000Y-49750000D01*
X94250000Y-47500000D02*
X99000000Y-47500000D01*
X94250000Y-57250000D02*
X94250000Y-58750000D01*
X93000000Y-57250000D02*
X94250000Y-57250000D01*
X93000000Y-58750000D02*
X93000000Y-61000000D01*
X93000000Y-49750000D02*
X94250000Y-49750000D01*
%TO.C,J1*%
X92500000Y-47500000D02*
X92500000Y-61000000D01*
X87750000Y-58750000D02*
X86500000Y-58750000D01*
X87750000Y-51250000D02*
X86500000Y-51250000D01*
X87750000Y-49750000D02*
X87750000Y-51250000D01*
X86500000Y-51250000D02*
X86500000Y-57250000D01*
X87750000Y-61000000D02*
X92500000Y-61000000D01*
X86500000Y-47500000D02*
X86500000Y-49750000D01*
X87750000Y-47500000D02*
X92500000Y-47500000D01*
X87750000Y-57250000D02*
X87750000Y-58750000D01*
X86500000Y-57250000D02*
X87750000Y-57250000D01*
X86500000Y-58750000D02*
X86500000Y-61000000D01*
X86500000Y-49750000D02*
X87750000Y-49750000D01*
%TO.C,J26*%
X99000000Y-75500000D02*
X99000000Y-89000000D01*
X94250000Y-86750000D02*
X93000000Y-86750000D01*
X94250000Y-79250000D02*
X93000000Y-79250000D01*
X94250000Y-77750000D02*
X94250000Y-79250000D01*
X93000000Y-79250000D02*
X93000000Y-85250000D01*
X94250000Y-89000000D02*
X99000000Y-89000000D01*
X93000000Y-75500000D02*
X93000000Y-77750000D01*
X94250000Y-75500000D02*
X99000000Y-75500000D01*
X94250000Y-85250000D02*
X94250000Y-86750000D01*
X93000000Y-85250000D02*
X94250000Y-85250000D01*
X93000000Y-86750000D02*
X93000000Y-89000000D01*
X93000000Y-77750000D02*
X94250000Y-77750000D01*
%TO.C,J20*%
X131500000Y-61500000D02*
X131500000Y-75000000D01*
X126750000Y-72750000D02*
X125500000Y-72750000D01*
X126750000Y-65250000D02*
X125500000Y-65250000D01*
X126750000Y-63750000D02*
X126750000Y-65250000D01*
X125500000Y-65250000D02*
X125500000Y-71250000D01*
X126750000Y-75000000D02*
X131500000Y-75000000D01*
X125500000Y-61500000D02*
X125500000Y-63750000D01*
X126750000Y-61500000D02*
X131500000Y-61500000D01*
X126750000Y-71250000D02*
X126750000Y-72750000D01*
X125500000Y-71250000D02*
X126750000Y-71250000D01*
X125500000Y-72750000D02*
X125500000Y-75000000D01*
X125500000Y-63750000D02*
X126750000Y-63750000D01*
%TO.C,J11*%
X151000000Y-47500000D02*
X151000000Y-61000000D01*
X146250000Y-58750000D02*
X145000000Y-58750000D01*
X146250000Y-51250000D02*
X145000000Y-51250000D01*
X146250000Y-49750000D02*
X146250000Y-51250000D01*
X145000000Y-51250000D02*
X145000000Y-57250000D01*
X146250000Y-61000000D02*
X151000000Y-61000000D01*
X145000000Y-47500000D02*
X145000000Y-49750000D01*
X146250000Y-47500000D02*
X151000000Y-47500000D01*
X146250000Y-57250000D02*
X146250000Y-58750000D01*
X145000000Y-57250000D02*
X146250000Y-57250000D01*
X145000000Y-58750000D02*
X145000000Y-61000000D01*
X145000000Y-49750000D02*
X146250000Y-49750000D01*
%TO.C,J13*%
X164000000Y-47500000D02*
X164000000Y-61000000D01*
X159250000Y-58750000D02*
X158000000Y-58750000D01*
X159250000Y-51250000D02*
X158000000Y-51250000D01*
X159250000Y-49750000D02*
X159250000Y-51250000D01*
X158000000Y-51250000D02*
X158000000Y-57250000D01*
X159250000Y-61000000D02*
X164000000Y-61000000D01*
X158000000Y-47500000D02*
X158000000Y-49750000D01*
X159250000Y-47500000D02*
X164000000Y-47500000D01*
X159250000Y-57250000D02*
X159250000Y-58750000D01*
X158000000Y-57250000D02*
X159250000Y-57250000D01*
X158000000Y-58750000D02*
X158000000Y-61000000D01*
X158000000Y-49750000D02*
X159250000Y-49750000D01*
%TO.C,J32*%
X138000000Y-75500000D02*
X138000000Y-89000000D01*
X133250000Y-86750000D02*
X132000000Y-86750000D01*
X133250000Y-79250000D02*
X132000000Y-79250000D01*
X133250000Y-77750000D02*
X133250000Y-79250000D01*
X132000000Y-79250000D02*
X132000000Y-85250000D01*
X133250000Y-89000000D02*
X138000000Y-89000000D01*
X132000000Y-75500000D02*
X132000000Y-77750000D01*
X133250000Y-75500000D02*
X138000000Y-75500000D01*
X133250000Y-85250000D02*
X133250000Y-86750000D01*
X132000000Y-85250000D02*
X133250000Y-85250000D01*
X132000000Y-86750000D02*
X132000000Y-89000000D01*
X132000000Y-77750000D02*
X133250000Y-77750000D01*
%TO.C,J29*%
X118500000Y-75500000D02*
X118500000Y-89000000D01*
X113750000Y-86750000D02*
X112500000Y-86750000D01*
X113750000Y-79250000D02*
X112500000Y-79250000D01*
X113750000Y-77750000D02*
X113750000Y-79250000D01*
X112500000Y-79250000D02*
X112500000Y-85250000D01*
X113750000Y-89000000D02*
X118500000Y-89000000D01*
X112500000Y-75500000D02*
X112500000Y-77750000D01*
X113750000Y-75500000D02*
X118500000Y-75500000D01*
X113750000Y-85250000D02*
X113750000Y-86750000D01*
X112500000Y-85250000D02*
X113750000Y-85250000D01*
X112500000Y-86750000D02*
X112500000Y-89000000D01*
X112500000Y-77750000D02*
X113750000Y-77750000D01*
%TO.C,J19*%
X125000000Y-61500000D02*
X125000000Y-75000000D01*
X120250000Y-72750000D02*
X119000000Y-72750000D01*
X120250000Y-65250000D02*
X119000000Y-65250000D01*
X120250000Y-63750000D02*
X120250000Y-65250000D01*
X119000000Y-65250000D02*
X119000000Y-71250000D01*
X120250000Y-75000000D02*
X125000000Y-75000000D01*
X119000000Y-61500000D02*
X119000000Y-63750000D01*
X120250000Y-61500000D02*
X125000000Y-61500000D01*
X120250000Y-71250000D02*
X120250000Y-72750000D01*
X119000000Y-71250000D02*
X120250000Y-71250000D01*
X119000000Y-72750000D02*
X119000000Y-75000000D01*
X119000000Y-63750000D02*
X120250000Y-63750000D01*
%TO.C,J33*%
X144500000Y-75500000D02*
X144500000Y-89000000D01*
X139750000Y-86750000D02*
X138500000Y-86750000D01*
X139750000Y-79250000D02*
X138500000Y-79250000D01*
X139750000Y-77750000D02*
X139750000Y-79250000D01*
X138500000Y-79250000D02*
X138500000Y-85250000D01*
X139750000Y-89000000D02*
X144500000Y-89000000D01*
X138500000Y-75500000D02*
X138500000Y-77750000D01*
X139750000Y-75500000D02*
X144500000Y-75500000D01*
X139750000Y-85250000D02*
X139750000Y-86750000D01*
X138500000Y-85250000D02*
X139750000Y-85250000D01*
X138500000Y-86750000D02*
X138500000Y-89000000D01*
X138500000Y-77750000D02*
X139750000Y-77750000D01*
%TO.C,J22*%
X151000000Y-61500000D02*
X151000000Y-75000000D01*
X146250000Y-72750000D02*
X145000000Y-72750000D01*
X146250000Y-65250000D02*
X145000000Y-65250000D01*
X146250000Y-63750000D02*
X146250000Y-65250000D01*
X145000000Y-65250000D02*
X145000000Y-71250000D01*
X146250000Y-75000000D02*
X151000000Y-75000000D01*
X145000000Y-61500000D02*
X145000000Y-63750000D01*
X146250000Y-61500000D02*
X151000000Y-61500000D01*
X146250000Y-71250000D02*
X146250000Y-72750000D01*
X145000000Y-71250000D02*
X146250000Y-71250000D01*
X145000000Y-72750000D02*
X145000000Y-75000000D01*
X145000000Y-63750000D02*
X146250000Y-63750000D01*
%TO.C,J18*%
X118500000Y-61500000D02*
X118500000Y-75000000D01*
X113750000Y-72750000D02*
X112500000Y-72750000D01*
X113750000Y-65250000D02*
X112500000Y-65250000D01*
X113750000Y-63750000D02*
X113750000Y-65250000D01*
X112500000Y-65250000D02*
X112500000Y-71250000D01*
X113750000Y-75000000D02*
X118500000Y-75000000D01*
X112500000Y-61500000D02*
X112500000Y-63750000D01*
X113750000Y-61500000D02*
X118500000Y-61500000D01*
X113750000Y-71250000D02*
X113750000Y-72750000D01*
X112500000Y-71250000D02*
X113750000Y-71250000D01*
X112500000Y-72750000D02*
X112500000Y-75000000D01*
X112500000Y-63750000D02*
X113750000Y-63750000D01*
%TO.C,J9*%
X138000000Y-47500000D02*
X138000000Y-61000000D01*
X133250000Y-58750000D02*
X132000000Y-58750000D01*
X133250000Y-51250000D02*
X132000000Y-51250000D01*
X133250000Y-49750000D02*
X133250000Y-51250000D01*
X132000000Y-51250000D02*
X132000000Y-57250000D01*
X133250000Y-61000000D02*
X138000000Y-61000000D01*
X132000000Y-47500000D02*
X132000000Y-49750000D01*
X133250000Y-47500000D02*
X138000000Y-47500000D01*
X133250000Y-57250000D02*
X133250000Y-58750000D01*
X132000000Y-57250000D02*
X133250000Y-57250000D01*
X132000000Y-58750000D02*
X132000000Y-61000000D01*
X132000000Y-49750000D02*
X133250000Y-49750000D01*
%TO.C,J23*%
X157500000Y-61500000D02*
X157500000Y-75000000D01*
X152750000Y-72750000D02*
X151500000Y-72750000D01*
X152750000Y-65250000D02*
X151500000Y-65250000D01*
X152750000Y-63750000D02*
X152750000Y-65250000D01*
X151500000Y-65250000D02*
X151500000Y-71250000D01*
X152750000Y-75000000D02*
X157500000Y-75000000D01*
X151500000Y-61500000D02*
X151500000Y-63750000D01*
X152750000Y-61500000D02*
X157500000Y-61500000D01*
X152750000Y-71250000D02*
X152750000Y-72750000D01*
X151500000Y-71250000D02*
X152750000Y-71250000D01*
X151500000Y-72750000D02*
X151500000Y-75000000D01*
X151500000Y-63750000D02*
X152750000Y-63750000D01*
%TO.C,J31*%
X131500000Y-75500000D02*
X131500000Y-89000000D01*
X126750000Y-86750000D02*
X125500000Y-86750000D01*
X126750000Y-79250000D02*
X125500000Y-79250000D01*
X126750000Y-77750000D02*
X126750000Y-79250000D01*
X125500000Y-79250000D02*
X125500000Y-85250000D01*
X126750000Y-89000000D02*
X131500000Y-89000000D01*
X125500000Y-75500000D02*
X125500000Y-77750000D01*
X126750000Y-75500000D02*
X131500000Y-75500000D01*
X126750000Y-85250000D02*
X126750000Y-86750000D01*
X125500000Y-85250000D02*
X126750000Y-85250000D01*
X125500000Y-86750000D02*
X125500000Y-89000000D01*
X125500000Y-77750000D02*
X126750000Y-77750000D01*
%TO.C,J36*%
X164000000Y-75500000D02*
X164000000Y-89000000D01*
X159250000Y-86750000D02*
X158000000Y-86750000D01*
X159250000Y-79250000D02*
X158000000Y-79250000D01*
X159250000Y-77750000D02*
X159250000Y-79250000D01*
X158000000Y-79250000D02*
X158000000Y-85250000D01*
X159250000Y-89000000D02*
X164000000Y-89000000D01*
X158000000Y-75500000D02*
X158000000Y-77750000D01*
X159250000Y-75500000D02*
X164000000Y-75500000D01*
X159250000Y-85250000D02*
X159250000Y-86750000D01*
X158000000Y-85250000D02*
X159250000Y-85250000D01*
X158000000Y-86750000D02*
X158000000Y-89000000D01*
X158000000Y-77750000D02*
X159250000Y-77750000D01*
%TO.C,J6*%
X118500000Y-47500000D02*
X118500000Y-61000000D01*
X113750000Y-58750000D02*
X112500000Y-58750000D01*
X113750000Y-51250000D02*
X112500000Y-51250000D01*
X113750000Y-49750000D02*
X113750000Y-51250000D01*
X112500000Y-51250000D02*
X112500000Y-57250000D01*
X113750000Y-61000000D02*
X118500000Y-61000000D01*
X112500000Y-47500000D02*
X112500000Y-49750000D01*
X113750000Y-47500000D02*
X118500000Y-47500000D01*
X113750000Y-57250000D02*
X113750000Y-58750000D01*
X112500000Y-57250000D02*
X113750000Y-57250000D01*
X112500000Y-58750000D02*
X112500000Y-61000000D01*
X112500000Y-49750000D02*
X113750000Y-49750000D01*
%TO.C,J17*%
X112000000Y-61500000D02*
X112000000Y-75000000D01*
X107250000Y-72750000D02*
X106000000Y-72750000D01*
X107250000Y-65250000D02*
X106000000Y-65250000D01*
X107250000Y-63750000D02*
X107250000Y-65250000D01*
X106000000Y-65250000D02*
X106000000Y-71250000D01*
X107250000Y-75000000D02*
X112000000Y-75000000D01*
X106000000Y-61500000D02*
X106000000Y-63750000D01*
X107250000Y-61500000D02*
X112000000Y-61500000D01*
X107250000Y-71250000D02*
X107250000Y-72750000D01*
X106000000Y-71250000D02*
X107250000Y-71250000D01*
X106000000Y-72750000D02*
X106000000Y-75000000D01*
X106000000Y-63750000D02*
X107250000Y-63750000D01*
%TO.C,J12*%
X157500000Y-47500000D02*
X157500000Y-61000000D01*
X152750000Y-58750000D02*
X151500000Y-58750000D01*
X152750000Y-51250000D02*
X151500000Y-51250000D01*
X152750000Y-49750000D02*
X152750000Y-51250000D01*
X151500000Y-51250000D02*
X151500000Y-57250000D01*
X152750000Y-61000000D02*
X157500000Y-61000000D01*
X151500000Y-47500000D02*
X151500000Y-49750000D01*
X152750000Y-47500000D02*
X157500000Y-47500000D01*
X152750000Y-57250000D02*
X152750000Y-58750000D01*
X151500000Y-57250000D02*
X152750000Y-57250000D01*
X151500000Y-58750000D02*
X151500000Y-61000000D01*
X151500000Y-49750000D02*
X152750000Y-49750000D01*
%TO.C,J4*%
X105500000Y-47500000D02*
X105500000Y-61000000D01*
X100750000Y-58750000D02*
X99500000Y-58750000D01*
X100750000Y-51250000D02*
X99500000Y-51250000D01*
X100750000Y-49750000D02*
X100750000Y-51250000D01*
X99500000Y-51250000D02*
X99500000Y-57250000D01*
X100750000Y-61000000D02*
X105500000Y-61000000D01*
X99500000Y-47500000D02*
X99500000Y-49750000D01*
X100750000Y-47500000D02*
X105500000Y-47500000D01*
X100750000Y-57250000D02*
X100750000Y-58750000D01*
X99500000Y-57250000D02*
X100750000Y-57250000D01*
X99500000Y-58750000D02*
X99500000Y-61000000D01*
X99500000Y-49750000D02*
X100750000Y-49750000D01*
%TO.C,J16*%
X105500000Y-61500000D02*
X105500000Y-75000000D01*
X100750000Y-72750000D02*
X99500000Y-72750000D01*
X100750000Y-65250000D02*
X99500000Y-65250000D01*
X100750000Y-63750000D02*
X100750000Y-65250000D01*
X99500000Y-65250000D02*
X99500000Y-71250000D01*
X100750000Y-75000000D02*
X105500000Y-75000000D01*
X99500000Y-61500000D02*
X99500000Y-63750000D01*
X100750000Y-61500000D02*
X105500000Y-61500000D01*
X100750000Y-71250000D02*
X100750000Y-72750000D01*
X99500000Y-71250000D02*
X100750000Y-71250000D01*
X99500000Y-72750000D02*
X99500000Y-75000000D01*
X99500000Y-63750000D02*
X100750000Y-63750000D01*
%TO.C,J27*%
X105500000Y-75500000D02*
X105500000Y-89000000D01*
X100750000Y-86750000D02*
X99500000Y-86750000D01*
X100750000Y-79250000D02*
X99500000Y-79250000D01*
X100750000Y-77750000D02*
X100750000Y-79250000D01*
X99500000Y-79250000D02*
X99500000Y-85250000D01*
X100750000Y-89000000D02*
X105500000Y-89000000D01*
X99500000Y-75500000D02*
X99500000Y-77750000D01*
X100750000Y-75500000D02*
X105500000Y-75500000D01*
X100750000Y-85250000D02*
X100750000Y-86750000D01*
X99500000Y-85250000D02*
X100750000Y-85250000D01*
X99500000Y-86750000D02*
X99500000Y-89000000D01*
X99500000Y-77750000D02*
X100750000Y-77750000D01*
%TO.C,J24*%
X164000000Y-61500000D02*
X164000000Y-75000000D01*
X159250000Y-72750000D02*
X158000000Y-72750000D01*
X159250000Y-65250000D02*
X158000000Y-65250000D01*
X159250000Y-63750000D02*
X159250000Y-65250000D01*
X158000000Y-65250000D02*
X158000000Y-71250000D01*
X159250000Y-75000000D02*
X164000000Y-75000000D01*
X158000000Y-61500000D02*
X158000000Y-63750000D01*
X159250000Y-61500000D02*
X164000000Y-61500000D01*
X159250000Y-71250000D02*
X159250000Y-72750000D01*
X158000000Y-71250000D02*
X159250000Y-71250000D01*
X158000000Y-72750000D02*
X158000000Y-75000000D01*
X158000000Y-63750000D02*
X159250000Y-63750000D01*
%TO.C,J10*%
X144500000Y-47500000D02*
X144500000Y-61000000D01*
X139750000Y-58750000D02*
X138500000Y-58750000D01*
X139750000Y-51250000D02*
X138500000Y-51250000D01*
X139750000Y-49750000D02*
X139750000Y-51250000D01*
X138500000Y-51250000D02*
X138500000Y-57250000D01*
X139750000Y-61000000D02*
X144500000Y-61000000D01*
X138500000Y-47500000D02*
X138500000Y-49750000D01*
X139750000Y-47500000D02*
X144500000Y-47500000D01*
X139750000Y-57250000D02*
X139750000Y-58750000D01*
X138500000Y-57250000D02*
X139750000Y-57250000D01*
X138500000Y-58750000D02*
X138500000Y-61000000D01*
X138500000Y-49750000D02*
X139750000Y-49750000D01*
%TO.C,J7*%
X125000000Y-47500000D02*
X125000000Y-61000000D01*
X120250000Y-58750000D02*
X119000000Y-58750000D01*
X120250000Y-51250000D02*
X119000000Y-51250000D01*
X120250000Y-49750000D02*
X120250000Y-51250000D01*
X119000000Y-51250000D02*
X119000000Y-57250000D01*
X120250000Y-61000000D02*
X125000000Y-61000000D01*
X119000000Y-47500000D02*
X119000000Y-49750000D01*
X120250000Y-47500000D02*
X125000000Y-47500000D01*
X120250000Y-57250000D02*
X120250000Y-58750000D01*
X119000000Y-57250000D02*
X120250000Y-57250000D01*
X119000000Y-58750000D02*
X119000000Y-61000000D01*
X119000000Y-49750000D02*
X120250000Y-49750000D01*
%TO.C,J30*%
X125000000Y-75500000D02*
X125000000Y-89000000D01*
X120250000Y-86750000D02*
X119000000Y-86750000D01*
X120250000Y-79250000D02*
X119000000Y-79250000D01*
X120250000Y-77750000D02*
X120250000Y-79250000D01*
X119000000Y-79250000D02*
X119000000Y-85250000D01*
X120250000Y-89000000D02*
X125000000Y-89000000D01*
X119000000Y-75500000D02*
X119000000Y-77750000D01*
X120250000Y-75500000D02*
X125000000Y-75500000D01*
X120250000Y-85250000D02*
X120250000Y-86750000D01*
X119000000Y-85250000D02*
X120250000Y-85250000D01*
X119000000Y-86750000D02*
X119000000Y-89000000D01*
X119000000Y-77750000D02*
X120250000Y-77750000D01*
%TO.C,J15*%
X99000000Y-61500000D02*
X99000000Y-75000000D01*
X94250000Y-72750000D02*
X93000000Y-72750000D01*
X94250000Y-65250000D02*
X93000000Y-65250000D01*
X94250000Y-63750000D02*
X94250000Y-65250000D01*
X93000000Y-65250000D02*
X93000000Y-71250000D01*
X94250000Y-75000000D02*
X99000000Y-75000000D01*
X93000000Y-61500000D02*
X93000000Y-63750000D01*
X94250000Y-61500000D02*
X99000000Y-61500000D01*
X94250000Y-71250000D02*
X94250000Y-72750000D01*
X93000000Y-71250000D02*
X94250000Y-71250000D01*
X93000000Y-72750000D02*
X93000000Y-75000000D01*
X93000000Y-63750000D02*
X94250000Y-63750000D01*
%TO.C,J5*%
X112000000Y-47500000D02*
X112000000Y-61000000D01*
X107250000Y-58750000D02*
X106000000Y-58750000D01*
X107250000Y-51250000D02*
X106000000Y-51250000D01*
X107250000Y-49750000D02*
X107250000Y-51250000D01*
X106000000Y-51250000D02*
X106000000Y-57250000D01*
X107250000Y-61000000D02*
X112000000Y-61000000D01*
X106000000Y-47500000D02*
X106000000Y-49750000D01*
X107250000Y-47500000D02*
X112000000Y-47500000D01*
X107250000Y-57250000D02*
X107250000Y-58750000D01*
X106000000Y-57250000D02*
X107250000Y-57250000D01*
X106000000Y-58750000D02*
X106000000Y-61000000D01*
X106000000Y-49750000D02*
X107250000Y-49750000D01*
%TO.C,J14*%
X92500000Y-61500000D02*
X92500000Y-75000000D01*
X87750000Y-72750000D02*
X86500000Y-72750000D01*
X87750000Y-65250000D02*
X86500000Y-65250000D01*
X87750000Y-63750000D02*
X87750000Y-65250000D01*
X86500000Y-65250000D02*
X86500000Y-71250000D01*
X87750000Y-75000000D02*
X92500000Y-75000000D01*
X86500000Y-61500000D02*
X86500000Y-63750000D01*
X87750000Y-61500000D02*
X92500000Y-61500000D01*
X87750000Y-71250000D02*
X87750000Y-72750000D01*
X86500000Y-71250000D02*
X87750000Y-71250000D01*
X86500000Y-72750000D02*
X86500000Y-75000000D01*
X86500000Y-63750000D02*
X87750000Y-63750000D01*
%TO.C,J2*%
X82400000Y-79900000D02*
X82400000Y-82600000D01*
X67700000Y-73400000D02*
X82400000Y-73400000D01*
X82400000Y-82600000D02*
X80500000Y-82600000D01*
X81550000Y-73200000D02*
X82600000Y-73200000D01*
X76500000Y-82600000D02*
X67700000Y-82600000D01*
X82600000Y-74250000D02*
X82600000Y-73200000D01*
X67700000Y-82600000D02*
X67700000Y-73400000D01*
X82400000Y-73400000D02*
X82400000Y-76000000D01*
%TO.C,SW1*%
X82250000Y-90500000D02*
X82250000Y-89000000D01*
X81000000Y-86500000D02*
X76500000Y-86500000D01*
X75250000Y-89000000D02*
X75250000Y-90500000D01*
X76500000Y-93000000D02*
X81000000Y-93000000D01*
%TO.C,REF\u002A\u002A*%
G36*
X83445135Y-42180673D02*
G01*
X83548868Y-42183410D01*
X83638241Y-42187669D01*
X83706826Y-42193445D01*
X83748197Y-42200733D01*
X83756810Y-42205105D01*
X83767133Y-42231236D01*
X83781892Y-42286607D01*
X83799352Y-42363893D01*
X83817780Y-42455770D01*
X83823741Y-42487842D01*
X83852066Y-42642476D01*
X83874876Y-42764625D01*
X83893080Y-42858327D01*
X83907583Y-42927616D01*
X83919292Y-42976529D01*
X83929115Y-43009103D01*
X83937956Y-43029372D01*
X83946724Y-43041374D01*
X83948457Y-43043053D01*
X83976371Y-43059816D01*
X84030695Y-43085386D01*
X84104777Y-43117212D01*
X84191965Y-43152740D01*
X84285608Y-43189417D01*
X84379052Y-43224689D01*
X84465647Y-43256004D01*
X84538740Y-43280807D01*
X84591678Y-43296546D01*
X84617811Y-43300668D01*
X84618726Y-43300324D01*
X84640086Y-43286359D01*
X84687084Y-43254678D01*
X84754827Y-43208609D01*
X84838423Y-43151482D01*
X84932982Y-43086627D01*
X84959854Y-43068157D01*
X85057275Y-43002301D01*
X85146163Y-42944350D01*
X85221412Y-42897462D01*
X85277920Y-42864793D01*
X85310581Y-42849500D01*
X85314593Y-42848759D01*
X85335684Y-42861608D01*
X85377464Y-42897112D01*
X85435445Y-42950707D01*
X85505135Y-43017829D01*
X85582045Y-43093913D01*
X85661683Y-43174396D01*
X85739561Y-43254713D01*
X85811186Y-43330301D01*
X85872070Y-43396595D01*
X85917721Y-43449031D01*
X85943650Y-43483045D01*
X85947883Y-43492455D01*
X85937912Y-43514357D01*
X85911020Y-43559200D01*
X85871736Y-43619679D01*
X85840117Y-43666211D01*
X85782098Y-43750525D01*
X85713784Y-43850374D01*
X85645579Y-43950527D01*
X85609075Y-44004373D01*
X85485800Y-44186629D01*
X85568520Y-44339619D01*
X85604759Y-44409318D01*
X85632926Y-44468586D01*
X85648991Y-44508689D01*
X85651226Y-44518897D01*
X85634722Y-44531171D01*
X85588082Y-44555387D01*
X85515609Y-44589737D01*
X85421606Y-44632412D01*
X85310374Y-44681606D01*
X85186215Y-44735510D01*
X85053432Y-44792316D01*
X84916327Y-44850218D01*
X84779202Y-44907407D01*
X84646358Y-44962076D01*
X84522098Y-45012416D01*
X84410725Y-45056620D01*
X84316539Y-45092881D01*
X84243844Y-45119391D01*
X84196941Y-45134342D01*
X84180833Y-45136746D01*
X84160286Y-45117689D01*
X84126933Y-45075964D01*
X84087702Y-45020294D01*
X84084599Y-45015622D01*
X83969423Y-44871736D01*
X83835053Y-44755717D01*
X83685784Y-44668570D01*
X83525913Y-44611301D01*
X83359737Y-44584914D01*
X83191552Y-44590415D01*
X83025655Y-44628810D01*
X82866342Y-44701105D01*
X82831487Y-44722374D01*
X82690737Y-44833004D01*
X82577714Y-44963698D01*
X82493003Y-45109936D01*
X82437194Y-45267192D01*
X82410874Y-45430943D01*
X82414630Y-45596667D01*
X82449050Y-45759838D01*
X82514723Y-45915935D01*
X82612235Y-46060433D01*
X82651813Y-46105131D01*
X82775703Y-46218888D01*
X82906124Y-46301782D01*
X83052315Y-46358644D01*
X83197088Y-46390313D01*
X83359860Y-46398131D01*
X83523440Y-46372062D01*
X83682298Y-46314755D01*
X83830906Y-46228856D01*
X83963735Y-46117014D01*
X84075256Y-45981877D01*
X84087011Y-45964117D01*
X84125508Y-45907850D01*
X84158863Y-45865077D01*
X84180160Y-45844628D01*
X84180833Y-45844331D01*
X84203871Y-45848721D01*
X84256157Y-45866124D01*
X84333390Y-45894732D01*
X84431268Y-45932735D01*
X84545491Y-45978326D01*
X84671758Y-46029697D01*
X84805767Y-46085038D01*
X84943218Y-46142542D01*
X85079808Y-46200399D01*
X85211237Y-46256802D01*
X85333205Y-46309942D01*
X85441409Y-46358010D01*
X85531549Y-46399199D01*
X85599323Y-46431699D01*
X85640430Y-46453703D01*
X85651226Y-46462564D01*
X85642819Y-46489640D01*
X85620272Y-46540303D01*
X85587613Y-46605817D01*
X85568520Y-46641841D01*
X85485800Y-46794832D01*
X85609075Y-46977088D01*
X85672228Y-47070125D01*
X85741727Y-47171985D01*
X85807165Y-47267438D01*
X85840117Y-47315250D01*
X85885273Y-47382495D01*
X85921057Y-47439436D01*
X85942938Y-47478646D01*
X85947563Y-47491381D01*
X85935085Y-47509917D01*
X85900252Y-47550941D01*
X85846678Y-47610475D01*
X85777983Y-47684542D01*
X85697781Y-47769165D01*
X85646286Y-47822685D01*
X85554286Y-47916319D01*
X85471999Y-47997241D01*
X85402945Y-48062177D01*
X85350644Y-48107858D01*
X85318616Y-48131011D01*
X85312116Y-48133232D01*
X85287394Y-48122924D01*
X85237405Y-48094439D01*
X85167212Y-48050937D01*
X85081875Y-47995577D01*
X84986456Y-47931520D01*
X84959854Y-47913303D01*
X84863167Y-47846927D01*
X84776117Y-47787378D01*
X84703595Y-47737984D01*
X84650493Y-47702075D01*
X84621703Y-47682981D01*
X84618726Y-47681136D01*
X84595782Y-47683895D01*
X84545336Y-47698538D01*
X84474041Y-47722513D01*
X84388547Y-47753266D01*
X84295507Y-47788244D01*
X84201574Y-47824893D01*
X84113399Y-47860661D01*
X84037634Y-47892994D01*
X83980931Y-47919338D01*
X83949943Y-47937142D01*
X83948457Y-47938407D01*
X83939601Y-47949294D01*
X83930843Y-47967682D01*
X83921277Y-47997606D01*
X83909996Y-48043103D01*
X83896093Y-48108209D01*
X83878663Y-48196961D01*
X83856798Y-48313393D01*
X83829591Y-48461542D01*
X83823741Y-48493618D01*
X83805374Y-48588686D01*
X83787405Y-48671565D01*
X83771569Y-48734930D01*
X83759600Y-48771458D01*
X83756810Y-48776356D01*
X83732072Y-48784427D01*
X83676790Y-48790987D01*
X83597389Y-48796033D01*
X83500296Y-48799559D01*
X83391938Y-48801561D01*
X83278740Y-48802036D01*
X83167128Y-48800977D01*
X83063529Y-48798382D01*
X82974368Y-48794246D01*
X82906072Y-48788563D01*
X82865066Y-48781331D01*
X82856674Y-48776971D01*
X82848208Y-48752698D01*
X82834435Y-48697426D01*
X82816550Y-48616662D01*
X82795748Y-48515912D01*
X82773223Y-48400683D01*
X82761418Y-48337902D01*
X82739151Y-48218787D01*
X82718979Y-48112565D01*
X82701915Y-48024427D01*
X82688969Y-47959566D01*
X82681155Y-47923174D01*
X82679422Y-47917184D01*
X82659890Y-47907061D01*
X82612843Y-47885662D01*
X82545003Y-47855839D01*
X82463091Y-47820445D01*
X82373828Y-47782332D01*
X82283935Y-47744353D01*
X82200135Y-47709360D01*
X82129147Y-47680206D01*
X82077694Y-47659743D01*
X82052497Y-47650823D01*
X82051396Y-47650657D01*
X82031519Y-47660769D01*
X81985777Y-47689117D01*
X81918717Y-47732723D01*
X81834884Y-47788606D01*
X81738826Y-47853787D01*
X81683650Y-47891679D01*
X81582481Y-47960725D01*
X81490630Y-48022050D01*
X81412744Y-48072663D01*
X81353469Y-48109571D01*
X81317451Y-48129782D01*
X81309377Y-48132701D01*
X81290584Y-48120153D01*
X81250457Y-48085463D01*
X81193493Y-48033063D01*
X81124185Y-47967384D01*
X81047031Y-47892856D01*
X80966525Y-47813913D01*
X80887163Y-47734983D01*
X80813440Y-47660500D01*
X80749852Y-47594894D01*
X80700894Y-47542596D01*
X80671061Y-47508039D01*
X80663942Y-47496478D01*
X80673953Y-47477654D01*
X80702078Y-47432631D01*
X80745454Y-47365787D01*
X80801218Y-47281499D01*
X80866506Y-47184144D01*
X80916246Y-47110707D01*
X81168551Y-46739667D01*
X80913555Y-46121095D01*
X80468931Y-46037275D01*
X80024307Y-45953454D01*
X80024307Y-45028006D01*
X80468931Y-44944186D01*
X80913555Y-44860365D01*
X81041053Y-44551080D01*
X81168551Y-44241794D01*
X80916246Y-43870754D01*
X80845996Y-43766843D01*
X80783272Y-43672913D01*
X80730938Y-43593348D01*
X80691857Y-43532530D01*
X80668893Y-43494843D01*
X80663942Y-43484579D01*
X80676676Y-43466090D01*
X80711882Y-43426580D01*
X80765062Y-43370478D01*
X80831718Y-43302213D01*
X80907354Y-43226214D01*
X80987472Y-43146908D01*
X81067574Y-43068725D01*
X81143164Y-42996093D01*
X81209745Y-42933441D01*
X81262818Y-42885197D01*
X81297887Y-42855790D01*
X81309623Y-42848759D01*
X81331260Y-42858877D01*
X81378662Y-42887241D01*
X81447193Y-42930871D01*
X81532215Y-42986782D01*
X81629093Y-43051994D01*
X81684350Y-43089781D01*
X81785248Y-43158657D01*
X81876299Y-43219860D01*
X81952970Y-43270422D01*
X82010728Y-43307372D01*
X82045043Y-43327742D01*
X82052254Y-43330803D01*
X82072748Y-43323864D01*
X82120513Y-43304949D01*
X82188832Y-43276913D01*
X82270989Y-43242609D01*
X82360270Y-43204891D01*
X82449958Y-43166613D01*
X82533338Y-43130630D01*
X82603694Y-43099794D01*
X82654310Y-43076961D01*
X82678471Y-43064983D01*
X82679422Y-43064276D01*
X82684036Y-43045469D01*
X82694328Y-42995382D01*
X82709287Y-42919207D01*
X82727901Y-42822135D01*
X82749159Y-42709357D01*
X82761418Y-42643558D01*
X82784362Y-42523050D01*
X82806195Y-42414203D01*
X82825722Y-42322524D01*
X82841748Y-42253519D01*
X82853079Y-42212696D01*
X82856674Y-42204489D01*
X82881006Y-42196452D01*
X82935959Y-42189967D01*
X83015108Y-42185030D01*
X83112026Y-42181636D01*
X83220287Y-42179782D01*
X83333465Y-42179462D01*
X83445135Y-42180673D01*
G37*
D15*
X83445135Y-42180673D02*
X83548868Y-42183410D01*
X83638241Y-42187669D01*
X83706826Y-42193445D01*
X83748197Y-42200733D01*
X83756810Y-42205105D01*
X83767133Y-42231236D01*
X83781892Y-42286607D01*
X83799352Y-42363893D01*
X83817780Y-42455770D01*
X83823741Y-42487842D01*
X83852066Y-42642476D01*
X83874876Y-42764625D01*
X83893080Y-42858327D01*
X83907583Y-42927616D01*
X83919292Y-42976529D01*
X83929115Y-43009103D01*
X83937956Y-43029372D01*
X83946724Y-43041374D01*
X83948457Y-43043053D01*
X83976371Y-43059816D01*
X84030695Y-43085386D01*
X84104777Y-43117212D01*
X84191965Y-43152740D01*
X84285608Y-43189417D01*
X84379052Y-43224689D01*
X84465647Y-43256004D01*
X84538740Y-43280807D01*
X84591678Y-43296546D01*
X84617811Y-43300668D01*
X84618726Y-43300324D01*
X84640086Y-43286359D01*
X84687084Y-43254678D01*
X84754827Y-43208609D01*
X84838423Y-43151482D01*
X84932982Y-43086627D01*
X84959854Y-43068157D01*
X85057275Y-43002301D01*
X85146163Y-42944350D01*
X85221412Y-42897462D01*
X85277920Y-42864793D01*
X85310581Y-42849500D01*
X85314593Y-42848759D01*
X85335684Y-42861608D01*
X85377464Y-42897112D01*
X85435445Y-42950707D01*
X85505135Y-43017829D01*
X85582045Y-43093913D01*
X85661683Y-43174396D01*
X85739561Y-43254713D01*
X85811186Y-43330301D01*
X85872070Y-43396595D01*
X85917721Y-43449031D01*
X85943650Y-43483045D01*
X85947883Y-43492455D01*
X85937912Y-43514357D01*
X85911020Y-43559200D01*
X85871736Y-43619679D01*
X85840117Y-43666211D01*
X85782098Y-43750525D01*
X85713784Y-43850374D01*
X85645579Y-43950527D01*
X85609075Y-44004373D01*
X85485800Y-44186629D01*
X85568520Y-44339619D01*
X85604759Y-44409318D01*
X85632926Y-44468586D01*
X85648991Y-44508689D01*
X85651226Y-44518897D01*
X85634722Y-44531171D01*
X85588082Y-44555387D01*
X85515609Y-44589737D01*
X85421606Y-44632412D01*
X85310374Y-44681606D01*
X85186215Y-44735510D01*
X85053432Y-44792316D01*
X84916327Y-44850218D01*
X84779202Y-44907407D01*
X84646358Y-44962076D01*
X84522098Y-45012416D01*
X84410725Y-45056620D01*
X84316539Y-45092881D01*
X84243844Y-45119391D01*
X84196941Y-45134342D01*
X84180833Y-45136746D01*
X84160286Y-45117689D01*
X84126933Y-45075964D01*
X84087702Y-45020294D01*
X84084599Y-45015622D01*
X83969423Y-44871736D01*
X83835053Y-44755717D01*
X83685784Y-44668570D01*
X83525913Y-44611301D01*
X83359737Y-44584914D01*
X83191552Y-44590415D01*
X83025655Y-44628810D01*
X82866342Y-44701105D01*
X82831487Y-44722374D01*
X82690737Y-44833004D01*
X82577714Y-44963698D01*
X82493003Y-45109936D01*
X82437194Y-45267192D01*
X82410874Y-45430943D01*
X82414630Y-45596667D01*
X82449050Y-45759838D01*
X82514723Y-45915935D01*
X82612235Y-46060433D01*
X82651813Y-46105131D01*
X82775703Y-46218888D01*
X82906124Y-46301782D01*
X83052315Y-46358644D01*
X83197088Y-46390313D01*
X83359860Y-46398131D01*
X83523440Y-46372062D01*
X83682298Y-46314755D01*
X83830906Y-46228856D01*
X83963735Y-46117014D01*
X84075256Y-45981877D01*
X84087011Y-45964117D01*
X84125508Y-45907850D01*
X84158863Y-45865077D01*
X84180160Y-45844628D01*
X84180833Y-45844331D01*
X84203871Y-45848721D01*
X84256157Y-45866124D01*
X84333390Y-45894732D01*
X84431268Y-45932735D01*
X84545491Y-45978326D01*
X84671758Y-46029697D01*
X84805767Y-46085038D01*
X84943218Y-46142542D01*
X85079808Y-46200399D01*
X85211237Y-46256802D01*
X85333205Y-46309942D01*
X85441409Y-46358010D01*
X85531549Y-46399199D01*
X85599323Y-46431699D01*
X85640430Y-46453703D01*
X85651226Y-46462564D01*
X85642819Y-46489640D01*
X85620272Y-46540303D01*
X85587613Y-46605817D01*
X85568520Y-46641841D01*
X85485800Y-46794832D01*
X85609075Y-46977088D01*
X85672228Y-47070125D01*
X85741727Y-47171985D01*
X85807165Y-47267438D01*
X85840117Y-47315250D01*
X85885273Y-47382495D01*
X85921057Y-47439436D01*
X85942938Y-47478646D01*
X85947563Y-47491381D01*
X85935085Y-47509917D01*
X85900252Y-47550941D01*
X85846678Y-47610475D01*
X85777983Y-47684542D01*
X85697781Y-47769165D01*
X85646286Y-47822685D01*
X85554286Y-47916319D01*
X85471999Y-47997241D01*
X85402945Y-48062177D01*
X85350644Y-48107858D01*
X85318616Y-48131011D01*
X85312116Y-48133232D01*
X85287394Y-48122924D01*
X85237405Y-48094439D01*
X85167212Y-48050937D01*
X85081875Y-47995577D01*
X84986456Y-47931520D01*
X84959854Y-47913303D01*
X84863167Y-47846927D01*
X84776117Y-47787378D01*
X84703595Y-47737984D01*
X84650493Y-47702075D01*
X84621703Y-47682981D01*
X84618726Y-47681136D01*
X84595782Y-47683895D01*
X84545336Y-47698538D01*
X84474041Y-47722513D01*
X84388547Y-47753266D01*
X84295507Y-47788244D01*
X84201574Y-47824893D01*
X84113399Y-47860661D01*
X84037634Y-47892994D01*
X83980931Y-47919338D01*
X83949943Y-47937142D01*
X83948457Y-47938407D01*
X83939601Y-47949294D01*
X83930843Y-47967682D01*
X83921277Y-47997606D01*
X83909996Y-48043103D01*
X83896093Y-48108209D01*
X83878663Y-48196961D01*
X83856798Y-48313393D01*
X83829591Y-48461542D01*
X83823741Y-48493618D01*
X83805374Y-48588686D01*
X83787405Y-48671565D01*
X83771569Y-48734930D01*
X83759600Y-48771458D01*
X83756810Y-48776356D01*
X83732072Y-48784427D01*
X83676790Y-48790987D01*
X83597389Y-48796033D01*
X83500296Y-48799559D01*
X83391938Y-48801561D01*
X83278740Y-48802036D01*
X83167128Y-48800977D01*
X83063529Y-48798382D01*
X82974368Y-48794246D01*
X82906072Y-48788563D01*
X82865066Y-48781331D01*
X82856674Y-48776971D01*
X82848208Y-48752698D01*
X82834435Y-48697426D01*
X82816550Y-48616662D01*
X82795748Y-48515912D01*
X82773223Y-48400683D01*
X82761418Y-48337902D01*
X82739151Y-48218787D01*
X82718979Y-48112565D01*
X82701915Y-48024427D01*
X82688969Y-47959566D01*
X82681155Y-47923174D01*
X82679422Y-47917184D01*
X82659890Y-47907061D01*
X82612843Y-47885662D01*
X82545003Y-47855839D01*
X82463091Y-47820445D01*
X82373828Y-47782332D01*
X82283935Y-47744353D01*
X82200135Y-47709360D01*
X82129147Y-47680206D01*
X82077694Y-47659743D01*
X82052497Y-47650823D01*
X82051396Y-47650657D01*
X82031519Y-47660769D01*
X81985777Y-47689117D01*
X81918717Y-47732723D01*
X81834884Y-47788606D01*
X81738826Y-47853787D01*
X81683650Y-47891679D01*
X81582481Y-47960725D01*
X81490630Y-48022050D01*
X81412744Y-48072663D01*
X81353469Y-48109571D01*
X81317451Y-48129782D01*
X81309377Y-48132701D01*
X81290584Y-48120153D01*
X81250457Y-48085463D01*
X81193493Y-48033063D01*
X81124185Y-47967384D01*
X81047031Y-47892856D01*
X80966525Y-47813913D01*
X80887163Y-47734983D01*
X80813440Y-47660500D01*
X80749852Y-47594894D01*
X80700894Y-47542596D01*
X80671061Y-47508039D01*
X80663942Y-47496478D01*
X80673953Y-47477654D01*
X80702078Y-47432631D01*
X80745454Y-47365787D01*
X80801218Y-47281499D01*
X80866506Y-47184144D01*
X80916246Y-47110707D01*
X81168551Y-46739667D01*
X80913555Y-46121095D01*
X80468931Y-46037275D01*
X80024307Y-45953454D01*
X80024307Y-45028006D01*
X80468931Y-44944186D01*
X80913555Y-44860365D01*
X81041053Y-44551080D01*
X81168551Y-44241794D01*
X80916246Y-43870754D01*
X80845996Y-43766843D01*
X80783272Y-43672913D01*
X80730938Y-43593348D01*
X80691857Y-43532530D01*
X80668893Y-43494843D01*
X80663942Y-43484579D01*
X80676676Y-43466090D01*
X80711882Y-43426580D01*
X80765062Y-43370478D01*
X80831718Y-43302213D01*
X80907354Y-43226214D01*
X80987472Y-43146908D01*
X81067574Y-43068725D01*
X81143164Y-42996093D01*
X81209745Y-42933441D01*
X81262818Y-42885197D01*
X81297887Y-42855790D01*
X81309623Y-42848759D01*
X81331260Y-42858877D01*
X81378662Y-42887241D01*
X81447193Y-42930871D01*
X81532215Y-42986782D01*
X81629093Y-43051994D01*
X81684350Y-43089781D01*
X81785248Y-43158657D01*
X81876299Y-43219860D01*
X81952970Y-43270422D01*
X82010728Y-43307372D01*
X82045043Y-43327742D01*
X82052254Y-43330803D01*
X82072748Y-43323864D01*
X82120513Y-43304949D01*
X82188832Y-43276913D01*
X82270989Y-43242609D01*
X82360270Y-43204891D01*
X82449958Y-43166613D01*
X82533338Y-43130630D01*
X82603694Y-43099794D01*
X82654310Y-43076961D01*
X82678471Y-43064983D01*
X82679422Y-43064276D01*
X82684036Y-43045469D01*
X82694328Y-42995382D01*
X82709287Y-42919207D01*
X82727901Y-42822135D01*
X82749159Y-42709357D01*
X82761418Y-42643558D01*
X82784362Y-42523050D01*
X82806195Y-42414203D01*
X82825722Y-42322524D01*
X82841748Y-42253519D01*
X82853079Y-42212696D01*
X82856674Y-42204489D01*
X82881006Y-42196452D01*
X82935959Y-42189967D01*
X83015108Y-42185030D01*
X83112026Y-42181636D01*
X83220287Y-42179782D01*
X83333465Y-42179462D01*
X83445135Y-42180673D01*
D14*
%TO.C,J37*%
X67890000Y-63290000D02*
X67890000Y-72520000D01*
X78000000Y-66000000D02*
X78600000Y-65700000D01*
X67890000Y-72520000D02*
X77310000Y-72520000D01*
X71200000Y-63290000D02*
X71200000Y-72520000D01*
X77310000Y-67050000D02*
X77310000Y-68760000D01*
X77310000Y-63290000D02*
X67890000Y-63290000D01*
X77310000Y-63290000D02*
X77310000Y-64950000D01*
X77310000Y-72520000D02*
X77310000Y-70860000D01*
X78600000Y-65700000D02*
X78600000Y-66300000D01*
X78600000Y-66300000D02*
X78000000Y-66000000D01*
D13*
%TO.C,XA1*%
X172360000Y-54150000D02*
X172360000Y-42974000D01*
X170836000Y-41450000D02*
X172360000Y-42974000D01*
X73300000Y-41450000D02*
X170836000Y-41450000D01*
X73300000Y-94790000D02*
X172360000Y-94790000D01*
X174900000Y-56690000D02*
X172360000Y-54150000D01*
X73300000Y-41450000D02*
X73300000Y-94790000D01*
X174900000Y-90980000D02*
X174900000Y-56690000D01*
X172360000Y-93520000D02*
X174900000Y-90980000D01*
X172360000Y-94790000D02*
X172360000Y-93520000D01*
D14*
%TO.C,C1*%
X80000000Y-65629000D02*
X80460000Y-65629000D01*
X80585000Y-65309000D02*
X82415000Y-65309000D01*
X79351000Y-66309000D02*
X80460000Y-66309000D01*
X79775000Y-70304775D02*
X80275000Y-70304775D01*
X79276000Y-66429000D02*
X80460000Y-66429000D01*
X82540000Y-66149000D02*
X83535000Y-66149000D01*
X79020000Y-67029000D02*
X80460000Y-67029000D01*
X82540000Y-66629000D02*
X83829000Y-66629000D01*
X82540000Y-66189000D02*
X83565000Y-66189000D01*
X82540000Y-66229000D02*
X83595000Y-66229000D01*
X79378000Y-66269000D02*
X80460000Y-66269000D01*
X78920000Y-67710000D02*
X84080000Y-67710000D01*
X79072000Y-66869000D02*
X80460000Y-66869000D01*
X79435000Y-66189000D02*
X80460000Y-66189000D01*
X79636000Y-65949000D02*
X80460000Y-65949000D01*
X82540000Y-66509000D02*
X83768000Y-66509000D01*
X79496000Y-66109000D02*
X80460000Y-66109000D01*
X82540000Y-66389000D02*
X83700000Y-66389000D01*
X79190000Y-66589000D02*
X80460000Y-66589000D01*
X79563000Y-66029000D02*
X80460000Y-66029000D01*
X82540000Y-65909000D02*
X83326000Y-65909000D01*
X78950000Y-67350000D02*
X80460000Y-67350000D01*
X79152000Y-66669000D02*
X80460000Y-66669000D01*
X79715000Y-65869000D02*
X80460000Y-65869000D01*
X79032000Y-66989000D02*
X80460000Y-66989000D01*
X82540000Y-66549000D02*
X83790000Y-66549000D01*
X82540000Y-65949000D02*
X83364000Y-65949000D01*
X78980000Y-67190000D02*
X80460000Y-67190000D01*
X79895000Y-65709000D02*
X80460000Y-65709000D01*
X79045000Y-66949000D02*
X80460000Y-66949000D01*
X78944000Y-67390000D02*
X80460000Y-67390000D01*
X82540000Y-66269000D02*
X83622000Y-66269000D01*
X82540000Y-66829000D02*
X83914000Y-66829000D01*
X82540000Y-67510000D02*
X84069000Y-67510000D01*
X79325000Y-66349000D02*
X80460000Y-66349000D01*
X82540000Y-66589000D02*
X83810000Y-66589000D01*
X82540000Y-67190000D02*
X84020000Y-67190000D01*
X82540000Y-65869000D02*
X83285000Y-65869000D01*
X79058000Y-66909000D02*
X80460000Y-66909000D01*
X82540000Y-65669000D02*
X83054000Y-65669000D01*
X82540000Y-66309000D02*
X83649000Y-66309000D01*
X79253000Y-66469000D02*
X80460000Y-66469000D01*
X81216000Y-65149000D02*
X81784000Y-65149000D01*
X82540000Y-67029000D02*
X83980000Y-67029000D01*
X78957000Y-67310000D02*
X80460000Y-67310000D01*
X82540000Y-66949000D02*
X83955000Y-66949000D01*
X78939000Y-67430000D02*
X80460000Y-67430000D01*
X82540000Y-66909000D02*
X83942000Y-66909000D01*
X79946000Y-65669000D02*
X80460000Y-65669000D01*
X78931000Y-67510000D02*
X80460000Y-67510000D01*
X78920000Y-67750000D02*
X84080000Y-67750000D01*
X80181000Y-65509000D02*
X80460000Y-65509000D01*
X78935000Y-67470000D02*
X80460000Y-67470000D01*
X82540000Y-66989000D02*
X83968000Y-66989000D01*
X82540000Y-66789000D02*
X83898000Y-66789000D01*
X78999000Y-67110000D02*
X80460000Y-67110000D01*
X82540000Y-65509000D02*
X82819000Y-65509000D01*
X78921000Y-67670000D02*
X84079000Y-67670000D01*
X79171000Y-66629000D02*
X80460000Y-66629000D01*
X82540000Y-67470000D02*
X84065000Y-67470000D01*
X82540000Y-67350000D02*
X84050000Y-67350000D01*
X82540000Y-66029000D02*
X83437000Y-66029000D01*
X79086000Y-66829000D02*
X80460000Y-66829000D01*
X78927000Y-67550000D02*
X84073000Y-67550000D01*
X79118000Y-66749000D02*
X80460000Y-66749000D01*
X82540000Y-66349000D02*
X83675000Y-66349000D01*
X78989000Y-67150000D02*
X80460000Y-67150000D01*
X82540000Y-67230000D02*
X84028000Y-67230000D01*
X82540000Y-65709000D02*
X83105000Y-65709000D01*
X79405000Y-66229000D02*
X80460000Y-66229000D01*
X79210000Y-66549000D02*
X80460000Y-66549000D01*
X78964000Y-67270000D02*
X80460000Y-67270000D01*
X82540000Y-65549000D02*
X82883000Y-65549000D01*
X82540000Y-67270000D02*
X84036000Y-67270000D01*
X79009000Y-67070000D02*
X80460000Y-67070000D01*
X82540000Y-66469000D02*
X83747000Y-66469000D01*
X82540000Y-65989000D02*
X83401000Y-65989000D01*
X82540000Y-65469000D02*
X82751000Y-65469000D01*
X82540000Y-66749000D02*
X83882000Y-66749000D01*
X79529000Y-66069000D02*
X80460000Y-66069000D01*
X82540000Y-66869000D02*
X83928000Y-66869000D01*
X82540000Y-67430000D02*
X84061000Y-67430000D01*
X79232000Y-66509000D02*
X80460000Y-66509000D01*
X80402000Y-65389000D02*
X82598000Y-65389000D01*
X80322000Y-65429000D02*
X82678000Y-65429000D01*
X80489000Y-65349000D02*
X82511000Y-65349000D01*
X78972000Y-67230000D02*
X80460000Y-67230000D01*
X79135000Y-66709000D02*
X80460000Y-66709000D01*
X80117000Y-65549000D02*
X80460000Y-65549000D01*
X82540000Y-65829000D02*
X83243000Y-65829000D01*
X80695000Y-65269000D02*
X82305000Y-65269000D01*
X78922000Y-67630000D02*
X84078000Y-67630000D01*
X82540000Y-66069000D02*
X83471000Y-66069000D01*
X82540000Y-66709000D02*
X83865000Y-66709000D01*
X79674000Y-65909000D02*
X80460000Y-65909000D01*
X78924000Y-67590000D02*
X84076000Y-67590000D01*
X80982000Y-65189000D02*
X82018000Y-65189000D01*
X79300000Y-66389000D02*
X80460000Y-66389000D01*
X82540000Y-65629000D02*
X83000000Y-65629000D01*
X80249000Y-65469000D02*
X80460000Y-65469000D01*
X82540000Y-67310000D02*
X84043000Y-67310000D01*
X82540000Y-65749000D02*
X83153000Y-65749000D01*
X80025000Y-70554775D02*
X80025000Y-70054775D01*
X82540000Y-65589000D02*
X82943000Y-65589000D01*
X82540000Y-67070000D02*
X83991000Y-67070000D01*
X82540000Y-65789000D02*
X83199000Y-65789000D01*
X79599000Y-65989000D02*
X80460000Y-65989000D01*
X80823000Y-65229000D02*
X82177000Y-65229000D01*
X79757000Y-65829000D02*
X80460000Y-65829000D01*
X79465000Y-66149000D02*
X80460000Y-66149000D01*
X82540000Y-67390000D02*
X84056000Y-67390000D01*
X82540000Y-67110000D02*
X84001000Y-67110000D01*
X82540000Y-66109000D02*
X83504000Y-66109000D01*
X79102000Y-66789000D02*
X80460000Y-66789000D01*
X80057000Y-65589000D02*
X80460000Y-65589000D01*
X82540000Y-66669000D02*
X83848000Y-66669000D01*
X79847000Y-65749000D02*
X80460000Y-65749000D01*
X79801000Y-65789000D02*
X80460000Y-65789000D01*
X82540000Y-67150000D02*
X84011000Y-67150000D01*
X82540000Y-66429000D02*
X83724000Y-66429000D01*
X84120000Y-67750000D02*
G75*
G03*
X84120000Y-67750000I-2620000J0D01*
G01*
%TO.C,JP1*%
X93050000Y-91500000D02*
X90250000Y-91500000D01*
X90250000Y-91500000D02*
X90250000Y-89500000D01*
X90250000Y-89500000D02*
X93050000Y-89500000D01*
X93050000Y-89500000D02*
X93050000Y-91500000D01*
%TD*%
M02*
