%TF.GenerationSoftware,KiCad,Pcbnew,(6.0.5)*%
%TF.CreationDate,2022-07-11T22:22:59-04:00*%
%TF.ProjectId,MAXFeederShield,4d415846-6565-4646-9572-536869656c64,rev?*%
%TF.SameCoordinates,Original*%
%TF.FileFunction,Legend,Bot*%
%TF.FilePolarity,Positive*%
%FSLAX46Y46*%
G04 Gerber Fmt 4.6, Leading zero omitted, Abs format (unit mm)*
G04 Created by KiCad (PCBNEW (6.0.5)) date 2022-07-11 22:22:59*
%MOMM*%
%LPD*%
G01*
G04 APERTURE LIST*
%ADD10C,0.250000*%
G04 APERTURE END LIST*
D10*
X87266071Y-78428571D02*
X87599404Y-78428571D01*
X87599404Y-78952380D02*
X87599404Y-77952380D01*
X87123214Y-77952380D01*
X86408928Y-78428571D02*
X86266071Y-78476190D01*
X86218452Y-78523809D01*
X86170833Y-78619047D01*
X86170833Y-78761904D01*
X86218452Y-78857142D01*
X86266071Y-78904761D01*
X86361309Y-78952380D01*
X86742261Y-78952380D01*
X86742261Y-77952380D01*
X86408928Y-77952380D01*
X86313690Y-78000000D01*
X86266071Y-78047619D01*
X86218452Y-78142857D01*
X86218452Y-78238095D01*
X86266071Y-78333333D01*
X86313690Y-78380952D01*
X86408928Y-78428571D01*
X86742261Y-78428571D01*
X87647023Y-53404761D02*
X87504166Y-53452380D01*
X87266071Y-53452380D01*
X87170833Y-53404761D01*
X87123214Y-53357142D01*
X87075595Y-53261904D01*
X87075595Y-53166666D01*
X87123214Y-53071428D01*
X87170833Y-53023809D01*
X87266071Y-52976190D01*
X87456547Y-52928571D01*
X87551785Y-52880952D01*
X87599404Y-52833333D01*
X87647023Y-52738095D01*
X87647023Y-52642857D01*
X87599404Y-52547619D01*
X87551785Y-52500000D01*
X87456547Y-52452380D01*
X87218452Y-52452380D01*
X87075595Y-52500000D01*
X86647023Y-52928571D02*
X86313690Y-52928571D01*
X86170833Y-53452380D02*
X86647023Y-53452380D01*
X86647023Y-52452380D01*
X86170833Y-52452380D01*
X85170833Y-53452380D02*
X85504166Y-52976190D01*
X85742261Y-53452380D02*
X85742261Y-52452380D01*
X85361309Y-52452380D01*
X85266071Y-52500000D01*
X85218452Y-52547619D01*
X85170833Y-52642857D01*
X85170833Y-52785714D01*
X85218452Y-52880952D01*
X85266071Y-52928571D01*
X85361309Y-52976190D01*
X85742261Y-52976190D01*
X84885119Y-52452380D02*
X84551785Y-53452380D01*
X84218452Y-52452380D01*
X83694642Y-52452380D02*
X83504166Y-52452380D01*
X83408928Y-52500000D01*
X83313690Y-52595238D01*
X83266071Y-52785714D01*
X83266071Y-53119047D01*
X83313690Y-53309523D01*
X83408928Y-53404761D01*
X83504166Y-53452380D01*
X83694642Y-53452380D01*
X83789880Y-53404761D01*
X83885119Y-53309523D01*
X83932738Y-53119047D01*
X83932738Y-52785714D01*
X83885119Y-52595238D01*
X83789880Y-52500000D01*
X83694642Y-52452380D01*
X87075595Y-85500000D02*
X87170833Y-85452380D01*
X87313690Y-85452380D01*
X87456547Y-85500000D01*
X87551785Y-85595238D01*
X87599404Y-85690476D01*
X87647023Y-85880952D01*
X87647023Y-86023809D01*
X87599404Y-86214285D01*
X87551785Y-86309523D01*
X87456547Y-86404761D01*
X87313690Y-86452380D01*
X87218452Y-86452380D01*
X87075595Y-86404761D01*
X87027976Y-86357142D01*
X87027976Y-86023809D01*
X87218452Y-86023809D01*
X86599404Y-86452380D02*
X86599404Y-85452380D01*
X86027976Y-86452380D01*
X86027976Y-85452380D01*
X85551785Y-86452380D02*
X85551785Y-85452380D01*
X85313690Y-85452380D01*
X85170833Y-85500000D01*
X85075595Y-85595238D01*
X85027976Y-85690476D01*
X84980357Y-85880952D01*
X84980357Y-86023809D01*
X85027976Y-86214285D01*
X85075595Y-86309523D01*
X85170833Y-86404761D01*
X85313690Y-86452380D01*
X85551785Y-86452380D01*
X87123214Y-82952380D02*
X87599404Y-82952380D01*
X87647023Y-83428571D01*
X87599404Y-83380952D01*
X87504166Y-83333333D01*
X87266071Y-83333333D01*
X87170833Y-83380952D01*
X87123214Y-83428571D01*
X87075595Y-83523809D01*
X87075595Y-83761904D01*
X87123214Y-83857142D01*
X87170833Y-83904761D01*
X87266071Y-83952380D01*
X87504166Y-83952380D01*
X87599404Y-83904761D01*
X87647023Y-83857142D01*
X86789880Y-82952380D02*
X86456547Y-83952380D01*
X86123214Y-82952380D01*
X87647023Y-81404761D02*
X87504166Y-81452380D01*
X87266071Y-81452380D01*
X87170833Y-81404761D01*
X87123214Y-81357142D01*
X87075595Y-81261904D01*
X87075595Y-81166666D01*
X87123214Y-81071428D01*
X87170833Y-81023809D01*
X87266071Y-80976190D01*
X87456547Y-80928571D01*
X87551785Y-80880952D01*
X87599404Y-80833333D01*
X87647023Y-80738095D01*
X87647023Y-80642857D01*
X87599404Y-80547619D01*
X87551785Y-80500000D01*
X87456547Y-80452380D01*
X87218452Y-80452380D01*
X87075595Y-80500000D01*
X86647023Y-80928571D02*
X86313690Y-80928571D01*
X86170833Y-81452380D02*
X86647023Y-81452380D01*
X86647023Y-80452380D01*
X86170833Y-80452380D01*
X85170833Y-81452380D02*
X85504166Y-80976190D01*
X85742261Y-81452380D02*
X85742261Y-80452380D01*
X85361309Y-80452380D01*
X85266071Y-80500000D01*
X85218452Y-80547619D01*
X85170833Y-80642857D01*
X85170833Y-80785714D01*
X85218452Y-80880952D01*
X85266071Y-80928571D01*
X85361309Y-80976190D01*
X85742261Y-80976190D01*
X84885119Y-80452380D02*
X84551785Y-81452380D01*
X84218452Y-80452380D01*
X83694642Y-80452380D02*
X83504166Y-80452380D01*
X83408928Y-80500000D01*
X83313690Y-80595238D01*
X83266071Y-80785714D01*
X83266071Y-81119047D01*
X83313690Y-81309523D01*
X83408928Y-81404761D01*
X83504166Y-81452380D01*
X83694642Y-81452380D01*
X83789880Y-81404761D01*
X83885119Y-81309523D01*
X83932738Y-81119047D01*
X83932738Y-80785714D01*
X83885119Y-80595238D01*
X83789880Y-80500000D01*
X83694642Y-80452380D01*
X87123214Y-54952380D02*
X87599404Y-54952380D01*
X87647023Y-55428571D01*
X87599404Y-55380952D01*
X87504166Y-55333333D01*
X87266071Y-55333333D01*
X87170833Y-55380952D01*
X87123214Y-55428571D01*
X87075595Y-55523809D01*
X87075595Y-55761904D01*
X87123214Y-55857142D01*
X87170833Y-55904761D01*
X87266071Y-55952380D01*
X87504166Y-55952380D01*
X87599404Y-55904761D01*
X87647023Y-55857142D01*
X86789880Y-54952380D02*
X86456547Y-55952380D01*
X86123214Y-54952380D01*
X87075595Y-71500000D02*
X87170833Y-71452380D01*
X87313690Y-71452380D01*
X87456547Y-71500000D01*
X87551785Y-71595238D01*
X87599404Y-71690476D01*
X87647023Y-71880952D01*
X87647023Y-72023809D01*
X87599404Y-72214285D01*
X87551785Y-72309523D01*
X87456547Y-72404761D01*
X87313690Y-72452380D01*
X87218452Y-72452380D01*
X87075595Y-72404761D01*
X87027976Y-72357142D01*
X87027976Y-72023809D01*
X87218452Y-72023809D01*
X86599404Y-72452380D02*
X86599404Y-71452380D01*
X86027976Y-72452380D01*
X86027976Y-71452380D01*
X85551785Y-72452380D02*
X85551785Y-71452380D01*
X85313690Y-71452380D01*
X85170833Y-71500000D01*
X85075595Y-71595238D01*
X85027976Y-71690476D01*
X84980357Y-71880952D01*
X84980357Y-72023809D01*
X85027976Y-72214285D01*
X85075595Y-72309523D01*
X85170833Y-72404761D01*
X85313690Y-72452380D01*
X85551785Y-72452380D01*
X87123214Y-68952380D02*
X87599404Y-68952380D01*
X87647023Y-69428571D01*
X87599404Y-69380952D01*
X87504166Y-69333333D01*
X87266071Y-69333333D01*
X87170833Y-69380952D01*
X87123214Y-69428571D01*
X87075595Y-69523809D01*
X87075595Y-69761904D01*
X87123214Y-69857142D01*
X87170833Y-69904761D01*
X87266071Y-69952380D01*
X87504166Y-69952380D01*
X87599404Y-69904761D01*
X87647023Y-69857142D01*
X86789880Y-68952380D02*
X86456547Y-69952380D01*
X86123214Y-68952380D01*
X87266071Y-50428571D02*
X87599404Y-50428571D01*
X87599404Y-50952380D02*
X87599404Y-49952380D01*
X87123214Y-49952380D01*
X86408928Y-50428571D02*
X86266071Y-50476190D01*
X86218452Y-50523809D01*
X86170833Y-50619047D01*
X86170833Y-50761904D01*
X86218452Y-50857142D01*
X86266071Y-50904761D01*
X86361309Y-50952380D01*
X86742261Y-50952380D01*
X86742261Y-49952380D01*
X86408928Y-49952380D01*
X86313690Y-50000000D01*
X86266071Y-50047619D01*
X86218452Y-50142857D01*
X86218452Y-50238095D01*
X86266071Y-50333333D01*
X86313690Y-50380952D01*
X86408928Y-50428571D01*
X86742261Y-50428571D01*
X87266071Y-64428571D02*
X87599404Y-64428571D01*
X87599404Y-64952380D02*
X87599404Y-63952380D01*
X87123214Y-63952380D01*
X86408928Y-64428571D02*
X86266071Y-64476190D01*
X86218452Y-64523809D01*
X86170833Y-64619047D01*
X86170833Y-64761904D01*
X86218452Y-64857142D01*
X86266071Y-64904761D01*
X86361309Y-64952380D01*
X86742261Y-64952380D01*
X86742261Y-63952380D01*
X86408928Y-63952380D01*
X86313690Y-64000000D01*
X86266071Y-64047619D01*
X86218452Y-64142857D01*
X86218452Y-64238095D01*
X86266071Y-64333333D01*
X86313690Y-64380952D01*
X86408928Y-64428571D01*
X86742261Y-64428571D01*
X87075595Y-57500000D02*
X87170833Y-57452380D01*
X87313690Y-57452380D01*
X87456547Y-57500000D01*
X87551785Y-57595238D01*
X87599404Y-57690476D01*
X87647023Y-57880952D01*
X87647023Y-58023809D01*
X87599404Y-58214285D01*
X87551785Y-58309523D01*
X87456547Y-58404761D01*
X87313690Y-58452380D01*
X87218452Y-58452380D01*
X87075595Y-58404761D01*
X87027976Y-58357142D01*
X87027976Y-58023809D01*
X87218452Y-58023809D01*
X86599404Y-58452380D02*
X86599404Y-57452380D01*
X86027976Y-58452380D01*
X86027976Y-57452380D01*
X85551785Y-58452380D02*
X85551785Y-57452380D01*
X85313690Y-57452380D01*
X85170833Y-57500000D01*
X85075595Y-57595238D01*
X85027976Y-57690476D01*
X84980357Y-57880952D01*
X84980357Y-58023809D01*
X85027976Y-58214285D01*
X85075595Y-58309523D01*
X85170833Y-58404761D01*
X85313690Y-58452380D01*
X85551785Y-58452380D01*
X87647023Y-67404761D02*
X87504166Y-67452380D01*
X87266071Y-67452380D01*
X87170833Y-67404761D01*
X87123214Y-67357142D01*
X87075595Y-67261904D01*
X87075595Y-67166666D01*
X87123214Y-67071428D01*
X87170833Y-67023809D01*
X87266071Y-66976190D01*
X87456547Y-66928571D01*
X87551785Y-66880952D01*
X87599404Y-66833333D01*
X87647023Y-66738095D01*
X87647023Y-66642857D01*
X87599404Y-66547619D01*
X87551785Y-66500000D01*
X87456547Y-66452380D01*
X87218452Y-66452380D01*
X87075595Y-66500000D01*
X86647023Y-66928571D02*
X86313690Y-66928571D01*
X86170833Y-67452380D02*
X86647023Y-67452380D01*
X86647023Y-66452380D01*
X86170833Y-66452380D01*
X85170833Y-67452380D02*
X85504166Y-66976190D01*
X85742261Y-67452380D02*
X85742261Y-66452380D01*
X85361309Y-66452380D01*
X85266071Y-66500000D01*
X85218452Y-66547619D01*
X85170833Y-66642857D01*
X85170833Y-66785714D01*
X85218452Y-66880952D01*
X85266071Y-66928571D01*
X85361309Y-66976190D01*
X85742261Y-66976190D01*
X84885119Y-66452380D02*
X84551785Y-67452380D01*
X84218452Y-66452380D01*
X83694642Y-66452380D02*
X83504166Y-66452380D01*
X83408928Y-66500000D01*
X83313690Y-66595238D01*
X83266071Y-66785714D01*
X83266071Y-67119047D01*
X83313690Y-67309523D01*
X83408928Y-67404761D01*
X83504166Y-67452380D01*
X83694642Y-67452380D01*
X83789880Y-67404761D01*
X83885119Y-67309523D01*
X83932738Y-67119047D01*
X83932738Y-66785714D01*
X83885119Y-66595238D01*
X83789880Y-66500000D01*
X83694642Y-66452380D01*
M02*
