M48
; DRILL file {KiCad (6.0.5)} date Fri Jul  1 01:18:55 2022
; FORMAT={-:-/ absolute / inch / decimal}
; #@! TF.CreationDate,2022-07-01T01:18:55-04:00
; #@! TF.GenerationSoftware,Kicad,Pcbnew,(6.0.5)
; #@! TF.FileFunction,Plated,1,2,PTH
FMAT,2
INCH
; #@! TA.AperFunction,Plated,PTH,ViaDrill
T1C0.0157
; #@! TA.AperFunction,Plated,PTH,ComponentDrill
T2C0.0315
; #@! TA.AperFunction,Plated,PTH,ComponentDrill
T3C0.0374
; #@! TA.AperFunction,Plated,PTH,ComponentDrill
T4C0.0394
; #@! TA.AperFunction,Plated,PTH,ComponentDrill
T5C0.0400
; #@! TA.AperFunction,Plated,PTH,ComponentDrill
T6C0.0433
; #@! TA.AperFunction,Plated,PTH,ComponentDrill
T7C0.0472
%
G90
G05
T1
X3.6614Y-3.3858
X3.9173Y-3.4252
X4.1732Y-3.4252
X4.4291Y-3.4252
X4.685Y-3.4252
X4.9409Y-3.4252
X5.1969Y-3.4252
X5.4528Y-3.3858
X5.7087Y-3.3858
X5.9646Y-3.3858
T2
X3.2087Y-2.6181
X3.2087Y-2.7165
T3
X3.5177Y-1.9882
X3.5177Y-2.185
X3.5177Y-2.5394
X3.5177Y-2.7362
X3.5177Y-3.0906
X3.5177Y-3.2874
X3.5295Y-2.0866
X3.5295Y-2.2835
X3.5295Y-2.6378
X3.5295Y-2.8346
X3.5295Y-3.189
X3.5295Y-3.3858
X3.7736Y-1.9882
X3.7736Y-2.185
X3.7736Y-2.5394
X3.7736Y-2.7362
X3.7736Y-3.0906
X3.7736Y-3.2874
X3.7854Y-2.0866
X3.7854Y-2.2835
X3.7854Y-2.6378
X3.7854Y-2.8346
X3.7854Y-3.189
X3.7854Y-3.3858
X4.0295Y-1.9882
X4.0295Y-2.185
X4.0295Y-2.5394
X4.0295Y-2.7362
X4.0295Y-3.0906
X4.0295Y-3.2874
X4.0413Y-2.0866
X4.0413Y-2.2835
X4.0413Y-2.6378
X4.0413Y-2.8346
X4.0413Y-3.189
X4.0413Y-3.3858
X4.2854Y-1.9882
X4.2854Y-2.185
X4.2854Y-2.5394
X4.2854Y-2.7362
X4.2854Y-3.0906
X4.2854Y-3.2874
X4.2972Y-2.0866
X4.2972Y-2.2835
X4.2972Y-2.6378
X4.2972Y-2.8346
X4.2972Y-3.189
X4.2972Y-3.3858
X4.5413Y-1.9882
X4.5413Y-2.185
X4.5413Y-2.5394
X4.5413Y-2.7362
X4.5413Y-3.0906
X4.5413Y-3.2874
X4.5531Y-2.0866
X4.5531Y-2.2835
X4.5531Y-2.6378
X4.5531Y-2.8346
X4.5531Y-3.189
X4.5531Y-3.3858
X4.7972Y-1.9882
X4.7972Y-2.185
X4.7972Y-2.5394
X4.7972Y-2.7362
X4.7972Y-3.0906
X4.7972Y-3.2874
X4.8091Y-2.0866
X4.8091Y-2.2835
X4.8091Y-2.6378
X4.8091Y-2.8346
X4.8091Y-3.189
X4.8091Y-3.3858
X5.0531Y-1.9882
X5.0531Y-2.185
X5.0531Y-2.5394
X5.0531Y-2.7362
X5.0531Y-3.0906
X5.0531Y-3.2874
X5.065Y-2.0866
X5.065Y-2.2835
X5.065Y-2.6378
X5.065Y-2.8346
X5.065Y-3.189
X5.065Y-3.3858
X5.3091Y-1.9882
X5.3091Y-2.185
X5.3091Y-3.0906
X5.3091Y-3.2874
X5.3209Y-2.0866
X5.3209Y-2.2835
X5.3209Y-3.189
X5.3209Y-3.3858
X5.565Y-1.9882
X5.565Y-2.185
X5.565Y-3.0906
X5.565Y-3.2874
X5.5768Y-2.0866
X5.5768Y-2.2835
X5.5768Y-3.189
X5.5768Y-3.3858
X5.8209Y-1.9882
X5.8209Y-2.185
X5.8209Y-2.5394
X5.8209Y-2.7362
X5.8209Y-3.0906
X5.8209Y-3.2874
X5.8327Y-2.0866
X5.8327Y-2.2835
X5.8327Y-2.6378
X5.8327Y-2.8346
X5.8327Y-3.189
X5.8327Y-3.3858
X6.0768Y-1.9882
X6.0768Y-2.185
X6.0768Y-2.5394
X6.0768Y-2.7362
X6.0768Y-3.0906
X6.0768Y-3.2874
X6.0886Y-2.0866
X6.0886Y-2.2835
X6.0886Y-2.6378
X6.0886Y-2.8346
X6.0886Y-3.189
X6.0886Y-3.3858
X6.3327Y-1.9882
X6.3327Y-2.185
X6.3327Y-2.5394
X6.3327Y-2.7362
X6.3327Y-3.0906
X6.3327Y-3.2874
X6.3445Y-2.0866
X6.3445Y-2.2835
X6.3445Y-2.6378
X6.3445Y-2.8346
X6.3445Y-3.189
X6.3445Y-3.3858
T5
X3.6258Y-1.7319
X3.7258Y-1.7319
X3.8258Y-1.7319
X3.9258Y-1.7319
X3.9858Y-3.6319
X4.0258Y-1.7319
X4.0858Y-3.6319
X4.1258Y-1.7319
X4.1858Y-3.6319
X4.2258Y-1.7319
X4.2858Y-3.6319
X4.3258Y-1.7319
X4.3858Y-3.6319
X4.4258Y-1.7319
X4.4858Y-3.6319
X4.5258Y-1.7319
X4.5858Y-3.6319
X4.6858Y-1.7319
X4.6858Y-3.6319
X4.7858Y-1.7319
X4.8858Y-1.7319
X4.8858Y-3.6319
X4.9858Y-1.7319
X4.9858Y-3.6319
X5.0858Y-1.7319
X5.0858Y-3.6319
X5.1858Y-1.7319
X5.1858Y-3.6319
X5.2858Y-1.7319
X5.2858Y-3.6319
X5.3858Y-1.7319
X5.3858Y-3.6319
X5.3908Y-2.5319
X5.3908Y-2.6319
X5.3908Y-2.7319
X5.4858Y-3.6319
X5.4908Y-2.5319
X5.4908Y-2.6319
X5.4908Y-2.7319
X5.5858Y-1.7319
X5.5858Y-3.6319
X5.6858Y-1.7319
X5.7858Y-1.7319
X5.7858Y-3.6319
X5.8858Y-1.7319
X5.8858Y-3.6319
X5.9858Y-1.7319
X5.9858Y-3.6319
X6.0858Y-1.7319
X6.0858Y-3.6319
X6.1858Y-1.7319
X6.1858Y-3.6319
X6.2858Y-1.7319
X6.2858Y-3.6319
X6.3858Y-3.6319
X6.4858Y-3.6319
X6.5858Y-1.7319
X6.5858Y-1.8319
X6.5858Y-1.9319
X6.5858Y-2.0319
X6.5858Y-2.1319
X6.5858Y-2.2319
X6.5858Y-2.3319
X6.5858Y-2.4319
X6.5858Y-2.5319
X6.5858Y-2.6319
X6.5858Y-2.7319
X6.5858Y-2.8319
X6.5858Y-2.9319
X6.5858Y-3.0319
X6.5858Y-3.1319
X6.5858Y-3.2319
X6.5858Y-3.3319
X6.5858Y-3.4319
X6.6858Y-1.7319
X6.6858Y-1.8319
X6.6858Y-1.9319
X6.6858Y-2.0319
X6.6858Y-2.1319
X6.6858Y-2.2319
X6.6858Y-2.3319
X6.6858Y-2.4319
X6.6858Y-2.5319
X6.6858Y-2.6319
X6.6858Y-2.7319
X6.6858Y-2.8319
X6.6858Y-2.9319
X6.6858Y-3.0319
X6.6858Y-3.1319
X6.6858Y-3.2319
X6.6858Y-3.3319
X6.6858Y-3.4319
T6
X2.9724Y-3.4449
X2.9724Y-3.622
X3.2283Y-3.4449
X3.2283Y-3.622
T7
X2.9921Y-2.6012
X2.9921Y-2.7457
T4
G00X2.9724Y-3.0315
M15
G01X2.9724Y-3.1102
M16
G05
G00X3.0512Y-3.2559
M15
G01X3.1299Y-3.2559
M16
G05
G00X3.2087Y-3.0315
M15
G01X3.2087Y-3.1102
M16
G05
T0
M30
