%TF.GenerationSoftware,KiCad,Pcbnew,(6.0.5)*%
%TF.CreationDate,2022-07-01T01:18:53-04:00*%
%TF.ProjectId,MAXFeederShield,4d415846-6565-4646-9572-536869656c64,rev?*%
%TF.SameCoordinates,Original*%
%TF.FileFunction,Soldermask,Top*%
%TF.FilePolarity,Negative*%
%FSLAX46Y46*%
G04 Gerber Fmt 4.6, Leading zero omitted, Abs format (unit mm)*
G04 Created by KiCad (PCBNEW (6.0.5)) date 2022-07-01 01:18:53*
%MOMM*%
%LPD*%
G01*
G04 APERTURE LIST*
G04 Aperture macros list*
%AMRoundRect*
0 Rectangle with rounded corners*
0 $1 Rounding radius*
0 $2 $3 $4 $5 $6 $7 $8 $9 X,Y pos of 4 corners*
0 Add a 4 corners polygon primitive as box body*
4,1,4,$2,$3,$4,$5,$6,$7,$8,$9,$2,$3,0*
0 Add four circle primitives for the rounded corners*
1,1,$1+$1,$2,$3*
1,1,$1+$1,$4,$5*
1,1,$1+$1,$6,$7*
1,1,$1+$1,$8,$9*
0 Add four rect primitives between the rounded corners*
20,1,$1+$1,$2,$3,$4,$5,0*
20,1,$1+$1,$4,$5,$6,$7,0*
20,1,$1+$1,$6,$7,$8,$9,0*
20,1,$1+$1,$8,$9,$2,$3,0*%
G04 Aperture macros list end*
%ADD10RoundRect,0.250000X-0.725000X0.600000X-0.725000X-0.600000X0.725000X-0.600000X0.725000X0.600000X0*%
%ADD11O,1.950000X1.700000*%
%ADD12R,3.500000X3.500000*%
%ADD13RoundRect,0.750000X-0.750000X-1.000000X0.750000X-1.000000X0.750000X1.000000X-0.750000X1.000000X0*%
%ADD14RoundRect,0.875000X-0.875000X-0.875000X0.875000X-0.875000X0.875000X0.875000X-0.875000X0.875000X0*%
%ADD15C,2.000000*%
%ADD16RoundRect,0.250000X-1.550000X0.650000X-1.550000X-0.650000X1.550000X-0.650000X1.550000X0.650000X0*%
%ADD17O,3.600000X1.800000*%
%ADD18O,1.727200X1.727200*%
%ADD19R,1.600000X1.600000*%
%ADD20C,1.600000*%
%ADD21R,1.000000X1.500000*%
G04 APERTURE END LIST*
D10*
%TO.C,J34*%
X147850000Y-78500000D03*
D11*
X148150000Y-81000000D03*
X147850000Y-83500000D03*
X148150000Y-86000000D03*
%TD*%
D10*
%TO.C,J8*%
X128350000Y-50500000D03*
D11*
X128650000Y-53000000D03*
X128350000Y-55500000D03*
X128650000Y-58000000D03*
%TD*%
D10*
%TO.C,J25*%
X89350000Y-78500000D03*
D11*
X89650000Y-81000000D03*
X89350000Y-83500000D03*
X89650000Y-86000000D03*
%TD*%
D12*
%TO.C,J2*%
X81500000Y-78000000D03*
D13*
X75500000Y-78000000D03*
D14*
X78500000Y-82700000D03*
%TD*%
D10*
%TO.C,J28*%
X108850000Y-78500000D03*
D11*
X109150000Y-81000000D03*
X108850000Y-83500000D03*
X109150000Y-86000000D03*
%TD*%
D10*
%TO.C,J35*%
X154350000Y-78500000D03*
D11*
X154650000Y-81000000D03*
X154350000Y-83500000D03*
X154650000Y-86000000D03*
%TD*%
D10*
%TO.C,J3*%
X95850000Y-50500000D03*
D11*
X96150000Y-53000000D03*
X95850000Y-55500000D03*
X96150000Y-58000000D03*
%TD*%
D10*
%TO.C,J1*%
X89350000Y-50500000D03*
D11*
X89650000Y-53000000D03*
X89350000Y-55500000D03*
X89650000Y-58000000D03*
%TD*%
D10*
%TO.C,J26*%
X95850000Y-78500000D03*
D11*
X96150000Y-81000000D03*
X95850000Y-83500000D03*
X96150000Y-86000000D03*
%TD*%
D10*
%TO.C,J20*%
X128350000Y-64500000D03*
D11*
X128650000Y-67000000D03*
X128350000Y-69500000D03*
X128650000Y-72000000D03*
%TD*%
D10*
%TO.C,J11*%
X147850000Y-50500000D03*
D11*
X148150000Y-53000000D03*
X147850000Y-55500000D03*
X148150000Y-58000000D03*
%TD*%
D10*
%TO.C,J13*%
X160850000Y-50500000D03*
D11*
X161150000Y-53000000D03*
X160850000Y-55500000D03*
X161150000Y-58000000D03*
%TD*%
D10*
%TO.C,J32*%
X134850000Y-78500000D03*
D11*
X135150000Y-81000000D03*
X134850000Y-83500000D03*
X135150000Y-86000000D03*
%TD*%
D10*
%TO.C,J29*%
X115350000Y-78500000D03*
D11*
X115650000Y-81000000D03*
X115350000Y-83500000D03*
X115650000Y-86000000D03*
%TD*%
D10*
%TO.C,J19*%
X121850000Y-64500000D03*
D11*
X122150000Y-67000000D03*
X121850000Y-69500000D03*
X122150000Y-72000000D03*
%TD*%
D15*
%TO.C,SW1*%
X82000000Y-92000000D03*
X75500000Y-92000000D03*
X82000000Y-87500000D03*
X75500000Y-87500000D03*
%TD*%
D10*
%TO.C,J33*%
X141350000Y-78500000D03*
D11*
X141650000Y-81000000D03*
X141350000Y-83500000D03*
X141650000Y-86000000D03*
%TD*%
D10*
%TO.C,J22*%
X147850000Y-64500000D03*
D11*
X148150000Y-67000000D03*
X147850000Y-69500000D03*
X148150000Y-72000000D03*
%TD*%
D10*
%TO.C,J18*%
X115350000Y-64500000D03*
D11*
X115650000Y-67000000D03*
X115350000Y-69500000D03*
X115650000Y-72000000D03*
%TD*%
D10*
%TO.C,J9*%
X134850000Y-50500000D03*
D11*
X135150000Y-53000000D03*
X134850000Y-55500000D03*
X135150000Y-58000000D03*
%TD*%
D10*
%TO.C,J23*%
X154350000Y-64500000D03*
D11*
X154650000Y-67000000D03*
X154350000Y-69500000D03*
X154650000Y-72000000D03*
%TD*%
D10*
%TO.C,J31*%
X128350000Y-78500000D03*
D11*
X128650000Y-81000000D03*
X128350000Y-83500000D03*
X128650000Y-86000000D03*
%TD*%
D16*
%TO.C,J37*%
X76000000Y-66070000D03*
D17*
X76000000Y-69740000D03*
%TD*%
D10*
%TO.C,J36*%
X160850000Y-78500000D03*
D11*
X161150000Y-81000000D03*
X160850000Y-83500000D03*
X161150000Y-86000000D03*
%TD*%
D10*
%TO.C,J6*%
X115350000Y-50500000D03*
D11*
X115650000Y-53000000D03*
X115350000Y-55500000D03*
X115650000Y-58000000D03*
%TD*%
D18*
%TO.C,XA1*%
X101240000Y-92250000D03*
X108860000Y-92250000D03*
X111400000Y-92250000D03*
X139467000Y-64310000D03*
X167280000Y-43990000D03*
X169820000Y-43990000D03*
X124100000Y-92250000D03*
X126640000Y-92250000D03*
X129180000Y-92250000D03*
X131720000Y-92250000D03*
X134260000Y-92250000D03*
X136800000Y-92250000D03*
X139340000Y-92250000D03*
X141880000Y-92250000D03*
X146960000Y-92250000D03*
X149500000Y-92250000D03*
X152040000Y-92250000D03*
X154580000Y-92250000D03*
X157120000Y-92250000D03*
X159660000Y-92250000D03*
X162200000Y-92250000D03*
X164740000Y-92250000D03*
X97176000Y-43990000D03*
X136800000Y-43990000D03*
X134260000Y-43990000D03*
X131720000Y-43990000D03*
X129180000Y-43990000D03*
X126640000Y-43990000D03*
X124100000Y-43990000D03*
X121560000Y-43990000D03*
X119020000Y-43990000D03*
X114956000Y-43990000D03*
X112416000Y-43990000D03*
X109876000Y-43990000D03*
X107336000Y-43990000D03*
X104796000Y-43990000D03*
X102256000Y-43990000D03*
X141880000Y-43990000D03*
X144420000Y-43990000D03*
X146960000Y-43990000D03*
X149500000Y-43990000D03*
X152040000Y-43990000D03*
X154580000Y-43990000D03*
X157120000Y-43990000D03*
X159660000Y-43990000D03*
X167280000Y-46530000D03*
X169820000Y-46530000D03*
X167280000Y-49070000D03*
X169820000Y-49070000D03*
X167280000Y-51610000D03*
X169820000Y-51610000D03*
X167280000Y-54150000D03*
X169820000Y-54150000D03*
X167280000Y-56690000D03*
X169820000Y-56690000D03*
X167280000Y-59230000D03*
X169820000Y-59230000D03*
X167280000Y-61770000D03*
X169820000Y-61770000D03*
X167280000Y-64310000D03*
X169820000Y-64310000D03*
X167280000Y-66850000D03*
X169820000Y-66850000D03*
X167280000Y-69390000D03*
X169820000Y-69390000D03*
X167280000Y-71930000D03*
X169820000Y-71930000D03*
X167280000Y-74470000D03*
X169820000Y-74470000D03*
X167280000Y-77010000D03*
X169820000Y-77010000D03*
X167280000Y-79550000D03*
X169820000Y-79550000D03*
X167280000Y-82090000D03*
X169820000Y-82090000D03*
X167280000Y-84630000D03*
X169820000Y-84630000D03*
X99716000Y-43990000D03*
X113940000Y-92250000D03*
X116480000Y-92250000D03*
X139467000Y-69390000D03*
X167280000Y-87170000D03*
X169820000Y-87170000D03*
X103780000Y-92250000D03*
X136927000Y-64310000D03*
X139467000Y-66850000D03*
X106320000Y-92250000D03*
X136927000Y-69390000D03*
X136927000Y-66850000D03*
X92096000Y-43990000D03*
X94636000Y-43990000D03*
X119020000Y-92250000D03*
%TD*%
D10*
%TO.C,J17*%
X108850000Y-64500000D03*
D11*
X109150000Y-67000000D03*
X108850000Y-69500000D03*
X109150000Y-72000000D03*
%TD*%
D10*
%TO.C,J12*%
X154350000Y-50500000D03*
D11*
X154650000Y-53000000D03*
X154350000Y-55500000D03*
X154650000Y-58000000D03*
%TD*%
D10*
%TO.C,J4*%
X102350000Y-50500000D03*
D11*
X102650000Y-53000000D03*
X102350000Y-55500000D03*
X102650000Y-58000000D03*
%TD*%
D10*
%TO.C,J16*%
X102350000Y-64500000D03*
D11*
X102650000Y-67000000D03*
X102350000Y-69500000D03*
X102650000Y-72000000D03*
%TD*%
D10*
%TO.C,J27*%
X102350000Y-78500000D03*
D11*
X102650000Y-81000000D03*
X102350000Y-83500000D03*
X102650000Y-86000000D03*
%TD*%
D10*
%TO.C,J24*%
X160850000Y-64500000D03*
D11*
X161150000Y-67000000D03*
X160850000Y-69500000D03*
X161150000Y-72000000D03*
%TD*%
D10*
%TO.C,J10*%
X141350000Y-50500000D03*
D11*
X141650000Y-53000000D03*
X141350000Y-55500000D03*
X141650000Y-58000000D03*
%TD*%
D10*
%TO.C,J7*%
X121850000Y-50500000D03*
D11*
X122150000Y-53000000D03*
X121850000Y-55500000D03*
X122150000Y-58000000D03*
%TD*%
D19*
%TO.C,C1*%
X81500000Y-69000000D03*
D20*
X81500000Y-66500000D03*
%TD*%
D10*
%TO.C,J30*%
X121850000Y-78500000D03*
D11*
X122150000Y-81000000D03*
X121850000Y-83500000D03*
X122150000Y-86000000D03*
%TD*%
D10*
%TO.C,J15*%
X95850000Y-64500000D03*
D11*
X96150000Y-67000000D03*
X95850000Y-69500000D03*
X96150000Y-72000000D03*
%TD*%
D10*
%TO.C,J5*%
X108850000Y-50500000D03*
D11*
X109150000Y-53000000D03*
X108850000Y-55500000D03*
X109150000Y-58000000D03*
%TD*%
D10*
%TO.C,J14*%
X89350000Y-64500000D03*
D11*
X89650000Y-67000000D03*
X89350000Y-69500000D03*
X89650000Y-72000000D03*
%TD*%
D21*
%TO.C,JP1*%
X92300000Y-90500000D03*
X91000000Y-90500000D03*
%TD*%
M02*
