%FSLAX45Y45*%
G04 Gerber Fmt 4.5, Leading zero omitted, Abs format (unit mm)*
G04 Created by KiCad (PCBNEW (6.0.5)) date 2022-07-11 22:23:02*
%MOMM*%
%LPD*%
G01*
G04 APERTURE LIST*
%TA.AperFunction,Profile*%
%ADD10C,0.100000*%
%TD*%
%ADD11C,0.200000*%
G04 APERTURE END LIST*
D10*
X17250000Y-4100000D02*
X7300000Y-4100000D01*
X7300000Y-4100000D02*
X7300000Y-9550000D01*
X7300000Y-9550000D02*
X17450000Y-9550000D01*
X17450000Y-4300000D02*
X17250000Y-4100000D01*
X17450000Y-5400000D02*
X17450000Y-4300000D01*
X17450000Y-9550000D02*
X17450000Y-5400000D01*
D11*
X7552619Y-9865476D02*
X7552619Y-9665476D01*
X7600238Y-9665476D01*
X7628809Y-9675000D01*
X7647857Y-9694048D01*
X7657381Y-9713095D01*
X7666905Y-9751190D01*
X7666905Y-9779762D01*
X7657381Y-9817857D01*
X7647857Y-9836905D01*
X7628809Y-9855952D01*
X7600238Y-9865476D01*
X7552619Y-9865476D01*
X7752619Y-9865476D02*
X7752619Y-9732143D01*
X7752619Y-9770238D02*
X7762143Y-9751190D01*
X7771667Y-9741667D01*
X7790714Y-9732143D01*
X7809762Y-9732143D01*
X7876428Y-9865476D02*
X7876428Y-9732143D01*
X7876428Y-9665476D02*
X7866905Y-9675000D01*
X7876428Y-9684524D01*
X7885952Y-9675000D01*
X7876428Y-9665476D01*
X7876428Y-9684524D01*
X8000238Y-9865476D02*
X7981190Y-9855952D01*
X7971667Y-9836905D01*
X7971667Y-9665476D01*
X8105000Y-9865476D02*
X8085952Y-9855952D01*
X8076428Y-9836905D01*
X8076428Y-9665476D01*
X8333571Y-9865476D02*
X8333571Y-9665476D01*
X8400238Y-9808333D01*
X8466905Y-9665476D01*
X8466905Y-9865476D01*
X8647857Y-9865476D02*
X8647857Y-9760714D01*
X8638333Y-9741667D01*
X8619286Y-9732143D01*
X8581190Y-9732143D01*
X8562143Y-9741667D01*
X8647857Y-9855952D02*
X8628810Y-9865476D01*
X8581190Y-9865476D01*
X8562143Y-9855952D01*
X8552619Y-9836905D01*
X8552619Y-9817857D01*
X8562143Y-9798810D01*
X8581190Y-9789286D01*
X8628810Y-9789286D01*
X8647857Y-9779762D01*
X8743095Y-9732143D02*
X8743095Y-9932143D01*
X8743095Y-9741667D02*
X8762143Y-9732143D01*
X8800238Y-9732143D01*
X8819286Y-9741667D01*
X8828810Y-9751190D01*
X8838333Y-9770238D01*
X8838333Y-9827381D01*
X8828810Y-9846429D01*
X8819286Y-9855952D01*
X8800238Y-9865476D01*
X8762143Y-9865476D01*
X8743095Y-9855952D01*
X8924048Y-9846429D02*
X8933571Y-9855952D01*
X8924048Y-9865476D01*
X8914524Y-9855952D01*
X8924048Y-9846429D01*
X8924048Y-9865476D01*
X8924048Y-9741667D02*
X8933571Y-9751190D01*
X8924048Y-9760714D01*
X8914524Y-9751190D01*
X8924048Y-9741667D01*
X8924048Y-9760714D01*
M02*
