%FSLAX45Y45*%
G04 Gerber Fmt 4.5, Leading zero omitted, Abs format (unit mm)*
G04 Created by KiCad (PCBNEW (6.0.5)) date 2022-07-01 01:18:56*
%MOMM*%
%LPD*%
G01*
G04 APERTURE LIST*
%TA.AperFunction,Profile*%
%ADD10C,0.100000*%
%TD*%
%ADD11C,0.200000*%
%ADD12C,0.040000*%
%ADD13C,0.080000*%
%ADD14C,0.095000*%
%ADD15C,0.100000*%
%ADD16C,0.101600*%
%ADD17C,0.110000*%
%ADD18C,0.120000*%
G04 APERTURE END LIST*
D10*
X17250000Y-4100000D02*
X7300000Y-4100000D01*
X7300000Y-4100000D02*
X7300000Y-9550000D01*
X7300000Y-9550000D02*
X17450000Y-9550000D01*
X17450000Y-4300000D02*
X17250000Y-4100000D01*
X17450000Y-5400000D02*
X17450000Y-4300000D01*
X17450000Y-9550000D02*
X17450000Y-5400000D01*
D11*
D12*
X9280000Y-8580000D02*
X9320000Y-8620000D01*
X9320000Y-8580000D02*
X9280000Y-8620000D01*
X9930000Y-8680000D02*
X9970000Y-8720000D01*
X9970000Y-8680000D02*
X9930000Y-8720000D01*
X10580000Y-8680000D02*
X10620000Y-8720000D01*
X10620000Y-8680000D02*
X10580000Y-8720000D01*
X11230000Y-8680000D02*
X11270000Y-8720000D01*
X11270000Y-8680000D02*
X11230000Y-8720000D01*
X11880000Y-8680000D02*
X11920000Y-8720000D01*
X11920000Y-8680000D02*
X11880000Y-8720000D01*
X12530000Y-8680000D02*
X12570000Y-8720000D01*
X12570000Y-8680000D02*
X12530000Y-8720000D01*
X13180000Y-8680000D02*
X13220000Y-8720000D01*
X13220000Y-8680000D02*
X13180000Y-8720000D01*
X13830000Y-8580000D02*
X13870000Y-8620000D01*
X13870000Y-8580000D02*
X13830000Y-8620000D01*
X14480000Y-8580000D02*
X14520000Y-8620000D01*
X14520000Y-8580000D02*
X14480000Y-8620000D01*
X15130000Y-8580000D02*
X15170000Y-8620000D01*
X15170000Y-8580000D02*
X15130000Y-8620000D01*
D13*
X8190000Y-6650000D02*
G75*
G03*
X8190000Y-6650000I-40000J0D01*
G01*
X8190000Y-6900000D02*
G75*
G03*
X8190000Y-6900000I-40000J0D01*
G01*
D14*
X8935000Y-5002500D02*
X8935000Y-5097500D01*
X8887500Y-5050000D02*
X8982500Y-5050000D01*
X8935000Y-5502500D02*
X8935000Y-5597500D01*
X8887500Y-5550000D02*
X8982500Y-5550000D01*
X8935000Y-6402500D02*
X8935000Y-6497500D01*
X8887500Y-6450000D02*
X8982500Y-6450000D01*
X8935000Y-6902500D02*
X8935000Y-6997500D01*
X8887500Y-6950000D02*
X8982500Y-6950000D01*
X8935000Y-7802500D02*
X8935000Y-7897500D01*
X8887500Y-7850000D02*
X8982500Y-7850000D01*
X8935000Y-8302500D02*
X8935000Y-8397500D01*
X8887500Y-8350000D02*
X8982500Y-8350000D01*
X8965000Y-5252500D02*
X8965000Y-5347500D01*
X8917500Y-5300000D02*
X9012500Y-5300000D01*
X8965000Y-5752500D02*
X8965000Y-5847500D01*
X8917500Y-5800000D02*
X9012500Y-5800000D01*
X8965000Y-6652500D02*
X8965000Y-6747500D01*
X8917500Y-6700000D02*
X9012500Y-6700000D01*
X8965000Y-7152500D02*
X8965000Y-7247500D01*
X8917500Y-7200000D02*
X9012500Y-7200000D01*
X8965000Y-8052500D02*
X8965000Y-8147500D01*
X8917500Y-8100000D02*
X9012500Y-8100000D01*
X8965000Y-8552500D02*
X8965000Y-8647500D01*
X8917500Y-8600000D02*
X9012500Y-8600000D01*
X9585000Y-5002500D02*
X9585000Y-5097500D01*
X9537500Y-5050000D02*
X9632500Y-5050000D01*
X9585000Y-5502500D02*
X9585000Y-5597500D01*
X9537500Y-5550000D02*
X9632500Y-5550000D01*
X9585000Y-6402500D02*
X9585000Y-6497500D01*
X9537500Y-6450000D02*
X9632500Y-6450000D01*
X9585000Y-6902500D02*
X9585000Y-6997500D01*
X9537500Y-6950000D02*
X9632500Y-6950000D01*
X9585000Y-7802500D02*
X9585000Y-7897500D01*
X9537500Y-7850000D02*
X9632500Y-7850000D01*
X9585000Y-8302500D02*
X9585000Y-8397500D01*
X9537500Y-8350000D02*
X9632500Y-8350000D01*
X9615000Y-5252500D02*
X9615000Y-5347500D01*
X9567500Y-5300000D02*
X9662500Y-5300000D01*
X9615000Y-5752500D02*
X9615000Y-5847500D01*
X9567500Y-5800000D02*
X9662500Y-5800000D01*
X9615000Y-6652500D02*
X9615000Y-6747500D01*
X9567500Y-6700000D02*
X9662500Y-6700000D01*
X9615000Y-7152500D02*
X9615000Y-7247500D01*
X9567500Y-7200000D02*
X9662500Y-7200000D01*
X9615000Y-8052500D02*
X9615000Y-8147500D01*
X9567500Y-8100000D02*
X9662500Y-8100000D01*
X9615000Y-8552500D02*
X9615000Y-8647500D01*
X9567500Y-8600000D02*
X9662500Y-8600000D01*
X10235000Y-5002500D02*
X10235000Y-5097500D01*
X10187500Y-5050000D02*
X10282500Y-5050000D01*
X10235000Y-5502500D02*
X10235000Y-5597500D01*
X10187500Y-5550000D02*
X10282500Y-5550000D01*
X10235000Y-6402500D02*
X10235000Y-6497500D01*
X10187500Y-6450000D02*
X10282500Y-6450000D01*
X10235000Y-6902500D02*
X10235000Y-6997500D01*
X10187500Y-6950000D02*
X10282500Y-6950000D01*
X10235000Y-7802500D02*
X10235000Y-7897500D01*
X10187500Y-7850000D02*
X10282500Y-7850000D01*
X10235000Y-8302500D02*
X10235000Y-8397500D01*
X10187500Y-8350000D02*
X10282500Y-8350000D01*
X10265000Y-5252500D02*
X10265000Y-5347500D01*
X10217500Y-5300000D02*
X10312500Y-5300000D01*
X10265000Y-5752500D02*
X10265000Y-5847500D01*
X10217500Y-5800000D02*
X10312500Y-5800000D01*
X10265000Y-6652500D02*
X10265000Y-6747500D01*
X10217500Y-6700000D02*
X10312500Y-6700000D01*
X10265000Y-7152500D02*
X10265000Y-7247500D01*
X10217500Y-7200000D02*
X10312500Y-7200000D01*
X10265000Y-8052500D02*
X10265000Y-8147500D01*
X10217500Y-8100000D02*
X10312500Y-8100000D01*
X10265000Y-8552500D02*
X10265000Y-8647500D01*
X10217500Y-8600000D02*
X10312500Y-8600000D01*
X10885000Y-5002500D02*
X10885000Y-5097500D01*
X10837500Y-5050000D02*
X10932500Y-5050000D01*
X10885000Y-5502500D02*
X10885000Y-5597500D01*
X10837500Y-5550000D02*
X10932500Y-5550000D01*
X10885000Y-6402500D02*
X10885000Y-6497500D01*
X10837500Y-6450000D02*
X10932500Y-6450000D01*
X10885000Y-6902500D02*
X10885000Y-6997500D01*
X10837500Y-6950000D02*
X10932500Y-6950000D01*
X10885000Y-7802500D02*
X10885000Y-7897500D01*
X10837500Y-7850000D02*
X10932500Y-7850000D01*
X10885000Y-8302500D02*
X10885000Y-8397500D01*
X10837500Y-8350000D02*
X10932500Y-8350000D01*
X10915000Y-5252500D02*
X10915000Y-5347500D01*
X10867500Y-5300000D02*
X10962500Y-5300000D01*
X10915000Y-5752500D02*
X10915000Y-5847500D01*
X10867500Y-5800000D02*
X10962500Y-5800000D01*
X10915000Y-6652500D02*
X10915000Y-6747500D01*
X10867500Y-6700000D02*
X10962500Y-6700000D01*
X10915000Y-7152500D02*
X10915000Y-7247500D01*
X10867500Y-7200000D02*
X10962500Y-7200000D01*
X10915000Y-8052500D02*
X10915000Y-8147500D01*
X10867500Y-8100000D02*
X10962500Y-8100000D01*
X10915000Y-8552500D02*
X10915000Y-8647500D01*
X10867500Y-8600000D02*
X10962500Y-8600000D01*
X11535000Y-5002500D02*
X11535000Y-5097500D01*
X11487500Y-5050000D02*
X11582500Y-5050000D01*
X11535000Y-5502500D02*
X11535000Y-5597500D01*
X11487500Y-5550000D02*
X11582500Y-5550000D01*
X11535000Y-6402500D02*
X11535000Y-6497500D01*
X11487500Y-6450000D02*
X11582500Y-6450000D01*
X11535000Y-6902500D02*
X11535000Y-6997500D01*
X11487500Y-6950000D02*
X11582500Y-6950000D01*
X11535000Y-7802500D02*
X11535000Y-7897500D01*
X11487500Y-7850000D02*
X11582500Y-7850000D01*
X11535000Y-8302500D02*
X11535000Y-8397500D01*
X11487500Y-8350000D02*
X11582500Y-8350000D01*
X11565000Y-5252500D02*
X11565000Y-5347500D01*
X11517500Y-5300000D02*
X11612500Y-5300000D01*
X11565000Y-5752500D02*
X11565000Y-5847500D01*
X11517500Y-5800000D02*
X11612500Y-5800000D01*
X11565000Y-6652500D02*
X11565000Y-6747500D01*
X11517500Y-6700000D02*
X11612500Y-6700000D01*
X11565000Y-7152500D02*
X11565000Y-7247500D01*
X11517500Y-7200000D02*
X11612500Y-7200000D01*
X11565000Y-8052500D02*
X11565000Y-8147500D01*
X11517500Y-8100000D02*
X11612500Y-8100000D01*
X11565000Y-8552500D02*
X11565000Y-8647500D01*
X11517500Y-8600000D02*
X11612500Y-8600000D01*
X12185000Y-5002500D02*
X12185000Y-5097500D01*
X12137500Y-5050000D02*
X12232500Y-5050000D01*
X12185000Y-5502500D02*
X12185000Y-5597500D01*
X12137500Y-5550000D02*
X12232500Y-5550000D01*
X12185000Y-6402500D02*
X12185000Y-6497500D01*
X12137500Y-6450000D02*
X12232500Y-6450000D01*
X12185000Y-6902500D02*
X12185000Y-6997500D01*
X12137500Y-6950000D02*
X12232500Y-6950000D01*
X12185000Y-7802500D02*
X12185000Y-7897500D01*
X12137500Y-7850000D02*
X12232500Y-7850000D01*
X12185000Y-8302500D02*
X12185000Y-8397500D01*
X12137500Y-8350000D02*
X12232500Y-8350000D01*
X12215000Y-5252500D02*
X12215000Y-5347500D01*
X12167500Y-5300000D02*
X12262500Y-5300000D01*
X12215000Y-5752500D02*
X12215000Y-5847500D01*
X12167500Y-5800000D02*
X12262500Y-5800000D01*
X12215000Y-6652500D02*
X12215000Y-6747500D01*
X12167500Y-6700000D02*
X12262500Y-6700000D01*
X12215000Y-7152500D02*
X12215000Y-7247500D01*
X12167500Y-7200000D02*
X12262500Y-7200000D01*
X12215000Y-8052500D02*
X12215000Y-8147500D01*
X12167500Y-8100000D02*
X12262500Y-8100000D01*
X12215000Y-8552500D02*
X12215000Y-8647500D01*
X12167500Y-8600000D02*
X12262500Y-8600000D01*
X12835000Y-5002500D02*
X12835000Y-5097500D01*
X12787500Y-5050000D02*
X12882500Y-5050000D01*
X12835000Y-5502500D02*
X12835000Y-5597500D01*
X12787500Y-5550000D02*
X12882500Y-5550000D01*
X12835000Y-6402500D02*
X12835000Y-6497500D01*
X12787500Y-6450000D02*
X12882500Y-6450000D01*
X12835000Y-6902500D02*
X12835000Y-6997500D01*
X12787500Y-6950000D02*
X12882500Y-6950000D01*
X12835000Y-7802500D02*
X12835000Y-7897500D01*
X12787500Y-7850000D02*
X12882500Y-7850000D01*
X12835000Y-8302500D02*
X12835000Y-8397500D01*
X12787500Y-8350000D02*
X12882500Y-8350000D01*
X12865000Y-5252500D02*
X12865000Y-5347500D01*
X12817500Y-5300000D02*
X12912500Y-5300000D01*
X12865000Y-5752500D02*
X12865000Y-5847500D01*
X12817500Y-5800000D02*
X12912500Y-5800000D01*
X12865000Y-6652500D02*
X12865000Y-6747500D01*
X12817500Y-6700000D02*
X12912500Y-6700000D01*
X12865000Y-7152500D02*
X12865000Y-7247500D01*
X12817500Y-7200000D02*
X12912500Y-7200000D01*
X12865000Y-8052500D02*
X12865000Y-8147500D01*
X12817500Y-8100000D02*
X12912500Y-8100000D01*
X12865000Y-8552500D02*
X12865000Y-8647500D01*
X12817500Y-8600000D02*
X12912500Y-8600000D01*
X13485000Y-5002500D02*
X13485000Y-5097500D01*
X13437500Y-5050000D02*
X13532500Y-5050000D01*
X13485000Y-5502500D02*
X13485000Y-5597500D01*
X13437500Y-5550000D02*
X13532500Y-5550000D01*
X13485000Y-7802500D02*
X13485000Y-7897500D01*
X13437500Y-7850000D02*
X13532500Y-7850000D01*
X13485000Y-8302500D02*
X13485000Y-8397500D01*
X13437500Y-8350000D02*
X13532500Y-8350000D01*
X13515000Y-5252500D02*
X13515000Y-5347500D01*
X13467500Y-5300000D02*
X13562500Y-5300000D01*
X13515000Y-5752500D02*
X13515000Y-5847500D01*
X13467500Y-5800000D02*
X13562500Y-5800000D01*
X13515000Y-8052500D02*
X13515000Y-8147500D01*
X13467500Y-8100000D02*
X13562500Y-8100000D01*
X13515000Y-8552500D02*
X13515000Y-8647500D01*
X13467500Y-8600000D02*
X13562500Y-8600000D01*
X14135000Y-5002500D02*
X14135000Y-5097500D01*
X14087500Y-5050000D02*
X14182500Y-5050000D01*
X14135000Y-5502500D02*
X14135000Y-5597500D01*
X14087500Y-5550000D02*
X14182500Y-5550000D01*
X14135000Y-7802500D02*
X14135000Y-7897500D01*
X14087500Y-7850000D02*
X14182500Y-7850000D01*
X14135000Y-8302500D02*
X14135000Y-8397500D01*
X14087500Y-8350000D02*
X14182500Y-8350000D01*
X14165000Y-5252500D02*
X14165000Y-5347500D01*
X14117500Y-5300000D02*
X14212500Y-5300000D01*
X14165000Y-5752500D02*
X14165000Y-5847500D01*
X14117500Y-5800000D02*
X14212500Y-5800000D01*
X14165000Y-8052500D02*
X14165000Y-8147500D01*
X14117500Y-8100000D02*
X14212500Y-8100000D01*
X14165000Y-8552500D02*
X14165000Y-8647500D01*
X14117500Y-8600000D02*
X14212500Y-8600000D01*
X14785000Y-5002500D02*
X14785000Y-5097500D01*
X14737500Y-5050000D02*
X14832500Y-5050000D01*
X14785000Y-5502500D02*
X14785000Y-5597500D01*
X14737500Y-5550000D02*
X14832500Y-5550000D01*
X14785000Y-6402500D02*
X14785000Y-6497500D01*
X14737500Y-6450000D02*
X14832500Y-6450000D01*
X14785000Y-6902500D02*
X14785000Y-6997500D01*
X14737500Y-6950000D02*
X14832500Y-6950000D01*
X14785000Y-7802500D02*
X14785000Y-7897500D01*
X14737500Y-7850000D02*
X14832500Y-7850000D01*
X14785000Y-8302500D02*
X14785000Y-8397500D01*
X14737500Y-8350000D02*
X14832500Y-8350000D01*
X14815000Y-5252500D02*
X14815000Y-5347500D01*
X14767500Y-5300000D02*
X14862500Y-5300000D01*
X14815000Y-5752500D02*
X14815000Y-5847500D01*
X14767500Y-5800000D02*
X14862500Y-5800000D01*
X14815000Y-6652500D02*
X14815000Y-6747500D01*
X14767500Y-6700000D02*
X14862500Y-6700000D01*
X14815000Y-7152500D02*
X14815000Y-7247500D01*
X14767500Y-7200000D02*
X14862500Y-7200000D01*
X14815000Y-8052500D02*
X14815000Y-8147500D01*
X14767500Y-8100000D02*
X14862500Y-8100000D01*
X14815000Y-8552500D02*
X14815000Y-8647500D01*
X14767500Y-8600000D02*
X14862500Y-8600000D01*
X15435000Y-5002500D02*
X15435000Y-5097500D01*
X15387500Y-5050000D02*
X15482500Y-5050000D01*
X15435000Y-5502500D02*
X15435000Y-5597500D01*
X15387500Y-5550000D02*
X15482500Y-5550000D01*
X15435000Y-6402500D02*
X15435000Y-6497500D01*
X15387500Y-6450000D02*
X15482500Y-6450000D01*
X15435000Y-6902500D02*
X15435000Y-6997500D01*
X15387500Y-6950000D02*
X15482500Y-6950000D01*
X15435000Y-7802500D02*
X15435000Y-7897500D01*
X15387500Y-7850000D02*
X15482500Y-7850000D01*
X15435000Y-8302500D02*
X15435000Y-8397500D01*
X15387500Y-8350000D02*
X15482500Y-8350000D01*
X15465000Y-5252500D02*
X15465000Y-5347500D01*
X15417500Y-5300000D02*
X15512500Y-5300000D01*
X15465000Y-5752500D02*
X15465000Y-5847500D01*
X15417500Y-5800000D02*
X15512500Y-5800000D01*
X15465000Y-6652500D02*
X15465000Y-6747500D01*
X15417500Y-6700000D02*
X15512500Y-6700000D01*
X15465000Y-7152500D02*
X15465000Y-7247500D01*
X15417500Y-7200000D02*
X15512500Y-7200000D01*
X15465000Y-8052500D02*
X15465000Y-8147500D01*
X15417500Y-8100000D02*
X15512500Y-8100000D01*
X15465000Y-8552500D02*
X15465000Y-8647500D01*
X15417500Y-8600000D02*
X15512500Y-8600000D01*
X16085000Y-5002500D02*
X16085000Y-5097500D01*
X16037500Y-5050000D02*
X16132500Y-5050000D01*
X16085000Y-5502500D02*
X16085000Y-5597500D01*
X16037500Y-5550000D02*
X16132500Y-5550000D01*
X16085000Y-6402500D02*
X16085000Y-6497500D01*
X16037500Y-6450000D02*
X16132500Y-6450000D01*
X16085000Y-6902500D02*
X16085000Y-6997500D01*
X16037500Y-6950000D02*
X16132500Y-6950000D01*
X16085000Y-7802500D02*
X16085000Y-7897500D01*
X16037500Y-7850000D02*
X16132500Y-7850000D01*
X16085000Y-8302500D02*
X16085000Y-8397500D01*
X16037500Y-8350000D02*
X16132500Y-8350000D01*
X16115000Y-5252500D02*
X16115000Y-5347500D01*
X16067500Y-5300000D02*
X16162500Y-5300000D01*
X16115000Y-5752500D02*
X16115000Y-5847500D01*
X16067500Y-5800000D02*
X16162500Y-5800000D01*
X16115000Y-6652500D02*
X16115000Y-6747500D01*
X16067500Y-6700000D02*
X16162500Y-6700000D01*
X16115000Y-7152500D02*
X16115000Y-7247500D01*
X16067500Y-7200000D02*
X16162500Y-7200000D01*
X16115000Y-8052500D02*
X16115000Y-8147500D01*
X16067500Y-8100000D02*
X16162500Y-8100000D01*
X16115000Y-8552500D02*
X16115000Y-8647500D01*
X16067500Y-8600000D02*
X16162500Y-8600000D01*
D15*
X7585356Y-7835356D02*
X7585356Y-7764644D01*
X7514644Y-7764644D01*
X7514644Y-7835356D01*
X7585356Y-7835356D01*
D11*
X7510000Y-7700000D02*
X7510000Y-7900000D01*
X7590000Y-7700000D02*
X7590000Y-7900000D01*
X7510000Y-7900000D02*
G75*
G03*
X7590000Y-7900000I40000J0D01*
G01*
X7590000Y-7700000D02*
G75*
G03*
X7510000Y-7700000I-40000J0D01*
G01*
D15*
X7885356Y-8305356D02*
X7885356Y-8234644D01*
X7814644Y-8234644D01*
X7814644Y-8305356D01*
X7885356Y-8305356D01*
D11*
X7750000Y-8310000D02*
X7950000Y-8310000D01*
X7750000Y-8230000D02*
X7950000Y-8230000D01*
X7950000Y-8310000D02*
G75*
G03*
X7950000Y-8230000I0J40000D01*
G01*
X7750000Y-8230000D02*
G75*
G03*
X7750000Y-8310000I0J-40000D01*
G01*
D15*
X8185356Y-7835356D02*
X8185356Y-7764644D01*
X8114644Y-7764644D01*
X8114644Y-7835356D01*
X8185356Y-7835356D01*
D11*
X8110000Y-7700000D02*
X8110000Y-7900000D01*
X8190000Y-7700000D02*
X8190000Y-7900000D01*
X8110000Y-7900000D02*
G75*
G03*
X8190000Y-7900000I40000J0D01*
G01*
X8190000Y-7700000D02*
G75*
G03*
X8110000Y-7700000I-40000J0D01*
G01*
D16*
X9209600Y-4449800D02*
X9260400Y-4399000D01*
X9209600Y-4348200D01*
X9158800Y-4399000D01*
X9209600Y-4449800D01*
X9463600Y-4449800D02*
X9514400Y-4399000D01*
X9463600Y-4348200D01*
X9412800Y-4399000D01*
X9463600Y-4449800D01*
X9717600Y-4449800D02*
X9768400Y-4399000D01*
X9717600Y-4348200D01*
X9666800Y-4399000D01*
X9717600Y-4449800D01*
X9971600Y-4449800D02*
X10022400Y-4399000D01*
X9971600Y-4348200D01*
X9920800Y-4399000D01*
X9971600Y-4449800D01*
X10124000Y-9275800D02*
X10174800Y-9225000D01*
X10124000Y-9174200D01*
X10073200Y-9225000D01*
X10124000Y-9275800D01*
X10225600Y-4449800D02*
X10276400Y-4399000D01*
X10225600Y-4348200D01*
X10174800Y-4399000D01*
X10225600Y-4449800D01*
X10378000Y-9275800D02*
X10428800Y-9225000D01*
X10378000Y-9174200D01*
X10327200Y-9225000D01*
X10378000Y-9275800D01*
X10479600Y-4449800D02*
X10530400Y-4399000D01*
X10479600Y-4348200D01*
X10428800Y-4399000D01*
X10479600Y-4449800D01*
X10632000Y-9275800D02*
X10682800Y-9225000D01*
X10632000Y-9174200D01*
X10581200Y-9225000D01*
X10632000Y-9275800D01*
X10733600Y-4449800D02*
X10784400Y-4399000D01*
X10733600Y-4348200D01*
X10682800Y-4399000D01*
X10733600Y-4449800D01*
X10886000Y-9275800D02*
X10936800Y-9225000D01*
X10886000Y-9174200D01*
X10835200Y-9225000D01*
X10886000Y-9275800D01*
X10987600Y-4449800D02*
X11038400Y-4399000D01*
X10987600Y-4348200D01*
X10936800Y-4399000D01*
X10987600Y-4449800D01*
X11140000Y-9275800D02*
X11190800Y-9225000D01*
X11140000Y-9174200D01*
X11089200Y-9225000D01*
X11140000Y-9275800D01*
X11241600Y-4449800D02*
X11292400Y-4399000D01*
X11241600Y-4348200D01*
X11190800Y-4399000D01*
X11241600Y-4449800D01*
X11394000Y-9275800D02*
X11444800Y-9225000D01*
X11394000Y-9174200D01*
X11343200Y-9225000D01*
X11394000Y-9275800D01*
X11495600Y-4449800D02*
X11546400Y-4399000D01*
X11495600Y-4348200D01*
X11444800Y-4399000D01*
X11495600Y-4449800D01*
X11648000Y-9275800D02*
X11698800Y-9225000D01*
X11648000Y-9174200D01*
X11597200Y-9225000D01*
X11648000Y-9275800D01*
X11902000Y-4449800D02*
X11952800Y-4399000D01*
X11902000Y-4348200D01*
X11851200Y-4399000D01*
X11902000Y-4449800D01*
X11902000Y-9275800D02*
X11952800Y-9225000D01*
X11902000Y-9174200D01*
X11851200Y-9225000D01*
X11902000Y-9275800D01*
X12156000Y-4449800D02*
X12206800Y-4399000D01*
X12156000Y-4348200D01*
X12105200Y-4399000D01*
X12156000Y-4449800D01*
X12410000Y-4449800D02*
X12460800Y-4399000D01*
X12410000Y-4348200D01*
X12359200Y-4399000D01*
X12410000Y-4449800D01*
X12410000Y-9275800D02*
X12460800Y-9225000D01*
X12410000Y-9174200D01*
X12359200Y-9225000D01*
X12410000Y-9275800D01*
X12664000Y-4449800D02*
X12714800Y-4399000D01*
X12664000Y-4348200D01*
X12613200Y-4399000D01*
X12664000Y-4449800D01*
X12664000Y-9275800D02*
X12714800Y-9225000D01*
X12664000Y-9174200D01*
X12613200Y-9225000D01*
X12664000Y-9275800D01*
X12918000Y-4449800D02*
X12968800Y-4399000D01*
X12918000Y-4348200D01*
X12867200Y-4399000D01*
X12918000Y-4449800D01*
X12918000Y-9275800D02*
X12968800Y-9225000D01*
X12918000Y-9174200D01*
X12867200Y-9225000D01*
X12918000Y-9275800D01*
X13172000Y-4449800D02*
X13222800Y-4399000D01*
X13172000Y-4348200D01*
X13121200Y-4399000D01*
X13172000Y-4449800D01*
X13172000Y-9275800D02*
X13222800Y-9225000D01*
X13172000Y-9174200D01*
X13121200Y-9225000D01*
X13172000Y-9275800D01*
X13426000Y-4449800D02*
X13476800Y-4399000D01*
X13426000Y-4348200D01*
X13375200Y-4399000D01*
X13426000Y-4449800D01*
X13426000Y-9275800D02*
X13476800Y-9225000D01*
X13426000Y-9174200D01*
X13375200Y-9225000D01*
X13426000Y-9275800D01*
X13680000Y-4449800D02*
X13730800Y-4399000D01*
X13680000Y-4348200D01*
X13629200Y-4399000D01*
X13680000Y-4449800D01*
X13680000Y-9275800D02*
X13730800Y-9225000D01*
X13680000Y-9174200D01*
X13629200Y-9225000D01*
X13680000Y-9275800D01*
X13692700Y-6481800D02*
X13743500Y-6431000D01*
X13692700Y-6380200D01*
X13641900Y-6431000D01*
X13692700Y-6481800D01*
X13692700Y-6735800D02*
X13743500Y-6685000D01*
X13692700Y-6634200D01*
X13641900Y-6685000D01*
X13692700Y-6735800D01*
X13692700Y-6989800D02*
X13743500Y-6939000D01*
X13692700Y-6888200D01*
X13641900Y-6939000D01*
X13692700Y-6989800D01*
X13934000Y-9275800D02*
X13984800Y-9225000D01*
X13934000Y-9174200D01*
X13883200Y-9225000D01*
X13934000Y-9275800D01*
X13946700Y-6481800D02*
X13997500Y-6431000D01*
X13946700Y-6380200D01*
X13895900Y-6431000D01*
X13946700Y-6481800D01*
X13946700Y-6735800D02*
X13997500Y-6685000D01*
X13946700Y-6634200D01*
X13895900Y-6685000D01*
X13946700Y-6735800D01*
X13946700Y-6989800D02*
X13997500Y-6939000D01*
X13946700Y-6888200D01*
X13895900Y-6939000D01*
X13946700Y-6989800D01*
X14188000Y-4449800D02*
X14238800Y-4399000D01*
X14188000Y-4348200D01*
X14137200Y-4399000D01*
X14188000Y-4449800D01*
X14188000Y-9275800D02*
X14238800Y-9225000D01*
X14188000Y-9174200D01*
X14137200Y-9225000D01*
X14188000Y-9275800D01*
X14442000Y-4449800D02*
X14492800Y-4399000D01*
X14442000Y-4348200D01*
X14391200Y-4399000D01*
X14442000Y-4449800D01*
X14696000Y-4449800D02*
X14746800Y-4399000D01*
X14696000Y-4348200D01*
X14645200Y-4399000D01*
X14696000Y-4449800D01*
X14696000Y-9275800D02*
X14746800Y-9225000D01*
X14696000Y-9174200D01*
X14645200Y-9225000D01*
X14696000Y-9275800D01*
X14950000Y-4449800D02*
X15000800Y-4399000D01*
X14950000Y-4348200D01*
X14899200Y-4399000D01*
X14950000Y-4449800D01*
X14950000Y-9275800D02*
X15000800Y-9225000D01*
X14950000Y-9174200D01*
X14899200Y-9225000D01*
X14950000Y-9275800D01*
X15204000Y-4449800D02*
X15254800Y-4399000D01*
X15204000Y-4348200D01*
X15153200Y-4399000D01*
X15204000Y-4449800D01*
X15204000Y-9275800D02*
X15254800Y-9225000D01*
X15204000Y-9174200D01*
X15153200Y-9225000D01*
X15204000Y-9275800D01*
X15458000Y-4449800D02*
X15508800Y-4399000D01*
X15458000Y-4348200D01*
X15407200Y-4399000D01*
X15458000Y-4449800D01*
X15458000Y-9275800D02*
X15508800Y-9225000D01*
X15458000Y-9174200D01*
X15407200Y-9225000D01*
X15458000Y-9275800D01*
X15712000Y-4449800D02*
X15762800Y-4399000D01*
X15712000Y-4348200D01*
X15661200Y-4399000D01*
X15712000Y-4449800D01*
X15712000Y-9275800D02*
X15762800Y-9225000D01*
X15712000Y-9174200D01*
X15661200Y-9225000D01*
X15712000Y-9275800D01*
X15966000Y-4449800D02*
X16016800Y-4399000D01*
X15966000Y-4348200D01*
X15915200Y-4399000D01*
X15966000Y-4449800D01*
X15966000Y-9275800D02*
X16016800Y-9225000D01*
X15966000Y-9174200D01*
X15915200Y-9225000D01*
X15966000Y-9275800D01*
X16220000Y-9275800D02*
X16270800Y-9225000D01*
X16220000Y-9174200D01*
X16169200Y-9225000D01*
X16220000Y-9275800D01*
X16474000Y-9275800D02*
X16524800Y-9225000D01*
X16474000Y-9174200D01*
X16423200Y-9225000D01*
X16474000Y-9275800D01*
X16728000Y-4449800D02*
X16778800Y-4399000D01*
X16728000Y-4348200D01*
X16677200Y-4399000D01*
X16728000Y-4449800D01*
X16728000Y-4703800D02*
X16778800Y-4653000D01*
X16728000Y-4602200D01*
X16677200Y-4653000D01*
X16728000Y-4703800D01*
X16728000Y-4957800D02*
X16778800Y-4907000D01*
X16728000Y-4856200D01*
X16677200Y-4907000D01*
X16728000Y-4957800D01*
X16728000Y-5211800D02*
X16778800Y-5161000D01*
X16728000Y-5110200D01*
X16677200Y-5161000D01*
X16728000Y-5211800D01*
X16728000Y-5465800D02*
X16778800Y-5415000D01*
X16728000Y-5364200D01*
X16677200Y-5415000D01*
X16728000Y-5465800D01*
X16728000Y-5719800D02*
X16778800Y-5669000D01*
X16728000Y-5618200D01*
X16677200Y-5669000D01*
X16728000Y-5719800D01*
X16728000Y-5973800D02*
X16778800Y-5923000D01*
X16728000Y-5872200D01*
X16677200Y-5923000D01*
X16728000Y-5973800D01*
X16728000Y-6227800D02*
X16778800Y-6177000D01*
X16728000Y-6126200D01*
X16677200Y-6177000D01*
X16728000Y-6227800D01*
X16728000Y-6481800D02*
X16778800Y-6431000D01*
X16728000Y-6380200D01*
X16677200Y-6431000D01*
X16728000Y-6481800D01*
X16728000Y-6735800D02*
X16778800Y-6685000D01*
X16728000Y-6634200D01*
X16677200Y-6685000D01*
X16728000Y-6735800D01*
X16728000Y-6989800D02*
X16778800Y-6939000D01*
X16728000Y-6888200D01*
X16677200Y-6939000D01*
X16728000Y-6989800D01*
X16728000Y-7243800D02*
X16778800Y-7193000D01*
X16728000Y-7142200D01*
X16677200Y-7193000D01*
X16728000Y-7243800D01*
X16728000Y-7497800D02*
X16778800Y-7447000D01*
X16728000Y-7396200D01*
X16677200Y-7447000D01*
X16728000Y-7497800D01*
X16728000Y-7751800D02*
X16778800Y-7701000D01*
X16728000Y-7650200D01*
X16677200Y-7701000D01*
X16728000Y-7751800D01*
X16728000Y-8005800D02*
X16778800Y-7955000D01*
X16728000Y-7904200D01*
X16677200Y-7955000D01*
X16728000Y-8005800D01*
X16728000Y-8259800D02*
X16778800Y-8209000D01*
X16728000Y-8158200D01*
X16677200Y-8209000D01*
X16728000Y-8259800D01*
X16728000Y-8513800D02*
X16778800Y-8463000D01*
X16728000Y-8412200D01*
X16677200Y-8463000D01*
X16728000Y-8513800D01*
X16728000Y-8767800D02*
X16778800Y-8717000D01*
X16728000Y-8666200D01*
X16677200Y-8717000D01*
X16728000Y-8767800D01*
X16982000Y-4449800D02*
X17032800Y-4399000D01*
X16982000Y-4348200D01*
X16931200Y-4399000D01*
X16982000Y-4449800D01*
X16982000Y-4703800D02*
X17032800Y-4653000D01*
X16982000Y-4602200D01*
X16931200Y-4653000D01*
X16982000Y-4703800D01*
X16982000Y-4957800D02*
X17032800Y-4907000D01*
X16982000Y-4856200D01*
X16931200Y-4907000D01*
X16982000Y-4957800D01*
X16982000Y-5211800D02*
X17032800Y-5161000D01*
X16982000Y-5110200D01*
X16931200Y-5161000D01*
X16982000Y-5211800D01*
X16982000Y-5465800D02*
X17032800Y-5415000D01*
X16982000Y-5364200D01*
X16931200Y-5415000D01*
X16982000Y-5465800D01*
X16982000Y-5719800D02*
X17032800Y-5669000D01*
X16982000Y-5618200D01*
X16931200Y-5669000D01*
X16982000Y-5719800D01*
X16982000Y-5973800D02*
X17032800Y-5923000D01*
X16982000Y-5872200D01*
X16931200Y-5923000D01*
X16982000Y-5973800D01*
X16982000Y-6227800D02*
X17032800Y-6177000D01*
X16982000Y-6126200D01*
X16931200Y-6177000D01*
X16982000Y-6227800D01*
X16982000Y-6481800D02*
X17032800Y-6431000D01*
X16982000Y-6380200D01*
X16931200Y-6431000D01*
X16982000Y-6481800D01*
X16982000Y-6735800D02*
X17032800Y-6685000D01*
X16982000Y-6634200D01*
X16931200Y-6685000D01*
X16982000Y-6735800D01*
X16982000Y-6989800D02*
X17032800Y-6939000D01*
X16982000Y-6888200D01*
X16931200Y-6939000D01*
X16982000Y-6989800D01*
X16982000Y-7243800D02*
X17032800Y-7193000D01*
X16982000Y-7142200D01*
X16931200Y-7193000D01*
X16982000Y-7243800D01*
X16982000Y-7497800D02*
X17032800Y-7447000D01*
X16982000Y-7396200D01*
X16931200Y-7447000D01*
X16982000Y-7497800D01*
X16982000Y-7751800D02*
X17032800Y-7701000D01*
X16982000Y-7650200D01*
X16931200Y-7701000D01*
X16982000Y-7751800D01*
X16982000Y-8005800D02*
X17032800Y-7955000D01*
X16982000Y-7904200D01*
X16931200Y-7955000D01*
X16982000Y-8005800D01*
X16982000Y-8259800D02*
X17032800Y-8209000D01*
X16982000Y-8158200D01*
X16931200Y-8209000D01*
X16982000Y-8259800D01*
X16982000Y-8513800D02*
X17032800Y-8463000D01*
X16982000Y-8412200D01*
X16931200Y-8463000D01*
X16982000Y-8513800D01*
X16982000Y-8767800D02*
X17032800Y-8717000D01*
X16982000Y-8666200D01*
X16931200Y-8717000D01*
X16982000Y-8767800D01*
D17*
X7495000Y-8695000D02*
X7605000Y-8805000D01*
X7605000Y-8695000D02*
X7495000Y-8805000D01*
X7605000Y-8750000D02*
G75*
G03*
X7605000Y-8750000I-55000J0D01*
G01*
X7495000Y-9145000D02*
X7605000Y-9255000D01*
X7605000Y-9145000D02*
X7495000Y-9255000D01*
X7605000Y-9200000D02*
G75*
G03*
X7605000Y-9200000I-55000J0D01*
G01*
X8145000Y-8695000D02*
X8255000Y-8805000D01*
X8255000Y-8695000D02*
X8145000Y-8805000D01*
X8255000Y-8750000D02*
G75*
G03*
X8255000Y-8750000I-55000J0D01*
G01*
X8145000Y-9145000D02*
X8255000Y-9255000D01*
X8255000Y-9145000D02*
X8145000Y-9255000D01*
X8255000Y-9200000D02*
G75*
G03*
X8255000Y-9200000I-55000J0D01*
G01*
D18*
X7540000Y-6547000D02*
X7660000Y-6667000D01*
X7660000Y-6547000D02*
X7540000Y-6667000D01*
X7600000Y-6547000D02*
X7600000Y-6667000D01*
X7540000Y-6607000D02*
X7660000Y-6607000D01*
X7540000Y-6914000D02*
X7660000Y-7034000D01*
X7660000Y-6914000D02*
X7540000Y-7034000D01*
X7600000Y-6914000D02*
X7600000Y-7034000D01*
X7540000Y-6974000D02*
X7660000Y-6974000D01*
D11*
X7552619Y-9865476D02*
X7552619Y-9665476D01*
X7600238Y-9665476D01*
X7628809Y-9675000D01*
X7647857Y-9694048D01*
X7657381Y-9713095D01*
X7666905Y-9751190D01*
X7666905Y-9779762D01*
X7657381Y-9817857D01*
X7647857Y-9836905D01*
X7628809Y-9855952D01*
X7600238Y-9865476D01*
X7552619Y-9865476D01*
X7752619Y-9865476D02*
X7752619Y-9732143D01*
X7752619Y-9770238D02*
X7762143Y-9751190D01*
X7771667Y-9741667D01*
X7790714Y-9732143D01*
X7809762Y-9732143D01*
X7876428Y-9865476D02*
X7876428Y-9732143D01*
X7876428Y-9665476D02*
X7866905Y-9675000D01*
X7876428Y-9684524D01*
X7885952Y-9675000D01*
X7876428Y-9665476D01*
X7876428Y-9684524D01*
X8000238Y-9865476D02*
X7981190Y-9855952D01*
X7971667Y-9836905D01*
X7971667Y-9665476D01*
X8105000Y-9865476D02*
X8085952Y-9855952D01*
X8076428Y-9836905D01*
X8076428Y-9665476D01*
X8333571Y-9865476D02*
X8333571Y-9665476D01*
X8400238Y-9808333D01*
X8466905Y-9665476D01*
X8466905Y-9865476D01*
X8647857Y-9865476D02*
X8647857Y-9760714D01*
X8638333Y-9741667D01*
X8619286Y-9732143D01*
X8581190Y-9732143D01*
X8562143Y-9741667D01*
X8647857Y-9855952D02*
X8628810Y-9865476D01*
X8581190Y-9865476D01*
X8562143Y-9855952D01*
X8552619Y-9836905D01*
X8552619Y-9817857D01*
X8562143Y-9798810D01*
X8581190Y-9789286D01*
X8628810Y-9789286D01*
X8647857Y-9779762D01*
X8743095Y-9732143D02*
X8743095Y-9932143D01*
X8743095Y-9741667D02*
X8762143Y-9732143D01*
X8800238Y-9732143D01*
X8819286Y-9741667D01*
X8828810Y-9751190D01*
X8838333Y-9770238D01*
X8838333Y-9827381D01*
X8828810Y-9846429D01*
X8819286Y-9855952D01*
X8800238Y-9865476D01*
X8762143Y-9865476D01*
X8743095Y-9855952D01*
X8924048Y-9846429D02*
X8933571Y-9855952D01*
X8924048Y-9865476D01*
X8914524Y-9855952D01*
X8924048Y-9846429D01*
X8924048Y-9865476D01*
X8924048Y-9741667D02*
X8933571Y-9751190D01*
X8924048Y-9760714D01*
X8914524Y-9751190D01*
X8924048Y-9741667D01*
X8924048Y-9760714D01*
D12*
X7255000Y-10175000D02*
X7295000Y-10215000D01*
X7295000Y-10175000D02*
X7255000Y-10215000D01*
D11*
X7590714Y-10085476D02*
X7609762Y-10085476D01*
X7628809Y-10095000D01*
X7638333Y-10104524D01*
X7647857Y-10123571D01*
X7657381Y-10161667D01*
X7657381Y-10209286D01*
X7647857Y-10247381D01*
X7638333Y-10266429D01*
X7628809Y-10275952D01*
X7609762Y-10285476D01*
X7590714Y-10285476D01*
X7571667Y-10275952D01*
X7562143Y-10266429D01*
X7552619Y-10247381D01*
X7543095Y-10209286D01*
X7543095Y-10161667D01*
X7552619Y-10123571D01*
X7562143Y-10104524D01*
X7571667Y-10095000D01*
X7590714Y-10085476D01*
X7743095Y-10266429D02*
X7752619Y-10275952D01*
X7743095Y-10285476D01*
X7733571Y-10275952D01*
X7743095Y-10266429D01*
X7743095Y-10285476D01*
X7924048Y-10152143D02*
X7924048Y-10285476D01*
X7876428Y-10075952D02*
X7828809Y-10218810D01*
X7952619Y-10218810D01*
X8066905Y-10085476D02*
X8085952Y-10085476D01*
X8105000Y-10095000D01*
X8114524Y-10104524D01*
X8124048Y-10123571D01*
X8133571Y-10161667D01*
X8133571Y-10209286D01*
X8124048Y-10247381D01*
X8114524Y-10266429D01*
X8105000Y-10275952D01*
X8085952Y-10285476D01*
X8066905Y-10285476D01*
X8047857Y-10275952D01*
X8038333Y-10266429D01*
X8028809Y-10247381D01*
X8019286Y-10209286D01*
X8019286Y-10161667D01*
X8028809Y-10123571D01*
X8038333Y-10104524D01*
X8047857Y-10095000D01*
X8066905Y-10085476D01*
X8257381Y-10085476D02*
X8276428Y-10085476D01*
X8295476Y-10095000D01*
X8305000Y-10104524D01*
X8314524Y-10123571D01*
X8324048Y-10161667D01*
X8324048Y-10209286D01*
X8314524Y-10247381D01*
X8305000Y-10266429D01*
X8295476Y-10275952D01*
X8276428Y-10285476D01*
X8257381Y-10285476D01*
X8238333Y-10275952D01*
X8228809Y-10266429D01*
X8219286Y-10247381D01*
X8209762Y-10209286D01*
X8209762Y-10161667D01*
X8219286Y-10123571D01*
X8228809Y-10104524D01*
X8238333Y-10095000D01*
X8257381Y-10085476D01*
X8409762Y-10285476D02*
X8409762Y-10152143D01*
X8409762Y-10171190D02*
X8419286Y-10161667D01*
X8438333Y-10152143D01*
X8466905Y-10152143D01*
X8485952Y-10161667D01*
X8495476Y-10180714D01*
X8495476Y-10285476D01*
X8495476Y-10180714D02*
X8505000Y-10161667D01*
X8524048Y-10152143D01*
X8552619Y-10152143D01*
X8571667Y-10161667D01*
X8581190Y-10180714D01*
X8581190Y-10285476D01*
X8676429Y-10285476D02*
X8676429Y-10152143D01*
X8676429Y-10171190D02*
X8685952Y-10161667D01*
X8705000Y-10152143D01*
X8733571Y-10152143D01*
X8752619Y-10161667D01*
X8762143Y-10180714D01*
X8762143Y-10285476D01*
X8762143Y-10180714D02*
X8771667Y-10161667D01*
X8790714Y-10152143D01*
X8819286Y-10152143D01*
X8838333Y-10161667D01*
X8847857Y-10180714D01*
X8847857Y-10285476D01*
X9238333Y-10075952D02*
X9066905Y-10333095D01*
X9495476Y-10085476D02*
X9514524Y-10085476D01*
X9533571Y-10095000D01*
X9543095Y-10104524D01*
X9552619Y-10123571D01*
X9562143Y-10161667D01*
X9562143Y-10209286D01*
X9552619Y-10247381D01*
X9543095Y-10266429D01*
X9533571Y-10275952D01*
X9514524Y-10285476D01*
X9495476Y-10285476D01*
X9476429Y-10275952D01*
X9466905Y-10266429D01*
X9457381Y-10247381D01*
X9447857Y-10209286D01*
X9447857Y-10161667D01*
X9457381Y-10123571D01*
X9466905Y-10104524D01*
X9476429Y-10095000D01*
X9495476Y-10085476D01*
X9647857Y-10266429D02*
X9657381Y-10275952D01*
X9647857Y-10285476D01*
X9638333Y-10275952D01*
X9647857Y-10266429D01*
X9647857Y-10285476D01*
X9781190Y-10085476D02*
X9800238Y-10085476D01*
X9819286Y-10095000D01*
X9828810Y-10104524D01*
X9838333Y-10123571D01*
X9847857Y-10161667D01*
X9847857Y-10209286D01*
X9838333Y-10247381D01*
X9828810Y-10266429D01*
X9819286Y-10275952D01*
X9800238Y-10285476D01*
X9781190Y-10285476D01*
X9762143Y-10275952D01*
X9752619Y-10266429D01*
X9743095Y-10247381D01*
X9733571Y-10209286D01*
X9733571Y-10161667D01*
X9743095Y-10123571D01*
X9752619Y-10104524D01*
X9762143Y-10095000D01*
X9781190Y-10085476D01*
X10038333Y-10285476D02*
X9924048Y-10285476D01*
X9981190Y-10285476D02*
X9981190Y-10085476D01*
X9962143Y-10114048D01*
X9943095Y-10133095D01*
X9924048Y-10142619D01*
X10219286Y-10085476D02*
X10124048Y-10085476D01*
X10114524Y-10180714D01*
X10124048Y-10171190D01*
X10143095Y-10161667D01*
X10190714Y-10161667D01*
X10209762Y-10171190D01*
X10219286Y-10180714D01*
X10228810Y-10199762D01*
X10228810Y-10247381D01*
X10219286Y-10266429D01*
X10209762Y-10275952D01*
X10190714Y-10285476D01*
X10143095Y-10285476D01*
X10124048Y-10275952D01*
X10114524Y-10266429D01*
X10295476Y-10085476D02*
X10428810Y-10085476D01*
X10343095Y-10285476D01*
X10495476Y-10085476D02*
X10495476Y-10123571D01*
X10571667Y-10085476D02*
X10571667Y-10123571D01*
X10866905Y-10361667D02*
X10857381Y-10352143D01*
X10838333Y-10323571D01*
X10828810Y-10304524D01*
X10819286Y-10275952D01*
X10809762Y-10228333D01*
X10809762Y-10190238D01*
X10819286Y-10142619D01*
X10828810Y-10114048D01*
X10838333Y-10095000D01*
X10857381Y-10066429D01*
X10866905Y-10056905D01*
X11047857Y-10285476D02*
X10933571Y-10285476D01*
X10990714Y-10285476D02*
X10990714Y-10085476D01*
X10971667Y-10114048D01*
X10952619Y-10133095D01*
X10933571Y-10142619D01*
X11171667Y-10085476D02*
X11190714Y-10085476D01*
X11209762Y-10095000D01*
X11219286Y-10104524D01*
X11228809Y-10123571D01*
X11238333Y-10161667D01*
X11238333Y-10209286D01*
X11228809Y-10247381D01*
X11219286Y-10266429D01*
X11209762Y-10275952D01*
X11190714Y-10285476D01*
X11171667Y-10285476D01*
X11152619Y-10275952D01*
X11143095Y-10266429D01*
X11133571Y-10247381D01*
X11124048Y-10209286D01*
X11124048Y-10161667D01*
X11133571Y-10123571D01*
X11143095Y-10104524D01*
X11152619Y-10095000D01*
X11171667Y-10085476D01*
X11476428Y-10285476D02*
X11476428Y-10085476D01*
X11562143Y-10285476D02*
X11562143Y-10180714D01*
X11552619Y-10161667D01*
X11533571Y-10152143D01*
X11505000Y-10152143D01*
X11485952Y-10161667D01*
X11476428Y-10171190D01*
X11685952Y-10285476D02*
X11666905Y-10275952D01*
X11657381Y-10266429D01*
X11647857Y-10247381D01*
X11647857Y-10190238D01*
X11657381Y-10171190D01*
X11666905Y-10161667D01*
X11685952Y-10152143D01*
X11714524Y-10152143D01*
X11733571Y-10161667D01*
X11743095Y-10171190D01*
X11752619Y-10190238D01*
X11752619Y-10247381D01*
X11743095Y-10266429D01*
X11733571Y-10275952D01*
X11714524Y-10285476D01*
X11685952Y-10285476D01*
X11866905Y-10285476D02*
X11847857Y-10275952D01*
X11838333Y-10256905D01*
X11838333Y-10085476D01*
X12019286Y-10275952D02*
X12000238Y-10285476D01*
X11962143Y-10285476D01*
X11943095Y-10275952D01*
X11933571Y-10256905D01*
X11933571Y-10180714D01*
X11943095Y-10161667D01*
X11962143Y-10152143D01*
X12000238Y-10152143D01*
X12019286Y-10161667D01*
X12028809Y-10180714D01*
X12028809Y-10199762D01*
X11933571Y-10218810D01*
X12105000Y-10275952D02*
X12124048Y-10285476D01*
X12162143Y-10285476D01*
X12181190Y-10275952D01*
X12190714Y-10256905D01*
X12190714Y-10247381D01*
X12181190Y-10228333D01*
X12162143Y-10218810D01*
X12133571Y-10218810D01*
X12114524Y-10209286D01*
X12105000Y-10190238D01*
X12105000Y-10180714D01*
X12114524Y-10161667D01*
X12133571Y-10152143D01*
X12162143Y-10152143D01*
X12181190Y-10161667D01*
X12257381Y-10361667D02*
X12266905Y-10352143D01*
X12285952Y-10323571D01*
X12295476Y-10304524D01*
X12305000Y-10275952D01*
X12314524Y-10228333D01*
X12314524Y-10190238D01*
X12305000Y-10142619D01*
X12295476Y-10114048D01*
X12285952Y-10095000D01*
X12266905Y-10066429D01*
X12257381Y-10056905D01*
D13*
X7295000Y-10459000D02*
G75*
G03*
X7295000Y-10459000I-40000J0D01*
G01*
D11*
X7590714Y-10349476D02*
X7609762Y-10349476D01*
X7628809Y-10359000D01*
X7638333Y-10368524D01*
X7647857Y-10387571D01*
X7657381Y-10425667D01*
X7657381Y-10473286D01*
X7647857Y-10511381D01*
X7638333Y-10530429D01*
X7628809Y-10539952D01*
X7609762Y-10549476D01*
X7590714Y-10549476D01*
X7571667Y-10539952D01*
X7562143Y-10530429D01*
X7552619Y-10511381D01*
X7543095Y-10473286D01*
X7543095Y-10425667D01*
X7552619Y-10387571D01*
X7562143Y-10368524D01*
X7571667Y-10359000D01*
X7590714Y-10349476D01*
X7743095Y-10530429D02*
X7752619Y-10539952D01*
X7743095Y-10549476D01*
X7733571Y-10539952D01*
X7743095Y-10530429D01*
X7743095Y-10549476D01*
X7866905Y-10435190D02*
X7847857Y-10425667D01*
X7838333Y-10416143D01*
X7828809Y-10397095D01*
X7828809Y-10387571D01*
X7838333Y-10368524D01*
X7847857Y-10359000D01*
X7866905Y-10349476D01*
X7905000Y-10349476D01*
X7924048Y-10359000D01*
X7933571Y-10368524D01*
X7943095Y-10387571D01*
X7943095Y-10397095D01*
X7933571Y-10416143D01*
X7924048Y-10425667D01*
X7905000Y-10435190D01*
X7866905Y-10435190D01*
X7847857Y-10444714D01*
X7838333Y-10454238D01*
X7828809Y-10473286D01*
X7828809Y-10511381D01*
X7838333Y-10530429D01*
X7847857Y-10539952D01*
X7866905Y-10549476D01*
X7905000Y-10549476D01*
X7924048Y-10539952D01*
X7933571Y-10530429D01*
X7943095Y-10511381D01*
X7943095Y-10473286D01*
X7933571Y-10454238D01*
X7924048Y-10444714D01*
X7905000Y-10435190D01*
X8066905Y-10349476D02*
X8085952Y-10349476D01*
X8105000Y-10359000D01*
X8114524Y-10368524D01*
X8124048Y-10387571D01*
X8133571Y-10425667D01*
X8133571Y-10473286D01*
X8124048Y-10511381D01*
X8114524Y-10530429D01*
X8105000Y-10539952D01*
X8085952Y-10549476D01*
X8066905Y-10549476D01*
X8047857Y-10539952D01*
X8038333Y-10530429D01*
X8028809Y-10511381D01*
X8019286Y-10473286D01*
X8019286Y-10425667D01*
X8028809Y-10387571D01*
X8038333Y-10368524D01*
X8047857Y-10359000D01*
X8066905Y-10349476D01*
X8257381Y-10349476D02*
X8276428Y-10349476D01*
X8295476Y-10359000D01*
X8305000Y-10368524D01*
X8314524Y-10387571D01*
X8324048Y-10425667D01*
X8324048Y-10473286D01*
X8314524Y-10511381D01*
X8305000Y-10530429D01*
X8295476Y-10539952D01*
X8276428Y-10549476D01*
X8257381Y-10549476D01*
X8238333Y-10539952D01*
X8228809Y-10530429D01*
X8219286Y-10511381D01*
X8209762Y-10473286D01*
X8209762Y-10425667D01*
X8219286Y-10387571D01*
X8228809Y-10368524D01*
X8238333Y-10359000D01*
X8257381Y-10349476D01*
X8409762Y-10549476D02*
X8409762Y-10416143D01*
X8409762Y-10435190D02*
X8419286Y-10425667D01*
X8438333Y-10416143D01*
X8466905Y-10416143D01*
X8485952Y-10425667D01*
X8495476Y-10444714D01*
X8495476Y-10549476D01*
X8495476Y-10444714D02*
X8505000Y-10425667D01*
X8524048Y-10416143D01*
X8552619Y-10416143D01*
X8571667Y-10425667D01*
X8581190Y-10444714D01*
X8581190Y-10549476D01*
X8676429Y-10549476D02*
X8676429Y-10416143D01*
X8676429Y-10435190D02*
X8685952Y-10425667D01*
X8705000Y-10416143D01*
X8733571Y-10416143D01*
X8752619Y-10425667D01*
X8762143Y-10444714D01*
X8762143Y-10549476D01*
X8762143Y-10444714D02*
X8771667Y-10425667D01*
X8790714Y-10416143D01*
X8819286Y-10416143D01*
X8838333Y-10425667D01*
X8847857Y-10444714D01*
X8847857Y-10549476D01*
X9238333Y-10339952D02*
X9066905Y-10597095D01*
X9495476Y-10349476D02*
X9514524Y-10349476D01*
X9533571Y-10359000D01*
X9543095Y-10368524D01*
X9552619Y-10387571D01*
X9562143Y-10425667D01*
X9562143Y-10473286D01*
X9552619Y-10511381D01*
X9543095Y-10530429D01*
X9533571Y-10539952D01*
X9514524Y-10549476D01*
X9495476Y-10549476D01*
X9476429Y-10539952D01*
X9466905Y-10530429D01*
X9457381Y-10511381D01*
X9447857Y-10473286D01*
X9447857Y-10425667D01*
X9457381Y-10387571D01*
X9466905Y-10368524D01*
X9476429Y-10359000D01*
X9495476Y-10349476D01*
X9647857Y-10530429D02*
X9657381Y-10539952D01*
X9647857Y-10549476D01*
X9638333Y-10539952D01*
X9647857Y-10530429D01*
X9647857Y-10549476D01*
X9781190Y-10349476D02*
X9800238Y-10349476D01*
X9819286Y-10359000D01*
X9828810Y-10368524D01*
X9838333Y-10387571D01*
X9847857Y-10425667D01*
X9847857Y-10473286D01*
X9838333Y-10511381D01*
X9828810Y-10530429D01*
X9819286Y-10539952D01*
X9800238Y-10549476D01*
X9781190Y-10549476D01*
X9762143Y-10539952D01*
X9752619Y-10530429D01*
X9743095Y-10511381D01*
X9733571Y-10473286D01*
X9733571Y-10425667D01*
X9743095Y-10387571D01*
X9752619Y-10368524D01*
X9762143Y-10359000D01*
X9781190Y-10349476D01*
X9914524Y-10349476D02*
X10038333Y-10349476D01*
X9971667Y-10425667D01*
X10000238Y-10425667D01*
X10019286Y-10435190D01*
X10028810Y-10444714D01*
X10038333Y-10463762D01*
X10038333Y-10511381D01*
X10028810Y-10530429D01*
X10019286Y-10539952D01*
X10000238Y-10549476D01*
X9943095Y-10549476D01*
X9924048Y-10539952D01*
X9914524Y-10530429D01*
X10228810Y-10549476D02*
X10114524Y-10549476D01*
X10171667Y-10549476D02*
X10171667Y-10349476D01*
X10152619Y-10378048D01*
X10133571Y-10397095D01*
X10114524Y-10406619D01*
X10409762Y-10349476D02*
X10314524Y-10349476D01*
X10305000Y-10444714D01*
X10314524Y-10435190D01*
X10333571Y-10425667D01*
X10381190Y-10425667D01*
X10400238Y-10435190D01*
X10409762Y-10444714D01*
X10419286Y-10463762D01*
X10419286Y-10511381D01*
X10409762Y-10530429D01*
X10400238Y-10539952D01*
X10381190Y-10549476D01*
X10333571Y-10549476D01*
X10314524Y-10539952D01*
X10305000Y-10530429D01*
X10495476Y-10349476D02*
X10495476Y-10387571D01*
X10571667Y-10349476D02*
X10571667Y-10387571D01*
X10866905Y-10625667D02*
X10857381Y-10616143D01*
X10838333Y-10587571D01*
X10828810Y-10568524D01*
X10819286Y-10539952D01*
X10809762Y-10492333D01*
X10809762Y-10454238D01*
X10819286Y-10406619D01*
X10828810Y-10378048D01*
X10838333Y-10359000D01*
X10857381Y-10330429D01*
X10866905Y-10320905D01*
X10933571Y-10368524D02*
X10943095Y-10359000D01*
X10962143Y-10349476D01*
X11009762Y-10349476D01*
X11028810Y-10359000D01*
X11038333Y-10368524D01*
X11047857Y-10387571D01*
X11047857Y-10406619D01*
X11038333Y-10435190D01*
X10924048Y-10549476D01*
X11047857Y-10549476D01*
X11285952Y-10549476D02*
X11285952Y-10349476D01*
X11371667Y-10549476D02*
X11371667Y-10444714D01*
X11362143Y-10425667D01*
X11343095Y-10416143D01*
X11314524Y-10416143D01*
X11295476Y-10425667D01*
X11285952Y-10435190D01*
X11495476Y-10549476D02*
X11476428Y-10539952D01*
X11466905Y-10530429D01*
X11457381Y-10511381D01*
X11457381Y-10454238D01*
X11466905Y-10435190D01*
X11476428Y-10425667D01*
X11495476Y-10416143D01*
X11524048Y-10416143D01*
X11543095Y-10425667D01*
X11552619Y-10435190D01*
X11562143Y-10454238D01*
X11562143Y-10511381D01*
X11552619Y-10530429D01*
X11543095Y-10539952D01*
X11524048Y-10549476D01*
X11495476Y-10549476D01*
X11676428Y-10549476D02*
X11657381Y-10539952D01*
X11647857Y-10520905D01*
X11647857Y-10349476D01*
X11828809Y-10539952D02*
X11809762Y-10549476D01*
X11771667Y-10549476D01*
X11752619Y-10539952D01*
X11743095Y-10520905D01*
X11743095Y-10444714D01*
X11752619Y-10425667D01*
X11771667Y-10416143D01*
X11809762Y-10416143D01*
X11828809Y-10425667D01*
X11838333Y-10444714D01*
X11838333Y-10463762D01*
X11743095Y-10482810D01*
X11914524Y-10539952D02*
X11933571Y-10549476D01*
X11971667Y-10549476D01*
X11990714Y-10539952D01*
X12000238Y-10520905D01*
X12000238Y-10511381D01*
X11990714Y-10492333D01*
X11971667Y-10482810D01*
X11943095Y-10482810D01*
X11924048Y-10473286D01*
X11914524Y-10454238D01*
X11914524Y-10444714D01*
X11924048Y-10425667D01*
X11943095Y-10416143D01*
X11971667Y-10416143D01*
X11990714Y-10425667D01*
X12066905Y-10625667D02*
X12076428Y-10616143D01*
X12095476Y-10587571D01*
X12105000Y-10568524D01*
X12114524Y-10539952D01*
X12124048Y-10492333D01*
X12124048Y-10454238D01*
X12114524Y-10406619D01*
X12105000Y-10378048D01*
X12095476Y-10359000D01*
X12076428Y-10330429D01*
X12066905Y-10320905D01*
D14*
X7247500Y-10675500D02*
X7247500Y-10770500D01*
X7200000Y-10723000D02*
X7295000Y-10723000D01*
D11*
X7590714Y-10613476D02*
X7609762Y-10613476D01*
X7628809Y-10623000D01*
X7638333Y-10632524D01*
X7647857Y-10651571D01*
X7657381Y-10689667D01*
X7657381Y-10737286D01*
X7647857Y-10775381D01*
X7638333Y-10794429D01*
X7628809Y-10803952D01*
X7609762Y-10813476D01*
X7590714Y-10813476D01*
X7571667Y-10803952D01*
X7562143Y-10794429D01*
X7552619Y-10775381D01*
X7543095Y-10737286D01*
X7543095Y-10689667D01*
X7552619Y-10651571D01*
X7562143Y-10632524D01*
X7571667Y-10623000D01*
X7590714Y-10613476D01*
X7743095Y-10794429D02*
X7752619Y-10803952D01*
X7743095Y-10813476D01*
X7733571Y-10803952D01*
X7743095Y-10794429D01*
X7743095Y-10813476D01*
X7847857Y-10813476D02*
X7885952Y-10813476D01*
X7905000Y-10803952D01*
X7914524Y-10794429D01*
X7933571Y-10765857D01*
X7943095Y-10727762D01*
X7943095Y-10651571D01*
X7933571Y-10632524D01*
X7924048Y-10623000D01*
X7905000Y-10613476D01*
X7866905Y-10613476D01*
X7847857Y-10623000D01*
X7838333Y-10632524D01*
X7828809Y-10651571D01*
X7828809Y-10699190D01*
X7838333Y-10718238D01*
X7847857Y-10727762D01*
X7866905Y-10737286D01*
X7905000Y-10737286D01*
X7924048Y-10727762D01*
X7933571Y-10718238D01*
X7943095Y-10699190D01*
X8124048Y-10613476D02*
X8028809Y-10613476D01*
X8019286Y-10708714D01*
X8028809Y-10699190D01*
X8047857Y-10689667D01*
X8095476Y-10689667D01*
X8114524Y-10699190D01*
X8124048Y-10708714D01*
X8133571Y-10727762D01*
X8133571Y-10775381D01*
X8124048Y-10794429D01*
X8114524Y-10803952D01*
X8095476Y-10813476D01*
X8047857Y-10813476D01*
X8028809Y-10803952D01*
X8019286Y-10794429D01*
X8257381Y-10613476D02*
X8276428Y-10613476D01*
X8295476Y-10623000D01*
X8305000Y-10632524D01*
X8314524Y-10651571D01*
X8324048Y-10689667D01*
X8324048Y-10737286D01*
X8314524Y-10775381D01*
X8305000Y-10794429D01*
X8295476Y-10803952D01*
X8276428Y-10813476D01*
X8257381Y-10813476D01*
X8238333Y-10803952D01*
X8228809Y-10794429D01*
X8219286Y-10775381D01*
X8209762Y-10737286D01*
X8209762Y-10689667D01*
X8219286Y-10651571D01*
X8228809Y-10632524D01*
X8238333Y-10623000D01*
X8257381Y-10613476D01*
X8409762Y-10813476D02*
X8409762Y-10680143D01*
X8409762Y-10699190D02*
X8419286Y-10689667D01*
X8438333Y-10680143D01*
X8466905Y-10680143D01*
X8485952Y-10689667D01*
X8495476Y-10708714D01*
X8495476Y-10813476D01*
X8495476Y-10708714D02*
X8505000Y-10689667D01*
X8524048Y-10680143D01*
X8552619Y-10680143D01*
X8571667Y-10689667D01*
X8581190Y-10708714D01*
X8581190Y-10813476D01*
X8676429Y-10813476D02*
X8676429Y-10680143D01*
X8676429Y-10699190D02*
X8685952Y-10689667D01*
X8705000Y-10680143D01*
X8733571Y-10680143D01*
X8752619Y-10689667D01*
X8762143Y-10708714D01*
X8762143Y-10813476D01*
X8762143Y-10708714D02*
X8771667Y-10689667D01*
X8790714Y-10680143D01*
X8819286Y-10680143D01*
X8838333Y-10689667D01*
X8847857Y-10708714D01*
X8847857Y-10813476D01*
X9238333Y-10603952D02*
X9066905Y-10861095D01*
X9495476Y-10613476D02*
X9514524Y-10613476D01*
X9533571Y-10623000D01*
X9543095Y-10632524D01*
X9552619Y-10651571D01*
X9562143Y-10689667D01*
X9562143Y-10737286D01*
X9552619Y-10775381D01*
X9543095Y-10794429D01*
X9533571Y-10803952D01*
X9514524Y-10813476D01*
X9495476Y-10813476D01*
X9476429Y-10803952D01*
X9466905Y-10794429D01*
X9457381Y-10775381D01*
X9447857Y-10737286D01*
X9447857Y-10689667D01*
X9457381Y-10651571D01*
X9466905Y-10632524D01*
X9476429Y-10623000D01*
X9495476Y-10613476D01*
X9647857Y-10794429D02*
X9657381Y-10803952D01*
X9647857Y-10813476D01*
X9638333Y-10803952D01*
X9647857Y-10794429D01*
X9647857Y-10813476D01*
X9781190Y-10613476D02*
X9800238Y-10613476D01*
X9819286Y-10623000D01*
X9828810Y-10632524D01*
X9838333Y-10651571D01*
X9847857Y-10689667D01*
X9847857Y-10737286D01*
X9838333Y-10775381D01*
X9828810Y-10794429D01*
X9819286Y-10803952D01*
X9800238Y-10813476D01*
X9781190Y-10813476D01*
X9762143Y-10803952D01*
X9752619Y-10794429D01*
X9743095Y-10775381D01*
X9733571Y-10737286D01*
X9733571Y-10689667D01*
X9743095Y-10651571D01*
X9752619Y-10632524D01*
X9762143Y-10623000D01*
X9781190Y-10613476D01*
X9914524Y-10613476D02*
X10038333Y-10613476D01*
X9971667Y-10689667D01*
X10000238Y-10689667D01*
X10019286Y-10699190D01*
X10028810Y-10708714D01*
X10038333Y-10727762D01*
X10038333Y-10775381D01*
X10028810Y-10794429D01*
X10019286Y-10803952D01*
X10000238Y-10813476D01*
X9943095Y-10813476D01*
X9924048Y-10803952D01*
X9914524Y-10794429D01*
X10105000Y-10613476D02*
X10238333Y-10613476D01*
X10152619Y-10813476D01*
X10400238Y-10680143D02*
X10400238Y-10813476D01*
X10352619Y-10603952D02*
X10305000Y-10746810D01*
X10428810Y-10746810D01*
X10495476Y-10613476D02*
X10495476Y-10651571D01*
X10571667Y-10613476D02*
X10571667Y-10651571D01*
X10866905Y-10889667D02*
X10857381Y-10880143D01*
X10838333Y-10851571D01*
X10828810Y-10832524D01*
X10819286Y-10803952D01*
X10809762Y-10756333D01*
X10809762Y-10718238D01*
X10819286Y-10670619D01*
X10828810Y-10642048D01*
X10838333Y-10623000D01*
X10857381Y-10594429D01*
X10866905Y-10584905D01*
X11047857Y-10813476D02*
X10933571Y-10813476D01*
X10990714Y-10813476D02*
X10990714Y-10613476D01*
X10971667Y-10642048D01*
X10952619Y-10661095D01*
X10933571Y-10670619D01*
X11114524Y-10613476D02*
X11238333Y-10613476D01*
X11171667Y-10689667D01*
X11200238Y-10689667D01*
X11219286Y-10699190D01*
X11228809Y-10708714D01*
X11238333Y-10727762D01*
X11238333Y-10775381D01*
X11228809Y-10794429D01*
X11219286Y-10803952D01*
X11200238Y-10813476D01*
X11143095Y-10813476D01*
X11124048Y-10803952D01*
X11114524Y-10794429D01*
X11409762Y-10613476D02*
X11371667Y-10613476D01*
X11352619Y-10623000D01*
X11343095Y-10632524D01*
X11324048Y-10661095D01*
X11314524Y-10699190D01*
X11314524Y-10775381D01*
X11324048Y-10794429D01*
X11333571Y-10803952D01*
X11352619Y-10813476D01*
X11390714Y-10813476D01*
X11409762Y-10803952D01*
X11419286Y-10794429D01*
X11428809Y-10775381D01*
X11428809Y-10727762D01*
X11419286Y-10708714D01*
X11409762Y-10699190D01*
X11390714Y-10689667D01*
X11352619Y-10689667D01*
X11333571Y-10699190D01*
X11324048Y-10708714D01*
X11314524Y-10727762D01*
X11666905Y-10813476D02*
X11666905Y-10613476D01*
X11752619Y-10813476D02*
X11752619Y-10708714D01*
X11743095Y-10689667D01*
X11724048Y-10680143D01*
X11695476Y-10680143D01*
X11676428Y-10689667D01*
X11666905Y-10699190D01*
X11876428Y-10813476D02*
X11857381Y-10803952D01*
X11847857Y-10794429D01*
X11838333Y-10775381D01*
X11838333Y-10718238D01*
X11847857Y-10699190D01*
X11857381Y-10689667D01*
X11876428Y-10680143D01*
X11905000Y-10680143D01*
X11924048Y-10689667D01*
X11933571Y-10699190D01*
X11943095Y-10718238D01*
X11943095Y-10775381D01*
X11933571Y-10794429D01*
X11924048Y-10803952D01*
X11905000Y-10813476D01*
X11876428Y-10813476D01*
X12057381Y-10813476D02*
X12038333Y-10803952D01*
X12028809Y-10784905D01*
X12028809Y-10613476D01*
X12209762Y-10803952D02*
X12190714Y-10813476D01*
X12152619Y-10813476D01*
X12133571Y-10803952D01*
X12124048Y-10784905D01*
X12124048Y-10708714D01*
X12133571Y-10689667D01*
X12152619Y-10680143D01*
X12190714Y-10680143D01*
X12209762Y-10689667D01*
X12219286Y-10708714D01*
X12219286Y-10727762D01*
X12124048Y-10746810D01*
X12295476Y-10803952D02*
X12314524Y-10813476D01*
X12352619Y-10813476D01*
X12371667Y-10803952D01*
X12381190Y-10784905D01*
X12381190Y-10775381D01*
X12371667Y-10756333D01*
X12352619Y-10746810D01*
X12324048Y-10746810D01*
X12305000Y-10737286D01*
X12295476Y-10718238D01*
X12295476Y-10708714D01*
X12305000Y-10689667D01*
X12324048Y-10680143D01*
X12352619Y-10680143D01*
X12371667Y-10689667D01*
X12447857Y-10889667D02*
X12457381Y-10880143D01*
X12476428Y-10851571D01*
X12485952Y-10832524D01*
X12495476Y-10803952D01*
X12505000Y-10756333D01*
X12505000Y-10718238D01*
X12495476Y-10670619D01*
X12485952Y-10642048D01*
X12476428Y-10623000D01*
X12457381Y-10594429D01*
X12447857Y-10584905D01*
D15*
X7280356Y-11022356D02*
X7280356Y-10951644D01*
X7209644Y-10951644D01*
X7209644Y-11022356D01*
X7280356Y-11022356D01*
D11*
X7657381Y-11077476D02*
X7543095Y-11077476D01*
X7600238Y-11077476D02*
X7600238Y-10877476D01*
X7581190Y-10906048D01*
X7562143Y-10925095D01*
X7543095Y-10934619D01*
X7743095Y-11058429D02*
X7752619Y-11067952D01*
X7743095Y-11077476D01*
X7733571Y-11067952D01*
X7743095Y-11058429D01*
X7743095Y-11077476D01*
X7876428Y-10877476D02*
X7895476Y-10877476D01*
X7914524Y-10887000D01*
X7924048Y-10896524D01*
X7933571Y-10915571D01*
X7943095Y-10953667D01*
X7943095Y-11001286D01*
X7933571Y-11039381D01*
X7924048Y-11058429D01*
X7914524Y-11067952D01*
X7895476Y-11077476D01*
X7876428Y-11077476D01*
X7857381Y-11067952D01*
X7847857Y-11058429D01*
X7838333Y-11039381D01*
X7828809Y-11001286D01*
X7828809Y-10953667D01*
X7838333Y-10915571D01*
X7847857Y-10896524D01*
X7857381Y-10887000D01*
X7876428Y-10877476D01*
X8066905Y-10877476D02*
X8085952Y-10877476D01*
X8105000Y-10887000D01*
X8114524Y-10896524D01*
X8124048Y-10915571D01*
X8133571Y-10953667D01*
X8133571Y-11001286D01*
X8124048Y-11039381D01*
X8114524Y-11058429D01*
X8105000Y-11067952D01*
X8085952Y-11077476D01*
X8066905Y-11077476D01*
X8047857Y-11067952D01*
X8038333Y-11058429D01*
X8028809Y-11039381D01*
X8019286Y-11001286D01*
X8019286Y-10953667D01*
X8028809Y-10915571D01*
X8038333Y-10896524D01*
X8047857Y-10887000D01*
X8066905Y-10877476D01*
X8257381Y-10877476D02*
X8276428Y-10877476D01*
X8295476Y-10887000D01*
X8305000Y-10896524D01*
X8314524Y-10915571D01*
X8324048Y-10953667D01*
X8324048Y-11001286D01*
X8314524Y-11039381D01*
X8305000Y-11058429D01*
X8295476Y-11067952D01*
X8276428Y-11077476D01*
X8257381Y-11077476D01*
X8238333Y-11067952D01*
X8228809Y-11058429D01*
X8219286Y-11039381D01*
X8209762Y-11001286D01*
X8209762Y-10953667D01*
X8219286Y-10915571D01*
X8228809Y-10896524D01*
X8238333Y-10887000D01*
X8257381Y-10877476D01*
X8409762Y-11077476D02*
X8409762Y-10944143D01*
X8409762Y-10963190D02*
X8419286Y-10953667D01*
X8438333Y-10944143D01*
X8466905Y-10944143D01*
X8485952Y-10953667D01*
X8495476Y-10972714D01*
X8495476Y-11077476D01*
X8495476Y-10972714D02*
X8505000Y-10953667D01*
X8524048Y-10944143D01*
X8552619Y-10944143D01*
X8571667Y-10953667D01*
X8581190Y-10972714D01*
X8581190Y-11077476D01*
X8676429Y-11077476D02*
X8676429Y-10944143D01*
X8676429Y-10963190D02*
X8685952Y-10953667D01*
X8705000Y-10944143D01*
X8733571Y-10944143D01*
X8752619Y-10953667D01*
X8762143Y-10972714D01*
X8762143Y-11077476D01*
X8762143Y-10972714D02*
X8771667Y-10953667D01*
X8790714Y-10944143D01*
X8819286Y-10944143D01*
X8838333Y-10953667D01*
X8847857Y-10972714D01*
X8847857Y-11077476D01*
X9238333Y-10867952D02*
X9066905Y-11125095D01*
X9495476Y-10877476D02*
X9514524Y-10877476D01*
X9533571Y-10887000D01*
X9543095Y-10896524D01*
X9552619Y-10915571D01*
X9562143Y-10953667D01*
X9562143Y-11001286D01*
X9552619Y-11039381D01*
X9543095Y-11058429D01*
X9533571Y-11067952D01*
X9514524Y-11077476D01*
X9495476Y-11077476D01*
X9476429Y-11067952D01*
X9466905Y-11058429D01*
X9457381Y-11039381D01*
X9447857Y-11001286D01*
X9447857Y-10953667D01*
X9457381Y-10915571D01*
X9466905Y-10896524D01*
X9476429Y-10887000D01*
X9495476Y-10877476D01*
X9647857Y-11058429D02*
X9657381Y-11067952D01*
X9647857Y-11077476D01*
X9638333Y-11067952D01*
X9647857Y-11058429D01*
X9647857Y-11077476D01*
X9781190Y-10877476D02*
X9800238Y-10877476D01*
X9819286Y-10887000D01*
X9828810Y-10896524D01*
X9838333Y-10915571D01*
X9847857Y-10953667D01*
X9847857Y-11001286D01*
X9838333Y-11039381D01*
X9828810Y-11058429D01*
X9819286Y-11067952D01*
X9800238Y-11077476D01*
X9781190Y-11077476D01*
X9762143Y-11067952D01*
X9752619Y-11058429D01*
X9743095Y-11039381D01*
X9733571Y-11001286D01*
X9733571Y-10953667D01*
X9743095Y-10915571D01*
X9752619Y-10896524D01*
X9762143Y-10887000D01*
X9781190Y-10877476D01*
X9914524Y-10877476D02*
X10038333Y-10877476D01*
X9971667Y-10953667D01*
X10000238Y-10953667D01*
X10019286Y-10963190D01*
X10028810Y-10972714D01*
X10038333Y-10991762D01*
X10038333Y-11039381D01*
X10028810Y-11058429D01*
X10019286Y-11067952D01*
X10000238Y-11077476D01*
X9943095Y-11077476D01*
X9924048Y-11067952D01*
X9914524Y-11058429D01*
X10133571Y-11077476D02*
X10171667Y-11077476D01*
X10190714Y-11067952D01*
X10200238Y-11058429D01*
X10219286Y-11029857D01*
X10228810Y-10991762D01*
X10228810Y-10915571D01*
X10219286Y-10896524D01*
X10209762Y-10887000D01*
X10190714Y-10877476D01*
X10152619Y-10877476D01*
X10133571Y-10887000D01*
X10124048Y-10896524D01*
X10114524Y-10915571D01*
X10114524Y-10963190D01*
X10124048Y-10982238D01*
X10133571Y-10991762D01*
X10152619Y-11001286D01*
X10190714Y-11001286D01*
X10209762Y-10991762D01*
X10219286Y-10982238D01*
X10228810Y-10963190D01*
X10400238Y-10944143D02*
X10400238Y-11077476D01*
X10352619Y-10867952D02*
X10305000Y-11010810D01*
X10428810Y-11010810D01*
X10495476Y-10877476D02*
X10495476Y-10915571D01*
X10571667Y-10877476D02*
X10571667Y-10915571D01*
X10866905Y-11153667D02*
X10857381Y-11144143D01*
X10838333Y-11115571D01*
X10828810Y-11096524D01*
X10819286Y-11067952D01*
X10809762Y-11020333D01*
X10809762Y-10982238D01*
X10819286Y-10934619D01*
X10828810Y-10906048D01*
X10838333Y-10887000D01*
X10857381Y-10858429D01*
X10866905Y-10848905D01*
X10981190Y-10877476D02*
X11000238Y-10877476D01*
X11019286Y-10887000D01*
X11028810Y-10896524D01*
X11038333Y-10915571D01*
X11047857Y-10953667D01*
X11047857Y-11001286D01*
X11038333Y-11039381D01*
X11028810Y-11058429D01*
X11019286Y-11067952D01*
X11000238Y-11077476D01*
X10981190Y-11077476D01*
X10962143Y-11067952D01*
X10952619Y-11058429D01*
X10943095Y-11039381D01*
X10933571Y-11001286D01*
X10933571Y-10953667D01*
X10943095Y-10915571D01*
X10952619Y-10896524D01*
X10962143Y-10887000D01*
X10981190Y-10877476D01*
X11285952Y-11077476D02*
X11285952Y-10877476D01*
X11371667Y-11077476D02*
X11371667Y-10972714D01*
X11362143Y-10953667D01*
X11343095Y-10944143D01*
X11314524Y-10944143D01*
X11295476Y-10953667D01*
X11285952Y-10963190D01*
X11495476Y-11077476D02*
X11476428Y-11067952D01*
X11466905Y-11058429D01*
X11457381Y-11039381D01*
X11457381Y-10982238D01*
X11466905Y-10963190D01*
X11476428Y-10953667D01*
X11495476Y-10944143D01*
X11524048Y-10944143D01*
X11543095Y-10953667D01*
X11552619Y-10963190D01*
X11562143Y-10982238D01*
X11562143Y-11039381D01*
X11552619Y-11058429D01*
X11543095Y-11067952D01*
X11524048Y-11077476D01*
X11495476Y-11077476D01*
X11676428Y-11077476D02*
X11657381Y-11067952D01*
X11647857Y-11048905D01*
X11647857Y-10877476D01*
X11828809Y-11067952D02*
X11809762Y-11077476D01*
X11771667Y-11077476D01*
X11752619Y-11067952D01*
X11743095Y-11048905D01*
X11743095Y-10972714D01*
X11752619Y-10953667D01*
X11771667Y-10944143D01*
X11809762Y-10944143D01*
X11828809Y-10953667D01*
X11838333Y-10972714D01*
X11838333Y-10991762D01*
X11743095Y-11010810D01*
X11914524Y-11067952D02*
X11933571Y-11077476D01*
X11971667Y-11077476D01*
X11990714Y-11067952D01*
X12000238Y-11048905D01*
X12000238Y-11039381D01*
X11990714Y-11020333D01*
X11971667Y-11010810D01*
X11943095Y-11010810D01*
X11924048Y-11001286D01*
X11914524Y-10982238D01*
X11914524Y-10972714D01*
X11924048Y-10953667D01*
X11943095Y-10944143D01*
X11971667Y-10944143D01*
X11990714Y-10953667D01*
X12238333Y-11001286D02*
X12390714Y-11001286D01*
X12314524Y-11077476D02*
X12314524Y-10925095D01*
X12619286Y-10877476D02*
X12743095Y-10877476D01*
X12676428Y-10953667D01*
X12705000Y-10953667D01*
X12724048Y-10963190D01*
X12733571Y-10972714D01*
X12743095Y-10991762D01*
X12743095Y-11039381D01*
X12733571Y-11058429D01*
X12724048Y-11067952D01*
X12705000Y-11077476D01*
X12647857Y-11077476D01*
X12628809Y-11067952D01*
X12619286Y-11058429D01*
X12971667Y-11067952D02*
X12990714Y-11077476D01*
X13028809Y-11077476D01*
X13047857Y-11067952D01*
X13057381Y-11048905D01*
X13057381Y-11039381D01*
X13047857Y-11020333D01*
X13028809Y-11010810D01*
X13000238Y-11010810D01*
X12981190Y-11001286D01*
X12971667Y-10982238D01*
X12971667Y-10972714D01*
X12981190Y-10953667D01*
X13000238Y-10944143D01*
X13028809Y-10944143D01*
X13047857Y-10953667D01*
X13171667Y-11077476D02*
X13152619Y-11067952D01*
X13143095Y-11048905D01*
X13143095Y-10877476D01*
X13276428Y-11077476D02*
X13257381Y-11067952D01*
X13247857Y-11058429D01*
X13238333Y-11039381D01*
X13238333Y-10982238D01*
X13247857Y-10963190D01*
X13257381Y-10953667D01*
X13276428Y-10944143D01*
X13305000Y-10944143D01*
X13324048Y-10953667D01*
X13333571Y-10963190D01*
X13343095Y-10982238D01*
X13343095Y-11039381D01*
X13333571Y-11058429D01*
X13324048Y-11067952D01*
X13305000Y-11077476D01*
X13276428Y-11077476D01*
X13400238Y-10944143D02*
X13476428Y-10944143D01*
X13428809Y-10877476D02*
X13428809Y-11048905D01*
X13438333Y-11067952D01*
X13457381Y-11077476D01*
X13476428Y-11077476D01*
X13533571Y-11067952D02*
X13552619Y-11077476D01*
X13590714Y-11077476D01*
X13609762Y-11067952D01*
X13619286Y-11048905D01*
X13619286Y-11039381D01*
X13609762Y-11020333D01*
X13590714Y-11010810D01*
X13562143Y-11010810D01*
X13543095Y-11001286D01*
X13533571Y-10982238D01*
X13533571Y-10972714D01*
X13543095Y-10953667D01*
X13562143Y-10944143D01*
X13590714Y-10944143D01*
X13609762Y-10953667D01*
X13685952Y-11153667D02*
X13695476Y-11144143D01*
X13714524Y-11115571D01*
X13724048Y-11096524D01*
X13733571Y-11067952D01*
X13743095Y-11020333D01*
X13743095Y-10982238D01*
X13733571Y-10934619D01*
X13724048Y-10906048D01*
X13714524Y-10887000D01*
X13695476Y-10858429D01*
X13685952Y-10848905D01*
D16*
X7244200Y-11301800D02*
X7295000Y-11251000D01*
X7244200Y-11200200D01*
X7193400Y-11251000D01*
X7244200Y-11301800D01*
D11*
X7657381Y-11341476D02*
X7543095Y-11341476D01*
X7600238Y-11341476D02*
X7600238Y-11141476D01*
X7581190Y-11170048D01*
X7562143Y-11189095D01*
X7543095Y-11198619D01*
X7743095Y-11322428D02*
X7752619Y-11331952D01*
X7743095Y-11341476D01*
X7733571Y-11331952D01*
X7743095Y-11322428D01*
X7743095Y-11341476D01*
X7876428Y-11141476D02*
X7895476Y-11141476D01*
X7914524Y-11151000D01*
X7924048Y-11160524D01*
X7933571Y-11179571D01*
X7943095Y-11217667D01*
X7943095Y-11265286D01*
X7933571Y-11303381D01*
X7924048Y-11322428D01*
X7914524Y-11331952D01*
X7895476Y-11341476D01*
X7876428Y-11341476D01*
X7857381Y-11331952D01*
X7847857Y-11322428D01*
X7838333Y-11303381D01*
X7828809Y-11265286D01*
X7828809Y-11217667D01*
X7838333Y-11179571D01*
X7847857Y-11160524D01*
X7857381Y-11151000D01*
X7876428Y-11141476D01*
X8133571Y-11341476D02*
X8019286Y-11341476D01*
X8076428Y-11341476D02*
X8076428Y-11141476D01*
X8057381Y-11170048D01*
X8038333Y-11189095D01*
X8019286Y-11198619D01*
X8305000Y-11141476D02*
X8266905Y-11141476D01*
X8247857Y-11151000D01*
X8238333Y-11160524D01*
X8219286Y-11189095D01*
X8209762Y-11227190D01*
X8209762Y-11303381D01*
X8219286Y-11322428D01*
X8228809Y-11331952D01*
X8247857Y-11341476D01*
X8285952Y-11341476D01*
X8305000Y-11331952D01*
X8314524Y-11322428D01*
X8324048Y-11303381D01*
X8324048Y-11255762D01*
X8314524Y-11236714D01*
X8305000Y-11227190D01*
X8285952Y-11217667D01*
X8247857Y-11217667D01*
X8228809Y-11227190D01*
X8219286Y-11236714D01*
X8209762Y-11255762D01*
X8409762Y-11341476D02*
X8409762Y-11208143D01*
X8409762Y-11227190D02*
X8419286Y-11217667D01*
X8438333Y-11208143D01*
X8466905Y-11208143D01*
X8485952Y-11217667D01*
X8495476Y-11236714D01*
X8495476Y-11341476D01*
X8495476Y-11236714D02*
X8505000Y-11217667D01*
X8524048Y-11208143D01*
X8552619Y-11208143D01*
X8571667Y-11217667D01*
X8581190Y-11236714D01*
X8581190Y-11341476D01*
X8676429Y-11341476D02*
X8676429Y-11208143D01*
X8676429Y-11227190D02*
X8685952Y-11217667D01*
X8705000Y-11208143D01*
X8733571Y-11208143D01*
X8752619Y-11217667D01*
X8762143Y-11236714D01*
X8762143Y-11341476D01*
X8762143Y-11236714D02*
X8771667Y-11217667D01*
X8790714Y-11208143D01*
X8819286Y-11208143D01*
X8838333Y-11217667D01*
X8847857Y-11236714D01*
X8847857Y-11341476D01*
X9238333Y-11131952D02*
X9066905Y-11389095D01*
X9495476Y-11141476D02*
X9514524Y-11141476D01*
X9533571Y-11151000D01*
X9543095Y-11160524D01*
X9552619Y-11179571D01*
X9562143Y-11217667D01*
X9562143Y-11265286D01*
X9552619Y-11303381D01*
X9543095Y-11322428D01*
X9533571Y-11331952D01*
X9514524Y-11341476D01*
X9495476Y-11341476D01*
X9476429Y-11331952D01*
X9466905Y-11322428D01*
X9457381Y-11303381D01*
X9447857Y-11265286D01*
X9447857Y-11217667D01*
X9457381Y-11179571D01*
X9466905Y-11160524D01*
X9476429Y-11151000D01*
X9495476Y-11141476D01*
X9647857Y-11322428D02*
X9657381Y-11331952D01*
X9647857Y-11341476D01*
X9638333Y-11331952D01*
X9647857Y-11322428D01*
X9647857Y-11341476D01*
X9781190Y-11141476D02*
X9800238Y-11141476D01*
X9819286Y-11151000D01*
X9828810Y-11160524D01*
X9838333Y-11179571D01*
X9847857Y-11217667D01*
X9847857Y-11265286D01*
X9838333Y-11303381D01*
X9828810Y-11322428D01*
X9819286Y-11331952D01*
X9800238Y-11341476D01*
X9781190Y-11341476D01*
X9762143Y-11331952D01*
X9752619Y-11322428D01*
X9743095Y-11303381D01*
X9733571Y-11265286D01*
X9733571Y-11217667D01*
X9743095Y-11179571D01*
X9752619Y-11160524D01*
X9762143Y-11151000D01*
X9781190Y-11141476D01*
X10019286Y-11208143D02*
X10019286Y-11341476D01*
X9971667Y-11131952D02*
X9924048Y-11274809D01*
X10047857Y-11274809D01*
X10162143Y-11141476D02*
X10181190Y-11141476D01*
X10200238Y-11151000D01*
X10209762Y-11160524D01*
X10219286Y-11179571D01*
X10228810Y-11217667D01*
X10228810Y-11265286D01*
X10219286Y-11303381D01*
X10209762Y-11322428D01*
X10200238Y-11331952D01*
X10181190Y-11341476D01*
X10162143Y-11341476D01*
X10143095Y-11331952D01*
X10133571Y-11322428D01*
X10124048Y-11303381D01*
X10114524Y-11265286D01*
X10114524Y-11217667D01*
X10124048Y-11179571D01*
X10133571Y-11160524D01*
X10143095Y-11151000D01*
X10162143Y-11141476D01*
X10352619Y-11141476D02*
X10371667Y-11141476D01*
X10390714Y-11151000D01*
X10400238Y-11160524D01*
X10409762Y-11179571D01*
X10419286Y-11217667D01*
X10419286Y-11265286D01*
X10409762Y-11303381D01*
X10400238Y-11322428D01*
X10390714Y-11331952D01*
X10371667Y-11341476D01*
X10352619Y-11341476D01*
X10333571Y-11331952D01*
X10324048Y-11322428D01*
X10314524Y-11303381D01*
X10305000Y-11265286D01*
X10305000Y-11217667D01*
X10314524Y-11179571D01*
X10324048Y-11160524D01*
X10333571Y-11151000D01*
X10352619Y-11141476D01*
X10495476Y-11141476D02*
X10495476Y-11179571D01*
X10571667Y-11141476D02*
X10571667Y-11179571D01*
X10866905Y-11417667D02*
X10857381Y-11408143D01*
X10838333Y-11379571D01*
X10828810Y-11360524D01*
X10819286Y-11331952D01*
X10809762Y-11284333D01*
X10809762Y-11246238D01*
X10819286Y-11198619D01*
X10828810Y-11170048D01*
X10838333Y-11151000D01*
X10857381Y-11122429D01*
X10866905Y-11112905D01*
X10952619Y-11341476D02*
X10990714Y-11341476D01*
X11009762Y-11331952D01*
X11019286Y-11322428D01*
X11038333Y-11293857D01*
X11047857Y-11255762D01*
X11047857Y-11179571D01*
X11038333Y-11160524D01*
X11028810Y-11151000D01*
X11009762Y-11141476D01*
X10971667Y-11141476D01*
X10952619Y-11151000D01*
X10943095Y-11160524D01*
X10933571Y-11179571D01*
X10933571Y-11227190D01*
X10943095Y-11246238D01*
X10952619Y-11255762D01*
X10971667Y-11265286D01*
X11009762Y-11265286D01*
X11028810Y-11255762D01*
X11038333Y-11246238D01*
X11047857Y-11227190D01*
X11124048Y-11160524D02*
X11133571Y-11151000D01*
X11152619Y-11141476D01*
X11200238Y-11141476D01*
X11219286Y-11151000D01*
X11228809Y-11160524D01*
X11238333Y-11179571D01*
X11238333Y-11198619D01*
X11228809Y-11227190D01*
X11114524Y-11341476D01*
X11238333Y-11341476D01*
X11476428Y-11341476D02*
X11476428Y-11141476D01*
X11562143Y-11341476D02*
X11562143Y-11236714D01*
X11552619Y-11217667D01*
X11533571Y-11208143D01*
X11505000Y-11208143D01*
X11485952Y-11217667D01*
X11476428Y-11227190D01*
X11685952Y-11341476D02*
X11666905Y-11331952D01*
X11657381Y-11322428D01*
X11647857Y-11303381D01*
X11647857Y-11246238D01*
X11657381Y-11227190D01*
X11666905Y-11217667D01*
X11685952Y-11208143D01*
X11714524Y-11208143D01*
X11733571Y-11217667D01*
X11743095Y-11227190D01*
X11752619Y-11246238D01*
X11752619Y-11303381D01*
X11743095Y-11322428D01*
X11733571Y-11331952D01*
X11714524Y-11341476D01*
X11685952Y-11341476D01*
X11866905Y-11341476D02*
X11847857Y-11331952D01*
X11838333Y-11312905D01*
X11838333Y-11141476D01*
X12019286Y-11331952D02*
X12000238Y-11341476D01*
X11962143Y-11341476D01*
X11943095Y-11331952D01*
X11933571Y-11312905D01*
X11933571Y-11236714D01*
X11943095Y-11217667D01*
X11962143Y-11208143D01*
X12000238Y-11208143D01*
X12019286Y-11217667D01*
X12028809Y-11236714D01*
X12028809Y-11255762D01*
X11933571Y-11274809D01*
X12105000Y-11331952D02*
X12124048Y-11341476D01*
X12162143Y-11341476D01*
X12181190Y-11331952D01*
X12190714Y-11312905D01*
X12190714Y-11303381D01*
X12181190Y-11284333D01*
X12162143Y-11274809D01*
X12133571Y-11274809D01*
X12114524Y-11265286D01*
X12105000Y-11246238D01*
X12105000Y-11236714D01*
X12114524Y-11217667D01*
X12133571Y-11208143D01*
X12162143Y-11208143D01*
X12181190Y-11217667D01*
X12257381Y-11417667D02*
X12266905Y-11408143D01*
X12285952Y-11379571D01*
X12295476Y-11360524D01*
X12305000Y-11331952D01*
X12314524Y-11284333D01*
X12314524Y-11246238D01*
X12305000Y-11198619D01*
X12295476Y-11170048D01*
X12285952Y-11151000D01*
X12266905Y-11122429D01*
X12257381Y-11112905D01*
D17*
X7185000Y-11460000D02*
X7295000Y-11570000D01*
X7295000Y-11460000D02*
X7185000Y-11570000D01*
X7295000Y-11515000D02*
G75*
G03*
X7295000Y-11515000I-55000J0D01*
G01*
D11*
X7657381Y-11605476D02*
X7543095Y-11605476D01*
X7600238Y-11605476D02*
X7600238Y-11405476D01*
X7581190Y-11434048D01*
X7562143Y-11453095D01*
X7543095Y-11462619D01*
X7743095Y-11586428D02*
X7752619Y-11595952D01*
X7743095Y-11605476D01*
X7733571Y-11595952D01*
X7743095Y-11586428D01*
X7743095Y-11605476D01*
X7943095Y-11605476D02*
X7828809Y-11605476D01*
X7885952Y-11605476D02*
X7885952Y-11405476D01*
X7866905Y-11434048D01*
X7847857Y-11453095D01*
X7828809Y-11462619D01*
X8066905Y-11405476D02*
X8085952Y-11405476D01*
X8105000Y-11415000D01*
X8114524Y-11424524D01*
X8124048Y-11443571D01*
X8133571Y-11481667D01*
X8133571Y-11529286D01*
X8124048Y-11567381D01*
X8114524Y-11586428D01*
X8105000Y-11595952D01*
X8085952Y-11605476D01*
X8066905Y-11605476D01*
X8047857Y-11595952D01*
X8038333Y-11586428D01*
X8028809Y-11567381D01*
X8019286Y-11529286D01*
X8019286Y-11481667D01*
X8028809Y-11443571D01*
X8038333Y-11424524D01*
X8047857Y-11415000D01*
X8066905Y-11405476D01*
X8257381Y-11405476D02*
X8276428Y-11405476D01*
X8295476Y-11415000D01*
X8305000Y-11424524D01*
X8314524Y-11443571D01*
X8324048Y-11481667D01*
X8324048Y-11529286D01*
X8314524Y-11567381D01*
X8305000Y-11586428D01*
X8295476Y-11595952D01*
X8276428Y-11605476D01*
X8257381Y-11605476D01*
X8238333Y-11595952D01*
X8228809Y-11586428D01*
X8219286Y-11567381D01*
X8209762Y-11529286D01*
X8209762Y-11481667D01*
X8219286Y-11443571D01*
X8228809Y-11424524D01*
X8238333Y-11415000D01*
X8257381Y-11405476D01*
X8409762Y-11605476D02*
X8409762Y-11472143D01*
X8409762Y-11491190D02*
X8419286Y-11481667D01*
X8438333Y-11472143D01*
X8466905Y-11472143D01*
X8485952Y-11481667D01*
X8495476Y-11500714D01*
X8495476Y-11605476D01*
X8495476Y-11500714D02*
X8505000Y-11481667D01*
X8524048Y-11472143D01*
X8552619Y-11472143D01*
X8571667Y-11481667D01*
X8581190Y-11500714D01*
X8581190Y-11605476D01*
X8676429Y-11605476D02*
X8676429Y-11472143D01*
X8676429Y-11491190D02*
X8685952Y-11481667D01*
X8705000Y-11472143D01*
X8733571Y-11472143D01*
X8752619Y-11481667D01*
X8762143Y-11500714D01*
X8762143Y-11605476D01*
X8762143Y-11500714D02*
X8771667Y-11481667D01*
X8790714Y-11472143D01*
X8819286Y-11472143D01*
X8838333Y-11481667D01*
X8847857Y-11500714D01*
X8847857Y-11605476D01*
X9238333Y-11395952D02*
X9066905Y-11653095D01*
X9495476Y-11405476D02*
X9514524Y-11405476D01*
X9533571Y-11415000D01*
X9543095Y-11424524D01*
X9552619Y-11443571D01*
X9562143Y-11481667D01*
X9562143Y-11529286D01*
X9552619Y-11567381D01*
X9543095Y-11586428D01*
X9533571Y-11595952D01*
X9514524Y-11605476D01*
X9495476Y-11605476D01*
X9476429Y-11595952D01*
X9466905Y-11586428D01*
X9457381Y-11567381D01*
X9447857Y-11529286D01*
X9447857Y-11481667D01*
X9457381Y-11443571D01*
X9466905Y-11424524D01*
X9476429Y-11415000D01*
X9495476Y-11405476D01*
X9647857Y-11586428D02*
X9657381Y-11595952D01*
X9647857Y-11605476D01*
X9638333Y-11595952D01*
X9647857Y-11586428D01*
X9647857Y-11605476D01*
X9781190Y-11405476D02*
X9800238Y-11405476D01*
X9819286Y-11415000D01*
X9828810Y-11424524D01*
X9838333Y-11443571D01*
X9847857Y-11481667D01*
X9847857Y-11529286D01*
X9838333Y-11567381D01*
X9828810Y-11586428D01*
X9819286Y-11595952D01*
X9800238Y-11605476D01*
X9781190Y-11605476D01*
X9762143Y-11595952D01*
X9752619Y-11586428D01*
X9743095Y-11567381D01*
X9733571Y-11529286D01*
X9733571Y-11481667D01*
X9743095Y-11443571D01*
X9752619Y-11424524D01*
X9762143Y-11415000D01*
X9781190Y-11405476D01*
X10019286Y-11472143D02*
X10019286Y-11605476D01*
X9971667Y-11395952D02*
X9924048Y-11538809D01*
X10047857Y-11538809D01*
X10105000Y-11405476D02*
X10228810Y-11405476D01*
X10162143Y-11481667D01*
X10190714Y-11481667D01*
X10209762Y-11491190D01*
X10219286Y-11500714D01*
X10228810Y-11519762D01*
X10228810Y-11567381D01*
X10219286Y-11586428D01*
X10209762Y-11595952D01*
X10190714Y-11605476D01*
X10133571Y-11605476D01*
X10114524Y-11595952D01*
X10105000Y-11586428D01*
X10295476Y-11405476D02*
X10419286Y-11405476D01*
X10352619Y-11481667D01*
X10381190Y-11481667D01*
X10400238Y-11491190D01*
X10409762Y-11500714D01*
X10419286Y-11519762D01*
X10419286Y-11567381D01*
X10409762Y-11586428D01*
X10400238Y-11595952D01*
X10381190Y-11605476D01*
X10324048Y-11605476D01*
X10305000Y-11595952D01*
X10295476Y-11586428D01*
X10495476Y-11405476D02*
X10495476Y-11443571D01*
X10571667Y-11405476D02*
X10571667Y-11443571D01*
X10866905Y-11681667D02*
X10857381Y-11672143D01*
X10838333Y-11643571D01*
X10828810Y-11624524D01*
X10819286Y-11595952D01*
X10809762Y-11548333D01*
X10809762Y-11510238D01*
X10819286Y-11462619D01*
X10828810Y-11434048D01*
X10838333Y-11415000D01*
X10857381Y-11386428D01*
X10866905Y-11376905D01*
X11028810Y-11472143D02*
X11028810Y-11605476D01*
X10981190Y-11395952D02*
X10933571Y-11538809D01*
X11057381Y-11538809D01*
X11285952Y-11605476D02*
X11285952Y-11405476D01*
X11371667Y-11605476D02*
X11371667Y-11500714D01*
X11362143Y-11481667D01*
X11343095Y-11472143D01*
X11314524Y-11472143D01*
X11295476Y-11481667D01*
X11285952Y-11491190D01*
X11495476Y-11605476D02*
X11476428Y-11595952D01*
X11466905Y-11586428D01*
X11457381Y-11567381D01*
X11457381Y-11510238D01*
X11466905Y-11491190D01*
X11476428Y-11481667D01*
X11495476Y-11472143D01*
X11524048Y-11472143D01*
X11543095Y-11481667D01*
X11552619Y-11491190D01*
X11562143Y-11510238D01*
X11562143Y-11567381D01*
X11552619Y-11586428D01*
X11543095Y-11595952D01*
X11524048Y-11605476D01*
X11495476Y-11605476D01*
X11676428Y-11605476D02*
X11657381Y-11595952D01*
X11647857Y-11576905D01*
X11647857Y-11405476D01*
X11828809Y-11595952D02*
X11809762Y-11605476D01*
X11771667Y-11605476D01*
X11752619Y-11595952D01*
X11743095Y-11576905D01*
X11743095Y-11500714D01*
X11752619Y-11481667D01*
X11771667Y-11472143D01*
X11809762Y-11472143D01*
X11828809Y-11481667D01*
X11838333Y-11500714D01*
X11838333Y-11519762D01*
X11743095Y-11538809D01*
X11914524Y-11595952D02*
X11933571Y-11605476D01*
X11971667Y-11605476D01*
X11990714Y-11595952D01*
X12000238Y-11576905D01*
X12000238Y-11567381D01*
X11990714Y-11548333D01*
X11971667Y-11538809D01*
X11943095Y-11538809D01*
X11924048Y-11529286D01*
X11914524Y-11510238D01*
X11914524Y-11500714D01*
X11924048Y-11481667D01*
X11943095Y-11472143D01*
X11971667Y-11472143D01*
X11990714Y-11481667D01*
X12066905Y-11681667D02*
X12076428Y-11672143D01*
X12095476Y-11643571D01*
X12105000Y-11624524D01*
X12114524Y-11595952D01*
X12124048Y-11548333D01*
X12124048Y-11510238D01*
X12114524Y-11462619D01*
X12105000Y-11434048D01*
X12095476Y-11415000D01*
X12076428Y-11386428D01*
X12066905Y-11376905D01*
D18*
X7175000Y-11719000D02*
X7295000Y-11839000D01*
X7295000Y-11719000D02*
X7175000Y-11839000D01*
X7235000Y-11719000D02*
X7235000Y-11839000D01*
X7175000Y-11779000D02*
X7295000Y-11779000D01*
D11*
X7657381Y-11869476D02*
X7543095Y-11869476D01*
X7600238Y-11869476D02*
X7600238Y-11669476D01*
X7581190Y-11698048D01*
X7562143Y-11717095D01*
X7543095Y-11726619D01*
X7743095Y-11850428D02*
X7752619Y-11859952D01*
X7743095Y-11869476D01*
X7733571Y-11859952D01*
X7743095Y-11850428D01*
X7743095Y-11869476D01*
X7828809Y-11688524D02*
X7838333Y-11679000D01*
X7857381Y-11669476D01*
X7905000Y-11669476D01*
X7924048Y-11679000D01*
X7933571Y-11688524D01*
X7943095Y-11707571D01*
X7943095Y-11726619D01*
X7933571Y-11755190D01*
X7819286Y-11869476D01*
X7943095Y-11869476D01*
X8066905Y-11669476D02*
X8085952Y-11669476D01*
X8105000Y-11679000D01*
X8114524Y-11688524D01*
X8124048Y-11707571D01*
X8133571Y-11745667D01*
X8133571Y-11793286D01*
X8124048Y-11831381D01*
X8114524Y-11850428D01*
X8105000Y-11859952D01*
X8085952Y-11869476D01*
X8066905Y-11869476D01*
X8047857Y-11859952D01*
X8038333Y-11850428D01*
X8028809Y-11831381D01*
X8019286Y-11793286D01*
X8019286Y-11745667D01*
X8028809Y-11707571D01*
X8038333Y-11688524D01*
X8047857Y-11679000D01*
X8066905Y-11669476D01*
X8257381Y-11669476D02*
X8276428Y-11669476D01*
X8295476Y-11679000D01*
X8305000Y-11688524D01*
X8314524Y-11707571D01*
X8324048Y-11745667D01*
X8324048Y-11793286D01*
X8314524Y-11831381D01*
X8305000Y-11850428D01*
X8295476Y-11859952D01*
X8276428Y-11869476D01*
X8257381Y-11869476D01*
X8238333Y-11859952D01*
X8228809Y-11850428D01*
X8219286Y-11831381D01*
X8209762Y-11793286D01*
X8209762Y-11745667D01*
X8219286Y-11707571D01*
X8228809Y-11688524D01*
X8238333Y-11679000D01*
X8257381Y-11669476D01*
X8409762Y-11869476D02*
X8409762Y-11736143D01*
X8409762Y-11755190D02*
X8419286Y-11745667D01*
X8438333Y-11736143D01*
X8466905Y-11736143D01*
X8485952Y-11745667D01*
X8495476Y-11764714D01*
X8495476Y-11869476D01*
X8495476Y-11764714D02*
X8505000Y-11745667D01*
X8524048Y-11736143D01*
X8552619Y-11736143D01*
X8571667Y-11745667D01*
X8581190Y-11764714D01*
X8581190Y-11869476D01*
X8676429Y-11869476D02*
X8676429Y-11736143D01*
X8676429Y-11755190D02*
X8685952Y-11745667D01*
X8705000Y-11736143D01*
X8733571Y-11736143D01*
X8752619Y-11745667D01*
X8762143Y-11764714D01*
X8762143Y-11869476D01*
X8762143Y-11764714D02*
X8771667Y-11745667D01*
X8790714Y-11736143D01*
X8819286Y-11736143D01*
X8838333Y-11745667D01*
X8847857Y-11764714D01*
X8847857Y-11869476D01*
X9238333Y-11659952D02*
X9066905Y-11917095D01*
X9495476Y-11669476D02*
X9514524Y-11669476D01*
X9533571Y-11679000D01*
X9543095Y-11688524D01*
X9552619Y-11707571D01*
X9562143Y-11745667D01*
X9562143Y-11793286D01*
X9552619Y-11831381D01*
X9543095Y-11850428D01*
X9533571Y-11859952D01*
X9514524Y-11869476D01*
X9495476Y-11869476D01*
X9476429Y-11859952D01*
X9466905Y-11850428D01*
X9457381Y-11831381D01*
X9447857Y-11793286D01*
X9447857Y-11745667D01*
X9457381Y-11707571D01*
X9466905Y-11688524D01*
X9476429Y-11679000D01*
X9495476Y-11669476D01*
X9647857Y-11850428D02*
X9657381Y-11859952D01*
X9647857Y-11869476D01*
X9638333Y-11859952D01*
X9647857Y-11850428D01*
X9647857Y-11869476D01*
X9781190Y-11669476D02*
X9800238Y-11669476D01*
X9819286Y-11679000D01*
X9828810Y-11688524D01*
X9838333Y-11707571D01*
X9847857Y-11745667D01*
X9847857Y-11793286D01*
X9838333Y-11831381D01*
X9828810Y-11850428D01*
X9819286Y-11859952D01*
X9800238Y-11869476D01*
X9781190Y-11869476D01*
X9762143Y-11859952D01*
X9752619Y-11850428D01*
X9743095Y-11831381D01*
X9733571Y-11793286D01*
X9733571Y-11745667D01*
X9743095Y-11707571D01*
X9752619Y-11688524D01*
X9762143Y-11679000D01*
X9781190Y-11669476D01*
X10019286Y-11736143D02*
X10019286Y-11869476D01*
X9971667Y-11659952D02*
X9924048Y-11802809D01*
X10047857Y-11802809D01*
X10105000Y-11669476D02*
X10238333Y-11669476D01*
X10152619Y-11869476D01*
X10305000Y-11688524D02*
X10314524Y-11679000D01*
X10333571Y-11669476D01*
X10381190Y-11669476D01*
X10400238Y-11679000D01*
X10409762Y-11688524D01*
X10419286Y-11707571D01*
X10419286Y-11726619D01*
X10409762Y-11755190D01*
X10295476Y-11869476D01*
X10419286Y-11869476D01*
X10495476Y-11669476D02*
X10495476Y-11707571D01*
X10571667Y-11669476D02*
X10571667Y-11707571D01*
X10866905Y-11945667D02*
X10857381Y-11936143D01*
X10838333Y-11907571D01*
X10828810Y-11888524D01*
X10819286Y-11859952D01*
X10809762Y-11812333D01*
X10809762Y-11774238D01*
X10819286Y-11726619D01*
X10828810Y-11698048D01*
X10838333Y-11679000D01*
X10857381Y-11650428D01*
X10866905Y-11640905D01*
X10933571Y-11688524D02*
X10943095Y-11679000D01*
X10962143Y-11669476D01*
X11009762Y-11669476D01*
X11028810Y-11679000D01*
X11038333Y-11688524D01*
X11047857Y-11707571D01*
X11047857Y-11726619D01*
X11038333Y-11755190D01*
X10924048Y-11869476D01*
X11047857Y-11869476D01*
X11285952Y-11869476D02*
X11285952Y-11669476D01*
X11371667Y-11869476D02*
X11371667Y-11764714D01*
X11362143Y-11745667D01*
X11343095Y-11736143D01*
X11314524Y-11736143D01*
X11295476Y-11745667D01*
X11285952Y-11755190D01*
X11495476Y-11869476D02*
X11476428Y-11859952D01*
X11466905Y-11850428D01*
X11457381Y-11831381D01*
X11457381Y-11774238D01*
X11466905Y-11755190D01*
X11476428Y-11745667D01*
X11495476Y-11736143D01*
X11524048Y-11736143D01*
X11543095Y-11745667D01*
X11552619Y-11755190D01*
X11562143Y-11774238D01*
X11562143Y-11831381D01*
X11552619Y-11850428D01*
X11543095Y-11859952D01*
X11524048Y-11869476D01*
X11495476Y-11869476D01*
X11676428Y-11869476D02*
X11657381Y-11859952D01*
X11647857Y-11840905D01*
X11647857Y-11669476D01*
X11828809Y-11859952D02*
X11809762Y-11869476D01*
X11771667Y-11869476D01*
X11752619Y-11859952D01*
X11743095Y-11840905D01*
X11743095Y-11764714D01*
X11752619Y-11745667D01*
X11771667Y-11736143D01*
X11809762Y-11736143D01*
X11828809Y-11745667D01*
X11838333Y-11764714D01*
X11838333Y-11783762D01*
X11743095Y-11802809D01*
X11914524Y-11859952D02*
X11933571Y-11869476D01*
X11971667Y-11869476D01*
X11990714Y-11859952D01*
X12000238Y-11840905D01*
X12000238Y-11831381D01*
X11990714Y-11812333D01*
X11971667Y-11802809D01*
X11943095Y-11802809D01*
X11924048Y-11793286D01*
X11914524Y-11774238D01*
X11914524Y-11764714D01*
X11924048Y-11745667D01*
X11943095Y-11736143D01*
X11971667Y-11736143D01*
X11990714Y-11745667D01*
X12066905Y-11945667D02*
X12076428Y-11936143D01*
X12095476Y-11907571D01*
X12105000Y-11888524D01*
X12114524Y-11859952D01*
X12124048Y-11812333D01*
X12124048Y-11774238D01*
X12114524Y-11726619D01*
X12105000Y-11698048D01*
X12095476Y-11679000D01*
X12076428Y-11650428D01*
X12066905Y-11640905D01*
M02*
