G04 #@! TF.GenerationSoftware,KiCad,Pcbnew,7.0.2*
G04 #@! TF.CreationDate,2023-11-05T16:37:17-05:00*
G04 #@! TF.ProjectId,PokerTips,506f6b65-7254-4697-9073-2e6b69636164,rev?*
G04 #@! TF.SameCoordinates,Original*
G04 #@! TF.FileFunction,Other,ECO1*
%FSLAX46Y46*%
G04 Gerber Fmt 4.6, Leading zero omitted, Abs format (unit mm)*
G04 Created by KiCad (PCBNEW 7.0.2) date 2023-11-05 16:37:17*
%MOMM*%
%LPD*%
G01*
G04 APERTURE LIST*
%ADD10C,0.150000*%
G04 APERTURE END LIST*
D10*
X118000000Y-38000000D02*
X118000000Y-134000000D01*
X38000000Y-70000000D02*
X134000000Y-70000000D01*
X38000000Y-86000000D02*
X134000000Y-86000000D01*
X54000000Y-38000000D02*
X54000000Y-134000000D01*
X38000000Y-54000000D02*
X134000000Y-54000000D01*
X70000000Y-38000000D02*
X70000000Y-134000000D01*
X102000000Y-38000000D02*
X102000000Y-134000000D01*
X38000000Y-102000000D02*
X134000000Y-102000000D01*
X38000000Y-118000000D02*
X134000000Y-118000000D01*
X86000000Y-38000000D02*
X86000000Y-134000000D01*
X31690476Y-69462619D02*
X32023809Y-70462619D01*
X32023809Y-70462619D02*
X32357142Y-69462619D01*
X32690476Y-70081666D02*
X33452381Y-70081666D01*
X34499999Y-70367380D02*
X34452380Y-70415000D01*
X34452380Y-70415000D02*
X34309523Y-70462619D01*
X34309523Y-70462619D02*
X34214285Y-70462619D01*
X34214285Y-70462619D02*
X34071428Y-70415000D01*
X34071428Y-70415000D02*
X33976190Y-70319761D01*
X33976190Y-70319761D02*
X33928571Y-70224523D01*
X33928571Y-70224523D02*
X33880952Y-70034047D01*
X33880952Y-70034047D02*
X33880952Y-69891190D01*
X33880952Y-69891190D02*
X33928571Y-69700714D01*
X33928571Y-69700714D02*
X33976190Y-69605476D01*
X33976190Y-69605476D02*
X34071428Y-69510238D01*
X34071428Y-69510238D02*
X34214285Y-69462619D01*
X34214285Y-69462619D02*
X34309523Y-69462619D01*
X34309523Y-69462619D02*
X34452380Y-69510238D01*
X34452380Y-69510238D02*
X34499999Y-69557857D01*
X34928571Y-69462619D02*
X34928571Y-70272142D01*
X34928571Y-70272142D02*
X34976190Y-70367380D01*
X34976190Y-70367380D02*
X35023809Y-70415000D01*
X35023809Y-70415000D02*
X35119047Y-70462619D01*
X35119047Y-70462619D02*
X35309523Y-70462619D01*
X35309523Y-70462619D02*
X35404761Y-70415000D01*
X35404761Y-70415000D02*
X35452380Y-70367380D01*
X35452380Y-70367380D02*
X35499999Y-70272142D01*
X35499999Y-70272142D02*
X35499999Y-69462619D01*
X35833333Y-69462619D02*
X36404761Y-69462619D01*
X36119047Y-70462619D02*
X36119047Y-69462619D01*
X101462619Y-36404761D02*
X102462619Y-36071428D01*
X102462619Y-36071428D02*
X101462619Y-35738095D01*
X102081666Y-35404761D02*
X102081666Y-34642857D01*
X102367380Y-33595238D02*
X102415000Y-33642857D01*
X102415000Y-33642857D02*
X102462619Y-33785714D01*
X102462619Y-33785714D02*
X102462619Y-33880952D01*
X102462619Y-33880952D02*
X102415000Y-34023809D01*
X102415000Y-34023809D02*
X102319761Y-34119047D01*
X102319761Y-34119047D02*
X102224523Y-34166666D01*
X102224523Y-34166666D02*
X102034047Y-34214285D01*
X102034047Y-34214285D02*
X101891190Y-34214285D01*
X101891190Y-34214285D02*
X101700714Y-34166666D01*
X101700714Y-34166666D02*
X101605476Y-34119047D01*
X101605476Y-34119047D02*
X101510238Y-34023809D01*
X101510238Y-34023809D02*
X101462619Y-33880952D01*
X101462619Y-33880952D02*
X101462619Y-33785714D01*
X101462619Y-33785714D02*
X101510238Y-33642857D01*
X101510238Y-33642857D02*
X101557857Y-33595238D01*
X101462619Y-33166666D02*
X102272142Y-33166666D01*
X102272142Y-33166666D02*
X102367380Y-33119047D01*
X102367380Y-33119047D02*
X102415000Y-33071428D01*
X102415000Y-33071428D02*
X102462619Y-32976190D01*
X102462619Y-32976190D02*
X102462619Y-32785714D01*
X102462619Y-32785714D02*
X102415000Y-32690476D01*
X102415000Y-32690476D02*
X102367380Y-32642857D01*
X102367380Y-32642857D02*
X102272142Y-32595238D01*
X102272142Y-32595238D02*
X101462619Y-32595238D01*
X101462619Y-32261904D02*
X101462619Y-31690476D01*
X102462619Y-31976190D02*
X101462619Y-31976190D01*
X31690476Y-117462619D02*
X32023809Y-118462619D01*
X32023809Y-118462619D02*
X32357142Y-117462619D01*
X32690476Y-118081666D02*
X33452381Y-118081666D01*
X34499999Y-118367380D02*
X34452380Y-118415000D01*
X34452380Y-118415000D02*
X34309523Y-118462619D01*
X34309523Y-118462619D02*
X34214285Y-118462619D01*
X34214285Y-118462619D02*
X34071428Y-118415000D01*
X34071428Y-118415000D02*
X33976190Y-118319761D01*
X33976190Y-118319761D02*
X33928571Y-118224523D01*
X33928571Y-118224523D02*
X33880952Y-118034047D01*
X33880952Y-118034047D02*
X33880952Y-117891190D01*
X33880952Y-117891190D02*
X33928571Y-117700714D01*
X33928571Y-117700714D02*
X33976190Y-117605476D01*
X33976190Y-117605476D02*
X34071428Y-117510238D01*
X34071428Y-117510238D02*
X34214285Y-117462619D01*
X34214285Y-117462619D02*
X34309523Y-117462619D01*
X34309523Y-117462619D02*
X34452380Y-117510238D01*
X34452380Y-117510238D02*
X34499999Y-117557857D01*
X34928571Y-117462619D02*
X34928571Y-118272142D01*
X34928571Y-118272142D02*
X34976190Y-118367380D01*
X34976190Y-118367380D02*
X35023809Y-118415000D01*
X35023809Y-118415000D02*
X35119047Y-118462619D01*
X35119047Y-118462619D02*
X35309523Y-118462619D01*
X35309523Y-118462619D02*
X35404761Y-118415000D01*
X35404761Y-118415000D02*
X35452380Y-118367380D01*
X35452380Y-118367380D02*
X35499999Y-118272142D01*
X35499999Y-118272142D02*
X35499999Y-117462619D01*
X35833333Y-117462619D02*
X36404761Y-117462619D01*
X36119047Y-118462619D02*
X36119047Y-117462619D01*
X69462619Y-36404761D02*
X70462619Y-36071428D01*
X70462619Y-36071428D02*
X69462619Y-35738095D01*
X70081666Y-35404761D02*
X70081666Y-34642857D01*
X70367380Y-33595238D02*
X70415000Y-33642857D01*
X70415000Y-33642857D02*
X70462619Y-33785714D01*
X70462619Y-33785714D02*
X70462619Y-33880952D01*
X70462619Y-33880952D02*
X70415000Y-34023809D01*
X70415000Y-34023809D02*
X70319761Y-34119047D01*
X70319761Y-34119047D02*
X70224523Y-34166666D01*
X70224523Y-34166666D02*
X70034047Y-34214285D01*
X70034047Y-34214285D02*
X69891190Y-34214285D01*
X69891190Y-34214285D02*
X69700714Y-34166666D01*
X69700714Y-34166666D02*
X69605476Y-34119047D01*
X69605476Y-34119047D02*
X69510238Y-34023809D01*
X69510238Y-34023809D02*
X69462619Y-33880952D01*
X69462619Y-33880952D02*
X69462619Y-33785714D01*
X69462619Y-33785714D02*
X69510238Y-33642857D01*
X69510238Y-33642857D02*
X69557857Y-33595238D01*
X69462619Y-33166666D02*
X70272142Y-33166666D01*
X70272142Y-33166666D02*
X70367380Y-33119047D01*
X70367380Y-33119047D02*
X70415000Y-33071428D01*
X70415000Y-33071428D02*
X70462619Y-32976190D01*
X70462619Y-32976190D02*
X70462619Y-32785714D01*
X70462619Y-32785714D02*
X70415000Y-32690476D01*
X70415000Y-32690476D02*
X70367380Y-32642857D01*
X70367380Y-32642857D02*
X70272142Y-32595238D01*
X70272142Y-32595238D02*
X69462619Y-32595238D01*
X69462619Y-32261904D02*
X69462619Y-31690476D01*
X70462619Y-31976190D02*
X69462619Y-31976190D01*
X53462619Y-36404761D02*
X54462619Y-36071428D01*
X54462619Y-36071428D02*
X53462619Y-35738095D01*
X54081666Y-35404761D02*
X54081666Y-34642857D01*
X54367380Y-33595238D02*
X54415000Y-33642857D01*
X54415000Y-33642857D02*
X54462619Y-33785714D01*
X54462619Y-33785714D02*
X54462619Y-33880952D01*
X54462619Y-33880952D02*
X54415000Y-34023809D01*
X54415000Y-34023809D02*
X54319761Y-34119047D01*
X54319761Y-34119047D02*
X54224523Y-34166666D01*
X54224523Y-34166666D02*
X54034047Y-34214285D01*
X54034047Y-34214285D02*
X53891190Y-34214285D01*
X53891190Y-34214285D02*
X53700714Y-34166666D01*
X53700714Y-34166666D02*
X53605476Y-34119047D01*
X53605476Y-34119047D02*
X53510238Y-34023809D01*
X53510238Y-34023809D02*
X53462619Y-33880952D01*
X53462619Y-33880952D02*
X53462619Y-33785714D01*
X53462619Y-33785714D02*
X53510238Y-33642857D01*
X53510238Y-33642857D02*
X53557857Y-33595238D01*
X53462619Y-33166666D02*
X54272142Y-33166666D01*
X54272142Y-33166666D02*
X54367380Y-33119047D01*
X54367380Y-33119047D02*
X54415000Y-33071428D01*
X54415000Y-33071428D02*
X54462619Y-32976190D01*
X54462619Y-32976190D02*
X54462619Y-32785714D01*
X54462619Y-32785714D02*
X54415000Y-32690476D01*
X54415000Y-32690476D02*
X54367380Y-32642857D01*
X54367380Y-32642857D02*
X54272142Y-32595238D01*
X54272142Y-32595238D02*
X53462619Y-32595238D01*
X53462619Y-32261904D02*
X53462619Y-31690476D01*
X54462619Y-31976190D02*
X53462619Y-31976190D01*
X85462619Y-36404761D02*
X86462619Y-36071428D01*
X86462619Y-36071428D02*
X85462619Y-35738095D01*
X86081666Y-35404761D02*
X86081666Y-34642857D01*
X86367380Y-33595238D02*
X86415000Y-33642857D01*
X86415000Y-33642857D02*
X86462619Y-33785714D01*
X86462619Y-33785714D02*
X86462619Y-33880952D01*
X86462619Y-33880952D02*
X86415000Y-34023809D01*
X86415000Y-34023809D02*
X86319761Y-34119047D01*
X86319761Y-34119047D02*
X86224523Y-34166666D01*
X86224523Y-34166666D02*
X86034047Y-34214285D01*
X86034047Y-34214285D02*
X85891190Y-34214285D01*
X85891190Y-34214285D02*
X85700714Y-34166666D01*
X85700714Y-34166666D02*
X85605476Y-34119047D01*
X85605476Y-34119047D02*
X85510238Y-34023809D01*
X85510238Y-34023809D02*
X85462619Y-33880952D01*
X85462619Y-33880952D02*
X85462619Y-33785714D01*
X85462619Y-33785714D02*
X85510238Y-33642857D01*
X85510238Y-33642857D02*
X85557857Y-33595238D01*
X85462619Y-33166666D02*
X86272142Y-33166666D01*
X86272142Y-33166666D02*
X86367380Y-33119047D01*
X86367380Y-33119047D02*
X86415000Y-33071428D01*
X86415000Y-33071428D02*
X86462619Y-32976190D01*
X86462619Y-32976190D02*
X86462619Y-32785714D01*
X86462619Y-32785714D02*
X86415000Y-32690476D01*
X86415000Y-32690476D02*
X86367380Y-32642857D01*
X86367380Y-32642857D02*
X86272142Y-32595238D01*
X86272142Y-32595238D02*
X85462619Y-32595238D01*
X85462619Y-32261904D02*
X85462619Y-31690476D01*
X86462619Y-31976190D02*
X85462619Y-31976190D01*
X31690476Y-85462619D02*
X32023809Y-86462619D01*
X32023809Y-86462619D02*
X32357142Y-85462619D01*
X32690476Y-86081666D02*
X33452381Y-86081666D01*
X34499999Y-86367380D02*
X34452380Y-86415000D01*
X34452380Y-86415000D02*
X34309523Y-86462619D01*
X34309523Y-86462619D02*
X34214285Y-86462619D01*
X34214285Y-86462619D02*
X34071428Y-86415000D01*
X34071428Y-86415000D02*
X33976190Y-86319761D01*
X33976190Y-86319761D02*
X33928571Y-86224523D01*
X33928571Y-86224523D02*
X33880952Y-86034047D01*
X33880952Y-86034047D02*
X33880952Y-85891190D01*
X33880952Y-85891190D02*
X33928571Y-85700714D01*
X33928571Y-85700714D02*
X33976190Y-85605476D01*
X33976190Y-85605476D02*
X34071428Y-85510238D01*
X34071428Y-85510238D02*
X34214285Y-85462619D01*
X34214285Y-85462619D02*
X34309523Y-85462619D01*
X34309523Y-85462619D02*
X34452380Y-85510238D01*
X34452380Y-85510238D02*
X34499999Y-85557857D01*
X34928571Y-85462619D02*
X34928571Y-86272142D01*
X34928571Y-86272142D02*
X34976190Y-86367380D01*
X34976190Y-86367380D02*
X35023809Y-86415000D01*
X35023809Y-86415000D02*
X35119047Y-86462619D01*
X35119047Y-86462619D02*
X35309523Y-86462619D01*
X35309523Y-86462619D02*
X35404761Y-86415000D01*
X35404761Y-86415000D02*
X35452380Y-86367380D01*
X35452380Y-86367380D02*
X35499999Y-86272142D01*
X35499999Y-86272142D02*
X35499999Y-85462619D01*
X35833333Y-85462619D02*
X36404761Y-85462619D01*
X36119047Y-86462619D02*
X36119047Y-85462619D01*
X117462619Y-36404761D02*
X118462619Y-36071428D01*
X118462619Y-36071428D02*
X117462619Y-35738095D01*
X118081666Y-35404761D02*
X118081666Y-34642857D01*
X118367380Y-33595238D02*
X118415000Y-33642857D01*
X118415000Y-33642857D02*
X118462619Y-33785714D01*
X118462619Y-33785714D02*
X118462619Y-33880952D01*
X118462619Y-33880952D02*
X118415000Y-34023809D01*
X118415000Y-34023809D02*
X118319761Y-34119047D01*
X118319761Y-34119047D02*
X118224523Y-34166666D01*
X118224523Y-34166666D02*
X118034047Y-34214285D01*
X118034047Y-34214285D02*
X117891190Y-34214285D01*
X117891190Y-34214285D02*
X117700714Y-34166666D01*
X117700714Y-34166666D02*
X117605476Y-34119047D01*
X117605476Y-34119047D02*
X117510238Y-34023809D01*
X117510238Y-34023809D02*
X117462619Y-33880952D01*
X117462619Y-33880952D02*
X117462619Y-33785714D01*
X117462619Y-33785714D02*
X117510238Y-33642857D01*
X117510238Y-33642857D02*
X117557857Y-33595238D01*
X117462619Y-33166666D02*
X118272142Y-33166666D01*
X118272142Y-33166666D02*
X118367380Y-33119047D01*
X118367380Y-33119047D02*
X118415000Y-33071428D01*
X118415000Y-33071428D02*
X118462619Y-32976190D01*
X118462619Y-32976190D02*
X118462619Y-32785714D01*
X118462619Y-32785714D02*
X118415000Y-32690476D01*
X118415000Y-32690476D02*
X118367380Y-32642857D01*
X118367380Y-32642857D02*
X118272142Y-32595238D01*
X118272142Y-32595238D02*
X117462619Y-32595238D01*
X117462619Y-32261904D02*
X117462619Y-31690476D01*
X118462619Y-31976190D02*
X117462619Y-31976190D01*
X31690476Y-101462619D02*
X32023809Y-102462619D01*
X32023809Y-102462619D02*
X32357142Y-101462619D01*
X32690476Y-102081666D02*
X33452381Y-102081666D01*
X34499999Y-102367380D02*
X34452380Y-102415000D01*
X34452380Y-102415000D02*
X34309523Y-102462619D01*
X34309523Y-102462619D02*
X34214285Y-102462619D01*
X34214285Y-102462619D02*
X34071428Y-102415000D01*
X34071428Y-102415000D02*
X33976190Y-102319761D01*
X33976190Y-102319761D02*
X33928571Y-102224523D01*
X33928571Y-102224523D02*
X33880952Y-102034047D01*
X33880952Y-102034047D02*
X33880952Y-101891190D01*
X33880952Y-101891190D02*
X33928571Y-101700714D01*
X33928571Y-101700714D02*
X33976190Y-101605476D01*
X33976190Y-101605476D02*
X34071428Y-101510238D01*
X34071428Y-101510238D02*
X34214285Y-101462619D01*
X34214285Y-101462619D02*
X34309523Y-101462619D01*
X34309523Y-101462619D02*
X34452380Y-101510238D01*
X34452380Y-101510238D02*
X34499999Y-101557857D01*
X34928571Y-101462619D02*
X34928571Y-102272142D01*
X34928571Y-102272142D02*
X34976190Y-102367380D01*
X34976190Y-102367380D02*
X35023809Y-102415000D01*
X35023809Y-102415000D02*
X35119047Y-102462619D01*
X35119047Y-102462619D02*
X35309523Y-102462619D01*
X35309523Y-102462619D02*
X35404761Y-102415000D01*
X35404761Y-102415000D02*
X35452380Y-102367380D01*
X35452380Y-102367380D02*
X35499999Y-102272142D01*
X35499999Y-102272142D02*
X35499999Y-101462619D01*
X35833333Y-101462619D02*
X36404761Y-101462619D01*
X36119047Y-102462619D02*
X36119047Y-101462619D01*
X31690476Y-53462619D02*
X32023809Y-54462619D01*
X32023809Y-54462619D02*
X32357142Y-53462619D01*
X32690476Y-54081666D02*
X33452381Y-54081666D01*
X34499999Y-54367380D02*
X34452380Y-54415000D01*
X34452380Y-54415000D02*
X34309523Y-54462619D01*
X34309523Y-54462619D02*
X34214285Y-54462619D01*
X34214285Y-54462619D02*
X34071428Y-54415000D01*
X34071428Y-54415000D02*
X33976190Y-54319761D01*
X33976190Y-54319761D02*
X33928571Y-54224523D01*
X33928571Y-54224523D02*
X33880952Y-54034047D01*
X33880952Y-54034047D02*
X33880952Y-53891190D01*
X33880952Y-53891190D02*
X33928571Y-53700714D01*
X33928571Y-53700714D02*
X33976190Y-53605476D01*
X33976190Y-53605476D02*
X34071428Y-53510238D01*
X34071428Y-53510238D02*
X34214285Y-53462619D01*
X34214285Y-53462619D02*
X34309523Y-53462619D01*
X34309523Y-53462619D02*
X34452380Y-53510238D01*
X34452380Y-53510238D02*
X34499999Y-53557857D01*
X34928571Y-53462619D02*
X34928571Y-54272142D01*
X34928571Y-54272142D02*
X34976190Y-54367380D01*
X34976190Y-54367380D02*
X35023809Y-54415000D01*
X35023809Y-54415000D02*
X35119047Y-54462619D01*
X35119047Y-54462619D02*
X35309523Y-54462619D01*
X35309523Y-54462619D02*
X35404761Y-54415000D01*
X35404761Y-54415000D02*
X35452380Y-54367380D01*
X35452380Y-54367380D02*
X35499999Y-54272142D01*
X35499999Y-54272142D02*
X35499999Y-53462619D01*
X35833333Y-53462619D02*
X36404761Y-53462619D01*
X36119047Y-54462619D02*
X36119047Y-53462619D01*
M02*
