%TF.GenerationSoftware,KiCad,Pcbnew,7.0.2*%
%TF.CreationDate,2023-11-05T16:37:23-05:00*%
%TF.ProjectId,PokerTips,506f6b65-7254-4697-9073-2e6b69636164,rev?*%
%TF.SameCoordinates,Original*%
%TF.FileFunction,Drillmap*%
%TF.FilePolarity,Positive*%
%FSLAX45Y45*%
G04 Gerber Fmt 4.5, Leading zero omitted, Abs format (unit mm)*
G04 Created by KiCad (PCBNEW 7.0.2) date 2023-11-05 16:37:23*
%MOMM*%
%LPD*%
G01*
G04 APERTURE LIST*
%ADD10C,0.100000*%
%ADD11C,0.200000*%
%ADD12C,0.050000*%
G04 APERTURE END LIST*
D10*
X6300000Y-5600000D02*
X6300000Y-5200000D01*
X7700000Y-5600000D02*
X7700000Y-5200000D01*
X10200000Y-10340000D02*
X10654289Y-10795711D01*
X12600000Y-11500000D02*
G75*
G03*
X12500000Y-11600000I0J-100000D01*
G01*
X11940000Y-10200000D02*
X12395711Y-10654289D01*
X5260000Y-3800000D02*
X4700000Y-3800000D01*
X10340000Y-7000000D02*
X10795711Y-6545711D01*
X12945711Y-8004289D02*
G75*
G03*
X12804289Y-8145711I-70711J-70711D01*
G01*
X9604289Y-4254289D02*
G75*
G03*
X9745711Y-4395711I70711J-70711D01*
G01*
X7140000Y-10200000D02*
X7595711Y-9745711D01*
X4500000Y-4000000D02*
X4500000Y-3800000D01*
X5854289Y-7595711D02*
G75*
G03*
X5995711Y-7454289I70711J70711D01*
G01*
X11100000Y-7200000D02*
X11100000Y-6800000D01*
X5200000Y-10900000D02*
X5600000Y-10900000D01*
X6545711Y-8004289D02*
G75*
G03*
X6404289Y-8145711I-70711J-70711D01*
G01*
X13400000Y-6300000D02*
X13400000Y-6860000D01*
X8800000Y-12700000D02*
G75*
G03*
X8900000Y-12600000I0J100000D01*
G01*
X7454289Y-9195711D02*
G75*
G03*
X7595711Y-9054289I70711J70711D01*
G01*
X13400000Y-12700000D02*
X13400000Y-13260000D01*
X12500000Y-7200000D02*
X12500000Y-6800000D01*
X13400000Y-6860000D02*
X12945711Y-6404289D01*
X13400000Y-12700000D02*
X13200000Y-12700000D01*
X7000000Y-11940000D02*
X6545711Y-12395711D01*
X11100000Y-10000000D02*
G75*
G03*
X10900000Y-10000000I-100000J0D01*
G01*
X10000000Y-9300000D02*
X10400000Y-9300000D01*
X10200000Y-5260000D02*
X10654289Y-4804289D01*
X11800000Y-10340000D02*
X12254289Y-10795711D01*
X6800000Y-4500000D02*
X7200000Y-4500000D01*
X7140000Y-7000000D02*
X7595711Y-6545711D01*
X4500000Y-12000000D02*
X4500000Y-11600000D01*
X4804289Y-12254289D02*
G75*
G03*
X4945711Y-12395711I70711J-70711D01*
G01*
X4945711Y-12804289D02*
G75*
G03*
X4804289Y-12945711I-70711J-70711D01*
G01*
X10400000Y-11100000D02*
G75*
G03*
X10400000Y-10900000I0J100000D01*
G01*
X3800000Y-10340000D02*
X4254289Y-10795711D01*
X4804289Y-10654289D02*
G75*
G03*
X4945711Y-10795711I70711J-70711D01*
G01*
X5200000Y-7900000D02*
X5600000Y-7900000D01*
X8004289Y-7454289D02*
G75*
G03*
X8145711Y-7595711I70711J-70711D01*
G01*
X7140000Y-11800000D02*
X7595711Y-12254289D01*
X11800000Y-6860000D02*
X11345711Y-6404289D01*
X8600000Y-10340000D02*
X9054289Y-10795711D01*
X8300000Y-12600000D02*
G75*
G03*
X8400000Y-12700000I100000J0D01*
G01*
X9300000Y-12000000D02*
X9300000Y-11600000D01*
X12000000Y-12700000D02*
G75*
G03*
X12100000Y-12600000I0J100000D01*
G01*
X13260000Y-10200000D02*
X12804289Y-9745711D01*
X8600000Y-11660000D02*
X9054289Y-11204289D01*
X11940000Y-5400000D02*
X12395711Y-4945711D01*
X5400000Y-11660000D02*
X5854289Y-11204289D01*
X12395711Y-9745711D02*
G75*
G03*
X12254289Y-9604289I-70711J70711D01*
G01*
X12804289Y-7454289D02*
G75*
G03*
X12945711Y-7595711I70711J-70711D01*
G01*
X11345711Y-11204289D02*
G75*
G03*
X11204289Y-11345711I-70711J-70711D01*
G01*
X6800000Y-12500000D02*
G75*
G03*
X6700000Y-12600000I0J-100000D01*
G01*
X9300000Y-4000000D02*
G75*
G03*
X9500000Y-4000000I100000J0D01*
G01*
X5400000Y-8460000D02*
X5854289Y-8004289D01*
X8600000Y-8460000D02*
X8145711Y-8004289D01*
X11800000Y-6860000D02*
X12254289Y-6404289D01*
X11345711Y-9604289D02*
G75*
G03*
X11204289Y-9745711I-70711J-70711D01*
G01*
X3800000Y-3940000D02*
X4254289Y-4395711D01*
X3800000Y-8460000D02*
X4254289Y-8004289D01*
X6860000Y-10200000D02*
X6404289Y-9745711D01*
X6800000Y-11100000D02*
X7200000Y-11100000D01*
X4395711Y-4945711D02*
G75*
G03*
X4254289Y-4804289I-70711J70711D01*
G01*
X13260000Y-7000000D02*
X12804289Y-7454289D01*
X5540000Y-8600000D02*
X5995711Y-9054289D01*
X12500000Y-7200000D02*
G75*
G03*
X12600000Y-7300000I100000J0D01*
G01*
X7200000Y-12700000D02*
X6800000Y-12700000D01*
X7700000Y-4000000D02*
G75*
G03*
X7900000Y-4000000I100000J0D01*
G01*
X5995711Y-8145711D02*
G75*
G03*
X5854289Y-8004289I-70711J70711D01*
G01*
X10900000Y-10400000D02*
G75*
G03*
X11100000Y-10400000I100000J0D01*
G01*
X13260000Y-8600000D02*
X12804289Y-8145711D01*
X5260000Y-8600000D02*
X4804289Y-8145711D01*
X9300000Y-13200000D02*
X9300000Y-13400000D01*
X5854289Y-10795711D02*
G75*
G03*
X5995711Y-10654289I70711J70711D01*
G01*
X13400000Y-5540000D02*
X13400000Y-6100000D01*
X11660000Y-3800000D02*
X11100000Y-3800000D01*
X11800000Y-3940000D02*
X11345711Y-4395711D01*
X10340000Y-10200000D02*
X10795711Y-10654289D01*
X8600000Y-6860000D02*
X8145711Y-6404289D01*
X5400000Y-10060000D02*
X4945711Y-9604289D01*
X11600000Y-4700000D02*
X12000000Y-4700000D01*
X8800000Y-11100000D02*
G75*
G03*
X8800000Y-10900000I0J100000D01*
G01*
X11600000Y-12500000D02*
G75*
G03*
X11500000Y-12600000I0J-100000D01*
G01*
X11940000Y-8600000D02*
X12395711Y-9054289D01*
X13260000Y-11800000D02*
X12804289Y-11345711D01*
X5200000Y-12500000D02*
X5600000Y-12500000D01*
X12000000Y-6300000D02*
G75*
G03*
X12000000Y-6100000I0J100000D01*
G01*
X8400000Y-6300000D02*
X8800000Y-6300000D01*
X11660000Y-7000000D02*
X11204289Y-7454289D01*
X6545711Y-11204289D02*
G75*
G03*
X6404289Y-11345711I-70711J-70711D01*
G01*
X4945711Y-11204289D02*
G75*
G03*
X4804289Y-11345711I-70711J-70711D01*
G01*
X5200000Y-6100000D02*
G75*
G03*
X5200000Y-6300000I0J-100000D01*
G01*
X11800000Y-11660000D02*
X12254289Y-11204289D01*
X4500000Y-4000000D02*
G75*
G03*
X4700000Y-4000000I100000J0D01*
G01*
X8600000Y-13260000D02*
X8145711Y-12804289D01*
X4700000Y-8400000D02*
G75*
G03*
X4500000Y-8400000I-100000J0D01*
G01*
X8460000Y-13400000D02*
X8004289Y-12945711D01*
X7140000Y-11800000D02*
X7595711Y-11345711D01*
X5540000Y-11800000D02*
X5995711Y-11345711D01*
X9900000Y-12600000D02*
G75*
G03*
X10000000Y-12700000I100000J0D01*
G01*
X6404289Y-9054289D02*
G75*
G03*
X6545711Y-9195711I70711J-70711D01*
G01*
X8400000Y-12500000D02*
X8800000Y-12500000D01*
X10200000Y-11940000D02*
X9745711Y-12395711D01*
X3940000Y-7000000D02*
X4395711Y-7454289D01*
X6860000Y-10200000D02*
X6404289Y-10654289D01*
X3800000Y-7140000D02*
X4254289Y-7595711D01*
X13260000Y-3800000D02*
X12804289Y-4254289D01*
X4395711Y-11345711D02*
G75*
G03*
X4254289Y-11204289I-70711J70711D01*
G01*
X6860000Y-5400000D02*
X6404289Y-5854289D01*
X10795711Y-11345711D02*
G75*
G03*
X10654289Y-11204289I-70711J70711D01*
G01*
X8600000Y-10060000D02*
X8145711Y-9604289D01*
X10340000Y-7000000D02*
X10795711Y-7454289D01*
X4945711Y-6404289D02*
G75*
G03*
X4804289Y-6545711I-70711J-70711D01*
G01*
X8600000Y-7140000D02*
X9054289Y-7595711D01*
X7000000Y-11660000D02*
X7454289Y-11204289D01*
X12700000Y-8400000D02*
G75*
G03*
X12600000Y-8300000I-100000J0D01*
G01*
X8460000Y-11800000D02*
X8004289Y-11345711D01*
X11600000Y-9300000D02*
X12000000Y-9300000D01*
X11800000Y-10060000D02*
X11345711Y-9604289D01*
X8600000Y-13260000D02*
X9054289Y-12804289D01*
X13400000Y-9500000D02*
X13400000Y-10060000D01*
X9500000Y-5200000D02*
G75*
G03*
X9300000Y-5200000I-100000J0D01*
G01*
X6860000Y-5400000D02*
X6404289Y-4945711D01*
X3940000Y-8600000D02*
X4395711Y-8145711D01*
X5400000Y-11660000D02*
X4945711Y-11204289D01*
X13400000Y-10900000D02*
X13200000Y-10900000D01*
X7000000Y-5540000D02*
X7454289Y-5995711D01*
X5400000Y-13260000D02*
X5854289Y-12804289D01*
X9500000Y-5600000D02*
X9500000Y-5200000D01*
X11940000Y-8600000D02*
X12395711Y-8145711D01*
X8600000Y-11940000D02*
X9054289Y-12395711D01*
X7900000Y-8800000D02*
X7900000Y-8400000D01*
X7000000Y-8460000D02*
X6545711Y-8004289D01*
X10340000Y-13400000D02*
X10795711Y-12945711D01*
X7000000Y-13260000D02*
X6545711Y-12804289D01*
X6800000Y-9300000D02*
G75*
G03*
X6800000Y-9500000I0J-100000D01*
G01*
X13400000Y-9300000D02*
X13200000Y-9300000D01*
X11345711Y-8004289D02*
G75*
G03*
X11204289Y-8145711I-70711J-70711D01*
G01*
X3800000Y-7900000D02*
X4000000Y-7900000D01*
X13400000Y-4500000D02*
X13200000Y-4500000D01*
X11600000Y-7700000D02*
X12000000Y-7700000D01*
X13260000Y-7000000D02*
X12804289Y-6545711D01*
X7595711Y-9745711D02*
G75*
G03*
X7454289Y-9604289I-70711J70711D01*
G01*
X11800000Y-10060000D02*
X12254289Y-9604289D01*
X5200000Y-9300000D02*
X5600000Y-9300000D01*
X10060000Y-3800000D02*
X9500000Y-3800000D01*
X4804289Y-5854289D02*
G75*
G03*
X4945711Y-5995711I70711J-70711D01*
G01*
X7595711Y-11345711D02*
G75*
G03*
X7454289Y-11204289I-70711J70711D01*
G01*
X11660000Y-8600000D02*
X11204289Y-8145711D01*
X8740000Y-3800000D02*
X9195711Y-4254289D01*
X12500000Y-5600000D02*
G75*
G03*
X12600000Y-5700000I100000J0D01*
G01*
X5260000Y-11800000D02*
X4804289Y-12254289D01*
X5400000Y-10340000D02*
X4945711Y-10795711D01*
X13260000Y-5400000D02*
X12804289Y-5854289D01*
X5200000Y-4500000D02*
G75*
G03*
X5200000Y-4700000I0J-100000D01*
G01*
X3800000Y-11660000D02*
X4254289Y-11204289D01*
X12000000Y-11100000D02*
G75*
G03*
X12000000Y-10900000I0J100000D01*
G01*
X10400000Y-12700000D02*
X10000000Y-12700000D01*
X7700000Y-8800000D02*
G75*
G03*
X7900000Y-8800000I100000J0D01*
G01*
X6404289Y-7454289D02*
G75*
G03*
X6545711Y-7595711I70711J-70711D01*
G01*
X8460000Y-8600000D02*
X8004289Y-8145711D01*
X4700000Y-5600000D02*
X4700000Y-5200000D01*
X7900000Y-11600000D02*
G75*
G03*
X7700000Y-11600000I-100000J0D01*
G01*
X6800000Y-10900000D02*
G75*
G03*
X6800000Y-11100000I0J-100000D01*
G01*
X10000000Y-6300000D02*
X10400000Y-6300000D01*
X13400000Y-5260000D02*
X12945711Y-4804289D01*
X4500000Y-13400000D02*
X3940000Y-13400000D01*
X6860000Y-8600000D02*
X6404289Y-8145711D01*
X6100000Y-10400000D02*
X6100000Y-10000000D01*
X7700000Y-13400000D02*
X7140000Y-13400000D01*
X12500000Y-10400000D02*
X12500000Y-10000000D01*
X5200000Y-4700000D02*
X5600000Y-4700000D01*
X12500000Y-8800000D02*
G75*
G03*
X12600000Y-8900000I100000J0D01*
G01*
X3800000Y-6860000D02*
X4254289Y-6404289D01*
X7900000Y-12000000D02*
X7900000Y-11600000D01*
X13400000Y-11940000D02*
X13400000Y-12500000D01*
X5540000Y-3800000D02*
X5995711Y-4254289D01*
X5995711Y-12945711D02*
G75*
G03*
X5854289Y-12804289I-70711J70711D01*
G01*
X8145711Y-12804289D02*
G75*
G03*
X8004289Y-12945711I-70711J-70711D01*
G01*
X13400000Y-11940000D02*
X12945711Y-12395711D01*
X5260000Y-13400000D02*
X4804289Y-12945711D01*
X8740000Y-8600000D02*
X9195711Y-8145711D01*
X10900000Y-12000000D02*
G75*
G03*
X11100000Y-12000000I100000J0D01*
G01*
X4700000Y-4000000D02*
X4700000Y-3800000D01*
X9300000Y-8800000D02*
X9300000Y-8400000D01*
X13400000Y-7140000D02*
X13400000Y-7700000D01*
X8400000Y-9500000D02*
X8800000Y-9500000D01*
X10200000Y-6860000D02*
X10654289Y-6404289D01*
X3800000Y-5540000D02*
X4254289Y-5995711D01*
X7140000Y-13400000D02*
X7595711Y-12945711D01*
X9300000Y-5600000D02*
G75*
G03*
X9500000Y-5600000I100000J0D01*
G01*
X6545711Y-6404289D02*
G75*
G03*
X6404289Y-6545711I-70711J-70711D01*
G01*
X4254289Y-5995711D02*
G75*
G03*
X4395711Y-5854289I70711J70711D01*
G01*
X7454289Y-7595711D02*
G75*
G03*
X7595711Y-7454289I70711J70711D01*
G01*
X7595711Y-6545711D02*
G75*
G03*
X7454289Y-6404289I-70711J70711D01*
G01*
X6860000Y-3800000D02*
X6300000Y-3800000D01*
X4500000Y-7200000D02*
X4500000Y-6800000D01*
X8400000Y-7900000D02*
X8800000Y-7900000D01*
X3800000Y-10060000D02*
X3800000Y-9500000D01*
X9054289Y-9195711D02*
G75*
G03*
X9195711Y-9054289I70711J70711D01*
G01*
X11800000Y-8460000D02*
X12254289Y-8004289D01*
X6800000Y-9300000D02*
X7200000Y-9300000D01*
X5200000Y-6300000D02*
X5600000Y-6300000D01*
X6300000Y-6800000D02*
G75*
G03*
X6100000Y-6800000I-100000J0D01*
G01*
X7000000Y-7140000D02*
X6545711Y-7595711D01*
X12945711Y-4804289D02*
G75*
G03*
X12804289Y-4945711I-70711J-70711D01*
G01*
X8600000Y-10340000D02*
X8145711Y-10795711D01*
X12600000Y-8300000D02*
G75*
G03*
X12500000Y-8400000I0J-100000D01*
G01*
X10200000Y-8740000D02*
X10654289Y-9195711D01*
X9604289Y-5854289D02*
G75*
G03*
X9745711Y-5995711I70711J-70711D01*
G01*
X3940000Y-13400000D02*
X4395711Y-12945711D01*
X13400000Y-10340000D02*
X12945711Y-10795711D01*
X5700000Y-12600000D02*
G75*
G03*
X5600000Y-12500000I-100000J0D01*
G01*
X9745711Y-11204289D02*
G75*
G03*
X9604289Y-11345711I-70711J-70711D01*
G01*
X4500000Y-8800000D02*
G75*
G03*
X4700000Y-8800000I100000J0D01*
G01*
X5200000Y-12500000D02*
G75*
G03*
X5100000Y-12600000I0J-100000D01*
G01*
X5260000Y-5400000D02*
X4804289Y-4945711D01*
X5200000Y-7700000D02*
G75*
G03*
X5200000Y-7900000I0J-100000D01*
G01*
X3800000Y-5260000D02*
X3800000Y-4700000D01*
X6100000Y-13200000D02*
X6100000Y-13400000D01*
X13400000Y-3940000D02*
X13400000Y-4500000D01*
X7900000Y-13200000D02*
G75*
G03*
X7700000Y-13200000I-100000J0D01*
G01*
X5260000Y-10200000D02*
X4804289Y-9745711D01*
X5854289Y-4395711D02*
G75*
G03*
X5995711Y-4254289I70711J70711D01*
G01*
X12000000Y-7900000D02*
G75*
G03*
X12000000Y-7700000I0J100000D01*
G01*
X5600000Y-9500000D02*
G75*
G03*
X5600000Y-9300000I0J100000D01*
G01*
X5400000Y-8740000D02*
X4945711Y-9195711D01*
X4804289Y-9054289D02*
G75*
G03*
X4945711Y-9195711I70711J-70711D01*
G01*
X4700000Y-5200000D02*
G75*
G03*
X4500000Y-5200000I-100000J0D01*
G01*
X5200000Y-6100000D02*
X5600000Y-6100000D01*
X13400000Y-10340000D02*
X13400000Y-10900000D01*
X5260000Y-3800000D02*
X4804289Y-4254289D01*
X7000000Y-6860000D02*
X7454289Y-6404289D01*
X10200000Y-11660000D02*
X10654289Y-11204289D01*
X3800000Y-6300000D02*
X4000000Y-6300000D01*
X11600000Y-9300000D02*
G75*
G03*
X11600000Y-9500000I0J-100000D01*
G01*
X13400000Y-6300000D02*
X13200000Y-6300000D01*
X5400000Y-7140000D02*
X5854289Y-7595711D01*
X11800000Y-5260000D02*
X12254289Y-4804289D01*
X3800000Y-7700000D02*
X3800000Y-7140000D01*
X5400000Y-11940000D02*
X5854289Y-12395711D01*
X8004289Y-9054289D02*
G75*
G03*
X8145711Y-9195711I70711J-70711D01*
G01*
X11800000Y-8740000D02*
X12254289Y-9195711D01*
X13400000Y-4700000D02*
X13400000Y-5260000D01*
X11800000Y-5260000D02*
X11345711Y-4804289D01*
X10060000Y-7000000D02*
X9604289Y-7454289D01*
X9500000Y-11600000D02*
G75*
G03*
X9300000Y-11600000I-100000J0D01*
G01*
X12500000Y-12000000D02*
X12500000Y-11600000D01*
X13400000Y-8740000D02*
X12945711Y-9195711D01*
X6404289Y-4254289D02*
G75*
G03*
X6545711Y-4395711I70711J-70711D01*
G01*
X8800000Y-9500000D02*
G75*
G03*
X8800000Y-9300000I0J100000D01*
G01*
X8740000Y-10200000D02*
X9195711Y-10654289D01*
X5100000Y-12600000D02*
G75*
G03*
X5200000Y-12700000I100000J0D01*
G01*
X11660000Y-5400000D02*
X11204289Y-5854289D01*
X13200000Y-7700000D02*
G75*
G03*
X13200000Y-7900000I0J-100000D01*
G01*
X8460000Y-10200000D02*
X8004289Y-9745711D01*
X11600000Y-7900000D02*
X12000000Y-7900000D01*
X4000000Y-4700000D02*
G75*
G03*
X4000000Y-4500000I0J100000D01*
G01*
X10900000Y-5600000D02*
X10900000Y-5200000D01*
X5400000Y-3940000D02*
X4945711Y-4395711D01*
X7000000Y-8740000D02*
X7454289Y-9195711D01*
X6800000Y-12500000D02*
X7200000Y-12500000D01*
X10900000Y-7200000D02*
X10900000Y-6800000D01*
X8740000Y-7000000D02*
X9195711Y-6545711D01*
X7900000Y-8400000D02*
G75*
G03*
X7700000Y-8400000I-100000J0D01*
G01*
X8600000Y-8460000D02*
X9054289Y-8004289D01*
X11100000Y-5600000D02*
X11100000Y-5200000D01*
X6800000Y-10900000D02*
X7200000Y-10900000D01*
X9500000Y-8400000D02*
G75*
G03*
X9300000Y-8400000I-100000J0D01*
G01*
X10654289Y-4395711D02*
G75*
G03*
X10795711Y-4254289I70711J70711D01*
G01*
X3800000Y-12500000D02*
X3800000Y-11940000D01*
X10200000Y-10060000D02*
X10654289Y-9604289D01*
X8004289Y-10654289D02*
G75*
G03*
X8145711Y-10795711I70711J-70711D01*
G01*
X4254289Y-4395711D02*
G75*
G03*
X4395711Y-4254289I70711J70711D01*
G01*
X7000000Y-5260000D02*
X6545711Y-4804289D01*
X10060000Y-8600000D02*
X9604289Y-8145711D01*
X8460000Y-7000000D02*
X8004289Y-6545711D01*
X9054289Y-7595711D02*
G75*
G03*
X9195711Y-7454289I70711J70711D01*
G01*
X8740000Y-5400000D02*
X9195711Y-5854289D01*
X4945711Y-4804289D02*
G75*
G03*
X4804289Y-4945711I-70711J-70711D01*
G01*
X12500000Y-13400000D02*
X11940000Y-13400000D01*
X9195711Y-4945711D02*
G75*
G03*
X9054289Y-4804289I-70711J70711D01*
G01*
X4500000Y-12000000D02*
G75*
G03*
X4700000Y-12000000I100000J0D01*
G01*
X8400000Y-9300000D02*
X8800000Y-9300000D01*
X12804289Y-10654289D02*
G75*
G03*
X12945711Y-10795711I70711J-70711D01*
G01*
X10900000Y-3800000D02*
X10340000Y-3800000D01*
X8600000Y-3940000D02*
X9054289Y-4395711D01*
X12395711Y-11345711D02*
G75*
G03*
X12254289Y-11204289I-70711J70711D01*
G01*
X11600000Y-11100000D02*
X12000000Y-11100000D01*
X10900000Y-10400000D02*
X10900000Y-10000000D01*
X9500000Y-7200000D02*
X9500000Y-6800000D01*
X4500000Y-13400000D02*
X4500000Y-13200000D01*
X10000000Y-4500000D02*
X10400000Y-4500000D01*
X10060000Y-5400000D02*
X9604289Y-4945711D01*
X3800000Y-6860000D02*
X3800000Y-6300000D01*
X8004289Y-4254289D02*
G75*
G03*
X8145711Y-4395711I70711J-70711D01*
G01*
X13260000Y-8600000D02*
X12804289Y-9054289D01*
X3800000Y-9500000D02*
X4000000Y-9500000D01*
X13260000Y-13400000D02*
X12804289Y-12945711D01*
X11100000Y-5200000D02*
G75*
G03*
X10900000Y-5200000I-100000J0D01*
G01*
X7900000Y-7200000D02*
X7900000Y-6800000D01*
X10900000Y-4000000D02*
G75*
G03*
X11100000Y-4000000I100000J0D01*
G01*
X10000000Y-10900000D02*
G75*
G03*
X10000000Y-11100000I0J-100000D01*
G01*
X6300000Y-11600000D02*
G75*
G03*
X6100000Y-11600000I-100000J0D01*
G01*
X9300000Y-8800000D02*
G75*
G03*
X9500000Y-8800000I100000J0D01*
G01*
X5400000Y-13260000D02*
X4945711Y-12804289D01*
X7700000Y-13200000D02*
X7700000Y-13400000D01*
X6300000Y-7200000D02*
X6300000Y-6800000D01*
X9054289Y-12395711D02*
G75*
G03*
X9195711Y-12254289I70711J70711D01*
G01*
X12945711Y-11204289D02*
G75*
G03*
X12804289Y-11345711I-70711J-70711D01*
G01*
X9195711Y-11345711D02*
G75*
G03*
X9054289Y-11204289I-70711J70711D01*
G01*
X5600000Y-4700000D02*
G75*
G03*
X5600000Y-4500000I0J100000D01*
G01*
X6800000Y-7700000D02*
X7200000Y-7700000D01*
X7700000Y-4000000D02*
X7700000Y-3800000D01*
X10060000Y-13400000D02*
X9500000Y-13400000D01*
X11940000Y-10200000D02*
X12395711Y-9745711D01*
X10060000Y-8600000D02*
X9604289Y-9054289D01*
X4700000Y-11600000D02*
G75*
G03*
X4500000Y-11600000I-100000J0D01*
G01*
X9195711Y-6545711D02*
G75*
G03*
X9054289Y-6404289I-70711J70711D01*
G01*
X4600000Y-13100000D02*
G75*
G03*
X4500000Y-13200000I0J-100000D01*
G01*
X10060000Y-10200000D02*
X9604289Y-10654289D01*
X12600000Y-9900000D02*
G75*
G03*
X12500000Y-10000000I0J-100000D01*
G01*
X6100000Y-12000000D02*
X6100000Y-11600000D01*
X10400000Y-7900000D02*
G75*
G03*
X10400000Y-7700000I0J100000D01*
G01*
X11100000Y-12000000D02*
X11100000Y-11600000D01*
X13200000Y-6100000D02*
G75*
G03*
X13200000Y-6300000I0J-100000D01*
G01*
X3800000Y-8740000D02*
X4254289Y-9195711D01*
X9500000Y-4000000D02*
X9500000Y-3800000D01*
X4000000Y-6300000D02*
G75*
G03*
X4000000Y-6100000I0J100000D01*
G01*
X10900000Y-13200000D02*
X10900000Y-13400000D01*
X11600000Y-10900000D02*
G75*
G03*
X11600000Y-11100000I0J-100000D01*
G01*
X8600000Y-3940000D02*
X8145711Y-4395711D01*
X3940000Y-11800000D02*
X4395711Y-11345711D01*
X6800000Y-7900000D02*
X7200000Y-7900000D01*
X11345711Y-12804289D02*
G75*
G03*
X11204289Y-12945711I-70711J-70711D01*
G01*
X13260000Y-13400000D02*
X12700000Y-13400000D01*
X6860000Y-13400000D02*
X6300000Y-13400000D01*
X8600000Y-5260000D02*
X8145711Y-4804289D01*
X7000000Y-11940000D02*
X7454289Y-12395711D01*
X11660000Y-5400000D02*
X11204289Y-4945711D01*
X6860000Y-7000000D02*
X6404289Y-7454289D01*
X6860000Y-7000000D02*
X6404289Y-6545711D01*
X3800000Y-7700000D02*
X4000000Y-7700000D01*
X6404289Y-12254289D02*
G75*
G03*
X6545711Y-12395711I70711J-70711D01*
G01*
X7000000Y-13260000D02*
X7454289Y-12804289D01*
X13260000Y-3800000D02*
X12700000Y-3800000D01*
X12804289Y-9054289D02*
G75*
G03*
X12945711Y-9195711I70711J-70711D01*
G01*
X5260000Y-8600000D02*
X4804289Y-9054289D01*
X13400000Y-9500000D02*
X13200000Y-9500000D01*
X12600000Y-12100000D02*
G75*
G03*
X12700000Y-12000000I0J100000D01*
G01*
X5540000Y-10200000D02*
X5995711Y-10654289D01*
X12500000Y-4000000D02*
G75*
G03*
X12600000Y-4100000I100000J0D01*
G01*
X5200000Y-10900000D02*
G75*
G03*
X5200000Y-11100000I0J-100000D01*
G01*
X12254289Y-5995711D02*
G75*
G03*
X12395711Y-5854289I70711J70711D01*
G01*
X8400000Y-12500000D02*
G75*
G03*
X8300000Y-12600000I0J-100000D01*
G01*
X3940000Y-10200000D02*
X4395711Y-9745711D01*
X4000000Y-7900000D02*
G75*
G03*
X4000000Y-7700000I0J100000D01*
G01*
X8460000Y-10200000D02*
X8004289Y-10654289D01*
X8600000Y-5260000D02*
X9054289Y-4804289D01*
X10340000Y-8600000D02*
X10795711Y-9054289D01*
X4700000Y-10400000D02*
X4700000Y-10000000D01*
X5260000Y-7000000D02*
X4804289Y-7454289D01*
X8460000Y-3800000D02*
X8004289Y-4254289D01*
X11660000Y-10200000D02*
X11204289Y-10654289D01*
X6800000Y-7700000D02*
G75*
G03*
X6800000Y-7900000I0J-100000D01*
G01*
X5260000Y-7000000D02*
X4804289Y-6545711D01*
X6100000Y-4000000D02*
G75*
G03*
X6300000Y-4000000I100000J0D01*
G01*
X7200000Y-4700000D02*
G75*
G03*
X7200000Y-4500000I0J100000D01*
G01*
X8004289Y-12254289D02*
G75*
G03*
X8145711Y-12395711I70711J-70711D01*
G01*
X12700000Y-3800000D02*
X12700000Y-4000000D01*
X3800000Y-12700000D02*
X4000000Y-12700000D01*
X6300000Y-13200000D02*
X6300000Y-13400000D01*
X6300000Y-5200000D02*
G75*
G03*
X6100000Y-5200000I-100000J0D01*
G01*
X10200000Y-8740000D02*
X9745711Y-9195711D01*
X12804289Y-5854289D02*
G75*
G03*
X12945711Y-5995711I70711J-70711D01*
G01*
X8460000Y-7000000D02*
X8004289Y-7454289D01*
X10654289Y-9195711D02*
G75*
G03*
X10795711Y-9054289I70711J70711D01*
G01*
X13400000Y-11100000D02*
X13400000Y-11660000D01*
X7140000Y-8600000D02*
X7595711Y-9054289D01*
X7700000Y-10400000D02*
G75*
G03*
X7900000Y-10400000I100000J0D01*
G01*
X6100000Y-4000000D02*
X6100000Y-3800000D01*
X12700000Y-8400000D02*
X12700000Y-8800000D01*
X8900000Y-12600000D02*
G75*
G03*
X8800000Y-12500000I-100000J0D01*
G01*
X3800000Y-10900000D02*
X3800000Y-10340000D01*
X8600000Y-10060000D02*
X9054289Y-9604289D01*
X11100000Y-13200000D02*
G75*
G03*
X10900000Y-13200000I-100000J0D01*
G01*
X7900000Y-10400000D02*
X7900000Y-10000000D01*
X13400000Y-13260000D02*
X12945711Y-12804289D01*
X11940000Y-5400000D02*
X12395711Y-5854289D01*
X12945711Y-9604289D02*
G75*
G03*
X12804289Y-9745711I-70711J-70711D01*
G01*
X5995711Y-11345711D02*
G75*
G03*
X5854289Y-11204289I-70711J70711D01*
G01*
X11660000Y-13400000D02*
X11204289Y-12945711D01*
X6860000Y-11800000D02*
X6404289Y-11345711D01*
X6800000Y-4700000D02*
X7200000Y-4700000D01*
X11204289Y-10654289D02*
G75*
G03*
X11345711Y-10795711I70711J-70711D01*
G01*
X9300000Y-13400000D02*
X8740000Y-13400000D01*
X7000000Y-3940000D02*
X6545711Y-4395711D01*
X3800000Y-13260000D02*
X3800000Y-12700000D01*
X13400000Y-8460000D02*
X12945711Y-8004289D01*
X12700000Y-5200000D02*
G75*
G03*
X12600000Y-5100000I-100000J0D01*
G01*
X6404289Y-10654289D02*
G75*
G03*
X6545711Y-10795711I70711J-70711D01*
G01*
X3800000Y-11940000D02*
X4254289Y-12395711D01*
X7000000Y-5540000D02*
X6545711Y-5995711D01*
X9500000Y-10000000D02*
G75*
G03*
X9300000Y-10000000I-100000J0D01*
G01*
X11800000Y-10340000D02*
X11345711Y-10795711D01*
X4700000Y-13200000D02*
X4700000Y-13400000D01*
X5400000Y-6860000D02*
X5854289Y-6404289D01*
X8460000Y-13400000D02*
X7900000Y-13400000D01*
X4395711Y-6545711D02*
G75*
G03*
X4254289Y-6404289I-70711J70711D01*
G01*
X5260000Y-10200000D02*
X4804289Y-10654289D01*
X12600000Y-5100000D02*
G75*
G03*
X12500000Y-5200000I0J-100000D01*
G01*
X11204289Y-9054289D02*
G75*
G03*
X11345711Y-9195711I70711J-70711D01*
G01*
X3800000Y-10060000D02*
X4254289Y-9604289D01*
X5540000Y-13400000D02*
X5995711Y-12945711D01*
X6545711Y-9604289D02*
G75*
G03*
X6404289Y-9745711I-70711J-70711D01*
G01*
X4945711Y-9604289D02*
G75*
G03*
X4804289Y-9745711I-70711J-70711D01*
G01*
X9500000Y-12000000D02*
X9500000Y-11600000D01*
X12600000Y-5700000D02*
G75*
G03*
X12700000Y-5600000I0J100000D01*
G01*
X7900000Y-13200000D02*
X7900000Y-13400000D01*
X7900000Y-10000000D02*
G75*
G03*
X7700000Y-10000000I-100000J0D01*
G01*
X12600000Y-8900000D02*
G75*
G03*
X12700000Y-8800000I0J100000D01*
G01*
X9604289Y-12254289D02*
G75*
G03*
X9745711Y-12395711I70711J-70711D01*
G01*
X12500000Y-13200000D02*
X12500000Y-13400000D01*
X5400000Y-7140000D02*
X4945711Y-7595711D01*
X5540000Y-10200000D02*
X5995711Y-9745711D01*
X11800000Y-8740000D02*
X11345711Y-9195711D01*
X6300000Y-12000000D02*
X6300000Y-11600000D01*
X10000000Y-7700000D02*
X10400000Y-7700000D01*
X12395711Y-8145711D02*
G75*
G03*
X12254289Y-8004289I-70711J70711D01*
G01*
X10200000Y-5540000D02*
X9745711Y-5995711D01*
X11800000Y-7140000D02*
X12254289Y-7595711D01*
X10200000Y-10060000D02*
X9745711Y-9604289D01*
X10340000Y-5400000D02*
X10795711Y-5854289D01*
X10340000Y-3800000D02*
X10795711Y-4254289D01*
X12395711Y-4945711D02*
G75*
G03*
X12254289Y-4804289I-70711J70711D01*
G01*
X3940000Y-10200000D02*
X4395711Y-10654289D01*
X9054289Y-10795711D02*
G75*
G03*
X9195711Y-10654289I70711J70711D01*
G01*
X11100000Y-13200000D02*
X11100000Y-13400000D01*
X10000000Y-7900000D02*
X10400000Y-7900000D01*
X11800000Y-11940000D02*
X12254289Y-12395711D01*
X11800000Y-5540000D02*
X12254289Y-5995711D01*
X8600000Y-7140000D02*
X8145711Y-7595711D01*
X11100000Y-11600000D02*
G75*
G03*
X10900000Y-11600000I-100000J0D01*
G01*
X11940000Y-11800000D02*
X12395711Y-11345711D01*
X8400000Y-4700000D02*
X8800000Y-4700000D01*
X12700000Y-13200000D02*
G75*
G03*
X12500000Y-13200000I-100000J0D01*
G01*
X13200000Y-12500000D02*
G75*
G03*
X13100000Y-12600000I0J-100000D01*
G01*
X11940000Y-13400000D02*
X12395711Y-12945711D01*
X8600000Y-5540000D02*
X9054289Y-5995711D01*
X7000000Y-10340000D02*
X6545711Y-10795711D01*
X7700000Y-7200000D02*
X7700000Y-6800000D01*
X11100000Y-4000000D02*
X11100000Y-3800000D01*
X11600000Y-6100000D02*
G75*
G03*
X11600000Y-6300000I0J-100000D01*
G01*
X5200000Y-11100000D02*
X5600000Y-11100000D01*
X6800000Y-6100000D02*
X7200000Y-6100000D01*
X5854289Y-12395711D02*
G75*
G03*
X5995711Y-12254289I70711J70711D01*
G01*
X11660000Y-10200000D02*
X11204289Y-9745711D01*
X5400000Y-10060000D02*
X5854289Y-9604289D01*
X13400000Y-7700000D02*
X13200000Y-7700000D01*
X5540000Y-5400000D02*
X5995711Y-4945711D01*
X9300000Y-12000000D02*
G75*
G03*
X9500000Y-12000000I100000J0D01*
G01*
X11600000Y-6300000D02*
X12000000Y-6300000D01*
X10000000Y-11100000D02*
X10400000Y-11100000D01*
X12700000Y-6800000D02*
G75*
G03*
X12600000Y-6700000I-100000J0D01*
G01*
X11600000Y-4500000D02*
G75*
G03*
X11600000Y-4700000I0J-100000D01*
G01*
X10060000Y-11800000D02*
X9604289Y-11345711D01*
X10060000Y-7000000D02*
X9604289Y-6545711D01*
X4700000Y-10000000D02*
G75*
G03*
X4500000Y-10000000I-100000J0D01*
G01*
X12700000Y-11600000D02*
X12700000Y-12000000D01*
X7700000Y-5600000D02*
G75*
G03*
X7900000Y-5600000I100000J0D01*
G01*
X10340000Y-11800000D02*
X10795711Y-11345711D01*
X11800000Y-8460000D02*
X11345711Y-8004289D01*
X12600000Y-6700000D02*
G75*
G03*
X12500000Y-6800000I0J-100000D01*
G01*
X9195711Y-9745711D02*
G75*
G03*
X9054289Y-9604289I-70711J70711D01*
G01*
X3800000Y-9300000D02*
X3800000Y-8740000D01*
X4500000Y-5600000D02*
G75*
G03*
X4700000Y-5600000I100000J0D01*
G01*
X6100000Y-5600000D02*
X6100000Y-5200000D01*
X10200000Y-3940000D02*
X9745711Y-4395711D01*
X13400000Y-11100000D02*
X13200000Y-11100000D01*
X10060000Y-3800000D02*
X9604289Y-4254289D01*
X10000000Y-4700000D02*
X10400000Y-4700000D01*
X7000000Y-8460000D02*
X7454289Y-8004289D01*
X10900000Y-4000000D02*
X10900000Y-3800000D01*
X12000000Y-12700000D02*
X11600000Y-12700000D01*
X7000000Y-8740000D02*
X6545711Y-9195711D01*
X3800000Y-11660000D02*
X3800000Y-11100000D01*
X4700000Y-6800000D02*
G75*
G03*
X4500000Y-6800000I-100000J0D01*
G01*
X7000000Y-5260000D02*
X7454289Y-4804289D01*
X3800000Y-4500000D02*
X3800000Y-3940000D01*
X8460000Y-3800000D02*
X7900000Y-3800000D01*
X8004289Y-5854289D02*
G75*
G03*
X8145711Y-5995711I70711J-70711D01*
G01*
X12395711Y-6545711D02*
G75*
G03*
X12254289Y-6404289I-70711J70711D01*
G01*
X9500000Y-13200000D02*
G75*
G03*
X9300000Y-13200000I-100000J0D01*
G01*
X9195711Y-12945711D02*
G75*
G03*
X9054289Y-12804289I-70711J70711D01*
G01*
X3800000Y-5260000D02*
X4254289Y-4804289D01*
X7300000Y-12600000D02*
G75*
G03*
X7200000Y-12500000I-100000J0D01*
G01*
X6100000Y-8800000D02*
X6100000Y-8400000D01*
X7200000Y-7900000D02*
G75*
G03*
X7200000Y-7700000I0J100000D01*
G01*
X10900000Y-13400000D02*
X10340000Y-13400000D01*
X12945711Y-12804289D02*
G75*
G03*
X12804289Y-12945711I-70711J-70711D01*
G01*
X10340000Y-8600000D02*
X10795711Y-8145711D01*
X8600000Y-8740000D02*
X9054289Y-9195711D01*
X7200000Y-6300000D02*
G75*
G03*
X7200000Y-6100000I0J100000D01*
G01*
X8400000Y-7700000D02*
G75*
G03*
X8400000Y-7900000I0J-100000D01*
G01*
X11100000Y-10400000D02*
X11100000Y-10000000D01*
X6100000Y-10400000D02*
G75*
G03*
X6300000Y-10400000I100000J0D01*
G01*
X10400000Y-4700000D02*
G75*
G03*
X10400000Y-4500000I0J100000D01*
G01*
X10000000Y-10900000D02*
X10400000Y-10900000D01*
X4500000Y-10400000D02*
G75*
G03*
X4700000Y-10400000I100000J0D01*
G01*
X8740000Y-8600000D02*
X9195711Y-9054289D01*
X13400000Y-8740000D02*
X13400000Y-9300000D01*
X5540000Y-11800000D02*
X5995711Y-12254289D01*
X11660000Y-8600000D02*
X11204289Y-9054289D01*
X7595711Y-12945711D02*
G75*
G03*
X7454289Y-12804289I-70711J70711D01*
G01*
X12500000Y-4000000D02*
X12500000Y-3800000D01*
X8800000Y-12700000D02*
X8400000Y-12700000D01*
X10795711Y-8145711D02*
G75*
G03*
X10654289Y-8004289I-70711J70711D01*
G01*
X10200000Y-5540000D02*
X10654289Y-5995711D01*
X3940000Y-3800000D02*
X4395711Y-4254289D01*
X10000000Y-12500000D02*
X10400000Y-12500000D01*
X8740000Y-10200000D02*
X9195711Y-9745711D01*
X5400000Y-8740000D02*
X5854289Y-9195711D01*
X12500000Y-12000000D02*
G75*
G03*
X12600000Y-12100000I100000J0D01*
G01*
X4500000Y-10400000D02*
X4500000Y-10000000D01*
X8800000Y-4700000D02*
G75*
G03*
X8800000Y-4500000I0J100000D01*
G01*
X4395711Y-12945711D02*
G75*
G03*
X4254289Y-12804289I-70711J70711D01*
G01*
X10060000Y-13400000D02*
X9604289Y-12945711D01*
X6100000Y-8800000D02*
G75*
G03*
X6300000Y-8800000I100000J0D01*
G01*
X6300000Y-10400000D02*
X6300000Y-10000000D01*
X11600000Y-10900000D02*
X12000000Y-10900000D01*
X10654289Y-10795711D02*
G75*
G03*
X10795711Y-10654289I70711J70711D01*
G01*
X10200000Y-11660000D02*
X9745711Y-11204289D01*
X11204289Y-5854289D02*
G75*
G03*
X11345711Y-5995711I70711J-70711D01*
G01*
X9745711Y-6404289D02*
G75*
G03*
X9604289Y-6545711I-70711J-70711D01*
G01*
X12700000Y-5200000D02*
X12700000Y-5600000D01*
X5400000Y-11940000D02*
X4945711Y-12395711D01*
X11660000Y-7000000D02*
X11204289Y-6545711D01*
X4700000Y-12000000D02*
X4700000Y-11600000D01*
X6860000Y-3800000D02*
X6404289Y-4254289D01*
X10200000Y-3940000D02*
X10654289Y-4395711D01*
X7140000Y-3800000D02*
X7595711Y-4254289D01*
X12000000Y-4700000D02*
G75*
G03*
X12000000Y-4500000I0J100000D01*
G01*
X11600000Y-6100000D02*
X12000000Y-6100000D01*
X10200000Y-13260000D02*
X9745711Y-12804289D01*
X12700000Y-10000000D02*
G75*
G03*
X12600000Y-9900000I-100000J0D01*
G01*
X10900000Y-5600000D02*
G75*
G03*
X11100000Y-5600000I100000J0D01*
G01*
X8740000Y-7000000D02*
X9195711Y-7454289D01*
X10200000Y-6860000D02*
X9745711Y-6404289D01*
X5995711Y-6545711D02*
G75*
G03*
X5854289Y-6404289I-70711J70711D01*
G01*
X12600000Y-4100000D02*
G75*
G03*
X12700000Y-4000000I0J100000D01*
G01*
X12700000Y-13200000D02*
X12700000Y-13400000D01*
X7700000Y-10400000D02*
X7700000Y-10000000D01*
X6800000Y-6100000D02*
G75*
G03*
X6800000Y-6300000I0J-100000D01*
G01*
X10200000Y-7140000D02*
X9745711Y-7595711D01*
X7700000Y-12000000D02*
X7700000Y-11600000D01*
X10795711Y-12945711D02*
G75*
G03*
X10654289Y-12804289I-70711J70711D01*
G01*
X11100000Y-8400000D02*
G75*
G03*
X10900000Y-8400000I-100000J0D01*
G01*
X10000000Y-6100000D02*
G75*
G03*
X10000000Y-6300000I0J-100000D01*
G01*
X5400000Y-5540000D02*
X5854289Y-5995711D01*
X9745711Y-9604289D02*
G75*
G03*
X9604289Y-9745711I-70711J-70711D01*
G01*
X5540000Y-5400000D02*
X5995711Y-5854289D01*
X8400000Y-7700000D02*
X8800000Y-7700000D01*
X11660000Y-11800000D02*
X11204289Y-11345711D01*
X5995711Y-4945711D02*
G75*
G03*
X5854289Y-4804289I-70711J70711D01*
G01*
X10400000Y-9500000D02*
G75*
G03*
X10400000Y-9300000I0J100000D01*
G01*
X5400000Y-5260000D02*
X5854289Y-4804289D01*
X9300000Y-3800000D02*
X8740000Y-3800000D01*
X9054289Y-4395711D02*
G75*
G03*
X9195711Y-4254289I70711J70711D01*
G01*
X12500000Y-5600000D02*
X12500000Y-5200000D01*
X10200000Y-10340000D02*
X9745711Y-10795711D01*
X9054289Y-5995711D02*
G75*
G03*
X9195711Y-5854289I70711J70711D01*
G01*
X11500000Y-12600000D02*
G75*
G03*
X11600000Y-12700000I100000J0D01*
G01*
X8400000Y-10900000D02*
G75*
G03*
X8400000Y-11100000I0J-100000D01*
G01*
X4100000Y-12600000D02*
G75*
G03*
X4000000Y-12500000I-100000J0D01*
G01*
X9500000Y-8800000D02*
X9500000Y-8400000D01*
X7140000Y-10200000D02*
X7595711Y-10654289D01*
X11940000Y-7000000D02*
X12395711Y-6545711D01*
X8400000Y-6100000D02*
X8800000Y-6100000D01*
X11660000Y-11800000D02*
X11204289Y-12254289D01*
X8600000Y-11660000D02*
X8145711Y-11204289D01*
X10900000Y-12000000D02*
X10900000Y-11600000D01*
X5540000Y-7000000D02*
X5995711Y-6545711D01*
X7454289Y-10795711D02*
G75*
G03*
X7595711Y-10654289I70711J70711D01*
G01*
X3800000Y-11100000D02*
X4000000Y-11100000D01*
X8145711Y-4804289D02*
G75*
G03*
X8004289Y-4945711I-70711J-70711D01*
G01*
X7700000Y-3800000D02*
X7140000Y-3800000D01*
X11204289Y-4254289D02*
G75*
G03*
X11345711Y-4395711I70711J-70711D01*
G01*
X5200000Y-4500000D02*
X5600000Y-4500000D01*
X4000000Y-11100000D02*
G75*
G03*
X4000000Y-10900000I0J100000D01*
G01*
X11800000Y-13260000D02*
X11345711Y-12804289D01*
X10000000Y-12500000D02*
G75*
G03*
X9900000Y-12600000I0J-100000D01*
G01*
X10000000Y-9300000D02*
G75*
G03*
X10000000Y-9500000I0J-100000D01*
G01*
X10200000Y-5260000D02*
X9745711Y-4804289D01*
X11204289Y-7454289D02*
G75*
G03*
X11345711Y-7595711I70711J-70711D01*
G01*
X4254289Y-9195711D02*
G75*
G03*
X4395711Y-9054289I70711J70711D01*
G01*
X10200000Y-8460000D02*
X9745711Y-8004289D01*
X5400000Y-3940000D02*
X5854289Y-4395711D01*
X7454289Y-5995711D02*
G75*
G03*
X7595711Y-5854289I70711J70711D01*
G01*
X13400000Y-7900000D02*
X13200000Y-7900000D01*
X10000000Y-7700000D02*
G75*
G03*
X10000000Y-7900000I0J-100000D01*
G01*
X8740000Y-11800000D02*
X9195711Y-11345711D01*
X7000000Y-10340000D02*
X7454289Y-10795711D01*
X7140000Y-5400000D02*
X7595711Y-5854289D01*
X6100000Y-7200000D02*
G75*
G03*
X6300000Y-7200000I100000J0D01*
G01*
X10200000Y-13260000D02*
X10654289Y-12804289D01*
X6300000Y-13200000D02*
G75*
G03*
X6100000Y-13200000I-100000J0D01*
G01*
X13400000Y-11660000D02*
X12945711Y-11204289D01*
X7700000Y-12000000D02*
G75*
G03*
X7900000Y-12000000I100000J0D01*
G01*
X11940000Y-7000000D02*
X12395711Y-7454289D01*
X13400000Y-4700000D02*
X13200000Y-4700000D01*
X7200000Y-12700000D02*
G75*
G03*
X7300000Y-12600000I0J100000D01*
G01*
X3800000Y-8460000D02*
X3800000Y-7900000D01*
X7200000Y-11100000D02*
G75*
G03*
X7200000Y-10900000I0J100000D01*
G01*
X9500000Y-13200000D02*
X9500000Y-13400000D01*
X7140000Y-8600000D02*
X7595711Y-8145711D01*
X6860000Y-13400000D02*
X6404289Y-12945711D01*
X10654289Y-5995711D02*
G75*
G03*
X10795711Y-5854289I70711J70711D01*
G01*
X10200000Y-8460000D02*
X10654289Y-8004289D01*
X9300000Y-7200000D02*
G75*
G03*
X9500000Y-7200000I100000J0D01*
G01*
X13400000Y-10060000D02*
X12945711Y-9604289D01*
X8400000Y-6100000D02*
G75*
G03*
X8400000Y-6300000I0J-100000D01*
G01*
X12500000Y-10400000D02*
G75*
G03*
X12600000Y-10500000I100000J0D01*
G01*
X7900000Y-6800000D02*
G75*
G03*
X7700000Y-6800000I-100000J0D01*
G01*
X7454289Y-12395711D02*
G75*
G03*
X7595711Y-12254289I70711J70711D01*
G01*
X11345711Y-6404289D02*
G75*
G03*
X11204289Y-6545711I-70711J-70711D01*
G01*
X6100000Y-12000000D02*
G75*
G03*
X6300000Y-12000000I100000J0D01*
G01*
X9604289Y-10654289D02*
G75*
G03*
X9745711Y-10795711I70711J-70711D01*
G01*
X8460000Y-8600000D02*
X8004289Y-9054289D01*
X12395711Y-12945711D02*
G75*
G03*
X12254289Y-12804289I-70711J70711D01*
G01*
X7000000Y-3940000D02*
X7454289Y-4395711D01*
X5400000Y-5260000D02*
X4945711Y-4804289D01*
X10340000Y-11800000D02*
X10795711Y-12254289D01*
X11800000Y-5540000D02*
X11345711Y-5995711D01*
X12254289Y-9195711D02*
G75*
G03*
X12395711Y-9054289I70711J70711D01*
G01*
X7900000Y-5600000D02*
X7900000Y-5200000D01*
X11204289Y-12254289D02*
G75*
G03*
X11345711Y-12395711I70711J-70711D01*
G01*
X6800000Y-4500000D02*
G75*
G03*
X6800000Y-4700000I0J-100000D01*
G01*
X9604289Y-9054289D02*
G75*
G03*
X9745711Y-9195711I70711J-70711D01*
G01*
X4700000Y-8800000D02*
X4700000Y-8400000D01*
X5200000Y-7700000D02*
X5600000Y-7700000D01*
X10500000Y-12600000D02*
G75*
G03*
X10400000Y-12500000I-100000J0D01*
G01*
X6100000Y-3800000D02*
X5540000Y-3800000D01*
X10000000Y-6100000D02*
X10400000Y-6100000D01*
X3940000Y-11800000D02*
X4395711Y-12254289D01*
X3940000Y-5400000D02*
X4395711Y-4945711D01*
X10200000Y-11940000D02*
X10654289Y-12395711D01*
X10340000Y-10200000D02*
X10795711Y-9745711D01*
X12945711Y-6404289D02*
G75*
G03*
X12804289Y-6545711I-70711J-70711D01*
G01*
X11600000Y-12500000D02*
X12000000Y-12500000D01*
X5600000Y-12700000D02*
X5200000Y-12700000D01*
X4254289Y-12395711D02*
G75*
G03*
X4395711Y-12254289I70711J70711D01*
G01*
X7200000Y-9500000D02*
G75*
G03*
X7200000Y-9300000I0J100000D01*
G01*
X5400000Y-5540000D02*
X4945711Y-5995711D01*
X13200000Y-10900000D02*
G75*
G03*
X13200000Y-11100000I0J-100000D01*
G01*
X13400000Y-3940000D02*
X12945711Y-4395711D01*
X3940000Y-5400000D02*
X4395711Y-5854289D01*
X10795711Y-4945711D02*
G75*
G03*
X10654289Y-4804289I-70711J70711D01*
G01*
X4254289Y-7595711D02*
G75*
G03*
X4395711Y-7454289I70711J70711D01*
G01*
X13400000Y-12500000D02*
X13200000Y-12500000D01*
X6300000Y-8400000D02*
G75*
G03*
X6100000Y-8400000I-100000J0D01*
G01*
X9300000Y-4000000D02*
X9300000Y-3800000D01*
X13260000Y-5400000D02*
X12804289Y-4945711D01*
X10900000Y-7200000D02*
G75*
G03*
X11100000Y-7200000I100000J0D01*
G01*
X6700000Y-12600000D02*
G75*
G03*
X6800000Y-12700000I100000J0D01*
G01*
X8600000Y-5540000D02*
X8145711Y-5995711D01*
X7900000Y-4000000D02*
X7900000Y-3800000D01*
X7000000Y-10060000D02*
X6545711Y-9604289D01*
X11345711Y-4804289D02*
G75*
G03*
X11204289Y-4945711I-70711J-70711D01*
G01*
X9195711Y-8145711D02*
G75*
G03*
X9054289Y-8004289I-70711J70711D01*
G01*
X5260000Y-11800000D02*
X4804289Y-11345711D01*
X3800000Y-4500000D02*
X4000000Y-4500000D01*
X8740000Y-5400000D02*
X9195711Y-4945711D01*
X6300000Y-4000000D02*
X6300000Y-3800000D01*
X6800000Y-9500000D02*
X7200000Y-9500000D01*
X6300000Y-10000000D02*
G75*
G03*
X6100000Y-10000000I-100000J0D01*
G01*
X8600000Y-6860000D02*
X9054289Y-6404289D01*
X10400000Y-6300000D02*
G75*
G03*
X10400000Y-6100000I0J100000D01*
G01*
X5400000Y-6860000D02*
X4945711Y-6404289D01*
X8145711Y-8004289D02*
G75*
G03*
X8004289Y-8145711I-70711J-70711D01*
G01*
X11660000Y-3800000D02*
X11204289Y-4254289D01*
X10795711Y-9745711D02*
G75*
G03*
X10654289Y-9604289I-70711J70711D01*
G01*
X4000000Y-9500000D02*
G75*
G03*
X4000000Y-9300000I0J100000D01*
G01*
X8145711Y-6404289D02*
G75*
G03*
X8004289Y-6545711I-70711J-70711D01*
G01*
X5854289Y-5995711D02*
G75*
G03*
X5995711Y-5854289I70711J70711D01*
G01*
X4700000Y-7200000D02*
X4700000Y-6800000D01*
X11660000Y-13400000D02*
X11100000Y-13400000D01*
X5600000Y-7900000D02*
G75*
G03*
X5600000Y-7700000I0J100000D01*
G01*
X5995711Y-9745711D02*
G75*
G03*
X5854289Y-9604289I-70711J70711D01*
G01*
X5260000Y-5400000D02*
X4804289Y-5854289D01*
X12700000Y-10000000D02*
X12700000Y-10400000D01*
X12500000Y-8800000D02*
X12500000Y-8400000D01*
X7700000Y-7200000D02*
G75*
G03*
X7900000Y-7200000I100000J0D01*
G01*
X13400000Y-7140000D02*
X12945711Y-7595711D01*
X8740000Y-13400000D02*
X9195711Y-12945711D01*
X10900000Y-8800000D02*
X10900000Y-8400000D01*
X13200000Y-4500000D02*
G75*
G03*
X13200000Y-4700000I0J-100000D01*
G01*
X13400000Y-6100000D02*
X13200000Y-6100000D01*
X7700000Y-8800000D02*
X7700000Y-8400000D01*
X10400000Y-12700000D02*
G75*
G03*
X10500000Y-12600000I0J100000D01*
G01*
X7000000Y-11660000D02*
X6545711Y-11204289D01*
X12254289Y-12395711D02*
G75*
G03*
X12395711Y-12254289I70711J70711D01*
G01*
X4945711Y-8004289D02*
G75*
G03*
X4804289Y-8145711I-70711J-70711D01*
G01*
X6100000Y-13400000D02*
X5540000Y-13400000D01*
X9745711Y-8004289D02*
G75*
G03*
X9604289Y-8145711I-70711J-70711D01*
G01*
X3940000Y-8600000D02*
X4395711Y-9054289D01*
X3800000Y-13260000D02*
X4254289Y-12804289D01*
X4000000Y-12700000D02*
G75*
G03*
X4100000Y-12600000I0J100000D01*
G01*
X11600000Y-4500000D02*
X12000000Y-4500000D01*
X9500000Y-10400000D02*
X9500000Y-10000000D01*
X7595711Y-8145711D02*
G75*
G03*
X7454289Y-8004289I-70711J70711D01*
G01*
X10654289Y-7595711D02*
G75*
G03*
X10795711Y-7454289I70711J70711D01*
G01*
X4254289Y-10795711D02*
G75*
G03*
X4395711Y-10654289I70711J70711D01*
G01*
X4500000Y-3800000D02*
X3940000Y-3800000D01*
X6100000Y-5600000D02*
G75*
G03*
X6300000Y-5600000I100000J0D01*
G01*
X9745711Y-4804289D02*
G75*
G03*
X9604289Y-4945711I-70711J-70711D01*
G01*
X5600000Y-11100000D02*
G75*
G03*
X5600000Y-10900000I0J100000D01*
G01*
X10060000Y-5400000D02*
X9604289Y-5854289D01*
X6404289Y-5854289D02*
G75*
G03*
X6545711Y-5995711I70711J-70711D01*
G01*
X8400000Y-4500000D02*
X8800000Y-4500000D01*
X8400000Y-4500000D02*
G75*
G03*
X8400000Y-4700000I0J-100000D01*
G01*
X5854289Y-9195711D02*
G75*
G03*
X5995711Y-9054289I70711J70711D01*
G01*
X3800000Y-9300000D02*
X4000000Y-9300000D01*
X3800000Y-12500000D02*
X4000000Y-12500000D01*
X5400000Y-10340000D02*
X5854289Y-10795711D01*
X4804289Y-4254289D02*
G75*
G03*
X4945711Y-4395711I70711J-70711D01*
G01*
X5200000Y-9500000D02*
X5600000Y-9500000D01*
X5260000Y-13400000D02*
X4700000Y-13400000D01*
X6860000Y-11800000D02*
X6404289Y-12254289D01*
X4500000Y-5600000D02*
X4500000Y-5200000D01*
X9604289Y-7454289D02*
G75*
G03*
X9745711Y-7595711I70711J-70711D01*
G01*
X4700000Y-13200000D02*
G75*
G03*
X4600000Y-13100000I-100000J0D01*
G01*
X8400000Y-9300000D02*
G75*
G03*
X8400000Y-9500000I0J-100000D01*
G01*
X8800000Y-7900000D02*
G75*
G03*
X8800000Y-7700000I0J100000D01*
G01*
X12000000Y-9500000D02*
G75*
G03*
X12000000Y-9300000I0J100000D01*
G01*
X8145711Y-11204289D02*
G75*
G03*
X8004289Y-11345711I-70711J-70711D01*
G01*
X3940000Y-7000000D02*
X4395711Y-6545711D01*
X10340000Y-5400000D02*
X10795711Y-4945711D01*
X10060000Y-10200000D02*
X9604289Y-9745711D01*
X13200000Y-9300000D02*
G75*
G03*
X13200000Y-9500000I0J-100000D01*
G01*
X11940000Y-11800000D02*
X12395711Y-12254289D01*
X3800000Y-6100000D02*
X4000000Y-6100000D01*
X11940000Y-3800000D02*
X12395711Y-4254289D01*
X9300000Y-5600000D02*
X9300000Y-5200000D01*
X13400000Y-7900000D02*
X13400000Y-8460000D01*
X10000000Y-9500000D02*
X10400000Y-9500000D01*
X11600000Y-9500000D02*
X12000000Y-9500000D01*
X11100000Y-8800000D02*
X11100000Y-8400000D01*
X5540000Y-8600000D02*
X5995711Y-8145711D01*
X6545711Y-4804289D02*
G75*
G03*
X6404289Y-4945711I-70711J-70711D01*
G01*
X7000000Y-7140000D02*
X7454289Y-7595711D01*
X10900000Y-8800000D02*
G75*
G03*
X11100000Y-8800000I100000J0D01*
G01*
X12804289Y-12254289D02*
G75*
G03*
X12945711Y-12395711I70711J-70711D01*
G01*
X8600000Y-11940000D02*
X8145711Y-12395711D01*
X4395711Y-8145711D02*
G75*
G03*
X4254289Y-8004289I-70711J70711D01*
G01*
X11800000Y-7140000D02*
X11345711Y-7595711D01*
X12700000Y-11600000D02*
G75*
G03*
X12600000Y-11500000I-100000J0D01*
G01*
X7140000Y-7000000D02*
X7595711Y-7454289D01*
X12700000Y-6800000D02*
X12700000Y-7200000D01*
X3800000Y-4700000D02*
X4000000Y-4700000D01*
X7000000Y-6860000D02*
X6545711Y-6404289D01*
X13400000Y-5540000D02*
X12945711Y-5995711D01*
X12500000Y-3800000D02*
X11940000Y-3800000D01*
X6800000Y-6300000D02*
X7200000Y-6300000D01*
X5600000Y-12700000D02*
G75*
G03*
X5700000Y-12600000I0J100000D01*
G01*
X7595711Y-4945711D02*
G75*
G03*
X7454289Y-4804289I-70711J70711D01*
G01*
X4395711Y-9745711D02*
G75*
G03*
X4254289Y-9604289I-70711J70711D01*
G01*
X8800000Y-6300000D02*
G75*
G03*
X8800000Y-6100000I0J100000D01*
G01*
X11600000Y-7700000D02*
G75*
G03*
X11600000Y-7900000I0J-100000D01*
G01*
X9500000Y-6800000D02*
G75*
G03*
X9300000Y-6800000I-100000J0D01*
G01*
X6300000Y-8800000D02*
X6300000Y-8400000D01*
X7000000Y-10060000D02*
X7454289Y-9604289D01*
X8460000Y-11800000D02*
X8004289Y-12254289D01*
X12804289Y-4254289D02*
G75*
G03*
X12945711Y-4395711I70711J-70711D01*
G01*
X11800000Y-3940000D02*
X12254289Y-4395711D01*
X3800000Y-10900000D02*
X4000000Y-10900000D01*
X12100000Y-12600000D02*
G75*
G03*
X12000000Y-12500000I-100000J0D01*
G01*
X8400000Y-11100000D02*
X8800000Y-11100000D01*
X6860000Y-8600000D02*
X6404289Y-9054289D01*
X12600000Y-10500000D02*
G75*
G03*
X12700000Y-10400000I0J100000D01*
G01*
X11800000Y-11660000D02*
X11345711Y-11204289D01*
X8740000Y-11800000D02*
X9195711Y-12254289D01*
X8145711Y-9604289D02*
G75*
G03*
X8004289Y-9745711I-70711J-70711D01*
G01*
X5400000Y-8460000D02*
X4945711Y-8004289D01*
X6100000Y-7200000D02*
X6100000Y-6800000D01*
X11800000Y-13260000D02*
X12254289Y-12804289D01*
X3800000Y-6100000D02*
X3800000Y-5540000D01*
X12254289Y-7595711D02*
G75*
G03*
X12395711Y-7454289I70711J70711D01*
G01*
X4804289Y-7454289D02*
G75*
G03*
X4945711Y-7595711I70711J-70711D01*
G01*
X10000000Y-4500000D02*
G75*
G03*
X10000000Y-4700000I0J-100000D01*
G01*
X7140000Y-5400000D02*
X7595711Y-4945711D01*
X12254289Y-4395711D02*
G75*
G03*
X12395711Y-4254289I70711J70711D01*
G01*
X10654289Y-12395711D02*
G75*
G03*
X10795711Y-12254289I70711J70711D01*
G01*
X11800000Y-11940000D02*
X11345711Y-12395711D01*
X6545711Y-12804289D02*
G75*
G03*
X6404289Y-12945711I-70711J-70711D01*
G01*
X11100000Y-6800000D02*
G75*
G03*
X10900000Y-6800000I-100000J0D01*
G01*
X13260000Y-10200000D02*
X12804289Y-10654289D01*
X5540000Y-7000000D02*
X5995711Y-7454289D01*
X9300000Y-10400000D02*
X9300000Y-10000000D01*
X8400000Y-10900000D02*
X8800000Y-10900000D01*
X10795711Y-6545711D02*
G75*
G03*
X10654289Y-6404289I-70711J70711D01*
G01*
X10060000Y-11800000D02*
X9604289Y-12254289D01*
X9745711Y-12804289D02*
G75*
G03*
X9604289Y-12945711I-70711J-70711D01*
G01*
X13260000Y-11800000D02*
X12804289Y-12254289D01*
X13100000Y-12600000D02*
G75*
G03*
X13200000Y-12700000I100000J0D01*
G01*
X8460000Y-5400000D02*
X8004289Y-5854289D01*
X12600000Y-7300000D02*
G75*
G03*
X12700000Y-7200000I0J100000D01*
G01*
X7900000Y-5200000D02*
G75*
G03*
X7700000Y-5200000I-100000J0D01*
G01*
X9300000Y-7200000D02*
X9300000Y-6800000D01*
X8600000Y-8740000D02*
X8145711Y-9195711D01*
X10200000Y-7140000D02*
X10654289Y-7595711D01*
X7454289Y-4395711D02*
G75*
G03*
X7595711Y-4254289I70711J70711D01*
G01*
X4500000Y-8800000D02*
X4500000Y-8400000D01*
X9300000Y-10400000D02*
G75*
G03*
X9500000Y-10400000I100000J0D01*
G01*
X5600000Y-6300000D02*
G75*
G03*
X5600000Y-6100000I0J100000D01*
G01*
X4500000Y-7200000D02*
G75*
G03*
X4700000Y-7200000I100000J0D01*
G01*
X5200000Y-9300000D02*
G75*
G03*
X5200000Y-9500000I0J-100000D01*
G01*
X8460000Y-5400000D02*
X8004289Y-4945711D01*
X12254289Y-10795711D02*
G75*
G03*
X12395711Y-10654289I70711J70711D01*
G01*
D11*
D12*
X4025000Y-4425000D02*
X4075000Y-4475000D01*
X4075000Y-4425000D02*
X4025000Y-4475000D01*
X4025000Y-4725000D02*
X4075000Y-4775000D01*
X4075000Y-4725000D02*
X4025000Y-4775000D01*
X4025000Y-6025000D02*
X4075000Y-6075000D01*
X4075000Y-6025000D02*
X4025000Y-6075000D01*
X4025000Y-6325000D02*
X4075000Y-6375000D01*
X4075000Y-6325000D02*
X4025000Y-6375000D01*
X4025000Y-7625000D02*
X4075000Y-7675000D01*
X4075000Y-7625000D02*
X4025000Y-7675000D01*
X4025000Y-7925000D02*
X4075000Y-7975000D01*
X4075000Y-7925000D02*
X4025000Y-7975000D01*
X4025000Y-9225000D02*
X4075000Y-9275000D01*
X4075000Y-9225000D02*
X4025000Y-9275000D01*
X4025000Y-9525000D02*
X4075000Y-9575000D01*
X4075000Y-9525000D02*
X4025000Y-9575000D01*
X4025000Y-10825000D02*
X4075000Y-10875000D01*
X4075000Y-10825000D02*
X4025000Y-10875000D01*
X4025000Y-11125000D02*
X4075000Y-11175000D01*
X4075000Y-11125000D02*
X4025000Y-11175000D01*
X4025000Y-12425000D02*
X4075000Y-12475000D01*
X4075000Y-12425000D02*
X4025000Y-12475000D01*
X4025000Y-12725000D02*
X4075000Y-12775000D01*
X4075000Y-12725000D02*
X4025000Y-12775000D01*
X4100000Y-4350000D02*
X4150000Y-4400000D01*
X4150000Y-4350000D02*
X4100000Y-4400000D01*
X4100000Y-4800000D02*
X4150000Y-4850000D01*
X4150000Y-4800000D02*
X4100000Y-4850000D01*
X4100000Y-5950000D02*
X4150000Y-6000000D01*
X4150000Y-5950000D02*
X4100000Y-6000000D01*
X4100000Y-6400000D02*
X4150000Y-6450000D01*
X4150000Y-6400000D02*
X4100000Y-6450000D01*
X4100000Y-7550000D02*
X4150000Y-7600000D01*
X4150000Y-7550000D02*
X4100000Y-7600000D01*
X4100000Y-8000000D02*
X4150000Y-8050000D01*
X4150000Y-8000000D02*
X4100000Y-8050000D01*
X4100000Y-9150000D02*
X4150000Y-9200000D01*
X4150000Y-9150000D02*
X4100000Y-9200000D01*
X4100000Y-9600000D02*
X4150000Y-9650000D01*
X4150000Y-9600000D02*
X4100000Y-9650000D01*
X4100000Y-10750000D02*
X4150000Y-10800000D01*
X4150000Y-10750000D02*
X4100000Y-10800000D01*
X4100000Y-11200000D02*
X4150000Y-11250000D01*
X4150000Y-11200000D02*
X4100000Y-11250000D01*
X4100000Y-12350000D02*
X4150000Y-12400000D01*
X4150000Y-12350000D02*
X4100000Y-12400000D01*
X4100000Y-12800000D02*
X4150000Y-12850000D01*
X4150000Y-12800000D02*
X4100000Y-12850000D01*
X4350000Y-4100000D02*
X4400000Y-4150000D01*
X4400000Y-4100000D02*
X4350000Y-4150000D01*
X4350000Y-5050000D02*
X4400000Y-5100000D01*
X4400000Y-5050000D02*
X4350000Y-5100000D01*
X4350000Y-5700000D02*
X4400000Y-5750000D01*
X4400000Y-5700000D02*
X4350000Y-5750000D01*
X4350000Y-6650000D02*
X4400000Y-6700000D01*
X4400000Y-6650000D02*
X4350000Y-6700000D01*
X4350000Y-7300000D02*
X4400000Y-7350000D01*
X4400000Y-7300000D02*
X4350000Y-7350000D01*
X4350000Y-8250000D02*
X4400000Y-8300000D01*
X4400000Y-8250000D02*
X4350000Y-8300000D01*
X4350000Y-8900000D02*
X4400000Y-8950000D01*
X4400000Y-8900000D02*
X4350000Y-8950000D01*
X4350000Y-9850000D02*
X4400000Y-9900000D01*
X4400000Y-9850000D02*
X4350000Y-9900000D01*
X4350000Y-10500000D02*
X4400000Y-10550000D01*
X4400000Y-10500000D02*
X4350000Y-10550000D01*
X4350000Y-11450000D02*
X4400000Y-11500000D01*
X4400000Y-11450000D02*
X4350000Y-11500000D01*
X4350000Y-12100000D02*
X4400000Y-12150000D01*
X4400000Y-12100000D02*
X4350000Y-12150000D01*
X4350000Y-13050000D02*
X4400000Y-13100000D01*
X4400000Y-13050000D02*
X4350000Y-13100000D01*
X4425000Y-4025000D02*
X4475000Y-4075000D01*
X4475000Y-4025000D02*
X4425000Y-4075000D01*
X4425000Y-5125000D02*
X4475000Y-5175000D01*
X4475000Y-5125000D02*
X4425000Y-5175000D01*
X4425000Y-5625000D02*
X4475000Y-5675000D01*
X4475000Y-5625000D02*
X4425000Y-5675000D01*
X4425000Y-6725000D02*
X4475000Y-6775000D01*
X4475000Y-6725000D02*
X4425000Y-6775000D01*
X4425000Y-7225000D02*
X4475000Y-7275000D01*
X4475000Y-7225000D02*
X4425000Y-7275000D01*
X4425000Y-8325000D02*
X4475000Y-8375000D01*
X4475000Y-8325000D02*
X4425000Y-8375000D01*
X4425000Y-8825000D02*
X4475000Y-8875000D01*
X4475000Y-8825000D02*
X4425000Y-8875000D01*
X4425000Y-9925000D02*
X4475000Y-9975000D01*
X4475000Y-9925000D02*
X4425000Y-9975000D01*
X4425000Y-10425000D02*
X4475000Y-10475000D01*
X4475000Y-10425000D02*
X4425000Y-10475000D01*
X4425000Y-11525000D02*
X4475000Y-11575000D01*
X4475000Y-11525000D02*
X4425000Y-11575000D01*
X4425000Y-12025000D02*
X4475000Y-12075000D01*
X4475000Y-12025000D02*
X4425000Y-12075000D01*
X4425000Y-13125000D02*
X4475000Y-13175000D01*
X4475000Y-13125000D02*
X4425000Y-13175000D01*
X4725000Y-4025000D02*
X4775000Y-4075000D01*
X4775000Y-4025000D02*
X4725000Y-4075000D01*
X4725000Y-5125000D02*
X4775000Y-5175000D01*
X4775000Y-5125000D02*
X4725000Y-5175000D01*
X4725000Y-5625000D02*
X4775000Y-5675000D01*
X4775000Y-5625000D02*
X4725000Y-5675000D01*
X4725000Y-6725000D02*
X4775000Y-6775000D01*
X4775000Y-6725000D02*
X4725000Y-6775000D01*
X4725000Y-7225000D02*
X4775000Y-7275000D01*
X4775000Y-7225000D02*
X4725000Y-7275000D01*
X4725000Y-8325000D02*
X4775000Y-8375000D01*
X4775000Y-8325000D02*
X4725000Y-8375000D01*
X4725000Y-8825000D02*
X4775000Y-8875000D01*
X4775000Y-8825000D02*
X4725000Y-8875000D01*
X4725000Y-9925000D02*
X4775000Y-9975000D01*
X4775000Y-9925000D02*
X4725000Y-9975000D01*
X4725000Y-10425000D02*
X4775000Y-10475000D01*
X4775000Y-10425000D02*
X4725000Y-10475000D01*
X4725000Y-11525000D02*
X4775000Y-11575000D01*
X4775000Y-11525000D02*
X4725000Y-11575000D01*
X4725000Y-12025000D02*
X4775000Y-12075000D01*
X4775000Y-12025000D02*
X4725000Y-12075000D01*
X4725000Y-13125000D02*
X4775000Y-13175000D01*
X4775000Y-13125000D02*
X4725000Y-13175000D01*
X4800000Y-4100000D02*
X4850000Y-4150000D01*
X4850000Y-4100000D02*
X4800000Y-4150000D01*
X4800000Y-5050000D02*
X4850000Y-5100000D01*
X4850000Y-5050000D02*
X4800000Y-5100000D01*
X4800000Y-5700000D02*
X4850000Y-5750000D01*
X4850000Y-5700000D02*
X4800000Y-5750000D01*
X4800000Y-6650000D02*
X4850000Y-6700000D01*
X4850000Y-6650000D02*
X4800000Y-6700000D01*
X4800000Y-7300000D02*
X4850000Y-7350000D01*
X4850000Y-7300000D02*
X4800000Y-7350000D01*
X4800000Y-8250000D02*
X4850000Y-8300000D01*
X4850000Y-8250000D02*
X4800000Y-8300000D01*
X4800000Y-8900000D02*
X4850000Y-8950000D01*
X4850000Y-8900000D02*
X4800000Y-8950000D01*
X4800000Y-9850000D02*
X4850000Y-9900000D01*
X4850000Y-9850000D02*
X4800000Y-9900000D01*
X4800000Y-10500000D02*
X4850000Y-10550000D01*
X4850000Y-10500000D02*
X4800000Y-10550000D01*
X4800000Y-11450000D02*
X4850000Y-11500000D01*
X4850000Y-11450000D02*
X4800000Y-11500000D01*
X4800000Y-12100000D02*
X4850000Y-12150000D01*
X4850000Y-12100000D02*
X4800000Y-12150000D01*
X4800000Y-13050000D02*
X4850000Y-13100000D01*
X4850000Y-13050000D02*
X4800000Y-13100000D01*
X5050000Y-12800000D02*
X5100000Y-12850000D01*
X5100000Y-12800000D02*
X5050000Y-12850000D01*
X5050000Y-4350000D02*
X5100000Y-4400000D01*
X5100000Y-4350000D02*
X5050000Y-4400000D01*
X5050000Y-4800000D02*
X5100000Y-4850000D01*
X5100000Y-4800000D02*
X5050000Y-4850000D01*
X5050000Y-5950000D02*
X5100000Y-6000000D01*
X5100000Y-5950000D02*
X5050000Y-6000000D01*
X5050000Y-6400000D02*
X5100000Y-6450000D01*
X5100000Y-6400000D02*
X5050000Y-6450000D01*
X5050000Y-7550000D02*
X5100000Y-7600000D01*
X5100000Y-7550000D02*
X5050000Y-7600000D01*
X5050000Y-8000000D02*
X5100000Y-8050000D01*
X5100000Y-8000000D02*
X5050000Y-8050000D01*
X5050000Y-9150000D02*
X5100000Y-9200000D01*
X5100000Y-9150000D02*
X5050000Y-9200000D01*
X5050000Y-9600000D02*
X5100000Y-9650000D01*
X5100000Y-9600000D02*
X5050000Y-9650000D01*
X5050000Y-10750000D02*
X5100000Y-10800000D01*
X5100000Y-10750000D02*
X5050000Y-10800000D01*
X5050000Y-11200000D02*
X5100000Y-11250000D01*
X5100000Y-11200000D02*
X5050000Y-11250000D01*
X5050000Y-12350000D02*
X5100000Y-12400000D01*
X5100000Y-12350000D02*
X5050000Y-12400000D01*
X5125000Y-12725000D02*
X5175000Y-12775000D01*
X5175000Y-12725000D02*
X5125000Y-12775000D01*
X5125000Y-4425000D02*
X5175000Y-4475000D01*
X5175000Y-4425000D02*
X5125000Y-4475000D01*
X5125000Y-4725000D02*
X5175000Y-4775000D01*
X5175000Y-4725000D02*
X5125000Y-4775000D01*
X5125000Y-6025000D02*
X5175000Y-6075000D01*
X5175000Y-6025000D02*
X5125000Y-6075000D01*
X5125000Y-6325000D02*
X5175000Y-6375000D01*
X5175000Y-6325000D02*
X5125000Y-6375000D01*
X5125000Y-7625000D02*
X5175000Y-7675000D01*
X5175000Y-7625000D02*
X5125000Y-7675000D01*
X5125000Y-7925000D02*
X5175000Y-7975000D01*
X5175000Y-7925000D02*
X5125000Y-7975000D01*
X5125000Y-9225000D02*
X5175000Y-9275000D01*
X5175000Y-9225000D02*
X5125000Y-9275000D01*
X5125000Y-9525000D02*
X5175000Y-9575000D01*
X5175000Y-9525000D02*
X5125000Y-9575000D01*
X5125000Y-10825000D02*
X5175000Y-10875000D01*
X5175000Y-10825000D02*
X5125000Y-10875000D01*
X5125000Y-11125000D02*
X5175000Y-11175000D01*
X5175000Y-11125000D02*
X5125000Y-11175000D01*
X5125000Y-12425000D02*
X5175000Y-12475000D01*
X5175000Y-12425000D02*
X5125000Y-12475000D01*
X5625000Y-12725000D02*
X5675000Y-12775000D01*
X5675000Y-12725000D02*
X5625000Y-12775000D01*
X5625000Y-4425000D02*
X5675000Y-4475000D01*
X5675000Y-4425000D02*
X5625000Y-4475000D01*
X5625000Y-4725000D02*
X5675000Y-4775000D01*
X5675000Y-4725000D02*
X5625000Y-4775000D01*
X5625000Y-6025000D02*
X5675000Y-6075000D01*
X5675000Y-6025000D02*
X5625000Y-6075000D01*
X5625000Y-6325000D02*
X5675000Y-6375000D01*
X5675000Y-6325000D02*
X5625000Y-6375000D01*
X5625000Y-7625000D02*
X5675000Y-7675000D01*
X5675000Y-7625000D02*
X5625000Y-7675000D01*
X5625000Y-7925000D02*
X5675000Y-7975000D01*
X5675000Y-7925000D02*
X5625000Y-7975000D01*
X5625000Y-9225000D02*
X5675000Y-9275000D01*
X5675000Y-9225000D02*
X5625000Y-9275000D01*
X5625000Y-9525000D02*
X5675000Y-9575000D01*
X5675000Y-9525000D02*
X5625000Y-9575000D01*
X5625000Y-10825000D02*
X5675000Y-10875000D01*
X5675000Y-10825000D02*
X5625000Y-10875000D01*
X5625000Y-11125000D02*
X5675000Y-11175000D01*
X5675000Y-11125000D02*
X5625000Y-11175000D01*
X5625000Y-12425000D02*
X5675000Y-12475000D01*
X5675000Y-12425000D02*
X5625000Y-12475000D01*
X5700000Y-12800000D02*
X5750000Y-12850000D01*
X5750000Y-12800000D02*
X5700000Y-12850000D01*
X5700000Y-4350000D02*
X5750000Y-4400000D01*
X5750000Y-4350000D02*
X5700000Y-4400000D01*
X5700000Y-4800000D02*
X5750000Y-4850000D01*
X5750000Y-4800000D02*
X5700000Y-4850000D01*
X5700000Y-5950000D02*
X5750000Y-6000000D01*
X5750000Y-5950000D02*
X5700000Y-6000000D01*
X5700000Y-6400000D02*
X5750000Y-6450000D01*
X5750000Y-6400000D02*
X5700000Y-6450000D01*
X5700000Y-7550000D02*
X5750000Y-7600000D01*
X5750000Y-7550000D02*
X5700000Y-7600000D01*
X5700000Y-8000000D02*
X5750000Y-8050000D01*
X5750000Y-8000000D02*
X5700000Y-8050000D01*
X5700000Y-9150000D02*
X5750000Y-9200000D01*
X5750000Y-9150000D02*
X5700000Y-9200000D01*
X5700000Y-9600000D02*
X5750000Y-9650000D01*
X5750000Y-9600000D02*
X5700000Y-9650000D01*
X5700000Y-10750000D02*
X5750000Y-10800000D01*
X5750000Y-10750000D02*
X5700000Y-10800000D01*
X5700000Y-11200000D02*
X5750000Y-11250000D01*
X5750000Y-11200000D02*
X5700000Y-11250000D01*
X5700000Y-12350000D02*
X5750000Y-12400000D01*
X5750000Y-12350000D02*
X5700000Y-12400000D01*
X5950000Y-4100000D02*
X6000000Y-4150000D01*
X6000000Y-4100000D02*
X5950000Y-4150000D01*
X5950000Y-5050000D02*
X6000000Y-5100000D01*
X6000000Y-5050000D02*
X5950000Y-5100000D01*
X5950000Y-5700000D02*
X6000000Y-5750000D01*
X6000000Y-5700000D02*
X5950000Y-5750000D01*
X5950000Y-6650000D02*
X6000000Y-6700000D01*
X6000000Y-6650000D02*
X5950000Y-6700000D01*
X5950000Y-7300000D02*
X6000000Y-7350000D01*
X6000000Y-7300000D02*
X5950000Y-7350000D01*
X5950000Y-8250000D02*
X6000000Y-8300000D01*
X6000000Y-8250000D02*
X5950000Y-8300000D01*
X5950000Y-8900000D02*
X6000000Y-8950000D01*
X6000000Y-8900000D02*
X5950000Y-8950000D01*
X5950000Y-9850000D02*
X6000000Y-9900000D01*
X6000000Y-9850000D02*
X5950000Y-9900000D01*
X5950000Y-10500000D02*
X6000000Y-10550000D01*
X6000000Y-10500000D02*
X5950000Y-10550000D01*
X5950000Y-11450000D02*
X6000000Y-11500000D01*
X6000000Y-11450000D02*
X5950000Y-11500000D01*
X5950000Y-12100000D02*
X6000000Y-12150000D01*
X6000000Y-12100000D02*
X5950000Y-12150000D01*
X5950000Y-13050000D02*
X6000000Y-13100000D01*
X6000000Y-13050000D02*
X5950000Y-13100000D01*
X6025000Y-4025000D02*
X6075000Y-4075000D01*
X6075000Y-4025000D02*
X6025000Y-4075000D01*
X6025000Y-5125000D02*
X6075000Y-5175000D01*
X6075000Y-5125000D02*
X6025000Y-5175000D01*
X6025000Y-5625000D02*
X6075000Y-5675000D01*
X6075000Y-5625000D02*
X6025000Y-5675000D01*
X6025000Y-6725000D02*
X6075000Y-6775000D01*
X6075000Y-6725000D02*
X6025000Y-6775000D01*
X6025000Y-7225000D02*
X6075000Y-7275000D01*
X6075000Y-7225000D02*
X6025000Y-7275000D01*
X6025000Y-8325000D02*
X6075000Y-8375000D01*
X6075000Y-8325000D02*
X6025000Y-8375000D01*
X6025000Y-8825000D02*
X6075000Y-8875000D01*
X6075000Y-8825000D02*
X6025000Y-8875000D01*
X6025000Y-9925000D02*
X6075000Y-9975000D01*
X6075000Y-9925000D02*
X6025000Y-9975000D01*
X6025000Y-10425000D02*
X6075000Y-10475000D01*
X6075000Y-10425000D02*
X6025000Y-10475000D01*
X6025000Y-11525000D02*
X6075000Y-11575000D01*
X6075000Y-11525000D02*
X6025000Y-11575000D01*
X6025000Y-12025000D02*
X6075000Y-12075000D01*
X6075000Y-12025000D02*
X6025000Y-12075000D01*
X6025000Y-13125000D02*
X6075000Y-13175000D01*
X6075000Y-13125000D02*
X6025000Y-13175000D01*
X6325000Y-4025000D02*
X6375000Y-4075000D01*
X6375000Y-4025000D02*
X6325000Y-4075000D01*
X6325000Y-5125000D02*
X6375000Y-5175000D01*
X6375000Y-5125000D02*
X6325000Y-5175000D01*
X6325000Y-5625000D02*
X6375000Y-5675000D01*
X6375000Y-5625000D02*
X6325000Y-5675000D01*
X6325000Y-6725000D02*
X6375000Y-6775000D01*
X6375000Y-6725000D02*
X6325000Y-6775000D01*
X6325000Y-7225000D02*
X6375000Y-7275000D01*
X6375000Y-7225000D02*
X6325000Y-7275000D01*
X6325000Y-8325000D02*
X6375000Y-8375000D01*
X6375000Y-8325000D02*
X6325000Y-8375000D01*
X6325000Y-8825000D02*
X6375000Y-8875000D01*
X6375000Y-8825000D02*
X6325000Y-8875000D01*
X6325000Y-9925000D02*
X6375000Y-9975000D01*
X6375000Y-9925000D02*
X6325000Y-9975000D01*
X6325000Y-10425000D02*
X6375000Y-10475000D01*
X6375000Y-10425000D02*
X6325000Y-10475000D01*
X6325000Y-11525000D02*
X6375000Y-11575000D01*
X6375000Y-11525000D02*
X6325000Y-11575000D01*
X6325000Y-12025000D02*
X6375000Y-12075000D01*
X6375000Y-12025000D02*
X6325000Y-12075000D01*
X6325000Y-13125000D02*
X6375000Y-13175000D01*
X6375000Y-13125000D02*
X6325000Y-13175000D01*
X6400000Y-4100000D02*
X6450000Y-4150000D01*
X6450000Y-4100000D02*
X6400000Y-4150000D01*
X6400000Y-5050000D02*
X6450000Y-5100000D01*
X6450000Y-5050000D02*
X6400000Y-5100000D01*
X6400000Y-5700000D02*
X6450000Y-5750000D01*
X6450000Y-5700000D02*
X6400000Y-5750000D01*
X6400000Y-6650000D02*
X6450000Y-6700000D01*
X6450000Y-6650000D02*
X6400000Y-6700000D01*
X6400000Y-7300000D02*
X6450000Y-7350000D01*
X6450000Y-7300000D02*
X6400000Y-7350000D01*
X6400000Y-8250000D02*
X6450000Y-8300000D01*
X6450000Y-8250000D02*
X6400000Y-8300000D01*
X6400000Y-8900000D02*
X6450000Y-8950000D01*
X6450000Y-8900000D02*
X6400000Y-8950000D01*
X6400000Y-9850000D02*
X6450000Y-9900000D01*
X6450000Y-9850000D02*
X6400000Y-9900000D01*
X6400000Y-10500000D02*
X6450000Y-10550000D01*
X6450000Y-10500000D02*
X6400000Y-10550000D01*
X6400000Y-11450000D02*
X6450000Y-11500000D01*
X6450000Y-11450000D02*
X6400000Y-11500000D01*
X6400000Y-12100000D02*
X6450000Y-12150000D01*
X6450000Y-12100000D02*
X6400000Y-12150000D01*
X6400000Y-13050000D02*
X6450000Y-13100000D01*
X6450000Y-13050000D02*
X6400000Y-13100000D01*
X6650000Y-4350000D02*
X6700000Y-4400000D01*
X6700000Y-4350000D02*
X6650000Y-4400000D01*
X6650000Y-4800000D02*
X6700000Y-4850000D01*
X6700000Y-4800000D02*
X6650000Y-4850000D01*
X6650000Y-5950000D02*
X6700000Y-6000000D01*
X6700000Y-5950000D02*
X6650000Y-6000000D01*
X6650000Y-6400000D02*
X6700000Y-6450000D01*
X6700000Y-6400000D02*
X6650000Y-6450000D01*
X6650000Y-7550000D02*
X6700000Y-7600000D01*
X6700000Y-7550000D02*
X6650000Y-7600000D01*
X6650000Y-8000000D02*
X6700000Y-8050000D01*
X6700000Y-8000000D02*
X6650000Y-8050000D01*
X6650000Y-9150000D02*
X6700000Y-9200000D01*
X6700000Y-9150000D02*
X6650000Y-9200000D01*
X6650000Y-9600000D02*
X6700000Y-9650000D01*
X6700000Y-9600000D02*
X6650000Y-9650000D01*
X6650000Y-10750000D02*
X6700000Y-10800000D01*
X6700000Y-10750000D02*
X6650000Y-10800000D01*
X6650000Y-11200000D02*
X6700000Y-11250000D01*
X6700000Y-11200000D02*
X6650000Y-11250000D01*
X6650000Y-12350000D02*
X6700000Y-12400000D01*
X6700000Y-12350000D02*
X6650000Y-12400000D01*
X6650000Y-12800000D02*
X6700000Y-12850000D01*
X6700000Y-12800000D02*
X6650000Y-12850000D01*
X6725000Y-4425000D02*
X6775000Y-4475000D01*
X6775000Y-4425000D02*
X6725000Y-4475000D01*
X6725000Y-4725000D02*
X6775000Y-4775000D01*
X6775000Y-4725000D02*
X6725000Y-4775000D01*
X6725000Y-6025000D02*
X6775000Y-6075000D01*
X6775000Y-6025000D02*
X6725000Y-6075000D01*
X6725000Y-6325000D02*
X6775000Y-6375000D01*
X6775000Y-6325000D02*
X6725000Y-6375000D01*
X6725000Y-7625000D02*
X6775000Y-7675000D01*
X6775000Y-7625000D02*
X6725000Y-7675000D01*
X6725000Y-7925000D02*
X6775000Y-7975000D01*
X6775000Y-7925000D02*
X6725000Y-7975000D01*
X6725000Y-9225000D02*
X6775000Y-9275000D01*
X6775000Y-9225000D02*
X6725000Y-9275000D01*
X6725000Y-9525000D02*
X6775000Y-9575000D01*
X6775000Y-9525000D02*
X6725000Y-9575000D01*
X6725000Y-10825000D02*
X6775000Y-10875000D01*
X6775000Y-10825000D02*
X6725000Y-10875000D01*
X6725000Y-11125000D02*
X6775000Y-11175000D01*
X6775000Y-11125000D02*
X6725000Y-11175000D01*
X6725000Y-12425000D02*
X6775000Y-12475000D01*
X6775000Y-12425000D02*
X6725000Y-12475000D01*
X6725000Y-12725000D02*
X6775000Y-12775000D01*
X6775000Y-12725000D02*
X6725000Y-12775000D01*
X7225000Y-4425000D02*
X7275000Y-4475000D01*
X7275000Y-4425000D02*
X7225000Y-4475000D01*
X7225000Y-4725000D02*
X7275000Y-4775000D01*
X7275000Y-4725000D02*
X7225000Y-4775000D01*
X7225000Y-6025000D02*
X7275000Y-6075000D01*
X7275000Y-6025000D02*
X7225000Y-6075000D01*
X7225000Y-6325000D02*
X7275000Y-6375000D01*
X7275000Y-6325000D02*
X7225000Y-6375000D01*
X7225000Y-7625000D02*
X7275000Y-7675000D01*
X7275000Y-7625000D02*
X7225000Y-7675000D01*
X7225000Y-7925000D02*
X7275000Y-7975000D01*
X7275000Y-7925000D02*
X7225000Y-7975000D01*
X7225000Y-9225000D02*
X7275000Y-9275000D01*
X7275000Y-9225000D02*
X7225000Y-9275000D01*
X7225000Y-9525000D02*
X7275000Y-9575000D01*
X7275000Y-9525000D02*
X7225000Y-9575000D01*
X7225000Y-10825000D02*
X7275000Y-10875000D01*
X7275000Y-10825000D02*
X7225000Y-10875000D01*
X7225000Y-11125000D02*
X7275000Y-11175000D01*
X7275000Y-11125000D02*
X7225000Y-11175000D01*
X7225000Y-12425000D02*
X7275000Y-12475000D01*
X7275000Y-12425000D02*
X7225000Y-12475000D01*
X7225000Y-12725000D02*
X7275000Y-12775000D01*
X7275000Y-12725000D02*
X7225000Y-12775000D01*
X7300000Y-4350000D02*
X7350000Y-4400000D01*
X7350000Y-4350000D02*
X7300000Y-4400000D01*
X7300000Y-4800000D02*
X7350000Y-4850000D01*
X7350000Y-4800000D02*
X7300000Y-4850000D01*
X7300000Y-5950000D02*
X7350000Y-6000000D01*
X7350000Y-5950000D02*
X7300000Y-6000000D01*
X7300000Y-6400000D02*
X7350000Y-6450000D01*
X7350000Y-6400000D02*
X7300000Y-6450000D01*
X7300000Y-7550000D02*
X7350000Y-7600000D01*
X7350000Y-7550000D02*
X7300000Y-7600000D01*
X7300000Y-8000000D02*
X7350000Y-8050000D01*
X7350000Y-8000000D02*
X7300000Y-8050000D01*
X7300000Y-9150000D02*
X7350000Y-9200000D01*
X7350000Y-9150000D02*
X7300000Y-9200000D01*
X7300000Y-9600000D02*
X7350000Y-9650000D01*
X7350000Y-9600000D02*
X7300000Y-9650000D01*
X7300000Y-10750000D02*
X7350000Y-10800000D01*
X7350000Y-10750000D02*
X7300000Y-10800000D01*
X7300000Y-11200000D02*
X7350000Y-11250000D01*
X7350000Y-11200000D02*
X7300000Y-11250000D01*
X7300000Y-12350000D02*
X7350000Y-12400000D01*
X7350000Y-12350000D02*
X7300000Y-12400000D01*
X7300000Y-12800000D02*
X7350000Y-12850000D01*
X7350000Y-12800000D02*
X7300000Y-12850000D01*
X7550000Y-4100000D02*
X7600000Y-4150000D01*
X7600000Y-4100000D02*
X7550000Y-4150000D01*
X7550000Y-5050000D02*
X7600000Y-5100000D01*
X7600000Y-5050000D02*
X7550000Y-5100000D01*
X7550000Y-5700000D02*
X7600000Y-5750000D01*
X7600000Y-5700000D02*
X7550000Y-5750000D01*
X7550000Y-6650000D02*
X7600000Y-6700000D01*
X7600000Y-6650000D02*
X7550000Y-6700000D01*
X7550000Y-7300000D02*
X7600000Y-7350000D01*
X7600000Y-7300000D02*
X7550000Y-7350000D01*
X7550000Y-8250000D02*
X7600000Y-8300000D01*
X7600000Y-8250000D02*
X7550000Y-8300000D01*
X7550000Y-8900000D02*
X7600000Y-8950000D01*
X7600000Y-8900000D02*
X7550000Y-8950000D01*
X7550000Y-9850000D02*
X7600000Y-9900000D01*
X7600000Y-9850000D02*
X7550000Y-9900000D01*
X7550000Y-10500000D02*
X7600000Y-10550000D01*
X7600000Y-10500000D02*
X7550000Y-10550000D01*
X7550000Y-11450000D02*
X7600000Y-11500000D01*
X7600000Y-11450000D02*
X7550000Y-11500000D01*
X7550000Y-12100000D02*
X7600000Y-12150000D01*
X7600000Y-12100000D02*
X7550000Y-12150000D01*
X7550000Y-13050000D02*
X7600000Y-13100000D01*
X7600000Y-13050000D02*
X7550000Y-13100000D01*
X7625000Y-4025000D02*
X7675000Y-4075000D01*
X7675000Y-4025000D02*
X7625000Y-4075000D01*
X7625000Y-5125000D02*
X7675000Y-5175000D01*
X7675000Y-5125000D02*
X7625000Y-5175000D01*
X7625000Y-5625000D02*
X7675000Y-5675000D01*
X7675000Y-5625000D02*
X7625000Y-5675000D01*
X7625000Y-6725000D02*
X7675000Y-6775000D01*
X7675000Y-6725000D02*
X7625000Y-6775000D01*
X7625000Y-7225000D02*
X7675000Y-7275000D01*
X7675000Y-7225000D02*
X7625000Y-7275000D01*
X7625000Y-8325000D02*
X7675000Y-8375000D01*
X7675000Y-8325000D02*
X7625000Y-8375000D01*
X7625000Y-8825000D02*
X7675000Y-8875000D01*
X7675000Y-8825000D02*
X7625000Y-8875000D01*
X7625000Y-9925000D02*
X7675000Y-9975000D01*
X7675000Y-9925000D02*
X7625000Y-9975000D01*
X7625000Y-10425000D02*
X7675000Y-10475000D01*
X7675000Y-10425000D02*
X7625000Y-10475000D01*
X7625000Y-11525000D02*
X7675000Y-11575000D01*
X7675000Y-11525000D02*
X7625000Y-11575000D01*
X7625000Y-12025000D02*
X7675000Y-12075000D01*
X7675000Y-12025000D02*
X7625000Y-12075000D01*
X7625000Y-13125000D02*
X7675000Y-13175000D01*
X7675000Y-13125000D02*
X7625000Y-13175000D01*
X7925000Y-4025000D02*
X7975000Y-4075000D01*
X7975000Y-4025000D02*
X7925000Y-4075000D01*
X7925000Y-5125000D02*
X7975000Y-5175000D01*
X7975000Y-5125000D02*
X7925000Y-5175000D01*
X7925000Y-5625000D02*
X7975000Y-5675000D01*
X7975000Y-5625000D02*
X7925000Y-5675000D01*
X7925000Y-6725000D02*
X7975000Y-6775000D01*
X7975000Y-6725000D02*
X7925000Y-6775000D01*
X7925000Y-7225000D02*
X7975000Y-7275000D01*
X7975000Y-7225000D02*
X7925000Y-7275000D01*
X7925000Y-8325000D02*
X7975000Y-8375000D01*
X7975000Y-8325000D02*
X7925000Y-8375000D01*
X7925000Y-8825000D02*
X7975000Y-8875000D01*
X7975000Y-8825000D02*
X7925000Y-8875000D01*
X7925000Y-9925000D02*
X7975000Y-9975000D01*
X7975000Y-9925000D02*
X7925000Y-9975000D01*
X7925000Y-10425000D02*
X7975000Y-10475000D01*
X7975000Y-10425000D02*
X7925000Y-10475000D01*
X7925000Y-11525000D02*
X7975000Y-11575000D01*
X7975000Y-11525000D02*
X7925000Y-11575000D01*
X7925000Y-12025000D02*
X7975000Y-12075000D01*
X7975000Y-12025000D02*
X7925000Y-12075000D01*
X7925000Y-13125000D02*
X7975000Y-13175000D01*
X7975000Y-13125000D02*
X7925000Y-13175000D01*
X8000000Y-4100000D02*
X8050000Y-4150000D01*
X8050000Y-4100000D02*
X8000000Y-4150000D01*
X8000000Y-5050000D02*
X8050000Y-5100000D01*
X8050000Y-5050000D02*
X8000000Y-5100000D01*
X8000000Y-5700000D02*
X8050000Y-5750000D01*
X8050000Y-5700000D02*
X8000000Y-5750000D01*
X8000000Y-6650000D02*
X8050000Y-6700000D01*
X8050000Y-6650000D02*
X8000000Y-6700000D01*
X8000000Y-7300000D02*
X8050000Y-7350000D01*
X8050000Y-7300000D02*
X8000000Y-7350000D01*
X8000000Y-8250000D02*
X8050000Y-8300000D01*
X8050000Y-8250000D02*
X8000000Y-8300000D01*
X8000000Y-8900000D02*
X8050000Y-8950000D01*
X8050000Y-8900000D02*
X8000000Y-8950000D01*
X8000000Y-9850000D02*
X8050000Y-9900000D01*
X8050000Y-9850000D02*
X8000000Y-9900000D01*
X8000000Y-10500000D02*
X8050000Y-10550000D01*
X8050000Y-10500000D02*
X8000000Y-10550000D01*
X8000000Y-11450000D02*
X8050000Y-11500000D01*
X8050000Y-11450000D02*
X8000000Y-11500000D01*
X8000000Y-12100000D02*
X8050000Y-12150000D01*
X8050000Y-12100000D02*
X8000000Y-12150000D01*
X8000000Y-13050000D02*
X8050000Y-13100000D01*
X8050000Y-13050000D02*
X8000000Y-13100000D01*
X8250000Y-12800000D02*
X8300000Y-12850000D01*
X8300000Y-12800000D02*
X8250000Y-12850000D01*
X8250000Y-4350000D02*
X8300000Y-4400000D01*
X8300000Y-4350000D02*
X8250000Y-4400000D01*
X8250000Y-4800000D02*
X8300000Y-4850000D01*
X8300000Y-4800000D02*
X8250000Y-4850000D01*
X8250000Y-5950000D02*
X8300000Y-6000000D01*
X8300000Y-5950000D02*
X8250000Y-6000000D01*
X8250000Y-6400000D02*
X8300000Y-6450000D01*
X8300000Y-6400000D02*
X8250000Y-6450000D01*
X8250000Y-7550000D02*
X8300000Y-7600000D01*
X8300000Y-7550000D02*
X8250000Y-7600000D01*
X8250000Y-8000000D02*
X8300000Y-8050000D01*
X8300000Y-8000000D02*
X8250000Y-8050000D01*
X8250000Y-9150000D02*
X8300000Y-9200000D01*
X8300000Y-9150000D02*
X8250000Y-9200000D01*
X8250000Y-9600000D02*
X8300000Y-9650000D01*
X8300000Y-9600000D02*
X8250000Y-9650000D01*
X8250000Y-10750000D02*
X8300000Y-10800000D01*
X8300000Y-10750000D02*
X8250000Y-10800000D01*
X8250000Y-11200000D02*
X8300000Y-11250000D01*
X8300000Y-11200000D02*
X8250000Y-11250000D01*
X8250000Y-12350000D02*
X8300000Y-12400000D01*
X8300000Y-12350000D02*
X8250000Y-12400000D01*
X8325000Y-12725000D02*
X8375000Y-12775000D01*
X8375000Y-12725000D02*
X8325000Y-12775000D01*
X8325000Y-4425000D02*
X8375000Y-4475000D01*
X8375000Y-4425000D02*
X8325000Y-4475000D01*
X8325000Y-4725000D02*
X8375000Y-4775000D01*
X8375000Y-4725000D02*
X8325000Y-4775000D01*
X8325000Y-6025000D02*
X8375000Y-6075000D01*
X8375000Y-6025000D02*
X8325000Y-6075000D01*
X8325000Y-6325000D02*
X8375000Y-6375000D01*
X8375000Y-6325000D02*
X8325000Y-6375000D01*
X8325000Y-7625000D02*
X8375000Y-7675000D01*
X8375000Y-7625000D02*
X8325000Y-7675000D01*
X8325000Y-7925000D02*
X8375000Y-7975000D01*
X8375000Y-7925000D02*
X8325000Y-7975000D01*
X8325000Y-9225000D02*
X8375000Y-9275000D01*
X8375000Y-9225000D02*
X8325000Y-9275000D01*
X8325000Y-9525000D02*
X8375000Y-9575000D01*
X8375000Y-9525000D02*
X8325000Y-9575000D01*
X8325000Y-10825000D02*
X8375000Y-10875000D01*
X8375000Y-10825000D02*
X8325000Y-10875000D01*
X8325000Y-11125000D02*
X8375000Y-11175000D01*
X8375000Y-11125000D02*
X8325000Y-11175000D01*
X8325000Y-12425000D02*
X8375000Y-12475000D01*
X8375000Y-12425000D02*
X8325000Y-12475000D01*
X8825000Y-12725000D02*
X8875000Y-12775000D01*
X8875000Y-12725000D02*
X8825000Y-12775000D01*
X8825000Y-4425000D02*
X8875000Y-4475000D01*
X8875000Y-4425000D02*
X8825000Y-4475000D01*
X8825000Y-4725000D02*
X8875000Y-4775000D01*
X8875000Y-4725000D02*
X8825000Y-4775000D01*
X8825000Y-6025000D02*
X8875000Y-6075000D01*
X8875000Y-6025000D02*
X8825000Y-6075000D01*
X8825000Y-6325000D02*
X8875000Y-6375000D01*
X8875000Y-6325000D02*
X8825000Y-6375000D01*
X8825000Y-7625000D02*
X8875000Y-7675000D01*
X8875000Y-7625000D02*
X8825000Y-7675000D01*
X8825000Y-7925000D02*
X8875000Y-7975000D01*
X8875000Y-7925000D02*
X8825000Y-7975000D01*
X8825000Y-9225000D02*
X8875000Y-9275000D01*
X8875000Y-9225000D02*
X8825000Y-9275000D01*
X8825000Y-9525000D02*
X8875000Y-9575000D01*
X8875000Y-9525000D02*
X8825000Y-9575000D01*
X8825000Y-10825000D02*
X8875000Y-10875000D01*
X8875000Y-10825000D02*
X8825000Y-10875000D01*
X8825000Y-11125000D02*
X8875000Y-11175000D01*
X8875000Y-11125000D02*
X8825000Y-11175000D01*
X8825000Y-12425000D02*
X8875000Y-12475000D01*
X8875000Y-12425000D02*
X8825000Y-12475000D01*
X8900000Y-12800000D02*
X8950000Y-12850000D01*
X8950000Y-12800000D02*
X8900000Y-12850000D01*
X8900000Y-4350000D02*
X8950000Y-4400000D01*
X8950000Y-4350000D02*
X8900000Y-4400000D01*
X8900000Y-4800000D02*
X8950000Y-4850000D01*
X8950000Y-4800000D02*
X8900000Y-4850000D01*
X8900000Y-5950000D02*
X8950000Y-6000000D01*
X8950000Y-5950000D02*
X8900000Y-6000000D01*
X8900000Y-6400000D02*
X8950000Y-6450000D01*
X8950000Y-6400000D02*
X8900000Y-6450000D01*
X8900000Y-7550000D02*
X8950000Y-7600000D01*
X8950000Y-7550000D02*
X8900000Y-7600000D01*
X8900000Y-8000000D02*
X8950000Y-8050000D01*
X8950000Y-8000000D02*
X8900000Y-8050000D01*
X8900000Y-9150000D02*
X8950000Y-9200000D01*
X8950000Y-9150000D02*
X8900000Y-9200000D01*
X8900000Y-9600000D02*
X8950000Y-9650000D01*
X8950000Y-9600000D02*
X8900000Y-9650000D01*
X8900000Y-10750000D02*
X8950000Y-10800000D01*
X8950000Y-10750000D02*
X8900000Y-10800000D01*
X8900000Y-11200000D02*
X8950000Y-11250000D01*
X8950000Y-11200000D02*
X8900000Y-11250000D01*
X8900000Y-12350000D02*
X8950000Y-12400000D01*
X8950000Y-12350000D02*
X8900000Y-12400000D01*
X9150000Y-4100000D02*
X9200000Y-4150000D01*
X9200000Y-4100000D02*
X9150000Y-4150000D01*
X9150000Y-5050000D02*
X9200000Y-5100000D01*
X9200000Y-5050000D02*
X9150000Y-5100000D01*
X9150000Y-5700000D02*
X9200000Y-5750000D01*
X9200000Y-5700000D02*
X9150000Y-5750000D01*
X9150000Y-6650000D02*
X9200000Y-6700000D01*
X9200000Y-6650000D02*
X9150000Y-6700000D01*
X9150000Y-7300000D02*
X9200000Y-7350000D01*
X9200000Y-7300000D02*
X9150000Y-7350000D01*
X9150000Y-8250000D02*
X9200000Y-8300000D01*
X9200000Y-8250000D02*
X9150000Y-8300000D01*
X9150000Y-8900000D02*
X9200000Y-8950000D01*
X9200000Y-8900000D02*
X9150000Y-8950000D01*
X9150000Y-9850000D02*
X9200000Y-9900000D01*
X9200000Y-9850000D02*
X9150000Y-9900000D01*
X9150000Y-10500000D02*
X9200000Y-10550000D01*
X9200000Y-10500000D02*
X9150000Y-10550000D01*
X9150000Y-11450000D02*
X9200000Y-11500000D01*
X9200000Y-11450000D02*
X9150000Y-11500000D01*
X9150000Y-12100000D02*
X9200000Y-12150000D01*
X9200000Y-12100000D02*
X9150000Y-12150000D01*
X9150000Y-13050000D02*
X9200000Y-13100000D01*
X9200000Y-13050000D02*
X9150000Y-13100000D01*
X9225000Y-4025000D02*
X9275000Y-4075000D01*
X9275000Y-4025000D02*
X9225000Y-4075000D01*
X9225000Y-5125000D02*
X9275000Y-5175000D01*
X9275000Y-5125000D02*
X9225000Y-5175000D01*
X9225000Y-5625000D02*
X9275000Y-5675000D01*
X9275000Y-5625000D02*
X9225000Y-5675000D01*
X9225000Y-6725000D02*
X9275000Y-6775000D01*
X9275000Y-6725000D02*
X9225000Y-6775000D01*
X9225000Y-7225000D02*
X9275000Y-7275000D01*
X9275000Y-7225000D02*
X9225000Y-7275000D01*
X9225000Y-8325000D02*
X9275000Y-8375000D01*
X9275000Y-8325000D02*
X9225000Y-8375000D01*
X9225000Y-8825000D02*
X9275000Y-8875000D01*
X9275000Y-8825000D02*
X9225000Y-8875000D01*
X9225000Y-9925000D02*
X9275000Y-9975000D01*
X9275000Y-9925000D02*
X9225000Y-9975000D01*
X9225000Y-10425000D02*
X9275000Y-10475000D01*
X9275000Y-10425000D02*
X9225000Y-10475000D01*
X9225000Y-11525000D02*
X9275000Y-11575000D01*
X9275000Y-11525000D02*
X9225000Y-11575000D01*
X9225000Y-12025000D02*
X9275000Y-12075000D01*
X9275000Y-12025000D02*
X9225000Y-12075000D01*
X9225000Y-13125000D02*
X9275000Y-13175000D01*
X9275000Y-13125000D02*
X9225000Y-13175000D01*
X9525000Y-4025000D02*
X9575000Y-4075000D01*
X9575000Y-4025000D02*
X9525000Y-4075000D01*
X9525000Y-5125000D02*
X9575000Y-5175000D01*
X9575000Y-5125000D02*
X9525000Y-5175000D01*
X9525000Y-5625000D02*
X9575000Y-5675000D01*
X9575000Y-5625000D02*
X9525000Y-5675000D01*
X9525000Y-6725000D02*
X9575000Y-6775000D01*
X9575000Y-6725000D02*
X9525000Y-6775000D01*
X9525000Y-7225000D02*
X9575000Y-7275000D01*
X9575000Y-7225000D02*
X9525000Y-7275000D01*
X9525000Y-8325000D02*
X9575000Y-8375000D01*
X9575000Y-8325000D02*
X9525000Y-8375000D01*
X9525000Y-8825000D02*
X9575000Y-8875000D01*
X9575000Y-8825000D02*
X9525000Y-8875000D01*
X9525000Y-9925000D02*
X9575000Y-9975000D01*
X9575000Y-9925000D02*
X9525000Y-9975000D01*
X9525000Y-10425000D02*
X9575000Y-10475000D01*
X9575000Y-10425000D02*
X9525000Y-10475000D01*
X9525000Y-11525000D02*
X9575000Y-11575000D01*
X9575000Y-11525000D02*
X9525000Y-11575000D01*
X9525000Y-12025000D02*
X9575000Y-12075000D01*
X9575000Y-12025000D02*
X9525000Y-12075000D01*
X9525000Y-13125000D02*
X9575000Y-13175000D01*
X9575000Y-13125000D02*
X9525000Y-13175000D01*
X9600000Y-4100000D02*
X9650000Y-4150000D01*
X9650000Y-4100000D02*
X9600000Y-4150000D01*
X9600000Y-5050000D02*
X9650000Y-5100000D01*
X9650000Y-5050000D02*
X9600000Y-5100000D01*
X9600000Y-5700000D02*
X9650000Y-5750000D01*
X9650000Y-5700000D02*
X9600000Y-5750000D01*
X9600000Y-6650000D02*
X9650000Y-6700000D01*
X9650000Y-6650000D02*
X9600000Y-6700000D01*
X9600000Y-7300000D02*
X9650000Y-7350000D01*
X9650000Y-7300000D02*
X9600000Y-7350000D01*
X9600000Y-8250000D02*
X9650000Y-8300000D01*
X9650000Y-8250000D02*
X9600000Y-8300000D01*
X9600000Y-8900000D02*
X9650000Y-8950000D01*
X9650000Y-8900000D02*
X9600000Y-8950000D01*
X9600000Y-9850000D02*
X9650000Y-9900000D01*
X9650000Y-9850000D02*
X9600000Y-9900000D01*
X9600000Y-10500000D02*
X9650000Y-10550000D01*
X9650000Y-10500000D02*
X9600000Y-10550000D01*
X9600000Y-11450000D02*
X9650000Y-11500000D01*
X9650000Y-11450000D02*
X9600000Y-11500000D01*
X9600000Y-12100000D02*
X9650000Y-12150000D01*
X9650000Y-12100000D02*
X9600000Y-12150000D01*
X9600000Y-13050000D02*
X9650000Y-13100000D01*
X9650000Y-13050000D02*
X9600000Y-13100000D01*
X9850000Y-4350000D02*
X9900000Y-4400000D01*
X9900000Y-4350000D02*
X9850000Y-4400000D01*
X9850000Y-4800000D02*
X9900000Y-4850000D01*
X9900000Y-4800000D02*
X9850000Y-4850000D01*
X9850000Y-5950000D02*
X9900000Y-6000000D01*
X9900000Y-5950000D02*
X9850000Y-6000000D01*
X9850000Y-6400000D02*
X9900000Y-6450000D01*
X9900000Y-6400000D02*
X9850000Y-6450000D01*
X9850000Y-7550000D02*
X9900000Y-7600000D01*
X9900000Y-7550000D02*
X9850000Y-7600000D01*
X9850000Y-8000000D02*
X9900000Y-8050000D01*
X9900000Y-8000000D02*
X9850000Y-8050000D01*
X9850000Y-9150000D02*
X9900000Y-9200000D01*
X9900000Y-9150000D02*
X9850000Y-9200000D01*
X9850000Y-9600000D02*
X9900000Y-9650000D01*
X9900000Y-9600000D02*
X9850000Y-9650000D01*
X9850000Y-10750000D02*
X9900000Y-10800000D01*
X9900000Y-10750000D02*
X9850000Y-10800000D01*
X9850000Y-11200000D02*
X9900000Y-11250000D01*
X9900000Y-11200000D02*
X9850000Y-11250000D01*
X9850000Y-12350000D02*
X9900000Y-12400000D01*
X9900000Y-12350000D02*
X9850000Y-12400000D01*
X9850000Y-12800000D02*
X9900000Y-12850000D01*
X9900000Y-12800000D02*
X9850000Y-12850000D01*
X9925000Y-4425000D02*
X9975000Y-4475000D01*
X9975000Y-4425000D02*
X9925000Y-4475000D01*
X9925000Y-4725000D02*
X9975000Y-4775000D01*
X9975000Y-4725000D02*
X9925000Y-4775000D01*
X9925000Y-6025000D02*
X9975000Y-6075000D01*
X9975000Y-6025000D02*
X9925000Y-6075000D01*
X9925000Y-6325000D02*
X9975000Y-6375000D01*
X9975000Y-6325000D02*
X9925000Y-6375000D01*
X9925000Y-7625000D02*
X9975000Y-7675000D01*
X9975000Y-7625000D02*
X9925000Y-7675000D01*
X9925000Y-7925000D02*
X9975000Y-7975000D01*
X9975000Y-7925000D02*
X9925000Y-7975000D01*
X9925000Y-9225000D02*
X9975000Y-9275000D01*
X9975000Y-9225000D02*
X9925000Y-9275000D01*
X9925000Y-9525000D02*
X9975000Y-9575000D01*
X9975000Y-9525000D02*
X9925000Y-9575000D01*
X9925000Y-10825000D02*
X9975000Y-10875000D01*
X9975000Y-10825000D02*
X9925000Y-10875000D01*
X9925000Y-11125000D02*
X9975000Y-11175000D01*
X9975000Y-11125000D02*
X9925000Y-11175000D01*
X9925000Y-12425000D02*
X9975000Y-12475000D01*
X9975000Y-12425000D02*
X9925000Y-12475000D01*
X9925000Y-12725000D02*
X9975000Y-12775000D01*
X9975000Y-12725000D02*
X9925000Y-12775000D01*
X10425000Y-4425000D02*
X10475000Y-4475000D01*
X10475000Y-4425000D02*
X10425000Y-4475000D01*
X10425000Y-4725000D02*
X10475000Y-4775000D01*
X10475000Y-4725000D02*
X10425000Y-4775000D01*
X10425000Y-6025000D02*
X10475000Y-6075000D01*
X10475000Y-6025000D02*
X10425000Y-6075000D01*
X10425000Y-6325000D02*
X10475000Y-6375000D01*
X10475000Y-6325000D02*
X10425000Y-6375000D01*
X10425000Y-7625000D02*
X10475000Y-7675000D01*
X10475000Y-7625000D02*
X10425000Y-7675000D01*
X10425000Y-7925000D02*
X10475000Y-7975000D01*
X10475000Y-7925000D02*
X10425000Y-7975000D01*
X10425000Y-9225000D02*
X10475000Y-9275000D01*
X10475000Y-9225000D02*
X10425000Y-9275000D01*
X10425000Y-9525000D02*
X10475000Y-9575000D01*
X10475000Y-9525000D02*
X10425000Y-9575000D01*
X10425000Y-10825000D02*
X10475000Y-10875000D01*
X10475000Y-10825000D02*
X10425000Y-10875000D01*
X10425000Y-11125000D02*
X10475000Y-11175000D01*
X10475000Y-11125000D02*
X10425000Y-11175000D01*
X10425000Y-12425000D02*
X10475000Y-12475000D01*
X10475000Y-12425000D02*
X10425000Y-12475000D01*
X10425000Y-12725000D02*
X10475000Y-12775000D01*
X10475000Y-12725000D02*
X10425000Y-12775000D01*
X10500000Y-4350000D02*
X10550000Y-4400000D01*
X10550000Y-4350000D02*
X10500000Y-4400000D01*
X10500000Y-4800000D02*
X10550000Y-4850000D01*
X10550000Y-4800000D02*
X10500000Y-4850000D01*
X10500000Y-5950000D02*
X10550000Y-6000000D01*
X10550000Y-5950000D02*
X10500000Y-6000000D01*
X10500000Y-6400000D02*
X10550000Y-6450000D01*
X10550000Y-6400000D02*
X10500000Y-6450000D01*
X10500000Y-7550000D02*
X10550000Y-7600000D01*
X10550000Y-7550000D02*
X10500000Y-7600000D01*
X10500000Y-8000000D02*
X10550000Y-8050000D01*
X10550000Y-8000000D02*
X10500000Y-8050000D01*
X10500000Y-9150000D02*
X10550000Y-9200000D01*
X10550000Y-9150000D02*
X10500000Y-9200000D01*
X10500000Y-9600000D02*
X10550000Y-9650000D01*
X10550000Y-9600000D02*
X10500000Y-9650000D01*
X10500000Y-10750000D02*
X10550000Y-10800000D01*
X10550000Y-10750000D02*
X10500000Y-10800000D01*
X10500000Y-11200000D02*
X10550000Y-11250000D01*
X10550000Y-11200000D02*
X10500000Y-11250000D01*
X10500000Y-12350000D02*
X10550000Y-12400000D01*
X10550000Y-12350000D02*
X10500000Y-12400000D01*
X10500000Y-12800000D02*
X10550000Y-12850000D01*
X10550000Y-12800000D02*
X10500000Y-12850000D01*
X10750000Y-4100000D02*
X10800000Y-4150000D01*
X10800000Y-4100000D02*
X10750000Y-4150000D01*
X10750000Y-5050000D02*
X10800000Y-5100000D01*
X10800000Y-5050000D02*
X10750000Y-5100000D01*
X10750000Y-5700000D02*
X10800000Y-5750000D01*
X10800000Y-5700000D02*
X10750000Y-5750000D01*
X10750000Y-6650000D02*
X10800000Y-6700000D01*
X10800000Y-6650000D02*
X10750000Y-6700000D01*
X10750000Y-7300000D02*
X10800000Y-7350000D01*
X10800000Y-7300000D02*
X10750000Y-7350000D01*
X10750000Y-8250000D02*
X10800000Y-8300000D01*
X10800000Y-8250000D02*
X10750000Y-8300000D01*
X10750000Y-8900000D02*
X10800000Y-8950000D01*
X10800000Y-8900000D02*
X10750000Y-8950000D01*
X10750000Y-9850000D02*
X10800000Y-9900000D01*
X10800000Y-9850000D02*
X10750000Y-9900000D01*
X10750000Y-10500000D02*
X10800000Y-10550000D01*
X10800000Y-10500000D02*
X10750000Y-10550000D01*
X10750000Y-11450000D02*
X10800000Y-11500000D01*
X10800000Y-11450000D02*
X10750000Y-11500000D01*
X10750000Y-12100000D02*
X10800000Y-12150000D01*
X10800000Y-12100000D02*
X10750000Y-12150000D01*
X10750000Y-13050000D02*
X10800000Y-13100000D01*
X10800000Y-13050000D02*
X10750000Y-13100000D01*
X10825000Y-4025000D02*
X10875000Y-4075000D01*
X10875000Y-4025000D02*
X10825000Y-4075000D01*
X10825000Y-5125000D02*
X10875000Y-5175000D01*
X10875000Y-5125000D02*
X10825000Y-5175000D01*
X10825000Y-5625000D02*
X10875000Y-5675000D01*
X10875000Y-5625000D02*
X10825000Y-5675000D01*
X10825000Y-6725000D02*
X10875000Y-6775000D01*
X10875000Y-6725000D02*
X10825000Y-6775000D01*
X10825000Y-7225000D02*
X10875000Y-7275000D01*
X10875000Y-7225000D02*
X10825000Y-7275000D01*
X10825000Y-8325000D02*
X10875000Y-8375000D01*
X10875000Y-8325000D02*
X10825000Y-8375000D01*
X10825000Y-8825000D02*
X10875000Y-8875000D01*
X10875000Y-8825000D02*
X10825000Y-8875000D01*
X10825000Y-9925000D02*
X10875000Y-9975000D01*
X10875000Y-9925000D02*
X10825000Y-9975000D01*
X10825000Y-10425000D02*
X10875000Y-10475000D01*
X10875000Y-10425000D02*
X10825000Y-10475000D01*
X10825000Y-11525000D02*
X10875000Y-11575000D01*
X10875000Y-11525000D02*
X10825000Y-11575000D01*
X10825000Y-12025000D02*
X10875000Y-12075000D01*
X10875000Y-12025000D02*
X10825000Y-12075000D01*
X10825000Y-13125000D02*
X10875000Y-13175000D01*
X10875000Y-13125000D02*
X10825000Y-13175000D01*
X11125000Y-4025000D02*
X11175000Y-4075000D01*
X11175000Y-4025000D02*
X11125000Y-4075000D01*
X11125000Y-5125000D02*
X11175000Y-5175000D01*
X11175000Y-5125000D02*
X11125000Y-5175000D01*
X11125000Y-5625000D02*
X11175000Y-5675000D01*
X11175000Y-5625000D02*
X11125000Y-5675000D01*
X11125000Y-6725000D02*
X11175000Y-6775000D01*
X11175000Y-6725000D02*
X11125000Y-6775000D01*
X11125000Y-7225000D02*
X11175000Y-7275000D01*
X11175000Y-7225000D02*
X11125000Y-7275000D01*
X11125000Y-8325000D02*
X11175000Y-8375000D01*
X11175000Y-8325000D02*
X11125000Y-8375000D01*
X11125000Y-8825000D02*
X11175000Y-8875000D01*
X11175000Y-8825000D02*
X11125000Y-8875000D01*
X11125000Y-9925000D02*
X11175000Y-9975000D01*
X11175000Y-9925000D02*
X11125000Y-9975000D01*
X11125000Y-10425000D02*
X11175000Y-10475000D01*
X11175000Y-10425000D02*
X11125000Y-10475000D01*
X11125000Y-11525000D02*
X11175000Y-11575000D01*
X11175000Y-11525000D02*
X11125000Y-11575000D01*
X11125000Y-12025000D02*
X11175000Y-12075000D01*
X11175000Y-12025000D02*
X11125000Y-12075000D01*
X11125000Y-13125000D02*
X11175000Y-13175000D01*
X11175000Y-13125000D02*
X11125000Y-13175000D01*
X11200000Y-4100000D02*
X11250000Y-4150000D01*
X11250000Y-4100000D02*
X11200000Y-4150000D01*
X11200000Y-5050000D02*
X11250000Y-5100000D01*
X11250000Y-5050000D02*
X11200000Y-5100000D01*
X11200000Y-5700000D02*
X11250000Y-5750000D01*
X11250000Y-5700000D02*
X11200000Y-5750000D01*
X11200000Y-6650000D02*
X11250000Y-6700000D01*
X11250000Y-6650000D02*
X11200000Y-6700000D01*
X11200000Y-7300000D02*
X11250000Y-7350000D01*
X11250000Y-7300000D02*
X11200000Y-7350000D01*
X11200000Y-8250000D02*
X11250000Y-8300000D01*
X11250000Y-8250000D02*
X11200000Y-8300000D01*
X11200000Y-8900000D02*
X11250000Y-8950000D01*
X11250000Y-8900000D02*
X11200000Y-8950000D01*
X11200000Y-9850000D02*
X11250000Y-9900000D01*
X11250000Y-9850000D02*
X11200000Y-9900000D01*
X11200000Y-10500000D02*
X11250000Y-10550000D01*
X11250000Y-10500000D02*
X11200000Y-10550000D01*
X11200000Y-11450000D02*
X11250000Y-11500000D01*
X11250000Y-11450000D02*
X11200000Y-11500000D01*
X11200000Y-12100000D02*
X11250000Y-12150000D01*
X11250000Y-12100000D02*
X11200000Y-12150000D01*
X11200000Y-13050000D02*
X11250000Y-13100000D01*
X11250000Y-13050000D02*
X11200000Y-13100000D01*
X11450000Y-12800000D02*
X11500000Y-12850000D01*
X11500000Y-12800000D02*
X11450000Y-12850000D01*
X11450000Y-4350000D02*
X11500000Y-4400000D01*
X11500000Y-4350000D02*
X11450000Y-4400000D01*
X11450000Y-4800000D02*
X11500000Y-4850000D01*
X11500000Y-4800000D02*
X11450000Y-4850000D01*
X11450000Y-5950000D02*
X11500000Y-6000000D01*
X11500000Y-5950000D02*
X11450000Y-6000000D01*
X11450000Y-6400000D02*
X11500000Y-6450000D01*
X11500000Y-6400000D02*
X11450000Y-6450000D01*
X11450000Y-7550000D02*
X11500000Y-7600000D01*
X11500000Y-7550000D02*
X11450000Y-7600000D01*
X11450000Y-8000000D02*
X11500000Y-8050000D01*
X11500000Y-8000000D02*
X11450000Y-8050000D01*
X11450000Y-9150000D02*
X11500000Y-9200000D01*
X11500000Y-9150000D02*
X11450000Y-9200000D01*
X11450000Y-9600000D02*
X11500000Y-9650000D01*
X11500000Y-9600000D02*
X11450000Y-9650000D01*
X11450000Y-10750000D02*
X11500000Y-10800000D01*
X11500000Y-10750000D02*
X11450000Y-10800000D01*
X11450000Y-11200000D02*
X11500000Y-11250000D01*
X11500000Y-11200000D02*
X11450000Y-11250000D01*
X11450000Y-12350000D02*
X11500000Y-12400000D01*
X11500000Y-12350000D02*
X11450000Y-12400000D01*
X11525000Y-12725000D02*
X11575000Y-12775000D01*
X11575000Y-12725000D02*
X11525000Y-12775000D01*
X11525000Y-4425000D02*
X11575000Y-4475000D01*
X11575000Y-4425000D02*
X11525000Y-4475000D01*
X11525000Y-4725000D02*
X11575000Y-4775000D01*
X11575000Y-4725000D02*
X11525000Y-4775000D01*
X11525000Y-6025000D02*
X11575000Y-6075000D01*
X11575000Y-6025000D02*
X11525000Y-6075000D01*
X11525000Y-6325000D02*
X11575000Y-6375000D01*
X11575000Y-6325000D02*
X11525000Y-6375000D01*
X11525000Y-7625000D02*
X11575000Y-7675000D01*
X11575000Y-7625000D02*
X11525000Y-7675000D01*
X11525000Y-7925000D02*
X11575000Y-7975000D01*
X11575000Y-7925000D02*
X11525000Y-7975000D01*
X11525000Y-9225000D02*
X11575000Y-9275000D01*
X11575000Y-9225000D02*
X11525000Y-9275000D01*
X11525000Y-9525000D02*
X11575000Y-9575000D01*
X11575000Y-9525000D02*
X11525000Y-9575000D01*
X11525000Y-10825000D02*
X11575000Y-10875000D01*
X11575000Y-10825000D02*
X11525000Y-10875000D01*
X11525000Y-11125000D02*
X11575000Y-11175000D01*
X11575000Y-11125000D02*
X11525000Y-11175000D01*
X11525000Y-12425000D02*
X11575000Y-12475000D01*
X11575000Y-12425000D02*
X11525000Y-12475000D01*
X12025000Y-12725000D02*
X12075000Y-12775000D01*
X12075000Y-12725000D02*
X12025000Y-12775000D01*
X12025000Y-4425000D02*
X12075000Y-4475000D01*
X12075000Y-4425000D02*
X12025000Y-4475000D01*
X12025000Y-4725000D02*
X12075000Y-4775000D01*
X12075000Y-4725000D02*
X12025000Y-4775000D01*
X12025000Y-6025000D02*
X12075000Y-6075000D01*
X12075000Y-6025000D02*
X12025000Y-6075000D01*
X12025000Y-6325000D02*
X12075000Y-6375000D01*
X12075000Y-6325000D02*
X12025000Y-6375000D01*
X12025000Y-7625000D02*
X12075000Y-7675000D01*
X12075000Y-7625000D02*
X12025000Y-7675000D01*
X12025000Y-7925000D02*
X12075000Y-7975000D01*
X12075000Y-7925000D02*
X12025000Y-7975000D01*
X12025000Y-9225000D02*
X12075000Y-9275000D01*
X12075000Y-9225000D02*
X12025000Y-9275000D01*
X12025000Y-9525000D02*
X12075000Y-9575000D01*
X12075000Y-9525000D02*
X12025000Y-9575000D01*
X12025000Y-10825000D02*
X12075000Y-10875000D01*
X12075000Y-10825000D02*
X12025000Y-10875000D01*
X12025000Y-11125000D02*
X12075000Y-11175000D01*
X12075000Y-11125000D02*
X12025000Y-11175000D01*
X12025000Y-12425000D02*
X12075000Y-12475000D01*
X12075000Y-12425000D02*
X12025000Y-12475000D01*
X12100000Y-12800000D02*
X12150000Y-12850000D01*
X12150000Y-12800000D02*
X12100000Y-12850000D01*
X12100000Y-4350000D02*
X12150000Y-4400000D01*
X12150000Y-4350000D02*
X12100000Y-4400000D01*
X12100000Y-4800000D02*
X12150000Y-4850000D01*
X12150000Y-4800000D02*
X12100000Y-4850000D01*
X12100000Y-5950000D02*
X12150000Y-6000000D01*
X12150000Y-5950000D02*
X12100000Y-6000000D01*
X12100000Y-6400000D02*
X12150000Y-6450000D01*
X12150000Y-6400000D02*
X12100000Y-6450000D01*
X12100000Y-7550000D02*
X12150000Y-7600000D01*
X12150000Y-7550000D02*
X12100000Y-7600000D01*
X12100000Y-8000000D02*
X12150000Y-8050000D01*
X12150000Y-8000000D02*
X12100000Y-8050000D01*
X12100000Y-9150000D02*
X12150000Y-9200000D01*
X12150000Y-9150000D02*
X12100000Y-9200000D01*
X12100000Y-9600000D02*
X12150000Y-9650000D01*
X12150000Y-9600000D02*
X12100000Y-9650000D01*
X12100000Y-10750000D02*
X12150000Y-10800000D01*
X12150000Y-10750000D02*
X12100000Y-10800000D01*
X12100000Y-11200000D02*
X12150000Y-11250000D01*
X12150000Y-11200000D02*
X12100000Y-11250000D01*
X12100000Y-12350000D02*
X12150000Y-12400000D01*
X12150000Y-12350000D02*
X12100000Y-12400000D01*
X12350000Y-4100000D02*
X12400000Y-4150000D01*
X12400000Y-4100000D02*
X12350000Y-4150000D01*
X12350000Y-5050000D02*
X12400000Y-5100000D01*
X12400000Y-5050000D02*
X12350000Y-5100000D01*
X12350000Y-5700000D02*
X12400000Y-5750000D01*
X12400000Y-5700000D02*
X12350000Y-5750000D01*
X12350000Y-6650000D02*
X12400000Y-6700000D01*
X12400000Y-6650000D02*
X12350000Y-6700000D01*
X12350000Y-7300000D02*
X12400000Y-7350000D01*
X12400000Y-7300000D02*
X12350000Y-7350000D01*
X12350000Y-8250000D02*
X12400000Y-8300000D01*
X12400000Y-8250000D02*
X12350000Y-8300000D01*
X12350000Y-8900000D02*
X12400000Y-8950000D01*
X12400000Y-8900000D02*
X12350000Y-8950000D01*
X12350000Y-9850000D02*
X12400000Y-9900000D01*
X12400000Y-9850000D02*
X12350000Y-9900000D01*
X12350000Y-10500000D02*
X12400000Y-10550000D01*
X12400000Y-10500000D02*
X12350000Y-10550000D01*
X12350000Y-11450000D02*
X12400000Y-11500000D01*
X12400000Y-11450000D02*
X12350000Y-11500000D01*
X12350000Y-12100000D02*
X12400000Y-12150000D01*
X12400000Y-12100000D02*
X12350000Y-12150000D01*
X12350000Y-13050000D02*
X12400000Y-13100000D01*
X12400000Y-13050000D02*
X12350000Y-13100000D01*
X12425000Y-4025000D02*
X12475000Y-4075000D01*
X12475000Y-4025000D02*
X12425000Y-4075000D01*
X12425000Y-5125000D02*
X12475000Y-5175000D01*
X12475000Y-5125000D02*
X12425000Y-5175000D01*
X12425000Y-5625000D02*
X12475000Y-5675000D01*
X12475000Y-5625000D02*
X12425000Y-5675000D01*
X12425000Y-6725000D02*
X12475000Y-6775000D01*
X12475000Y-6725000D02*
X12425000Y-6775000D01*
X12425000Y-7225000D02*
X12475000Y-7275000D01*
X12475000Y-7225000D02*
X12425000Y-7275000D01*
X12425000Y-8325000D02*
X12475000Y-8375000D01*
X12475000Y-8325000D02*
X12425000Y-8375000D01*
X12425000Y-8825000D02*
X12475000Y-8875000D01*
X12475000Y-8825000D02*
X12425000Y-8875000D01*
X12425000Y-9925000D02*
X12475000Y-9975000D01*
X12475000Y-9925000D02*
X12425000Y-9975000D01*
X12425000Y-10425000D02*
X12475000Y-10475000D01*
X12475000Y-10425000D02*
X12425000Y-10475000D01*
X12425000Y-11525000D02*
X12475000Y-11575000D01*
X12475000Y-11525000D02*
X12425000Y-11575000D01*
X12425000Y-12025000D02*
X12475000Y-12075000D01*
X12475000Y-12025000D02*
X12425000Y-12075000D01*
X12425000Y-13125000D02*
X12475000Y-13175000D01*
X12475000Y-13125000D02*
X12425000Y-13175000D01*
X12725000Y-4025000D02*
X12775000Y-4075000D01*
X12775000Y-4025000D02*
X12725000Y-4075000D01*
X12725000Y-5125000D02*
X12775000Y-5175000D01*
X12775000Y-5125000D02*
X12725000Y-5175000D01*
X12725000Y-5625000D02*
X12775000Y-5675000D01*
X12775000Y-5625000D02*
X12725000Y-5675000D01*
X12725000Y-6725000D02*
X12775000Y-6775000D01*
X12775000Y-6725000D02*
X12725000Y-6775000D01*
X12725000Y-7225000D02*
X12775000Y-7275000D01*
X12775000Y-7225000D02*
X12725000Y-7275000D01*
X12725000Y-8325000D02*
X12775000Y-8375000D01*
X12775000Y-8325000D02*
X12725000Y-8375000D01*
X12725000Y-8825000D02*
X12775000Y-8875000D01*
X12775000Y-8825000D02*
X12725000Y-8875000D01*
X12725000Y-9925000D02*
X12775000Y-9975000D01*
X12775000Y-9925000D02*
X12725000Y-9975000D01*
X12725000Y-10425000D02*
X12775000Y-10475000D01*
X12775000Y-10425000D02*
X12725000Y-10475000D01*
X12725000Y-11525000D02*
X12775000Y-11575000D01*
X12775000Y-11525000D02*
X12725000Y-11575000D01*
X12725000Y-12025000D02*
X12775000Y-12075000D01*
X12775000Y-12025000D02*
X12725000Y-12075000D01*
X12725000Y-13125000D02*
X12775000Y-13175000D01*
X12775000Y-13125000D02*
X12725000Y-13175000D01*
X12800000Y-4100000D02*
X12850000Y-4150000D01*
X12850000Y-4100000D02*
X12800000Y-4150000D01*
X12800000Y-5050000D02*
X12850000Y-5100000D01*
X12850000Y-5050000D02*
X12800000Y-5100000D01*
X12800000Y-5700000D02*
X12850000Y-5750000D01*
X12850000Y-5700000D02*
X12800000Y-5750000D01*
X12800000Y-6650000D02*
X12850000Y-6700000D01*
X12850000Y-6650000D02*
X12800000Y-6700000D01*
X12800000Y-7300000D02*
X12850000Y-7350000D01*
X12850000Y-7300000D02*
X12800000Y-7350000D01*
X12800000Y-8250000D02*
X12850000Y-8300000D01*
X12850000Y-8250000D02*
X12800000Y-8300000D01*
X12800000Y-8900000D02*
X12850000Y-8950000D01*
X12850000Y-8900000D02*
X12800000Y-8950000D01*
X12800000Y-9850000D02*
X12850000Y-9900000D01*
X12850000Y-9850000D02*
X12800000Y-9900000D01*
X12800000Y-10500000D02*
X12850000Y-10550000D01*
X12850000Y-10500000D02*
X12800000Y-10550000D01*
X12800000Y-11450000D02*
X12850000Y-11500000D01*
X12850000Y-11450000D02*
X12800000Y-11500000D01*
X12800000Y-12100000D02*
X12850000Y-12150000D01*
X12850000Y-12100000D02*
X12800000Y-12150000D01*
X12800000Y-13050000D02*
X12850000Y-13100000D01*
X12850000Y-13050000D02*
X12800000Y-13100000D01*
X13050000Y-4350000D02*
X13100000Y-4400000D01*
X13100000Y-4350000D02*
X13050000Y-4400000D01*
X13050000Y-4800000D02*
X13100000Y-4850000D01*
X13100000Y-4800000D02*
X13050000Y-4850000D01*
X13050000Y-5950000D02*
X13100000Y-6000000D01*
X13100000Y-5950000D02*
X13050000Y-6000000D01*
X13050000Y-6400000D02*
X13100000Y-6450000D01*
X13100000Y-6400000D02*
X13050000Y-6450000D01*
X13050000Y-7550000D02*
X13100000Y-7600000D01*
X13100000Y-7550000D02*
X13050000Y-7600000D01*
X13050000Y-8000000D02*
X13100000Y-8050000D01*
X13100000Y-8000000D02*
X13050000Y-8050000D01*
X13050000Y-9150000D02*
X13100000Y-9200000D01*
X13100000Y-9150000D02*
X13050000Y-9200000D01*
X13050000Y-9600000D02*
X13100000Y-9650000D01*
X13100000Y-9600000D02*
X13050000Y-9650000D01*
X13050000Y-10750000D02*
X13100000Y-10800000D01*
X13100000Y-10750000D02*
X13050000Y-10800000D01*
X13050000Y-11200000D02*
X13100000Y-11250000D01*
X13100000Y-11200000D02*
X13050000Y-11250000D01*
X13050000Y-12350000D02*
X13100000Y-12400000D01*
X13100000Y-12350000D02*
X13050000Y-12400000D01*
X13050000Y-12800000D02*
X13100000Y-12850000D01*
X13100000Y-12800000D02*
X13050000Y-12850000D01*
X13125000Y-4425000D02*
X13175000Y-4475000D01*
X13175000Y-4425000D02*
X13125000Y-4475000D01*
X13125000Y-4725000D02*
X13175000Y-4775000D01*
X13175000Y-4725000D02*
X13125000Y-4775000D01*
X13125000Y-6025000D02*
X13175000Y-6075000D01*
X13175000Y-6025000D02*
X13125000Y-6075000D01*
X13125000Y-6325000D02*
X13175000Y-6375000D01*
X13175000Y-6325000D02*
X13125000Y-6375000D01*
X13125000Y-7625000D02*
X13175000Y-7675000D01*
X13175000Y-7625000D02*
X13125000Y-7675000D01*
X13125000Y-7925000D02*
X13175000Y-7975000D01*
X13175000Y-7925000D02*
X13125000Y-7975000D01*
X13125000Y-9225000D02*
X13175000Y-9275000D01*
X13175000Y-9225000D02*
X13125000Y-9275000D01*
X13125000Y-9525000D02*
X13175000Y-9575000D01*
X13175000Y-9525000D02*
X13125000Y-9575000D01*
X13125000Y-10825000D02*
X13175000Y-10875000D01*
X13175000Y-10825000D02*
X13125000Y-10875000D01*
X13125000Y-11125000D02*
X13175000Y-11175000D01*
X13175000Y-11125000D02*
X13125000Y-11175000D01*
X13125000Y-12425000D02*
X13175000Y-12475000D01*
X13175000Y-12425000D02*
X13125000Y-12475000D01*
X13125000Y-12725000D02*
X13175000Y-12775000D01*
X13175000Y-12725000D02*
X13125000Y-12775000D01*
D11*
X4042619Y-13717524D02*
X4042619Y-13517524D01*
X4042619Y-13517524D02*
X4090238Y-13517524D01*
X4090238Y-13517524D02*
X4118809Y-13527048D01*
X4118809Y-13527048D02*
X4137857Y-13546095D01*
X4137857Y-13546095D02*
X4147381Y-13565143D01*
X4147381Y-13565143D02*
X4156905Y-13603238D01*
X4156905Y-13603238D02*
X4156905Y-13631809D01*
X4156905Y-13631809D02*
X4147381Y-13669905D01*
X4147381Y-13669905D02*
X4137857Y-13688952D01*
X4137857Y-13688952D02*
X4118809Y-13708000D01*
X4118809Y-13708000D02*
X4090238Y-13717524D01*
X4090238Y-13717524D02*
X4042619Y-13717524D01*
X4242619Y-13717524D02*
X4242619Y-13584190D01*
X4242619Y-13622286D02*
X4252143Y-13603238D01*
X4252143Y-13603238D02*
X4261667Y-13593714D01*
X4261667Y-13593714D02*
X4280714Y-13584190D01*
X4280714Y-13584190D02*
X4299762Y-13584190D01*
X4366429Y-13717524D02*
X4366429Y-13584190D01*
X4366429Y-13517524D02*
X4356905Y-13527048D01*
X4356905Y-13527048D02*
X4366429Y-13536571D01*
X4366429Y-13536571D02*
X4375952Y-13527048D01*
X4375952Y-13527048D02*
X4366429Y-13517524D01*
X4366429Y-13517524D02*
X4366429Y-13536571D01*
X4490238Y-13717524D02*
X4471190Y-13708000D01*
X4471190Y-13708000D02*
X4461667Y-13688952D01*
X4461667Y-13688952D02*
X4461667Y-13517524D01*
X4595000Y-13717524D02*
X4575952Y-13708000D01*
X4575952Y-13708000D02*
X4566429Y-13688952D01*
X4566429Y-13688952D02*
X4566429Y-13517524D01*
X4823571Y-13717524D02*
X4823571Y-13517524D01*
X4823571Y-13517524D02*
X4890238Y-13660381D01*
X4890238Y-13660381D02*
X4956905Y-13517524D01*
X4956905Y-13517524D02*
X4956905Y-13717524D01*
X5137857Y-13717524D02*
X5137857Y-13612762D01*
X5137857Y-13612762D02*
X5128333Y-13593714D01*
X5128333Y-13593714D02*
X5109286Y-13584190D01*
X5109286Y-13584190D02*
X5071190Y-13584190D01*
X5071190Y-13584190D02*
X5052143Y-13593714D01*
X5137857Y-13708000D02*
X5118810Y-13717524D01*
X5118810Y-13717524D02*
X5071190Y-13717524D01*
X5071190Y-13717524D02*
X5052143Y-13708000D01*
X5052143Y-13708000D02*
X5042619Y-13688952D01*
X5042619Y-13688952D02*
X5042619Y-13669905D01*
X5042619Y-13669905D02*
X5052143Y-13650857D01*
X5052143Y-13650857D02*
X5071190Y-13641333D01*
X5071190Y-13641333D02*
X5118810Y-13641333D01*
X5118810Y-13641333D02*
X5137857Y-13631809D01*
X5233095Y-13584190D02*
X5233095Y-13784190D01*
X5233095Y-13593714D02*
X5252143Y-13584190D01*
X5252143Y-13584190D02*
X5290238Y-13584190D01*
X5290238Y-13584190D02*
X5309286Y-13593714D01*
X5309286Y-13593714D02*
X5318810Y-13603238D01*
X5318810Y-13603238D02*
X5328333Y-13622286D01*
X5328333Y-13622286D02*
X5328333Y-13679428D01*
X5328333Y-13679428D02*
X5318810Y-13698476D01*
X5318810Y-13698476D02*
X5309286Y-13708000D01*
X5309286Y-13708000D02*
X5290238Y-13717524D01*
X5290238Y-13717524D02*
X5252143Y-13717524D01*
X5252143Y-13717524D02*
X5233095Y-13708000D01*
X5414048Y-13698476D02*
X5423571Y-13708000D01*
X5423571Y-13708000D02*
X5414048Y-13717524D01*
X5414048Y-13717524D02*
X5404524Y-13708000D01*
X5404524Y-13708000D02*
X5414048Y-13698476D01*
X5414048Y-13698476D02*
X5414048Y-13717524D01*
X5414048Y-13593714D02*
X5423571Y-13603238D01*
X5423571Y-13603238D02*
X5414048Y-13612762D01*
X5414048Y-13612762D02*
X5404524Y-13603238D01*
X5404524Y-13603238D02*
X5414048Y-13593714D01*
X5414048Y-13593714D02*
X5414048Y-13612762D01*
D12*
X3745000Y-14020000D02*
X3795000Y-14070000D01*
X3795000Y-14020000D02*
X3745000Y-14070000D01*
D11*
X4080714Y-13937524D02*
X4099762Y-13937524D01*
X4099762Y-13937524D02*
X4118809Y-13947048D01*
X4118809Y-13947048D02*
X4128333Y-13956571D01*
X4128333Y-13956571D02*
X4137857Y-13975619D01*
X4137857Y-13975619D02*
X4147381Y-14013714D01*
X4147381Y-14013714D02*
X4147381Y-14061333D01*
X4147381Y-14061333D02*
X4137857Y-14099428D01*
X4137857Y-14099428D02*
X4128333Y-14118476D01*
X4128333Y-14118476D02*
X4118809Y-14128000D01*
X4118809Y-14128000D02*
X4099762Y-14137524D01*
X4099762Y-14137524D02*
X4080714Y-14137524D01*
X4080714Y-14137524D02*
X4061667Y-14128000D01*
X4061667Y-14128000D02*
X4052143Y-14118476D01*
X4052143Y-14118476D02*
X4042619Y-14099428D01*
X4042619Y-14099428D02*
X4033095Y-14061333D01*
X4033095Y-14061333D02*
X4033095Y-14013714D01*
X4033095Y-14013714D02*
X4042619Y-13975619D01*
X4042619Y-13975619D02*
X4052143Y-13956571D01*
X4052143Y-13956571D02*
X4061667Y-13947048D01*
X4061667Y-13947048D02*
X4080714Y-13937524D01*
X4233095Y-14118476D02*
X4242619Y-14128000D01*
X4242619Y-14128000D02*
X4233095Y-14137524D01*
X4233095Y-14137524D02*
X4223571Y-14128000D01*
X4223571Y-14128000D02*
X4233095Y-14118476D01*
X4233095Y-14118476D02*
X4233095Y-14137524D01*
X4423571Y-13937524D02*
X4328333Y-13937524D01*
X4328333Y-13937524D02*
X4318810Y-14032762D01*
X4318810Y-14032762D02*
X4328333Y-14023238D01*
X4328333Y-14023238D02*
X4347381Y-14013714D01*
X4347381Y-14013714D02*
X4395000Y-14013714D01*
X4395000Y-14013714D02*
X4414048Y-14023238D01*
X4414048Y-14023238D02*
X4423571Y-14032762D01*
X4423571Y-14032762D02*
X4433095Y-14051809D01*
X4433095Y-14051809D02*
X4433095Y-14099428D01*
X4433095Y-14099428D02*
X4423571Y-14118476D01*
X4423571Y-14118476D02*
X4414048Y-14128000D01*
X4414048Y-14128000D02*
X4395000Y-14137524D01*
X4395000Y-14137524D02*
X4347381Y-14137524D01*
X4347381Y-14137524D02*
X4328333Y-14128000D01*
X4328333Y-14128000D02*
X4318810Y-14118476D01*
X4556905Y-13937524D02*
X4575952Y-13937524D01*
X4575952Y-13937524D02*
X4595000Y-13947048D01*
X4595000Y-13947048D02*
X4604524Y-13956571D01*
X4604524Y-13956571D02*
X4614048Y-13975619D01*
X4614048Y-13975619D02*
X4623571Y-14013714D01*
X4623571Y-14013714D02*
X4623571Y-14061333D01*
X4623571Y-14061333D02*
X4614048Y-14099428D01*
X4614048Y-14099428D02*
X4604524Y-14118476D01*
X4604524Y-14118476D02*
X4595000Y-14128000D01*
X4595000Y-14128000D02*
X4575952Y-14137524D01*
X4575952Y-14137524D02*
X4556905Y-14137524D01*
X4556905Y-14137524D02*
X4537857Y-14128000D01*
X4537857Y-14128000D02*
X4528333Y-14118476D01*
X4528333Y-14118476D02*
X4518810Y-14099428D01*
X4518810Y-14099428D02*
X4509286Y-14061333D01*
X4509286Y-14061333D02*
X4509286Y-14013714D01*
X4509286Y-14013714D02*
X4518810Y-13975619D01*
X4518810Y-13975619D02*
X4528333Y-13956571D01*
X4528333Y-13956571D02*
X4537857Y-13947048D01*
X4537857Y-13947048D02*
X4556905Y-13937524D01*
X4747381Y-13937524D02*
X4766429Y-13937524D01*
X4766429Y-13937524D02*
X4785476Y-13947048D01*
X4785476Y-13947048D02*
X4795000Y-13956571D01*
X4795000Y-13956571D02*
X4804524Y-13975619D01*
X4804524Y-13975619D02*
X4814048Y-14013714D01*
X4814048Y-14013714D02*
X4814048Y-14061333D01*
X4814048Y-14061333D02*
X4804524Y-14099428D01*
X4804524Y-14099428D02*
X4795000Y-14118476D01*
X4795000Y-14118476D02*
X4785476Y-14128000D01*
X4785476Y-14128000D02*
X4766429Y-14137524D01*
X4766429Y-14137524D02*
X4747381Y-14137524D01*
X4747381Y-14137524D02*
X4728333Y-14128000D01*
X4728333Y-14128000D02*
X4718810Y-14118476D01*
X4718810Y-14118476D02*
X4709286Y-14099428D01*
X4709286Y-14099428D02*
X4699762Y-14061333D01*
X4699762Y-14061333D02*
X4699762Y-14013714D01*
X4699762Y-14013714D02*
X4709286Y-13975619D01*
X4709286Y-13975619D02*
X4718810Y-13956571D01*
X4718810Y-13956571D02*
X4728333Y-13947048D01*
X4728333Y-13947048D02*
X4747381Y-13937524D01*
X4899762Y-14137524D02*
X4899762Y-14004190D01*
X4899762Y-14023238D02*
X4909286Y-14013714D01*
X4909286Y-14013714D02*
X4928333Y-14004190D01*
X4928333Y-14004190D02*
X4956905Y-14004190D01*
X4956905Y-14004190D02*
X4975952Y-14013714D01*
X4975952Y-14013714D02*
X4985476Y-14032762D01*
X4985476Y-14032762D02*
X4985476Y-14137524D01*
X4985476Y-14032762D02*
X4995000Y-14013714D01*
X4995000Y-14013714D02*
X5014048Y-14004190D01*
X5014048Y-14004190D02*
X5042619Y-14004190D01*
X5042619Y-14004190D02*
X5061667Y-14013714D01*
X5061667Y-14013714D02*
X5071191Y-14032762D01*
X5071191Y-14032762D02*
X5071191Y-14137524D01*
X5166429Y-14137524D02*
X5166429Y-14004190D01*
X5166429Y-14023238D02*
X5175952Y-14013714D01*
X5175952Y-14013714D02*
X5195000Y-14004190D01*
X5195000Y-14004190D02*
X5223572Y-14004190D01*
X5223572Y-14004190D02*
X5242619Y-14013714D01*
X5242619Y-14013714D02*
X5252143Y-14032762D01*
X5252143Y-14032762D02*
X5252143Y-14137524D01*
X5252143Y-14032762D02*
X5261667Y-14013714D01*
X5261667Y-14013714D02*
X5280714Y-14004190D01*
X5280714Y-14004190D02*
X5309286Y-14004190D01*
X5309286Y-14004190D02*
X5328333Y-14013714D01*
X5328333Y-14013714D02*
X5337857Y-14032762D01*
X5337857Y-14032762D02*
X5337857Y-14137524D01*
X5728333Y-13928000D02*
X5556905Y-14185143D01*
X5985476Y-13937524D02*
X6004524Y-13937524D01*
X6004524Y-13937524D02*
X6023572Y-13947048D01*
X6023572Y-13947048D02*
X6033095Y-13956571D01*
X6033095Y-13956571D02*
X6042619Y-13975619D01*
X6042619Y-13975619D02*
X6052143Y-14013714D01*
X6052143Y-14013714D02*
X6052143Y-14061333D01*
X6052143Y-14061333D02*
X6042619Y-14099428D01*
X6042619Y-14099428D02*
X6033095Y-14118476D01*
X6033095Y-14118476D02*
X6023572Y-14128000D01*
X6023572Y-14128000D02*
X6004524Y-14137524D01*
X6004524Y-14137524D02*
X5985476Y-14137524D01*
X5985476Y-14137524D02*
X5966429Y-14128000D01*
X5966429Y-14128000D02*
X5956905Y-14118476D01*
X5956905Y-14118476D02*
X5947381Y-14099428D01*
X5947381Y-14099428D02*
X5937857Y-14061333D01*
X5937857Y-14061333D02*
X5937857Y-14013714D01*
X5937857Y-14013714D02*
X5947381Y-13975619D01*
X5947381Y-13975619D02*
X5956905Y-13956571D01*
X5956905Y-13956571D02*
X5966429Y-13947048D01*
X5966429Y-13947048D02*
X5985476Y-13937524D01*
X6137857Y-14118476D02*
X6147381Y-14128000D01*
X6147381Y-14128000D02*
X6137857Y-14137524D01*
X6137857Y-14137524D02*
X6128333Y-14128000D01*
X6128333Y-14128000D02*
X6137857Y-14118476D01*
X6137857Y-14118476D02*
X6137857Y-14137524D01*
X6271191Y-13937524D02*
X6290238Y-13937524D01*
X6290238Y-13937524D02*
X6309286Y-13947048D01*
X6309286Y-13947048D02*
X6318810Y-13956571D01*
X6318810Y-13956571D02*
X6328333Y-13975619D01*
X6328333Y-13975619D02*
X6337857Y-14013714D01*
X6337857Y-14013714D02*
X6337857Y-14061333D01*
X6337857Y-14061333D02*
X6328333Y-14099428D01*
X6328333Y-14099428D02*
X6318810Y-14118476D01*
X6318810Y-14118476D02*
X6309286Y-14128000D01*
X6309286Y-14128000D02*
X6290238Y-14137524D01*
X6290238Y-14137524D02*
X6271191Y-14137524D01*
X6271191Y-14137524D02*
X6252143Y-14128000D01*
X6252143Y-14128000D02*
X6242619Y-14118476D01*
X6242619Y-14118476D02*
X6233095Y-14099428D01*
X6233095Y-14099428D02*
X6223572Y-14061333D01*
X6223572Y-14061333D02*
X6223572Y-14013714D01*
X6223572Y-14013714D02*
X6233095Y-13975619D01*
X6233095Y-13975619D02*
X6242619Y-13956571D01*
X6242619Y-13956571D02*
X6252143Y-13947048D01*
X6252143Y-13947048D02*
X6271191Y-13937524D01*
X6528333Y-14137524D02*
X6414048Y-14137524D01*
X6471191Y-14137524D02*
X6471191Y-13937524D01*
X6471191Y-13937524D02*
X6452143Y-13966095D01*
X6452143Y-13966095D02*
X6433095Y-13985143D01*
X6433095Y-13985143D02*
X6414048Y-13994667D01*
X6623572Y-14137524D02*
X6661667Y-14137524D01*
X6661667Y-14137524D02*
X6680714Y-14128000D01*
X6680714Y-14128000D02*
X6690238Y-14118476D01*
X6690238Y-14118476D02*
X6709286Y-14089905D01*
X6709286Y-14089905D02*
X6718810Y-14051809D01*
X6718810Y-14051809D02*
X6718810Y-13975619D01*
X6718810Y-13975619D02*
X6709286Y-13956571D01*
X6709286Y-13956571D02*
X6699762Y-13947048D01*
X6699762Y-13947048D02*
X6680714Y-13937524D01*
X6680714Y-13937524D02*
X6642619Y-13937524D01*
X6642619Y-13937524D02*
X6623572Y-13947048D01*
X6623572Y-13947048D02*
X6614048Y-13956571D01*
X6614048Y-13956571D02*
X6604524Y-13975619D01*
X6604524Y-13975619D02*
X6604524Y-14023238D01*
X6604524Y-14023238D02*
X6614048Y-14042286D01*
X6614048Y-14042286D02*
X6623572Y-14051809D01*
X6623572Y-14051809D02*
X6642619Y-14061333D01*
X6642619Y-14061333D02*
X6680714Y-14061333D01*
X6680714Y-14061333D02*
X6699762Y-14051809D01*
X6699762Y-14051809D02*
X6709286Y-14042286D01*
X6709286Y-14042286D02*
X6718810Y-14023238D01*
X6785476Y-13937524D02*
X6918810Y-13937524D01*
X6918810Y-13937524D02*
X6833095Y-14137524D01*
X6985476Y-13937524D02*
X6985476Y-13975619D01*
X7061667Y-13937524D02*
X7061667Y-13975619D01*
X7356905Y-14213714D02*
X7347381Y-14204190D01*
X7347381Y-14204190D02*
X7328334Y-14175619D01*
X7328334Y-14175619D02*
X7318810Y-14156571D01*
X7318810Y-14156571D02*
X7309286Y-14128000D01*
X7309286Y-14128000D02*
X7299762Y-14080381D01*
X7299762Y-14080381D02*
X7299762Y-14042286D01*
X7299762Y-14042286D02*
X7309286Y-13994667D01*
X7309286Y-13994667D02*
X7318810Y-13966095D01*
X7318810Y-13966095D02*
X7328334Y-13947048D01*
X7328334Y-13947048D02*
X7347381Y-13918476D01*
X7347381Y-13918476D02*
X7356905Y-13908952D01*
X7528334Y-13937524D02*
X7433095Y-13937524D01*
X7433095Y-13937524D02*
X7423572Y-14032762D01*
X7423572Y-14032762D02*
X7433095Y-14023238D01*
X7433095Y-14023238D02*
X7452143Y-14013714D01*
X7452143Y-14013714D02*
X7499762Y-14013714D01*
X7499762Y-14013714D02*
X7518810Y-14023238D01*
X7518810Y-14023238D02*
X7528334Y-14032762D01*
X7528334Y-14032762D02*
X7537857Y-14051809D01*
X7537857Y-14051809D02*
X7537857Y-14099428D01*
X7537857Y-14099428D02*
X7528334Y-14118476D01*
X7528334Y-14118476D02*
X7518810Y-14128000D01*
X7518810Y-14128000D02*
X7499762Y-14137524D01*
X7499762Y-14137524D02*
X7452143Y-14137524D01*
X7452143Y-14137524D02*
X7433095Y-14128000D01*
X7433095Y-14128000D02*
X7423572Y-14118476D01*
X7604524Y-13937524D02*
X7737857Y-13937524D01*
X7737857Y-13937524D02*
X7652143Y-14137524D01*
X7899762Y-13937524D02*
X7861667Y-13937524D01*
X7861667Y-13937524D02*
X7842619Y-13947048D01*
X7842619Y-13947048D02*
X7833095Y-13956571D01*
X7833095Y-13956571D02*
X7814048Y-13985143D01*
X7814048Y-13985143D02*
X7804524Y-14023238D01*
X7804524Y-14023238D02*
X7804524Y-14099428D01*
X7804524Y-14099428D02*
X7814048Y-14118476D01*
X7814048Y-14118476D02*
X7823572Y-14128000D01*
X7823572Y-14128000D02*
X7842619Y-14137524D01*
X7842619Y-14137524D02*
X7880715Y-14137524D01*
X7880715Y-14137524D02*
X7899762Y-14128000D01*
X7899762Y-14128000D02*
X7909286Y-14118476D01*
X7909286Y-14118476D02*
X7918810Y-14099428D01*
X7918810Y-14099428D02*
X7918810Y-14051809D01*
X7918810Y-14051809D02*
X7909286Y-14032762D01*
X7909286Y-14032762D02*
X7899762Y-14023238D01*
X7899762Y-14023238D02*
X7880715Y-14013714D01*
X7880715Y-14013714D02*
X7842619Y-14013714D01*
X7842619Y-14013714D02*
X7823572Y-14023238D01*
X7823572Y-14023238D02*
X7814048Y-14032762D01*
X7814048Y-14032762D02*
X7804524Y-14051809D01*
X8156905Y-14137524D02*
X8156905Y-13937524D01*
X8242619Y-14137524D02*
X8242619Y-14032762D01*
X8242619Y-14032762D02*
X8233096Y-14013714D01*
X8233096Y-14013714D02*
X8214048Y-14004190D01*
X8214048Y-14004190D02*
X8185476Y-14004190D01*
X8185476Y-14004190D02*
X8166429Y-14013714D01*
X8166429Y-14013714D02*
X8156905Y-14023238D01*
X8366429Y-14137524D02*
X8347381Y-14128000D01*
X8347381Y-14128000D02*
X8337857Y-14118476D01*
X8337857Y-14118476D02*
X8328334Y-14099428D01*
X8328334Y-14099428D02*
X8328334Y-14042286D01*
X8328334Y-14042286D02*
X8337857Y-14023238D01*
X8337857Y-14023238D02*
X8347381Y-14013714D01*
X8347381Y-14013714D02*
X8366429Y-14004190D01*
X8366429Y-14004190D02*
X8395000Y-14004190D01*
X8395000Y-14004190D02*
X8414048Y-14013714D01*
X8414048Y-14013714D02*
X8423572Y-14023238D01*
X8423572Y-14023238D02*
X8433096Y-14042286D01*
X8433096Y-14042286D02*
X8433096Y-14099428D01*
X8433096Y-14099428D02*
X8423572Y-14118476D01*
X8423572Y-14118476D02*
X8414048Y-14128000D01*
X8414048Y-14128000D02*
X8395000Y-14137524D01*
X8395000Y-14137524D02*
X8366429Y-14137524D01*
X8547381Y-14137524D02*
X8528334Y-14128000D01*
X8528334Y-14128000D02*
X8518810Y-14108952D01*
X8518810Y-14108952D02*
X8518810Y-13937524D01*
X8699762Y-14128000D02*
X8680715Y-14137524D01*
X8680715Y-14137524D02*
X8642619Y-14137524D01*
X8642619Y-14137524D02*
X8623572Y-14128000D01*
X8623572Y-14128000D02*
X8614048Y-14108952D01*
X8614048Y-14108952D02*
X8614048Y-14032762D01*
X8614048Y-14032762D02*
X8623572Y-14013714D01*
X8623572Y-14013714D02*
X8642619Y-14004190D01*
X8642619Y-14004190D02*
X8680715Y-14004190D01*
X8680715Y-14004190D02*
X8699762Y-14013714D01*
X8699762Y-14013714D02*
X8709286Y-14032762D01*
X8709286Y-14032762D02*
X8709286Y-14051809D01*
X8709286Y-14051809D02*
X8614048Y-14070857D01*
X8785477Y-14128000D02*
X8804524Y-14137524D01*
X8804524Y-14137524D02*
X8842619Y-14137524D01*
X8842619Y-14137524D02*
X8861667Y-14128000D01*
X8861667Y-14128000D02*
X8871191Y-14108952D01*
X8871191Y-14108952D02*
X8871191Y-14099428D01*
X8871191Y-14099428D02*
X8861667Y-14080381D01*
X8861667Y-14080381D02*
X8842619Y-14070857D01*
X8842619Y-14070857D02*
X8814048Y-14070857D01*
X8814048Y-14070857D02*
X8795000Y-14061333D01*
X8795000Y-14061333D02*
X8785477Y-14042286D01*
X8785477Y-14042286D02*
X8785477Y-14032762D01*
X8785477Y-14032762D02*
X8795000Y-14013714D01*
X8795000Y-14013714D02*
X8814048Y-14004190D01*
X8814048Y-14004190D02*
X8842619Y-14004190D01*
X8842619Y-14004190D02*
X8861667Y-14013714D01*
X8937858Y-14213714D02*
X8947381Y-14204190D01*
X8947381Y-14204190D02*
X8966429Y-14175619D01*
X8966429Y-14175619D02*
X8975953Y-14156571D01*
X8975953Y-14156571D02*
X8985477Y-14128000D01*
X8985477Y-14128000D02*
X8995000Y-14080381D01*
X8995000Y-14080381D02*
X8995000Y-14042286D01*
X8995000Y-14042286D02*
X8985477Y-13994667D01*
X8985477Y-13994667D02*
X8975953Y-13966095D01*
X8975953Y-13966095D02*
X8966429Y-13947048D01*
X8966429Y-13947048D02*
X8947381Y-13918476D01*
X8947381Y-13918476D02*
X8937858Y-13908952D01*
X9299762Y-14213714D02*
X9290239Y-14204190D01*
X9290239Y-14204190D02*
X9271191Y-14175619D01*
X9271191Y-14175619D02*
X9261667Y-14156571D01*
X9261667Y-14156571D02*
X9252143Y-14128000D01*
X9252143Y-14128000D02*
X9242620Y-14080381D01*
X9242620Y-14080381D02*
X9242620Y-14042286D01*
X9242620Y-14042286D02*
X9252143Y-13994667D01*
X9252143Y-13994667D02*
X9261667Y-13966095D01*
X9261667Y-13966095D02*
X9271191Y-13947048D01*
X9271191Y-13947048D02*
X9290239Y-13918476D01*
X9290239Y-13918476D02*
X9299762Y-13908952D01*
X9375953Y-14004190D02*
X9375953Y-14137524D01*
X9375953Y-14023238D02*
X9385477Y-14013714D01*
X9385477Y-14013714D02*
X9404524Y-14004190D01*
X9404524Y-14004190D02*
X9433096Y-14004190D01*
X9433096Y-14004190D02*
X9452143Y-14013714D01*
X9452143Y-14013714D02*
X9461667Y-14032762D01*
X9461667Y-14032762D02*
X9461667Y-14137524D01*
X9585477Y-14137524D02*
X9566429Y-14128000D01*
X9566429Y-14128000D02*
X9556905Y-14118476D01*
X9556905Y-14118476D02*
X9547381Y-14099428D01*
X9547381Y-14099428D02*
X9547381Y-14042286D01*
X9547381Y-14042286D02*
X9556905Y-14023238D01*
X9556905Y-14023238D02*
X9566429Y-14013714D01*
X9566429Y-14013714D02*
X9585477Y-14004190D01*
X9585477Y-14004190D02*
X9614048Y-14004190D01*
X9614048Y-14004190D02*
X9633096Y-14013714D01*
X9633096Y-14013714D02*
X9642620Y-14023238D01*
X9642620Y-14023238D02*
X9652143Y-14042286D01*
X9652143Y-14042286D02*
X9652143Y-14099428D01*
X9652143Y-14099428D02*
X9642620Y-14118476D01*
X9642620Y-14118476D02*
X9633096Y-14128000D01*
X9633096Y-14128000D02*
X9614048Y-14137524D01*
X9614048Y-14137524D02*
X9585477Y-14137524D01*
X9709286Y-14004190D02*
X9785477Y-14004190D01*
X9737858Y-13937524D02*
X9737858Y-14108952D01*
X9737858Y-14108952D02*
X9747381Y-14128000D01*
X9747381Y-14128000D02*
X9766429Y-14137524D01*
X9766429Y-14137524D02*
X9785477Y-14137524D01*
X10004524Y-14004190D02*
X10004524Y-14204190D01*
X10004524Y-14013714D02*
X10023572Y-14004190D01*
X10023572Y-14004190D02*
X10061667Y-14004190D01*
X10061667Y-14004190D02*
X10080715Y-14013714D01*
X10080715Y-14013714D02*
X10090239Y-14023238D01*
X10090239Y-14023238D02*
X10099762Y-14042286D01*
X10099762Y-14042286D02*
X10099762Y-14099428D01*
X10099762Y-14099428D02*
X10090239Y-14118476D01*
X10090239Y-14118476D02*
X10080715Y-14128000D01*
X10080715Y-14128000D02*
X10061667Y-14137524D01*
X10061667Y-14137524D02*
X10023572Y-14137524D01*
X10023572Y-14137524D02*
X10004524Y-14128000D01*
X10214048Y-14137524D02*
X10195001Y-14128000D01*
X10195001Y-14128000D02*
X10185477Y-14108952D01*
X10185477Y-14108952D02*
X10185477Y-13937524D01*
X10375953Y-14137524D02*
X10375953Y-14032762D01*
X10375953Y-14032762D02*
X10366429Y-14013714D01*
X10366429Y-14013714D02*
X10347382Y-14004190D01*
X10347382Y-14004190D02*
X10309286Y-14004190D01*
X10309286Y-14004190D02*
X10290239Y-14013714D01*
X10375953Y-14128000D02*
X10356905Y-14137524D01*
X10356905Y-14137524D02*
X10309286Y-14137524D01*
X10309286Y-14137524D02*
X10290239Y-14128000D01*
X10290239Y-14128000D02*
X10280715Y-14108952D01*
X10280715Y-14108952D02*
X10280715Y-14089905D01*
X10280715Y-14089905D02*
X10290239Y-14070857D01*
X10290239Y-14070857D02*
X10309286Y-14061333D01*
X10309286Y-14061333D02*
X10356905Y-14061333D01*
X10356905Y-14061333D02*
X10375953Y-14051809D01*
X10442620Y-14004190D02*
X10518810Y-14004190D01*
X10471191Y-13937524D02*
X10471191Y-14108952D01*
X10471191Y-14108952D02*
X10480715Y-14128000D01*
X10480715Y-14128000D02*
X10499762Y-14137524D01*
X10499762Y-14137524D02*
X10518810Y-14137524D01*
X10661667Y-14128000D02*
X10642620Y-14137524D01*
X10642620Y-14137524D02*
X10604524Y-14137524D01*
X10604524Y-14137524D02*
X10585477Y-14128000D01*
X10585477Y-14128000D02*
X10575953Y-14108952D01*
X10575953Y-14108952D02*
X10575953Y-14032762D01*
X10575953Y-14032762D02*
X10585477Y-14013714D01*
X10585477Y-14013714D02*
X10604524Y-14004190D01*
X10604524Y-14004190D02*
X10642620Y-14004190D01*
X10642620Y-14004190D02*
X10661667Y-14013714D01*
X10661667Y-14013714D02*
X10671191Y-14032762D01*
X10671191Y-14032762D02*
X10671191Y-14051809D01*
X10671191Y-14051809D02*
X10575953Y-14070857D01*
X10842620Y-14137524D02*
X10842620Y-13937524D01*
X10842620Y-14128000D02*
X10823572Y-14137524D01*
X10823572Y-14137524D02*
X10785477Y-14137524D01*
X10785477Y-14137524D02*
X10766429Y-14128000D01*
X10766429Y-14128000D02*
X10756905Y-14118476D01*
X10756905Y-14118476D02*
X10747382Y-14099428D01*
X10747382Y-14099428D02*
X10747382Y-14042286D01*
X10747382Y-14042286D02*
X10756905Y-14023238D01*
X10756905Y-14023238D02*
X10766429Y-14013714D01*
X10766429Y-14013714D02*
X10785477Y-14004190D01*
X10785477Y-14004190D02*
X10823572Y-14004190D01*
X10823572Y-14004190D02*
X10842620Y-14013714D01*
X10918810Y-14213714D02*
X10928334Y-14204190D01*
X10928334Y-14204190D02*
X10947382Y-14175619D01*
X10947382Y-14175619D02*
X10956905Y-14156571D01*
X10956905Y-14156571D02*
X10966429Y-14128000D01*
X10966429Y-14128000D02*
X10975953Y-14080381D01*
X10975953Y-14080381D02*
X10975953Y-14042286D01*
X10975953Y-14042286D02*
X10966429Y-13994667D01*
X10966429Y-13994667D02*
X10956905Y-13966095D01*
X10956905Y-13966095D02*
X10947382Y-13947048D01*
X10947382Y-13947048D02*
X10928334Y-13918476D01*
X10928334Y-13918476D02*
X10918810Y-13908952D01*
M02*
