G04 #@! TF.GenerationSoftware,KiCad,Pcbnew,7.0.2*
G04 #@! TF.CreationDate,2023-11-05T16:37:17-05:00*
G04 #@! TF.ProjectId,PokerTips,506f6b65-7254-4697-9073-2e6b69636164,rev?*
G04 #@! TF.SameCoordinates,Original*
G04 #@! TF.FileFunction,Profile,NP*
%FSLAX46Y46*%
G04 Gerber Fmt 4.6, Leading zero omitted, Abs format (unit mm)*
G04 Created by KiCad (PCBNEW 7.0.2) date 2023-11-05 16:37:17*
%MOMM*%
%LPD*%
G01*
G04 APERTURE LIST*
G04 #@! TA.AperFunction,Profile*
%ADD10C,0.100000*%
G04 #@! TD*
G04 APERTURE END LIST*
D10*
X63000000Y-56000000D02*
X63000000Y-52000000D01*
X77000000Y-56000000D02*
X77000000Y-52000000D01*
X102000000Y-103400000D02*
X106542893Y-107957107D01*
X126000000Y-115000000D02*
G75*
G03*
X125000000Y-115999999I0J-1000000D01*
G01*
X119400000Y-102000000D02*
X123957107Y-106542893D01*
X52600000Y-38000000D02*
X47000000Y-38000000D01*
X103400000Y-70000000D02*
X107957107Y-65457107D01*
X129457107Y-80042893D02*
G75*
G03*
X128042893Y-81457107I-707107J-707107D01*
G01*
X96042893Y-42542893D02*
G75*
G03*
X97457107Y-43957107I707107J-707107D01*
G01*
X71400000Y-102000000D02*
X75957107Y-97457107D01*
X45000000Y-40000000D02*
X45000000Y-38000000D01*
X58542893Y-75957107D02*
G75*
G03*
X59957107Y-74542893I707107J707107D01*
G01*
X111000000Y-72000000D02*
X111000000Y-68000000D01*
X52000000Y-109000000D02*
X56000000Y-109000000D01*
X65457107Y-80042893D02*
G75*
G03*
X64042893Y-81457107I-707107J-707107D01*
G01*
X134000000Y-63000000D02*
X134000000Y-68600000D01*
X87999999Y-127000000D02*
G75*
G03*
X89000000Y-126000000I1J1000000D01*
G01*
X74542893Y-91957107D02*
G75*
G03*
X75957107Y-90542893I707107J707107D01*
G01*
X134000000Y-127000000D02*
X134000000Y-132600000D01*
X125000000Y-72000000D02*
X125000000Y-68000000D01*
X134000000Y-68600000D02*
X129457107Y-64042892D01*
X134000000Y-127000000D02*
X132000000Y-127000000D01*
X70000000Y-119400000D02*
X65457107Y-123957107D01*
X111000000Y-100000000D02*
G75*
G03*
X109000000Y-100000000I-1000000J0D01*
G01*
X100000000Y-93000000D02*
X104000000Y-93000000D01*
X102000000Y-52600000D02*
X106542893Y-48042893D01*
X118000000Y-103400000D02*
X122542893Y-107957107D01*
X68000000Y-45000000D02*
X72000000Y-45000000D01*
X71400000Y-70000000D02*
X75957107Y-65457107D01*
X45000000Y-120000000D02*
X45000000Y-116000000D01*
X48042893Y-122542893D02*
G75*
G03*
X49457107Y-123957107I707107J-707107D01*
G01*
X49457107Y-128042893D02*
G75*
G03*
X48042893Y-129457107I-707107J-707107D01*
G01*
X104000000Y-111000000D02*
G75*
G03*
X104000000Y-109000000I0J1000000D01*
G01*
X38000000Y-103400000D02*
X42542893Y-107957107D01*
X48042893Y-106542893D02*
G75*
G03*
X49457107Y-107957107I707107J-707107D01*
G01*
X52000000Y-79000000D02*
X56000000Y-79000000D01*
X80042893Y-74542893D02*
G75*
G03*
X81457107Y-75957107I707107J-707107D01*
G01*
X71400000Y-118000000D02*
X75957107Y-122542893D01*
X118000000Y-68600000D02*
X113457107Y-64042893D01*
X86000000Y-103400000D02*
X90542893Y-107957107D01*
X83000000Y-126000000D02*
G75*
G03*
X84000000Y-127000000I1000000J0D01*
G01*
X93000000Y-120000000D02*
X93000000Y-116000000D01*
X119999999Y-127000000D02*
G75*
G03*
X121000000Y-126000000I1J1000000D01*
G01*
X132600000Y-102000000D02*
X128042893Y-97457107D01*
X86000000Y-116600000D02*
X90542893Y-112042893D01*
X119400000Y-54000000D02*
X123957107Y-49457107D01*
X54000000Y-116600000D02*
X58542893Y-112042893D01*
X123957107Y-97457107D02*
G75*
G03*
X122542893Y-96042893I-707107J707107D01*
G01*
X128042893Y-74542893D02*
G75*
G03*
X129457107Y-75957107I707107J-707107D01*
G01*
X113457107Y-112042893D02*
G75*
G03*
X112042893Y-113457107I-707107J-707107D01*
G01*
X68000000Y-125000000D02*
G75*
G03*
X67000000Y-126000000I0J-1000000D01*
G01*
X93000000Y-40000000D02*
G75*
G03*
X95000000Y-40000000I1000000J0D01*
G01*
X54000000Y-84600000D02*
X58542893Y-80042893D01*
X86000000Y-84600000D02*
X81457107Y-80042893D01*
X118000000Y-68600000D02*
X122542893Y-64042893D01*
X113457107Y-96042893D02*
G75*
G03*
X112042893Y-97457107I-707107J-707107D01*
G01*
X38000000Y-39400000D02*
X42542893Y-43957107D01*
X38000000Y-84600000D02*
X42542893Y-80042893D01*
X68600000Y-102000000D02*
X64042893Y-97457107D01*
X68000000Y-111000000D02*
X72000000Y-111000000D01*
X43957107Y-49457107D02*
G75*
G03*
X42542893Y-48042893I-707107J707107D01*
G01*
X132600000Y-70000000D02*
X128042893Y-74542893D01*
X55400000Y-86000000D02*
X59957107Y-90542893D01*
X125000000Y-72000000D02*
G75*
G03*
X126000000Y-73000000I1000000J0D01*
G01*
X72000000Y-127000000D02*
X68000000Y-127000000D01*
X77000000Y-40000000D02*
G75*
G03*
X79000000Y-40000000I1000000J0D01*
G01*
X59957107Y-81457107D02*
G75*
G03*
X58542893Y-80042893I-707107J707107D01*
G01*
X109000000Y-104000000D02*
G75*
G03*
X111000000Y-104000000I1000000J0D01*
G01*
X132600000Y-86000000D02*
X128042893Y-81457107D01*
X52600000Y-86000000D02*
X48042893Y-81457107D01*
X93000000Y-132000000D02*
X93000000Y-134000000D01*
X58542893Y-107957107D02*
G75*
G03*
X59957107Y-106542893I707107J707107D01*
G01*
X134000000Y-55400000D02*
X134000000Y-61000000D01*
X116600000Y-38000000D02*
X111000000Y-38000000D01*
X118000000Y-39400000D02*
X113457107Y-43957107D01*
X103400000Y-102000000D02*
X107957107Y-106542893D01*
X86000000Y-68600000D02*
X81457107Y-64042893D01*
X54000000Y-100600000D02*
X49457107Y-96042893D01*
X116000000Y-47000000D02*
X120000000Y-47000000D01*
X88000000Y-111000000D02*
G75*
G03*
X88000000Y-109000000I0J1000000D01*
G01*
X116000000Y-125000000D02*
G75*
G03*
X115000000Y-126000000I0J-1000000D01*
G01*
X119400000Y-86000000D02*
X123957107Y-90542893D01*
X132600000Y-118000000D02*
X128042893Y-113457107D01*
X52000000Y-125000000D02*
X56000000Y-125000000D01*
X120000000Y-63000000D02*
G75*
G03*
X120000000Y-61000000I0J1000000D01*
G01*
X84000000Y-63000000D02*
X88000000Y-63000000D01*
X116600000Y-70000000D02*
X112042893Y-74542893D01*
X65457107Y-112042893D02*
G75*
G03*
X64042893Y-113457107I-707107J-707107D01*
G01*
X49457107Y-112042893D02*
G75*
G03*
X48042893Y-113457107I-707107J-707107D01*
G01*
X52000000Y-61000000D02*
G75*
G03*
X52000000Y-63000000I0J-1000000D01*
G01*
X118000000Y-116600000D02*
X122542893Y-112042893D01*
X45000000Y-40000000D02*
G75*
G03*
X47000000Y-40000000I1000000J0D01*
G01*
X86000000Y-132600000D02*
X81457107Y-128042893D01*
X47000000Y-84000000D02*
G75*
G03*
X45000000Y-84000000I-1000000J0D01*
G01*
X84600000Y-134000000D02*
X80042893Y-129457107D01*
X71400000Y-118000000D02*
X75957107Y-113457107D01*
X55400000Y-118000000D02*
X59957107Y-113457107D01*
X99000000Y-126000000D02*
G75*
G03*
X100000000Y-127000000I1000000J0D01*
G01*
X64042893Y-90542893D02*
G75*
G03*
X65457107Y-91957107I707107J-707107D01*
G01*
X84000000Y-125000000D02*
X88000000Y-125000000D01*
X102000000Y-119400000D02*
X97457107Y-123957107D01*
X39400000Y-70000000D02*
X43957107Y-74542893D01*
X68600000Y-102000000D02*
X64042893Y-106542893D01*
X38000000Y-71400000D02*
X42542893Y-75957107D01*
X132600000Y-38000000D02*
X128042893Y-42542893D01*
X43957107Y-113457107D02*
G75*
G03*
X42542893Y-112042893I-707107J707107D01*
G01*
X68600000Y-54000000D02*
X64042893Y-58542893D01*
X107957107Y-113457107D02*
G75*
G03*
X106542893Y-112042893I-707107J707107D01*
G01*
X86000000Y-100600000D02*
X81457107Y-96042893D01*
X103400000Y-70000000D02*
X107957107Y-74542893D01*
X49457107Y-64042893D02*
G75*
G03*
X48042893Y-65457107I-707107J-707107D01*
G01*
X86000000Y-71400000D02*
X90542893Y-75957107D01*
X70000000Y-116600000D02*
X74542893Y-112042893D01*
X127000000Y-84000000D02*
G75*
G03*
X126000000Y-83000000I-1000000J0D01*
G01*
X84600000Y-118000000D02*
X80042893Y-113457107D01*
X116000000Y-93000000D02*
X120000000Y-93000000D01*
X118000000Y-100600000D02*
X113457107Y-96042893D01*
X86000000Y-132600000D02*
X90542893Y-128042893D01*
X134000000Y-95000000D02*
X134000000Y-100600000D01*
X95000000Y-52000000D02*
G75*
G03*
X93000000Y-52000000I-1000000J0D01*
G01*
X68600000Y-54000000D02*
X64042893Y-49457107D01*
X39400000Y-86000000D02*
X43957107Y-81457107D01*
X54000000Y-116600000D02*
X49457107Y-112042893D01*
X134000000Y-109000000D02*
X132000000Y-109000000D01*
X70000000Y-55400000D02*
X74542893Y-59957107D01*
X54000000Y-132600000D02*
X58542893Y-128042893D01*
X95000000Y-56000000D02*
X95000000Y-52000000D01*
X119400000Y-86000000D02*
X123957107Y-81457107D01*
X86000000Y-119400000D02*
X90542893Y-123957107D01*
X79000000Y-88000000D02*
X79000000Y-84000000D01*
X70000000Y-84600000D02*
X65457107Y-80042893D01*
X103400000Y-134000000D02*
X107957107Y-129457107D01*
X70000000Y-132600000D02*
X65457107Y-128042893D01*
X68000000Y-93000000D02*
G75*
G03*
X68000000Y-95000000I0J-1000000D01*
G01*
X134000000Y-93000000D02*
X132000000Y-93000000D01*
X113457107Y-80042893D02*
G75*
G03*
X112042893Y-81457107I-707107J-707107D01*
G01*
X38000000Y-79000000D02*
X40000000Y-79000000D01*
X134000000Y-45000000D02*
X132000000Y-45000000D01*
X116000000Y-77000000D02*
X120000000Y-77000000D01*
X132600000Y-70000000D02*
X128042893Y-65457107D01*
X75957107Y-97457107D02*
G75*
G03*
X74542893Y-96042893I-707107J707107D01*
G01*
X118000000Y-100600000D02*
X122542893Y-96042893D01*
X52000000Y-93000000D02*
X56000000Y-93000000D01*
X100600000Y-38000000D02*
X95000000Y-38000000D01*
X48042893Y-58542893D02*
G75*
G03*
X49457107Y-59957107I707107J-707107D01*
G01*
X75957107Y-113457107D02*
G75*
G03*
X74542893Y-112042893I-707107J707107D01*
G01*
X116600000Y-86000000D02*
X112042893Y-81457107D01*
X87400000Y-38000000D02*
X91957107Y-42542893D01*
X125000000Y-56000001D02*
G75*
G03*
X126000000Y-57000000I1000000J1D01*
G01*
X52600000Y-118000000D02*
X48042893Y-122542893D01*
X54000000Y-103400000D02*
X49457107Y-107957107D01*
X132600000Y-54000000D02*
X128042893Y-58542893D01*
X52000000Y-45000000D02*
G75*
G03*
X52000000Y-47000000I0J-1000000D01*
G01*
X38000000Y-116600000D02*
X42542893Y-112042893D01*
X120000000Y-111000000D02*
G75*
G03*
X120000000Y-109000000I0J1000000D01*
G01*
X104000000Y-127000000D02*
X100000000Y-127000000D01*
X77000000Y-88000000D02*
G75*
G03*
X79000000Y-88000000I1000000J0D01*
G01*
X64042893Y-74542893D02*
G75*
G03*
X65457107Y-75957107I707107J-707107D01*
G01*
X84600000Y-86000000D02*
X80042893Y-81457107D01*
X47000000Y-56000000D02*
X47000000Y-52000000D01*
X79000000Y-116000000D02*
G75*
G03*
X77000000Y-116000000I-1000000J0D01*
G01*
X68000000Y-109000000D02*
G75*
G03*
X68000000Y-111000000I0J-1000000D01*
G01*
X100000000Y-63000000D02*
X104000000Y-63000000D01*
X134000000Y-52600000D02*
X129457107Y-48042893D01*
X45000000Y-134000000D02*
X39400000Y-134000000D01*
X68600000Y-86000000D02*
X64042893Y-81457107D01*
X61000000Y-104000000D02*
X61000000Y-100000000D01*
X77000000Y-134000000D02*
X71400000Y-134000000D01*
X125000000Y-104000000D02*
X125000000Y-100000000D01*
X52000000Y-47000000D02*
X56000000Y-47000000D01*
X125000000Y-88000001D02*
G75*
G03*
X126000000Y-89000000I1000000J1D01*
G01*
X38000000Y-68600000D02*
X42542893Y-64042893D01*
X79000000Y-120000000D02*
X79000000Y-116000000D01*
X134000000Y-119400000D02*
X134000000Y-125000000D01*
X55400000Y-38000000D02*
X59957107Y-42542893D01*
X59957107Y-129457106D02*
G75*
G03*
X58542893Y-128042893I-707107J707106D01*
G01*
X81457107Y-128042893D02*
G75*
G03*
X80042893Y-129457107I-707107J-707107D01*
G01*
X134000000Y-119400000D02*
X129457107Y-123957106D01*
X52600000Y-134000000D02*
X48042893Y-129457107D01*
X87400000Y-86000000D02*
X91957107Y-81457107D01*
X109000000Y-120000000D02*
G75*
G03*
X111000000Y-120000000I1000000J0D01*
G01*
X47000000Y-40000000D02*
X47000000Y-38000000D01*
X93000000Y-88000000D02*
X93000000Y-84000000D01*
X134000000Y-71400000D02*
X134000000Y-77000000D01*
X84000000Y-95000000D02*
X88000000Y-95000000D01*
X102000000Y-68600000D02*
X106542893Y-64042893D01*
X38000000Y-55400000D02*
X42542893Y-59957107D01*
X71400000Y-134000000D02*
X75957107Y-129457107D01*
X93000000Y-56000000D02*
G75*
G03*
X95000000Y-56000000I1000000J0D01*
G01*
X65457107Y-64042893D02*
G75*
G03*
X64042893Y-65457107I-707107J-707107D01*
G01*
X42542893Y-59957107D02*
G75*
G03*
X43957107Y-58542893I707107J707107D01*
G01*
X74542893Y-75957107D02*
G75*
G03*
X75957107Y-74542893I707107J707107D01*
G01*
X75957107Y-65457107D02*
G75*
G03*
X74542893Y-64042893I-707107J707107D01*
G01*
X68600000Y-38000000D02*
X63000000Y-38000000D01*
X45000000Y-72000000D02*
X45000000Y-68000000D01*
X84000000Y-79000000D02*
X88000000Y-79000000D01*
X38000000Y-100600000D02*
X38000000Y-95000000D01*
X90542893Y-91957107D02*
G75*
G03*
X91957107Y-90542893I707107J707107D01*
G01*
X118000000Y-84600000D02*
X122542893Y-80042893D01*
X68000000Y-93000000D02*
X72000000Y-93000000D01*
X52000000Y-63000000D02*
X56000000Y-63000000D01*
X63000000Y-68000000D02*
G75*
G03*
X61000000Y-68000000I-1000000J0D01*
G01*
X70000000Y-71400000D02*
X65457107Y-75957107D01*
X129457107Y-48042893D02*
G75*
G03*
X128042893Y-49457107I-707107J-707107D01*
G01*
X86000000Y-103400000D02*
X81457107Y-107957107D01*
X126000000Y-83000000D02*
G75*
G03*
X125000000Y-83999999I0J-1000000D01*
G01*
X102000000Y-87400000D02*
X106542893Y-91957107D01*
X96042893Y-58542893D02*
G75*
G03*
X97457107Y-59957107I707107J-707107D01*
G01*
X39400000Y-134000000D02*
X43957107Y-129457107D01*
X134000000Y-103400000D02*
X129457107Y-107957107D01*
X57000000Y-126000000D02*
G75*
G03*
X56000000Y-125000000I-1000000J0D01*
G01*
X97457107Y-112042893D02*
G75*
G03*
X96042893Y-113457107I-707107J-707107D01*
G01*
X45000000Y-88000000D02*
G75*
G03*
X47000000Y-88000000I1000000J0D01*
G01*
X52000000Y-125000000D02*
G75*
G03*
X51000000Y-126000000I0J-1000000D01*
G01*
X52600000Y-54000000D02*
X48042893Y-49457107D01*
X52000000Y-77000000D02*
G75*
G03*
X52000000Y-79000000I0J-1000000D01*
G01*
X38000000Y-52600000D02*
X38000000Y-47000000D01*
X61000000Y-132000000D02*
X61000000Y-134000000D01*
X134000000Y-39400000D02*
X134000000Y-45000000D01*
X79000000Y-132000000D02*
G75*
G03*
X77000000Y-132000000I-1000000J1D01*
G01*
X52600000Y-102000000D02*
X48042893Y-97457107D01*
X58542893Y-43957107D02*
G75*
G03*
X59957107Y-42542893I707107J707107D01*
G01*
X120000000Y-79000000D02*
G75*
G03*
X120000000Y-77000000I0J1000000D01*
G01*
X56000000Y-95000000D02*
G75*
G03*
X56000000Y-93000000I0J1000000D01*
G01*
X54000000Y-87400000D02*
X49457107Y-91957107D01*
X48042893Y-90542893D02*
G75*
G03*
X49457107Y-91957107I707107J-707107D01*
G01*
X47000000Y-52000000D02*
G75*
G03*
X45000000Y-52000000I-1000000J0D01*
G01*
X52000000Y-61000000D02*
X56000000Y-61000000D01*
X134000000Y-103400000D02*
X134000000Y-109000000D01*
X52600000Y-38000000D02*
X48042893Y-42542893D01*
X70000000Y-68600000D02*
X74542893Y-64042893D01*
X102000000Y-116600000D02*
X106542893Y-112042893D01*
X38000000Y-63000000D02*
X40000000Y-63000000D01*
X116000000Y-93000000D02*
G75*
G03*
X116000000Y-95000000I0J-1000000D01*
G01*
X134000000Y-63000000D02*
X132000000Y-63000000D01*
X54000000Y-71400000D02*
X58542893Y-75957107D01*
X118000000Y-52600000D02*
X122542893Y-48042893D01*
X38000000Y-77000000D02*
X38000000Y-71400000D01*
X54000000Y-119400000D02*
X58542893Y-123957107D01*
X80042893Y-90542893D02*
G75*
G03*
X81457107Y-91957107I707107J-707107D01*
G01*
X118000000Y-87400000D02*
X122542893Y-91957107D01*
X134000000Y-47000000D02*
X134000000Y-52600000D01*
X118000000Y-52600000D02*
X113457107Y-48042893D01*
X100600000Y-70000000D02*
X96042893Y-74542893D01*
X95000000Y-116000000D02*
G75*
G03*
X93000000Y-116000000I-1000000J0D01*
G01*
X125000000Y-120000000D02*
X125000000Y-116000000D01*
X134000000Y-87400000D02*
X129457107Y-91957106D01*
X64042893Y-42542893D02*
G75*
G03*
X65457107Y-43957107I707107J-707107D01*
G01*
X88000000Y-95000000D02*
G75*
G03*
X88000000Y-93000000I0J1000000D01*
G01*
X87400000Y-102000000D02*
X91957107Y-106542893D01*
X51000000Y-126000000D02*
G75*
G03*
X52000000Y-127000000I1000000J0D01*
G01*
X116600000Y-54000000D02*
X112042893Y-58542893D01*
X132000000Y-77000000D02*
G75*
G03*
X132000000Y-79000000I0J-1000000D01*
G01*
X84600000Y-102000000D02*
X80042893Y-97457107D01*
X116000000Y-79000000D02*
X120000000Y-79000000D01*
X40000000Y-47000000D02*
G75*
G03*
X40000000Y-45000000I0J1000000D01*
G01*
X109000000Y-56000000D02*
X109000000Y-52000000D01*
X54000000Y-39400000D02*
X49457107Y-43957107D01*
X70000000Y-87400000D02*
X74542893Y-91957107D01*
X68000000Y-125000000D02*
X72000000Y-125000000D01*
X109000000Y-72000000D02*
X109000000Y-68000000D01*
X87400000Y-70000000D02*
X91957107Y-65457107D01*
X79000000Y-84000000D02*
G75*
G03*
X77000000Y-84000000I-1000000J0D01*
G01*
X86000000Y-84600000D02*
X90542893Y-80042893D01*
X111000000Y-56000000D02*
X111000000Y-52000000D01*
X68000000Y-109000000D02*
X72000000Y-109000000D01*
X95000000Y-84000000D02*
G75*
G03*
X93000000Y-84000000I-1000000J0D01*
G01*
X106542893Y-43957107D02*
G75*
G03*
X107957107Y-42542893I707107J707107D01*
G01*
X38000000Y-125000000D02*
X38000000Y-119400000D01*
X102000000Y-100600000D02*
X106542893Y-96042893D01*
X80042893Y-106542893D02*
G75*
G03*
X81457107Y-107957107I707107J-707107D01*
G01*
X42542893Y-43957107D02*
G75*
G03*
X43957107Y-42542893I707107J707107D01*
G01*
X70000000Y-52600000D02*
X65457107Y-48042893D01*
X100600000Y-86000000D02*
X96042893Y-81457107D01*
X84600000Y-70000000D02*
X80042893Y-65457107D01*
X90542893Y-75957107D02*
G75*
G03*
X91957107Y-74542893I707107J707107D01*
G01*
X87400000Y-54000000D02*
X91957107Y-58542893D01*
X49457107Y-48042893D02*
G75*
G03*
X48042893Y-49457107I-707107J-707107D01*
G01*
X125000000Y-134000000D02*
X119400000Y-134000000D01*
X91957107Y-49457107D02*
G75*
G03*
X90542893Y-48042893I-707107J707107D01*
G01*
X45000000Y-120000000D02*
G75*
G03*
X47000000Y-120000000I1000000J0D01*
G01*
X84000000Y-93000000D02*
X88000000Y-93000000D01*
X128042893Y-106542893D02*
G75*
G03*
X129457107Y-107957107I707107J-707107D01*
G01*
X109000000Y-38000000D02*
X103400000Y-38000000D01*
X86000000Y-39400000D02*
X90542893Y-43957107D01*
X123957107Y-113457107D02*
G75*
G03*
X122542893Y-112042893I-707107J707107D01*
G01*
X116000000Y-111000000D02*
X120000000Y-111000000D01*
X109000000Y-104000000D02*
X109000000Y-100000000D01*
X95000000Y-72000000D02*
X95000000Y-68000000D01*
X45000000Y-134000000D02*
X45000000Y-132000000D01*
X100000000Y-45000000D02*
X104000000Y-45000000D01*
X100600000Y-54000000D02*
X96042893Y-49457107D01*
X38000000Y-68600000D02*
X38000000Y-63000000D01*
X80042893Y-42542893D02*
G75*
G03*
X81457107Y-43957107I707107J-707107D01*
G01*
X132600000Y-86000000D02*
X128042893Y-90542893D01*
X38000000Y-95000000D02*
X40000000Y-95000000D01*
X132600000Y-134000000D02*
X128042894Y-129457107D01*
X111000000Y-52000000D02*
G75*
G03*
X109000000Y-52000000I-1000000J0D01*
G01*
X79000000Y-72000000D02*
X79000000Y-68000000D01*
X109000000Y-40000000D02*
G75*
G03*
X111000000Y-40000000I1000000J0D01*
G01*
X100000000Y-109000000D02*
G75*
G03*
X100000000Y-111000000I0J-1000000D01*
G01*
X63000000Y-116000000D02*
G75*
G03*
X61000000Y-116000000I-1000000J0D01*
G01*
X93000000Y-88000000D02*
G75*
G03*
X95000000Y-88000000I1000000J0D01*
G01*
X54000000Y-132600000D02*
X49457107Y-128042893D01*
X77000000Y-132000000D02*
X77000000Y-134000000D01*
X63000000Y-72000000D02*
X63000000Y-68000000D01*
X90542893Y-123957107D02*
G75*
G03*
X91957107Y-122542893I707107J707107D01*
G01*
X129457107Y-112042893D02*
G75*
G03*
X128042893Y-113457107I-707107J-707107D01*
G01*
X91957107Y-113457107D02*
G75*
G03*
X90542893Y-112042893I-707107J707107D01*
G01*
X56000000Y-47000000D02*
G75*
G03*
X56000000Y-45000000I0J1000000D01*
G01*
X68000000Y-77000000D02*
X72000000Y-77000000D01*
X77000000Y-40000000D02*
X77000000Y-38000000D01*
X100600000Y-134000000D02*
X95000000Y-134000000D01*
X119400000Y-102000000D02*
X123957107Y-97457107D01*
X100600000Y-86000000D02*
X96042893Y-90542893D01*
X47000000Y-116000000D02*
G75*
G03*
X45000000Y-116000000I-1000000J0D01*
G01*
X91957107Y-65457107D02*
G75*
G03*
X90542893Y-64042893I-707107J707107D01*
G01*
X46000000Y-131000000D02*
G75*
G03*
X45000000Y-132000000I0J-1000000D01*
G01*
X100600000Y-102000000D02*
X96042893Y-106542893D01*
X126000000Y-99000000D02*
G75*
G03*
X125000000Y-100000000I0J-1000000D01*
G01*
X61000000Y-120000000D02*
X61000000Y-116000000D01*
X104000000Y-79000000D02*
G75*
G03*
X104000000Y-77000000I0J1000000D01*
G01*
X111000000Y-120000000D02*
X111000000Y-116000000D01*
X132000000Y-61000000D02*
G75*
G03*
X132000000Y-63000000I0J-1000000D01*
G01*
X38000000Y-87400000D02*
X42542893Y-91957107D01*
X95000000Y-40000000D02*
X95000000Y-38000000D01*
X40000000Y-63000000D02*
G75*
G03*
X40000000Y-61000000I0J1000000D01*
G01*
X109000000Y-132000000D02*
X109000000Y-134000000D01*
X116000000Y-109000000D02*
G75*
G03*
X116000000Y-111000000I0J-1000000D01*
G01*
X86000000Y-39400000D02*
X81457107Y-43957107D01*
X39400000Y-118000000D02*
X43957107Y-113457107D01*
X68000000Y-79000000D02*
X72000000Y-79000000D01*
X113457107Y-128042893D02*
G75*
G03*
X112042893Y-129457107I-707107J-707107D01*
G01*
X132600000Y-134000000D02*
X127000000Y-134000000D01*
X68600000Y-134000000D02*
X63000000Y-134000000D01*
X86000000Y-52600000D02*
X81457107Y-48042893D01*
X70000000Y-119400000D02*
X74542893Y-123957107D01*
X116600000Y-54000000D02*
X112042893Y-49457107D01*
X68600000Y-70000000D02*
X64042893Y-74542893D01*
X68600000Y-70000000D02*
X64042893Y-65457107D01*
X38000000Y-77000000D02*
X40000000Y-77000000D01*
X64042893Y-122542893D02*
G75*
G03*
X65457107Y-123957107I707107J-707107D01*
G01*
X70000000Y-132600000D02*
X74542893Y-128042893D01*
X132600000Y-38000000D02*
X127000000Y-38000000D01*
X128042894Y-90542894D02*
G75*
G03*
X129457107Y-91957106I707106J-707106D01*
G01*
X52600000Y-86000000D02*
X48042893Y-90542893D01*
X134000000Y-95000000D02*
X132000000Y-95000000D01*
X126000000Y-121000000D02*
G75*
G03*
X127000000Y-120000000I0J1000000D01*
G01*
X55400000Y-102000000D02*
X59957107Y-106542893D01*
X125000000Y-40000000D02*
G75*
G03*
X126000000Y-41000000I1000000J0D01*
G01*
X52000000Y-109000000D02*
G75*
G03*
X52000000Y-111000000I0J-1000000D01*
G01*
X122542893Y-59957107D02*
G75*
G03*
X123957107Y-58542893I707107J707107D01*
G01*
X84000000Y-125000000D02*
G75*
G03*
X83000000Y-126000000I0J-1000000D01*
G01*
X39400000Y-102000000D02*
X43957107Y-97457107D01*
X40000000Y-79000000D02*
G75*
G03*
X40000000Y-77000000I0J1000000D01*
G01*
X84600000Y-102000000D02*
X80042893Y-106542893D01*
X86000000Y-52600000D02*
X90542893Y-48042893D01*
X103400000Y-86000000D02*
X107957107Y-90542893D01*
X47000000Y-104000000D02*
X47000000Y-100000000D01*
X52600000Y-70000000D02*
X48042893Y-74542893D01*
X84600000Y-38000000D02*
X80042893Y-42542893D01*
X116600000Y-102000000D02*
X112042893Y-106542893D01*
X68000000Y-77000000D02*
G75*
G03*
X68000000Y-79000000I0J-1000000D01*
G01*
X52600000Y-70000000D02*
X48042893Y-65457107D01*
X61000000Y-40000000D02*
G75*
G03*
X63000000Y-40000000I1000000J0D01*
G01*
X72000000Y-47000000D02*
G75*
G03*
X72000000Y-45000000I0J1000000D01*
G01*
X80042893Y-122542893D02*
G75*
G03*
X81457107Y-123957107I707107J-707107D01*
G01*
X127000000Y-38000000D02*
X127000000Y-40000000D01*
X38000000Y-127000000D02*
X40000000Y-127000000D01*
X63000000Y-132000000D02*
X63000000Y-134000000D01*
X63000000Y-52000000D02*
G75*
G03*
X61000000Y-52000000I-1000000J0D01*
G01*
X102000000Y-87400000D02*
X97457107Y-91957107D01*
X128042893Y-58542893D02*
G75*
G03*
X129457108Y-59957107I707107J-707107D01*
G01*
X84600000Y-70000000D02*
X80042893Y-74542893D01*
X106542893Y-91957107D02*
G75*
G03*
X107957107Y-90542893I707107J707107D01*
G01*
X134000000Y-111000000D02*
X134000000Y-116600000D01*
X71400000Y-86000000D02*
X75957107Y-90542893D01*
X77000000Y-104000000D02*
G75*
G03*
X79000000Y-104000000I1000000J0D01*
G01*
X61000000Y-40000000D02*
X61000000Y-38000000D01*
X127000000Y-84000000D02*
X127000000Y-88000000D01*
X89000000Y-126000000D02*
G75*
G03*
X88000000Y-125000000I-1000000J0D01*
G01*
X38000000Y-109000000D02*
X38000000Y-103400000D01*
X86000000Y-100600000D02*
X90542893Y-96042893D01*
X111000000Y-132000000D02*
G75*
G03*
X109000000Y-132000000I-1000000J1D01*
G01*
X79000000Y-104000000D02*
X79000000Y-100000000D01*
X134000000Y-132600000D02*
X129457107Y-128042893D01*
X119400000Y-54000000D02*
X123957107Y-58542893D01*
X129457106Y-96042893D02*
G75*
G03*
X128042893Y-97457107I-707106J-707107D01*
G01*
X59957107Y-113457107D02*
G75*
G03*
X58542893Y-112042893I-707107J707107D01*
G01*
X116600000Y-134000000D02*
X112042893Y-129457107D01*
X68600000Y-118000000D02*
X64042893Y-113457107D01*
X68000000Y-47000000D02*
X72000000Y-47000000D01*
X112042893Y-106542893D02*
G75*
G03*
X113457107Y-107957107I707107J-707107D01*
G01*
X93000000Y-134000000D02*
X87400000Y-134000000D01*
X70000000Y-39400000D02*
X65457107Y-43957107D01*
X38000000Y-132600000D02*
X38000000Y-127000000D01*
X134000000Y-84600000D02*
X129457107Y-80042893D01*
X127000000Y-52000000D02*
G75*
G03*
X126000000Y-51000000I-1000000J0D01*
G01*
X64042893Y-106542893D02*
G75*
G03*
X65457107Y-107957107I707107J-707107D01*
G01*
X38000000Y-119400000D02*
X42542893Y-123957107D01*
X70000000Y-55400000D02*
X65457107Y-59957107D01*
X95000000Y-100000000D02*
G75*
G03*
X93000000Y-100000000I-1000000J0D01*
G01*
X118000000Y-103400000D02*
X113457107Y-107957107D01*
X46999999Y-132000000D02*
X47000000Y-134000000D01*
X54000000Y-68600000D02*
X58542893Y-64042893D01*
X84600000Y-134000000D02*
X79000000Y-134000000D01*
X43957107Y-65457107D02*
G75*
G03*
X42542893Y-64042893I-707107J707107D01*
G01*
X52600000Y-102000000D02*
X48042893Y-106542893D01*
X126000000Y-51000000D02*
G75*
G03*
X125000000Y-51999999I0J-1000000D01*
G01*
X112042893Y-90542893D02*
G75*
G03*
X113457107Y-91957107I707107J-707107D01*
G01*
X38000000Y-100600000D02*
X42542893Y-96042893D01*
X55400000Y-134000000D02*
X59957108Y-129457107D01*
X65457107Y-96042893D02*
G75*
G03*
X64042893Y-97457107I-707107J-707107D01*
G01*
X49457107Y-96042893D02*
G75*
G03*
X48042893Y-97457107I-707107J-707107D01*
G01*
X95000000Y-120000000D02*
X95000000Y-116000000D01*
X126000000Y-57000000D02*
G75*
G03*
X127000000Y-56000000I0J1000000D01*
G01*
X78999999Y-132000000D02*
X79000000Y-134000000D01*
X79000000Y-100000000D02*
G75*
G03*
X77000000Y-100000000I-1000000J0D01*
G01*
X126000000Y-89000000D02*
G75*
G03*
X127000000Y-88000000I0J1000000D01*
G01*
X96042893Y-122542893D02*
G75*
G03*
X97457107Y-123957107I707107J-707107D01*
G01*
X125000000Y-132000000D02*
X125000000Y-134000000D01*
X54000000Y-71400000D02*
X49457107Y-75957107D01*
X55400000Y-102000000D02*
X59957107Y-97457107D01*
X118000000Y-87400000D02*
X113457107Y-91957107D01*
X63000000Y-120000000D02*
X63000000Y-116000000D01*
X100000000Y-77000000D02*
X104000000Y-77000000D01*
X123957107Y-81457107D02*
G75*
G03*
X122542893Y-80042893I-707107J707107D01*
G01*
X102000000Y-55400000D02*
X97457107Y-59957107D01*
X118000000Y-71400000D02*
X122542893Y-75957107D01*
X102000000Y-100600000D02*
X97457107Y-96042893D01*
X103400000Y-54000000D02*
X107957107Y-58542893D01*
X103400000Y-38000000D02*
X107957107Y-42542893D01*
X123957107Y-49457107D02*
G75*
G03*
X122542893Y-48042893I-707107J707107D01*
G01*
X39400000Y-102000000D02*
X43957107Y-106542893D01*
X90542893Y-107957107D02*
G75*
G03*
X91957107Y-106542893I707107J707107D01*
G01*
X110999999Y-132000000D02*
X111000000Y-134000000D01*
X100000000Y-79000000D02*
X104000000Y-79000000D01*
X118000000Y-119400000D02*
X122542893Y-123957107D01*
X118000000Y-55400000D02*
X122542893Y-59957107D01*
X86000000Y-71400000D02*
X81457107Y-75957107D01*
X111000000Y-116000000D02*
G75*
G03*
X109000000Y-116000000I-1000000J0D01*
G01*
X119400000Y-118000000D02*
X123957107Y-113457107D01*
X84000000Y-47000000D02*
X88000000Y-47000000D01*
X127000000Y-132000000D02*
G75*
G03*
X125000000Y-132000000I-1000000J0D01*
G01*
X132000000Y-125000000D02*
G75*
G03*
X131000000Y-126000000I0J-1000000D01*
G01*
X119400000Y-134000000D02*
X123957108Y-129457107D01*
X86000000Y-55400000D02*
X90542893Y-59957107D01*
X70000000Y-103400000D02*
X65457107Y-107957107D01*
X77000000Y-72000000D02*
X77000000Y-68000000D01*
X111000000Y-40000000D02*
X111000000Y-38000000D01*
X116000000Y-61000000D02*
G75*
G03*
X116000000Y-63000000I0J-1000000D01*
G01*
X52000000Y-111000000D02*
X56000000Y-111000000D01*
X68000000Y-61000000D02*
X72000000Y-61000000D01*
X58542893Y-123957107D02*
G75*
G03*
X59957107Y-122542893I707107J707107D01*
G01*
X116600000Y-102000000D02*
X112042893Y-97457107D01*
X54000000Y-100600000D02*
X58542893Y-96042893D01*
X134000000Y-77000000D02*
X132000000Y-77000000D01*
X55400000Y-54000000D02*
X59957107Y-49457107D01*
X93000000Y-120000000D02*
G75*
G03*
X95000000Y-120000000I1000000J0D01*
G01*
X116000000Y-63000000D02*
X120000000Y-63000000D01*
X100000000Y-111000000D02*
X104000000Y-111000000D01*
X127000000Y-67999999D02*
G75*
G03*
X126000000Y-67000000I-1000000J-1D01*
G01*
X116000000Y-45000000D02*
G75*
G03*
X116000000Y-47000000I0J-1000000D01*
G01*
X100600000Y-118000000D02*
X96042893Y-113457107D01*
X100600000Y-70000000D02*
X96042893Y-65457107D01*
X47000000Y-100000000D02*
G75*
G03*
X45000000Y-100000000I-1000000J0D01*
G01*
X127000000Y-116000000D02*
X127000000Y-120000000D01*
X77000000Y-56000000D02*
G75*
G03*
X79000000Y-56000000I1000000J0D01*
G01*
X103400000Y-118000000D02*
X107957107Y-113457107D01*
X118000000Y-84600000D02*
X113457107Y-80042893D01*
X126000000Y-67000000D02*
G75*
G03*
X125000000Y-68000000I0J-1000000D01*
G01*
X91957107Y-97457107D02*
G75*
G03*
X90542893Y-96042893I-707107J707107D01*
G01*
X38000000Y-93000000D02*
X38000000Y-87400000D01*
X45000000Y-56000000D02*
G75*
G03*
X47000000Y-56000000I1000000J0D01*
G01*
X61000000Y-56000000D02*
X61000000Y-52000000D01*
X102000000Y-39400000D02*
X97457107Y-43957107D01*
X134000000Y-111000000D02*
X132000000Y-111000000D01*
X100600000Y-38000000D02*
X96042893Y-42542893D01*
X100000000Y-47000000D02*
X104000000Y-47000000D01*
X70000000Y-84600000D02*
X74542893Y-80042893D01*
X109000000Y-40000000D02*
X109000000Y-38000000D01*
X119999999Y-127000000D02*
X116000000Y-127000000D01*
X70000000Y-87400000D02*
X65457107Y-91957107D01*
X38000000Y-116600000D02*
X38000000Y-111000000D01*
X47000000Y-68000000D02*
G75*
G03*
X45000000Y-68000000I-1000000J0D01*
G01*
X70000000Y-52600000D02*
X74542893Y-48042893D01*
X38000000Y-45000000D02*
X38000000Y-39400000D01*
X84600000Y-38000000D02*
X79000000Y-38000000D01*
X80042893Y-58542893D02*
G75*
G03*
X81457107Y-59957107I707107J-707107D01*
G01*
X123957107Y-65457107D02*
G75*
G03*
X122542893Y-64042893I-707107J707107D01*
G01*
X95000000Y-132000000D02*
G75*
G03*
X93000000Y-132000000I-1000000J0D01*
G01*
X91957107Y-129457106D02*
G75*
G03*
X90542893Y-128042893I-707107J707106D01*
G01*
X38000000Y-52600000D02*
X42542893Y-48042893D01*
X73000000Y-126000000D02*
G75*
G03*
X72000000Y-125000000I-1000000J0D01*
G01*
X61000000Y-88000000D02*
X61000000Y-84000000D01*
X72000000Y-79000000D02*
G75*
G03*
X72000000Y-77000000I0J1000000D01*
G01*
X109000000Y-134000000D02*
X103400000Y-134000000D01*
X129457106Y-128042894D02*
G75*
G03*
X128042894Y-129457107I-707106J-707106D01*
G01*
X103400000Y-86000000D02*
X107957107Y-81457107D01*
X86000000Y-87400000D02*
X90542893Y-91957107D01*
X72000000Y-63000000D02*
G75*
G03*
X72000000Y-61000000I0J1000000D01*
G01*
X84000000Y-77000000D02*
G75*
G03*
X84000000Y-79000000I0J-1000000D01*
G01*
X111000000Y-104000000D02*
X111000000Y-100000000D01*
X61000000Y-104000000D02*
G75*
G03*
X63000000Y-104000000I1000000J0D01*
G01*
X104000000Y-47000000D02*
G75*
G03*
X104000000Y-45000000I0J1000000D01*
G01*
X100000000Y-109000000D02*
X104000000Y-109000000D01*
X45000000Y-104000000D02*
G75*
G03*
X47000000Y-104000000I1000000J0D01*
G01*
X87400000Y-86000000D02*
X91957107Y-90542893D01*
X134000000Y-87400000D02*
X134000000Y-93000000D01*
X55400000Y-118000000D02*
X59957107Y-122542893D01*
X116600000Y-86000000D02*
X112042893Y-90542893D01*
X75957107Y-129457107D02*
G75*
G03*
X74542893Y-128042893I-707107J707107D01*
G01*
X125000000Y-40000000D02*
X125000000Y-38000000D01*
X87999999Y-127000000D02*
X84000000Y-127000000D01*
X107957107Y-81457107D02*
G75*
G03*
X106542893Y-80042893I-707107J707107D01*
G01*
X102000000Y-55400000D02*
X106542893Y-59957107D01*
X39400000Y-38000000D02*
X43957107Y-42542893D01*
X100000000Y-125000000D02*
X104000000Y-125000000D01*
X87400000Y-102000000D02*
X91957107Y-97457107D01*
X54000000Y-87400000D02*
X58542893Y-91957107D01*
X125000000Y-120000001D02*
G75*
G03*
X126000000Y-121000000I1000000J1D01*
G01*
X45000000Y-104000000D02*
X45000000Y-100000000D01*
X88000000Y-47000000D02*
G75*
G03*
X88000000Y-45000000I0J1000000D01*
G01*
X43957106Y-129457106D02*
G75*
G03*
X42542893Y-128042894I-707106J707106D01*
G01*
X100600000Y-134000000D02*
X96042894Y-129457107D01*
X61000000Y-88000000D02*
G75*
G03*
X63000000Y-88000000I1000000J0D01*
G01*
X63000000Y-104000000D02*
X63000000Y-100000000D01*
X116000000Y-109000000D02*
X120000000Y-109000000D01*
X106542893Y-107957107D02*
G75*
G03*
X107957107Y-106542893I707107J707107D01*
G01*
X102000000Y-116600000D02*
X97457107Y-112042893D01*
X112042893Y-58542893D02*
G75*
G03*
X113457107Y-59957107I707107J-707107D01*
G01*
X97457107Y-64042893D02*
G75*
G03*
X96042893Y-65457107I-707107J-707107D01*
G01*
X127000000Y-52000000D02*
X127000000Y-56000000D01*
X54000000Y-119400000D02*
X49457107Y-123957107D01*
X116600000Y-70000000D02*
X112042893Y-65457107D01*
X47000000Y-120000000D02*
X47000000Y-116000000D01*
X68600000Y-38000000D02*
X64042893Y-42542893D01*
X102000000Y-39400000D02*
X106542893Y-43957107D01*
X71400000Y-38000000D02*
X75957107Y-42542893D01*
X120000000Y-47000000D02*
G75*
G03*
X120000000Y-45000000I0J1000000D01*
G01*
X116000000Y-61000000D02*
X120000000Y-61000000D01*
X102000000Y-132600000D02*
X97457107Y-128042893D01*
X127000000Y-99999999D02*
G75*
G03*
X126000000Y-99000000I-1000000J-1D01*
G01*
X109000000Y-56000000D02*
G75*
G03*
X111000000Y-56000000I1000000J0D01*
G01*
X87400000Y-70000000D02*
X91957107Y-74542893D01*
X102000000Y-68600000D02*
X97457107Y-64042893D01*
X59957107Y-65457107D02*
G75*
G03*
X58542893Y-64042893I-707107J707107D01*
G01*
X126000000Y-41000000D02*
G75*
G03*
X127000000Y-40000000I0J1000000D01*
G01*
X127000000Y-132000000D02*
X127000000Y-134000000D01*
X77000000Y-104000000D02*
X77000000Y-100000000D01*
X68000000Y-61000000D02*
G75*
G03*
X68000000Y-63000000I0J-1000000D01*
G01*
X102000000Y-71400000D02*
X97457107Y-75957107D01*
X77000000Y-120000000D02*
X77000000Y-116000000D01*
X107957107Y-129457107D02*
G75*
G03*
X106542893Y-128042893I-707107J707107D01*
G01*
X111000000Y-84000000D02*
G75*
G03*
X109000000Y-84000000I-1000000J0D01*
G01*
X100000000Y-61000000D02*
G75*
G03*
X100000000Y-63000000I0J-1000000D01*
G01*
X54000000Y-55400000D02*
X58542893Y-59957107D01*
X97457107Y-96042893D02*
G75*
G03*
X96042893Y-97457107I-707107J-707107D01*
G01*
X55400000Y-54000000D02*
X59957107Y-58542893D01*
X84000000Y-77000000D02*
X88000000Y-77000000D01*
X116600000Y-118000000D02*
X112042893Y-113457107D01*
X59957107Y-49457107D02*
G75*
G03*
X58542893Y-48042893I-707107J707107D01*
G01*
X104000000Y-95000000D02*
G75*
G03*
X104000000Y-93000000I0J1000000D01*
G01*
X54000000Y-52600000D02*
X58542893Y-48042893D01*
X93000000Y-38000000D02*
X87400000Y-38000000D01*
X90542893Y-43957107D02*
G75*
G03*
X91957107Y-42542893I707107J707107D01*
G01*
X125000000Y-56000000D02*
X125000000Y-52000000D01*
X102000000Y-103400000D02*
X97457107Y-107957107D01*
X90542893Y-59957107D02*
G75*
G03*
X91957107Y-58542893I707107J707107D01*
G01*
X115000000Y-126000000D02*
G75*
G03*
X116000000Y-127000000I1000000J0D01*
G01*
X84000000Y-109000000D02*
G75*
G03*
X84000000Y-111000000I0J-1000000D01*
G01*
X41000000Y-126000000D02*
G75*
G03*
X40000000Y-125000000I-1000000J0D01*
G01*
X95000000Y-88000000D02*
X95000000Y-84000000D01*
X71400000Y-102000000D02*
X75957107Y-106542893D01*
X119400000Y-70000000D02*
X123957107Y-65457107D01*
X84000000Y-61000000D02*
X88000000Y-61000000D01*
X116600000Y-118000000D02*
X112042893Y-122542893D01*
X86000000Y-116600000D02*
X81457107Y-112042893D01*
X109000000Y-120000000D02*
X109000000Y-116000000D01*
X55400000Y-70000000D02*
X59957107Y-65457107D01*
X74542893Y-107957107D02*
G75*
G03*
X75957107Y-106542893I707107J707107D01*
G01*
X38000000Y-111000000D02*
X40000000Y-111000000D01*
X81457107Y-48042893D02*
G75*
G03*
X80042893Y-49457107I-707107J-707107D01*
G01*
X77000000Y-38000000D02*
X71400000Y-38000000D01*
X112042893Y-42542893D02*
G75*
G03*
X113457107Y-43957107I707107J-707107D01*
G01*
X52000000Y-45000000D02*
X56000000Y-45000000D01*
X40000000Y-111000000D02*
G75*
G03*
X40000000Y-109000000I0J1000000D01*
G01*
X118000000Y-132600000D02*
X113457107Y-128042893D01*
X100000000Y-125000000D02*
G75*
G03*
X99000000Y-126000000I0J-1000000D01*
G01*
X100000000Y-93000000D02*
G75*
G03*
X100000000Y-95000000I0J-1000000D01*
G01*
X102000000Y-52600000D02*
X97457107Y-48042893D01*
X112042893Y-74542893D02*
G75*
G03*
X113457107Y-75957107I707107J-707107D01*
G01*
X42542893Y-91957107D02*
G75*
G03*
X43957107Y-90542893I707107J707107D01*
G01*
X102000000Y-84600000D02*
X97457107Y-80042893D01*
X54000000Y-39400000D02*
X58542893Y-43957107D01*
X74542893Y-59957107D02*
G75*
G03*
X75957107Y-58542893I707107J707107D01*
G01*
X134000000Y-79000000D02*
X132000000Y-79000000D01*
X100000000Y-77000000D02*
G75*
G03*
X100000000Y-79000000I0J-1000000D01*
G01*
X87400000Y-118000000D02*
X91957107Y-113457107D01*
X70000000Y-103400000D02*
X74542893Y-107957107D01*
X71400000Y-54000000D02*
X75957107Y-58542893D01*
X61000000Y-72000000D02*
G75*
G03*
X63000000Y-72000000I1000000J0D01*
G01*
X102000000Y-132600000D02*
X106542893Y-128042893D01*
X63000000Y-132000000D02*
G75*
G03*
X61000000Y-132000000I-1000000J0D01*
G01*
X134000000Y-116600000D02*
X129457107Y-112042893D01*
X77000000Y-120000000D02*
G75*
G03*
X79000000Y-120000000I1000000J0D01*
G01*
X119400000Y-70000000D02*
X123957107Y-74542893D01*
X134000000Y-47000000D02*
X132000000Y-47000000D01*
X72000000Y-127000000D02*
G75*
G03*
X73000000Y-126000000I0J1000000D01*
G01*
X38000000Y-84600000D02*
X38000000Y-79000000D01*
X72000000Y-111000000D02*
G75*
G03*
X72000000Y-109000000I0J1000000D01*
G01*
X95000000Y-132000000D02*
X95000000Y-134000000D01*
X71400000Y-86000000D02*
X75957107Y-81457107D01*
X68600000Y-134000000D02*
X64042894Y-129457107D01*
X106542893Y-59957107D02*
G75*
G03*
X107957107Y-58542893I707107J707107D01*
G01*
X102000000Y-84600000D02*
X106542893Y-80042893D01*
X93000000Y-72000000D02*
G75*
G03*
X95000000Y-72000000I1000000J0D01*
G01*
X134000000Y-100600000D02*
X129457107Y-96042892D01*
X84000000Y-61000000D02*
G75*
G03*
X84000000Y-63000000I0J-1000000D01*
G01*
X125000000Y-104000000D02*
G75*
G03*
X126000000Y-105000000I1000000J0D01*
G01*
X79000000Y-68000000D02*
G75*
G03*
X77000000Y-68000000I-1000000J0D01*
G01*
X74542893Y-123957107D02*
G75*
G03*
X75957107Y-122542893I707107J707107D01*
G01*
X113457107Y-64042893D02*
G75*
G03*
X112042893Y-65457107I-707107J-707107D01*
G01*
X61000000Y-120000000D02*
G75*
G03*
X63000000Y-120000000I1000000J0D01*
G01*
X96042893Y-106542893D02*
G75*
G03*
X97457107Y-107957107I707107J-707107D01*
G01*
X84600000Y-86000000D02*
X80042893Y-90542893D01*
X123957107Y-129457106D02*
G75*
G03*
X122542893Y-128042893I-707107J707106D01*
G01*
X70000000Y-39400000D02*
X74542893Y-43957107D01*
X54000000Y-52600000D02*
X49457107Y-48042893D01*
X103400000Y-118000000D02*
X107957107Y-122542893D01*
X118000000Y-55400000D02*
X113457107Y-59957107D01*
X122542893Y-91957107D02*
G75*
G03*
X123957107Y-90542893I707107J707107D01*
G01*
X79000000Y-56000000D02*
X79000000Y-52000000D01*
X112042893Y-122542893D02*
G75*
G03*
X113457107Y-123957107I707107J-707107D01*
G01*
X68000000Y-45000000D02*
G75*
G03*
X68000000Y-47000000I0J-1000000D01*
G01*
X96042893Y-90542893D02*
G75*
G03*
X97457107Y-91957107I707107J-707107D01*
G01*
X47000000Y-88000000D02*
X47000000Y-84000000D01*
X52000000Y-77000000D02*
X56000000Y-77000000D01*
X105000000Y-126000000D02*
G75*
G03*
X104000000Y-125000000I-1000000J0D01*
G01*
X61000000Y-38000000D02*
X55400000Y-38000000D01*
X100000000Y-61000000D02*
X104000000Y-61000000D01*
X39400000Y-118000000D02*
X43957107Y-122542893D01*
X39400000Y-54000000D02*
X43957107Y-49457107D01*
X102000000Y-119400000D02*
X106542893Y-123957107D01*
X103400000Y-102000000D02*
X107957107Y-97457107D01*
X129457106Y-64042893D02*
G75*
G03*
X128042893Y-65457107I-707106J-707107D01*
G01*
X116000000Y-125000000D02*
X120000000Y-125000000D01*
X55999999Y-127000000D02*
X52000000Y-127000000D01*
X42542893Y-123957107D02*
G75*
G03*
X43957107Y-122542893I707107J707107D01*
G01*
X72000000Y-95000000D02*
G75*
G03*
X72000000Y-93000000I0J1000000D01*
G01*
X54000000Y-55400000D02*
X49457107Y-59957107D01*
X132000000Y-109000000D02*
G75*
G03*
X132000000Y-111000000I0J-1000000D01*
G01*
X134000000Y-39400000D02*
X129457107Y-43957107D01*
X39400000Y-54000000D02*
X43957107Y-58542893D01*
X107957107Y-49457107D02*
G75*
G03*
X106542893Y-48042893I-707107J707107D01*
G01*
X42542893Y-75957107D02*
G75*
G03*
X43957107Y-74542893I707107J707107D01*
G01*
X134000000Y-125000000D02*
X132000000Y-125000000D01*
X63000000Y-84000000D02*
G75*
G03*
X61000000Y-84000000I-1000000J0D01*
G01*
X93000000Y-40000000D02*
X93000000Y-38000000D01*
X132600000Y-54000000D02*
X128042893Y-49457107D01*
X109000000Y-72000000D02*
G75*
G03*
X111000000Y-72000000I1000000J0D01*
G01*
X67000000Y-126000000D02*
G75*
G03*
X68000000Y-127000000I1000000J0D01*
G01*
X86000000Y-55400000D02*
X81457107Y-59957107D01*
X79000000Y-40000000D02*
X79000000Y-38000000D01*
X70000000Y-100600000D02*
X65457107Y-96042893D01*
X113457107Y-48042893D02*
G75*
G03*
X112042893Y-49457107I-707107J-707107D01*
G01*
X91957107Y-81457107D02*
G75*
G03*
X90542893Y-80042893I-707107J707107D01*
G01*
X52600000Y-118000000D02*
X48042893Y-113457107D01*
X38000000Y-45000000D02*
X40000000Y-45000000D01*
X87400000Y-54000000D02*
X91957107Y-49457107D01*
X63000000Y-40000000D02*
X63000000Y-38000000D01*
X68000000Y-95000000D02*
X72000000Y-95000000D01*
X63000000Y-100000000D02*
G75*
G03*
X61000000Y-100000000I-1000000J0D01*
G01*
X86000000Y-68600000D02*
X90542893Y-64042893D01*
X104000000Y-63000000D02*
G75*
G03*
X104000000Y-61000000I0J1000000D01*
G01*
X54000000Y-68600000D02*
X49457107Y-64042893D01*
X81457107Y-80042893D02*
G75*
G03*
X80042893Y-81457107I-707107J-707107D01*
G01*
X116600000Y-38000000D02*
X112042893Y-42542893D01*
X107957107Y-97457107D02*
G75*
G03*
X106542893Y-96042893I-707107J707107D01*
G01*
X40000000Y-95000000D02*
G75*
G03*
X40000000Y-93000000I0J1000000D01*
G01*
X81457107Y-64042893D02*
G75*
G03*
X80042893Y-65457107I-707107J-707107D01*
G01*
X58542893Y-59957107D02*
G75*
G03*
X59957107Y-58542893I707107J707107D01*
G01*
X47000000Y-72000000D02*
X47000000Y-68000000D01*
X116600000Y-134000000D02*
X111000000Y-134000000D01*
X56000000Y-79000000D02*
G75*
G03*
X56000000Y-77000000I0J1000000D01*
G01*
X59957107Y-97457107D02*
G75*
G03*
X58542893Y-96042893I-707107J707107D01*
G01*
X52600000Y-54000000D02*
X48042893Y-58542893D01*
X127000000Y-100000001D02*
X127000000Y-104000000D01*
X125000000Y-88000000D02*
X125000000Y-84000000D01*
X77000000Y-72000000D02*
G75*
G03*
X79000000Y-72000000I1000000J0D01*
G01*
X134000000Y-71400000D02*
X129457107Y-75957107D01*
X87400000Y-134000000D02*
X91957108Y-129457107D01*
X109000000Y-88000000D02*
X109000000Y-84000000D01*
X132000000Y-45000000D02*
G75*
G03*
X132000000Y-47000000I0J-1000000D01*
G01*
X134000000Y-61000000D02*
X132000000Y-61000000D01*
X77000000Y-88000000D02*
X77000000Y-84000000D01*
X104000000Y-127000000D02*
G75*
G03*
X105000000Y-126000000I0J1000000D01*
G01*
X70000000Y-116600000D02*
X65457107Y-112042893D01*
X122542893Y-123957107D02*
G75*
G03*
X123957107Y-122542893I707107J707107D01*
G01*
X49457107Y-80042893D02*
G75*
G03*
X48042893Y-81457107I-707107J-707107D01*
G01*
X61000000Y-134000000D02*
X55400000Y-134000000D01*
X97457107Y-80042893D02*
G75*
G03*
X96042893Y-81457107I-707107J-707107D01*
G01*
X39400000Y-86000000D02*
X43957107Y-90542893D01*
X38000000Y-132600000D02*
X42542893Y-128042894D01*
X40000000Y-127000000D02*
G75*
G03*
X41000000Y-126000000I0J1000000D01*
G01*
X116000000Y-45000000D02*
X120000000Y-45000000D01*
X95000000Y-104000000D02*
X95000000Y-100000000D01*
X75957107Y-81457107D02*
G75*
G03*
X74542893Y-80042893I-707107J707107D01*
G01*
X106542893Y-75957107D02*
G75*
G03*
X107957107Y-74542893I707107J707107D01*
G01*
X42542893Y-107957107D02*
G75*
G03*
X43957107Y-106542893I707107J707107D01*
G01*
X45000000Y-38000000D02*
X39400000Y-38000000D01*
X61000000Y-56000000D02*
G75*
G03*
X63000000Y-56000000I1000000J0D01*
G01*
X97457107Y-48042893D02*
G75*
G03*
X96042893Y-49457107I-707107J-707107D01*
G01*
X56000000Y-111000000D02*
G75*
G03*
X56000000Y-109000000I0J1000000D01*
G01*
X100600000Y-54000000D02*
X96042893Y-58542893D01*
X64042893Y-58542893D02*
G75*
G03*
X65457107Y-59957107I707107J-707107D01*
G01*
X84000000Y-45000000D02*
X88000000Y-45000000D01*
X84000000Y-45000000D02*
G75*
G03*
X84000000Y-47000000I0J-1000000D01*
G01*
X58542893Y-91957107D02*
G75*
G03*
X59957107Y-90542893I707107J707107D01*
G01*
X38000000Y-93000000D02*
X40000000Y-93000000D01*
X38000000Y-125000000D02*
X40000000Y-125000000D01*
X54000000Y-103400000D02*
X58542893Y-107957107D01*
X48042893Y-42542893D02*
G75*
G03*
X49457107Y-43957107I707107J-707107D01*
G01*
X52000000Y-95000000D02*
X56000000Y-95000000D01*
X52600000Y-134000000D02*
X47000000Y-134000000D01*
X68600000Y-118000000D02*
X64042893Y-122542893D01*
X45000000Y-56000000D02*
X45000000Y-52000000D01*
X96042893Y-74542893D02*
G75*
G03*
X97457107Y-75957107I707107J-707107D01*
G01*
X47000000Y-131999999D02*
G75*
G03*
X46000000Y-131000000I-1000000J-1D01*
G01*
X84000000Y-93000000D02*
G75*
G03*
X84000000Y-95000000I0J-1000000D01*
G01*
X88000000Y-79000000D02*
G75*
G03*
X88000000Y-77000000I0J1000000D01*
G01*
X120000000Y-95000000D02*
G75*
G03*
X120000000Y-93000000I0J1000000D01*
G01*
X81457107Y-112042893D02*
G75*
G03*
X80042893Y-113457107I-707107J-707107D01*
G01*
X39400000Y-70000000D02*
X43957107Y-65457107D01*
X103400000Y-54000000D02*
X107957107Y-49457107D01*
X100600000Y-102000000D02*
X96042893Y-97457107D01*
X132000000Y-93000000D02*
G75*
G03*
X132000000Y-95000000I0J-1000000D01*
G01*
X119400000Y-118000000D02*
X123957107Y-122542893D01*
X38000000Y-61000000D02*
X40000000Y-61000000D01*
X119400000Y-38000000D02*
X123957107Y-42542893D01*
X93000000Y-56000000D02*
X93000000Y-52000000D01*
X134000000Y-79000000D02*
X134000000Y-84600000D01*
X100000000Y-95000000D02*
X104000000Y-95000000D01*
X116000000Y-95000000D02*
X120000000Y-95000000D01*
X111000000Y-88000000D02*
X111000000Y-84000000D01*
X55400000Y-86000000D02*
X59957107Y-81457107D01*
X65457107Y-48042893D02*
G75*
G03*
X64042893Y-49457107I-707107J-707107D01*
G01*
X70000000Y-71400000D02*
X74542893Y-75957107D01*
X109000000Y-88000000D02*
G75*
G03*
X111000000Y-88000000I1000000J0D01*
G01*
X128042894Y-122542894D02*
G75*
G03*
X129457107Y-123957106I707106J-707106D01*
G01*
X86000000Y-119400000D02*
X81457107Y-123957107D01*
X43957107Y-81457107D02*
G75*
G03*
X42542893Y-80042893I-707107J707107D01*
G01*
X118000000Y-71400000D02*
X113457107Y-75957107D01*
X127000000Y-116000000D02*
G75*
G03*
X126000000Y-115000000I-1000000J0D01*
G01*
X71400000Y-70000000D02*
X75957107Y-74542893D01*
X127000000Y-68000001D02*
X127000000Y-72000000D01*
X38000000Y-47000000D02*
X40000000Y-47000000D01*
X70000000Y-68600000D02*
X65457107Y-64042893D01*
X134000000Y-55400000D02*
X129457108Y-59957107D01*
X125000000Y-38000000D02*
X119400000Y-38000000D01*
X68000000Y-63000000D02*
X72000000Y-63000000D01*
X55999999Y-127000000D02*
G75*
G03*
X57000000Y-126000000I1J1000000D01*
G01*
X75957107Y-49457107D02*
G75*
G03*
X74542893Y-48042893I-707107J707107D01*
G01*
X43957107Y-97457107D02*
G75*
G03*
X42542893Y-96042893I-707107J707107D01*
G01*
X88000000Y-63000000D02*
G75*
G03*
X88000000Y-61000000I0J1000000D01*
G01*
X116000000Y-77000000D02*
G75*
G03*
X116000000Y-79000000I0J-1000000D01*
G01*
X95000000Y-68000000D02*
G75*
G03*
X93000000Y-68000000I-1000000J0D01*
G01*
X63000000Y-88000000D02*
X63000000Y-84000000D01*
X70000000Y-100600000D02*
X74542893Y-96042893D01*
X84600000Y-118000000D02*
X80042893Y-122542893D01*
X128042893Y-42542893D02*
G75*
G03*
X129457107Y-43957107I707107J-707107D01*
G01*
X118000000Y-39400000D02*
X122542893Y-43957107D01*
X38000000Y-109000000D02*
X40000000Y-109000000D01*
X121000000Y-126000000D02*
G75*
G03*
X120000000Y-125000000I-1000000J0D01*
G01*
X84000000Y-111000000D02*
X88000000Y-111000000D01*
X68600000Y-86000000D02*
X64042893Y-90542893D01*
X126000000Y-105000000D02*
G75*
G03*
X127000000Y-104000000I0J1000000D01*
G01*
X118000000Y-116600000D02*
X113457107Y-112042893D01*
X87400000Y-118000000D02*
X91957107Y-122542893D01*
X81457107Y-96042893D02*
G75*
G03*
X80042893Y-97457107I-707107J-707107D01*
G01*
X54000000Y-84600000D02*
X49457107Y-80042893D01*
X61000000Y-72000000D02*
X61000000Y-68000000D01*
X118000000Y-132600000D02*
X122542893Y-128042893D01*
X38000000Y-61000000D02*
X38000000Y-55400000D01*
X122542893Y-75957107D02*
G75*
G03*
X123957107Y-74542893I707107J707107D01*
G01*
X48042893Y-74542893D02*
G75*
G03*
X49457107Y-75957107I707107J-707107D01*
G01*
X100000000Y-45000000D02*
G75*
G03*
X100000000Y-47000000I0J-1000000D01*
G01*
X71400000Y-54000000D02*
X75957107Y-49457107D01*
X122542893Y-43957107D02*
G75*
G03*
X123957107Y-42542893I707107J707107D01*
G01*
X106542893Y-123957107D02*
G75*
G03*
X107957107Y-122542893I707107J707107D01*
G01*
X118000000Y-119400000D02*
X113457107Y-123957107D01*
X65457106Y-128042894D02*
G75*
G03*
X64042894Y-129457107I-707106J-707106D01*
G01*
X111000000Y-68000000D02*
G75*
G03*
X109000000Y-68000000I-1000000J0D01*
G01*
X132600000Y-102000000D02*
X128042893Y-106542893D01*
X55400000Y-70000000D02*
X59957107Y-74542893D01*
X93000000Y-104000000D02*
X93000000Y-100000000D01*
X84000000Y-109000000D02*
X88000000Y-109000000D01*
X107957107Y-65457107D02*
G75*
G03*
X106542893Y-64042893I-707107J707107D01*
G01*
X100600000Y-118000000D02*
X96042893Y-122542893D01*
X97457106Y-128042894D02*
G75*
G03*
X96042894Y-129457107I-707106J-707106D01*
G01*
X132600000Y-118000000D02*
X128042893Y-122542893D01*
X131000000Y-126000000D02*
G75*
G03*
X132000000Y-127000000I1000000J0D01*
G01*
X84600000Y-54000000D02*
X80042893Y-58542893D01*
X126000000Y-73000000D02*
G75*
G03*
X127000000Y-72000000I0J1000000D01*
G01*
X79000000Y-52000000D02*
G75*
G03*
X77000000Y-52000000I-1000000J0D01*
G01*
X93000000Y-72000000D02*
X93000000Y-68000000D01*
X86000000Y-87400000D02*
X81457107Y-91957107D01*
X102000000Y-71400000D02*
X106542893Y-75957107D01*
X74542893Y-43957107D02*
G75*
G03*
X75957107Y-42542893I707107J707107D01*
G01*
X45000000Y-88000000D02*
X45000000Y-84000000D01*
X93000000Y-104000000D02*
G75*
G03*
X95000000Y-104000000I1000000J0D01*
G01*
X56000000Y-63000000D02*
G75*
G03*
X56000000Y-61000000I0J1000000D01*
G01*
X45000000Y-72000000D02*
G75*
G03*
X47000000Y-72000000I1000000J0D01*
G01*
X52000000Y-93000000D02*
G75*
G03*
X52000000Y-95000000I0J-1000000D01*
G01*
X84600000Y-54000000D02*
X80042893Y-49457107D01*
X122542893Y-107957107D02*
G75*
G03*
X123957107Y-106542893I707107J707107D01*
G01*
M02*
