%TF.GenerationSoftware,KiCad,Pcbnew,7.0.2*%
%TF.CreationDate,2023-11-05T16:37:23-05:00*%
%TF.ProjectId,PokerTips,506f6b65-7254-4697-9073-2e6b69636164,rev?*%
%TF.SameCoordinates,Original*%
%TF.FileFunction,Drillmap*%
%TF.FilePolarity,Positive*%
%FSLAX45Y45*%
G04 Gerber Fmt 4.5, Leading zero omitted, Abs format (unit mm)*
G04 Created by KiCad (PCBNEW 7.0.2) date 2023-11-05 16:37:23*
%MOMM*%
%LPD*%
G01*
G04 APERTURE LIST*
%ADD10C,0.100000*%
%ADD11C,0.200000*%
G04 APERTURE END LIST*
D10*
X6300000Y-5600000D02*
X6300000Y-5200000D01*
X7700000Y-5600000D02*
X7700000Y-5200000D01*
X10200000Y-10340000D02*
X10654289Y-10795711D01*
X12600000Y-11500000D02*
G75*
G03*
X12500000Y-11600000I0J-100000D01*
G01*
X11940000Y-10200000D02*
X12395711Y-10654289D01*
X5260000Y-3800000D02*
X4700000Y-3800000D01*
X10340000Y-7000000D02*
X10795711Y-6545711D01*
X12945711Y-8004289D02*
G75*
G03*
X12804289Y-8145711I-70711J-70711D01*
G01*
X9604289Y-4254289D02*
G75*
G03*
X9745711Y-4395711I70711J-70711D01*
G01*
X7140000Y-10200000D02*
X7595711Y-9745711D01*
X4500000Y-4000000D02*
X4500000Y-3800000D01*
X5854289Y-7595711D02*
G75*
G03*
X5995711Y-7454289I70711J70711D01*
G01*
X11100000Y-7200000D02*
X11100000Y-6800000D01*
X5200000Y-10900000D02*
X5600000Y-10900000D01*
X6545711Y-8004289D02*
G75*
G03*
X6404289Y-8145711I-70711J-70711D01*
G01*
X13400000Y-6300000D02*
X13400000Y-6860000D01*
X8800000Y-12700000D02*
G75*
G03*
X8900000Y-12600000I0J100000D01*
G01*
X7454289Y-9195711D02*
G75*
G03*
X7595711Y-9054289I70711J70711D01*
G01*
X13400000Y-12700000D02*
X13400000Y-13260000D01*
X12500000Y-7200000D02*
X12500000Y-6800000D01*
X13400000Y-6860000D02*
X12945711Y-6404289D01*
X13400000Y-12700000D02*
X13200000Y-12700000D01*
X7000000Y-11940000D02*
X6545711Y-12395711D01*
X11100000Y-10000000D02*
G75*
G03*
X10900000Y-10000000I-100000J0D01*
G01*
X10000000Y-9300000D02*
X10400000Y-9300000D01*
X10200000Y-5260000D02*
X10654289Y-4804289D01*
X11800000Y-10340000D02*
X12254289Y-10795711D01*
X6800000Y-4500000D02*
X7200000Y-4500000D01*
X7140000Y-7000000D02*
X7595711Y-6545711D01*
X4500000Y-12000000D02*
X4500000Y-11600000D01*
X4804289Y-12254289D02*
G75*
G03*
X4945711Y-12395711I70711J-70711D01*
G01*
X4945711Y-12804289D02*
G75*
G03*
X4804289Y-12945711I-70711J-70711D01*
G01*
X10400000Y-11100000D02*
G75*
G03*
X10400000Y-10900000I0J100000D01*
G01*
X3800000Y-10340000D02*
X4254289Y-10795711D01*
X4804289Y-10654289D02*
G75*
G03*
X4945711Y-10795711I70711J-70711D01*
G01*
X5200000Y-7900000D02*
X5600000Y-7900000D01*
X8004289Y-7454289D02*
G75*
G03*
X8145711Y-7595711I70711J-70711D01*
G01*
X7140000Y-11800000D02*
X7595711Y-12254289D01*
X11800000Y-6860000D02*
X11345711Y-6404289D01*
X8600000Y-10340000D02*
X9054289Y-10795711D01*
X8300000Y-12600000D02*
G75*
G03*
X8400000Y-12700000I100000J0D01*
G01*
X9300000Y-12000000D02*
X9300000Y-11600000D01*
X12000000Y-12700000D02*
G75*
G03*
X12100000Y-12600000I0J100000D01*
G01*
X13260000Y-10200000D02*
X12804289Y-9745711D01*
X8600000Y-11660000D02*
X9054289Y-11204289D01*
X11940000Y-5400000D02*
X12395711Y-4945711D01*
X5400000Y-11660000D02*
X5854289Y-11204289D01*
X12395711Y-9745711D02*
G75*
G03*
X12254289Y-9604289I-70711J70711D01*
G01*
X12804289Y-7454289D02*
G75*
G03*
X12945711Y-7595711I70711J-70711D01*
G01*
X11345711Y-11204289D02*
G75*
G03*
X11204289Y-11345711I-70711J-70711D01*
G01*
X6800000Y-12500000D02*
G75*
G03*
X6700000Y-12600000I0J-100000D01*
G01*
X9300000Y-4000000D02*
G75*
G03*
X9500000Y-4000000I100000J0D01*
G01*
X5400000Y-8460000D02*
X5854289Y-8004289D01*
X8600000Y-8460000D02*
X8145711Y-8004289D01*
X11800000Y-6860000D02*
X12254289Y-6404289D01*
X11345711Y-9604289D02*
G75*
G03*
X11204289Y-9745711I-70711J-70711D01*
G01*
X3800000Y-3940000D02*
X4254289Y-4395711D01*
X3800000Y-8460000D02*
X4254289Y-8004289D01*
X6860000Y-10200000D02*
X6404289Y-9745711D01*
X6800000Y-11100000D02*
X7200000Y-11100000D01*
X4395711Y-4945711D02*
G75*
G03*
X4254289Y-4804289I-70711J70711D01*
G01*
X13260000Y-7000000D02*
X12804289Y-7454289D01*
X5540000Y-8600000D02*
X5995711Y-9054289D01*
X12500000Y-7200000D02*
G75*
G03*
X12600000Y-7300000I100000J0D01*
G01*
X7200000Y-12700000D02*
X6800000Y-12700000D01*
X7700000Y-4000000D02*
G75*
G03*
X7900000Y-4000000I100000J0D01*
G01*
X5995711Y-8145711D02*
G75*
G03*
X5854289Y-8004289I-70711J70711D01*
G01*
X10900000Y-10400000D02*
G75*
G03*
X11100000Y-10400000I100000J0D01*
G01*
X13260000Y-8600000D02*
X12804289Y-8145711D01*
X5260000Y-8600000D02*
X4804289Y-8145711D01*
X9300000Y-13200000D02*
X9300000Y-13400000D01*
X5854289Y-10795711D02*
G75*
G03*
X5995711Y-10654289I70711J70711D01*
G01*
X13400000Y-5540000D02*
X13400000Y-6100000D01*
X11660000Y-3800000D02*
X11100000Y-3800000D01*
X11800000Y-3940000D02*
X11345711Y-4395711D01*
X10340000Y-10200000D02*
X10795711Y-10654289D01*
X8600000Y-6860000D02*
X8145711Y-6404289D01*
X5400000Y-10060000D02*
X4945711Y-9604289D01*
X11600000Y-4700000D02*
X12000000Y-4700000D01*
X8800000Y-11100000D02*
G75*
G03*
X8800000Y-10900000I0J100000D01*
G01*
X11600000Y-12500000D02*
G75*
G03*
X11500000Y-12600000I0J-100000D01*
G01*
X11940000Y-8600000D02*
X12395711Y-9054289D01*
X13260000Y-11800000D02*
X12804289Y-11345711D01*
X5200000Y-12500000D02*
X5600000Y-12500000D01*
X12000000Y-6300000D02*
G75*
G03*
X12000000Y-6100000I0J100000D01*
G01*
X8400000Y-6300000D02*
X8800000Y-6300000D01*
X11660000Y-7000000D02*
X11204289Y-7454289D01*
X6545711Y-11204289D02*
G75*
G03*
X6404289Y-11345711I-70711J-70711D01*
G01*
X4945711Y-11204289D02*
G75*
G03*
X4804289Y-11345711I-70711J-70711D01*
G01*
X5200000Y-6100000D02*
G75*
G03*
X5200000Y-6300000I0J-100000D01*
G01*
X11800000Y-11660000D02*
X12254289Y-11204289D01*
X4500000Y-4000000D02*
G75*
G03*
X4700000Y-4000000I100000J0D01*
G01*
X8600000Y-13260000D02*
X8145711Y-12804289D01*
X4700000Y-8400000D02*
G75*
G03*
X4500000Y-8400000I-100000J0D01*
G01*
X8460000Y-13400000D02*
X8004289Y-12945711D01*
X7140000Y-11800000D02*
X7595711Y-11345711D01*
X5540000Y-11800000D02*
X5995711Y-11345711D01*
X9900000Y-12600000D02*
G75*
G03*
X10000000Y-12700000I100000J0D01*
G01*
X6404289Y-9054289D02*
G75*
G03*
X6545711Y-9195711I70711J-70711D01*
G01*
X8400000Y-12500000D02*
X8800000Y-12500000D01*
X10200000Y-11940000D02*
X9745711Y-12395711D01*
X3940000Y-7000000D02*
X4395711Y-7454289D01*
X6860000Y-10200000D02*
X6404289Y-10654289D01*
X3800000Y-7140000D02*
X4254289Y-7595711D01*
X13260000Y-3800000D02*
X12804289Y-4254289D01*
X4395711Y-11345711D02*
G75*
G03*
X4254289Y-11204289I-70711J70711D01*
G01*
X6860000Y-5400000D02*
X6404289Y-5854289D01*
X10795711Y-11345711D02*
G75*
G03*
X10654289Y-11204289I-70711J70711D01*
G01*
X8600000Y-10060000D02*
X8145711Y-9604289D01*
X10340000Y-7000000D02*
X10795711Y-7454289D01*
X4945711Y-6404289D02*
G75*
G03*
X4804289Y-6545711I-70711J-70711D01*
G01*
X8600000Y-7140000D02*
X9054289Y-7595711D01*
X7000000Y-11660000D02*
X7454289Y-11204289D01*
X12700000Y-8400000D02*
G75*
G03*
X12600000Y-8300000I-100000J0D01*
G01*
X8460000Y-11800000D02*
X8004289Y-11345711D01*
X11600000Y-9300000D02*
X12000000Y-9300000D01*
X11800000Y-10060000D02*
X11345711Y-9604289D01*
X8600000Y-13260000D02*
X9054289Y-12804289D01*
X13400000Y-9500000D02*
X13400000Y-10060000D01*
X9500000Y-5200000D02*
G75*
G03*
X9300000Y-5200000I-100000J0D01*
G01*
X6860000Y-5400000D02*
X6404289Y-4945711D01*
X3940000Y-8600000D02*
X4395711Y-8145711D01*
X5400000Y-11660000D02*
X4945711Y-11204289D01*
X13400000Y-10900000D02*
X13200000Y-10900000D01*
X7000000Y-5540000D02*
X7454289Y-5995711D01*
X5400000Y-13260000D02*
X5854289Y-12804289D01*
X9500000Y-5600000D02*
X9500000Y-5200000D01*
X11940000Y-8600000D02*
X12395711Y-8145711D01*
X8600000Y-11940000D02*
X9054289Y-12395711D01*
X7900000Y-8800000D02*
X7900000Y-8400000D01*
X7000000Y-8460000D02*
X6545711Y-8004289D01*
X10340000Y-13400000D02*
X10795711Y-12945711D01*
X7000000Y-13260000D02*
X6545711Y-12804289D01*
X6800000Y-9300000D02*
G75*
G03*
X6800000Y-9500000I0J-100000D01*
G01*
X13400000Y-9300000D02*
X13200000Y-9300000D01*
X11345711Y-8004289D02*
G75*
G03*
X11204289Y-8145711I-70711J-70711D01*
G01*
X3800000Y-7900000D02*
X4000000Y-7900000D01*
X13400000Y-4500000D02*
X13200000Y-4500000D01*
X11600000Y-7700000D02*
X12000000Y-7700000D01*
X13260000Y-7000000D02*
X12804289Y-6545711D01*
X7595711Y-9745711D02*
G75*
G03*
X7454289Y-9604289I-70711J70711D01*
G01*
X11800000Y-10060000D02*
X12254289Y-9604289D01*
X5200000Y-9300000D02*
X5600000Y-9300000D01*
X10060000Y-3800000D02*
X9500000Y-3800000D01*
X4804289Y-5854289D02*
G75*
G03*
X4945711Y-5995711I70711J-70711D01*
G01*
X7595711Y-11345711D02*
G75*
G03*
X7454289Y-11204289I-70711J70711D01*
G01*
X11660000Y-8600000D02*
X11204289Y-8145711D01*
X8740000Y-3800000D02*
X9195711Y-4254289D01*
X12500000Y-5600000D02*
G75*
G03*
X12600000Y-5700000I100000J0D01*
G01*
X5260000Y-11800000D02*
X4804289Y-12254289D01*
X5400000Y-10340000D02*
X4945711Y-10795711D01*
X13260000Y-5400000D02*
X12804289Y-5854289D01*
X5200000Y-4500000D02*
G75*
G03*
X5200000Y-4700000I0J-100000D01*
G01*
X3800000Y-11660000D02*
X4254289Y-11204289D01*
X12000000Y-11100000D02*
G75*
G03*
X12000000Y-10900000I0J100000D01*
G01*
X10400000Y-12700000D02*
X10000000Y-12700000D01*
X7700000Y-8800000D02*
G75*
G03*
X7900000Y-8800000I100000J0D01*
G01*
X6404289Y-7454289D02*
G75*
G03*
X6545711Y-7595711I70711J-70711D01*
G01*
X8460000Y-8600000D02*
X8004289Y-8145711D01*
X4700000Y-5600000D02*
X4700000Y-5200000D01*
X7900000Y-11600000D02*
G75*
G03*
X7700000Y-11600000I-100000J0D01*
G01*
X6800000Y-10900000D02*
G75*
G03*
X6800000Y-11100000I0J-100000D01*
G01*
X10000000Y-6300000D02*
X10400000Y-6300000D01*
X13400000Y-5260000D02*
X12945711Y-4804289D01*
X4500000Y-13400000D02*
X3940000Y-13400000D01*
X6860000Y-8600000D02*
X6404289Y-8145711D01*
X6100000Y-10400000D02*
X6100000Y-10000000D01*
X7700000Y-13400000D02*
X7140000Y-13400000D01*
X12500000Y-10400000D02*
X12500000Y-10000000D01*
X5200000Y-4700000D02*
X5600000Y-4700000D01*
X12500000Y-8800000D02*
G75*
G03*
X12600000Y-8900000I100000J0D01*
G01*
X3800000Y-6860000D02*
X4254289Y-6404289D01*
X7900000Y-12000000D02*
X7900000Y-11600000D01*
X13400000Y-11940000D02*
X13400000Y-12500000D01*
X5540000Y-3800000D02*
X5995711Y-4254289D01*
X5995711Y-12945711D02*
G75*
G03*
X5854289Y-12804289I-70711J70711D01*
G01*
X8145711Y-12804289D02*
G75*
G03*
X8004289Y-12945711I-70711J-70711D01*
G01*
X13400000Y-11940000D02*
X12945711Y-12395711D01*
X5260000Y-13400000D02*
X4804289Y-12945711D01*
X8740000Y-8600000D02*
X9195711Y-8145711D01*
X10900000Y-12000000D02*
G75*
G03*
X11100000Y-12000000I100000J0D01*
G01*
X4700000Y-4000000D02*
X4700000Y-3800000D01*
X9300000Y-8800000D02*
X9300000Y-8400000D01*
X13400000Y-7140000D02*
X13400000Y-7700000D01*
X8400000Y-9500000D02*
X8800000Y-9500000D01*
X10200000Y-6860000D02*
X10654289Y-6404289D01*
X3800000Y-5540000D02*
X4254289Y-5995711D01*
X7140000Y-13400000D02*
X7595711Y-12945711D01*
X9300000Y-5600000D02*
G75*
G03*
X9500000Y-5600000I100000J0D01*
G01*
X6545711Y-6404289D02*
G75*
G03*
X6404289Y-6545711I-70711J-70711D01*
G01*
X4254289Y-5995711D02*
G75*
G03*
X4395711Y-5854289I70711J70711D01*
G01*
X7454289Y-7595711D02*
G75*
G03*
X7595711Y-7454289I70711J70711D01*
G01*
X7595711Y-6545711D02*
G75*
G03*
X7454289Y-6404289I-70711J70711D01*
G01*
X6860000Y-3800000D02*
X6300000Y-3800000D01*
X4500000Y-7200000D02*
X4500000Y-6800000D01*
X8400000Y-7900000D02*
X8800000Y-7900000D01*
X3800000Y-10060000D02*
X3800000Y-9500000D01*
X9054289Y-9195711D02*
G75*
G03*
X9195711Y-9054289I70711J70711D01*
G01*
X11800000Y-8460000D02*
X12254289Y-8004289D01*
X6800000Y-9300000D02*
X7200000Y-9300000D01*
X5200000Y-6300000D02*
X5600000Y-6300000D01*
X6300000Y-6800000D02*
G75*
G03*
X6100000Y-6800000I-100000J0D01*
G01*
X7000000Y-7140000D02*
X6545711Y-7595711D01*
X12945711Y-4804289D02*
G75*
G03*
X12804289Y-4945711I-70711J-70711D01*
G01*
X8600000Y-10340000D02*
X8145711Y-10795711D01*
X12600000Y-8300000D02*
G75*
G03*
X12500000Y-8400000I0J-100000D01*
G01*
X10200000Y-8740000D02*
X10654289Y-9195711D01*
X9604289Y-5854289D02*
G75*
G03*
X9745711Y-5995711I70711J-70711D01*
G01*
X3940000Y-13400000D02*
X4395711Y-12945711D01*
X13400000Y-10340000D02*
X12945711Y-10795711D01*
X5700000Y-12600000D02*
G75*
G03*
X5600000Y-12500000I-100000J0D01*
G01*
X9745711Y-11204289D02*
G75*
G03*
X9604289Y-11345711I-70711J-70711D01*
G01*
X4500000Y-8800000D02*
G75*
G03*
X4700000Y-8800000I100000J0D01*
G01*
X5200000Y-12500000D02*
G75*
G03*
X5100000Y-12600000I0J-100000D01*
G01*
X5260000Y-5400000D02*
X4804289Y-4945711D01*
X5200000Y-7700000D02*
G75*
G03*
X5200000Y-7900000I0J-100000D01*
G01*
X3800000Y-5260000D02*
X3800000Y-4700000D01*
X6100000Y-13200000D02*
X6100000Y-13400000D01*
X13400000Y-3940000D02*
X13400000Y-4500000D01*
X7900000Y-13200000D02*
G75*
G03*
X7700000Y-13200000I-100000J0D01*
G01*
X5260000Y-10200000D02*
X4804289Y-9745711D01*
X5854289Y-4395711D02*
G75*
G03*
X5995711Y-4254289I70711J70711D01*
G01*
X12000000Y-7900000D02*
G75*
G03*
X12000000Y-7700000I0J100000D01*
G01*
X5600000Y-9500000D02*
G75*
G03*
X5600000Y-9300000I0J100000D01*
G01*
X5400000Y-8740000D02*
X4945711Y-9195711D01*
X4804289Y-9054289D02*
G75*
G03*
X4945711Y-9195711I70711J-70711D01*
G01*
X4700000Y-5200000D02*
G75*
G03*
X4500000Y-5200000I-100000J0D01*
G01*
X5200000Y-6100000D02*
X5600000Y-6100000D01*
X13400000Y-10340000D02*
X13400000Y-10900000D01*
X5260000Y-3800000D02*
X4804289Y-4254289D01*
X7000000Y-6860000D02*
X7454289Y-6404289D01*
X10200000Y-11660000D02*
X10654289Y-11204289D01*
X3800000Y-6300000D02*
X4000000Y-6300000D01*
X11600000Y-9300000D02*
G75*
G03*
X11600000Y-9500000I0J-100000D01*
G01*
X13400000Y-6300000D02*
X13200000Y-6300000D01*
X5400000Y-7140000D02*
X5854289Y-7595711D01*
X11800000Y-5260000D02*
X12254289Y-4804289D01*
X3800000Y-7700000D02*
X3800000Y-7140000D01*
X5400000Y-11940000D02*
X5854289Y-12395711D01*
X8004289Y-9054289D02*
G75*
G03*
X8145711Y-9195711I70711J-70711D01*
G01*
X11800000Y-8740000D02*
X12254289Y-9195711D01*
X13400000Y-4700000D02*
X13400000Y-5260000D01*
X11800000Y-5260000D02*
X11345711Y-4804289D01*
X10060000Y-7000000D02*
X9604289Y-7454289D01*
X9500000Y-11600000D02*
G75*
G03*
X9300000Y-11600000I-100000J0D01*
G01*
X12500000Y-12000000D02*
X12500000Y-11600000D01*
X13400000Y-8740000D02*
X12945711Y-9195711D01*
X6404289Y-4254289D02*
G75*
G03*
X6545711Y-4395711I70711J-70711D01*
G01*
X8800000Y-9500000D02*
G75*
G03*
X8800000Y-9300000I0J100000D01*
G01*
X8740000Y-10200000D02*
X9195711Y-10654289D01*
X5100000Y-12600000D02*
G75*
G03*
X5200000Y-12700000I100000J0D01*
G01*
X11660000Y-5400000D02*
X11204289Y-5854289D01*
X13200000Y-7700000D02*
G75*
G03*
X13200000Y-7900000I0J-100000D01*
G01*
X8460000Y-10200000D02*
X8004289Y-9745711D01*
X11600000Y-7900000D02*
X12000000Y-7900000D01*
X4000000Y-4700000D02*
G75*
G03*
X4000000Y-4500000I0J100000D01*
G01*
X10900000Y-5600000D02*
X10900000Y-5200000D01*
X5400000Y-3940000D02*
X4945711Y-4395711D01*
X7000000Y-8740000D02*
X7454289Y-9195711D01*
X6800000Y-12500000D02*
X7200000Y-12500000D01*
X10900000Y-7200000D02*
X10900000Y-6800000D01*
X8740000Y-7000000D02*
X9195711Y-6545711D01*
X7900000Y-8400000D02*
G75*
G03*
X7700000Y-8400000I-100000J0D01*
G01*
X8600000Y-8460000D02*
X9054289Y-8004289D01*
X11100000Y-5600000D02*
X11100000Y-5200000D01*
X6800000Y-10900000D02*
X7200000Y-10900000D01*
X9500000Y-8400000D02*
G75*
G03*
X9300000Y-8400000I-100000J0D01*
G01*
X10654289Y-4395711D02*
G75*
G03*
X10795711Y-4254289I70711J70711D01*
G01*
X3800000Y-12500000D02*
X3800000Y-11940000D01*
X10200000Y-10060000D02*
X10654289Y-9604289D01*
X8004289Y-10654289D02*
G75*
G03*
X8145711Y-10795711I70711J-70711D01*
G01*
X4254289Y-4395711D02*
G75*
G03*
X4395711Y-4254289I70711J70711D01*
G01*
X7000000Y-5260000D02*
X6545711Y-4804289D01*
X10060000Y-8600000D02*
X9604289Y-8145711D01*
X8460000Y-7000000D02*
X8004289Y-6545711D01*
X9054289Y-7595711D02*
G75*
G03*
X9195711Y-7454289I70711J70711D01*
G01*
X8740000Y-5400000D02*
X9195711Y-5854289D01*
X4945711Y-4804289D02*
G75*
G03*
X4804289Y-4945711I-70711J-70711D01*
G01*
X12500000Y-13400000D02*
X11940000Y-13400000D01*
X9195711Y-4945711D02*
G75*
G03*
X9054289Y-4804289I-70711J70711D01*
G01*
X4500000Y-12000000D02*
G75*
G03*
X4700000Y-12000000I100000J0D01*
G01*
X8400000Y-9300000D02*
X8800000Y-9300000D01*
X12804289Y-10654289D02*
G75*
G03*
X12945711Y-10795711I70711J-70711D01*
G01*
X10900000Y-3800000D02*
X10340000Y-3800000D01*
X8600000Y-3940000D02*
X9054289Y-4395711D01*
X12395711Y-11345711D02*
G75*
G03*
X12254289Y-11204289I-70711J70711D01*
G01*
X11600000Y-11100000D02*
X12000000Y-11100000D01*
X10900000Y-10400000D02*
X10900000Y-10000000D01*
X9500000Y-7200000D02*
X9500000Y-6800000D01*
X4500000Y-13400000D02*
X4500000Y-13200000D01*
X10000000Y-4500000D02*
X10400000Y-4500000D01*
X10060000Y-5400000D02*
X9604289Y-4945711D01*
X3800000Y-6860000D02*
X3800000Y-6300000D01*
X8004289Y-4254289D02*
G75*
G03*
X8145711Y-4395711I70711J-70711D01*
G01*
X13260000Y-8600000D02*
X12804289Y-9054289D01*
X3800000Y-9500000D02*
X4000000Y-9500000D01*
X13260000Y-13400000D02*
X12804289Y-12945711D01*
X11100000Y-5200000D02*
G75*
G03*
X10900000Y-5200000I-100000J0D01*
G01*
X7900000Y-7200000D02*
X7900000Y-6800000D01*
X10900000Y-4000000D02*
G75*
G03*
X11100000Y-4000000I100000J0D01*
G01*
X10000000Y-10900000D02*
G75*
G03*
X10000000Y-11100000I0J-100000D01*
G01*
X6300000Y-11600000D02*
G75*
G03*
X6100000Y-11600000I-100000J0D01*
G01*
X9300000Y-8800000D02*
G75*
G03*
X9500000Y-8800000I100000J0D01*
G01*
X5400000Y-13260000D02*
X4945711Y-12804289D01*
X7700000Y-13200000D02*
X7700000Y-13400000D01*
X6300000Y-7200000D02*
X6300000Y-6800000D01*
X9054289Y-12395711D02*
G75*
G03*
X9195711Y-12254289I70711J70711D01*
G01*
X12945711Y-11204289D02*
G75*
G03*
X12804289Y-11345711I-70711J-70711D01*
G01*
X9195711Y-11345711D02*
G75*
G03*
X9054289Y-11204289I-70711J70711D01*
G01*
X5600000Y-4700000D02*
G75*
G03*
X5600000Y-4500000I0J100000D01*
G01*
X6800000Y-7700000D02*
X7200000Y-7700000D01*
X7700000Y-4000000D02*
X7700000Y-3800000D01*
X10060000Y-13400000D02*
X9500000Y-13400000D01*
X11940000Y-10200000D02*
X12395711Y-9745711D01*
X10060000Y-8600000D02*
X9604289Y-9054289D01*
X4700000Y-11600000D02*
G75*
G03*
X4500000Y-11600000I-100000J0D01*
G01*
X9195711Y-6545711D02*
G75*
G03*
X9054289Y-6404289I-70711J70711D01*
G01*
X4600000Y-13100000D02*
G75*
G03*
X4500000Y-13200000I0J-100000D01*
G01*
X10060000Y-10200000D02*
X9604289Y-10654289D01*
X12600000Y-9900000D02*
G75*
G03*
X12500000Y-10000000I0J-100000D01*
G01*
X6100000Y-12000000D02*
X6100000Y-11600000D01*
X10400000Y-7900000D02*
G75*
G03*
X10400000Y-7700000I0J100000D01*
G01*
X11100000Y-12000000D02*
X11100000Y-11600000D01*
X13200000Y-6100000D02*
G75*
G03*
X13200000Y-6300000I0J-100000D01*
G01*
X3800000Y-8740000D02*
X4254289Y-9195711D01*
X9500000Y-4000000D02*
X9500000Y-3800000D01*
X4000000Y-6300000D02*
G75*
G03*
X4000000Y-6100000I0J100000D01*
G01*
X10900000Y-13200000D02*
X10900000Y-13400000D01*
X11600000Y-10900000D02*
G75*
G03*
X11600000Y-11100000I0J-100000D01*
G01*
X8600000Y-3940000D02*
X8145711Y-4395711D01*
X3940000Y-11800000D02*
X4395711Y-11345711D01*
X6800000Y-7900000D02*
X7200000Y-7900000D01*
X11345711Y-12804289D02*
G75*
G03*
X11204289Y-12945711I-70711J-70711D01*
G01*
X13260000Y-13400000D02*
X12700000Y-13400000D01*
X6860000Y-13400000D02*
X6300000Y-13400000D01*
X8600000Y-5260000D02*
X8145711Y-4804289D01*
X7000000Y-11940000D02*
X7454289Y-12395711D01*
X11660000Y-5400000D02*
X11204289Y-4945711D01*
X6860000Y-7000000D02*
X6404289Y-7454289D01*
X6860000Y-7000000D02*
X6404289Y-6545711D01*
X3800000Y-7700000D02*
X4000000Y-7700000D01*
X6404289Y-12254289D02*
G75*
G03*
X6545711Y-12395711I70711J-70711D01*
G01*
X7000000Y-13260000D02*
X7454289Y-12804289D01*
X13260000Y-3800000D02*
X12700000Y-3800000D01*
X12804289Y-9054289D02*
G75*
G03*
X12945711Y-9195711I70711J-70711D01*
G01*
X5260000Y-8600000D02*
X4804289Y-9054289D01*
X13400000Y-9500000D02*
X13200000Y-9500000D01*
X12600000Y-12100000D02*
G75*
G03*
X12700000Y-12000000I0J100000D01*
G01*
X5540000Y-10200000D02*
X5995711Y-10654289D01*
X12500000Y-4000000D02*
G75*
G03*
X12600000Y-4100000I100000J0D01*
G01*
X5200000Y-10900000D02*
G75*
G03*
X5200000Y-11100000I0J-100000D01*
G01*
X12254289Y-5995711D02*
G75*
G03*
X12395711Y-5854289I70711J70711D01*
G01*
X8400000Y-12500000D02*
G75*
G03*
X8300000Y-12600000I0J-100000D01*
G01*
X3940000Y-10200000D02*
X4395711Y-9745711D01*
X4000000Y-7900000D02*
G75*
G03*
X4000000Y-7700000I0J100000D01*
G01*
X8460000Y-10200000D02*
X8004289Y-10654289D01*
X8600000Y-5260000D02*
X9054289Y-4804289D01*
X10340000Y-8600000D02*
X10795711Y-9054289D01*
X4700000Y-10400000D02*
X4700000Y-10000000D01*
X5260000Y-7000000D02*
X4804289Y-7454289D01*
X8460000Y-3800000D02*
X8004289Y-4254289D01*
X11660000Y-10200000D02*
X11204289Y-10654289D01*
X6800000Y-7700000D02*
G75*
G03*
X6800000Y-7900000I0J-100000D01*
G01*
X5260000Y-7000000D02*
X4804289Y-6545711D01*
X6100000Y-4000000D02*
G75*
G03*
X6300000Y-4000000I100000J0D01*
G01*
X7200000Y-4700000D02*
G75*
G03*
X7200000Y-4500000I0J100000D01*
G01*
X8004289Y-12254289D02*
G75*
G03*
X8145711Y-12395711I70711J-70711D01*
G01*
X12700000Y-3800000D02*
X12700000Y-4000000D01*
X3800000Y-12700000D02*
X4000000Y-12700000D01*
X6300000Y-13200000D02*
X6300000Y-13400000D01*
X6300000Y-5200000D02*
G75*
G03*
X6100000Y-5200000I-100000J0D01*
G01*
X10200000Y-8740000D02*
X9745711Y-9195711D01*
X12804289Y-5854289D02*
G75*
G03*
X12945711Y-5995711I70711J-70711D01*
G01*
X8460000Y-7000000D02*
X8004289Y-7454289D01*
X10654289Y-9195711D02*
G75*
G03*
X10795711Y-9054289I70711J70711D01*
G01*
X13400000Y-11100000D02*
X13400000Y-11660000D01*
X7140000Y-8600000D02*
X7595711Y-9054289D01*
X7700000Y-10400000D02*
G75*
G03*
X7900000Y-10400000I100000J0D01*
G01*
X6100000Y-4000000D02*
X6100000Y-3800000D01*
X12700000Y-8400000D02*
X12700000Y-8800000D01*
X8900000Y-12600000D02*
G75*
G03*
X8800000Y-12500000I-100000J0D01*
G01*
X3800000Y-10900000D02*
X3800000Y-10340000D01*
X8600000Y-10060000D02*
X9054289Y-9604289D01*
X11100000Y-13200000D02*
G75*
G03*
X10900000Y-13200000I-100000J0D01*
G01*
X7900000Y-10400000D02*
X7900000Y-10000000D01*
X13400000Y-13260000D02*
X12945711Y-12804289D01*
X11940000Y-5400000D02*
X12395711Y-5854289D01*
X12945711Y-9604289D02*
G75*
G03*
X12804289Y-9745711I-70711J-70711D01*
G01*
X5995711Y-11345711D02*
G75*
G03*
X5854289Y-11204289I-70711J70711D01*
G01*
X11660000Y-13400000D02*
X11204289Y-12945711D01*
X6860000Y-11800000D02*
X6404289Y-11345711D01*
X6800000Y-4700000D02*
X7200000Y-4700000D01*
X11204289Y-10654289D02*
G75*
G03*
X11345711Y-10795711I70711J-70711D01*
G01*
X9300000Y-13400000D02*
X8740000Y-13400000D01*
X7000000Y-3940000D02*
X6545711Y-4395711D01*
X3800000Y-13260000D02*
X3800000Y-12700000D01*
X13400000Y-8460000D02*
X12945711Y-8004289D01*
X12700000Y-5200000D02*
G75*
G03*
X12600000Y-5100000I-100000J0D01*
G01*
X6404289Y-10654289D02*
G75*
G03*
X6545711Y-10795711I70711J-70711D01*
G01*
X3800000Y-11940000D02*
X4254289Y-12395711D01*
X7000000Y-5540000D02*
X6545711Y-5995711D01*
X9500000Y-10000000D02*
G75*
G03*
X9300000Y-10000000I-100000J0D01*
G01*
X11800000Y-10340000D02*
X11345711Y-10795711D01*
X4700000Y-13200000D02*
X4700000Y-13400000D01*
X5400000Y-6860000D02*
X5854289Y-6404289D01*
X8460000Y-13400000D02*
X7900000Y-13400000D01*
X4395711Y-6545711D02*
G75*
G03*
X4254289Y-6404289I-70711J70711D01*
G01*
X5260000Y-10200000D02*
X4804289Y-10654289D01*
X12600000Y-5100000D02*
G75*
G03*
X12500000Y-5200000I0J-100000D01*
G01*
X11204289Y-9054289D02*
G75*
G03*
X11345711Y-9195711I70711J-70711D01*
G01*
X3800000Y-10060000D02*
X4254289Y-9604289D01*
X5540000Y-13400000D02*
X5995711Y-12945711D01*
X6545711Y-9604289D02*
G75*
G03*
X6404289Y-9745711I-70711J-70711D01*
G01*
X4945711Y-9604289D02*
G75*
G03*
X4804289Y-9745711I-70711J-70711D01*
G01*
X9500000Y-12000000D02*
X9500000Y-11600000D01*
X12600000Y-5700000D02*
G75*
G03*
X12700000Y-5600000I0J100000D01*
G01*
X7900000Y-13200000D02*
X7900000Y-13400000D01*
X7900000Y-10000000D02*
G75*
G03*
X7700000Y-10000000I-100000J0D01*
G01*
X12600000Y-8900000D02*
G75*
G03*
X12700000Y-8800000I0J100000D01*
G01*
X9604289Y-12254289D02*
G75*
G03*
X9745711Y-12395711I70711J-70711D01*
G01*
X12500000Y-13200000D02*
X12500000Y-13400000D01*
X5400000Y-7140000D02*
X4945711Y-7595711D01*
X5540000Y-10200000D02*
X5995711Y-9745711D01*
X11800000Y-8740000D02*
X11345711Y-9195711D01*
X6300000Y-12000000D02*
X6300000Y-11600000D01*
X10000000Y-7700000D02*
X10400000Y-7700000D01*
X12395711Y-8145711D02*
G75*
G03*
X12254289Y-8004289I-70711J70711D01*
G01*
X10200000Y-5540000D02*
X9745711Y-5995711D01*
X11800000Y-7140000D02*
X12254289Y-7595711D01*
X10200000Y-10060000D02*
X9745711Y-9604289D01*
X10340000Y-5400000D02*
X10795711Y-5854289D01*
X10340000Y-3800000D02*
X10795711Y-4254289D01*
X12395711Y-4945711D02*
G75*
G03*
X12254289Y-4804289I-70711J70711D01*
G01*
X3940000Y-10200000D02*
X4395711Y-10654289D01*
X9054289Y-10795711D02*
G75*
G03*
X9195711Y-10654289I70711J70711D01*
G01*
X11100000Y-13200000D02*
X11100000Y-13400000D01*
X10000000Y-7900000D02*
X10400000Y-7900000D01*
X11800000Y-11940000D02*
X12254289Y-12395711D01*
X11800000Y-5540000D02*
X12254289Y-5995711D01*
X8600000Y-7140000D02*
X8145711Y-7595711D01*
X11100000Y-11600000D02*
G75*
G03*
X10900000Y-11600000I-100000J0D01*
G01*
X11940000Y-11800000D02*
X12395711Y-11345711D01*
X8400000Y-4700000D02*
X8800000Y-4700000D01*
X12700000Y-13200000D02*
G75*
G03*
X12500000Y-13200000I-100000J0D01*
G01*
X13200000Y-12500000D02*
G75*
G03*
X13100000Y-12600000I0J-100000D01*
G01*
X11940000Y-13400000D02*
X12395711Y-12945711D01*
X8600000Y-5540000D02*
X9054289Y-5995711D01*
X7000000Y-10340000D02*
X6545711Y-10795711D01*
X7700000Y-7200000D02*
X7700000Y-6800000D01*
X11100000Y-4000000D02*
X11100000Y-3800000D01*
X11600000Y-6100000D02*
G75*
G03*
X11600000Y-6300000I0J-100000D01*
G01*
X5200000Y-11100000D02*
X5600000Y-11100000D01*
X6800000Y-6100000D02*
X7200000Y-6100000D01*
X5854289Y-12395711D02*
G75*
G03*
X5995711Y-12254289I70711J70711D01*
G01*
X11660000Y-10200000D02*
X11204289Y-9745711D01*
X5400000Y-10060000D02*
X5854289Y-9604289D01*
X13400000Y-7700000D02*
X13200000Y-7700000D01*
X5540000Y-5400000D02*
X5995711Y-4945711D01*
X9300000Y-12000000D02*
G75*
G03*
X9500000Y-12000000I100000J0D01*
G01*
X11600000Y-6300000D02*
X12000000Y-6300000D01*
X10000000Y-11100000D02*
X10400000Y-11100000D01*
X12700000Y-6800000D02*
G75*
G03*
X12600000Y-6700000I-100000J0D01*
G01*
X11600000Y-4500000D02*
G75*
G03*
X11600000Y-4700000I0J-100000D01*
G01*
X10060000Y-11800000D02*
X9604289Y-11345711D01*
X10060000Y-7000000D02*
X9604289Y-6545711D01*
X4700000Y-10000000D02*
G75*
G03*
X4500000Y-10000000I-100000J0D01*
G01*
X12700000Y-11600000D02*
X12700000Y-12000000D01*
X7700000Y-5600000D02*
G75*
G03*
X7900000Y-5600000I100000J0D01*
G01*
X10340000Y-11800000D02*
X10795711Y-11345711D01*
X11800000Y-8460000D02*
X11345711Y-8004289D01*
X12600000Y-6700000D02*
G75*
G03*
X12500000Y-6800000I0J-100000D01*
G01*
X9195711Y-9745711D02*
G75*
G03*
X9054289Y-9604289I-70711J70711D01*
G01*
X3800000Y-9300000D02*
X3800000Y-8740000D01*
X4500000Y-5600000D02*
G75*
G03*
X4700000Y-5600000I100000J0D01*
G01*
X6100000Y-5600000D02*
X6100000Y-5200000D01*
X10200000Y-3940000D02*
X9745711Y-4395711D01*
X13400000Y-11100000D02*
X13200000Y-11100000D01*
X10060000Y-3800000D02*
X9604289Y-4254289D01*
X10000000Y-4700000D02*
X10400000Y-4700000D01*
X7000000Y-8460000D02*
X7454289Y-8004289D01*
X10900000Y-4000000D02*
X10900000Y-3800000D01*
X12000000Y-12700000D02*
X11600000Y-12700000D01*
X7000000Y-8740000D02*
X6545711Y-9195711D01*
X3800000Y-11660000D02*
X3800000Y-11100000D01*
X4700000Y-6800000D02*
G75*
G03*
X4500000Y-6800000I-100000J0D01*
G01*
X7000000Y-5260000D02*
X7454289Y-4804289D01*
X3800000Y-4500000D02*
X3800000Y-3940000D01*
X8460000Y-3800000D02*
X7900000Y-3800000D01*
X8004289Y-5854289D02*
G75*
G03*
X8145711Y-5995711I70711J-70711D01*
G01*
X12395711Y-6545711D02*
G75*
G03*
X12254289Y-6404289I-70711J70711D01*
G01*
X9500000Y-13200000D02*
G75*
G03*
X9300000Y-13200000I-100000J0D01*
G01*
X9195711Y-12945711D02*
G75*
G03*
X9054289Y-12804289I-70711J70711D01*
G01*
X3800000Y-5260000D02*
X4254289Y-4804289D01*
X7300000Y-12600000D02*
G75*
G03*
X7200000Y-12500000I-100000J0D01*
G01*
X6100000Y-8800000D02*
X6100000Y-8400000D01*
X7200000Y-7900000D02*
G75*
G03*
X7200000Y-7700000I0J100000D01*
G01*
X10900000Y-13400000D02*
X10340000Y-13400000D01*
X12945711Y-12804289D02*
G75*
G03*
X12804289Y-12945711I-70711J-70711D01*
G01*
X10340000Y-8600000D02*
X10795711Y-8145711D01*
X8600000Y-8740000D02*
X9054289Y-9195711D01*
X7200000Y-6300000D02*
G75*
G03*
X7200000Y-6100000I0J100000D01*
G01*
X8400000Y-7700000D02*
G75*
G03*
X8400000Y-7900000I0J-100000D01*
G01*
X11100000Y-10400000D02*
X11100000Y-10000000D01*
X6100000Y-10400000D02*
G75*
G03*
X6300000Y-10400000I100000J0D01*
G01*
X10400000Y-4700000D02*
G75*
G03*
X10400000Y-4500000I0J100000D01*
G01*
X10000000Y-10900000D02*
X10400000Y-10900000D01*
X4500000Y-10400000D02*
G75*
G03*
X4700000Y-10400000I100000J0D01*
G01*
X8740000Y-8600000D02*
X9195711Y-9054289D01*
X13400000Y-8740000D02*
X13400000Y-9300000D01*
X5540000Y-11800000D02*
X5995711Y-12254289D01*
X11660000Y-8600000D02*
X11204289Y-9054289D01*
X7595711Y-12945711D02*
G75*
G03*
X7454289Y-12804289I-70711J70711D01*
G01*
X12500000Y-4000000D02*
X12500000Y-3800000D01*
X8800000Y-12700000D02*
X8400000Y-12700000D01*
X10795711Y-8145711D02*
G75*
G03*
X10654289Y-8004289I-70711J70711D01*
G01*
X10200000Y-5540000D02*
X10654289Y-5995711D01*
X3940000Y-3800000D02*
X4395711Y-4254289D01*
X10000000Y-12500000D02*
X10400000Y-12500000D01*
X8740000Y-10200000D02*
X9195711Y-9745711D01*
X5400000Y-8740000D02*
X5854289Y-9195711D01*
X12500000Y-12000000D02*
G75*
G03*
X12600000Y-12100000I100000J0D01*
G01*
X4500000Y-10400000D02*
X4500000Y-10000000D01*
X8800000Y-4700000D02*
G75*
G03*
X8800000Y-4500000I0J100000D01*
G01*
X4395711Y-12945711D02*
G75*
G03*
X4254289Y-12804289I-70711J70711D01*
G01*
X10060000Y-13400000D02*
X9604289Y-12945711D01*
X6100000Y-8800000D02*
G75*
G03*
X6300000Y-8800000I100000J0D01*
G01*
X6300000Y-10400000D02*
X6300000Y-10000000D01*
X11600000Y-10900000D02*
X12000000Y-10900000D01*
X10654289Y-10795711D02*
G75*
G03*
X10795711Y-10654289I70711J70711D01*
G01*
X10200000Y-11660000D02*
X9745711Y-11204289D01*
X11204289Y-5854289D02*
G75*
G03*
X11345711Y-5995711I70711J-70711D01*
G01*
X9745711Y-6404289D02*
G75*
G03*
X9604289Y-6545711I-70711J-70711D01*
G01*
X12700000Y-5200000D02*
X12700000Y-5600000D01*
X5400000Y-11940000D02*
X4945711Y-12395711D01*
X11660000Y-7000000D02*
X11204289Y-6545711D01*
X4700000Y-12000000D02*
X4700000Y-11600000D01*
X6860000Y-3800000D02*
X6404289Y-4254289D01*
X10200000Y-3940000D02*
X10654289Y-4395711D01*
X7140000Y-3800000D02*
X7595711Y-4254289D01*
X12000000Y-4700000D02*
G75*
G03*
X12000000Y-4500000I0J100000D01*
G01*
X11600000Y-6100000D02*
X12000000Y-6100000D01*
X10200000Y-13260000D02*
X9745711Y-12804289D01*
X12700000Y-10000000D02*
G75*
G03*
X12600000Y-9900000I-100000J0D01*
G01*
X10900000Y-5600000D02*
G75*
G03*
X11100000Y-5600000I100000J0D01*
G01*
X8740000Y-7000000D02*
X9195711Y-7454289D01*
X10200000Y-6860000D02*
X9745711Y-6404289D01*
X5995711Y-6545711D02*
G75*
G03*
X5854289Y-6404289I-70711J70711D01*
G01*
X12600000Y-4100000D02*
G75*
G03*
X12700000Y-4000000I0J100000D01*
G01*
X12700000Y-13200000D02*
X12700000Y-13400000D01*
X7700000Y-10400000D02*
X7700000Y-10000000D01*
X6800000Y-6100000D02*
G75*
G03*
X6800000Y-6300000I0J-100000D01*
G01*
X10200000Y-7140000D02*
X9745711Y-7595711D01*
X7700000Y-12000000D02*
X7700000Y-11600000D01*
X10795711Y-12945711D02*
G75*
G03*
X10654289Y-12804289I-70711J70711D01*
G01*
X11100000Y-8400000D02*
G75*
G03*
X10900000Y-8400000I-100000J0D01*
G01*
X10000000Y-6100000D02*
G75*
G03*
X10000000Y-6300000I0J-100000D01*
G01*
X5400000Y-5540000D02*
X5854289Y-5995711D01*
X9745711Y-9604289D02*
G75*
G03*
X9604289Y-9745711I-70711J-70711D01*
G01*
X5540000Y-5400000D02*
X5995711Y-5854289D01*
X8400000Y-7700000D02*
X8800000Y-7700000D01*
X11660000Y-11800000D02*
X11204289Y-11345711D01*
X5995711Y-4945711D02*
G75*
G03*
X5854289Y-4804289I-70711J70711D01*
G01*
X10400000Y-9500000D02*
G75*
G03*
X10400000Y-9300000I0J100000D01*
G01*
X5400000Y-5260000D02*
X5854289Y-4804289D01*
X9300000Y-3800000D02*
X8740000Y-3800000D01*
X9054289Y-4395711D02*
G75*
G03*
X9195711Y-4254289I70711J70711D01*
G01*
X12500000Y-5600000D02*
X12500000Y-5200000D01*
X10200000Y-10340000D02*
X9745711Y-10795711D01*
X9054289Y-5995711D02*
G75*
G03*
X9195711Y-5854289I70711J70711D01*
G01*
X11500000Y-12600000D02*
G75*
G03*
X11600000Y-12700000I100000J0D01*
G01*
X8400000Y-10900000D02*
G75*
G03*
X8400000Y-11100000I0J-100000D01*
G01*
X4100000Y-12600000D02*
G75*
G03*
X4000000Y-12500000I-100000J0D01*
G01*
X9500000Y-8800000D02*
X9500000Y-8400000D01*
X7140000Y-10200000D02*
X7595711Y-10654289D01*
X11940000Y-7000000D02*
X12395711Y-6545711D01*
X8400000Y-6100000D02*
X8800000Y-6100000D01*
X11660000Y-11800000D02*
X11204289Y-12254289D01*
X8600000Y-11660000D02*
X8145711Y-11204289D01*
X10900000Y-12000000D02*
X10900000Y-11600000D01*
X5540000Y-7000000D02*
X5995711Y-6545711D01*
X7454289Y-10795711D02*
G75*
G03*
X7595711Y-10654289I70711J70711D01*
G01*
X3800000Y-11100000D02*
X4000000Y-11100000D01*
X8145711Y-4804289D02*
G75*
G03*
X8004289Y-4945711I-70711J-70711D01*
G01*
X7700000Y-3800000D02*
X7140000Y-3800000D01*
X11204289Y-4254289D02*
G75*
G03*
X11345711Y-4395711I70711J-70711D01*
G01*
X5200000Y-4500000D02*
X5600000Y-4500000D01*
X4000000Y-11100000D02*
G75*
G03*
X4000000Y-10900000I0J100000D01*
G01*
X11800000Y-13260000D02*
X11345711Y-12804289D01*
X10000000Y-12500000D02*
G75*
G03*
X9900000Y-12600000I0J-100000D01*
G01*
X10000000Y-9300000D02*
G75*
G03*
X10000000Y-9500000I0J-100000D01*
G01*
X10200000Y-5260000D02*
X9745711Y-4804289D01*
X11204289Y-7454289D02*
G75*
G03*
X11345711Y-7595711I70711J-70711D01*
G01*
X4254289Y-9195711D02*
G75*
G03*
X4395711Y-9054289I70711J70711D01*
G01*
X10200000Y-8460000D02*
X9745711Y-8004289D01*
X5400000Y-3940000D02*
X5854289Y-4395711D01*
X7454289Y-5995711D02*
G75*
G03*
X7595711Y-5854289I70711J70711D01*
G01*
X13400000Y-7900000D02*
X13200000Y-7900000D01*
X10000000Y-7700000D02*
G75*
G03*
X10000000Y-7900000I0J-100000D01*
G01*
X8740000Y-11800000D02*
X9195711Y-11345711D01*
X7000000Y-10340000D02*
X7454289Y-10795711D01*
X7140000Y-5400000D02*
X7595711Y-5854289D01*
X6100000Y-7200000D02*
G75*
G03*
X6300000Y-7200000I100000J0D01*
G01*
X10200000Y-13260000D02*
X10654289Y-12804289D01*
X6300000Y-13200000D02*
G75*
G03*
X6100000Y-13200000I-100000J0D01*
G01*
X13400000Y-11660000D02*
X12945711Y-11204289D01*
X7700000Y-12000000D02*
G75*
G03*
X7900000Y-12000000I100000J0D01*
G01*
X11940000Y-7000000D02*
X12395711Y-7454289D01*
X13400000Y-4700000D02*
X13200000Y-4700000D01*
X7200000Y-12700000D02*
G75*
G03*
X7300000Y-12600000I0J100000D01*
G01*
X3800000Y-8460000D02*
X3800000Y-7900000D01*
X7200000Y-11100000D02*
G75*
G03*
X7200000Y-10900000I0J100000D01*
G01*
X9500000Y-13200000D02*
X9500000Y-13400000D01*
X7140000Y-8600000D02*
X7595711Y-8145711D01*
X6860000Y-13400000D02*
X6404289Y-12945711D01*
X10654289Y-5995711D02*
G75*
G03*
X10795711Y-5854289I70711J70711D01*
G01*
X10200000Y-8460000D02*
X10654289Y-8004289D01*
X9300000Y-7200000D02*
G75*
G03*
X9500000Y-7200000I100000J0D01*
G01*
X13400000Y-10060000D02*
X12945711Y-9604289D01*
X8400000Y-6100000D02*
G75*
G03*
X8400000Y-6300000I0J-100000D01*
G01*
X12500000Y-10400000D02*
G75*
G03*
X12600000Y-10500000I100000J0D01*
G01*
X7900000Y-6800000D02*
G75*
G03*
X7700000Y-6800000I-100000J0D01*
G01*
X7454289Y-12395711D02*
G75*
G03*
X7595711Y-12254289I70711J70711D01*
G01*
X11345711Y-6404289D02*
G75*
G03*
X11204289Y-6545711I-70711J-70711D01*
G01*
X6100000Y-12000000D02*
G75*
G03*
X6300000Y-12000000I100000J0D01*
G01*
X9604289Y-10654289D02*
G75*
G03*
X9745711Y-10795711I70711J-70711D01*
G01*
X8460000Y-8600000D02*
X8004289Y-9054289D01*
X12395711Y-12945711D02*
G75*
G03*
X12254289Y-12804289I-70711J70711D01*
G01*
X7000000Y-3940000D02*
X7454289Y-4395711D01*
X5400000Y-5260000D02*
X4945711Y-4804289D01*
X10340000Y-11800000D02*
X10795711Y-12254289D01*
X11800000Y-5540000D02*
X11345711Y-5995711D01*
X12254289Y-9195711D02*
G75*
G03*
X12395711Y-9054289I70711J70711D01*
G01*
X7900000Y-5600000D02*
X7900000Y-5200000D01*
X11204289Y-12254289D02*
G75*
G03*
X11345711Y-12395711I70711J-70711D01*
G01*
X6800000Y-4500000D02*
G75*
G03*
X6800000Y-4700000I0J-100000D01*
G01*
X9604289Y-9054289D02*
G75*
G03*
X9745711Y-9195711I70711J-70711D01*
G01*
X4700000Y-8800000D02*
X4700000Y-8400000D01*
X5200000Y-7700000D02*
X5600000Y-7700000D01*
X10500000Y-12600000D02*
G75*
G03*
X10400000Y-12500000I-100000J0D01*
G01*
X6100000Y-3800000D02*
X5540000Y-3800000D01*
X10000000Y-6100000D02*
X10400000Y-6100000D01*
X3940000Y-11800000D02*
X4395711Y-12254289D01*
X3940000Y-5400000D02*
X4395711Y-4945711D01*
X10200000Y-11940000D02*
X10654289Y-12395711D01*
X10340000Y-10200000D02*
X10795711Y-9745711D01*
X12945711Y-6404289D02*
G75*
G03*
X12804289Y-6545711I-70711J-70711D01*
G01*
X11600000Y-12500000D02*
X12000000Y-12500000D01*
X5600000Y-12700000D02*
X5200000Y-12700000D01*
X4254289Y-12395711D02*
G75*
G03*
X4395711Y-12254289I70711J70711D01*
G01*
X7200000Y-9500000D02*
G75*
G03*
X7200000Y-9300000I0J100000D01*
G01*
X5400000Y-5540000D02*
X4945711Y-5995711D01*
X13200000Y-10900000D02*
G75*
G03*
X13200000Y-11100000I0J-100000D01*
G01*
X13400000Y-3940000D02*
X12945711Y-4395711D01*
X3940000Y-5400000D02*
X4395711Y-5854289D01*
X10795711Y-4945711D02*
G75*
G03*
X10654289Y-4804289I-70711J70711D01*
G01*
X4254289Y-7595711D02*
G75*
G03*
X4395711Y-7454289I70711J70711D01*
G01*
X13400000Y-12500000D02*
X13200000Y-12500000D01*
X6300000Y-8400000D02*
G75*
G03*
X6100000Y-8400000I-100000J0D01*
G01*
X9300000Y-4000000D02*
X9300000Y-3800000D01*
X13260000Y-5400000D02*
X12804289Y-4945711D01*
X10900000Y-7200000D02*
G75*
G03*
X11100000Y-7200000I100000J0D01*
G01*
X6700000Y-12600000D02*
G75*
G03*
X6800000Y-12700000I100000J0D01*
G01*
X8600000Y-5540000D02*
X8145711Y-5995711D01*
X7900000Y-4000000D02*
X7900000Y-3800000D01*
X7000000Y-10060000D02*
X6545711Y-9604289D01*
X11345711Y-4804289D02*
G75*
G03*
X11204289Y-4945711I-70711J-70711D01*
G01*
X9195711Y-8145711D02*
G75*
G03*
X9054289Y-8004289I-70711J70711D01*
G01*
X5260000Y-11800000D02*
X4804289Y-11345711D01*
X3800000Y-4500000D02*
X4000000Y-4500000D01*
X8740000Y-5400000D02*
X9195711Y-4945711D01*
X6300000Y-4000000D02*
X6300000Y-3800000D01*
X6800000Y-9500000D02*
X7200000Y-9500000D01*
X6300000Y-10000000D02*
G75*
G03*
X6100000Y-10000000I-100000J0D01*
G01*
X8600000Y-6860000D02*
X9054289Y-6404289D01*
X10400000Y-6300000D02*
G75*
G03*
X10400000Y-6100000I0J100000D01*
G01*
X5400000Y-6860000D02*
X4945711Y-6404289D01*
X8145711Y-8004289D02*
G75*
G03*
X8004289Y-8145711I-70711J-70711D01*
G01*
X11660000Y-3800000D02*
X11204289Y-4254289D01*
X10795711Y-9745711D02*
G75*
G03*
X10654289Y-9604289I-70711J70711D01*
G01*
X4000000Y-9500000D02*
G75*
G03*
X4000000Y-9300000I0J100000D01*
G01*
X8145711Y-6404289D02*
G75*
G03*
X8004289Y-6545711I-70711J-70711D01*
G01*
X5854289Y-5995711D02*
G75*
G03*
X5995711Y-5854289I70711J70711D01*
G01*
X4700000Y-7200000D02*
X4700000Y-6800000D01*
X11660000Y-13400000D02*
X11100000Y-13400000D01*
X5600000Y-7900000D02*
G75*
G03*
X5600000Y-7700000I0J100000D01*
G01*
X5995711Y-9745711D02*
G75*
G03*
X5854289Y-9604289I-70711J70711D01*
G01*
X5260000Y-5400000D02*
X4804289Y-5854289D01*
X12700000Y-10000000D02*
X12700000Y-10400000D01*
X12500000Y-8800000D02*
X12500000Y-8400000D01*
X7700000Y-7200000D02*
G75*
G03*
X7900000Y-7200000I100000J0D01*
G01*
X13400000Y-7140000D02*
X12945711Y-7595711D01*
X8740000Y-13400000D02*
X9195711Y-12945711D01*
X10900000Y-8800000D02*
X10900000Y-8400000D01*
X13200000Y-4500000D02*
G75*
G03*
X13200000Y-4700000I0J-100000D01*
G01*
X13400000Y-6100000D02*
X13200000Y-6100000D01*
X7700000Y-8800000D02*
X7700000Y-8400000D01*
X10400000Y-12700000D02*
G75*
G03*
X10500000Y-12600000I0J100000D01*
G01*
X7000000Y-11660000D02*
X6545711Y-11204289D01*
X12254289Y-12395711D02*
G75*
G03*
X12395711Y-12254289I70711J70711D01*
G01*
X4945711Y-8004289D02*
G75*
G03*
X4804289Y-8145711I-70711J-70711D01*
G01*
X6100000Y-13400000D02*
X5540000Y-13400000D01*
X9745711Y-8004289D02*
G75*
G03*
X9604289Y-8145711I-70711J-70711D01*
G01*
X3940000Y-8600000D02*
X4395711Y-9054289D01*
X3800000Y-13260000D02*
X4254289Y-12804289D01*
X4000000Y-12700000D02*
G75*
G03*
X4100000Y-12600000I0J100000D01*
G01*
X11600000Y-4500000D02*
X12000000Y-4500000D01*
X9500000Y-10400000D02*
X9500000Y-10000000D01*
X7595711Y-8145711D02*
G75*
G03*
X7454289Y-8004289I-70711J70711D01*
G01*
X10654289Y-7595711D02*
G75*
G03*
X10795711Y-7454289I70711J70711D01*
G01*
X4254289Y-10795711D02*
G75*
G03*
X4395711Y-10654289I70711J70711D01*
G01*
X4500000Y-3800000D02*
X3940000Y-3800000D01*
X6100000Y-5600000D02*
G75*
G03*
X6300000Y-5600000I100000J0D01*
G01*
X9745711Y-4804289D02*
G75*
G03*
X9604289Y-4945711I-70711J-70711D01*
G01*
X5600000Y-11100000D02*
G75*
G03*
X5600000Y-10900000I0J100000D01*
G01*
X10060000Y-5400000D02*
X9604289Y-5854289D01*
X6404289Y-5854289D02*
G75*
G03*
X6545711Y-5995711I70711J-70711D01*
G01*
X8400000Y-4500000D02*
X8800000Y-4500000D01*
X8400000Y-4500000D02*
G75*
G03*
X8400000Y-4700000I0J-100000D01*
G01*
X5854289Y-9195711D02*
G75*
G03*
X5995711Y-9054289I70711J70711D01*
G01*
X3800000Y-9300000D02*
X4000000Y-9300000D01*
X3800000Y-12500000D02*
X4000000Y-12500000D01*
X5400000Y-10340000D02*
X5854289Y-10795711D01*
X4804289Y-4254289D02*
G75*
G03*
X4945711Y-4395711I70711J-70711D01*
G01*
X5200000Y-9500000D02*
X5600000Y-9500000D01*
X5260000Y-13400000D02*
X4700000Y-13400000D01*
X6860000Y-11800000D02*
X6404289Y-12254289D01*
X4500000Y-5600000D02*
X4500000Y-5200000D01*
X9604289Y-7454289D02*
G75*
G03*
X9745711Y-7595711I70711J-70711D01*
G01*
X4700000Y-13200000D02*
G75*
G03*
X4600000Y-13100000I-100000J0D01*
G01*
X8400000Y-9300000D02*
G75*
G03*
X8400000Y-9500000I0J-100000D01*
G01*
X8800000Y-7900000D02*
G75*
G03*
X8800000Y-7700000I0J100000D01*
G01*
X12000000Y-9500000D02*
G75*
G03*
X12000000Y-9300000I0J100000D01*
G01*
X8145711Y-11204289D02*
G75*
G03*
X8004289Y-11345711I-70711J-70711D01*
G01*
X3940000Y-7000000D02*
X4395711Y-6545711D01*
X10340000Y-5400000D02*
X10795711Y-4945711D01*
X10060000Y-10200000D02*
X9604289Y-9745711D01*
X13200000Y-9300000D02*
G75*
G03*
X13200000Y-9500000I0J-100000D01*
G01*
X11940000Y-11800000D02*
X12395711Y-12254289D01*
X3800000Y-6100000D02*
X4000000Y-6100000D01*
X11940000Y-3800000D02*
X12395711Y-4254289D01*
X9300000Y-5600000D02*
X9300000Y-5200000D01*
X13400000Y-7900000D02*
X13400000Y-8460000D01*
X10000000Y-9500000D02*
X10400000Y-9500000D01*
X11600000Y-9500000D02*
X12000000Y-9500000D01*
X11100000Y-8800000D02*
X11100000Y-8400000D01*
X5540000Y-8600000D02*
X5995711Y-8145711D01*
X6545711Y-4804289D02*
G75*
G03*
X6404289Y-4945711I-70711J-70711D01*
G01*
X7000000Y-7140000D02*
X7454289Y-7595711D01*
X10900000Y-8800000D02*
G75*
G03*
X11100000Y-8800000I100000J0D01*
G01*
X12804289Y-12254289D02*
G75*
G03*
X12945711Y-12395711I70711J-70711D01*
G01*
X8600000Y-11940000D02*
X8145711Y-12395711D01*
X4395711Y-8145711D02*
G75*
G03*
X4254289Y-8004289I-70711J70711D01*
G01*
X11800000Y-7140000D02*
X11345711Y-7595711D01*
X12700000Y-11600000D02*
G75*
G03*
X12600000Y-11500000I-100000J0D01*
G01*
X7140000Y-7000000D02*
X7595711Y-7454289D01*
X12700000Y-6800000D02*
X12700000Y-7200000D01*
X3800000Y-4700000D02*
X4000000Y-4700000D01*
X7000000Y-6860000D02*
X6545711Y-6404289D01*
X13400000Y-5540000D02*
X12945711Y-5995711D01*
X12500000Y-3800000D02*
X11940000Y-3800000D01*
X6800000Y-6300000D02*
X7200000Y-6300000D01*
X5600000Y-12700000D02*
G75*
G03*
X5700000Y-12600000I0J100000D01*
G01*
X7595711Y-4945711D02*
G75*
G03*
X7454289Y-4804289I-70711J70711D01*
G01*
X4395711Y-9745711D02*
G75*
G03*
X4254289Y-9604289I-70711J70711D01*
G01*
X8800000Y-6300000D02*
G75*
G03*
X8800000Y-6100000I0J100000D01*
G01*
X11600000Y-7700000D02*
G75*
G03*
X11600000Y-7900000I0J-100000D01*
G01*
X9500000Y-6800000D02*
G75*
G03*
X9300000Y-6800000I-100000J0D01*
G01*
X6300000Y-8800000D02*
X6300000Y-8400000D01*
X7000000Y-10060000D02*
X7454289Y-9604289D01*
X8460000Y-11800000D02*
X8004289Y-12254289D01*
X12804289Y-4254289D02*
G75*
G03*
X12945711Y-4395711I70711J-70711D01*
G01*
X11800000Y-3940000D02*
X12254289Y-4395711D01*
X3800000Y-10900000D02*
X4000000Y-10900000D01*
X12100000Y-12600000D02*
G75*
G03*
X12000000Y-12500000I-100000J0D01*
G01*
X8400000Y-11100000D02*
X8800000Y-11100000D01*
X6860000Y-8600000D02*
X6404289Y-9054289D01*
X12600000Y-10500000D02*
G75*
G03*
X12700000Y-10400000I0J100000D01*
G01*
X11800000Y-11660000D02*
X11345711Y-11204289D01*
X8740000Y-11800000D02*
X9195711Y-12254289D01*
X8145711Y-9604289D02*
G75*
G03*
X8004289Y-9745711I-70711J-70711D01*
G01*
X5400000Y-8460000D02*
X4945711Y-8004289D01*
X6100000Y-7200000D02*
X6100000Y-6800000D01*
X11800000Y-13260000D02*
X12254289Y-12804289D01*
X3800000Y-6100000D02*
X3800000Y-5540000D01*
X12254289Y-7595711D02*
G75*
G03*
X12395711Y-7454289I70711J70711D01*
G01*
X4804289Y-7454289D02*
G75*
G03*
X4945711Y-7595711I70711J-70711D01*
G01*
X10000000Y-4500000D02*
G75*
G03*
X10000000Y-4700000I0J-100000D01*
G01*
X7140000Y-5400000D02*
X7595711Y-4945711D01*
X12254289Y-4395711D02*
G75*
G03*
X12395711Y-4254289I70711J70711D01*
G01*
X10654289Y-12395711D02*
G75*
G03*
X10795711Y-12254289I70711J70711D01*
G01*
X11800000Y-11940000D02*
X11345711Y-12395711D01*
X6545711Y-12804289D02*
G75*
G03*
X6404289Y-12945711I-70711J-70711D01*
G01*
X11100000Y-6800000D02*
G75*
G03*
X10900000Y-6800000I-100000J0D01*
G01*
X13260000Y-10200000D02*
X12804289Y-10654289D01*
X5540000Y-7000000D02*
X5995711Y-7454289D01*
X9300000Y-10400000D02*
X9300000Y-10000000D01*
X8400000Y-10900000D02*
X8800000Y-10900000D01*
X10795711Y-6545711D02*
G75*
G03*
X10654289Y-6404289I-70711J70711D01*
G01*
X10060000Y-11800000D02*
X9604289Y-12254289D01*
X9745711Y-12804289D02*
G75*
G03*
X9604289Y-12945711I-70711J-70711D01*
G01*
X13260000Y-11800000D02*
X12804289Y-12254289D01*
X13100000Y-12600000D02*
G75*
G03*
X13200000Y-12700000I100000J0D01*
G01*
X8460000Y-5400000D02*
X8004289Y-5854289D01*
X12600000Y-7300000D02*
G75*
G03*
X12700000Y-7200000I0J100000D01*
G01*
X7900000Y-5200000D02*
G75*
G03*
X7700000Y-5200000I-100000J0D01*
G01*
X9300000Y-7200000D02*
X9300000Y-6800000D01*
X8600000Y-8740000D02*
X8145711Y-9195711D01*
X10200000Y-7140000D02*
X10654289Y-7595711D01*
X7454289Y-4395711D02*
G75*
G03*
X7595711Y-4254289I70711J70711D01*
G01*
X4500000Y-8800000D02*
X4500000Y-8400000D01*
X9300000Y-10400000D02*
G75*
G03*
X9500000Y-10400000I100000J0D01*
G01*
X5600000Y-6300000D02*
G75*
G03*
X5600000Y-6100000I0J100000D01*
G01*
X4500000Y-7200000D02*
G75*
G03*
X4700000Y-7200000I100000J0D01*
G01*
X5200000Y-9300000D02*
G75*
G03*
X5200000Y-9500000I0J-100000D01*
G01*
X8460000Y-5400000D02*
X8004289Y-4945711D01*
X12254289Y-10795711D02*
G75*
G03*
X12395711Y-10654289I70711J70711D01*
G01*
D11*
X4042619Y-13717524D02*
X4042619Y-13517524D01*
X4042619Y-13517524D02*
X4090238Y-13517524D01*
X4090238Y-13517524D02*
X4118809Y-13527048D01*
X4118809Y-13527048D02*
X4137857Y-13546095D01*
X4137857Y-13546095D02*
X4147381Y-13565143D01*
X4147381Y-13565143D02*
X4156905Y-13603238D01*
X4156905Y-13603238D02*
X4156905Y-13631809D01*
X4156905Y-13631809D02*
X4147381Y-13669905D01*
X4147381Y-13669905D02*
X4137857Y-13688952D01*
X4137857Y-13688952D02*
X4118809Y-13708000D01*
X4118809Y-13708000D02*
X4090238Y-13717524D01*
X4090238Y-13717524D02*
X4042619Y-13717524D01*
X4242619Y-13717524D02*
X4242619Y-13584190D01*
X4242619Y-13622286D02*
X4252143Y-13603238D01*
X4252143Y-13603238D02*
X4261667Y-13593714D01*
X4261667Y-13593714D02*
X4280714Y-13584190D01*
X4280714Y-13584190D02*
X4299762Y-13584190D01*
X4366429Y-13717524D02*
X4366429Y-13584190D01*
X4366429Y-13517524D02*
X4356905Y-13527048D01*
X4356905Y-13527048D02*
X4366429Y-13536571D01*
X4366429Y-13536571D02*
X4375952Y-13527048D01*
X4375952Y-13527048D02*
X4366429Y-13517524D01*
X4366429Y-13517524D02*
X4366429Y-13536571D01*
X4490238Y-13717524D02*
X4471190Y-13708000D01*
X4471190Y-13708000D02*
X4461667Y-13688952D01*
X4461667Y-13688952D02*
X4461667Y-13517524D01*
X4595000Y-13717524D02*
X4575952Y-13708000D01*
X4575952Y-13708000D02*
X4566429Y-13688952D01*
X4566429Y-13688952D02*
X4566429Y-13517524D01*
X4823571Y-13717524D02*
X4823571Y-13517524D01*
X4823571Y-13517524D02*
X4890238Y-13660381D01*
X4890238Y-13660381D02*
X4956905Y-13517524D01*
X4956905Y-13517524D02*
X4956905Y-13717524D01*
X5137857Y-13717524D02*
X5137857Y-13612762D01*
X5137857Y-13612762D02*
X5128333Y-13593714D01*
X5128333Y-13593714D02*
X5109286Y-13584190D01*
X5109286Y-13584190D02*
X5071190Y-13584190D01*
X5071190Y-13584190D02*
X5052143Y-13593714D01*
X5137857Y-13708000D02*
X5118810Y-13717524D01*
X5118810Y-13717524D02*
X5071190Y-13717524D01*
X5071190Y-13717524D02*
X5052143Y-13708000D01*
X5052143Y-13708000D02*
X5042619Y-13688952D01*
X5042619Y-13688952D02*
X5042619Y-13669905D01*
X5042619Y-13669905D02*
X5052143Y-13650857D01*
X5052143Y-13650857D02*
X5071190Y-13641333D01*
X5071190Y-13641333D02*
X5118810Y-13641333D01*
X5118810Y-13641333D02*
X5137857Y-13631809D01*
X5233095Y-13584190D02*
X5233095Y-13784190D01*
X5233095Y-13593714D02*
X5252143Y-13584190D01*
X5252143Y-13584190D02*
X5290238Y-13584190D01*
X5290238Y-13584190D02*
X5309286Y-13593714D01*
X5309286Y-13593714D02*
X5318810Y-13603238D01*
X5318810Y-13603238D02*
X5328333Y-13622286D01*
X5328333Y-13622286D02*
X5328333Y-13679428D01*
X5328333Y-13679428D02*
X5318810Y-13698476D01*
X5318810Y-13698476D02*
X5309286Y-13708000D01*
X5309286Y-13708000D02*
X5290238Y-13717524D01*
X5290238Y-13717524D02*
X5252143Y-13717524D01*
X5252143Y-13717524D02*
X5233095Y-13708000D01*
X5414048Y-13698476D02*
X5423571Y-13708000D01*
X5423571Y-13708000D02*
X5414048Y-13717524D01*
X5414048Y-13717524D02*
X5404524Y-13708000D01*
X5404524Y-13708000D02*
X5414048Y-13698476D01*
X5414048Y-13698476D02*
X5414048Y-13717524D01*
X5414048Y-13593714D02*
X5423571Y-13603238D01*
X5423571Y-13603238D02*
X5414048Y-13612762D01*
X5414048Y-13612762D02*
X5404524Y-13603238D01*
X5404524Y-13603238D02*
X5414048Y-13593714D01*
X5414048Y-13593714D02*
X5414048Y-13612762D01*
M02*
