G04 #@! TF.GenerationSoftware,KiCad,Pcbnew,7.0.2*
G04 #@! TF.CreationDate,2023-11-05T16:37:17-05:00*
G04 #@! TF.ProjectId,PokerTips,506f6b65-7254-4697-9073-2e6b69636164,rev?*
G04 #@! TF.SameCoordinates,Original*
G04 #@! TF.FileFunction,Legend,Bot*
G04 #@! TF.FilePolarity,Positive*
%FSLAX46Y46*%
G04 Gerber Fmt 4.6, Leading zero omitted, Abs format (unit mm)*
G04 Created by KiCad (PCBNEW 7.0.2) date 2023-11-05 16:37:17*
%MOMM*%
%LPD*%
G01*
G04 APERTURE LIST*
%ADD10C,0.500000*%
G04 APERTURE END LIST*
%LPC*%
D10*
X123750000Y-130750000D03*
X124500000Y-131500000D03*
X130750000Y-123750000D03*
X131500000Y-124500000D03*
X114750000Y-107750000D03*
X115500000Y-108500000D03*
X124500000Y-88500000D03*
X123750000Y-89250000D03*
X91750000Y-66750000D03*
X92500000Y-67500000D03*
X40500000Y-92500000D03*
X41250000Y-91750000D03*
X48250000Y-73250000D03*
X47500000Y-72500000D03*
X76500000Y-120500000D03*
X75750000Y-121250000D03*
X92500000Y-120500000D03*
X91750000Y-121250000D03*
X99500000Y-127500000D03*
X98750000Y-128250000D03*
X80250000Y-73250000D03*
X79500000Y-72500000D03*
X127500000Y-67500000D03*
X128250000Y-66750000D03*
X108500000Y-40500000D03*
X107750000Y-41250000D03*
X115500000Y-111500000D03*
X114750000Y-112250000D03*
X79500000Y-131500000D03*
X80250000Y-130750000D03*
X80250000Y-41250000D03*
X79500000Y-40500000D03*
X98750000Y-107750000D03*
X99500000Y-108500000D03*
X130750000Y-59750000D03*
X131500000Y-60500000D03*
X111500000Y-131500000D03*
X112250000Y-130750000D03*
X75750000Y-50750000D03*
X76500000Y-51500000D03*
X44500000Y-56500000D03*
X43750000Y-57250000D03*
X92500000Y-72500000D03*
X91750000Y-73250000D03*
X124500000Y-72500000D03*
X123750000Y-73250000D03*
X108500000Y-72500000D03*
X107750000Y-73250000D03*
X41250000Y-128250000D03*
X40500000Y-127500000D03*
X40500000Y-44500000D03*
X41250000Y-43750000D03*
X104500000Y-76500000D03*
X105250000Y-75750000D03*
X76500000Y-40500000D03*
X75750000Y-41250000D03*
X50750000Y-107750000D03*
X51500000Y-108500000D03*
X105250000Y-128250000D03*
X104500000Y-127500000D03*
X89250000Y-80250000D03*
X88500000Y-79500000D03*
X111500000Y-51500000D03*
X112250000Y-50750000D03*
X66750000Y-75750000D03*
X67500000Y-76500000D03*
X96250000Y-89250000D03*
X95500000Y-88500000D03*
X67500000Y-111500000D03*
X66750000Y-112250000D03*
X66750000Y-123750000D03*
X67500000Y-124500000D03*
X104500000Y-44500000D03*
X105250000Y-43750000D03*
X47500000Y-115500000D03*
X48250000Y-114750000D03*
X114750000Y-123750000D03*
X115500000Y-124500000D03*
X44500000Y-104500000D03*
X43750000Y-105250000D03*
X89249999Y-128250000D03*
X88499999Y-127500000D03*
X108500000Y-104500000D03*
X107750000Y-105250000D03*
X50750000Y-91750000D03*
X51500000Y-92500000D03*
X131500000Y-79500000D03*
X130750000Y-80250000D03*
X108500000Y-120500000D03*
X107750000Y-121250000D03*
X41250000Y-64250000D03*
X40500000Y-63500000D03*
X64250000Y-121250000D03*
X63500000Y-120500000D03*
X99500000Y-95500000D03*
X98750000Y-96250000D03*
X47500000Y-83500000D03*
X48250000Y-82750000D03*
X107750000Y-82750000D03*
X108500000Y-83500000D03*
X40500000Y-124500000D03*
X41250000Y-123750000D03*
X59750000Y-130750000D03*
X60500000Y-131500000D03*
X99500000Y-63500000D03*
X98750000Y-64250000D03*
X67500000Y-95500000D03*
X66750000Y-96250000D03*
X89250000Y-112250000D03*
X88500000Y-111500000D03*
X60500000Y-104500000D03*
X59750000Y-105250000D03*
X92500000Y-40500000D03*
X91750000Y-41250000D03*
X43750000Y-130750000D03*
X44500000Y-131500000D03*
X76500000Y-104500000D03*
X75750000Y-105250000D03*
X59750000Y-114750000D03*
X60500000Y-115500000D03*
X127500000Y-99500000D03*
X128250000Y-98750000D03*
X128250000Y-41250000D03*
X127500000Y-40500000D03*
X66750000Y-59750000D03*
X67500000Y-60500000D03*
X127500000Y-83500000D03*
X128250000Y-82750000D03*
X82750000Y-91750000D03*
X83500000Y-92500000D03*
X130750000Y-75750000D03*
X131500000Y-76500000D03*
X41250000Y-96250000D03*
X40500000Y-95500000D03*
X91750000Y-114750000D03*
X92500000Y-115500000D03*
X59750000Y-50750000D03*
X60500000Y-51500000D03*
X73250000Y-128250000D03*
X72500000Y-127500000D03*
X80250000Y-121250000D03*
X79500000Y-120500000D03*
X96250000Y-73250000D03*
X95500000Y-72500000D03*
X63500000Y-115500000D03*
X64250000Y-114750000D03*
X120500000Y-92500000D03*
X121250000Y-91750000D03*
X73250000Y-48250000D03*
X72500000Y-47500000D03*
X48250000Y-57250000D03*
X47500000Y-56500000D03*
X48250000Y-121250000D03*
X47500000Y-120500000D03*
X98750000Y-123750000D03*
X99500000Y-124500000D03*
X104500000Y-124500000D03*
X105250000Y-123750000D03*
X57250000Y-96250000D03*
X56500000Y-95500000D03*
X66750000Y-91750000D03*
X67500000Y-92500000D03*
X64250000Y-73250000D03*
X63500000Y-72500000D03*
X67500000Y-47500000D03*
X66750000Y-48250000D03*
X127500000Y-115500000D03*
X128250000Y-114750000D03*
X44500000Y-120500000D03*
X43750000Y-121250000D03*
X92500000Y-56500000D03*
X91750000Y-57250000D03*
X64250000Y-105250000D03*
X63500000Y-104500000D03*
X40500000Y-108500000D03*
X41250000Y-107750000D03*
X131500000Y-47500000D03*
X130750000Y-48250000D03*
X124500000Y-56500000D03*
X123750000Y-57250000D03*
X128250000Y-89250000D03*
X127500000Y-88500000D03*
X91750000Y-98750000D03*
X92500000Y-99500000D03*
X56500000Y-60500000D03*
X57250000Y-59750000D03*
X91750000Y-130750000D03*
X92500000Y-131500000D03*
X57250000Y-112250000D03*
X56500000Y-111500000D03*
X128250000Y-73250000D03*
X127500000Y-72500000D03*
X79500000Y-115500000D03*
X80250000Y-114750000D03*
X43750000Y-82750000D03*
X44500000Y-83500000D03*
X83500000Y-63500000D03*
X82750000Y-64250000D03*
X83499999Y-127500000D03*
X82749999Y-128250000D03*
X75750000Y-114750000D03*
X76500000Y-115500000D03*
X43750000Y-98750000D03*
X44500000Y-99500000D03*
X48250000Y-105250000D03*
X47500000Y-104500000D03*
X99500000Y-47500000D03*
X98750000Y-48250000D03*
X115499999Y-127500000D03*
X114749999Y-128250000D03*
X121249999Y-128250000D03*
X120499999Y-127500000D03*
X60500000Y-56500000D03*
X59750000Y-57250000D03*
X83500000Y-111500000D03*
X82750000Y-112250000D03*
X95500000Y-67500000D03*
X96250000Y-66750000D03*
X63500000Y-51500000D03*
X64250000Y-50750000D03*
X105250000Y-80250000D03*
X104500000Y-79500000D03*
X121250000Y-48250000D03*
X120500000Y-47500000D03*
X121250000Y-112250000D03*
X120500000Y-111500000D03*
X50750000Y-75750000D03*
X51500000Y-76500000D03*
X80250000Y-57250000D03*
X79500000Y-56500000D03*
X60500000Y-40500000D03*
X59750000Y-41250000D03*
X59750000Y-98750000D03*
X60500000Y-99500000D03*
X111500000Y-67500000D03*
X112250000Y-66750000D03*
X120500000Y-108500000D03*
X121250000Y-107750000D03*
X75750000Y-98750000D03*
X76500000Y-99500000D03*
X98750000Y-43750000D03*
X99500000Y-44500000D03*
X59750000Y-66750000D03*
X60500000Y-67500000D03*
X107750000Y-98750000D03*
X108500000Y-99500000D03*
X59750000Y-82750000D03*
X60500000Y-83500000D03*
X105250000Y-96250000D03*
X104500000Y-95500000D03*
X72500000Y-124500000D03*
X73250000Y-123750000D03*
X89250000Y-96250000D03*
X88500000Y-95500000D03*
X96250000Y-57250000D03*
X95500000Y-56500000D03*
X115500000Y-47500000D03*
X114750000Y-48250000D03*
X47500000Y-131500000D03*
X48250000Y-130750000D03*
X51500000Y-111500000D03*
X50750000Y-112250000D03*
X104500000Y-92500000D03*
X105250000Y-91750000D03*
X51500000Y-95500000D03*
X50750000Y-96250000D03*
X123750000Y-66750000D03*
X124500000Y-67500000D03*
X82750000Y-75750000D03*
X83500000Y-76500000D03*
X98750000Y-91750000D03*
X99500000Y-92500000D03*
X56500000Y-124500000D03*
X57250000Y-123750000D03*
X95500000Y-99500000D03*
X96250000Y-98750000D03*
X121250000Y-96250000D03*
X120500000Y-95500000D03*
X73250000Y-80250000D03*
X72500000Y-79500000D03*
X111500000Y-83500000D03*
X112250000Y-82750000D03*
X72500000Y-44500000D03*
X73250000Y-43750000D03*
X57250000Y-48250000D03*
X56500000Y-47500000D03*
X105250000Y-48250000D03*
X104500000Y-47500000D03*
X66750000Y-43750000D03*
X67500000Y-44500000D03*
X95500000Y-131500000D03*
X96250000Y-130750000D03*
X73250000Y-96250000D03*
X72500000Y-95500000D03*
X96250000Y-105250000D03*
X95500000Y-104500000D03*
X104500000Y-60500000D03*
X105250000Y-59750000D03*
X83500000Y-47500000D03*
X82750000Y-48250000D03*
X47500000Y-99500000D03*
X48250000Y-98750000D03*
X123750000Y-50750000D03*
X124500000Y-51500000D03*
X63500000Y-131500000D03*
X64250000Y-130750000D03*
X72500000Y-76500000D03*
X73250000Y-75750000D03*
X130750000Y-107750000D03*
X131500000Y-108500000D03*
X123750000Y-114750000D03*
X124500000Y-115500000D03*
X92500000Y-104500000D03*
X91750000Y-105250000D03*
X131500000Y-63500001D03*
X130750000Y-64250001D03*
X75750000Y-82750000D03*
X76500000Y-83500000D03*
X67500000Y-63500000D03*
X66750000Y-64250000D03*
X88500000Y-92500000D03*
X89250000Y-91750000D03*
X64250000Y-89250000D03*
X63500000Y-88500000D03*
X95500000Y-115500000D03*
X96250000Y-114750000D03*
X121250000Y-80250000D03*
X120500000Y-79500000D03*
X51500000Y-47500000D03*
X50750000Y-48250000D03*
X82750000Y-123750000D03*
X83500000Y-124500000D03*
X43750000Y-50750000D03*
X44500000Y-51500000D03*
X124500000Y-40500000D03*
X123750000Y-41250000D03*
X41250000Y-112250000D03*
X40500000Y-111500000D03*
X41250000Y-80250000D03*
X40500000Y-79500000D03*
X115500000Y-79500000D03*
X114750000Y-80250000D03*
X56500000Y-108500000D03*
X57250000Y-107750000D03*
X79500000Y-51500000D03*
X80250000Y-50750000D03*
X88500000Y-44500000D03*
X89250000Y-43750000D03*
X72500000Y-60500000D03*
X73250000Y-59750000D03*
X56500000Y-92500000D03*
X57250000Y-91750000D03*
X111500000Y-99500000D03*
X112250000Y-98750000D03*
X51500000Y-63500000D03*
X50750000Y-64250000D03*
X120500000Y-60500000D03*
X121250000Y-59750000D03*
X44500000Y-72500000D03*
X43750000Y-73250000D03*
X107750000Y-114750000D03*
X108500000Y-115500000D03*
X91750000Y-50750000D03*
X92500000Y-51500000D03*
X105250000Y-64250000D03*
X104500000Y-63500000D03*
X47500000Y-67500000D03*
X48250000Y-66750000D03*
X60500000Y-72500000D03*
X59750000Y-73250000D03*
X114750000Y-75750000D03*
X115500000Y-76500000D03*
X57250000Y-80250000D03*
X56500000Y-79500000D03*
X131500000Y-95500001D03*
X130750000Y-96250001D03*
X80250000Y-89250000D03*
X79500000Y-88500000D03*
X124500000Y-120500000D03*
X123750000Y-121250000D03*
X128250000Y-57250000D03*
X127500000Y-56500000D03*
X91750000Y-82750000D03*
X92500000Y-83500000D03*
X76500000Y-72500000D03*
X75750000Y-73250000D03*
X64250000Y-41250000D03*
X63500000Y-40500000D03*
X107750000Y-50750000D03*
X108500000Y-51500000D03*
X67500000Y-127500000D03*
X66750000Y-128250000D03*
X88500000Y-124500000D03*
X89250000Y-123750000D03*
X99500000Y-111500000D03*
X98750000Y-112250000D03*
X120500000Y-76500000D03*
X121250000Y-75750000D03*
X107750000Y-130750000D03*
X108500000Y-131500000D03*
X112250000Y-105250000D03*
X111500000Y-104500000D03*
X108500000Y-56500000D03*
X107750000Y-57250000D03*
X115500000Y-63500000D03*
X114750000Y-64250000D03*
X43750000Y-114750000D03*
X44500000Y-115500000D03*
X92500000Y-88500000D03*
X91750000Y-89250000D03*
X108500000Y-88500000D03*
X107750000Y-89250000D03*
X114750000Y-91750000D03*
X115500000Y-92500000D03*
X131500000Y-127500000D03*
X130750000Y-128250000D03*
X112250000Y-41250000D03*
X111500000Y-40500000D03*
X47500000Y-51500000D03*
X48250000Y-50750000D03*
X64250000Y-57250000D03*
X63500000Y-56500000D03*
X128250000Y-121250000D03*
X127500000Y-120500000D03*
X57250000Y-64250000D03*
X56500000Y-63500000D03*
X127500000Y-131500000D03*
X128250000Y-130750000D03*
X88500000Y-76500000D03*
X89250000Y-75750000D03*
X44500000Y-88500000D03*
X43750000Y-89250000D03*
X50750000Y-43750000D03*
X51500000Y-44500000D03*
X82750000Y-107750000D03*
X83500000Y-108500000D03*
X115500000Y-95500000D03*
X114750000Y-96250000D03*
X98750000Y-59750000D03*
X99500000Y-60500000D03*
X120500000Y-124500000D03*
X121250000Y-123750000D03*
X50750000Y-59750000D03*
X51500000Y-60500000D03*
X112250000Y-73250000D03*
X111500000Y-72500000D03*
X60500000Y-120500000D03*
X59750000Y-121250000D03*
X79500000Y-67500000D03*
X80250000Y-66750000D03*
X127500000Y-51500000D03*
X128250000Y-50750000D03*
X121250000Y-64250000D03*
X120500000Y-63500000D03*
X130750000Y-91750000D03*
X131500000Y-92500000D03*
X130750000Y-43750000D03*
X131500000Y-44500000D03*
X95500000Y-83500000D03*
X96250000Y-82750000D03*
X114750000Y-43750000D03*
X115500000Y-44500000D03*
X67500000Y-79500000D03*
X66750000Y-80250000D03*
X79500000Y-99500000D03*
X80250000Y-98750000D03*
X44500000Y-40500000D03*
X43750000Y-41250000D03*
X131500000Y-111500000D03*
X130750000Y-112250000D03*
X80250000Y-105250000D03*
X79500000Y-104500000D03*
X105250000Y-112250000D03*
X104500000Y-111500000D03*
X66750000Y-107750000D03*
X67500000Y-108500000D03*
X57249999Y-128250000D03*
X56499999Y-127500000D03*
X111500000Y-115500000D03*
X112250000Y-114750000D03*
X104500000Y-108500000D03*
X105250000Y-107750000D03*
X123750000Y-82750000D03*
X124500000Y-83500000D03*
X83500000Y-95500000D03*
X82750000Y-96250000D03*
X48250000Y-41250000D03*
X47500000Y-40500000D03*
X56500000Y-44500000D03*
X57250000Y-43750000D03*
X96250000Y-41250000D03*
X95500000Y-40500000D03*
X82750000Y-59750000D03*
X83500000Y-60500000D03*
X40500000Y-60500000D03*
X41250000Y-59750000D03*
X76500000Y-88500000D03*
X75750000Y-89250000D03*
X73250000Y-64250000D03*
X72500000Y-63500000D03*
X95500000Y-51500000D03*
X96250000Y-50750000D03*
X89250000Y-48250000D03*
X88500000Y-47500000D03*
X114750000Y-59750000D03*
X115500000Y-60500000D03*
X128250000Y-105250000D03*
X127500000Y-104500000D03*
X88500000Y-60500000D03*
X89250000Y-59750000D03*
X40500000Y-76500000D03*
X41250000Y-75750000D03*
X124500000Y-104500000D03*
X123750000Y-105250000D03*
X63500000Y-99500000D03*
X64250000Y-98750000D03*
X63500000Y-67500000D03*
X64250000Y-66750000D03*
X120500000Y-44500000D03*
X121250000Y-43750000D03*
X72500000Y-92500000D03*
X73250000Y-91750000D03*
X89250000Y-64250000D03*
X88500000Y-63500000D03*
X82750000Y-43750000D03*
X83500000Y-44500000D03*
X75750000Y-66750000D03*
X76500000Y-67500000D03*
X112250000Y-89250000D03*
X111500000Y-88500000D03*
X99500000Y-79500000D03*
X98750000Y-80250000D03*
X83500000Y-79500000D03*
X82750000Y-80250000D03*
X112250000Y-121250000D03*
X111500000Y-120500000D03*
X98750000Y-75750000D03*
X99500000Y-76500000D03*
X72500000Y-108500000D03*
X73250000Y-107750000D03*
X123750000Y-98750000D03*
X124500000Y-99500000D03*
X43750000Y-66750000D03*
X44500000Y-67500000D03*
X73250000Y-112250000D03*
X72500000Y-111500000D03*
X75750000Y-130750000D03*
X76500000Y-131500000D03*
X76500000Y-56500000D03*
X75750000Y-57250000D03*
X41250000Y-48250000D03*
X40500000Y-47500000D03*
X96250000Y-121250000D03*
X95500000Y-120500000D03*
X56500000Y-76500000D03*
X57250000Y-75750000D03*
X79500000Y-83500000D03*
X80250000Y-82750000D03*
X48250000Y-89250000D03*
X47500000Y-88500000D03*
X51500000Y-79500000D03*
X50750000Y-80250000D03*
X50750000Y-123750000D03*
X51500000Y-124500000D03*
X51499999Y-127500000D03*
X50749999Y-128250000D03*
X63500000Y-83500000D03*
X64250000Y-82750000D03*
X107750000Y-66750000D03*
X108500000Y-67500000D03*
X112250000Y-57250000D03*
X111500000Y-56500000D03*
X60500000Y-88500000D03*
X59750000Y-89250000D03*
X88500000Y-108500000D03*
X89250000Y-107750000D03*
%LPD*%
M02*
