M48
; DRILL file {KiCad 7.0.2} date Sun Nov  5 16:37:22 2023
; FORMAT={-:-/ absolute / metric / decimal}
; #@! TF.CreationDate,2023-11-05T16:37:22-05:00
; #@! TF.GenerationSoftware,Kicad,Pcbnew,7.0.2
; #@! TF.FileFunction,NonPlated,1,2,NPTH
FMAT,2
METRIC
; #@! TA.AperFunction,NonPlated,NPTH,ComponentDrill
T1C0.500
%
G90
G05
T1
X40.5Y-44.5
X40.5Y-47.5
X40.5Y-60.5
X40.5Y-63.5
X40.5Y-76.5
X40.5Y-79.5
X40.5Y-92.5
X40.5Y-95.5
X40.5Y-108.5
X40.5Y-111.5
X40.5Y-124.5
X40.5Y-127.5
X41.25Y-43.75
X41.25Y-48.25
X41.25Y-59.75
X41.25Y-64.25
X41.25Y-75.75
X41.25Y-80.25
X41.25Y-91.75
X41.25Y-96.25
X41.25Y-107.75
X41.25Y-112.25
X41.25Y-123.75
X41.25Y-128.25
X43.75Y-41.25
X43.75Y-50.75
X43.75Y-57.25
X43.75Y-66.75
X43.75Y-73.25
X43.75Y-82.75
X43.75Y-89.25
X43.75Y-98.75
X43.75Y-105.25
X43.75Y-114.75
X43.75Y-121.25
X43.75Y-130.75
X44.5Y-40.5
X44.5Y-51.5
X44.5Y-56.5
X44.5Y-67.5
X44.5Y-72.5
X44.5Y-83.5
X44.5Y-88.5
X44.5Y-99.5
X44.5Y-104.5
X44.5Y-115.5
X44.5Y-120.5
X44.5Y-131.5
X47.5Y-40.5
X47.5Y-51.5
X47.5Y-56.5
X47.5Y-67.5
X47.5Y-72.5
X47.5Y-83.5
X47.5Y-88.5
X47.5Y-99.5
X47.5Y-104.5
X47.5Y-115.5
X47.5Y-120.5
X47.5Y-131.5
X48.25Y-41.25
X48.25Y-50.75
X48.25Y-57.25
X48.25Y-66.75
X48.25Y-73.25
X48.25Y-82.75
X48.25Y-89.25
X48.25Y-98.75
X48.25Y-105.25
X48.25Y-114.75
X48.25Y-121.25
X48.25Y-130.75
X50.75Y-128.25
X50.75Y-43.75
X50.75Y-48.25
X50.75Y-59.75
X50.75Y-64.25
X50.75Y-75.75
X50.75Y-80.25
X50.75Y-91.75
X50.75Y-96.25
X50.75Y-107.75
X50.75Y-112.25
X50.75Y-123.75
X51.5Y-127.5
X51.5Y-44.5
X51.5Y-47.5
X51.5Y-60.5
X51.5Y-63.5
X51.5Y-76.5
X51.5Y-79.5
X51.5Y-92.5
X51.5Y-95.5
X51.5Y-108.5
X51.5Y-111.5
X51.5Y-124.5
X56.5Y-127.5
X56.5Y-44.5
X56.5Y-47.5
X56.5Y-60.5
X56.5Y-63.5
X56.5Y-76.5
X56.5Y-79.5
X56.5Y-92.5
X56.5Y-95.5
X56.5Y-108.5
X56.5Y-111.5
X56.5Y-124.5
X57.25Y-128.25
X57.25Y-43.75
X57.25Y-48.25
X57.25Y-59.75
X57.25Y-64.25
X57.25Y-75.75
X57.25Y-80.25
X57.25Y-91.75
X57.25Y-96.25
X57.25Y-107.75
X57.25Y-112.25
X57.25Y-123.75
X59.75Y-41.25
X59.75Y-50.75
X59.75Y-57.25
X59.75Y-66.75
X59.75Y-73.25
X59.75Y-82.75
X59.75Y-89.25
X59.75Y-98.75
X59.75Y-105.25
X59.75Y-114.75
X59.75Y-121.25
X59.75Y-130.75
X60.5Y-40.5
X60.5Y-51.5
X60.5Y-56.5
X60.5Y-67.5
X60.5Y-72.5
X60.5Y-83.5
X60.5Y-88.5
X60.5Y-99.5
X60.5Y-104.5
X60.5Y-115.5
X60.5Y-120.5
X60.5Y-131.5
X63.5Y-40.5
X63.5Y-51.5
X63.5Y-56.5
X63.5Y-67.5
X63.5Y-72.5
X63.5Y-83.5
X63.5Y-88.5
X63.5Y-99.5
X63.5Y-104.5
X63.5Y-115.5
X63.5Y-120.5
X63.5Y-131.5
X64.25Y-41.25
X64.25Y-50.75
X64.25Y-57.25
X64.25Y-66.75
X64.25Y-73.25
X64.25Y-82.75
X64.25Y-89.25
X64.25Y-98.75
X64.25Y-105.25
X64.25Y-114.75
X64.25Y-121.25
X64.25Y-130.75
X66.75Y-43.75
X66.75Y-48.25
X66.75Y-59.75
X66.75Y-64.25
X66.75Y-75.75
X66.75Y-80.25
X66.75Y-91.75
X66.75Y-96.25
X66.75Y-107.75
X66.75Y-112.25
X66.75Y-123.75
X66.75Y-128.25
X67.5Y-44.5
X67.5Y-47.5
X67.5Y-60.5
X67.5Y-63.5
X67.5Y-76.5
X67.5Y-79.5
X67.5Y-92.5
X67.5Y-95.5
X67.5Y-108.5
X67.5Y-111.5
X67.5Y-124.5
X67.5Y-127.5
X72.5Y-44.5
X72.5Y-47.5
X72.5Y-60.5
X72.5Y-63.5
X72.5Y-76.5
X72.5Y-79.5
X72.5Y-92.5
X72.5Y-95.5
X72.5Y-108.5
X72.5Y-111.5
X72.5Y-124.5
X72.5Y-127.5
X73.25Y-43.75
X73.25Y-48.25
X73.25Y-59.75
X73.25Y-64.25
X73.25Y-75.75
X73.25Y-80.25
X73.25Y-91.75
X73.25Y-96.25
X73.25Y-107.75
X73.25Y-112.25
X73.25Y-123.75
X73.25Y-128.25
X75.75Y-41.25
X75.75Y-50.75
X75.75Y-57.25
X75.75Y-66.75
X75.75Y-73.25
X75.75Y-82.75
X75.75Y-89.25
X75.75Y-98.75
X75.75Y-105.25
X75.75Y-114.75
X75.75Y-121.25
X75.75Y-130.75
X76.5Y-40.5
X76.5Y-51.5
X76.5Y-56.5
X76.5Y-67.5
X76.5Y-72.5
X76.5Y-83.5
X76.5Y-88.5
X76.5Y-99.5
X76.5Y-104.5
X76.5Y-115.5
X76.5Y-120.5
X76.5Y-131.5
X79.5Y-40.5
X79.5Y-51.5
X79.5Y-56.5
X79.5Y-67.5
X79.5Y-72.5
X79.5Y-83.5
X79.5Y-88.5
X79.5Y-99.5
X79.5Y-104.5
X79.5Y-115.5
X79.5Y-120.5
X79.5Y-131.5
X80.25Y-41.25
X80.25Y-50.75
X80.25Y-57.25
X80.25Y-66.75
X80.25Y-73.25
X80.25Y-82.75
X80.25Y-89.25
X80.25Y-98.75
X80.25Y-105.25
X80.25Y-114.75
X80.25Y-121.25
X80.25Y-130.75
X82.75Y-128.25
X82.75Y-43.75
X82.75Y-48.25
X82.75Y-59.75
X82.75Y-64.25
X82.75Y-75.75
X82.75Y-80.25
X82.75Y-91.75
X82.75Y-96.25
X82.75Y-107.75
X82.75Y-112.25
X82.75Y-123.75
X83.5Y-127.5
X83.5Y-44.5
X83.5Y-47.5
X83.5Y-60.5
X83.5Y-63.5
X83.5Y-76.5
X83.5Y-79.5
X83.5Y-92.5
X83.5Y-95.5
X83.5Y-108.5
X83.5Y-111.5
X83.5Y-124.5
X88.5Y-127.5
X88.5Y-44.5
X88.5Y-47.5
X88.5Y-60.5
X88.5Y-63.5
X88.5Y-76.5
X88.5Y-79.5
X88.5Y-92.5
X88.5Y-95.5
X88.5Y-108.5
X88.5Y-111.5
X88.5Y-124.5
X89.25Y-128.25
X89.25Y-43.75
X89.25Y-48.25
X89.25Y-59.75
X89.25Y-64.25
X89.25Y-75.75
X89.25Y-80.25
X89.25Y-91.75
X89.25Y-96.25
X89.25Y-107.75
X89.25Y-112.25
X89.25Y-123.75
X91.75Y-41.25
X91.75Y-50.75
X91.75Y-57.25
X91.75Y-66.75
X91.75Y-73.25
X91.75Y-82.75
X91.75Y-89.25
X91.75Y-98.75
X91.75Y-105.25
X91.75Y-114.75
X91.75Y-121.25
X91.75Y-130.75
X92.5Y-40.5
X92.5Y-51.5
X92.5Y-56.5
X92.5Y-67.5
X92.5Y-72.5
X92.5Y-83.5
X92.5Y-88.5
X92.5Y-99.5
X92.5Y-104.5
X92.5Y-115.5
X92.5Y-120.5
X92.5Y-131.5
X95.5Y-40.5
X95.5Y-51.5
X95.5Y-56.5
X95.5Y-67.5
X95.5Y-72.5
X95.5Y-83.5
X95.5Y-88.5
X95.5Y-99.5
X95.5Y-104.5
X95.5Y-115.5
X95.5Y-120.5
X95.5Y-131.5
X96.25Y-41.25
X96.25Y-50.75
X96.25Y-57.25
X96.25Y-66.75
X96.25Y-73.25
X96.25Y-82.75
X96.25Y-89.25
X96.25Y-98.75
X96.25Y-105.25
X96.25Y-114.75
X96.25Y-121.25
X96.25Y-130.75
X98.75Y-43.75
X98.75Y-48.25
X98.75Y-59.75
X98.75Y-64.25
X98.75Y-75.75
X98.75Y-80.25
X98.75Y-91.75
X98.75Y-96.25
X98.75Y-107.75
X98.75Y-112.25
X98.75Y-123.75
X98.75Y-128.25
X99.5Y-44.5
X99.5Y-47.5
X99.5Y-60.5
X99.5Y-63.5
X99.5Y-76.5
X99.5Y-79.5
X99.5Y-92.5
X99.5Y-95.5
X99.5Y-108.5
X99.5Y-111.5
X99.5Y-124.5
X99.5Y-127.5
X104.5Y-44.5
X104.5Y-47.5
X104.5Y-60.5
X104.5Y-63.5
X104.5Y-76.5
X104.5Y-79.5
X104.5Y-92.5
X104.5Y-95.5
X104.5Y-108.5
X104.5Y-111.5
X104.5Y-124.5
X104.5Y-127.5
X105.25Y-43.75
X105.25Y-48.25
X105.25Y-59.75
X105.25Y-64.25
X105.25Y-75.75
X105.25Y-80.25
X105.25Y-91.75
X105.25Y-96.25
X105.25Y-107.75
X105.25Y-112.25
X105.25Y-123.75
X105.25Y-128.25
X107.75Y-41.25
X107.75Y-50.75
X107.75Y-57.25
X107.75Y-66.75
X107.75Y-73.25
X107.75Y-82.75
X107.75Y-89.25
X107.75Y-98.75
X107.75Y-105.25
X107.75Y-114.75
X107.75Y-121.25
X107.75Y-130.75
X108.5Y-40.5
X108.5Y-51.5
X108.5Y-56.5
X108.5Y-67.5
X108.5Y-72.5
X108.5Y-83.5
X108.5Y-88.5
X108.5Y-99.5
X108.5Y-104.5
X108.5Y-115.5
X108.5Y-120.5
X108.5Y-131.5
X111.5Y-40.5
X111.5Y-51.5
X111.5Y-56.5
X111.5Y-67.5
X111.5Y-72.5
X111.5Y-83.5
X111.5Y-88.5
X111.5Y-99.5
X111.5Y-104.5
X111.5Y-115.5
X111.5Y-120.5
X111.5Y-131.5
X112.25Y-41.25
X112.25Y-50.75
X112.25Y-57.25
X112.25Y-66.75
X112.25Y-73.25
X112.25Y-82.75
X112.25Y-89.25
X112.25Y-98.75
X112.25Y-105.25
X112.25Y-114.75
X112.25Y-121.25
X112.25Y-130.75
X114.75Y-128.25
X114.75Y-43.75
X114.75Y-48.25
X114.75Y-59.75
X114.75Y-64.25
X114.75Y-75.75
X114.75Y-80.25
X114.75Y-91.75
X114.75Y-96.25
X114.75Y-107.75
X114.75Y-112.25
X114.75Y-123.75
X115.5Y-127.5
X115.5Y-44.5
X115.5Y-47.5
X115.5Y-60.5
X115.5Y-63.5
X115.5Y-76.5
X115.5Y-79.5
X115.5Y-92.5
X115.5Y-95.5
X115.5Y-108.5
X115.5Y-111.5
X115.5Y-124.5
X120.5Y-127.5
X120.5Y-44.5
X120.5Y-47.5
X120.5Y-60.5
X120.5Y-63.5
X120.5Y-76.5
X120.5Y-79.5
X120.5Y-92.5
X120.5Y-95.5
X120.5Y-108.5
X120.5Y-111.5
X120.5Y-124.5
X121.25Y-128.25
X121.25Y-43.75
X121.25Y-48.25
X121.25Y-59.75
X121.25Y-64.25
X121.25Y-75.75
X121.25Y-80.25
X121.25Y-91.75
X121.25Y-96.25
X121.25Y-107.75
X121.25Y-112.25
X121.25Y-123.75
X123.75Y-41.25
X123.75Y-50.75
X123.75Y-57.25
X123.75Y-66.75
X123.75Y-73.25
X123.75Y-82.75
X123.75Y-89.25
X123.75Y-98.75
X123.75Y-105.25
X123.75Y-114.75
X123.75Y-121.25
X123.75Y-130.75
X124.5Y-40.5
X124.5Y-51.5
X124.5Y-56.5
X124.5Y-67.5
X124.5Y-72.5
X124.5Y-83.5
X124.5Y-88.5
X124.5Y-99.5
X124.5Y-104.5
X124.5Y-115.5
X124.5Y-120.5
X124.5Y-131.5
X127.5Y-40.5
X127.5Y-51.5
X127.5Y-56.5
X127.5Y-67.5
X127.5Y-72.5
X127.5Y-83.5
X127.5Y-88.5
X127.5Y-99.5
X127.5Y-104.5
X127.5Y-115.5
X127.5Y-120.5
X127.5Y-131.5
X128.25Y-41.25
X128.25Y-50.75
X128.25Y-57.25
X128.25Y-66.75
X128.25Y-73.25
X128.25Y-82.75
X128.25Y-89.25
X128.25Y-98.75
X128.25Y-105.25
X128.25Y-114.75
X128.25Y-121.25
X128.25Y-130.75
X130.75Y-43.75
X130.75Y-48.25
X130.75Y-59.75
X130.75Y-64.25
X130.75Y-75.75
X130.75Y-80.25
X130.75Y-91.75
X130.75Y-96.25
X130.75Y-107.75
X130.75Y-112.25
X130.75Y-123.75
X130.75Y-128.25
X131.5Y-44.5
X131.5Y-47.5
X131.5Y-60.5
X131.5Y-63.5
X131.5Y-76.5
X131.5Y-79.5
X131.5Y-92.5
X131.5Y-95.5
X131.5Y-108.5
X131.5Y-111.5
X131.5Y-124.5
X131.5Y-127.5
T0
M30
